<svg width="40" height="40" viewBox="0 0 40 40" fill="none" xmlns="http://www.w3.org/2000/svg">
<path d="M13.0501 15.4222H14.9636M14.9636 15.4222L18.2438 25.4968M14.9636 15.4222H17.0274M27.8247 19.1535C28.2136 19.2162 28.6128 19.149 28.9577 18.9627C29.3025 18.7765 29.5727 18.4821 29.7245 18.1274C30.6402 15.6887 28.4397 15.8353 28.4397 15.8353H24.7222L25.7473 18.5005H16.098L12.1755 24.0176L10.3577 26.8694M25.6925 18.3939L27.9203 23.4579L29.5604 27.0027M19.6104 25.8433L25.7471 18.5272M19.7881 8.43923H24.9544M23.3007 9.87847V8.43923M16.098 26.5896C16.098 29.5777 13.6136 32 10.549 32C7.48437 32 5 29.5777 5 26.5896C5 23.6014 7.48437 21.1791 10.549 21.1791C13.6136 21.1791 16.098 23.6014 16.098 26.5896ZM35 26.5896C35 29.5777 32.5156 32 29.451 32C26.3864 32 23.902 29.5777 23.902 26.5896C23.902 23.6014 26.3864 21.1791 29.451 21.1791C32.5156 21.1791 35 23.6014 35 26.5896ZM20.0205 26.7761C20.0205 27.4827 19.433 28.0554 18.7084 28.0554C17.9837 28.0554 17.3963 27.4827 17.3963 26.7761C17.3963 26.0696 17.9837 25.4968 18.7084 25.4968C19.433 25.4968 20.0205 26.0696 20.0205 26.7761ZM19.7198 8.43923C19.7198 9.2341 19.059 9.87847 18.2437 9.87847C17.4285 9.87847 16.7677 9.2341 16.7677 8.43923C16.7677 7.64437 17.4285 7 18.2437 7C19.059 7 19.7198 7.64437 19.7198 8.43923ZM11.4375 26.7761C11.4375 27.2913 11.0091 27.709 10.4807 27.709C9.95235 27.709 9.52401 27.2913 9.52401 26.7761C9.52401 26.2609 9.95235 25.8433 10.4807 25.8433C11.0091 25.8433 11.4375 26.2609 11.4375 26.7761ZM30.5172 26.7761C30.5172 27.2913 30.0888 27.709 29.5604 27.709C29.0321 27.709 28.6037 27.2913 28.6037 26.7761C28.6037 26.2609 29.0321 25.8433 29.5604 25.8433C30.0888 25.8433 30.5172 26.2609 30.5172 26.7761Z" stroke="#737373" stroke-width="0.4" stroke-miterlimit="10" stroke-linecap="round"/>
</svg>
