<svg width="40" height="40" viewBox="0 0 40 40" fill="none" xmlns="http://www.w3.org/2000/svg">
<path d="M27.9556 13.8077H34.3875C34.4689 13.8076 34.5495 13.8239 34.6246 13.8555C34.6997 13.8871 34.7677 13.9333 34.8247 13.9916C34.8817 14.0499 34.9265 14.1189 34.9565 14.1947C34.9865 14.2706 35.0011 14.3516 34.9994 14.4332V17.5983C34.9994 17.7608 34.935 17.9168 34.8202 18.0317C34.7054 18.1467 34.5498 18.2113 34.3875 18.2113H5.56289C5.4094 18.1987 5.26629 18.1286 5.16212 18.0149C5.05795 17.9013 5.00038 17.7525 5.00089 17.5983V14.4332C4.99923 14.3516 5.01383 14.2706 5.04384 14.1947C5.07385 14.1189 5.11866 14.0499 5.17565 13.9916C5.23264 13.9333 5.30067 13.8871 5.37574 13.8555C5.45081 13.8239 5.53142 13.8076 5.61285 13.8077H11.9697M9.07221 33.0359H6.59939V18.2112H33.3508V33.0359H16.6405M33.1884 33.0359H34.5248C34.5887 33.0375 34.6518 33.0517 34.7102 33.0778C34.7687 33.1038 34.8215 33.1411 34.8656 33.1876C34.9096 33.2341 34.9441 33.2888 34.9671 33.3486C34.99 33.4084 35.001 33.4722 34.9993 33.5363V34.4996C35.0027 34.5641 34.993 34.6286 34.9706 34.6892C34.9483 34.7498 34.9139 34.8052 34.8695 34.852C34.8251 34.8989 34.7716 34.9361 34.7123 34.9616C34.6531 34.987 34.5892 35.0001 34.5248 35H5.42543C5.30397 34.9873 5.19206 34.9283 5.11298 34.8351C5.03389 34.7419 4.99372 34.6217 5.0008 34.4996V33.5363C4.99914 33.4722 5.0101 33.4084 5.03305 33.3486C5.05601 33.2888 5.09051 33.2341 5.13458 33.1876C5.17865 33.1411 5.23144 33.1038 5.28991 33.0778C5.34839 33.0517 5.41141 33.0375 5.47538 33.0359H6.49948M18.8262 28.332H30.953M26.4694 24.6415L25.0831 26.1052M26.0448 22.7274L23.2098 25.6423M15.3417 7.59007H17.9269M14.2178 9.75433H17.927M14.2178 11.9812H17.927M22.0234 7.59007H24.6211M22.0234 9.75433H25.8201M22.0234 11.9812H25.8201M19.9377 5.83862L19.9752 16.2597M15.4042 27.7441V29.9208M9.447 21.6641H16.1161C16.2155 21.6641 16.3108 21.7036 16.381 21.774C16.4513 21.8444 16.4908 21.9399 16.4908 22.0394V35H9.07233V22.0894C9.06517 22.0361 9.06953 21.9819 9.08512 21.9304C9.10072 21.8789 9.12718 21.8314 9.16271 21.7911C9.19824 21.7507 9.24202 21.7185 9.29107 21.6966C9.34012 21.6747 9.3933 21.6636 9.447 21.6641ZM19.3757 20.4506H30.2786C30.651 20.4506 30.953 20.753 30.953 21.1261V30.146C30.953 30.5191 30.651 30.8216 30.2786 30.8216H19.3757C19.0032 30.8216 18.7013 30.5191 18.7013 30.146V21.1261C18.7013 20.753 19.0032 20.4506 19.3757 20.4506ZM12.0696 5.4383V14.5332C12.0696 14.6072 12.0841 14.6804 12.1124 14.7487C12.1406 14.817 12.182 14.879 12.2342 14.9313C12.2864 14.9836 12.3483 15.0251 12.4165 15.0534C12.4847 15.0816 12.5578 15.0962 12.6316 15.0962H16.3033C16.8717 15.0937 17.4324 15.2266 17.9394 15.484L19.9751 16.4848L21.3864 15.7092C22.0866 15.3351 22.8658 15.1336 23.6593 15.1212H27.0564C27.2552 15.1148 27.444 15.032 27.5835 14.8899C27.723 14.7478 27.8026 14.5574 27.8057 14.3581V5.60093C27.8074 5.52161 27.7931 5.44276 27.7635 5.36913C27.734 5.29551 27.6899 5.22863 27.6339 5.17252C27.5779 5.11642 27.5111 5.07225 27.4376 5.04268C27.3641 5.0131 27.2854 4.99874 27.2062 5.00044H21.811C21.4427 5.04092 21.0881 5.16294 20.7727 5.35768C20.4573 5.55241 20.1891 5.81498 19.9876 6.12636C19.9876 6.12636 19.8627 5.11304 18.2142 5.00044H12.6191C12.4903 4.99521 12.3639 5.03656 12.263 5.11695C12.1621 5.19734 12.0934 5.3114 12.0696 5.4383Z" stroke="#737373" stroke-width="0.4" stroke-miterlimit="10" stroke-linecap="round"/>
</svg>
