<svg width="40" height="40" viewBox="0 0 40 40" fill="none" xmlns="http://www.w3.org/2000/svg">
<path d="M4.29806 15.2122C6.27034 14.1295 7.76481 12.3282 8.48018 10.1715C8.49697 10.121 8.52909 10.0772 8.57192 10.0464C8.61476 10.0156 8.6661 9.9994 8.71859 10.0001H10.4769C10.5421 9.99873 10.6063 10.0172 10.6612 10.0531C10.7161 10.0891 10.7591 10.1408 10.7848 10.2017C11.5878 12.1831 12.958 13.8745 14.7183 15.0572C16.4786 16.2398 18.5481 16.8592 20.659 16.8354C22.7315 16.8076 24.7493 16.1569 26.4574 14.9653C28.1654 13.7738 29.487 12.095 30.255 10.1412C30.2734 10.1003 30.3027 10.0655 30.3395 10.0406C30.3764 10.0156 30.4194 10.0016 30.4636 10.0001H32.202C32.2584 9.99892 32.3137 10.0158 32.3601 10.0484C32.4064 10.081 32.4415 10.1276 32.4603 10.1815C33.2688 12.3058 34.7506 14.0969 36.6722 15.2727M30.3046 27.2295L30.3145 10.0404M32.4504 27.2295L32.4007 10.1412M4.29806 19.9607H8.52985V26.6447M4.28812 22.108H8.5199M10.7053 10.0706V27.2295M8.52986 10.0706V27.2295M10.7053 19.9607H30.3046M10.9437 22.108H30.3145M37 22.108H32.4503M6.48344 13.5387V19.9607M12.8212 13.3976V19.9607M15.8809 15.7264V19.7489M18.9603 16.6841V19.8699M22.0298 16.8152V19.7489M25.1391 15.7768V19.9607M28.2583 13.3471V19.7489M7.42722 29.7196V27.4916C7.42722 27.4221 7.45443 27.3554 7.50287 27.3062C7.55131 27.2571 7.617 27.2295 7.6855 27.2295H11.5001C11.5896 27.2295 11.6756 27.2656 11.7389 27.3299C11.8022 27.3941 11.8378 27.4813 11.8378 27.5722V29.8204M29.3212 29.8204V27.5319C29.3211 27.4534 29.3512 27.378 29.4049 27.3215C29.4587 27.2651 29.5319 27.2321 29.6092 27.2295H33.1357C33.1801 27.2295 33.224 27.2383 33.265 27.2556C33.306 27.2728 33.3432 27.298 33.3746 27.3299C33.4059 27.3617 33.4308 27.3995 33.4478 27.4411C33.4648 27.4827 33.4735 27.5272 33.4735 27.5722V29.8204M36.9602 29.276C36.9602 29.276 34.1689 30.4959 32.0927 29.6793C31.611 29.4744 31.0749 29.4424 30.5728 29.5885C29.2186 30.0238 27.7649 30.0238 26.4106 29.5885C25.9726 29.4372 25.4976 29.4372 25.0596 29.5885C23.7317 30.0186 22.3048 30.0186 20.9768 29.5885C20.4599 29.433 19.9061 29.4615 19.4073 29.6692C18.1993 30.1367 16.8594 30.1077 15.6722 29.5885C15.1916 29.407 14.6627 29.407 14.1821 29.5885C13.1366 30.0304 11.9646 30.052 10.904 29.649C10.4271 29.4299 9.89056 29.3837 9.3841 29.518C8.03389 29.8911 6.60653 29.8631 5.27152 29.4373C4.85131 29.3578 4.42022 29.3578 4 29.4373M34.5166 13.4681V19.9607M32.4901 19.9607H36.9206" stroke="#737373" stroke-width="0.4" stroke-miterlimit="10" stroke-linecap="round"/>
</svg>
