<svg width="40" height="40" viewBox="0 0 40 40" fill="none" xmlns="http://www.w3.org/2000/svg">
<path d="M7.98051 21.1378L9.72467 26.4092C9.79537 26.6346 9.93731 26.8319 10.1298 26.9722C10.3223 27.1125 10.5553 27.1886 10.7947 27.1893H13.8122C14.2596 27.1847 14.6986 27.3093 15.0749 27.5478C15.6741 27.9379 16.4017 28.5072 15.6741 28.6021C13.7073 28.7275 11.7343 28.7275 9.76747 28.6021C9.45575 28.5991 9.15395 28.4938 8.90977 28.3028C8.66559 28.1119 8.49298 27.8462 8.41922 27.5478L7.96981 25.9558M12.4641 28.6864C12.4641 28.6864 12.4641 32.4923 12.4641 33.7469C12.4641 34.0948 13.8765 34.0737 13.8765 33.7469C13.8765 32.4818 13.8765 28.6864 13.8765 28.6864M26.2889 17.1421V23.8157M20.7247 23.8156L21.2919 23.0355C21.3636 22.9334 21.4596 22.8503 21.5716 22.7933C21.6835 22.7363 21.8079 22.7073 21.9339 22.7087H25.3045M27.4446 23.9105L27.9475 23.1198C28.0185 22.9965 28.1211 22.8936 28.245 22.8215C28.3689 22.7494 28.5098 22.7105 28.6538 22.7087H32.0672M33.6615 17.9644H34.9348C34.9348 17.9644 35.6625 17.9012 35.6732 19.0187M18.8201 17.9539H17.6109C17.6109 17.9539 16.9261 18.0172 16.8726 18.5865V19.1347M18.8843 28.1382H21.2598C21.358 28.1364 21.4549 28.1597 21.5412 28.2059C21.6275 28.2521 21.7001 28.3196 21.752 28.4017C21.752 28.4017 22.822 29.572 22.4796 29.572C21.4738 29.572 18.8843 29.5087 18.8843 29.5087M33.6614 28.1382H31.1255C31.0029 28.137 30.8824 28.1688 30.7768 28.2301C30.6712 28.2914 30.5846 28.3799 30.5262 28.4861C30.5262 28.4861 29.5846 29.5404 29.9056 29.5404H33.6614M23.5175 28.1276H28.9533M24.1381 29.572H28.2792M15.3317 33.7469H37M32.998 7C33.1257 7 33.2482 7.04998 33.3385 7.13896C33.4288 7.22793 33.4795 7.3486 33.4795 7.47442C33.4795 8.07838 33.236 8.6576 32.8026 9.08467C32.3691 9.51173 31.7813 9.75165 31.1683 9.75165H17.6858C17.3395 9.75165 17.0075 9.61614 16.7627 9.37493C16.5178 9.13372 16.3803 8.80656 16.3803 8.46544V7H32.998ZM6.04383 31.1218V17.5006C6.03036 16.1888 6.27002 14.8866 6.75006 13.663C7.5247 11.7389 8.85708 10.0821 10.5811 8.89907C12.305 7.71607 14.3443 7.05926 16.4446 7.01054V8.9504C16.4446 8.9504 11.2549 9.16125 8.95434 13.6841C8.31449 14.9179 7.98077 16.2837 7.9806 17.6692V31.1218H6.04383ZM20.2004 15.2128H32.3881C33.0914 15.2128 33.6615 15.7745 33.6615 16.4674V29.9621C33.6615 30.6549 33.0914 31.2166 32.3881 31.2166H20.2004C19.4971 31.2166 18.927 30.6549 18.927 29.9621V16.4674C18.927 15.7745 19.4971 15.2128 20.2004 15.2128ZM18.927 16.984H33.6829V21.8125C33.6829 22.3941 33.4484 22.9519 33.031 23.3631C32.6136 23.7744 32.0475 24.0054 31.4572 24.0054H21.1848C20.5945 24.0054 20.0284 23.7744 19.611 23.3631C19.1936 22.9519 18.9591 22.3941 18.9591 21.8125V16.984H18.927ZM19.9863 31.2167H22.7791V33.0089C22.7791 33.1711 22.7138 33.3266 22.5974 33.4413C22.481 33.556 22.3231 33.6204 22.1585 33.6204H20.607C20.4424 33.6204 20.2845 33.556 20.1681 33.4413C20.0517 33.3266 19.9863 33.1711 19.9863 33.0089V31.2167ZM29.7772 31.2167H32.6128V33.0089C32.6128 33.1711 32.5474 33.3266 32.4311 33.4413C32.3147 33.556 32.1568 33.6204 31.9922 33.6204H30.3979C30.2333 33.6204 30.0754 33.556 29.959 33.4413C29.8426 33.3266 29.7772 33.1711 29.7772 33.0089V31.2167ZM5.43385 31.1218H8.56907C8.75877 31.1218 8.94662 31.1586 9.12188 31.2301C9.29714 31.3016 9.45639 31.4065 9.59053 31.5386C9.72466 31.6708 9.83107 31.8277 9.90367 32.0004C9.97626 32.1731 10.0136 32.3581 10.0136 32.545V33.5255C10.0136 33.6122 9.97868 33.6953 9.91647 33.7566C9.85426 33.8179 9.76989 33.8523 9.68191 33.8523H4.33171C4.24374 33.8523 4.15936 33.8179 4.09716 33.7566C4.03495 33.6953 4 33.6122 4 33.5255V32.545C3.99999 32.1694 4.15071 31.809 4.41931 31.5423C4.68791 31.2757 5.05259 31.1246 5.43385 31.1218ZM16.6478 19.1347H17.3005C17.6019 19.1347 17.8463 19.3754 17.8463 19.6724V22.2448C17.8463 22.5417 17.6019 22.7825 17.3005 22.7825H16.6478C16.3464 22.7825 16.1021 22.5417 16.1021 22.2448V19.6724C16.1021 19.3754 16.3464 19.1347 16.6478 19.1347ZM35.3201 19.1347H35.9728C36.2742 19.1347 36.5185 19.3754 36.5185 19.6724V22.2448C36.5185 22.5417 36.2742 22.7825 35.9728 22.7825H35.3201C35.0187 22.7825 34.7744 22.5417 34.7744 22.2448V19.6724C34.7744 19.3754 35.0187 19.1347 35.3201 19.1347Z" stroke="#737373" stroke-width="0.4" stroke-miterlimit="10" stroke-linecap="round"/>
</svg>
