<svg width="40" height="40" viewBox="0 0 40 40" fill="none" xmlns="http://www.w3.org/2000/svg">
<path d="M25.7605 8.96332H34.9593C35.0697 8.96332 35.1756 9.0079 35.2537 9.08725C35.3317 9.16661 35.3756 9.27423 35.3756 9.38645V11.5162C35.3721 11.6273 35.3271 11.7329 35.2498 11.8115C35.1725 11.8901 35.0686 11.9358 34.9593 11.9393H5.89214C5.78044 11.9394 5.67309 11.8953 5.59281 11.8163C5.51254 11.7373 5.46564 11.6297 5.46203 11.5162V9.38645C5.462 9.32968 5.47321 9.27348 5.49499 9.2212C5.51677 9.16892 5.54868 9.12164 5.58881 9.08216C5.62894 9.04267 5.67648 9.01181 5.72859 8.99139C5.78071 8.97098 5.83633 8.96143 5.89214 8.96332H15.0216M6.33614 20.8251V11.9393M6.33614 11.9393H34.4321V29.7109M6.33614 11.9393V16.5797H13.5232M13.5232 11.9393V16.5797M13.5232 16.5797H20.6964M20.6964 11.9393V16.5797M20.6964 16.5797H27.8833M27.8833 11.9393V16.5797M27.8833 16.5797H34.2795V11.9393M7.32129 33.0536H5.73959C5.73959 33.0536 4.93487 33.1382 5.00424 31.897V21.8124C5.00424 21.8124 4.85162 20.9803 6.57207 21.0367H27.8834C27.8834 21.0367 29.5206 20.9379 29.9646 21.9958L31.5879 26.2271V32.0804C31.5879 32.0804 31.7544 33.237 30.3669 33.2228H29.3125M11.3587 33.1805H25.0945M30.3531 23.0254H7.15486V26.3258L25.4277 26.1989L27.5088 27.5106H31.588M10.2766 26.1566V23.0254M13.4538 23.0254V26.2835M16.4785 23.0254V26.1566M19.5447 23.0254V26.1566M22.5139 23.0254V26.0014M25.6357 23.0254V26.3258M8.02895 20.8251C8.02895 20.8251 7.86245 19.2595 8.02895 19.2595C9.92976 19.2595 11.4698 19.2595 12.6076 19.2595C13.1903 19.2595 13.995 19.4429 14.1893 21.0226M15.7292 5H25.2194C25.5183 5 25.7605 5.24627 25.7605 5.55007V9.56982C25.7605 9.87361 25.5183 10.1199 25.2194 10.1199H15.7292C15.4304 10.1199 15.1881 9.87361 15.1881 9.56982V5.55007C15.1881 5.24627 15.4304 5 15.7292 5ZM31.7128 29.7109H35.7503C35.8165 29.7109 35.88 29.7376 35.9268 29.7852C35.9737 29.8328 36 29.8974 36 29.9647V31.2341C36 31.3015 35.9737 31.366 35.9268 31.4137C35.88 31.4613 35.8165 31.488 35.7503 31.488H31.7128V29.7109ZM11.1645 33.1805C11.1645 34.1854 10.3632 35 9.3747 35C8.38621 35 7.58488 34.1854 7.58488 33.1805C7.58488 32.1757 8.38621 31.3611 9.3747 31.3611C10.3632 31.3611 11.1645 32.1757 11.1645 33.1805ZM29.0072 33.1805C29.0072 34.1854 28.2059 35 27.2174 35C26.2289 35 25.4275 34.1854 25.4275 33.1805C25.4275 32.1757 26.2289 31.3611 27.2174 31.3611C28.2059 31.3611 29.0072 32.1757 29.0072 33.1805Z" stroke="#737373" stroke-width="0.4" stroke-miterlimit="10" stroke-linecap="round"/>
</svg>
