<svg width="40" height="40" viewBox="0 0 40 40" fill="none" xmlns="http://www.w3.org/2000/svg">
<path d="M7.36954 7.21028L5.07485 12.0498C5.06253 12.0809 5.05792 12.1145 5.06143 12.1478C5.06493 12.181 5.07645 12.2129 5.09496 12.2406C5.11347 12.2682 5.13839 12.2908 5.16752 12.3063C5.19664 12.3217 5.22907 12.3296 5.26192 12.3293L34.6314 12.1896C34.6598 12.1906 34.6879 12.1841 34.713 12.1706C34.7381 12.1571 34.7592 12.1372 34.7744 12.1127C34.7895 12.0883 34.7981 12.0603 34.7993 12.0314C34.8005 12.0025 34.7942 11.9738 34.7811 11.9482L32.2869 7.21028M11.5224 7.19759L10.1381 12.1896M15.6752 7.19759L15.0766 12.1896M19.8781 7.19759V12.1896M23.9436 7.19759L24.7667 12.1896M28.0217 7.19759L29.5556 12.1896M5.27443 12.4182C5.27443 12.4182 4.97512 15.8097 7.36958 16.0384C7.36958 16.0384 10.4749 16.3051 10.3252 12.4182M10.3002 12.4182C10.3002 12.4182 10.0009 15.8097 12.3579 16.0384C12.3579 16.0384 15.2263 16.2543 15.0766 12.3674M15.1765 12.3674C15.1765 12.3674 14.7899 15.8097 17.1469 16.0384C17.1469 16.0384 20.2522 16.3051 20.1026 12.4182C20.1026 12.4182 19.5787 15.8097 21.9357 16.0384C21.9357 16.0384 25.041 16.3051 24.8914 12.4182C24.8914 12.4182 24.3552 15.8097 26.7122 16.0384C26.7122 16.0384 29.8176 16.3051 29.6679 12.4182C29.6679 12.4182 29.1441 15.8097 31.5011 16.0384C31.5011 16.0384 34.6065 16.3051 34.4568 12.4182M5.08723 28.3723H14.4156M14.4156 28.3723C14.4156 28.3723 15.563 28.3723 15.2886 27.5974C15.2886 27.5974 15.0891 26.3272 13.2309 26.4034H6.99531M14.4156 28.3723L15.0767 34.5329C15.1141 34.9775 14.5529 34.9775 14.5529 34.9775C14.4907 34.9965 14.4253 35.0023 14.3607 34.9945C14.2962 34.9867 14.2339 34.9655 14.1777 34.9321C14.1216 34.8988 14.0728 34.854 14.0343 34.8006C13.9959 34.7472 13.9687 34.6864 13.9543 34.6218L12.5326 28.3723M5.97273 28.5247L5.43647 34.3551C5.41576 34.4348 5.4144 34.5184 5.43252 34.5988C5.45065 34.6792 5.4877 34.7538 5.54049 34.8164C5.59328 34.8789 5.66022 34.9274 5.73553 34.9577C5.81083 34.9879 5.89225 34.9991 5.97273 34.9902C6.04698 35.0047 6.12341 35.0031 6.19701 34.9854C6.2706 34.9678 6.3397 34.9345 6.39976 34.8877C6.45982 34.8409 6.50949 34.7817 6.54551 34.714C6.58153 34.6463 6.60309 34.5716 6.60876 34.4948L7.85587 28.385M34.806 28.3723C35.2425 28.8169 34.806 19.4807 34.806 19.4807C34.806 18.5534 33.8215 18.5594 33.746 18.5661C32.7483 18.655 32.6111 19.6204 32.6111 19.6204L32.9229 26.3653C34.1326 26.3653 34.3675 27.9256 34.806 28.3723ZM34.806 28.3723L25.4651 28.3723M25.4651 28.3723C25.4651 28.3723 24.3178 28.3723 24.6046 27.5974C24.6046 27.5974 24.7917 26.3272 26.6499 26.4034H32.8855M25.4651 28.3723L24.7792 34.5329C24.7417 34.9775 25.3029 34.9775 25.3029 34.9775C25.3652 34.9965 25.4306 35.0023 25.4952 34.9945C25.5597 34.9867 25.622 34.9655 25.6781 34.9321C25.7343 34.8988 25.7831 34.854 25.8215 34.8006C25.86 34.7472 25.8872 34.6864 25.9016 34.6218L27.3233 28.3723M33.9206 28.5247L34.4444 34.3551C34.4646 34.4336 34.466 34.516 34.4485 34.5953C34.431 34.6746 34.3951 34.7484 34.3438 34.8106C34.2925 34.8728 34.2273 34.9216 34.1536 34.9528C34.08 34.9841 34.0001 34.9969 33.9206 34.9902C33.8457 35.0047 33.7686 35.0031 33.6943 34.9855C33.62 34.9679 33.5501 34.9348 33.4891 34.8882C33.428 34.8416 33.3772 34.7825 33.3399 34.7148C33.3025 34.647 33.2794 34.5721 33.2721 34.4948L32.025 28.385M8.29235 5.00009H31.2766C31.5283 4.9999 31.7702 5.09904 31.9516 5.27668C32.133 5.45433 32.2397 5.69665 32.2494 5.95276V7.22299H7.30713V5.95276C7.31687 5.69444 7.42535 5.45023 7.60942 5.27224C7.79348 5.09425 8.03856 4.99659 8.29235 5.00009ZM5.0873 19.4807L5 28.2961C5.00766 28.3185 5.02198 28.3379 5.04098 28.3517C5.05997 28.3654 5.0827 28.3728 5.106 28.3728C5.12931 28.3728 5.15204 28.3654 5.17103 28.3517C5.19003 28.3379 5.20435 28.3185 5.21201 28.2961C5.48637 27.4958 6.0351 26.3526 7.03279 26.3526L7.36951 19.6331C7.36951 19.6331 7.02032 18.4899 6.23464 18.5788C6.2097 18.5788 5.0873 18.5534 5.0873 19.4807ZM12.4951 22.4403H27.3482C27.7408 22.4403 28.059 22.7645 28.059 23.1643V23.8884C28.059 24.2882 27.7408 24.6124 27.3482 24.6124H12.4951C12.1025 24.6124 11.7842 24.2882 11.7842 23.8884V23.1643C11.7842 22.7645 12.1025 22.4403 12.4951 22.4403ZM23.1705 34.825V34.5964C23.1705 34.2326 23.0286 33.8836 22.776 33.6264C22.5234 33.3691 22.1808 33.2246 21.8236 33.2246H17.8578C17.4969 33.2176 17.1476 33.3544 16.8844 33.6059C16.6211 33.8574 16.4648 34.2037 16.4486 34.571V34.825C18.2195 34.914 21.5991 34.9013 23.1705 34.825ZM18.8554 24.7013V28.5882C18.531 30.0808 18.3803 31.6071 18.4065 33.1356H21.2998C21.3465 31.5671 21.1871 29.9993 20.8259 28.4739L20.7635 24.6632L18.8554 24.7013Z" stroke="#737373" stroke-width="0.4" stroke-miterlimit="10"/>
</svg>
