<svg width="40" height="40" viewBox="0 0 40 40" fill="none" xmlns="http://www.w3.org/2000/svg">
<path d="M17.7429 16.9404C18.0138 18.483 18.6926 19.9283 19.7112 21.1311C19.9284 21.3016 20.0889 21.532 20.1721 21.7928C20.3839 22.5403 20.8199 24.1455 20.9445 25.0033C21.0192 25.5302 21.3556 26.2286 21.4179 26.8168C21.4802 27.405 21.8414 28.6058 20.9694 29.1082C20.9694 29.1082 19.3001 30.2356 20.4088 30.5174C21.3243 30.6061 22.2465 30.6061 23.1619 30.5174C23.2992 30.2973 23.3623 30.0401 23.3422 29.7827C23.322 29.5252 23.2197 29.2806 23.0498 29.0837C22.5097 27.8668 22.3118 26.5295 22.4768 25.2116C22.5049 24.7416 22.4371 24.2708 22.2775 23.8269L21.7418 22.2707C21.5574 21.7562 21.4894 21.2084 21.5425 20.6655C21.6546 19.4401 21.7667 16.9894 21.2061 16.1806M21.7419 20.1263C21.7419 20.1263 24.5075 21.6825 29.7272 17.9574M29.8393 14.9798C29.8393 14.9798 28.2696 17.8471 32.8914 22.2707C33.3149 22.6751 33.3897 23.4961 33.9254 24.3906C34.6355 25.5179 35.3206 28.0667 34.0001 29.6964C33.7883 29.9415 32.3183 30.4684 33.3274 30.787C33.3274 30.787 35.9933 31.3261 35.9435 30.6889C35.6907 29.1427 35.6907 27.5666 35.9435 26.0203C36.0341 25.5943 36.0155 25.1529 35.8894 24.7357C35.7632 24.3186 35.5335 23.9389 35.221 23.6308C34.9953 23.4011 34.8101 23.1361 34.6728 22.8466C34.3864 22.0899 34.2388 21.2891 34.2368 20.4817C34.2241 20.0256 34.1093 19.5779 33.9005 19.1705C33.6139 18.5946 33.3025 17.8226 33.589 17.6388C34.1994 17.2344 35.6694 20.9841 35.6694 20.1753C35.6694 17.8226 33.29 10.3724 27.1983 11.1321C26.3387 11.2302 26.1767 9 24.495 9C23.4236 9 21.1439 9 21.0567 11.4507C21.0567 12.0021 19.9355 12.0512 18.8766 12.0144C17.5685 12.0144 17.145 12.5413 14.8279 15.2494C14.2922 15.8743 12.3986 15.8988 11.9252 13.6074C11.7633 12.8476 11.9875 10.74 10.9037 10.6665C10.6919 10.6665 10.9785 8.76718 10.0566 9.82099C9.65795 10.2866 8.38727 9 7.56507 10.3234C7.37821 10.642 6.43143 10.2254 6.0577 10.2621C5.68397 10.2989 4.22643 11.2179 5.53448 12.0021C6.34422 12.48 8.17549 12.1247 8.78592 13.926C8.78592 13.926 10.368 18.0432 14.3171 18.9622C14.3171 18.9622 16.5719 18.8887 17.1201 20.016C17.1201 20.016 18.2537 23.9617 17.6931 25.7875C17.4908 26.8049 17.3865 27.8388 17.3817 28.8754C17.3817 29.3288 16.3103 29.7699 16.0362 30.1008C15.7622 30.4316 15.8868 30.6522 17.282 30.4806L18.4406 30.3581C18.4406 30.3581 19.1631 30.2601 18.6648 29.194C18.4032 28.6058 19.1008 27.2702 19.0012 26.6452C18.9015 26.0203 19.6365 25.1748 19.4496 24.1945C19.3753 23.0765 19.3753 21.955 19.4496 20.837M16.9083 19.6484C17.5082 20.1153 18.2628 20.3467 19.0261 20.2979M27.9582 19.0725C28.6823 19.5755 29.2652 20.2505 29.6529 21.0346C30.0406 21.8187 30.2204 22.6865 30.1757 23.5573C30.1757 24.2435 30.948 24.4396 30.6491 26.2531C30.4871 27.2457 30.5619 29.1817 28.8053 29.8312C28.8053 29.8312 28.2323 30.2601 28.8801 30.3091H30.8733C30.9198 29.1561 31.2217 28.027 31.7578 27.0006C32.1195 26.3265 32.2875 25.5682 32.2436 24.8072C32.2149 24.1974 32.0444 23.6021 31.7453 23.0672C31.6172 22.8103 31.5591 22.525 31.5765 22.2394C31.594 21.9537 31.6865 21.6774 31.845 21.4374" stroke="#737373" stroke-width="0.4" stroke-miterlimit="10" stroke-linecap="round"/>
</svg>
