<svg width="40" height="40" viewBox="0 0 40 40" fill="none" xmlns="http://www.w3.org/2000/svg">
<path d="M6.23297 14.2909L4.21738 17.1376C4.17456 17.1957 4.14874 17.2648 4.1429 17.3372C4.13706 17.4095 4.15143 17.482 4.18437 17.5464C4.2173 17.6107 4.26745 17.6643 4.32901 17.7009C4.39058 17.7375 4.46106 17.7556 4.53231 17.7531H13.7915C13.8606 17.7538 13.9287 17.7351 13.9881 17.6992C14.0476 17.6632 14.0962 17.6113 14.1287 17.5491C14.1612 17.487 14.1763 17.4169 14.1723 17.3466C14.1684 17.2763 14.1456 17.2085 14.1064 17.1505L12.242 14.2909M5.32591 17.984L4.06617 19.869C4.02873 19.9208 4.0062 19.9822 4.00111 20.0462C3.99601 20.1103 4.00856 20.1746 4.03733 20.2319C4.0661 20.2891 4.10997 20.3371 4.16401 20.3704C4.21806 20.4037 4.28014 20.421 4.34331 20.4204H14.1568C14.2199 20.421 14.282 20.4037 14.3361 20.3704C14.3901 20.3371 14.434 20.2891 14.4627 20.2319C14.4915 20.1746 14.5041 20.1103 14.499 20.0462C14.4939 19.9822 14.4713 19.9208 14.4339 19.869L12.9726 17.7532M7.78248 20.6384V28.1142C7.78556 28.1846 7.81442 28.2513 7.86338 28.3012C7.91234 28.351 7.97785 28.3804 8.04702 28.3835H10.3146C10.3837 28.3804 10.4493 28.351 10.4982 28.3012C10.5472 28.2513 10.576 28.1846 10.5791 28.1142V20.6384M26.9054 34L36.8196 25.2803C36.9137 25.1982 36.9757 25.0843 36.9942 24.9596C37.0127 24.8348 36.9865 24.7074 36.9204 24.6007L32.4357 16.7658C32.3801 16.6611 32.2912 16.5788 32.1837 16.5322C32.0761 16.4856 31.9562 16.4776 31.8436 16.5093L18.5029 20.087C18.4317 20.1041 18.3683 20.145 18.3227 20.2031C18.277 20.2612 18.2518 20.3331 18.2509 20.4075V27.986M22.1435 33.9102C20.5246 31.9934 19.2111 29.8299 18.2509 27.4987C18.2338 27.4727 18.2266 27.4413 18.2306 27.4102C18.2347 27.3792 18.2498 27.3508 18.273 27.3303C18.2962 27.3098 18.326 27.2987 18.3568 27.299C18.3875 27.2993 18.4171 27.311 18.4399 27.332L22.3577 29.7427C22.4878 29.8292 22.595 29.947 22.6697 30.0856C22.7444 30.2243 22.7844 30.3796 22.786 30.5378V33.8718M8.87833 7.17411L4.97311 13.5857C4.93906 13.6403 4.92014 13.7032 4.91835 13.7679C4.91656 13.8326 4.93196 13.8965 4.96294 13.953C4.99391 14.0095 5.0393 14.0564 5.09431 14.0888C5.14932 14.1212 5.2119 14.1379 5.27545 14.137H13.1237C13.1862 14.1356 13.2471 14.1173 13.3004 14.084C13.3536 14.0506 13.3972 14.0035 13.4267 13.9474C13.4562 13.8913 13.4705 13.8283 13.4681 13.7647C13.4658 13.7012 13.4469 13.6394 13.4134 13.5857L9.48301 7.17411C9.45166 7.121 9.40734 7.07705 9.35436 7.04654C9.30138 7.01604 9.24154 7 9.18067 7C9.1198 7 9.05997 7.01604 9.00699 7.04654C8.95401 7.07705 8.90969 7.121 8.87833 7.17411ZM18.1753 20.4204L10.705 33.6923C10.6915 33.7133 10.6838 33.7377 10.6827 33.7629C10.6816 33.788 10.6871 33.813 10.6987 33.8352C10.7102 33.8575 10.7274 33.8761 10.7485 33.8893C10.7695 33.9025 10.7937 33.9098 10.8184 33.9103H26.6031L18.2131 20.4204C18.2131 20.4204 18.1879 20.4204 18.1753 20.4204ZM18.251 27.4474C18.8935 26.6267 15.8575 28.9862 14.8119 29.8197C14.716 29.898 14.6364 29.9951 14.578 30.1052C14.5196 30.2153 14.4835 30.3363 14.4717 30.4608C14.3584 31.538 14.1064 34.3847 14.4717 33.7564C15.7819 31.7175 16.8779 29.217 18.251 27.4474Z" stroke="#737373" stroke-width="0.4" stroke-miterlimit="10"/>
</svg>
