<svg width="40" height="40" viewBox="0 0 40 40" fill="none" xmlns="http://www.w3.org/2000/svg">
<path d="M34.8801 16.27L32.1901 16.97C32.0879 16.993 31.995 17.0464 31.9236 17.1231C31.8522 17.1999 31.8057 17.2964 31.7901 17.4C31.5201 18.92 30.1301 24.96 25.1001 24.93C25.0183 24.9274 24.9381 24.9527 24.8727 25.0018C24.8073 25.0509 24.7605 25.1208 24.7401 25.2C24.5301 26.07 23.4901 28.72 18.6401 29.2M18.6401 29.2L17.1401 31.06C16.9832 31.2446 16.8859 31.4724 16.8609 31.7133C16.8359 31.9543 16.8844 32.1971 17.0001 32.41C17.7152 33.5195 18.7081 34.4227 19.8801 35.03M18.6401 29.2C18.6401 29.2 18.15 32.35 28.48 33.13M5.11003 15.08C5.11003 15.08 5.94003 17.75 9.75003 18.13C9.887 18.1372 10.0191 18.1834 10.1307 18.2631C10.2423 18.3428 10.3288 18.4528 10.38 18.58C10.5666 19.1381 10.8663 19.6516 11.2603 20.0887C11.6543 20.5257 12.1342 20.8768 12.67 21.12C12.7973 21.1718 12.9062 21.2603 12.9828 21.3743C13.0594 21.4884 13.1002 21.6226 13.1 21.76V23.11C11.6961 23.8336 10.1704 24.2913 8.60003 24.46C7.54003 24.59 5.39003 25.27 5.03003 26.82M7.93005 22.6C7.93005 22.6 11.5801 22.4 12.6501 21.29M6.18005 19.29C6.18005 19.29 9.18005 19.39 9.96005 18.34M7.45007 13.64C9.66351 12.5376 12.1348 12.0571 14.6001 12.25M10.3101 16.58C10.3101 16.58 14.8301 14.39 18.3101 14.83M11.9301 18.52C11.9301 18.52 16.4301 16 20.0501 16.3M22.39 16.27C22.39 16.27 15.94 17.74 14.82 20.27C14.7266 20.4893 14.7145 20.7347 14.786 20.962C14.8575 21.1894 15.0079 21.3837 15.21 21.51C16.21 22.2 18.21 23.91 16.34 24.37C12.88 25.28 6.35 25.69 5 32.97M24.08 16.27C24.08 16.27 15.16 19.58 17.88 20.97C19.16 21.61 24.31 23.78 20.93 25.82C19.5387 26.7923 17.9789 27.4976 16.33 27.9C15.8192 28.011 15.3296 28.2034 14.88 28.47C13.57 29.35 11.12 31.42 12.88 33.64M24.7901 24.97C24.7901 24.97 24.5501 27.97 33.4601 27.15M31.8201 17.16C31.8201 17.16 32.2301 18.16 34.6601 18.1M25.43 16.43C25.1637 16.8863 24.7944 17.274 24.3517 17.5622C23.909 17.8504 23.405 18.0311 22.88 18.09C22.7979 18.0961 22.7182 18.1209 22.6472 18.1625C22.5761 18.2041 22.5155 18.2614 22.47 18.33L21.54 19.79C21.519 19.8193 21.506 19.8534 21.502 19.8892C21.4981 19.925 21.5034 19.9612 21.5174 19.9943C21.5315 20.0274 21.5538 20.0564 21.5823 20.0784C21.6107 20.1004 21.6444 20.1147 21.68 20.12C23.06 20.33 28.31 21.27 28.8 23.49M29.93 19.49C27.6222 18.6862 25.2109 18.2181 22.77 18.1M34.56 9.16H32.81C32.6963 9.16276 32.586 9.19947 32.4934 9.26541C32.4007 9.33134 32.3299 9.42349 32.29 9.53C31.9218 10.6346 31.2729 11.6247 30.4069 12.403C29.5409 13.1814 28.4875 13.7213 27.35 13.97C27.1667 14.0092 26.9937 14.0864 26.8421 14.1967C26.6905 14.3069 26.5638 14.4477 26.47 14.61L25.47 16.34C23.6411 16.1595 21.7989 16.1595 19.97 16.34C19.8849 16.339 19.8032 16.307 19.74 16.25L18.5 15.05C18.2736 14.8417 17.986 14.7119 17.68 14.68C17.0794 14.6496 16.5008 14.444 16.0157 14.0885C15.5306 13.7331 15.1601 13.2435 14.95 12.68C14.8837 12.5301 14.7815 12.3988 14.6524 12.2976C14.5234 12.1965 14.3714 12.1286 14.21 12.1C13.599 11.9326 13.0514 11.5877 12.6366 11.1088C12.2218 10.6299 11.9585 10.0387 11.88 9.41C11.8662 9.34025 11.8289 9.27734 11.7743 9.23183C11.7197 9.18631 11.6511 9.16095 11.58 9.16H5.58C5.46065 9.16 5.34619 9.20741 5.2618 9.29181C5.17741 9.3762 5.13 9.49066 5.13 9.61L5 34.3C5 34.4936 5.07691 34.6793 5.21381 34.8162C5.35071 34.9531 5.53639 35.03 5.73 35.03H34.38C34.4762 35.0314 34.5718 35.0134 34.6609 34.9772C34.7501 34.941 34.8311 34.8872 34.8992 34.8192C34.9672 34.7511 35.021 34.6701 35.0572 34.5809C35.0934 34.4918 35.1113 34.3962 35.11 34.3L34.81 9.41C34.81 9.3437 34.7837 9.28011 34.7368 9.23323C34.6899 9.18634 34.6263 9.16 34.56 9.16ZM26.13 7.12C26.13 8.29084 25.1809 9.24 24.01 9.24C22.8392 9.24 21.89 8.29084 21.89 7.12C21.89 5.94916 22.8392 5 24.01 5C25.1809 5 26.13 5.94916 26.13 7.12Z" stroke="#737373" stroke-width="0.4" stroke-miterlimit="10" stroke-linecap="round"/>
</svg>
