<svg width="40" height="40" viewBox="0 0 40 40" fill="none" xmlns="http://www.w3.org/2000/svg">
<path d="M10.1244 21.0145H31.1688L29.5207 16.686C29.3852 16.322 29.141 16.0082 28.8211 15.7871C28.5012 15.5659 28.121 15.448 27.7318 15.4493H13.5191C13.0374 15.4513 12.5689 15.6063 12.1814 15.8919C11.7939 16.1774 11.5076 16.5786 11.364 17.0374L10.1244 21.0145ZM10.1244 21.0145L7.60303 23.7128C7.60303 23.7128 7.11002 24.1906 7.08185 24.4155C6.97272 26.3955 6.97272 28.3801 7.08185 30.3601C7.08554 30.5552 7.16582 30.7411 7.30543 30.8777C7.44504 31.0144 7.63282 31.0909 7.8284 31.0909H33.1689C33.362 31.0873 33.5463 31.0092 33.6828 30.8729C33.8194 30.7366 33.8978 30.5528 33.9014 30.3601C33.9014 30.3601 33.9859 25.9192 33.9014 24.4155C33.8718 24.2415 33.8097 24.0746 33.7183 23.9236C33.0562 23.0663 31.1546 21.0145 31.1546 21.0145M9.02571 29.4045H13.0402M15.9137 29.4045H24.9146M27.9995 29.2359H32.014M17.8435 7.95876H18.9844L19.8437 8.74576C20.0694 8.95505 20.3666 9.07063 20.6747 9.06899C20.6747 9.06899 26.4781 9.06899 28.5628 9.06899C28.9227 9.11547 29.2658 9.24848 29.5627 9.45656C29.8596 9.66465 30.1014 9.94159 30.2672 10.2635C30.5208 10.7554 28.6896 11.7813 28.6896 11.7813C28.3102 11.8181 27.9281 11.8181 27.5487 11.7813C27.0697 11.7111 26.6472 11.0224 26.4922 11.0224C26.3373 11.0224 26.1823 11.5705 25.3935 11.7954L24.2526 11.6689C24.2526 11.6689 23.506 11.0365 23.1961 11.0646C22.8862 11.0927 22.3791 11.7954 22.3791 11.7954H20.6747C20.4029 11.7983 20.14 11.8923 19.9282 12.0624L19.083 12.7932H17.8435M17.6745 13.271C17.6745 13.4276 17.6122 13.5777 17.5012 13.6884C17.3903 13.7991 17.2398 13.8613 17.0829 13.8613C17.0829 13.8613 13.0966 13.8613 12.0401 13.8613C11.8007 13.8613 11.4063 13.1586 11.4063 13.1586C11.4063 13.1586 10.7302 12.5262 10.702 12.2451C10.603 11.0995 10.603 9.94756 10.702 8.80198C10.702 8.53496 11.2936 8.22578 11.4626 8.00093C11.6317 7.77607 12.0401 7.04528 12.3782 7.03123C13.491 6.96096 17.2238 7.03123 17.2238 7.03123C17.2823 7.02935 17.3406 7.03922 17.3952 7.06027C17.4498 7.08132 17.4996 7.11311 17.5417 7.15375C17.5837 7.1944 17.6171 7.24306 17.64 7.29686C17.6628 7.35065 17.6745 7.40848 17.6745 7.46689V13.271ZM23.3089 27.0435L17.7732 27.1278C17.5051 27.1304 17.2398 27.0738 16.9963 26.962C16.7528 26.8502 16.537 26.6861 16.3646 26.4813L14.956 24.7247H26.2247L24.6048 26.5095C24.437 26.6823 24.2354 26.8189 24.0124 26.9107C23.7895 27.0026 23.5501 27.0478 23.3089 27.0435ZM13.6883 27.1138H8.81455V24.7247H11.5613L13.6883 27.1138ZM27.1262 27.1138H32.014V24.7247H29.2532L27.1262 27.1138ZM7.81434 31.0909H13.2515V32.693C13.2515 33.0397 13.1135 33.3721 12.8678 33.6172C12.6221 33.8623 12.2889 34 11.9415 34H9.12433C8.7769 34 8.4437 33.8623 8.19803 33.6172C7.95236 33.3721 7.81434 33.0397 7.81434 32.693V31.0909ZM33.0563 31.0909V32.693C33.0563 33.0397 32.9183 33.3721 32.6726 33.6172C32.427 33.8623 32.0938 34 31.7463 34H28.9292C28.5817 34 28.2485 33.8623 28.0029 33.6172C27.7572 33.3721 27.6192 33.0397 27.6192 32.693V31.0909H33.0563ZM31.6336 19.1595H33.4225C33.7414 19.1595 34 19.4174 34 19.7356V20.4383C34 20.7566 33.7414 21.0145 33.4225 21.0145H31.6336C31.3146 21.0145 31.056 20.7566 31.056 20.4383V19.7356C31.056 19.4174 31.3146 19.1595 31.6336 19.1595ZM7.65937 19.1595H9.54688C9.86583 19.1595 10.1244 19.4174 10.1244 19.7356V20.4383C10.1244 20.7566 9.86583 21.0145 9.54688 21.0145H7.65937C7.34041 21.0145 7.08185 20.7566 7.08185 20.4383V19.7356C7.08185 19.4174 7.34041 19.1595 7.65937 19.1595ZM13.153 8.99871H13.8432C14.2244 8.99871 14.5334 9.30702 14.5334 9.68734V11.2613C14.5334 11.6417 14.2244 11.95 13.8432 11.95H13.153C12.7718 11.95 12.4628 11.6417 12.4628 11.2613V9.68734C12.4628 9.30702 12.7718 8.99871 13.153 8.99871Z" stroke="#737373" stroke-width="0.4" stroke-miterlimit="10" stroke-linecap="round"/>
</svg>
