<svg width="40" height="40" viewBox="0 0 40 40" fill="none" xmlns="http://www.w3.org/2000/svg">
<path d="M12.9301 33.055H9.11748C9.00816 33.0564 8.89965 33.0361 8.79823 32.9953C8.69682 32.9545 8.60453 32.8939 8.52672 32.8171C8.4489 32.7403 8.38712 32.6488 8.34496 32.5479C8.3028 32.447 8.28109 32.3388 8.2811 32.2295V14.0354C8.27964 13.9251 8.30027 13.8157 8.34179 13.7136C8.3833 13.6114 8.44486 13.5187 8.52282 13.4407C8.60077 13.3627 8.69356 13.3012 8.79569 13.2597C8.89783 13.2182 9.00724 13.1975 9.11748 13.199H9.87783M30.6028 13.199H31.2437C31.353 13.199 31.4613 13.2207 31.5622 13.2628C31.663 13.305 31.7545 13.3668 31.8313 13.4446C31.9081 13.5224 31.9687 13.6147 32.0095 13.7161C32.0504 13.8175 32.0707 13.926 32.0692 14.0354V32.2295C32.0692 32.4484 31.9823 32.6584 31.8274 32.8132C31.6726 32.968 31.4627 33.055 31.2437 33.055H27.2464M12.778 33.055H6.93415C6.81304 33.0594 6.69229 33.0393 6.57912 32.996C6.46595 32.9526 6.36268 32.8869 6.27548 32.8027C6.18828 32.7186 6.11894 32.6177 6.07161 32.5061C6.02427 32.3946 5.99992 32.2746 6 32.1534V17.0985C6 16.5079 6.2346 15.9415 6.6522 15.5239C7.06979 15.1064 7.63617 14.8718 8.22674 14.8718M32.0692 14.8718C32.6503 14.8859 33.2028 15.1268 33.6087 15.5428C34.0146 15.9589 34.2418 16.5172 34.2416 17.0985V32.1534C34.2416 32.3925 34.1466 32.6219 33.9775 32.7909C33.8084 32.96 33.5791 33.055 33.34 33.055H27.5722M20.1099 20.9328V33.9891M15.6673 10.2336C15.7238 9.09193 16.217 8.01566 17.045 7.22759C17.873 6.43952 18.9723 6 20.1154 6C21.2585 6 22.3578 6.43952 23.1858 7.22759C24.0137 8.01566 24.507 9.09193 24.5634 10.2336M17.1337 10.3531C17.1358 9.69073 17.354 9.04716 17.7552 8.52016C18.1565 7.99316 18.7188 7.61155 19.3567 7.43332C19.9946 7.25509 20.6733 7.28999 21.2896 7.53271C21.9059 7.77543 22.4261 8.2127 22.7712 8.77808M16.7318 18.0544H23.8248C24.3035 18.0486 24.7785 18.1379 25.2224 18.3171C25.6662 18.4963 26.0701 18.7618 26.4106 19.0983C26.7511 19.4347 27.0214 19.8354 27.2059 20.2771C27.3904 20.7188 27.4854 21.1928 27.4854 21.6715V33.3809C27.4854 33.5451 27.4201 33.7025 27.304 33.8187C27.1879 33.9348 27.0304 34 26.8662 34H13.8316C13.6674 34 13.5099 33.9348 13.3938 33.8187C13.2777 33.7025 13.2125 33.5451 13.2125 33.3809V21.6715C13.2121 20.7288 13.5798 19.8233 14.2371 19.1477C14.8945 18.4721 15.7896 18.0798 16.7318 18.0544ZM17.1663 20.7265H23.0645C23.462 20.7265 23.8433 20.8844 24.1244 21.1655C24.4055 21.4466 24.5635 21.8279 24.5635 22.2254V33.9891H15.6674V22.2472C15.6645 22.0485 15.7011 21.8512 15.7752 21.6668C15.8492 21.4825 15.9592 21.3146 16.0987 21.1731C16.2381 21.0316 16.4044 20.9193 16.5876 20.8426C16.7709 20.7659 16.9677 20.7264 17.1663 20.7265ZM12.5607 10.2445H27.9524C29.3442 10.2445 30.4724 11.3727 30.4724 12.7645V13.6878C30.4724 15.0795 29.3442 16.2078 27.9524 16.2078H12.5607C11.1689 16.2078 10.0407 15.0795 10.0407 13.6878V12.7645C10.0407 11.3727 11.1689 10.2445 12.5607 10.2445Z" stroke="#737373" stroke-width="0.5" stroke-miterlimit="10"/>
<mask id="path-2-inside-1_172_3023" fill="white">
<path d="M14.6246 12.6233C14.5937 12.5693 14.5532 12.5215 14.5051 12.4821C14.4552 12.4482 14.4002 12.4225 14.3421 12.4061C14.2561 12.3888 14.1675 12.3888 14.0815 12.4061C14.0179 12.41 13.9559 12.4276 13.8997 12.4576C13.8434 12.4876 13.7943 12.5293 13.7556 12.5799C13.6837 12.6892 13.6322 12.8106 13.6035 12.9383C13.5819 13.0787 13.5819 13.2215 13.6035 13.3619C13.6101 13.494 13.6433 13.6233 13.7013 13.7421C13.7438 13.8379 13.8069 13.9232 13.8859 13.9919C13.9612 14.057 14.058 14.0919 14.1575 14.0897C14.2459 14.0859 14.3318 14.0598 14.4073 14.0137C14.4629 13.9748 14.5077 13.9225 14.5377 13.8616C14.575 13.7909 14.5972 13.7132 14.6028 13.6335H15.3958C15.3912 13.7368 15.3729 13.8391 15.3415 13.9376C15.3178 14.0361 15.2813 14.1311 15.2328 14.22C15.1779 14.3268 15.1084 14.4255 15.0265 14.5133C14.9228 14.6065 14.8056 14.6834 14.6789 14.7414C14.5188 14.8011 14.35 14.8341 14.1792 14.8392C14.0462 14.8617 13.9103 14.8617 13.7773 14.8392C13.6522 14.8073 13.5342 14.752 13.4297 14.6762C13.3323 14.6006 13.2447 14.513 13.169 14.4156C13.0863 14.3125 13.0169 14.1993 12.9627 14.0788C12.8978 13.9216 12.8504 13.7577 12.8214 13.59C12.7998 13.4169 12.7998 13.2418 12.8214 13.0686C12.832 12.8985 12.8649 12.7305 12.9192 12.569C12.9709 12.4093 13.0479 12.2589 13.1473 12.1236C13.2489 11.9898 13.374 11.8757 13.5166 11.7869C13.6689 11.6959 13.8396 11.6402 14.0163 11.624C14.1634 11.5963 14.3145 11.5963 14.4616 11.624C14.5828 11.6404 14.7003 11.6771 14.8092 11.7326C14.9018 11.7816 14.9891 11.8398 15.0699 11.9064C15.1335 11.9624 15.1917 12.0242 15.2437 12.0911C15.292 12.1566 15.3356 12.2256 15.3741 12.2974L14.6246 12.6233Z"/>
</mask>
<path d="M14.6246 12.6233C14.5937 12.5693 14.5532 12.5215 14.5051 12.4821C14.4552 12.4482 14.4002 12.4225 14.3421 12.4061C14.2561 12.3888 14.1675 12.3888 14.0815 12.4061C14.0179 12.41 13.9559 12.4276 13.8997 12.4576C13.8434 12.4876 13.7943 12.5293 13.7556 12.5799C13.6837 12.6892 13.6322 12.8106 13.6035 12.9383C13.5819 13.0787 13.5819 13.2215 13.6035 13.3619C13.6101 13.494 13.6433 13.6233 13.7013 13.7421C13.7438 13.8379 13.8069 13.9232 13.8859 13.9919C13.9612 14.057 14.058 14.0919 14.1575 14.0897C14.2459 14.0859 14.3318 14.0598 14.4073 14.0137C14.4629 13.9748 14.5077 13.9225 14.5377 13.8616C14.575 13.7909 14.5972 13.7132 14.6028 13.6335H15.3958C15.3912 13.7368 15.3729 13.8391 15.3415 13.9376C15.3178 14.0361 15.2813 14.1311 15.2328 14.22C15.1779 14.3268 15.1084 14.4255 15.0265 14.5133C14.9228 14.6065 14.8056 14.6834 14.6789 14.7414C14.5188 14.8011 14.35 14.8341 14.1792 14.8392C14.0462 14.8617 13.9103 14.8617 13.7773 14.8392C13.6522 14.8073 13.5342 14.752 13.4297 14.6762C13.3323 14.6006 13.2447 14.513 13.169 14.4156C13.0863 14.3125 13.0169 14.1993 12.9627 14.0788C12.8978 13.9216 12.8504 13.7577 12.8214 13.59C12.7998 13.4169 12.7998 13.2418 12.8214 13.0686C12.832 12.8985 12.8649 12.7305 12.9192 12.569C12.9709 12.4093 13.0479 12.2589 13.1473 12.1236C13.2489 11.9898 13.374 11.8757 13.5166 11.7869C13.6689 11.6959 13.8396 11.6402 14.0163 11.624C14.1634 11.5963 14.3145 11.5963 14.4616 11.624C14.5828 11.6404 14.7003 11.6771 14.8092 11.7326C14.9018 11.7816 14.9891 11.8398 15.0699 11.9064C15.1335 11.9624 15.1917 12.0242 15.2437 12.0911C15.292 12.1566 15.3356 12.2256 15.3741 12.2974L14.6246 12.6233Z" fill="#737373"/>
<path d="M14.6246 12.6233L13.7568 13.1203L14.2019 13.8975L15.0233 13.5404L14.6246 12.6233ZM14.5051 12.4821L15.1388 11.7085L15.104 11.68L15.0668 11.6548L14.5051 12.4821ZM14.3421 12.4061L14.6154 11.4441L14.5775 11.4333L14.5389 11.4256L14.3421 12.4061ZM14.0815 12.4061L14.1438 13.4041L14.2116 13.3999L14.2782 13.3865L14.0815 12.4061ZM13.7556 12.5799L12.9615 11.972L12.9397 12.0006L12.9199 12.0306L13.7556 12.5799ZM13.6035 12.9383L12.6278 12.7191L12.6204 12.7523L12.6152 12.786L13.6035 12.9383ZM13.6035 13.3619L14.6023 13.3124L14.5997 13.2607L14.5919 13.2096L13.6035 13.3619ZM13.7013 13.7421L14.6151 13.3361L14.6079 13.3197L14.6001 13.3037L13.7013 13.7421ZM13.8859 13.9919L13.2297 14.7464L13.232 14.7485L13.8859 13.9919ZM14.1575 14.0897L14.1792 15.0895L14.1895 15.0892L14.1998 15.0888L14.1575 14.0897ZM14.4073 14.0137L14.9288 14.8669L14.9552 14.8508L14.9805 14.8331L14.4073 14.0137ZM14.5377 13.8616L13.6534 13.3946L13.6466 13.4075L13.6402 13.4205L14.5377 13.8616ZM14.6028 13.6335V12.6335H13.6712L13.6053 13.5628L14.6028 13.6335ZM15.3958 13.6335L16.3948 13.6781L16.4415 12.6335H15.3958V13.6335ZM15.3415 13.9376L14.3888 13.6337L14.3776 13.6687L14.369 13.7044L15.3415 13.9376ZM15.2328 14.22L14.3548 13.7415L14.3491 13.752L14.3436 13.7625L15.2328 14.22ZM15.0265 14.5133L15.6948 15.2571L15.7274 15.2279L15.7573 15.1958L15.0265 14.5133ZM14.6789 14.7414L15.028 15.6785L15.0622 15.6658L15.0953 15.6506L14.6789 14.7414ZM14.1792 14.8392L14.1495 13.8396L14.0806 13.8417L14.0126 13.8532L14.1792 14.8392ZM13.7773 14.8392L13.5307 15.8083L13.5703 15.8184L13.6107 15.8252L13.7773 14.8392ZM13.4297 14.6762L12.8164 15.4661L12.8294 15.4761L12.8426 15.4858L13.4297 14.6762ZM13.169 14.4156L13.9589 13.8022L13.9539 13.7958L13.9488 13.7895L13.169 14.4156ZM12.9627 14.0788L12.0383 14.4603L12.0444 14.475L12.0509 14.4896L12.9627 14.0788ZM12.8214 13.59L11.8292 13.7144L11.8321 13.7374L11.836 13.7603L12.8214 13.59ZM12.8214 13.0686L13.8137 13.193L13.8176 13.1618L13.8195 13.1305L12.8214 13.0686ZM12.9192 12.569L13.8671 12.8879L13.8707 12.8766L12.9192 12.569ZM13.1473 12.1236L12.3508 11.519L12.3462 11.5251L12.3416 11.5313L13.1473 12.1236ZM13.5166 11.7869L13.0033 10.9287L12.9956 10.9333L12.9879 10.9381L13.5166 11.7869ZM14.0163 11.624L14.1076 12.6198L14.1546 12.6155L14.201 12.6068L14.0163 11.624ZM14.4616 11.624L14.2769 12.6068L14.3022 12.6115L14.3276 12.615L14.4616 11.624ZM14.8092 11.7326L15.2772 10.8489L15.2703 10.8452L15.2633 10.8416L14.8092 11.7326ZM15.0699 11.9064L15.7309 11.156L15.7185 11.1451L15.7057 11.1345L15.0699 11.9064ZM15.2437 12.0911L16.0488 11.4979L16.0409 11.4872L16.0327 11.4767L15.2437 12.0911ZM15.3741 12.2974L15.7728 13.2145L16.7679 12.7819L16.2556 11.8253L15.3741 12.2974ZM14.6246 12.6233L15.4923 12.1263C15.4009 11.9667 15.2811 11.8251 15.1388 11.7085L14.5051 12.4821L13.8713 13.2556C13.8252 13.2179 13.7864 13.172 13.7568 13.1203L14.6246 12.6233ZM14.5051 12.4821L15.0668 11.6548C14.9286 11.5609 14.7762 11.4898 14.6154 11.4441L14.3421 12.4061L14.0689 13.368C14.0242 13.3553 13.9818 13.3355 13.9434 13.3094L14.5051 12.4821ZM14.3421 12.4061L14.5389 11.4256C14.323 11.3823 14.1006 11.3823 13.8847 11.4256L14.0815 12.4061L14.2782 13.3865C14.2344 13.3953 14.1892 13.3953 14.1454 13.3865L14.3421 12.4061ZM14.0815 12.4061L14.0191 11.408C13.8127 11.4209 13.6115 11.4779 13.4291 11.5752L13.8997 12.4576L14.3702 13.3399C14.3002 13.3773 14.223 13.3992 14.1438 13.4041L14.0815 12.4061ZM13.8997 12.4576L13.4291 11.5752C13.2466 11.6725 13.0872 11.8079 12.9615 11.972L13.7556 12.5799L14.5497 13.1877C14.5015 13.2507 14.4403 13.3026 14.3702 13.3399L13.8997 12.4576ZM13.7556 12.5799L12.9199 12.0306C12.7819 12.2406 12.6829 12.4739 12.6278 12.7191L13.6035 12.9383L14.5792 13.1575C14.5815 13.1474 14.5856 13.1378 14.5913 13.1291L13.7556 12.5799ZM13.6035 12.9383L12.6152 12.786C12.578 13.0273 12.578 13.2729 12.6152 13.5143L13.6035 13.3619L14.5919 13.2096C14.5858 13.1702 14.5858 13.1301 14.5919 13.0906L13.6035 12.9383ZM13.6035 13.3619L12.6048 13.4115C12.618 13.6785 12.6853 13.9402 12.8025 14.1805L13.7013 13.7421L14.6001 13.3037C14.6014 13.3064 14.6021 13.3094 14.6023 13.3124L13.6035 13.3619ZM13.7013 13.7421L12.7874 14.1481C12.8893 14.3775 13.0403 14.5817 13.2297 14.7464L13.8859 13.9919L14.5422 13.2374C14.5734 13.2646 14.5983 13.2983 14.6151 13.3361L13.7013 13.7421ZM13.8859 13.9919L13.232 14.7485C13.4946 14.9755 13.8321 15.097 14.1792 15.0895L14.1575 14.0897L14.1358 13.0899C14.2839 13.0867 14.4279 13.1386 14.5399 13.2354L13.8859 13.9919ZM14.1575 14.0897L14.1998 15.0888C14.4577 15.0779 14.7085 15.0015 14.9288 14.8669L14.4073 14.0137L13.8859 13.1604C13.9551 13.118 14.0341 13.094 14.1152 13.0906L14.1575 14.0897ZM14.4073 14.0137L14.9805 14.8331C15.1744 14.6975 15.3308 14.515 15.4351 14.3027L14.5377 13.8616L13.6402 13.4205C13.6847 13.3299 13.7514 13.2521 13.8342 13.1942L14.4073 14.0137ZM14.5377 13.8616L15.422 14.3285C15.5241 14.1351 15.5849 13.9224 15.6003 13.7042L14.6028 13.6335L13.6053 13.5628C13.6095 13.504 13.6259 13.4467 13.6534 13.3946L14.5377 13.8616ZM14.6028 13.6335V14.6335H15.3958V13.6335V12.6335H14.6028V13.6335ZM15.3958 13.6335L14.3968 13.5889C14.3961 13.6041 14.3934 13.6192 14.3888 13.6337L15.3415 13.9376L16.2942 14.2415C16.3524 14.059 16.3862 13.8695 16.3948 13.6781L15.3958 13.6335ZM15.3415 13.9376L14.369 13.7044C14.3659 13.7173 14.3611 13.7298 14.3548 13.7415L15.2328 14.22L16.1109 14.6985C16.2015 14.5323 16.2697 14.3549 16.3139 14.1708L15.3415 13.9376ZM15.2328 14.22L14.3436 13.7625C14.3309 13.7874 14.3147 13.8104 14.2956 13.8308L15.0265 14.5133L15.7573 15.1958C15.9022 15.0407 16.0249 14.8663 16.122 14.6776L15.2328 14.22ZM15.0265 14.5133L14.3581 13.7695C14.3296 13.7951 14.2973 13.8163 14.2625 13.8322L14.6789 14.7414L15.0953 15.6506C15.3139 15.5505 15.516 15.4178 15.6948 15.2571L15.0265 14.5133ZM14.6789 14.7414L14.3297 13.8044C14.272 13.8259 14.2111 13.8378 14.1495 13.8396L14.1792 14.8392L14.2089 15.8387C14.4889 15.8304 14.7656 15.7763 15.028 15.6785L14.6789 14.7414ZM14.1792 14.8392L14.0126 13.8532C13.9899 13.857 13.9667 13.857 13.944 13.8532L13.7773 14.8392L13.6107 15.8252C13.854 15.8663 14.1025 15.8663 14.3459 15.8252L14.1792 14.8392ZM13.7773 14.8392L14.024 13.8701C14.0214 13.8694 14.019 13.8683 14.0168 13.8667L13.4297 14.6762L12.8426 15.4858C13.0495 15.6358 13.283 15.7452 13.5307 15.8083L13.7773 14.8392ZM13.4297 14.6762L14.0431 13.8864C14.0116 13.862 13.9833 13.8337 13.9589 13.8022L13.169 14.4156L12.3792 15.0289C12.5061 15.1923 12.653 15.3392 12.8164 15.4661L13.4297 14.6762ZM13.169 14.4156L13.9488 13.7895C13.919 13.7524 13.894 13.7115 13.8744 13.6681L12.9627 14.0788L12.0509 14.4896C12.1399 14.6871 12.2536 14.8726 12.3892 15.0416L13.169 14.4156ZM12.9627 14.0788L13.887 13.6973C13.8502 13.6081 13.8233 13.515 13.8069 13.4198L12.8214 13.59L11.836 13.7603C11.8775 14.0003 11.9453 14.2351 12.0383 14.4603L12.9627 14.0788ZM12.8214 13.59L13.8137 13.4657C13.8023 13.3751 13.8023 13.2835 13.8137 13.193L12.8214 13.0686L11.8292 12.9443C11.7972 13.2 11.7972 13.4587 11.8292 13.7144L12.8214 13.59ZM12.8214 13.0686L13.8195 13.1305C13.8247 13.0479 13.8406 12.9663 13.867 12.8878L12.9192 12.569L11.9714 12.2501C11.8891 12.4948 11.8393 12.7492 11.8234 13.0068L12.8214 13.0686ZM12.9192 12.569L13.8707 12.8766C13.8893 12.819 13.9171 12.7648 13.953 12.716L13.1473 12.1236L12.3416 11.5313C12.1786 11.753 12.0524 11.9995 11.9677 12.2613L12.9192 12.569ZM13.1473 12.1236L13.9438 12.7283C13.9717 12.6915 14.0062 12.6601 14.0454 12.6357L13.5166 11.7869L12.9879 10.9381C12.7419 11.0913 12.5261 11.2882 12.3508 11.519L13.1473 12.1236ZM13.5166 11.7869L14.0299 12.6451C14.0536 12.631 14.0801 12.6223 14.1076 12.6198L14.0163 11.624L13.925 10.6282C13.5991 10.658 13.2842 10.7607 13.0033 10.9287L13.5166 11.7869ZM14.0163 11.624L14.201 12.6068C14.2261 12.6021 14.2518 12.6021 14.2769 12.6068L14.4616 11.624L14.6463 10.6412C14.3771 10.5906 14.1008 10.5906 13.8316 10.6412L14.0163 11.624ZM14.4616 11.624L14.3276 12.615C14.3372 12.6163 14.3465 12.6192 14.3552 12.6236L14.8092 11.7326L15.2633 10.8416C15.0541 10.735 14.8284 10.6645 14.5957 10.633L14.4616 11.624ZM14.8092 11.7326L14.3413 12.6164C14.3742 12.6338 14.4053 12.6545 14.4341 12.6783L15.0699 11.9064L15.7057 11.1345C15.5729 11.0251 15.4293 10.9294 15.2772 10.8489L14.8092 11.7326ZM15.0699 11.9064L14.4089 12.6568C14.4256 12.6715 14.441 12.6878 14.4547 12.7054L15.2437 12.0911L16.0327 11.4767C15.9424 11.3606 15.8413 11.2533 15.7309 11.156L15.0699 11.9064ZM15.2437 12.0911L14.4386 12.6842C14.4586 12.7113 14.4766 12.7398 14.4925 12.7695L15.3741 12.2974L16.2556 11.8253C16.1946 11.7114 16.1255 11.602 16.0488 11.4979L15.2437 12.0911ZM15.3741 12.2974L14.9753 11.3804L14.2258 11.7062L14.6246 12.6233L15.0233 13.5404L15.7728 13.2145L15.3741 12.2974Z" fill="#737373" mask="url(#path-2-inside-1_172_3023)"/>
<path d="M17.1301 11.9393L17.2415 12.4686L16.6917 12.4559L16.8323 11.9393H17.1301Z" fill="#737373" stroke="#737373"/>
<mask id="path-5-inside-2_172_3023" fill="white">
<path d="M19.8711 12.5798C19.8449 12.5482 19.8158 12.5191 19.7842 12.4929C19.753 12.4662 19.7157 12.4475 19.6755 12.4386C19.6145 12.4274 19.5519 12.4274 19.4909 12.4386H19.3931C19.3682 12.4322 19.342 12.4322 19.3171 12.4386C19.3114 12.4485 19.3083 12.4598 19.3083 12.4712C19.3083 12.4827 19.3114 12.4939 19.3171 12.5038C19.3494 12.5447 19.3959 12.5719 19.4474 12.5798H19.5235H19.5995C19.7292 12.636 19.853 12.7051 19.9688 12.7862C20.2183 12.9275 20.4019 13.1618 20.4793 13.4379C20.5008 13.5674 20.5008 13.6995 20.4793 13.829C20.4723 13.9492 20.4428 14.0671 20.3924 14.1766C20.3366 14.2921 20.2634 14.3984 20.1752 14.4916C20.0919 14.5818 19.9924 14.6555 19.8819 14.7088C19.7681 14.7712 19.6421 14.8082 19.5126 14.8174H19.2302L19.0347 14.8392C18.8891 14.7728 18.7567 14.6808 18.6436 14.5676C18.5268 14.4324 18.4414 14.2728 18.3938 14.1005L19.1542 13.8398C19.1632 13.8789 19.1805 13.9155 19.2049 13.9474C19.2292 13.9792 19.2601 14.0055 19.2954 14.0245C19.3607 14.064 19.4364 14.0829 19.5126 14.0788C19.5663 14.0706 19.6179 14.0522 19.6647 14.0245C19.6896 14.0127 19.7109 13.9943 19.7262 13.9714C19.7415 13.9484 19.7503 13.9217 19.7516 13.8942C19.7674 13.8447 19.7674 13.7915 19.7516 13.7421C19.7287 13.6952 19.6952 13.6543 19.6538 13.6226C19.6159 13.5832 19.5719 13.5502 19.5235 13.5248L19.2954 13.4271H19.2302H19.1759C19.0032 13.3659 18.847 13.2655 18.7197 13.1338C18.6171 13.0269 18.5425 12.8963 18.5024 12.7536C18.4644 12.6187 18.4644 12.4758 18.5024 12.3409C18.5386 12.203 18.6039 12.0746 18.6938 11.964C18.7837 11.8535 18.8962 11.7635 19.0238 11.7C19.1634 11.6237 19.321 11.5862 19.48 11.5914C19.6442 11.5782 19.8089 11.6082 19.9579 11.6783C20.0795 11.7306 20.1929 11.8001 20.2947 11.8847C20.3915 11.97 20.4756 12.0688 20.5445 12.1779L19.8711 12.5798Z"/>
</mask>
<path d="M19.8711 12.5798C19.8449 12.5482 19.8158 12.5191 19.7842 12.4929C19.753 12.4662 19.7157 12.4475 19.6755 12.4386C19.6145 12.4274 19.5519 12.4274 19.4909 12.4386H19.3931C19.3682 12.4322 19.342 12.4322 19.3171 12.4386C19.3114 12.4485 19.3083 12.4598 19.3083 12.4712C19.3083 12.4827 19.3114 12.4939 19.3171 12.5038C19.3494 12.5447 19.3959 12.5719 19.4474 12.5798H19.5235H19.5995C19.7292 12.636 19.853 12.7051 19.9688 12.7862C20.2183 12.9275 20.4019 13.1618 20.4793 13.4379C20.5008 13.5674 20.5008 13.6995 20.4793 13.829C20.4723 13.9492 20.4428 14.0671 20.3924 14.1766C20.3366 14.2921 20.2634 14.3984 20.1752 14.4916C20.0919 14.5818 19.9924 14.6555 19.8819 14.7088C19.7681 14.7712 19.6421 14.8082 19.5126 14.8174H19.2302L19.0347 14.8392C18.8891 14.7728 18.7567 14.6808 18.6436 14.5676C18.5268 14.4324 18.4414 14.2728 18.3938 14.1005L19.1542 13.8398C19.1632 13.8789 19.1805 13.9155 19.2049 13.9474C19.2292 13.9792 19.2601 14.0055 19.2954 14.0245C19.3607 14.064 19.4364 14.0829 19.5126 14.0788C19.5663 14.0706 19.6179 14.0522 19.6647 14.0245C19.6896 14.0127 19.7109 13.9943 19.7262 13.9714C19.7415 13.9484 19.7503 13.9217 19.7516 13.8942C19.7674 13.8447 19.7674 13.7915 19.7516 13.7421C19.7287 13.6952 19.6952 13.6543 19.6538 13.6226C19.6159 13.5832 19.5719 13.5502 19.5235 13.5248L19.2954 13.4271H19.2302H19.1759C19.0032 13.3659 18.847 13.2655 18.7197 13.1338C18.6171 13.0269 18.5425 12.8963 18.5024 12.7536C18.4644 12.6187 18.4644 12.4758 18.5024 12.3409C18.5386 12.203 18.6039 12.0746 18.6938 11.964C18.7837 11.8535 18.8962 11.7635 19.0238 11.7C19.1634 11.6237 19.321 11.5862 19.48 11.5914C19.6442 11.5782 19.8089 11.6082 19.9579 11.6783C20.0795 11.7306 20.1929 11.8001 20.2947 11.8847C20.3915 11.97 20.4756 12.0688 20.5445 12.1779L19.8711 12.5798Z" fill="#737373"/>
<path d="M19.8711 12.5798L19.1004 13.2171L19.647 13.8781L20.3835 13.4385L19.8711 12.5798ZM19.7842 12.4929L19.133 13.2518L19.1399 13.2578L19.1469 13.2636L19.7842 12.4929ZM19.6755 12.4386L19.8919 11.4623L19.8742 11.4584L19.8564 11.4551L19.6755 12.4386ZM19.4909 12.4386V13.4386H19.5821L19.6717 13.4221L19.4909 12.4386ZM19.3931 12.4386L19.1431 13.4069L19.2661 13.4386H19.3931V12.4386ZM19.3171 12.4386L19.0671 11.4704L18.6608 11.5753L18.4511 11.9386L19.3171 12.4386ZM19.3083 12.4712L20.3083 12.4712L19.3083 12.4712ZM19.3171 12.5038L18.4511 13.0038L18.4873 13.0666L18.5323 13.1236L19.3171 12.5038ZM19.4474 12.5798L19.2942 13.568L19.3704 13.5798H19.4474V12.5798ZM19.5995 12.5798L19.9967 11.6621L19.8066 11.5798H19.5995V12.5798ZM19.9688 12.7862L19.3954 13.6055L19.4345 13.6328L19.476 13.6563L19.9688 12.7862ZM20.4793 13.4379L21.4659 13.2743L21.4569 13.2204L21.4422 13.1678L20.4793 13.4379ZM20.4793 13.829L19.4928 13.6653L19.4841 13.7176L19.481 13.7704L20.4793 13.829ZM20.3924 14.1766L21.2929 14.6115L21.2969 14.6031L21.3008 14.5947L20.3924 14.1766ZM20.1752 14.4916L19.4486 13.8044L19.4404 13.8132L20.1752 14.4916ZM19.8819 14.7088L19.4471 13.8083L19.424 13.8195L19.4014 13.8318L19.8819 14.7088ZM19.5126 14.8174V15.8174H19.5481L19.5834 15.8149L19.5126 14.8174ZM19.2302 14.8174V13.8174H19.1748L19.1198 13.8236L19.2302 14.8174ZM19.0347 14.8392L18.6197 15.749L18.8708 15.8635L19.1451 15.833L19.0347 14.8392ZM18.6436 14.5676L17.887 15.2214L17.9105 15.2487L17.936 15.2742L18.6436 14.5676ZM18.3938 14.1005L18.0695 13.1546L17.1792 13.4598L17.4299 14.367L18.3938 14.1005ZM19.1542 13.8398L20.1281 13.6131L19.8771 12.5348L18.8298 12.8939L19.1542 13.8398ZM19.2954 14.0245L19.8129 13.1688L19.7914 13.1558L19.7693 13.144L19.2954 14.0245ZM19.5126 14.0788L19.5665 15.0774L19.6152 15.0747L19.6633 15.0674L19.5126 14.0788ZM19.6647 14.0245L19.2372 13.1205L19.1951 13.1404L19.155 13.1641L19.6647 14.0245ZM19.7516 13.8942L18.799 13.5898L18.7589 13.7155L18.7527 13.8473L19.7516 13.8942ZM19.7516 13.7421L20.7041 13.4377L20.682 13.3685L20.6501 13.3031L19.7516 13.7421ZM19.6538 13.6226L18.9338 14.3166L18.986 14.3707L19.0456 14.4164L19.6538 13.6226ZM19.5235 13.5248L19.9881 12.6393L19.9534 12.6211L19.9174 12.6057L19.5235 13.5248ZM19.2954 13.4271L19.6893 12.5079L19.5006 12.4271H19.2954V13.4271ZM19.1759 13.4271L18.8422 14.3698L19.0041 14.4271H19.1759V13.4271ZM18.7197 13.1338L17.9979 13.8259L18.0006 13.8288L18.7197 13.1338ZM18.5024 12.7536L19.4652 12.4832L19.4649 12.4822L18.5024 12.7536ZM18.5024 12.3409L19.4649 12.6123L19.4673 12.6036L19.4696 12.5949L18.5024 12.3409ZM19.0238 11.7L19.4693 12.5953L19.4865 12.5867L19.5034 12.5775L19.0238 11.7ZM19.48 11.5914L19.4474 12.5908L19.5038 12.5927L19.56 12.5882L19.48 11.5914ZM19.9579 11.6783L19.5322 12.5831L19.5474 12.5903L19.5628 12.5969L19.9579 11.6783ZM20.2947 11.8847L20.9562 11.1347L20.9452 11.125L20.9339 11.1156L20.2947 11.8847ZM20.5445 12.1779L21.057 13.0366L21.9376 12.5111L21.39 11.644L20.5445 12.1779ZM19.8711 12.5798L20.6417 11.9425C20.5754 11.8624 20.5016 11.7886 20.4214 11.7223L19.7842 12.4929L19.1469 13.2636C19.13 13.2496 19.1144 13.234 19.1004 13.2171L19.8711 12.5798ZM19.7842 12.4929L20.4353 11.734C20.2793 11.6001 20.0927 11.5068 19.8919 11.4623L19.6755 12.4386L19.4591 13.4149C19.3386 13.3882 19.2266 13.3322 19.133 13.2518L19.7842 12.4929ZM19.6755 12.4386L19.8564 11.4551C19.6758 11.4219 19.4906 11.4219 19.31 11.4551L19.4909 12.4386L19.6717 13.4221C19.6132 13.4329 19.5532 13.4329 19.4947 13.4221L19.6755 12.4386ZM19.4909 12.4386V11.4386H19.3931V12.4386V13.4386H19.4909V12.4386ZM19.3931 12.4386L19.6431 11.4704C19.4542 11.4216 19.256 11.4216 19.0671 11.4704L19.3171 12.4386L19.5671 13.4069C19.428 13.4428 19.2822 13.4428 19.1431 13.4069L19.3931 12.4386ZM19.3171 12.4386L18.4511 11.9386C18.3576 12.1005 18.3083 12.2842 18.3083 12.4712L19.3083 12.4712L20.3083 12.4712C20.3083 12.6354 20.2651 12.7966 20.1831 12.9386L19.3171 12.4386ZM19.3083 12.4712L18.3083 12.4712C18.3083 12.6583 18.3576 12.8419 18.4511 13.0038L19.3171 12.5038L20.1831 12.0038C20.2651 12.1458 20.3083 12.307 20.3083 12.4712L19.3083 12.4712ZM19.3171 12.5038L18.5323 13.1236C18.7211 13.3626 18.9932 13.5214 19.2942 13.568L19.4474 12.5798L19.6006 11.5916C19.7986 11.6223 19.9777 11.7268 20.1019 11.884L19.3171 12.5038ZM19.4474 12.5798V13.5798H19.5235V12.5798V11.5798H19.4474V12.5798ZM19.5235 12.5798V13.5798H19.5995V12.5798V11.5798H19.5235V12.5798ZM19.5995 12.5798L19.2022 13.4975C19.2701 13.5269 19.3348 13.5631 19.3954 13.6055L19.9688 12.7862L20.5422 11.9669C20.3711 11.8472 20.1884 11.7451 19.9967 11.6621L19.5995 12.5798ZM19.9688 12.7862L19.476 13.6563C19.4958 13.6676 19.5104 13.6862 19.5165 13.7081L20.4793 13.4379L21.4422 13.1678C21.2934 12.6375 20.9409 12.1875 20.4616 11.9161L19.9688 12.7862ZM20.4793 13.4379L19.4928 13.6016C19.4963 13.6227 19.4963 13.6442 19.4928 13.6653L20.4793 13.829L21.4659 13.9926C21.5053 13.7548 21.5053 13.5121 21.4659 13.2743L20.4793 13.4379ZM20.4793 13.829L19.481 13.7704C19.4813 13.7663 19.4823 13.7622 19.484 13.7585L20.3924 14.1766L21.3008 14.5947C21.4033 14.372 21.4633 14.1322 21.4776 13.8875L20.4793 13.829ZM20.3924 14.1766L19.492 13.7416C19.4809 13.7647 19.4662 13.7859 19.4486 13.8045L20.1752 14.4916L20.9017 15.1787C21.0605 15.0108 21.1924 14.8195 21.2929 14.6115L20.3924 14.1766ZM20.1752 14.4916L19.4404 13.8132C19.4423 13.8112 19.4446 13.8095 19.4471 13.8083L19.8819 14.7088L20.3167 15.6094C20.5403 15.5014 20.7415 15.3523 20.91 15.1699L20.1752 14.4916ZM19.8819 14.7088L19.4014 13.8318C19.4139 13.825 19.4276 13.821 19.4418 13.8199L19.5126 14.8174L19.5834 15.8149C19.8566 15.7955 20.1223 15.7174 20.3624 15.5858L19.8819 14.7088ZM19.5126 14.8174V13.8174H19.2302V14.8174V15.8174H19.5126V14.8174ZM19.2302 14.8174L19.1198 13.8236L18.9242 13.8453L19.0347 14.8392L19.1451 15.833L19.3406 15.8113L19.2302 14.8174ZM19.0347 14.8392L19.4496 13.9293C19.413 13.9126 19.3797 13.8895 19.3512 13.861L18.6436 14.5676L17.936 15.2742C18.1337 15.4721 18.3652 15.633 18.6197 15.749L19.0347 14.8392ZM18.6436 14.5676L19.4003 13.9138C19.3803 13.8907 19.3658 13.8635 19.3577 13.8341L18.3938 14.1005L17.4299 14.367C17.5171 14.6822 17.6732 14.974 17.887 15.2214L18.6436 14.5676ZM18.3938 14.1005L18.7181 15.0465L19.4785 14.7858L19.1542 13.8398L18.8298 12.8939L18.0695 13.1546L18.3938 14.1005ZM19.1542 13.8398L18.1802 14.0665C18.2214 14.2438 18.3 14.4102 18.4105 14.5548L19.2049 13.9474L19.9992 13.3399C20.0611 13.4208 20.105 13.514 20.1281 13.6131L19.1542 13.8398ZM19.2049 13.9474L18.4105 14.5548C18.5211 14.6994 18.6611 14.8188 18.8214 14.905L19.2954 14.0245L19.7693 13.144C19.859 13.1922 19.9374 13.259 19.9992 13.3399L19.2049 13.9474ZM19.2954 14.0245L18.7779 14.8802C19.015 15.0236 19.2898 15.0923 19.5665 15.0774L19.5126 14.0788L19.4587 13.0803C19.5829 13.0736 19.7064 13.1044 19.8129 13.1688L19.2954 14.0245ZM19.5126 14.0788L19.6633 15.0674C19.8438 15.0399 20.0173 14.9779 20.1743 14.8849L19.6647 14.0245L19.155 13.1641C19.2186 13.1265 19.2888 13.1014 19.3619 13.0902L19.5126 14.0788ZM19.6647 14.0245L20.0921 14.9285C20.2811 14.8392 20.4423 14.7001 20.5582 14.5261L19.7262 13.9714L18.8941 13.4167C18.9795 13.2886 19.0981 13.1862 19.2372 13.1205L19.6647 14.0245ZM19.7262 13.9714L20.5582 14.5261C20.6742 14.3521 20.7407 14.1499 20.7505 13.941L19.7516 13.8942L18.7527 13.8473C18.7599 13.6936 18.8088 13.5447 18.8941 13.4167L19.7262 13.9714ZM19.7516 13.8942L20.7041 14.1985C20.7832 13.9511 20.7832 13.6852 20.7041 13.4377L19.7516 13.7421L18.799 14.0464C18.7516 13.8979 18.7516 13.7383 18.799 13.5898L19.7516 13.8942ZM19.7516 13.7421L20.6501 13.3031C20.5592 13.1171 20.4263 12.9547 20.262 12.8288L19.6538 13.6226L19.0456 14.4164C18.9641 14.3539 18.8982 14.2733 18.8531 14.181L19.7516 13.7421ZM19.6538 13.6226L20.3738 12.9286C20.2615 12.8122 20.1313 12.7145 19.9881 12.6393L19.5235 13.5248L19.0588 14.4103C19.0124 14.386 18.9702 14.3543 18.9338 14.3166L19.6538 13.6226ZM19.5235 13.5248L19.9174 12.6057L19.6893 12.5079L19.2954 13.4271L18.9014 14.3462L19.1295 14.444L19.5235 13.5248ZM19.2954 13.4271V12.4271H19.2302V13.4271V14.4271H19.2954V13.4271ZM19.2302 13.4271V12.4271H19.1759V13.4271V14.4271H19.2302V13.4271ZM19.1759 13.4271L19.5096 12.4844C19.4828 12.4749 19.4585 12.4593 19.4387 12.4388L18.7197 13.1338L18.0006 13.8288C18.2355 14.0718 18.5236 14.257 18.8422 14.3698L19.1759 13.4271ZM18.7197 13.1338L19.4414 12.4417C19.4526 12.4534 19.4608 12.4676 19.4652 12.4832L18.5024 12.7536L17.5397 13.0241C17.6242 13.3249 17.7816 13.6004 17.9979 13.8259L18.7197 13.1338ZM18.5024 12.7536L19.4649 12.4822C19.4769 12.5247 19.4769 12.5698 19.4649 12.6123L18.5024 12.3409L17.54 12.0694C17.4518 12.3819 17.4518 12.7126 17.54 13.0251L18.5024 12.7536ZM18.5024 12.3409L19.4696 12.5949L19.4695 12.5951L18.6938 11.964L17.9181 11.3329C17.7382 11.5541 17.6076 11.8111 17.5352 12.0869L18.5024 12.3409ZM18.6938 11.964L19.4695 12.5951L19.4693 12.5953L19.0238 11.7L18.5783 10.8047C18.3231 10.9317 18.098 11.1118 17.9181 11.3329L18.6938 11.964ZM19.0238 11.7L19.5034 12.5775C19.4862 12.5869 19.4669 12.5915 19.4474 12.5908L19.48 11.5914L19.5127 10.5919C19.1751 10.5809 18.8407 10.6605 18.5443 10.8225L19.0238 11.7ZM19.48 11.5914L19.56 12.5882C19.5505 12.5889 19.5409 12.5872 19.5322 12.5831L19.9579 11.6783L20.3837 10.7734C20.077 10.6291 19.7379 10.5675 19.4 10.5946L19.48 11.5914ZM19.9579 11.6783L19.5628 12.5969C19.5963 12.6113 19.6275 12.6304 19.6554 12.6537L20.2947 11.8847L20.9339 11.1156C20.7584 10.9697 20.5628 10.8498 20.3531 10.7597L19.9579 11.6783ZM20.2947 11.8847L19.6331 12.6346C19.6586 12.6571 19.6808 12.6831 19.699 12.7118L20.5445 12.1779L21.39 11.644C21.2704 11.4545 21.1243 11.283 20.9562 11.1347L20.2947 11.8847ZM20.5445 12.1779L20.032 11.3192L19.3586 11.7211L19.8711 12.5798L20.3835 13.4385L21.057 13.0366L20.5445 12.1779Z" fill="#737373" mask="url(#path-5-inside-2_172_3023)"/>
<mask id="path-7-inside-3_172_3023" fill="white">
<path d="M21.6524 11.7652V14.8717H20.8486V11.7652H21.6524Z"/>
</mask>
<path d="M21.6524 11.7652V14.8717H20.8486V11.7652H21.6524Z" fill="#737373"/>
<path d="M21.6524 11.7652H22.6524V10.7652H21.6524V11.7652ZM21.6524 14.8717V15.8717H22.6524V14.8717H21.6524ZM20.8486 14.8717H19.8486V15.8717H20.8486V14.8717ZM20.8486 11.7652V10.7652H19.8486V11.7652H20.8486ZM21.6524 11.7652H20.6524V14.8717H21.6524H22.6524V11.7652H21.6524ZM21.6524 14.8717V13.8717H20.8486V14.8717V15.8717H21.6524V14.8717ZM20.8486 14.8717H21.8486V11.7652H20.8486H19.8486V14.8717H20.8486ZM20.8486 11.7652V12.7652H21.6524V11.7652V10.7652H20.8486V11.7652Z" fill="#737373" mask="url(#path-7-inside-3_172_3023)"/>
<mask id="path-9-inside-4_172_3023" fill="white">
<path d="M21.9999 14.698V11.8412H22.8037L23.7595 13.4271V11.7978H24.5633V14.8392H23.7595L22.8037 13.4271V14.6871L21.9999 14.698Z"/>
</mask>
<path d="M21.9999 14.698V11.8412H22.8037L23.7595 13.4271V11.7978H24.5633V14.8392H23.7595L22.8037 13.4271V14.6871L21.9999 14.698Z" fill="#737373"/>
<path d="M21.9999 14.698H20.9999V15.7116L22.0134 15.6979L21.9999 14.698ZM21.9999 11.8412V10.8412H20.9999V11.8412H21.9999ZM22.8037 11.8412L23.6601 11.325L23.3685 10.8412H22.8037V11.8412ZM23.7595 13.4271L22.9031 13.9433L24.7595 17.0233V13.4271H23.7595ZM23.7595 11.7978V10.7978H22.7595V11.7978H23.7595ZM24.5633 11.7978H25.5633V10.7978H24.5633V11.7978ZM24.5633 14.8392V15.8392H25.5633V14.8392H24.5633ZM23.7595 14.8392L22.9314 15.3997L23.2289 15.8392H23.7595V14.8392ZM22.8037 13.4271L23.6318 12.8665L21.8037 10.1659V13.4271H22.8037ZM22.8037 14.6871L22.8172 15.687L23.8037 15.6737V14.6871H22.8037ZM21.9999 14.698H22.9999V11.8412H21.9999H20.9999V14.698H21.9999ZM21.9999 11.8412V12.8412H22.8037V11.8412V10.8412H21.9999V11.8412ZM22.8037 11.8412L21.9472 12.3574L22.9031 13.9433L23.7595 13.4271L24.616 12.9109L23.6601 11.325L22.8037 11.8412ZM23.7595 13.4271H24.7595V11.7978H23.7595H22.7595V13.4271H23.7595ZM23.7595 11.7978V12.7978H24.5633V11.7978V10.7978H23.7595V11.7978ZM24.5633 11.7978H23.5633V14.8392H24.5633H25.5633V11.7978H24.5633ZM24.5633 14.8392V13.8392H23.7595V14.8392V15.8392H24.5633V14.8392ZM23.7595 14.8392L24.5877 14.2786L23.6318 12.8665L22.8037 13.4271L21.9756 13.9877L22.9314 15.3997L23.7595 14.8392ZM22.8037 13.4271H21.8037V14.6871H22.8037H23.8037V13.4271H22.8037ZM22.8037 14.6871L22.7902 13.6872L21.9864 13.698L21.9999 14.698L22.0134 15.6979L22.8172 15.687L22.8037 14.6871Z" fill="#737373" mask="url(#path-9-inside-4_172_3023)"/>
<mask id="path-11-inside-5_172_3023" fill="white">
<path d="M26.3774 11.5045C26.5853 11.5007 26.7907 11.5492 26.9748 11.6457C27.1671 11.7295 27.3379 11.8558 27.4745 12.015C27.6048 12.1702 27.7077 12.3466 27.7786 12.5364C27.8542 12.7377 27.8911 12.9514 27.8873 13.1664C27.8901 13.3813 27.8532 13.5949 27.7786 13.7964C27.7077 13.9862 27.6048 14.1626 27.4745 14.3178C27.3349 14.4737 27.1649 14.5994 26.9748 14.6871C26.7874 14.773 26.5836 14.8175 26.3774 14.8175C26.1712 14.8175 25.9674 14.773 25.78 14.6871C25.595 14.5962 25.4291 14.4709 25.2912 14.3178C25.1574 14.1631 25.0509 13.9868 24.9762 13.7964C24.9016 13.5949 24.8648 13.3813 24.8676 13.1664C24.8637 12.9514 24.9006 12.7377 24.9762 12.5364C25.0509 12.346 25.1574 12.1697 25.2912 12.015C25.4261 11.8586 25.5927 11.7327 25.78 11.6457C25.9641 11.5492 26.1696 11.5007 26.3774 11.5045ZM26.8771 12.5364C26.8071 12.4602 26.7267 12.3943 26.6381 12.3409C26.5521 12.305 26.4598 12.2866 26.3666 12.2866C26.2733 12.2866 26.181 12.305 26.095 12.3409C25.9154 12.4397 25.7796 12.6026 25.7148 12.7971C25.6714 12.9078 25.6493 13.0257 25.6497 13.1447C25.6482 13.2637 25.6704 13.3818 25.7148 13.4923C25.7451 13.5952 25.8012 13.6886 25.8778 13.7638C25.9342 13.8393 26.009 13.8991 26.095 13.9376C26.1791 13.9805 26.2722 14.0029 26.3666 14.0029C26.461 14.0029 26.554 13.9805 26.6381 13.9376C26.7241 13.894 26.8014 13.8351 26.8662 13.7638C26.9356 13.6851 26.9875 13.5925 27.0183 13.4923C27.0627 13.3818 27.0849 13.2637 27.0835 13.1447C27.0838 13.0257 27.0617 12.9078 27.0183 12.7971C26.9883 12.702 26.9403 12.6135 26.8771 12.5364Z"/>
</mask>
<path d="M26.3774 11.5045C26.5853 11.5007 26.7907 11.5492 26.9748 11.6457C27.1671 11.7295 27.3379 11.8558 27.4745 12.015C27.6048 12.1702 27.7077 12.3466 27.7786 12.5364C27.8542 12.7377 27.8911 12.9514 27.8873 13.1664C27.8901 13.3813 27.8532 13.5949 27.7786 13.7964C27.7077 13.9862 27.6048 14.1626 27.4745 14.3178C27.3349 14.4737 27.1649 14.5994 26.9748 14.6871C26.7874 14.773 26.5836 14.8175 26.3774 14.8175C26.1712 14.8175 25.9674 14.773 25.78 14.6871C25.595 14.5962 25.4291 14.4709 25.2912 14.3178C25.1574 14.1631 25.0509 13.9868 24.9762 13.7964C24.9016 13.5949 24.8648 13.3813 24.8676 13.1664C24.8637 12.9514 24.9006 12.7377 24.9762 12.5364C25.0509 12.346 25.1574 12.1697 25.2912 12.015C25.4261 11.8586 25.5927 11.7327 25.78 11.6457C25.9641 11.5492 26.1696 11.5007 26.3774 11.5045ZM26.8771 12.5364C26.8071 12.4602 26.7267 12.3943 26.6381 12.3409C26.5521 12.305 26.4598 12.2866 26.3666 12.2866C26.2733 12.2866 26.181 12.305 26.095 12.3409C25.9154 12.4397 25.7796 12.6026 25.7148 12.7971C25.6714 12.9078 25.6493 13.0257 25.6497 13.1447C25.6482 13.2637 25.6704 13.3818 25.7148 13.4923C25.7451 13.5952 25.8012 13.6886 25.8778 13.7638C25.9342 13.8393 26.009 13.8991 26.095 13.9376C26.1791 13.9805 26.2722 14.0029 26.3666 14.0029C26.461 14.0029 26.554 13.9805 26.6381 13.9376C26.7241 13.894 26.8014 13.8351 26.8662 13.7638C26.9356 13.6851 26.9875 13.5925 27.0183 13.4923C27.0627 13.3818 27.0849 13.2637 27.0835 13.1447C27.0838 13.0257 27.0617 12.9078 27.0183 12.7971C26.9883 12.702 26.9403 12.6135 26.8771 12.5364Z" fill="#737373"/>
<path d="M26.3774 11.5045L26.359 12.5043L26.3774 12.5047L26.3958 12.5043L26.3774 11.5045ZM26.9748 11.6457L26.5108 12.5315L26.5424 12.5481L26.5752 12.5623L26.9748 11.6457ZM27.4745 12.015L28.2405 11.372L28.2335 11.364L27.4745 12.015ZM27.7786 12.5364L26.842 12.8866L26.8425 12.888L27.7786 12.5364ZM27.8873 13.1664L26.8874 13.1486L26.8871 13.164L26.8873 13.1795L27.8873 13.1664ZM27.7786 13.7964L28.7153 14.1466L28.7164 14.1436L27.7786 13.7964ZM27.4745 14.3178L28.2197 14.9847L28.2302 14.9729L28.2404 14.9607L27.4745 14.3178ZM26.9748 14.6871L27.3915 15.5962L27.3938 15.5951L26.9748 14.6871ZM25.78 14.6871L25.3391 15.5846L25.3511 15.5906L25.3633 15.5962L25.78 14.6871ZM25.2912 14.3178L24.5349 14.972L24.5415 14.9797L24.5483 14.9871L25.2912 14.3178ZM24.9762 13.7964L24.0384 14.1436L24.0417 14.1526L24.0452 14.1615L24.9762 13.7964ZM24.8676 13.1664L25.8675 13.1795L25.8677 13.164L25.8674 13.1486L24.8676 13.1664ZM24.9762 12.5364L24.0452 12.1713L24.0426 12.178L24.0401 12.1848L24.9762 12.5364ZM25.2912 12.015L26.0475 12.6693L26.0484 12.6681L25.2912 12.015ZM25.78 11.6457L26.2014 12.5526L26.223 12.5425L26.2441 12.5315L25.78 11.6457ZM26.8771 12.5364L27.6502 11.9021L27.6326 11.8807L27.6139 11.8603L26.8771 12.5364ZM26.6381 12.3409L27.1549 11.4848L27.0913 11.4464L27.0227 11.4178L26.6381 12.3409ZM26.095 12.3409L25.7104 11.4178L25.6604 11.4386L25.613 11.4647L26.095 12.3409ZM25.7148 12.7971L26.6459 13.162L26.6553 13.1379L26.6635 13.1132L25.7148 12.7971ZM25.6497 13.1447L26.6496 13.1567L26.6497 13.1493L26.6497 13.1418L25.6497 13.1447ZM25.7148 13.4923L26.6741 13.2098L26.6605 13.1635L26.6425 13.1188L25.7148 13.4923ZM25.8778 13.7638L26.6785 13.1648L26.6328 13.1037L26.5784 13.0503L25.8778 13.7638ZM26.095 13.9376L26.5495 13.0469L26.5269 13.0353L26.5036 13.0249L26.095 13.9376ZM26.6381 13.9376L26.1859 13.0457L26.1836 13.0469L26.6381 13.9376ZM26.8662 13.7638L27.6061 14.4365L27.6112 14.4309L27.6162 14.4253L26.8662 13.7638ZM27.0183 13.4923L26.0906 13.1188L26.0749 13.158L26.0624 13.1984L27.0183 13.4923ZM27.0835 13.1447L26.0835 13.1418L26.0834 13.1493L26.0835 13.1567L27.0835 13.1447ZM27.0183 12.7971L26.0647 13.0981L26.0749 13.1304L26.0873 13.162L27.0183 12.7971ZM26.3774 11.5045L26.3958 12.5043C26.4358 12.5036 26.4753 12.5129 26.5108 12.5315L26.9748 11.6457L27.4389 10.7599C27.1061 10.5855 26.7347 10.4977 26.359 10.5047L26.3774 11.5045ZM26.9748 11.6457L26.5752 12.5623C26.6291 12.5859 26.6771 12.6213 26.7154 12.666L27.4745 12.015L28.2335 11.364C27.9988 11.0902 27.7051 10.8732 27.3745 10.729L26.9748 11.6457ZM27.4745 12.015L26.7086 12.6579C26.7657 12.726 26.8108 12.8034 26.842 12.8866L27.7786 12.5364L28.7153 12.1861C28.6045 11.8898 28.4439 11.6144 28.2404 11.3721L27.4745 12.015ZM27.7786 12.5364L26.8425 12.888C26.8738 12.9712 26.889 13.0597 26.8874 13.1486L27.8873 13.1664L28.8871 13.1842C28.8932 12.8432 28.8347 12.5041 28.7148 12.1848L27.7786 12.5364ZM27.8873 13.1664L26.8873 13.1795C26.8885 13.2715 26.8728 13.3629 26.8408 13.4492L27.7786 13.7964L28.7164 14.1436C28.8337 13.8268 28.8916 13.4911 28.8872 13.1533L27.8873 13.1664ZM27.7786 13.7964L26.842 13.4462C26.8108 13.5294 26.7657 13.6068 26.7086 13.6749L27.4745 14.3178L28.2404 14.9607C28.4439 14.7183 28.6045 14.443 28.7153 14.1466L27.7786 13.7964ZM27.4745 14.3178L26.7293 13.6509C26.6809 13.705 26.6219 13.7486 26.5559 13.7791L26.9748 14.6871L27.3938 15.5951C27.7079 15.4502 27.989 15.2424 28.2197 14.9847L27.4745 14.3178ZM26.9748 14.6871L26.5582 13.778C26.5015 13.804 26.4398 13.8175 26.3774 13.8175V14.8175V15.8175C26.7274 15.8175 27.0733 15.742 27.3915 15.5962L26.9748 14.6871ZM26.3774 14.8175V13.8175C26.315 13.8175 26.2534 13.804 26.1967 13.778L25.78 14.6871L25.3633 15.5962C25.6815 15.742 26.0274 15.8175 26.3774 15.8175V14.8175ZM25.78 14.6871L26.2209 13.7896C26.1503 13.7548 26.0869 13.7069 26.0341 13.6484L25.2912 14.3178L24.5483 14.9871C24.7714 15.2348 25.0398 15.4376 25.3391 15.5846L25.78 14.6871ZM25.2912 14.3178L26.0475 13.6635C25.9879 13.5946 25.9404 13.5161 25.9072 13.4313L24.9762 13.7964L24.0452 14.1615C24.1613 14.4575 24.3269 14.7316 24.5349 14.972L25.2912 14.3178ZM24.9762 13.7964L25.914 13.4492C25.8821 13.3629 25.8663 13.2715 25.8675 13.1795L24.8676 13.1664L23.8677 13.1533C23.8632 13.4911 23.9211 13.8268 24.0384 14.1436L24.9762 13.7964ZM24.8676 13.1664L25.8674 13.1486C25.8658 13.0597 25.8811 12.9712 25.9123 12.888L24.9762 12.5364L24.0401 12.1848C23.9201 12.5041 23.8617 12.8432 23.8677 13.1842L24.8676 13.1664ZM24.9762 12.5364L25.9072 12.9015C25.9404 12.8167 25.9879 12.7382 26.0475 12.6693L25.2912 12.015L24.5349 11.3607C24.3269 11.6012 24.1613 11.8753 24.0452 12.1713L24.9762 12.5364ZM25.2912 12.015L26.0484 12.6681C26.0907 12.6192 26.1428 12.5798 26.2014 12.5526L25.78 11.6457L25.3586 10.7388C25.0426 10.8857 24.7615 11.098 24.534 11.3619L25.2912 12.015ZM25.78 11.6457L26.2441 12.5315C26.2795 12.5129 26.319 12.5036 26.359 12.5043L26.3774 11.5045L26.3958 10.5047C26.0201 10.4977 25.6488 10.5855 25.3159 10.7599L25.78 11.6457ZM26.8771 12.5364L27.6139 11.8603C27.4796 11.7139 27.325 11.5874 27.1549 11.4848L26.6381 12.3409L26.1213 13.197C26.1283 13.2012 26.1347 13.2064 26.1403 13.2125L26.8771 12.5364ZM26.6381 12.3409L27.0227 11.4178C26.8148 11.3312 26.5918 11.2866 26.3666 11.2866V12.2866V13.2866C26.3277 13.2866 26.2893 13.2789 26.2535 13.2639L26.6381 12.3409ZM26.3666 12.2866V11.2866C26.1413 11.2866 25.9183 11.3312 25.7104 11.4178L26.095 12.3409L26.4796 13.2639C26.4438 13.2789 26.4054 13.2866 26.3666 13.2866V12.2866ZM26.095 12.3409L25.613 11.4647C25.2129 11.6848 24.9105 12.0477 24.7661 12.4809L25.7148 12.7971L26.6635 13.1132C26.6488 13.1575 26.6179 13.1945 26.577 13.217L26.095 12.3409ZM25.7148 12.7971L24.7838 12.4321C24.6945 12.66 24.649 12.9028 24.6497 13.1475L25.6497 13.1447L26.6497 13.1418C26.6497 13.1487 26.6484 13.1556 26.6459 13.162L25.7148 12.7971ZM25.6497 13.1447L24.6497 13.1326C24.6467 13.3837 24.6934 13.6328 24.7872 13.8657L25.7148 13.4923L26.6425 13.1188C26.6473 13.1308 26.6497 13.1437 26.6496 13.1567L25.6497 13.1447ZM25.7148 13.4923L24.7555 13.7747C24.834 14.041 24.9791 14.2828 25.1771 14.4773L25.8778 13.7638L26.5784 13.0503C26.6234 13.0945 26.6563 13.1494 26.6741 13.2098L25.7148 13.4923ZM25.8778 13.7638L25.077 14.3628C25.2354 14.5745 25.4451 14.7423 25.6864 14.8503L26.095 13.9376L26.5036 13.0249C26.5729 13.0559 26.6331 13.1041 26.6785 13.1648L25.8778 13.7638ZM26.095 13.9376L25.6405 14.8283C25.8653 14.9431 26.1141 15.0029 26.3666 15.0029V14.0029V13.0029C26.4302 13.0029 26.4929 13.018 26.5495 13.0469L26.095 13.9376ZM26.3666 14.0029V15.0029C26.619 15.0029 26.8678 14.9431 27.0927 14.8283L26.6381 13.9376L26.1836 13.0469C26.2402 13.018 26.3029 13.0029 26.3666 13.0029V14.0029ZM26.6381 13.9376L27.0903 14.8295C27.2847 14.731 27.4595 14.5978 27.6061 14.4365L26.8662 13.7638L26.1263 13.0911C26.1433 13.0725 26.1634 13.0571 26.1859 13.0457L26.6381 13.9376ZM26.8662 13.7638L27.6162 14.4253C27.7796 14.2401 27.9016 14.0221 27.9741 13.7861L27.0183 13.4923L26.0624 13.1984C26.0733 13.1629 26.0917 13.1302 26.1162 13.1023L26.8662 13.7638ZM27.0183 13.4923L27.9459 13.8657C28.0397 13.6328 28.0864 13.3837 28.0834 13.1326L27.0835 13.1447L26.0835 13.1567C26.0834 13.1437 26.0858 13.1308 26.0906 13.1188L27.0183 13.4923ZM27.0835 13.1447L28.0835 13.1475C28.0842 12.9028 28.0387 12.66 27.9493 12.4321L27.0183 12.7971L26.0873 13.162C26.0847 13.1556 26.0834 13.1487 26.0835 13.1418L27.0835 13.1447ZM27.0183 12.7971L27.9719 12.4961C27.9035 12.2794 27.7943 12.0777 27.6502 11.9021L26.8771 12.5364L26.104 13.1707C26.0864 13.1492 26.073 13.1246 26.0647 13.0981L27.0183 12.7971Z" fill="#737373" mask="url(#path-11-inside-5_172_3023)"/>
<path d="M18.4918 22.5189C18.4917 22.5609 18.4577 22.595 18.4156 22.5951C18.384 22.5951 18.3569 22.5757 18.3453 22.5482L18.3395 22.5189C18.3395 22.4767 18.3735 22.4427 18.4156 22.4427L18.4449 22.4486C18.4724 22.4602 18.4918 22.4872 18.4918 22.5189Z" fill="#737373" stroke="#737373"/>
<path d="M21.8917 22.5189C21.8916 22.5609 21.8576 22.595 21.8156 22.5951C21.7839 22.5951 21.7568 22.5757 21.7452 22.5482L21.7394 22.5189C21.7394 22.4767 21.7734 22.4427 21.8156 22.4427L21.8448 22.4486C21.8723 22.4602 21.8917 22.4872 21.8917 22.5189Z" fill="#737373" stroke="#737373"/>
<path d="M21.8917 24.1482C21.8916 24.1902 21.8576 24.2243 21.8156 24.2244C21.7839 24.2244 21.7568 24.205 21.7452 24.1775L21.7394 24.1482C21.7394 24.106 21.7734 24.0721 21.8156 24.0721L21.8448 24.0779C21.8723 24.0895 21.8917 24.1166 21.8917 24.1482Z" fill="#737373" stroke="#737373"/>
<path d="M21.8917 25.7667C21.8916 25.8087 21.8576 25.8428 21.8156 25.8429C21.7839 25.8429 21.7568 25.8235 21.7452 25.796L21.7394 25.7667C21.7394 25.7245 21.7734 25.6905 21.8156 25.6905L21.8448 25.6964C21.8723 25.708 21.8917 25.735 21.8917 25.7667Z" fill="#737373" stroke="#737373"/>
<path d="M21.8917 27.3852C21.8916 27.4272 21.8576 27.4612 21.8156 27.4613C21.7839 27.4613 21.7568 27.4419 21.7452 27.4145L21.7394 27.3852C21.7394 27.343 21.7734 27.309 21.8156 27.309L21.8448 27.3148C21.8723 27.3264 21.8917 27.3535 21.8917 27.3852Z" fill="#737373" stroke="#737373"/>
<path d="M21.8917 29.0471C21.8916 29.0891 21.8576 29.1231 21.8156 29.1232C21.7839 29.1232 21.7568 29.1038 21.7452 29.0764L21.7394 29.0471C21.7394 29.0049 21.7734 28.9709 21.8156 28.9709L21.8448 28.9767C21.8723 28.9883 21.8917 29.0154 21.8917 29.0471Z" fill="#737373" stroke="#737373"/>
<path d="M21.8917 30.6873C21.8916 30.7293 21.8576 30.7633 21.8156 30.7634C21.7839 30.7634 21.7568 30.744 21.7452 30.7166L21.7394 30.6873C21.7394 30.6451 21.7734 30.6111 21.8156 30.6111L21.8448 30.6169C21.8723 30.6285 21.8917 30.6556 21.8917 30.6873Z" fill="#737373" stroke="#737373"/>
<path d="M21.8917 32.3383C21.8916 32.3803 21.8576 32.4143 21.8156 32.4145C21.7839 32.4145 21.7568 32.395 21.7452 32.3676L21.7394 32.3383C21.7394 32.2961 21.7734 32.2621 21.8156 32.2621L21.8448 32.268C21.8723 32.2795 21.8917 32.3066 21.8917 32.3383Z" fill="#737373" stroke="#737373"/>
<path d="M18.4918 24.1482C18.4917 24.1902 18.4577 24.2243 18.4156 24.2244C18.384 24.2244 18.3569 24.205 18.3453 24.1775L18.3395 24.1482C18.3395 24.106 18.3735 24.0721 18.4156 24.0721L18.4449 24.0779C18.4724 24.0895 18.4918 24.1166 18.4918 24.1482Z" fill="#737373" stroke="#737373"/>
<path d="M18.4918 25.7667C18.4917 25.8087 18.4577 25.8428 18.4156 25.8429C18.384 25.8429 18.3569 25.8235 18.3453 25.796L18.3395 25.7667C18.3395 25.7245 18.3735 25.6905 18.4156 25.6905L18.4449 25.6964C18.4724 25.708 18.4918 25.735 18.4918 25.7667Z" fill="#737373" stroke="#737373"/>
<path d="M18.4918 27.3852C18.4917 27.4272 18.4577 27.4612 18.4156 27.4613C18.384 27.4613 18.3569 27.4419 18.3453 27.4145L18.3395 27.3852C18.3395 27.343 18.3735 27.309 18.4156 27.309L18.4449 27.3148C18.4724 27.3264 18.4918 27.3535 18.4918 27.3852Z" fill="#737373" stroke="#737373"/>
<path d="M18.4918 29.0471C18.4917 29.0891 18.4577 29.1231 18.4156 29.1232C18.384 29.1232 18.3569 29.1038 18.3453 29.0764L18.3395 29.0471C18.3395 29.0049 18.3735 28.9709 18.4156 28.9709L18.4449 28.9767C18.4724 28.9883 18.4918 29.0154 18.4918 29.0471Z" fill="#737373" stroke="#737373"/>
<path d="M18.4918 30.6873C18.4917 30.7293 18.4577 30.7633 18.4156 30.7634C18.384 30.7634 18.3569 30.744 18.3453 30.7166L18.3395 30.6873C18.3395 30.6451 18.3735 30.6111 18.4156 30.6111L18.4449 30.6169C18.4724 30.6285 18.4918 30.6556 18.4918 30.6873Z" fill="#737373" stroke="#737373"/>
<path d="M18.4918 32.3383C18.4917 32.3803 18.4577 32.4143 18.4156 32.4145C18.384 32.4145 18.3569 32.395 18.3453 32.3676L18.3395 32.3383C18.3395 32.2961 18.3735 32.2621 18.4156 32.2621L18.4449 32.268C18.4724 32.2795 18.4918 32.3066 18.4918 32.3383Z" fill="#737373" stroke="#737373"/>
</svg>
