<svg width="40" height="40" viewBox="0 0 40 40" fill="none" xmlns="http://www.w3.org/2000/svg">
<path d="M10.1051 12.9105L6.3668 19.9887C6.34208 20.0305 6.32912 20.0779 6.32923 20.1261C6.32934 20.1743 6.34251 20.2217 6.36742 20.2633C6.39233 20.305 6.42808 20.3395 6.47105 20.3633C6.51403 20.3872 6.5627 20.3995 6.61212 20.399H13.528C13.5772 20.3982 13.6253 20.3852 13.6679 20.3614C13.7106 20.3376 13.7464 20.3036 13.772 20.2627C13.7976 20.2218 13.8123 20.1752 13.8145 20.1273C13.8168 20.0794 13.8067 20.0318 13.785 19.9887L10.1051 12.9105ZM10.1051 12.9105L10.1051 8.64761C10.1052 8.60364 10.1172 8.56048 10.1398 8.52244C10.1624 8.4844 10.1949 8.45283 10.2339 8.4309C10.273 8.40896 10.3172 8.39743 10.3623 8.39745C10.4074 8.39748 10.4516 8.40906 10.4907 8.43105L12.8271 9.68484C12.8636 9.70455 12.8941 9.73345 12.9153 9.76853C12.9365 9.80361 12.9476 9.84358 12.9476 9.8843C12.9476 9.92502 12.9365 9.965 12.9153 10.0001C12.8941 10.0352 12.8636 10.0641 12.8271 10.0838L10.1636 11.4971M20 9.45687L16.3084 16.5123C16.2846 16.5591 16.2734 16.6109 16.2759 16.6631C16.2783 16.7152 16.2943 16.7659 16.3223 16.8104C16.3504 16.8548 16.3895 16.8916 16.4362 16.9172C16.4828 16.9428 16.5353 16.9565 16.5888 16.9568H23.4229C23.4767 16.9578 23.5298 16.9448 23.5768 16.9192C23.6237 16.8936 23.6629 16.8563 23.6902 16.8111C23.7176 16.7658 23.7321 16.7144 23.7323 16.6619C23.7326 16.6094 23.7185 16.5577 23.6916 16.5123L20 9.45687ZM20 9.45687L20 5.34216C19.9999 5.28212 20.0161 5.22313 20.0469 5.17111C20.0776 5.1191 20.1218 5.0759 20.1751 5.04587C20.2284 5.01583 20.2889 5.00001 20.3504 5C20.4119 4.99999 20.4724 5.01579 20.5257 5.04581L22.4065 6.06024C22.4748 6.09649 22.5318 6.15003 22.5715 6.21522C22.6112 6.28041 22.6322 6.35484 22.6322 6.43068C22.6322 6.50652 22.6112 6.58095 22.5715 6.64614C22.5318 6.71133 22.4748 6.76487 22.4065 6.80112L20.0701 8.04351M26.7173 29.2781V20.399H32.8505V28.9704C32.8505 29.052 32.8172 29.1303 32.7581 29.188C32.6989 29.2457 32.6187 29.2781 32.535 29.2781H31.25C31.1601 29.2781 31.074 29.2433 31.0104 29.1813C30.9469 29.1193 30.9112 29.0353 30.9112 28.9476C30.9521 28.504 30.9521 28.0577 30.9112 27.614H29.2056C29.1003 27.614 28.9992 27.6549 28.9247 27.7275C28.8503 27.8002 28.8084 27.8988 28.8084 28.0016V28.9476C28.8084 29.0353 28.7727 29.1193 28.7092 29.1813C28.6456 29.2433 28.5595 29.2781 28.4696 29.2781H26.7173ZM26.7173 29.2781V34.9772M7.00935 27.557H5.60748C5.4473 27.56 5.29452 27.6234 5.18124 27.7339C5.06796 27.8444 5.00299 27.9935 5 28.1497V34.4073C5 34.5645 5.064 34.7152 5.17793 34.8264C5.29185 34.9376 5.44636 35 5.60748 35H16.6472M23.5047 35H34.1822C34.4002 34.997 34.6082 34.9104 34.7612 34.759C34.9142 34.6075 35 34.4034 35 34.1907V28.3891C35 28.1684 34.9101 27.9568 34.7502 27.8008C34.5903 27.6447 34.3734 27.557 34.1472 27.557H32.8505M29.8365 12.9105V8.89837C29.8357 8.82851 29.8537 8.75965 29.8887 8.6987C29.9237 8.63775 29.9745 8.58684 30.036 8.55107C30.0975 8.51529 30.1676 8.4959 30.2392 8.49484C30.3108 8.49378 30.3814 8.51109 30.444 8.54503L32.3716 9.57086C32.4275 9.60163 32.474 9.64634 32.5064 9.70041C32.5387 9.75449 32.5558 9.81598 32.5558 9.87861C32.5558 9.94123 32.5387 10.0027 32.5064 10.0568C32.474 10.1109 32.4275 10.1556 32.3716 10.1864L29.8949 11.4971M13.201 22.7698H15.1519V24.4454H17.0561V22.7698H19.1005V24.4454H21.1449V22.7698H22.8856V24.4454H25.0468V22.7698H26.7173M17.056 22.5875V17.048M22.8739 22.5875V17.048M29.8949 12.9105L26.1916 19.9317C26.1661 19.9813 26.1537 20.0364 26.1558 20.0919C26.1578 20.1473 26.1741 20.2014 26.2032 20.2491C26.2323 20.2968 26.2733 20.3366 26.3223 20.3648C26.3713 20.393 26.4268 20.4087 26.4836 20.4104H33.236C33.2938 20.4106 33.3508 20.3963 33.4014 20.3689C33.4519 20.3415 33.4945 20.3019 33.5249 20.2539C33.5554 20.2059 33.5727 20.1511 33.5753 20.0947C33.5779 20.0383 33.5657 19.9822 33.5397 19.9317L29.8949 12.9105ZM11.1098 29.0502V27.7394C11.1098 27.691 11.0901 27.6447 11.055 27.6105C11.02 27.5763 10.9724 27.557 10.9229 27.557H9.1822C9.15818 27.557 9.13439 27.5618 9.11233 27.5711C9.09027 27.5803 9.07041 27.594 9.05397 27.6111C9.03754 27.6282 9.02489 27.6484 9.0168 27.6705C9.00871 27.6926 9.00537 27.716 9.00697 27.7394V29.0502C9.00697 29.1227 8.97743 29.1923 8.92485 29.2436C8.87227 29.2949 8.80096 29.3237 8.7266 29.3237H7.21958C7.18578 29.3232 7.15256 29.3151 7.12245 29.3001C7.09234 29.2851 7.06615 29.2635 7.04586 29.2371C7.02558 29.2108 7.01174 29.1802 7.0054 29.1478C6.99907 29.1154 7.0004 29.082 7.0093 29.0502V20.3876H13.2009V29.0502C13.201 29.1057 13.1792 29.1591 13.1401 29.1994C13.1009 29.2397 13.0474 29.2638 12.9906 29.2668H11.3785C11.3146 29.2677 11.2525 29.2464 11.2033 29.2067C11.154 29.1671 11.1209 29.1116 11.1098 29.0502ZM31.0281 23.3169C31.0281 23.9402 30.5103 24.4454 29.8716 24.4454C29.2328 24.4454 28.715 23.9402 28.715 23.3169C28.715 22.6937 29.2328 22.1885 29.8716 22.1885C30.5103 22.1885 31.0281 22.6937 31.0281 23.3169ZM11.2266 23.3169C11.2266 23.9402 10.7088 24.4454 10.0701 24.4454C9.43133 24.4454 8.91353 23.9402 8.91353 23.3169C8.91353 22.6937 9.43133 22.1885 10.0701 22.1885C10.7088 22.1885 11.2266 22.6937 11.2266 23.3169ZM21.1565 19.9317C21.1565 20.5549 20.6387 21.0601 20 21.0601C19.3612 21.0601 18.8434 20.5549 18.8434 19.9317C18.8434 19.3085 19.3612 18.8033 20 18.8033C20.6387 18.8033 21.1565 19.3085 21.1565 19.9317ZM19.8949 28.07C20.9081 28.07 21.8798 28.4626 22.5962 29.1616C23.3126 29.8606 23.715 30.8086 23.715 31.7971V35H16.0164V31.7971C16.0164 31.3028 16.1171 30.8135 16.3127 30.3575C16.5083 29.9016 16.7949 29.4881 17.1559 29.1413C17.5168 28.7944 17.9449 28.5211 18.4151 28.3371C18.8853 28.1532 19.3884 28.0624 19.8949 28.07Z" stroke="#737373" stroke-width="0.4" stroke-miterlimit="10"/>
</svg>
