<svg width="40" height="40" viewBox="0 0 40 40" fill="none" xmlns="http://www.w3.org/2000/svg">
<path d="M11.98 8.10001L12.1638 8.02122L11.9772 7.58585L11.7953 8.0232L11.98 8.10001ZM8.73999 15.89L8.55533 15.8132L8.53999 15.8501V15.89H8.73999ZM8.73999 34.07H8.53999V34.27H8.73999V34.07ZM15.22 34.07V34.27H15.42V34.07H15.22ZM15.22 15.66H15.42V15.619L15.4038 15.5812L15.22 15.66ZM19.67 14.25L19.5161 14.1222L19.513 14.126L19.67 14.25ZM19.87 14.1561L19.87 13.9561L19.87 14.1561ZM20.07 14.25L20.2245 14.123L20.2238 14.1222L20.07 14.25ZM24.68 19.86H24.88V19.7884L24.8345 19.733L24.68 19.86ZM24.68 34.07H24.48V34.27H24.68V34.07ZM31.02 34.07V34.27H31.22V34.07H31.02ZM31.02 15.71H31.22V15.6708L31.2052 15.6346L31.02 15.71ZM27.92 8.10001L28.1052 8.02455L27.924 7.57987L27.7359 8.02166L27.92 8.10001ZM24.68 15.71L24.4959 15.6317L24.48 15.6692V15.71H24.68ZM10.52 15.83L10.6728 15.959L10.6908 15.9378L10.7022 15.9125L10.52 15.83ZM11.81 12.98L11.9922 13.0625L11.996 13.0543L11.9989 13.0457L11.81 12.98ZM12.15 12.98L11.9607 13.0459L11.9659 13.0582L12.15 12.98ZM13.36 15.83L13.5572 15.7967L13.5533 15.7735L13.5441 15.7518L13.36 15.83ZM13.36 15.91L13.1628 15.8767L13.16 15.8932V15.91H13.36ZM13.36 19.4H13.1597L13.1604 19.4114L13.36 19.4ZM13.17 19.59L13.1815 19.39H13.17V19.59ZM10.67 19.59V19.3897L10.6586 19.3903L10.67 19.59ZM10.48 19.4L10.68 19.4115V19.4H10.48ZM10.48 15.91L10.2851 15.8652L10.28 15.8873V15.91H10.48ZM26.3599 16.02L26.5086 16.1538L26.5294 16.1306L26.5423 16.1022L26.3599 16.02ZM27.6499 13.16L27.8323 13.2422L27.8359 13.2341L27.8388 13.2257L27.6499 13.16ZM27.9899 13.16L27.8006 13.2259L27.8059 13.2382L27.9899 13.16ZM29.1999 16.01L29.3965 15.9732L29.3925 15.9518L29.384 15.9318L29.1999 16.01ZM29.1999 16.08L29.0034 16.0432L28.9999 16.0614V16.08H29.1999ZM29.1999 19.59H29.3999H29.1999ZM29.0099 19.78V19.58V19.78ZM26.3199 19.59H26.5199H26.3199ZM26.3199 16.09L26.1292 16.0299L26.1199 16.0592V16.09H26.3199ZM8.31006 27.75C8.1996 27.75 8.11006 27.8395 8.11006 27.95C8.11006 28.0605 8.1996 28.15 8.31006 28.15V27.75ZM15.6501 28.15C15.7605 28.15 15.8501 28.0605 15.8501 27.95C15.8501 27.8395 15.7605 27.75 15.6501 27.75V28.15ZM24.1801 27.75C24.0696 27.75 23.9801 27.8395 23.9801 27.95C23.9801 28.0605 24.0696 28.15 24.1801 28.15V27.75ZM31.4901 28.15C31.6005 28.15 31.6901 28.0605 31.6901 27.95C31.6901 27.8395 31.6005 27.75 31.4901 27.75V28.15ZM8.82996 29.15C8.7195 29.15 8.62996 29.2395 8.62996 29.35C8.62996 29.4605 8.7195 29.55 8.82996 29.55V29.15ZM9.57996 29.55C9.69041 29.55 9.77996 29.4605 9.77996 29.35C9.77996 29.2395 9.69041 29.15 9.57996 29.15V29.55ZM14.42 29.15C14.3096 29.15 14.22 29.2395 14.22 29.35C14.22 29.4605 14.3096 29.55 14.42 29.55V29.15ZM15.21 29.55C15.3205 29.55 15.41 29.4605 15.41 29.35C15.41 29.2395 15.3205 29.15 15.21 29.15V29.55ZM8.82996 30.79C8.7195 30.79 8.62996 30.8795 8.62996 30.99C8.62996 31.1005 8.7195 31.19 8.82996 31.19V30.79ZM9.57996 31.19C9.69041 31.19 9.77996 31.1005 9.77996 30.99C9.77996 30.8795 9.69041 30.79 9.57996 30.79V31.19ZM14.42 30.79C14.3096 30.79 14.22 30.8795 14.22 30.99C14.22 31.1005 14.3096 31.19 14.42 31.19V30.79ZM15.22 31.19C15.3305 31.19 15.42 31.1005 15.42 30.99C15.42 30.8795 15.3305 30.79 15.22 30.79V31.19ZM14.42 32.41C14.3096 32.41 14.22 32.4995 14.22 32.61C14.22 32.7205 14.3096 32.81 14.42 32.81V32.41ZM15.22 32.81C15.3305 32.81 15.42 32.7205 15.42 32.61C15.42 32.4995 15.3305 32.41 15.22 32.41V32.81ZM9.57996 32.72C9.69041 32.72 9.77996 32.6305 9.77996 32.52C9.77996 32.4095 9.69041 32.32 9.57996 32.32V32.72ZM8.82996 32.32C8.7195 32.32 8.62996 32.4095 8.62996 32.52C8.62996 32.6305 8.7195 32.72 8.82996 32.72V32.32ZM19.75 26.67L19.7483 26.87H19.75V26.67ZM20.14 26.67V26.47V26.67ZM22.49 34.08V34.28H22.69V34.08H22.49ZM17.38 34.08H17.18V34.28H17.38V34.08ZM17.38 29.01L17.18 29.0092V29.01H17.38ZM24.67 29.15C24.5596 29.15 24.47 29.2395 24.47 29.35C24.47 29.4605 24.5596 29.55 24.67 29.55V29.15ZM25.39 29.55C25.5005 29.55 25.59 29.4605 25.59 29.35C25.59 29.2395 25.5005 29.15 25.39 29.15V29.55ZM30.27 29.15C30.1596 29.15 30.07 29.2395 30.07 29.35C30.07 29.4605 30.1596 29.55 30.27 29.55V29.15ZM30.86 29.55C30.9705 29.55 31.06 29.4605 31.06 29.35C31.06 29.2395 30.9705 29.15 30.86 29.15V29.55ZM24.67 30.79C24.5596 30.79 24.47 30.8795 24.47 30.99C24.47 31.1005 24.5596 31.19 24.67 31.19V30.79ZM25.39 31.19C25.5005 31.19 25.59 31.1005 25.59 30.99C25.59 30.8795 25.5005 30.79 25.39 30.79V31.19ZM30.27 30.79C30.1596 30.79 30.07 30.8795 30.07 30.99C30.07 31.1005 30.1596 31.19 30.27 31.19V30.79ZM30.86 31.19C30.9705 31.19 31.06 31.1005 31.06 30.99C31.06 30.8795 30.9705 30.79 30.86 30.79V31.19ZM30.27 32.41C30.1596 32.41 30.07 32.4995 30.07 32.61C30.07 32.7205 30.1596 32.81 30.27 32.81V32.41ZM30.86 32.81C30.9705 32.81 31.06 32.7205 31.06 32.61C31.06 32.4995 30.9705 32.41 30.86 32.41V32.81ZM25.39 32.81C25.5005 32.81 25.59 32.7205 25.59 32.61C25.59 32.4995 25.5005 32.41 25.39 32.41V32.81ZM24.67 32.41C24.5596 32.41 24.47 32.4995 24.47 32.61C24.47 32.7205 24.5596 32.81 24.67 32.81V32.41ZM8.31006 20.96C8.1996 20.96 8.11006 21.0495 8.11006 21.16C8.11006 21.2705 8.1996 21.36 8.31006 21.36V20.96ZM15.6501 21.36C15.7605 21.36 15.8501 21.2705 15.8501 21.16C15.8501 21.0495 15.7605 20.96 15.6501 20.96V21.36ZM24.1801 20.96C24.0696 20.96 23.9801 21.0495 23.9801 21.16C23.9801 21.2705 24.0696 21.36 24.1801 21.36V20.96ZM31.5301 21.36C31.6405 21.36 31.7301 21.2705 31.7301 21.16C31.7301 21.0495 31.6405 20.96 31.5301 20.96V21.36ZM12.18 5C12.18 4.88954 12.0904 4.8 11.98 4.8C11.8695 4.8 11.78 4.88954 11.78 5H12.18ZM11.78 8.11C11.78 8.22046 11.8695 8.31 11.98 8.31C12.0904 8.31 12.18 8.22046 12.18 8.11H11.78ZM13.4 6.59999C13.5104 6.59999 13.6 6.51045 13.6 6.39999C13.6 6.28954 13.5104 6.19999 13.4 6.19999V6.59999ZM10.47 6.19999C10.3595 6.19999 10.27 6.28954 10.27 6.39999C10.27 6.51045 10.3595 6.59999 10.47 6.59999V6.19999ZM28.1 5C28.1 4.88954 28.0105 4.8 27.9 4.8C27.7896 4.8 27.7 4.88954 27.7 5H28.1ZM27.7 8.11C27.7 8.22046 27.7896 8.31 27.9 8.31C28.0105 8.31 28.1 8.22046 28.1 8.11H27.7ZM29.32 6.59999C29.4305 6.59999 29.52 6.51045 29.52 6.39999C29.52 6.28954 29.4305 6.19999 29.32 6.19999V6.59999ZM26.39 6.19999C26.2796 6.19999 26.19 6.28954 26.19 6.39999C26.19 6.51045 26.2796 6.59999 26.39 6.59999V6.19999ZM8 33.87C7.88954 33.87 7.8 33.9596 7.8 34.07C7.8 34.1805 7.88954 34.27 8 34.27V33.87ZM31.78 34.27C31.8905 34.27 31.98 34.1805 31.98 34.07C31.98 33.9596 31.8905 33.87 31.78 33.87V34.27ZM11.98 8.10001L11.7953 8.0232L8.55533 15.8132L8.73999 15.89L8.92465 15.9668L12.1647 8.17681L11.98 8.10001ZM8.73999 15.89H8.53999V34.07H8.73999H8.93999V15.89H8.73999ZM8.73999 34.07V34.27H15.22V34.07V33.87H8.73999V34.07ZM15.22 34.07H15.42V15.66H15.22H15.02V34.07H15.22ZM15.22 15.66L15.4038 15.5812L12.1638 8.02122L11.98 8.10001L11.7962 8.17879L15.0362 15.7388L15.22 15.66ZM15.2 19.91L15.3569 20.034L19.8269 14.374L19.67 14.25L19.513 14.126L15.043 19.786L15.2 19.91ZM19.67 14.25L19.8238 14.3778C19.8294 14.371 19.8365 14.3656 19.8445 14.3618L19.7595 14.1808L19.6745 13.9997C19.6134 14.0284 19.5593 14.0702 19.5161 14.1222L19.67 14.25ZM19.7595 14.1808L19.8445 14.3618C19.8524 14.3581 19.8611 14.3561 19.87 14.3561L19.87 14.1561L19.87 13.9561C19.8024 13.9561 19.7357 13.971 19.6745 13.9997L19.7595 14.1808ZM19.87 14.1561L19.87 14.3561C19.8788 14.3561 19.8875 14.3581 19.8954 14.3618L19.9804 14.1808L20.0654 13.9997C20.0042 13.971 19.9375 13.9561 19.87 13.9561L19.87 14.1561ZM19.9804 14.1808L19.8954 14.3618C19.9034 14.3656 19.9105 14.371 19.9161 14.3778L20.07 14.25L20.2238 14.1222C20.1806 14.0702 20.1265 14.0284 20.0654 13.9997L19.9804 14.1808ZM20.07 14.25L19.9154 14.377L24.5254 19.987L24.68 19.86L24.8345 19.733L20.2245 14.123L20.07 14.25ZM24.68 19.86H24.48V34.07H24.68H24.88V19.86H24.68ZM24.68 34.07V34.27H31.02V34.07V33.87H24.68V34.07ZM31.02 34.07H31.22V15.71H31.02H30.82V34.07H31.02ZM31.02 15.71L31.2052 15.6346L28.1052 8.02455L27.92 8.10001L27.7347 8.17546L30.8347 15.7855L31.02 15.71ZM27.92 8.10001L27.7359 8.02166L24.4959 15.6317L24.68 15.71L24.864 15.7884L28.104 8.17835L27.92 8.10001ZM24.68 15.71H24.48V20.23H24.68H24.88V15.71H24.68ZM22.14 21.16H21.94C21.94 22.3032 21.0132 23.23 19.87 23.23V23.43V23.63C21.2341 23.63 22.34 22.5241 22.34 21.16H22.14ZM19.87 23.43V23.23C18.7267 23.23 17.8 22.3032 17.8 21.16H17.6H17.4C17.4 22.5241 18.5058 23.63 19.87 23.63V23.43ZM17.6 21.16H17.8C17.8 20.0168 18.7267 19.09 19.87 19.09V18.89V18.69C18.5058 18.69 17.4 19.7959 17.4 21.16H17.6ZM19.87 18.89V19.09C21.0132 19.09 21.94 20.0168 21.94 21.16H22.14H22.34C22.34 19.7959 21.2341 18.69 19.87 18.69V18.89ZM10.97 22.69V22.89H13V22.69V22.49H10.97V22.69ZM13 22.69V22.89C13.1491 22.89 13.27 23.0109 13.27 23.16H13.47H13.67C13.67 22.79 13.37 22.49 13 22.49V22.69ZM13.47 23.16H13.27V26.02H13.47H13.67V23.16H13.47ZM13.47 26.02H13.27C13.27 26.1691 13.1491 26.29 13 26.29V26.49V26.69C13.37 26.69 13.67 26.39 13.67 26.02H13.47ZM13 26.49V26.29H10.97V26.49V26.69H13V26.49ZM10.97 26.49V26.29C10.8209 26.29 10.7 26.1691 10.7 26.02H10.5H10.3C10.3 26.39 10.6 26.69 10.97 26.69V26.49ZM10.5 26.02H10.7V23.16H10.5H10.3V26.02H10.5ZM10.5 23.16H10.7C10.7 23.0109 10.8209 22.89 10.97 22.89V22.69V22.49C10.6 22.49 10.3 22.79 10.3 23.16H10.5ZM26.76 22.69V22.89H28.79V22.69V22.49H26.76V22.69ZM28.79 22.69V22.89C28.9392 22.89 29.06 23.0109 29.06 23.16H29.26H29.46C29.46 22.79 29.1601 22.49 28.79 22.49V22.69ZM29.26 23.16H29.06V26.02H29.26H29.46V23.16H29.26ZM29.26 26.02H29.06C29.06 26.1691 28.9392 26.29 28.79 26.29V26.49V26.69C29.1601 26.69 29.46 26.39 29.46 26.02H29.26ZM28.79 26.49V26.29H26.76V26.49V26.69H28.79V26.49ZM26.76 26.49V26.29C26.6109 26.29 26.49 26.1691 26.49 26.02H26.29H26.09C26.09 26.39 26.39 26.69 26.76 26.69V26.49ZM26.29 26.02H26.49V23.16H26.29H26.09V26.02H26.29ZM26.29 23.16H26.49C26.49 23.0109 26.6109 22.89 26.76 22.89V22.69V22.49C26.39 22.49 26.09 22.79 26.09 23.16H26.29ZM10.52 15.83L10.7022 15.9125L11.9922 13.0625L11.81 12.98L11.6278 12.8975L10.3378 15.7475L10.52 15.83ZM11.81 12.98L11.9989 13.0457C11.9976 13.0497 11.995 13.0531 11.9916 13.0555L11.8757 12.8924L11.7599 12.7294C11.6956 12.7751 11.6471 12.8397 11.6211 12.9143L11.81 12.98ZM11.8757 12.8924L11.9916 13.0555C11.9882 13.0579 11.9842 13.0592 11.98 13.0592V12.8592V12.6592C11.9011 12.6592 11.8242 12.6837 11.7599 12.7294L11.8757 12.8924ZM11.98 12.8592V13.0592C11.9759 13.0592 11.9718 13.0579 11.9684 13.0555L12.0843 12.8924L12.2002 12.7294C12.1359 12.6837 12.0589 12.6592 11.98 12.6592V12.8592ZM12.0843 12.8924L11.9684 13.0555C11.9651 13.0531 11.9625 13.0497 11.9611 13.0457L12.15 12.98L12.3389 12.9143C12.313 12.8397 12.2645 12.7751 12.2002 12.7294L12.0843 12.8924ZM12.15 12.98L11.9659 13.0582L13.1759 15.9082L13.36 15.83L13.5441 15.7518L12.3341 12.9018L12.15 12.98ZM13.36 15.83L13.1628 15.8633C13.1636 15.8677 13.1636 15.8723 13.1628 15.8767L13.36 15.91L13.5572 15.9433C13.5654 15.8948 13.5654 15.8452 13.5572 15.7967L13.36 15.83ZM13.36 15.91H13.16V19.4H13.36H13.56V15.91H13.36ZM13.36 19.4L13.1604 19.4114C13.1602 19.4086 13.1606 19.4058 13.1616 19.4032L13.3485 19.4744L13.5354 19.5456C13.5545 19.4956 13.5628 19.442 13.5597 19.3886L13.36 19.4ZM13.3485 19.4744L13.1616 19.4032C13.1626 19.4005 13.1642 19.3981 13.1662 19.3962L13.3076 19.5376L13.449 19.679C13.4869 19.6411 13.5163 19.5957 13.5354 19.5456L13.3485 19.4744ZM13.3076 19.5376L13.1662 19.3962C13.1682 19.3942 13.1706 19.3926 13.1732 19.3916L13.2444 19.5785L13.3156 19.7654C13.3657 19.7463 13.4111 19.7169 13.449 19.679L13.3076 19.5376ZM13.2444 19.5785L13.1732 19.3916C13.1758 19.3906 13.1787 19.3902 13.1815 19.3903L13.17 19.59L13.1586 19.7897C13.2121 19.7927 13.2656 19.7845 13.3156 19.7654L13.2444 19.5785ZM13.17 19.59V19.39H10.67V19.59V19.79H13.17V19.59ZM10.67 19.59L10.6586 19.3903C10.6614 19.3902 10.6642 19.3906 10.6669 19.3916L10.5956 19.5785L10.5244 19.7654C10.5745 19.7845 10.628 19.7927 10.6815 19.7897L10.67 19.59ZM10.5956 19.5785L10.6669 19.3916C10.6695 19.3926 10.6719 19.3942 10.6739 19.3962L10.5325 19.5376L10.391 19.679C10.4289 19.7169 10.4744 19.7463 10.5244 19.7654L10.5956 19.5785ZM10.5325 19.5376L10.6739 19.3962C10.6759 19.3982 10.6774 19.4005 10.6784 19.4032L10.4915 19.4744L10.3046 19.5456C10.3237 19.5957 10.3532 19.6411 10.391 19.679L10.5325 19.5376ZM10.4915 19.4744L10.6784 19.4032C10.6794 19.4058 10.6799 19.4086 10.6797 19.4114L10.48 19.4L10.2804 19.3886C10.2773 19.442 10.2856 19.4956 10.3046 19.5456L10.4915 19.4744ZM10.48 19.4H10.68V15.91H10.48H10.28V19.4H10.48ZM10.48 15.91L10.6749 15.9548C10.6746 15.9564 10.6739 15.9578 10.6728 15.959L10.52 15.83L10.3672 15.701C10.3272 15.7484 10.299 15.8047 10.2851 15.8652L10.48 15.91ZM26.3599 16.02L26.5423 16.1022L27.8323 13.2422L27.6499 13.16L27.4676 13.0778L26.1776 15.9378L26.3599 16.02ZM27.6499 13.16L27.8388 13.2257C27.8375 13.2296 27.8349 13.233 27.8315 13.2355L27.7157 13.0724L27.5998 12.9094C27.5355 12.9551 27.487 13.0197 27.4611 13.0943L27.6499 13.16ZM27.7157 13.0724L27.8315 13.2355C27.8281 13.2379 27.8241 13.2392 27.8199 13.2392V13.0392V12.8392C27.741 12.8392 27.6641 12.8637 27.5998 12.9094L27.7157 13.0724ZM27.8199 13.0392V13.2392C27.8158 13.2392 27.8117 13.2379 27.8084 13.2355L27.9242 13.0724L28.0401 12.9094C27.9758 12.8637 27.8989 12.8392 27.8199 12.8392V13.0392ZM27.9242 13.0724L27.8084 13.2355C27.805 13.2331 27.8024 13.2297 27.8011 13.2257L27.9899 13.16L28.1788 13.0943C28.1529 13.0197 28.1044 12.9551 28.0401 12.9094L27.9242 13.0724ZM27.9899 13.16L27.8059 13.2382L29.0159 16.0882L29.1999 16.01L29.384 15.9318L28.174 13.0818L27.9899 13.16ZM29.1999 16.01L29.0034 16.0468C29.0031 16.0456 29.0031 16.0444 29.0034 16.0432L29.1999 16.08L29.3965 16.1168C29.4054 16.0694 29.4054 16.0206 29.3965 15.9732L29.1999 16.01ZM29.1999 16.08H28.9999V19.59H29.1999H29.3999V16.08H29.1999ZM29.1999 19.59L28.9999 19.59C28.9999 19.5873 29.001 19.5848 29.0029 19.5829L29.1443 19.7243L29.2857 19.8658C29.3589 19.7926 29.3999 19.6934 29.3999 19.59L29.1999 19.59ZM29.1443 19.7243L29.0029 19.5829C29.0047 19.581 29.0073 19.58 29.0099 19.58L29.0099 19.78L29.0099 19.98C29.1134 19.98 29.2126 19.9389 29.2857 19.8658L29.1443 19.7243ZM29.0099 19.78V19.58H26.5099V19.78V19.98H29.0099V19.78ZM26.5099 19.78V19.58C26.5126 19.58 26.5151 19.581 26.517 19.5829L26.3756 19.7243L26.2342 19.8658C26.3073 19.9389 26.4065 19.98 26.5099 19.98V19.78ZM26.3756 19.7243L26.517 19.5829C26.5189 19.5848 26.5199 19.5873 26.5199 19.59L26.3199 19.59L26.1199 19.59C26.1199 19.6934 26.161 19.7926 26.2342 19.8658L26.3756 19.7243ZM26.3199 19.59H26.5199V16.09H26.3199H26.1199V19.59H26.3199ZM26.3199 16.09L26.5107 16.1501C26.5103 16.1515 26.5095 16.1527 26.5086 16.1538L26.3599 16.02L26.2113 15.8862C26.174 15.9277 26.146 15.9767 26.1292 16.0299L26.3199 16.09ZM8.31006 27.95V28.15H15.6501V27.95V27.75H8.31006V27.95ZM24.1801 27.95V28.15H31.4901V27.95V27.75H24.1801V27.95ZM8.82996 29.35V29.55H9.57996V29.35V29.15H8.82996V29.35ZM14.42 29.35V29.55H15.21V29.35V29.15H14.42V29.35ZM8.82996 30.99V31.19H9.57996V30.99V30.79H8.82996V30.99ZM14.42 30.99V31.19H15.22V30.99V30.79H14.42V30.99ZM14.42 32.61V32.81H15.22V32.61V32.41H14.42V32.61ZM9.57996 32.52V32.32H8.82996V32.52V32.72H9.57996V32.52ZM19.75 26.67V26.87H20.14V26.67V26.47H19.75V26.67ZM20.14 26.67V26.87C20.7102 26.87 21.2571 27.0965 21.6603 27.4997L21.8017 27.3583L21.9431 27.2169C21.4649 26.7387 20.8163 26.47 20.14 26.47V26.67ZM21.8017 27.3583L21.6603 27.4997C22.0635 27.9029 22.29 28.4498 22.29 29.02H22.49H22.69C22.69 28.3437 22.4213 27.6951 21.9431 27.2169L21.8017 27.3583ZM22.49 29.02H22.29V34.08H22.49H22.69V29.02H22.49ZM22.49 34.08V33.88H17.38V34.08V34.28H22.49V34.08ZM17.38 34.08H17.58V29.01H17.38H17.18V34.08H17.38ZM17.38 29.01L17.58 29.0109C17.5812 28.7277 17.6383 28.4476 17.748 28.1866L17.5637 28.1091L17.3793 28.0316C17.2491 28.3412 17.1814 28.6734 17.18 29.0092L17.38 29.01ZM17.5637 28.1091L17.748 28.1866C17.8578 27.9257 18.018 27.6889 18.2194 27.49L18.0789 27.3477L17.9384 27.2054C17.6994 27.4413 17.5094 27.7221 17.3793 28.0316L17.5637 28.1091ZM18.0789 27.3477L18.2194 27.49C18.4209 27.2911 18.6597 27.1339 18.922 27.0275L18.8469 26.8422L18.7717 26.6568C18.4605 26.783 18.1773 26.9694 17.9384 27.2054L18.0789 27.3477ZM18.8469 26.8422L18.922 27.0275C19.1844 26.9211 19.4652 26.8676 19.7483 26.87L19.75 26.67L19.7517 26.47C19.4159 26.4672 19.0829 26.5306 18.7717 26.6568L18.8469 26.8422ZM19.9301 26.82H19.7301V33.91H19.9301H20.1301V26.82H19.9301ZM24.67 29.35V29.55H25.39V29.35V29.15H24.67V29.35ZM30.27 29.35V29.55H30.86V29.35V29.15H30.27V29.35ZM24.67 30.99V31.19H25.39V30.99V30.79H24.67V30.99ZM30.27 30.99V31.19H30.86V30.99V30.79H30.27V30.99ZM30.27 32.61V32.81H30.86V32.61V32.41H30.27V32.61ZM25.39 32.61V32.41H24.67V32.61V32.81H25.39V32.61ZM19.87 18.89L19.67 18.89L19.67 23.44L19.87 23.44L20.07 23.44L20.07 18.89L19.87 18.89ZM17.6 21.16V21.36H22.14V21.16V20.96H17.6V21.16ZM8.31006 21.16V21.36H15.6501V21.16V20.96H8.31006V21.16ZM24.1801 21.16V21.36H31.5301V21.16V20.96H24.1801V21.16ZM24.67 15.71V15.91H26.29V15.71V15.51H24.67V15.71ZM30.86 15.71V15.51H29.26V15.71V15.91H30.86V15.71ZM8.81995 15.71V15.91H10.4999V15.71V15.51H8.81995V15.71ZM13.3101 15.71V15.91H15.0301V15.71V15.51H13.3101V15.71ZM11.98 5H11.78V8.11H11.98H12.18V5H11.98ZM13.4 6.39999V6.19999H10.47V6.39999V6.59999H13.4V6.39999ZM27.9 5H27.7V8.11H27.9H28.1V5H27.9ZM29.32 6.39999V6.19999H26.39V6.39999V6.59999H29.32V6.39999ZM8 34.07V34.27H31.78V34.07V33.87H8V34.07Z" fill="#737373"/>
</svg>
