<svg width="40" height="40" viewBox="0 0 40 40" fill="none" xmlns="http://www.w3.org/2000/svg">
<path d="M4.70332 28.5378L6.24562 19.8624C6.26422 19.7473 6.31155 19.6387 6.38329 19.5464C6.45502 19.4542 6.54887 19.3814 6.65623 19.3345L8.59913 18.4381C8.76912 18.3608 8.91842 18.2447 9.03498 18.0994C9.15155 17.9541 9.2321 17.7835 9.27013 17.6015L9.78089 15.1114L10.0112 14.0158L10.5821 11.9241C10.6182 11.7828 10.6907 11.6533 10.7926 11.5485C10.8945 11.4437 11.0222 11.3672 11.163 11.3265L14.8184 10.2309C14.9889 10.1826 15.151 10.1087 15.2991 10.0118L19.6356 7.09341C19.7422 7.03222 19.8631 7 19.9861 7C20.1092 7 20.2301 7.03222 20.3366 7.09341L27.4372 10.7289C27.6411 10.8313 27.8037 11 27.8979 11.207L29.6105 14.8325L30.0812 15.7489L30.8423 17.2429C31.0458 17.6294 31.329 17.9688 31.6735 18.2389L33.997 20.1712C34.3192 20.4419 34.5296 20.8214 34.5879 21.2369L36 31.4761L35.1487 32.2928C35.0077 32.4309 34.8324 32.5295 34.6407 32.5785C34.449 32.6275 34.2476 32.6251 34.0571 32.5717L32.4647 32.1534C32.2423 32.0968 32.0133 32.07 31.7837 32.0737H28.8193L28.4387 30.5896L27.2369 29.8127C27.1271 29.7355 26.9959 29.6941 26.8614 29.6941C26.7269 29.6941 26.5957 29.7355 26.4858 29.8127L24.7833 31.2271C24.6631 31.3284 24.5846 31.4702 24.5629 31.6255L24.4327 32.6215C24.4255 32.6686 24.4286 32.7168 24.4419 32.7626C24.4553 32.8084 24.4784 32.8508 24.5099 32.8868C24.5413 32.9228 24.5803 32.9516 24.624 32.9712C24.6678 32.9907 24.7153 33.0005 24.7632 33H27.5574C27.7203 32.9994 27.8772 32.9391 27.9981 32.8307L28.8193 32.0438M27.4873 29.8227L29.8308 27.2728C29.9298 27.1704 30.0599 27.1033 30.2011 27.0817C30.3422 27.0601 30.4866 27.0853 30.612 27.1533L31.303 27.5517C31.5076 27.6701 31.7376 27.7384 31.974 27.7509H32.5649C32.8144 27.7585 33.0555 27.842 33.2559 27.99L34.5779 28.986C34.761 29.1276 34.9055 29.3125 34.9985 29.5238L35.8297 31.5757M6.0253 27.5816L4.52306 28.6673C4.44105 28.7265 4.37271 28.8024 4.32262 28.89C4.27253 28.9776 4.24185 29.0749 4.23263 29.1753L4.00228 31.4761C3.99248 31.5737 4.01443 31.6718 4.06491 31.7561C4.11539 31.8404 4.19173 31.9063 4.2827 31.9442L5.95519 32.6514C6.16001 32.719 6.38131 32.719 6.58614 32.6514L8.88957 31.9442C8.95735 31.9205 9.01971 31.8837 9.07302 31.8358C9.12632 31.7879 9.1695 31.73 9.20003 31.6653L10.0112 30.0318C10.05 29.9523 10.0658 29.8637 10.057 29.7758C10.0481 29.6879 10.015 29.6041 9.96117 29.5338L8.88957 28.1394C8.81064 28.0412 8.70164 27.9712 8.57911 27.9402L6.50602 27.482C6.42339 27.4634 6.3377 27.4626 6.25476 27.4798C6.17182 27.497 6.09356 27.5317 6.0253 27.5816ZM14.4078 31.7151C14.4779 31.3366 13.5465 30.4502 13.5465 30.4502C13.3562 30.1738 13.0827 29.9646 12.7654 29.8526L11.874 29.5438C11.7539 29.4999 11.6258 29.4816 11.4981 29.4902C11.3705 29.4988 11.246 29.534 11.1329 29.5936L10.3317 30.0119C10.0649 30.1495 9.85044 30.3698 9.72082 30.6394L9.09989 31.8844L9.97119 32.3227C10.0818 32.3825 10.2058 32.4134 10.3317 32.4123H13.166C13.3101 32.4138 13.4508 32.3683 13.5666 32.2829C13.5666 32.2829 14.3577 31.9442 14.4078 31.7151ZM19.9761 20.8186L15.6196 23.8764C15.4607 23.9857 15.3469 24.1484 15.2991 24.3346L13.8169 30.48C13.8095 30.5132 13.8095 30.5475 13.8171 30.5806C13.8247 30.6137 13.8395 30.6447 13.8606 30.6714C13.8817 30.6981 13.9085 30.7198 13.939 30.7349C13.9696 30.7501 14.0031 30.7583 14.0372 30.7589H25.2239C25.2859 30.7574 25.3469 30.7423 25.4023 30.7146C25.4578 30.687 25.5064 30.6474 25.5447 30.5989C25.5829 30.5503 25.61 30.494 25.6238 30.4338C25.6376 30.3737 25.6378 30.3112 25.6245 30.251L24.3927 24.5338C24.3449 24.3352 24.2446 24.153 24.1022 24.0059L20.9776 20.9083C20.8442 20.7851 20.6735 20.7094 20.4922 20.6932C20.311 20.6769 20.1294 20.7211 19.9761 20.8186Z" stroke="#737373" stroke-width="0.4" stroke-miterlimit="10"/>
</svg>
