<svg width="40" height="40" viewBox="0 0 40 40" fill="none" xmlns="http://www.w3.org/2000/svg">
<path d="M8.88028 19.9775L20.0449 9.97129M20.0449 9.97129L31.0389 19.7884M20.0449 9.97129L20.045 4M23.4132 7.35041H16.7127M10.5151 18.5094V35.982M10.5151 25.2823L5.22468 28.8849C5.15375 28.9341 5.0961 29.0001 5.05691 29.0772C5.01772 29.1542 4.99821 29.2398 5.00013 29.3262V35.946H35V29.5153C34.9997 29.4375 34.9808 29.3609 34.9448 29.292C34.9089 29.223 34.857 29.1637 34.7934 29.1191L29.6108 25.2823M29.6108 18.5094V35.982M22.7576 19.6623C22.7576 21.1495 21.5552 22.3552 20.0719 22.3552C18.5887 22.3552 17.3863 21.1495 17.3863 19.6623C17.3863 18.175 18.5887 16.9693 20.0719 16.9693C21.5552 16.9693 22.7576 18.175 22.7576 19.6623ZM18.6617 26.5972H21.3024C22.0171 26.5972 22.7025 26.8819 23.2078 27.3886C23.7131 27.8953 23.997 28.5826 23.997 29.2992V36H16.0031V29.2812C16.0077 28.5739 16.2887 27.8966 16.7858 27.3948C17.2829 26.893 17.9564 26.6067 18.6617 26.5972Z" stroke="#737373" stroke-width="0.4" stroke-miterlimit="10" stroke-linecap="round"/>
</svg>
