<svg width="40" height="40" viewBox="0 0 40 40" fill="none" xmlns="http://www.w3.org/2000/svg">
<path d="M27.8905 23.7785H13.6112L14.9847 33.4028C15.0101 33.5682 15.0957 33.7193 15.226 33.8288C15.3563 33.9384 15.5227 33.9991 15.6951 34H25.7711C25.9429 34.0012 26.1091 33.9409 26.238 33.8307C26.3668 33.7206 26.4493 33.5682 26.4697 33.4028L27.8905 23.7785ZM27.8905 23.7785C29.56 20.5628 26.3512 21.5275 26.1618 20.6547C25.4632 17.3356 23.924 19.9311 23.5214 19.3224C21.9466 16.9566 21.4849 19.0238 20.9165 18.6908C18.6077 17.3585 18.6314 19.265 17.8854 19.0927C15.3516 18.4955 16.0857 20.4939 15.3516 20.5858C11.6575 21.0911 13.6111 23.9508 13.6111 23.9508M16.2278 23.9623L17.1869 34M19.0221 23.7785L19.4365 34M22.5033 23.7785L22.0889 34M25.2501 23.7785L24.2437 34M14.0138 26.6153H6.34133C6.25537 26.6168 6.16997 26.6015 6.09023 26.5704C6.0105 26.5392 5.93807 26.4927 5.87727 26.4337C5.81648 26.3748 5.76857 26.3045 5.73641 26.2272C5.70426 26.1498 5.68851 26.067 5.69012 25.9836V16.635M5.69012 16.635H20.7272C20.7982 17.2955 20.7982 17.9613 20.7272 18.6218M5.69012 16.635L5.01517 13.5111C4.99621 13.4258 4.99501 13.3377 5.01165 13.252C5.02829 13.1662 5.06244 13.0846 5.11208 13.0118C5.16172 12.9391 5.22585 12.8767 5.30071 12.8283C5.37556 12.7799 5.45964 12.7466 5.54798 12.7302L19.1169 10.2265C19.3142 10.1919 19.5176 10.2323 19.6851 10.3392C19.8526 10.4461 19.9713 10.6113 20.0168 10.8007L20.5969 13.0402C20.6194 13.1339 20.6221 13.231 20.6048 13.3256C20.5876 13.4203 20.5507 13.5106 20.4965 13.5911C20.4423 13.6716 20.3718 13.7406 20.2894 13.794C20.2069 13.8473 20.1142 13.8839 20.0168 13.9016L5.69012 16.635ZM8.82767 12.2937L7.46604 16.1986M11.9417 11.5587L10.6156 15.5324M15.032 10.9845L13.6112 15.119M18.0749 10.4217L16.7962 14.4069M13.2204 11.2257V6.91886C13.2204 6.79723 13.2453 6.67681 13.2936 6.56458C13.3419 6.45235 13.4128 6.35055 13.502 6.26508C13.5912 6.17961 13.697 6.11218 13.8133 6.06669C13.9296 6.02119 14.0541 5.99855 14.1794 6.00007H33.0409C33.1663 5.99855 33.2908 6.02119 33.4071 6.06669C33.5234 6.11218 33.6292 6.17961 33.7184 6.26508C33.8076 6.35055 33.8784 6.45235 33.9268 6.56458C33.9751 6.67681 34 6.79723 34 6.91886V20.8614C34 21.1081 33.899 21.3447 33.7191 21.5192C33.5392 21.6936 33.2953 21.7917 33.0409 21.7917H28.3048M7.03981 19.3569H13.7769M7.03981 21.6309H11.6693M22.4914 11.754V15.9574C22.4924 16.0093 22.5074 16.06 22.5349 16.1046C22.5623 16.1492 22.6013 16.1861 22.6479 16.2116C22.6945 16.2371 22.7472 16.2504 22.8007 16.2501C22.8543 16.2498 22.9068 16.236 22.9531 16.2101L26.6236 14.1428C26.6706 14.1182 26.7099 14.0817 26.7372 14.0372C26.7646 13.9928 26.779 13.9419 26.779 13.8901C26.779 13.8383 26.7646 13.7875 26.7372 13.743C26.7099 13.6985 26.6706 13.6621 26.6236 13.6375L22.9531 11.5013C22.9068 11.4753 22.8543 11.4615 22.8007 11.4613C22.7472 11.461 22.6945 11.4743 22.6479 11.4998C22.6013 11.5253 22.5623 11.5621 22.5349 11.6067C22.5074 11.6513 22.4924 11.702 22.4914 11.754Z" stroke="#737373" stroke-width="0.4" stroke-miterlimit="10"/>
</svg>
