<svg width="40" height="40" viewBox="0 0 40 40" fill="none" xmlns="http://www.w3.org/2000/svg">
<path d="M12.6082 14.903V10.7963C12.6082 10.648 12.668 10.5056 12.7745 10.4007C12.881 10.2958 13.0254 10.2369 13.1759 10.2369H22.3844V21.2477H17.5474M17.502 5V7.4282M22.3845 21.3708V8.34576C22.3845 8.20628 22.4407 8.07251 22.5408 7.97388C22.6409 7.87525 22.7766 7.81984 22.9181 7.81984H31.5248C31.6663 7.81984 31.8021 7.87525 31.9021 7.97388C32.0022 8.07251 32.0585 8.20628 32.0585 8.34576V35M14.9132 13.0455H19.9546M17.8314 15.7423H19.9546M17.8314 18.6069H19.9546M20.4087 22.8366V33.411M22.3845 22.8366V33.411M24.4396 22.8366V33.411M12.6082 33.1649V34.8769M17.8314 21.3596H27.2215V35M6 35H34M8.27085 15.138H16.957C17.1136 15.138 17.2638 15.1993 17.3745 15.3084C17.4852 15.4176 17.5474 15.5656 17.5474 15.7199V34.4069C17.5474 34.5613 17.4852 34.7093 17.3745 34.8184C17.2638 34.9275 17.1136 34.9888 16.957 34.9888H7.66907V15.7199C7.66905 15.6425 7.68469 15.5659 7.71507 15.4946C7.74545 15.4233 7.78996 15.3586 7.84599 15.3044C7.90203 15.2502 7.96846 15.2076 8.04141 15.179C8.11436 15.1505 8.19236 15.1365 8.27085 15.138ZM14.9928 7.4282H20.0001C20.1085 7.4282 20.2124 7.47064 20.2891 7.54618C20.3658 7.62173 20.4088 7.72419 20.4088 7.83103V10.2368H14.584V7.83103C14.584 7.72419 14.6271 7.62173 14.7037 7.54618C14.7804 7.47064 14.8844 7.4282 14.9928 7.4282ZM11.4728 32.1242H13.7437C13.8461 32.1242 13.9443 32.1643 14.0167 32.2356C14.0891 32.307 14.1297 32.4038 14.1297 32.5047V35H11.0868V32.5047C11.0868 32.4038 11.1274 32.307 11.1998 32.2356C11.2722 32.1643 11.3704 32.1242 11.4728 32.1242ZM10.5417 18.2264H10.5531C10.7475 18.2264 10.905 18.3817 10.905 18.5733V19.1664C10.905 19.3579 10.7475 19.5132 10.5531 19.5132H10.5417C10.3473 19.5132 10.1897 19.3579 10.1897 19.1664V18.5733C10.1897 18.3817 10.3473 18.2264 10.5417 18.2264ZM25.155 10.0242H25.1663C25.3607 10.0242 25.5183 10.1795 25.5183 10.3711V10.9754C25.5183 11.167 25.3607 11.3223 25.1663 11.3223H25.155C24.9606 11.3223 24.803 11.167 24.803 10.9754V10.3711C24.803 10.1795 24.9606 10.0242 25.155 10.0242ZM27.2214 10.0242H27.2328C27.4272 10.0242 27.5848 10.1795 27.5848 10.3711V10.9754C27.5848 11.167 27.4272 11.3223 27.2328 11.3223H27.2214C27.027 11.3223 26.8694 11.167 26.8694 10.9754V10.3711C26.8694 10.1795 27.027 10.0242 27.2214 10.0242ZM29.4129 10.0242H29.4242C29.6186 10.0242 29.7762 10.1795 29.7762 10.3711V10.9754C29.7762 11.167 29.6186 11.3223 29.4242 11.3223H29.4129C29.2185 11.3223 29.0609 11.167 29.0609 10.9754V10.3711C29.0609 10.1795 29.2185 10.0242 29.4129 10.0242ZM25.155 13.426H25.1663C25.3607 13.426 25.5183 13.5813 25.5183 13.7728V14.3771C25.5183 14.5687 25.3607 14.724 25.1663 14.724H25.155C24.9606 14.724 24.803 14.5687 24.803 14.3771V13.7728C24.803 13.5813 24.9606 13.426 25.155 13.426ZM27.3349 13.426H27.3463C27.5407 13.426 27.6983 13.5813 27.6983 13.7728V14.3771C27.6983 14.5687 27.5407 14.724 27.3463 14.724H27.3349C27.1405 14.724 26.9829 14.5687 26.9829 14.3771V13.7728C26.9829 13.5813 27.1405 13.426 27.3349 13.426ZM29.4355 13.426H29.4468C29.6412 13.426 29.7988 13.5813 29.7988 13.7728V14.3771C29.7988 14.5687 29.6412 14.724 29.4468 14.724H29.4355C29.2411 14.724 29.0835 14.5687 29.0835 14.3771V13.7728C29.0835 13.5813 29.2411 13.426 29.4355 13.426ZM25.155 16.8836H25.1663C25.3607 16.8836 25.5183 17.0389 25.5183 17.2305V17.8348C25.5183 18.0263 25.3607 18.1816 25.1663 18.1816H25.155C24.9606 18.1816 24.803 18.0263 24.803 17.8348V17.2305C24.803 17.0389 24.9606 16.8836 25.155 16.8836ZM27.2782 16.8836H27.2896C27.484 16.8836 27.6416 17.0389 27.6416 17.2305V17.8348C27.6416 18.0263 27.484 18.1816 27.2896 18.1816H27.2782C27.0838 18.1816 26.9263 18.0263 26.9263 17.8348V17.2305C26.9263 17.0389 27.0838 16.8836 27.2782 16.8836ZM29.3902 16.8836H29.4015C29.5959 16.8836 29.7535 17.0389 29.7535 17.2305V17.8348C29.7535 18.0263 29.5959 18.1816 29.4015 18.1816H29.3902C29.1958 18.1816 29.0382 18.0263 29.0382 17.8348V17.2305C29.0382 17.0389 29.1958 16.8836 29.3902 16.8836ZM29.3902 20.263H29.4015C29.5959 20.263 29.7535 20.4183 29.7535 20.6098V21.2029C29.7535 21.3945 29.5959 21.5498 29.4015 21.5498H29.3902C29.1958 21.5498 29.0382 21.3945 29.0382 21.2029V20.6098C29.0382 20.4183 29.1958 20.263 29.3902 20.263ZM25.2117 20.3749H25.223C25.4174 20.3749 25.575 20.5302 25.575 20.7218V20.8448C25.575 21.0364 25.4174 21.1917 25.223 21.1917H25.2117C25.0173 21.1917 24.8597 21.0364 24.8597 20.8448V20.7218C24.8597 20.5302 25.0173 20.3749 25.2117 20.3749ZM29.3902 23.743H29.4015C29.5959 23.743 29.7535 23.8983 29.7535 24.0899V24.6941C29.7535 24.8857 29.5959 25.041 29.4015 25.041H29.3902C29.1958 25.041 29.0382 24.8857 29.0382 24.6941V24.0899C29.0382 23.8983 29.1958 23.743 29.3902 23.743ZM29.3902 27.1559H29.4015C29.5959 27.1559 29.7535 27.3112 29.7535 27.5028V28.0959C29.7535 28.2874 29.5959 28.4427 29.4015 28.4427H29.3902C29.1958 28.4427 29.0382 28.2874 29.0382 28.0959V27.5028C29.0382 27.3112 29.1958 27.1559 29.3902 27.1559ZM29.3902 30.6471H29.4015C29.5959 30.6471 29.7535 30.8024 29.7535 30.994V31.5983C29.7535 31.7899 29.5959 31.9452 29.4015 31.9452H29.3902C29.1958 31.9452 29.0382 31.7899 29.0382 31.5983V30.994C29.0382 30.8024 29.1958 30.6471 29.3902 30.6471ZM12.6083 18.2264H12.6196C12.814 18.2264 12.9716 18.3817 12.9716 18.5733V19.1664C12.9716 19.3579 12.814 19.5132 12.6196 19.5132H12.6083C12.4139 19.5132 12.2563 19.3579 12.2563 19.1664V18.5733C12.2563 18.3817 12.4139 18.2264 12.6083 18.2264ZM14.7202 18.2264H14.7315C14.9259 18.2264 15.0835 18.3817 15.0835 18.5733V19.1664C15.0835 19.3579 14.9259 19.5132 14.7315 19.5132H14.7202C14.5258 19.5132 14.3682 19.3579 14.3682 19.1664V18.5733C14.3682 18.3817 14.5258 18.2264 14.7202 18.2264ZM14.7202 21.6841H14.7315C14.9259 21.6841 15.0835 21.8394 15.0835 22.031V22.624C15.0835 22.8156 14.9259 22.9709 14.7315 22.9709H14.7202C14.5258 22.9709 14.3682 22.8156 14.3682 22.624V22.031C14.3682 21.8394 14.5258 21.6841 14.7202 21.6841ZM12.6083 21.6841H12.6196C12.814 21.6841 12.9716 21.8394 12.9716 22.031V22.624C12.9716 22.8156 12.814 22.9709 12.6196 22.9709H12.6083C12.4139 22.9709 12.2563 22.8156 12.2563 22.624V22.031C12.2563 21.8394 12.4139 21.6841 12.6083 21.6841ZM10.5417 21.6841H10.5531C10.7475 21.6841 10.905 21.8394 10.905 22.031V22.624C10.905 22.8156 10.7475 22.9709 10.5531 22.9709H10.5417C10.3473 22.9709 10.1897 22.8156 10.1897 22.624V22.031C10.1897 21.8394 10.3473 21.6841 10.5417 21.6841ZM10.5417 25.1417H10.5531C10.7475 25.1417 10.905 25.297 10.905 25.4886V26.0929C10.905 26.2845 10.7475 26.4398 10.5531 26.4398H10.5417C10.3473 26.4398 10.1897 26.2845 10.1897 26.0929V25.4886C10.1897 25.297 10.3473 25.1417 10.5417 25.1417ZM12.5969 25.1417H12.6083C12.8027 25.1417 12.9603 25.297 12.9603 25.4886V26.0817C12.9603 26.2733 12.8027 26.4286 12.6083 26.4286H12.5969C12.4025 26.4286 12.2449 26.2733 12.2449 26.0817V25.4886C12.2449 25.297 12.4025 25.1417 12.5969 25.1417ZM14.7202 25.1417H14.7315C14.9259 25.1417 15.0835 25.297 15.0835 25.4886V26.0817C15.0835 26.2733 14.9259 26.4286 14.7315 26.4286H14.7202C14.5258 26.4286 14.3682 26.2733 14.3682 26.0817V25.4886C14.3682 25.297 14.5258 25.1417 14.7202 25.1417ZM10.5417 28.5323H10.5531C10.7475 28.5323 10.905 28.6876 10.905 28.8791V29.4834C10.905 29.675 10.7475 29.8303 10.5531 29.8303H10.5417C10.3473 29.8303 10.1897 29.675 10.1897 29.4834V28.8791C10.1897 28.6876 10.3473 28.5323 10.5417 28.5323ZM12.6083 28.5323H12.6196C12.814 28.5323 12.9716 28.6876 12.9716 28.8791V29.4834C12.9716 29.675 12.814 29.8303 12.6196 29.8303H12.6083C12.4139 29.8303 12.2563 29.675 12.2563 29.4834V28.8791C12.2563 28.6876 12.4139 28.5323 12.6083 28.5323ZM14.7202 28.5323H14.7315C14.9259 28.5323 15.0835 28.6876 15.0835 28.8791V29.4834C15.0835 29.675 14.9259 29.8303 14.7315 29.8303H14.7202C14.5258 29.8303 14.3682 29.675 14.3682 29.4834V28.8791C14.3682 28.6876 14.5258 28.5323 14.7202 28.5323Z" stroke="#737373" stroke-width="0.4" stroke-miterlimit="10" stroke-linecap="round"/>
</svg>
