<svg width="40" height="40" viewBox="0 0 40 40" fill="none" xmlns="http://www.w3.org/2000/svg">
<path d="M4.96292 14.1943C4.85438 14.2147 4.78299 14.3193 4.80347 14.4279C4.82394 14.5364 4.92854 14.6078 5.03708 14.5873L4.96292 14.1943ZM26.14 11.9308L26.0265 12.0954L26.0502 12.1118L26.0776 12.1208L26.14 11.9308ZM25.39 13.4908L25.2503 13.347L25.2411 13.3573L25.39 13.4908ZM22 17.2708L22.1386 17.4149L22.144 17.4098L22.1489 17.4043L22 17.2708ZM20 18.1708L19.9841 17.9714L19.9679 17.9727L19.9522 17.9766L20 18.1708ZM15.94 19.1708L15.9775 19.3675L15.9878 19.365L15.94 19.1708ZM14.79 18.9808L14.6804 19.1486L14.6914 19.1548L14.79 18.9808ZM13.79 19.0508L13.9129 19.2089L13.9216 19.2014L13.79 19.0508ZM11.14 21.1108L11.1949 21.3031L11.2322 21.2925L11.2627 21.2687L11.14 21.1108ZM9.4 21.2008L9.43478 21.0038L9.42225 21.0016L9.40953 21.001L9.4 21.2008ZM5.00953 20.791C4.8992 20.7857 4.80549 20.8709 4.80023 20.9812C4.79496 21.0916 4.88013 21.1853 4.99047 21.1906L5.00953 20.791ZM10.0477 21.4104C10.0641 21.3011 9.98878 21.1993 9.87954 21.183C9.7703 21.1666 9.66849 21.2419 9.65215 21.3512L10.0477 21.4104ZM9.18994 25.7908L8.99214 25.7612L8.98724 25.794L8.99317 25.8266L9.18994 25.7908ZM10.5099 27.1108L10.5621 26.9177L10.5365 26.9108H10.5099V27.1108ZM9.65544 34.2642C9.62971 34.3716 9.69593 34.4796 9.80335 34.5053C9.91077 34.531 10.0187 34.4648 10.0444 34.3574L9.65544 34.2642ZM20.5787 18.1725C20.6459 18.0849 20.6294 17.9594 20.5417 17.8921C20.4541 17.8249 20.3286 17.8414 20.2613 17.9291L20.5787 18.1725ZM15.18 25.3708L15.0066 25.2712L15.0064 25.2716L15.18 25.3708ZM14.45 29.0108L14.6493 29.0278L14.6495 29.0256L14.45 29.0108ZM13.8007 34.2537C13.7913 34.3638 13.8729 34.4607 13.983 34.4701C14.093 34.4795 14.1899 34.3979 14.1993 34.2878L13.8007 34.2537ZM22.0904 19.7903C22.1564 19.7017 22.1381 19.5764 22.0495 19.5104C21.9609 19.4444 21.8356 19.4627 21.7696 19.5513L22.0904 19.7903ZM19.8396 22.1413C19.7736 22.2299 19.7919 22.3552 19.8805 22.4212C19.9691 22.4872 20.0944 22.4689 20.1604 22.3803L19.8396 22.1413ZM22.6187 21.2836C22.6313 21.1739 22.5526 21.0747 22.4429 21.0621C22.3331 21.0495 22.2339 21.1282 22.2213 21.238L22.6187 21.2836ZM21.9513 23.588C21.9387 23.6977 22.0175 23.7969 22.1272 23.8095C22.2369 23.8221 22.3361 23.7434 22.3487 23.6336L21.9513 23.588ZM25.39 17.5408L25.5854 17.5834L25.5872 17.5751L25.5883 17.5667L25.39 17.5408ZM25.7 19.6708L25.8996 19.6837L25.9034 19.6254L25.8751 19.5742L25.7 19.6708ZM16.0774 34.1892C16.0323 34.29 16.0775 34.4083 16.1784 34.4534C16.2792 34.4985 16.3975 34.4533 16.4426 34.3524L16.0774 34.1892ZM17.74 30.9608L17.5704 30.8549L17.5631 30.8666L17.5574 30.8792L17.74 30.9608ZM19.05 30.2708L19.0414 30.4708H19.05V30.2708ZM20.42 30.2708L20.42 30.4708L20.42 30.4708L20.42 30.2708ZM21.34 31.7108L21.5395 31.6915L21.5375 31.6792L21.34 31.7108ZM23.86 27.8408L23.6772 27.7597L23.671 27.7736L23.667 27.7883L23.86 27.8408ZM25.27 26.4508L25.3215 26.644L25.3497 26.6365L25.3746 26.6213L25.27 26.4508ZM27.64 26.1808L27.7295 26.0019L27.7169 25.9956L27.7035 25.9911L27.64 26.1808ZM31.64 28.1808L31.757 28.0186L31.7439 28.0091L31.7295 28.0019L31.64 28.1808ZM32.51 29.9508L32.31 29.9444V29.9508H32.51ZM32.31 34.3908C32.31 34.5012 32.3996 34.5908 32.51 34.5908C32.6205 34.5908 32.71 34.5012 32.71 34.3908H32.31ZM27.56 34.6708C27.56 34.7813 27.6496 34.8708 27.76 34.8708C27.8705 34.8708 27.96 34.7813 27.96 34.6708H27.56ZM27.76 29.7508H27.96V29.7344L27.9573 29.7181L27.76 29.7508ZM26.89 28.2708L26.7425 28.4058L26.7531 28.4175L26.7655 28.4273L26.89 28.2708ZM25.4176 26.3658C25.343 26.2843 25.2165 26.2787 25.135 26.3533C25.0535 26.4278 25.0479 26.5543 25.1225 26.6358L25.4176 26.3658ZM4.88403 7.20785C4.79404 7.2719 4.77301 7.39677 4.83706 7.48676C4.90111 7.57675 5.02598 7.59778 5.11597 7.53373L4.88403 7.20785ZM8.512 11.719C8.52757 11.8283 8.62884 11.9044 8.7382 11.8888C8.84755 11.8732 8.92357 11.7719 8.908 11.6626L8.512 11.719ZM11.57 11.5408L11.3705 11.5557L11.3947 11.8801L11.6733 11.712L11.57 11.5408ZM21.72 6.89079L21.8865 6.78004L21.8738 6.76102L21.8572 6.74534L21.72 6.89079ZM21.05 8.27079L21.034 8.07143L21.0266 8.07202L21.0192 8.07316L21.05 8.27079ZM18.66 8.27079L18.5871 8.45704L18.6075 8.46504L18.6292 8.46842L18.66 8.27079ZM19.22 6.38079L19.2721 6.57388L19.2808 6.57152L19.2893 6.56839L19.22 6.38079ZM26.0001 8.01078L25.8072 8.06386L25.8109 8.07726L25.8164 8.09003L26.0001 8.01078ZM26.6001 8.39078L26.6112 8.19109L26.6022 8.19059L26.5932 8.1909L26.6001 8.39078ZM34.3801 8.39078L34.3912 8.59074L34.4014 8.58965L34.3801 8.39078ZM32.8101 6.80078L32.8035 6.60074L32.7956 6.60131L32.8101 6.80078ZM32.2001 6.53079L32.0389 6.64942L32.0427 6.65421L32.2001 6.53079ZM27.6301 5.33078L27.548 5.14838L27.5236 5.15938L27.5029 5.17642L27.6301 5.33078ZM5 14.3908C5.03708 14.5873 5.03714 14.5873 5.03729 14.5873C5.03743 14.5872 5.03764 14.5872 5.03793 14.5872C5.03851 14.587 5.03939 14.5869 5.04055 14.5867C5.04288 14.5862 5.04638 14.5856 5.05103 14.5847C5.06032 14.5829 5.0742 14.5803 5.09254 14.5769C5.12922 14.57 5.18371 14.5598 5.25488 14.5466C5.39722 14.5201 5.60627 14.4814 5.87301 14.4326C6.40648 14.3349 7.17062 14.1967 8.09305 14.0346C9.93806 13.7104 12.4157 13.2907 14.9474 12.9085C17.4798 12.5262 20.0628 12.182 22.1197 12.0082C23.1486 11.9212 24.0411 11.8774 24.7278 11.8919C25.0714 11.8992 25.3586 11.921 25.5834 11.958C25.8144 11.996 25.9555 12.0465 26.0265 12.0954L26.14 11.9308L26.2535 11.7661C26.107 11.6651 25.8927 11.6035 25.6483 11.5633C25.3977 11.5221 25.0897 11.4995 24.7363 11.492C24.029 11.477 23.1204 11.5222 22.086 11.6096C20.016 11.7845 17.4227 12.1303 14.8876 12.513C12.3518 12.8958 9.87069 13.3161 8.02382 13.6407C7.10032 13.803 6.33524 13.9413 5.80098 14.0391C5.53384 14.088 5.32441 14.1268 5.18172 14.1533C5.11037 14.1666 5.05571 14.1768 5.01887 14.1837C5.00045 14.1872 4.98648 14.1898 4.97711 14.1916C4.97242 14.1925 4.96889 14.1931 4.96652 14.1936C4.96533 14.1938 4.96444 14.194 4.96384 14.1941C4.96354 14.1941 4.96331 14.1942 4.96316 14.1942C4.963 14.1942 4.96292 14.1943 5 14.3908ZM26.14 11.9308C26.0776 12.1208 26.0774 12.1207 26.0772 12.1207C26.0771 12.1206 26.0769 12.1206 26.0767 12.1205C26.0764 12.1204 26.0761 12.1203 26.0758 12.1202C26.0753 12.12 26.0747 12.1198 26.0742 12.1197C26.0732 12.1193 26.0723 12.119 26.0715 12.1187C26.0699 12.1181 26.0688 12.1176 26.0679 12.1172C26.0663 12.1165 26.0658 12.1162 26.0662 12.1164C26.0671 12.117 26.0697 12.1186 26.0725 12.1216C26.0734 12.1226 26.0901 12.1371 26.0866 12.1921C26.0827 12.2556 26.0511 12.3749 25.9256 12.5689C25.8011 12.7615 25.5918 13.016 25.2507 13.3473L25.39 13.4908L25.5293 13.6343C25.8832 13.2905 26.1151 13.0126 26.2615 12.7861C26.407 12.5611 26.4761 12.3748 26.4859 12.2169C26.4962 12.0507 26.4397 11.9284 26.3641 11.8478C26.3286 11.81 26.2921 11.7847 26.2634 11.7684C26.249 11.7603 26.2361 11.7541 26.2258 11.7497C26.2206 11.7475 26.216 11.7457 26.2121 11.7442C26.2101 11.7434 26.2083 11.7428 26.2067 11.7422C26.2059 11.7419 26.2051 11.7417 26.2044 11.7414C26.204 11.7413 26.2037 11.7412 26.2033 11.7411C26.2032 11.741 26.2029 11.7409 26.2028 11.7409C26.2026 11.7408 26.2024 11.7408 26.14 11.9308ZM25.39 13.4908L25.2411 13.3573L21.8511 17.1373L22 17.2708L22.1489 17.4043L25.5389 13.6243L25.39 13.4908ZM22 17.2708L21.8614 17.1266C21.3519 17.6166 20.6886 17.9151 19.9841 17.9714L20 18.1708L20.0159 18.3701C20.8126 18.3064 21.5626 17.9689 22.1386 17.4149L22 17.2708ZM20 18.1708L19.9522 17.9766L15.8922 18.9766L15.94 19.1708L15.9878 19.365L20.0478 18.365L20 18.1708ZM15.94 19.1708L15.9026 18.9743C15.5554 19.0405 15.1961 18.9811 14.8886 18.8068L14.79 18.9808L14.6914 19.1548C15.0813 19.3759 15.5371 19.4512 15.9774 19.3672L15.94 19.1708ZM14.79 18.9808L14.8994 18.8133C14.7113 18.6905 14.4883 18.6326 14.2643 18.6483L14.2782 18.8478L14.2922 19.0473C14.4292 19.0377 14.5656 19.0731 14.6806 19.1482L14.79 18.9808ZM14.2782 18.8478L14.2643 18.6483C14.0402 18.6639 13.8275 18.7524 13.6584 18.9002L13.79 19.0508L13.9216 19.2014C14.025 19.111 14.1552 19.0569 14.2922 19.0473L14.2782 18.8478ZM13.79 19.0508L13.6673 18.8929L11.0173 20.9529L11.14 21.1108L11.2627 21.2687L13.9127 19.2087L13.79 19.0508ZM11.14 21.1108L11.0851 20.9185C10.5486 21.0717 9.98424 21.1009 9.43478 21.0038L9.4 21.2008L9.36522 21.3977C9.97441 21.5053 10.6001 21.4729 11.1949 21.3031L11.14 21.1108ZM9.4 21.2008L9.40953 21.001L5.00953 20.791L5 20.9908L4.99047 21.1906L9.39046 21.4006L9.4 21.2008ZM9.84994 21.3808L9.65215 21.3512L8.99214 25.7612L9.18994 25.7908L9.38774 25.8204L10.0477 21.4104L9.84994 21.3808ZM9.18994 25.7908C8.99317 25.8266 8.99318 25.8266 8.9932 25.8267C8.9932 25.8268 8.99322 25.8269 8.99323 25.8269C8.99326 25.8271 8.99329 25.8272 8.99332 25.8274C8.99339 25.8278 8.99347 25.8282 8.99357 25.8288C8.99377 25.8298 8.99403 25.8312 8.99436 25.8329C8.99502 25.8362 8.99593 25.8408 8.99713 25.8465C8.99953 25.858 9.00307 25.8741 9.0079 25.8942C9.01754 25.9344 9.03239 25.9906 9.05373 26.0577C9.09618 26.1911 9.16544 26.3709 9.27276 26.5525C9.48703 26.9151 9.87159 27.3108 10.5099 27.3108V27.1108V26.9108C10.0683 26.9108 9.79286 26.6464 9.61713 26.349C9.52944 26.2007 9.47121 26.0505 9.4349 25.9364C9.41686 25.8797 9.40453 25.8328 9.39683 25.8008C9.39298 25.7848 9.39031 25.7725 9.38867 25.7647C9.38785 25.7607 9.38728 25.7579 9.38696 25.7563C9.38681 25.7555 9.38671 25.7549 9.38666 25.7547C9.38664 25.7546 9.38664 25.7546 9.38665 25.7546C9.38665 25.7547 9.38666 25.7547 9.38667 25.7548C9.38668 25.7548 9.38669 25.7549 9.38669 25.7549C9.3867 25.7549 9.38672 25.755 9.18994 25.7908ZM10.5099 27.1108C10.4578 27.3039 10.4572 27.3037 10.4565 27.3035C10.4563 27.3035 10.4557 27.3033 10.4553 27.3032C10.4544 27.3029 10.4536 27.3027 10.4528 27.3024C10.4512 27.302 10.4496 27.3015 10.4481 27.301C10.4451 27.3 10.4423 27.299 10.4397 27.298C10.4346 27.2959 10.4304 27.294 10.4271 27.2922C10.4203 27.2886 10.4178 27.2863 10.4186 27.287C10.4201 27.2883 10.4377 27.3041 10.4619 27.3518C10.5117 27.4499 10.582 27.6684 10.6026 28.1211C10.6438 29.0262 10.4843 30.8041 9.65544 34.2642L9.84994 34.3108L10.0444 34.3574C10.8756 30.8875 11.046 29.0654 11.0022 28.1029C10.9803 27.6219 10.9044 27.3398 10.8186 27.1707C10.775 27.0848 10.7275 27.0254 10.6808 26.9849C10.6575 26.9647 10.635 26.9497 10.6145 26.9388C10.6042 26.9334 10.5946 26.929 10.5858 26.9256C10.5814 26.9239 10.5772 26.9223 10.5732 26.921C10.5712 26.9204 10.5693 26.9198 10.5675 26.9192C10.5665 26.919 10.5656 26.9187 10.5647 26.9184C10.5643 26.9183 10.5636 26.9181 10.5634 26.9181C10.5627 26.9179 10.5621 26.9177 10.5099 27.1108ZM20.42 18.0508C20.2613 17.9291 20.2613 17.9291 20.2613 17.9291C20.2612 17.9292 20.2612 17.9292 20.2611 17.9293C20.261 17.9295 20.2608 17.9297 20.2605 17.9301C20.26 17.9307 20.2593 17.9317 20.2583 17.933C20.2563 17.9356 20.2533 17.9395 20.2494 17.9446C20.2415 17.9549 20.2299 17.9701 20.2146 17.9901C20.1841 18.03 20.1392 18.0887 20.0817 18.1641C19.9667 18.3149 19.8013 18.5325 19.5992 18.7997C19.1952 19.334 18.6447 20.0669 18.059 20.8608C16.891 22.4445 15.5734 24.2843 15.0066 25.2712L15.18 25.3708L15.3534 25.4704C15.9066 24.5073 17.209 22.6871 18.381 21.0983C18.9653 20.306 19.5148 19.5744 19.9183 19.041C20.12 18.7742 20.2851 18.5571 20.3998 18.4066C20.4572 18.3314 20.5019 18.2728 20.5323 18.2331C20.5475 18.2132 20.5591 18.1981 20.5669 18.1879C20.5708 18.1828 20.5738 18.179 20.5757 18.1764C20.5767 18.1751 20.5775 18.1741 20.5779 18.1735C20.5782 18.1732 20.5784 18.1729 20.5785 18.1728C20.5786 18.1727 20.5786 18.1726 20.5786 18.1726C20.5787 18.1726 20.5787 18.1725 20.42 18.0508ZM15.18 25.3708L15.0064 25.2716C14.9243 25.4152 14.867 25.4725 14.7915 25.5742C14.7124 25.6806 14.6469 25.7971 14.5884 26.0089C14.4783 26.4082 14.385 27.1829 14.2505 28.996L14.45 29.0108L14.6495 29.0256C14.785 27.1987 14.8767 26.4684 14.9741 26.1152C15.0194 25.9508 15.0632 25.8792 15.1126 25.8128C15.1655 25.7416 15.2557 25.6414 15.3536 25.47L15.18 25.3708ZM14.45 29.0108L14.2507 28.9937L13.8007 34.2537L14 34.2708L14.1993 34.2878L14.6493 29.0278L14.45 29.0108ZM21.93 19.6708L21.7696 19.5513L19.8396 22.1413L20 22.2608L20.1604 22.3803L22.0904 19.7903L21.93 19.6708ZM22.42 21.2608L22.2213 21.238L21.9513 23.588L22.15 23.6108L22.3487 23.6336L22.6187 21.2836L22.42 21.2608ZM26 12.8808L25.8017 12.8548L25.1917 17.5148L25.39 17.5408L25.5883 17.5667L26.1983 12.9067L26 12.8808ZM25.39 17.5408L25.1946 17.4981C25.0263 18.2696 25.1436 19.0759 25.5249 19.7674L25.7 19.6708L25.8751 19.5742C25.5407 18.9676 25.4377 18.2602 25.5854 17.5834L25.39 17.5408ZM25.7 19.6708L25.5004 19.6578L25.0604 26.4378L25.26 26.4508L25.4596 26.4637L25.8996 19.6837L25.7 19.6708ZM16.26 34.2708L16.4426 34.3524L17.9226 31.0424L17.74 30.9608L17.5574 30.8792L16.0774 34.1892L16.26 34.2708ZM17.74 30.9608L17.9096 31.0667C18.0287 30.8761 18.1962 30.7205 18.395 30.6158L18.3018 30.4388L18.2086 30.2619C17.9471 30.3996 17.7269 30.6042 17.5704 30.8549L17.74 30.9608ZM18.3018 30.4388L18.395 30.6158C18.5938 30.511 18.8169 30.461 19.0414 30.4706L19.05 30.2708L19.0586 30.071C18.7634 30.0583 18.47 30.1242 18.2086 30.2619L18.3018 30.4388ZM19.05 30.2708V30.4708H20.42V30.2708V30.0708H19.05V30.2708ZM20.42 30.2708C20.42 30.4708 20.4198 30.4708 20.4196 30.4708C20.4195 30.4708 20.4193 30.4708 20.4192 30.4708C20.419 30.4708 20.4187 30.4708 20.4185 30.4708C20.418 30.4708 20.4176 30.4708 20.4172 30.4708C20.4164 30.4708 20.4158 30.4707 20.4153 30.4707C20.4143 30.4707 20.4139 30.4707 20.4141 30.4707C20.4144 30.4707 20.4169 30.4709 20.4213 30.4715C20.4301 30.4728 20.4466 30.4759 20.4688 30.4832C20.5127 30.4977 20.5816 30.5294 20.6604 30.5999C20.8171 30.74 21.0322 31.0518 21.1425 31.7423L21.34 31.7108L21.5375 31.6792C21.4178 30.9297 21.1729 30.5216 20.9271 30.3017C20.8046 30.1922 20.6867 30.1339 20.594 30.1033C20.548 30.0882 20.5087 30.08 20.4789 30.0757C20.464 30.0735 20.4515 30.0723 20.4415 30.0716C20.4366 30.0713 20.4323 30.0711 20.4287 30.0709C20.4269 30.0709 20.4253 30.0708 20.4238 30.0708C20.4231 30.0708 20.4224 30.0708 20.4218 30.0708C20.4215 30.0708 20.4212 30.0708 20.4209 30.0708C20.4207 30.0708 20.4205 30.0708 20.4204 30.0708C20.4202 30.0708 20.42 30.0708 20.42 30.2708ZM21.34 31.7108C21.1409 31.73 21.1409 31.7301 21.1409 31.7301C21.1409 31.7301 21.1409 31.7302 21.141 31.7302C21.141 31.7303 21.141 31.7305 21.141 31.7307C21.141 31.7311 21.1411 31.7316 21.1412 31.7324C21.1413 31.7339 21.1415 31.7361 21.1418 31.739C21.1424 31.7448 21.1432 31.7533 21.1443 31.7643C21.1466 31.7865 21.1498 31.8188 21.1541 31.8597C21.1627 31.9415 21.1752 32.0579 21.1912 32.1962C21.223 32.4725 21.2687 32.8379 21.3236 33.1915C21.3781 33.5422 21.4433 33.8917 21.5156 34.1311C21.5493 34.2428 21.5935 34.3626 21.6568 34.4403C21.6877 34.4781 21.7568 34.5475 21.8657 34.5475C21.9789 34.5475 22.0492 34.4733 22.0819 34.4282L21.92 34.3108L21.7581 34.1934C21.7581 34.1934 21.7652 34.1833 21.7817 34.1723C21.7999 34.1601 21.8289 34.1475 21.8657 34.1475C21.9019 34.1475 21.9294 34.1597 21.9454 34.1697C21.9531 34.1746 21.9585 34.1792 21.9616 34.1821C21.9648 34.1851 21.9665 34.1871 21.9668 34.1875C21.9672 34.188 21.9647 34.1849 21.9598 34.1761C21.955 34.1676 21.9492 34.1559 21.9425 34.1403C21.929 34.1089 21.9142 34.0673 21.8985 34.0155C21.8349 33.8049 21.7732 33.4794 21.7189 33.1301C21.6651 32.7837 21.6201 32.424 21.5885 32.1504C21.5728 32.0137 21.5604 31.8988 21.552 31.8181C21.5477 31.7778 21.5445 31.746 21.5423 31.7244C21.5413 31.7136 21.5404 31.7053 21.5399 31.6998C21.5396 31.697 21.5394 31.6949 21.5393 31.6935C21.5392 31.6929 21.5392 31.6923 21.5391 31.692C21.5391 31.6918 21.5391 31.6917 21.5391 31.6916C21.5391 31.6916 21.5391 31.6916 21.5391 31.6916C21.5391 31.6915 21.5391 31.6915 21.34 31.7108ZM21.92 34.3108L22.0819 34.4282C22.1151 34.3825 22.1461 34.3157 22.1739 34.2499C22.204 34.1786 22.238 34.089 22.275 33.9851C22.3492 33.7772 22.4383 33.5044 22.5364 33.1908C22.7326 32.5631 22.9665 31.7651 23.191 30.9808C23.4156 30.1963 23.6311 29.4245 23.7904 28.8488C23.8701 28.561 23.9357 28.3221 23.9814 28.1552C24.0043 28.0718 24.0222 28.0063 24.0344 27.9617C24.0404 27.9394 24.0451 27.9223 24.0482 27.9108C24.0498 27.905 24.051 27.9006 24.0518 27.8977C24.0522 27.8962 24.0525 27.8951 24.0527 27.8944C24.0528 27.894 24.0529 27.8937 24.0529 27.8935C24.053 27.8934 24.053 27.8934 24.053 27.8933C24.053 27.8933 24.053 27.8933 23.86 27.8408C23.667 27.7883 23.667 27.7883 23.667 27.7884C23.667 27.7884 23.667 27.7885 23.6669 27.7886C23.6669 27.7888 23.6668 27.789 23.6667 27.7894C23.6665 27.7901 23.6662 27.7912 23.6658 27.7927C23.665 27.7956 23.6639 27.7999 23.6623 27.8057C23.6592 27.8171 23.6545 27.8342 23.6485 27.8564C23.6363 27.9009 23.6185 27.9662 23.5957 28.0495C23.55 28.2162 23.4845 28.4547 23.4049 28.7421C23.2458 29.3171 23.0306 30.0878 22.8065 30.8707C22.5822 31.654 22.3493 32.4484 22.1546 33.0714C22.0571 33.3832 21.9698 33.6502 21.8983 33.8507C21.8624 33.9512 21.8313 34.033 21.8053 34.0945C21.7923 34.1253 21.7813 34.1494 21.7723 34.1675C21.7625 34.1869 21.7578 34.1938 21.7581 34.1934L21.92 34.3108ZM23.86 27.8408C24.0428 27.9219 24.0428 27.9219 24.0428 27.922C24.0428 27.922 24.0428 27.922 24.0428 27.922C24.0428 27.9221 24.0427 27.9221 24.0427 27.9221C24.0427 27.9221 24.0428 27.922 24.0428 27.9219C24.043 27.9216 24.0432 27.9211 24.0436 27.9202C24.0443 27.9186 24.0455 27.916 24.0472 27.9123C24.0506 27.9051 24.0559 27.8938 24.0631 27.8792C24.0776 27.8499 24.0995 27.807 24.1287 27.7544C24.1872 27.6488 24.274 27.5059 24.3871 27.3564C24.6174 27.0517 24.9359 26.7469 25.3215 26.644L25.27 26.4508L25.2185 26.2575C24.7041 26.3947 24.3176 26.7849 24.068 27.1152C23.941 27.2832 23.8441 27.4427 23.7789 27.5603C23.7462 27.6193 23.7212 27.6681 23.7042 27.7026C23.6957 27.7199 23.6892 27.7336 23.6847 27.7433C23.6824 27.7481 23.6807 27.752 23.6794 27.7547C23.6788 27.7561 23.6783 27.7572 23.6779 27.758C23.6777 27.7585 23.6776 27.7588 23.6775 27.7591C23.6774 27.7592 23.6773 27.7593 23.6773 27.7595C23.6773 27.7595 23.6772 27.7596 23.6772 27.7596C23.6772 27.7597 23.6772 27.7597 23.86 27.8408ZM25.27 26.4508L25.3746 26.6213C25.701 26.4211 26.0673 26.2949 26.4477 26.2516L26.4251 26.0529L26.4024 25.8542C25.9639 25.9041 25.5417 26.0496 25.1655 26.2803L25.27 26.4508ZM26.4251 26.0529L26.4477 26.2516C26.8281 26.2082 27.2134 26.2488 27.5765 26.3704L27.64 26.1808L27.7035 25.9911C27.2851 25.851 26.8409 25.8042 26.4024 25.8542L26.4251 26.0529ZM27.64 26.1808L27.5506 26.3597L31.5506 28.3597L31.64 28.1808L31.7295 28.0019L27.7295 26.0019L27.64 26.1808ZM31.64 28.1808L31.523 28.343C31.7753 28.525 31.979 28.7663 32.1162 29.0455L32.2957 28.9573L32.4752 28.8691C32.3091 28.5311 32.0625 28.239 31.757 28.0186L31.64 28.1808ZM32.2957 28.9573L32.1162 29.0455C32.2535 29.3248 32.3201 29.6334 32.3101 29.9444L32.51 29.9508L32.7099 29.9572C32.7219 29.5807 32.6414 29.2071 32.4752 28.8691L32.2957 28.9573ZM32.51 29.9508H32.31V34.3908H32.51H32.71V29.9508H32.51ZM27.76 34.6708H27.96V29.7508H27.76H27.56V34.6708H27.76ZM27.76 29.7508L27.9573 29.7181C27.8526 29.0852 27.5166 28.5137 27.0145 28.1143L26.89 28.2708L26.7655 28.4273C27.19 28.765 27.4741 29.2483 27.5627 29.7835L27.76 29.7508ZM26.89 28.2708L27.0376 28.1358L25.4176 26.3658L25.27 26.5008L25.1225 26.6358L26.7425 28.4058L26.89 28.2708ZM5 7.37079C5.11597 7.53373 5.11585 7.53382 5.11574 7.5339C5.11572 7.53391 5.11562 7.53398 5.11557 7.53402C5.11548 7.53408 5.11543 7.53412 5.11542 7.53412C5.11541 7.53413 5.11555 7.53403 5.11586 7.53382C5.11648 7.53339 5.11775 7.53252 5.11964 7.53125C5.12343 7.5287 5.12973 7.52454 5.13839 7.51909C5.15573 7.50816 5.18244 7.49209 5.21736 7.47327C5.28744 7.43551 5.3893 7.38743 5.51405 7.34754C5.76418 7.26754 6.09648 7.22327 6.45045 7.34922C7.15118 7.59856 8.06357 8.57004 8.512 11.719L8.71 11.6908L8.908 11.6626C8.45643 8.49154 7.51382 7.30303 6.58455 6.97236C6.12352 6.80832 5.69707 6.86904 5.3922 6.96655C5.23945 7.0154 5.11475 7.07419 5.02764 7.12113C4.98397 7.14465 4.94942 7.16537 4.92516 7.18066C4.91303 7.18831 4.90343 7.19461 4.89654 7.19925C4.89309 7.20156 4.89031 7.20347 4.88822 7.20491C4.88717 7.20564 4.8863 7.20625 4.8856 7.20674C4.88525 7.20698 4.88494 7.2072 4.88468 7.20738C4.88455 7.20748 4.88439 7.20759 4.88432 7.20764C4.88417 7.20775 4.88403 7.20785 5 7.37079ZM14 12.8608C14.192 12.8049 14.192 12.8048 14.1919 12.8047C14.1919 12.8047 14.1919 12.8046 14.1919 12.8045C14.1918 12.8043 14.1917 12.8041 14.1917 12.8039C14.1915 12.8034 14.1913 12.8027 14.1911 12.802C14.1907 12.8004 14.19 12.7983 14.1892 12.7957C14.1876 12.7904 14.1853 12.7829 14.1822 12.7734C14.1762 12.7545 14.1673 12.7276 14.1554 12.6941C14.1317 12.6273 14.096 12.5338 14.0476 12.4254C13.9514 12.21 13.8017 11.9281 13.5902 11.6779C13.379 11.4281 13.0955 11.1976 12.7305 11.1096C12.3601 11.0204 11.9372 11.0856 11.4666 11.3696L11.57 11.5408L11.6733 11.712C12.0727 11.471 12.3885 11.4387 12.6369 11.4985C12.8907 11.5597 13.1059 11.7247 13.2847 11.9362C13.4632 12.1472 13.5947 12.3923 13.6823 12.5884C13.7258 12.6857 13.7576 12.7692 13.7784 12.8279C13.7888 12.8572 13.7964 12.8802 13.8013 12.8954C13.8038 12.9031 13.8055 12.9088 13.8066 12.9124C13.8072 12.9142 13.8076 12.9155 13.8078 12.9162C13.8079 12.9166 13.8079 12.9168 13.808 12.9169C13.808 12.9169 13.808 12.9169 13.808 12.9169C13.808 12.9169 13.808 12.9168 13.808 12.9168C13.8079 12.9168 13.8079 12.9167 14 12.8608ZM11.57 11.5408C11.7694 11.5259 11.7694 11.5258 11.7694 11.5257C11.7694 11.5257 11.7694 11.5255 11.7694 11.5254C11.7693 11.5252 11.7693 11.5249 11.7693 11.5246C11.7692 11.524 11.7692 11.5231 11.7691 11.5221C11.7689 11.5201 11.7687 11.5173 11.7684 11.5137C11.7677 11.5066 11.7668 11.4966 11.7654 11.4839C11.7627 11.4585 11.7584 11.4223 11.752 11.3774C11.739 11.2877 11.7172 11.1623 11.6816 11.0178C11.6111 10.7316 11.4832 10.3573 11.2521 10.0374C11.018 9.71351 10.6722 9.43868 10.1758 9.38044C9.68623 9.323 9.08516 9.48051 8.34438 9.94093L8.44995 10.1108L8.55553 10.2807C9.25474 9.84608 9.76367 9.73483 10.1291 9.77771C10.4877 9.81978 10.7419 10.0143 10.9278 10.2717C11.1167 10.533 11.2288 10.8518 11.2933 11.1135C11.3252 11.2429 11.3446 11.3551 11.3561 11.4345C11.3618 11.4741 11.3655 11.5053 11.3677 11.5262C11.3688 11.5367 11.3695 11.5445 11.37 11.5495C11.3702 11.552 11.3703 11.5538 11.3704 11.5548C11.3705 11.5553 11.3705 11.5557 11.3705 11.5558C11.3705 11.5559 11.3705 11.5559 11.3705 11.5559C11.3705 11.5559 11.3705 11.5558 11.3705 11.5558C11.3705 11.5557 11.3705 11.5557 11.57 11.5408ZM21.72 6.89079L21.5534 7.00154C21.62 7.10158 21.6592 7.21726 21.6673 7.33713L21.8669 7.32366L22.0664 7.31018C22.0536 7.12082 21.9916 6.93808 21.8865 6.78004L21.72 6.89079ZM21.8669 7.32366L21.6673 7.33713C21.6754 7.45701 21.6521 7.57691 21.5996 7.68499L21.7795 7.77234L21.9594 7.85969C22.0423 7.68896 22.0792 7.49954 22.0664 7.31018L21.8669 7.32366ZM21.7795 7.77234L21.5996 7.68499C21.5471 7.79307 21.4673 7.88558 21.3681 7.95336L21.481 8.11849L21.5938 8.28363C21.7505 8.17656 21.8765 8.03043 21.9594 7.85969L21.7795 7.77234ZM21.481 8.11849L21.3681 7.95336C21.2689 8.02113 21.1537 8.06183 21.034 8.07143L21.05 8.27079L21.0659 8.47015C21.2551 8.45499 21.4371 8.3907 21.5938 8.28363L21.481 8.11849ZM21.05 8.27079L21.0192 8.07316C20.2477 8.1931 19.4622 8.1931 18.6907 8.07316L18.66 8.27079L18.6292 8.46842C19.4415 8.59468 20.2684 8.59468 21.0807 8.46842L21.05 8.27079ZM18.66 8.27079L18.7328 8.08454C18.6553 8.0542 18.533 7.97005 18.4228 7.84389C18.3136 7.7189 18.2349 7.57389 18.2156 7.43359C18.1977 7.30335 18.2281 7.16207 18.3678 7.01762C18.5148 6.86559 18.7896 6.70415 19.2721 6.57388L19.22 6.38079L19.1678 6.1877C18.6503 6.32743 18.2976 6.51474 18.0802 6.73959C17.8555 6.97201 17.7847 7.23573 17.8193 7.48799C17.8526 7.73019 17.9801 7.94518 18.1215 8.10706C18.2619 8.26778 18.4346 8.39738 18.5871 8.45704L18.66 8.27079ZM19.22 6.38079L19.2893 6.56839C19.6772 6.42502 20.0974 6.39285 20.5027 6.47551L20.5426 6.27955L20.5826 6.08359C20.1044 5.98603 19.6084 6.02399 19.1506 6.19319L19.22 6.38079ZM20.5426 6.27955L20.5027 6.47551C20.9079 6.55818 21.2819 6.75238 21.5827 7.03624L21.72 6.89079L21.8572 6.74534C21.5023 6.41034 21.0608 6.18114 20.5826 6.08359L20.5426 6.27955ZM26.0001 8.01078L25.8164 8.09003C25.8826 8.24329 25.9934 8.37304 26.1344 8.46235L26.2414 8.29339L26.3484 8.12443C26.2754 8.07816 26.218 8.01093 26.1837 7.93154L26.0001 8.01078ZM26.2414 8.29339L26.1344 8.46235C26.2754 8.55166 26.4401 8.59638 26.6069 8.59067L26.6001 8.39078L26.5932 8.1909C26.5068 8.19386 26.4215 8.1707 26.3484 8.12443L26.2414 8.29339ZM26.6001 8.39078L26.5889 8.59048C29.1877 8.73501 31.7924 8.73501 34.3912 8.59048L34.3801 8.39078L34.369 8.19109C31.785 8.33481 29.1951 8.33481 26.6112 8.19109L26.6001 8.39078ZM34.3801 8.39078L34.4014 8.58965C34.6479 8.56323 34.8028 8.36972 34.8627 8.16271C34.9233 7.95285 34.9011 7.69823 34.7833 7.45872C34.5408 6.96601 33.9171 6.5643 32.8035 6.60089L32.8101 6.80078L32.8166 7.00068C33.8331 6.96727 34.2744 7.33056 34.4244 7.63535C34.5027 7.79459 34.5087 7.94684 34.4784 8.05167C34.4473 8.15935 34.3922 8.18834 34.3587 8.19192L34.3801 8.39078ZM32.8101 6.80078L32.7956 6.60131C32.7123 6.60735 32.6287 6.59282 32.5523 6.559L32.4714 6.74189L32.3904 6.92477C32.5268 6.98511 32.6758 7.01104 32.8245 7.00026L32.8101 6.80078ZM32.4714 6.74189L32.5523 6.559C32.4759 6.52518 32.409 6.47311 32.3574 6.40736L32.2001 6.53079L32.0427 6.65421C32.1347 6.77152 32.2541 6.86443 32.3904 6.92477L32.4714 6.74189ZM32.2001 6.53079L32.3611 6.41221C31.8243 5.68301 31.0537 5.15982 30.1779 4.92984L30.1271 5.12329L30.0763 5.31673C30.8637 5.52347 31.5564 5.99382 32.039 6.64936L32.2001 6.53079ZM30.1271 5.12329L30.1779 4.92984C29.3021 4.69987 28.3739 4.777 27.548 5.14838L27.6301 5.33078L27.7121 5.51319C28.4545 5.17932 29.2889 5.10998 30.0763 5.31673L30.1271 5.12329ZM27.6301 5.33078C27.5029 5.17642 27.5028 5.17645 27.5028 5.17649C27.5028 5.17651 27.5027 5.17656 27.5027 5.1766C27.5026 5.17668 27.5024 5.17679 27.5023 5.17692C27.502 5.17718 27.5015 5.17754 27.501 5.178C27.4999 5.1789 27.4983 5.1802 27.4963 5.18186C27.4923 5.1852 27.4866 5.19003 27.4792 5.1963C27.4644 5.20883 27.443 5.22711 27.4161 5.25063C27.3623 5.29766 27.2862 5.36571 27.196 5.4507C27.016 5.62032 26.7781 5.85907 26.5489 6.13396C26.3207 6.40767 26.0955 6.72397 25.9464 7.04877C25.7986 7.37084 25.7143 7.72639 25.8072 8.06386L26.0001 8.01078L26.1929 7.95771C26.1358 7.75018 26.1803 7.49823 26.31 7.21561C26.4384 6.93572 26.6394 6.65015 26.8562 6.39011C27.072 6.13125 27.2978 5.90437 27.4703 5.74181C27.5564 5.6607 27.6288 5.59602 27.6793 5.55183C27.7046 5.52975 27.7244 5.51281 27.7377 5.50152C27.7444 5.49587 27.7494 5.49164 27.7527 5.48889C27.7544 5.48752 27.7556 5.48651 27.7563 5.48589C27.7567 5.48557 27.757 5.48535 27.7571 5.48523C27.7572 5.48517 27.7572 5.48513 27.7573 5.48512C27.7573 5.48511 27.7573 5.48512 27.7573 5.48511C27.7572 5.48513 27.7572 5.48515 27.6301 5.33078Z" fill="#737373"/>
</svg>
