<svg width="40" height="40" viewBox="0 0 40 40" fill="none" xmlns="http://www.w3.org/2000/svg">
<path d="M20.0107 16.5606V18.5768H21.5806M12 36H28M17.8065 25.779V34.2534M20.0645 25.779V34.2534M22.1935 25.779V34.2534M14.7741 12.938L16.086 10.7817C16.1488 10.6808 16.2359 10.5974 16.3392 10.539C16.4425 10.4807 16.5588 10.4492 16.6774 10.4474H23.4193C23.5367 10.4479 23.6519 10.479 23.7537 10.5376C23.8555 10.5962 23.9403 10.6803 24 10.7817L25.2903 12.938M18.0968 8.7655L20.0108 6.27493M20.0108 6.27493L22.0968 8.7655M20.0108 6.27493L19.9893 4M14.4839 13.1213H25.5377C25.8406 13.1213 26.0861 13.3675 26.0861 13.6712V23.4933C26.0861 23.7969 25.8406 24.0431 25.5377 24.0431H14.4839C14.1811 24.0431 13.9355 23.7969 13.9355 23.4933V13.6712C13.9355 13.3675 14.1811 13.1213 14.4839 13.1213ZM23.4731 18.5768C23.4731 20.4942 21.9229 22.0485 20.0107 22.0485C18.0985 22.0485 16.5484 20.4942 16.5484 18.5768C16.5484 16.6595 18.0985 15.1051 20.0107 15.1051C21.9229 15.1051 23.4731 16.6595 23.4731 18.5768ZM15.6775 24.0323H24.4517V36H15.6775V24.0323ZM17.3656 8.7655H22.6129C22.6842 8.7655 22.7419 8.82342 22.7419 8.89488V10.2857C22.7419 10.3572 22.6842 10.4151 22.6129 10.4151H17.3656C17.2943 10.4151 17.2366 10.3572 17.2366 10.2857V8.89488C17.2366 8.82342 17.2943 8.7655 17.3656 8.7655Z" stroke="#737373" stroke-width="0.4" stroke-miterlimit="10" stroke-linecap="round"/>
</svg>
