<svg width="40" height="40" viewBox="0 0 40 40" fill="none" xmlns="http://www.w3.org/2000/svg">
<path d="M17.4347 16.9866C14.0909 22.7316 12.1868 29.2728 11.9001 36M20.523 16.7075C17.8833 22.7472 16.6501 29.3603 16.9256 36M18.4088 13.4979C18.4088 13.4979 13.9147 10.9861 11.1364 16.5331C10.536 17.6863 10.355 19.0295 10.6272 20.3125C10.6974 20.6551 10.8248 20.9819 11.0035 21.2777C11.0338 21.3257 11.075 21.365 11.1232 21.3923C11.1715 21.4195 11.2255 21.4337 11.2803 21.4337C11.3351 21.4337 11.389 21.4195 11.4373 21.3923C11.4856 21.365 11.5267 21.3257 11.557 21.2777C12.1769 20.1148 14.1361 16.6261 16.8038 16.0214M19.3608 11.2186C18.587 9.93541 17.3796 9.00744 15.9811 8.62128C14.5827 8.23512 13.097 8.4194 11.8226 9.13706C10.8488 9.61986 10.038 10.4027 9.4981 11.3815C9.30993 11.7419 8.95571 12.5443 9.23244 12.4164C10.6883 11.7407 12.2872 11.4774 13.8701 11.6529C15.4529 11.8284 16.9643 12.4364 18.2538 13.4165M22.2831 9.38127C20.5231 2.71787 15.9515 3.91565 14.6454 4.4157C14.6148 4.43067 14.589 4.45449 14.5708 4.48436C14.5527 4.51423 14.5431 4.5489 14.5431 4.58432C14.5431 4.61973 14.5527 4.65441 14.5708 4.68428C14.589 4.71415 14.6148 4.73797 14.6454 4.75294C16.9846 6.2584 18.7174 8.61255 19.5158 11.3698M20.8883 11.1605C21.1844 10.5352 21.5994 9.98033 22.1078 9.53028C22.6162 9.08022 23.207 8.74454 23.8438 8.54399C28.9799 7.06711 30.6735 10.7186 30.9945 11.5791C31.0004 11.598 31.0016 11.6181 30.9979 11.6376C30.9943 11.6571 30.986 11.6753 30.9738 11.6905C30.9616 11.7056 30.9459 11.7172 30.9282 11.7242C30.9105 11.7312 30.8914 11.7333 30.8727 11.7303C29.8322 11.5908 24.3862 10.9861 22.283 13.4165C22.283 13.4165 26.8104 10.7186 29.5002 16.1842C30.1248 17.3935 30.287 18.8075 29.954 20.1381C29.8255 20.5568 29.6309 20.9499 29.3784 21.301C29.3784 21.301 26.9432 16.7889 24.1316 15.8819C24.6297 16.6029 28.6589 22.8593 22.1613 25.9874C22.1275 26.0064 22.0892 26.0147 22.051 26.0114C22.0128 26.0081 21.9764 25.9933 21.946 25.9687C21.9156 25.9442 21.8926 25.9109 21.8798 25.873C21.8669 25.8351 21.8647 25.7941 21.8735 25.7549C22.1613 24.4059 22.9804 20.0799 21.4418 17.4518L20.512 16.6145M16.1507 19.2892C16.251 19.5748 16.4165 19.8301 16.6326 20.0329C16.8488 20.2356 17.109 20.3796 17.3904 20.4521M16.2946 22.5802C16.2946 22.5802 17.3019 23.8245 18.1763 23.7431M13.7155 25.3246C13.8815 25.3246 15.2541 25.3246 15.4755 25.72M12.7082 29.1273C13.4079 29.4727 14.155 29.7003 14.922 29.8018M9 36H18.9623M18.597 13.463C18.5489 13.2891 18.5228 13.1092 18.5195 12.9281C18.5195 12.4192 18.7119 11.9312 19.0544 11.5713C19.397 11.2115 19.8615 11.0093 20.3459 11.0093C20.8303 11.0093 21.2949 11.2115 21.6374 11.5713C21.9799 11.9312 22.1723 12.4192 22.1723 12.9281C22.1735 13.1457 22.1398 13.3619 22.0727 13.5677M20.4455 14.9516C20.5891 14.5248 20.8717 14.1651 21.2433 13.9361C21.615 13.7071 22.0517 13.6235 22.4763 13.7C22.901 13.7765 23.2862 14.0083 23.5639 14.3544C23.8416 14.7005 23.9939 15.1385 23.9939 15.5911C23.9939 16.0438 23.8416 16.4818 23.5639 16.8279C23.2862 17.174 22.901 17.4058 22.4763 17.4823C22.0517 17.5588 21.615 17.4752 21.2433 17.2462C20.8717 17.0172 20.5891 16.6575 20.4455 16.2307M20.5119 15.5911C20.5119 16.6509 19.6942 17.5099 18.6855 17.5099C17.6768 17.5099 16.8591 16.6509 16.8591 15.5911C16.8591 14.5314 17.6768 13.6724 18.6855 13.6724C19.6942 13.6724 20.5119 14.5314 20.5119 15.5911Z" stroke="#737373" stroke-width="0.4" stroke-miterlimit="10" stroke-linecap="round"/>
</svg>
