<svg width="40" height="40" viewBox="0 0 40 40" fill="none" xmlns="http://www.w3.org/2000/svg">
<mask id="path-1-inside-1_172_2981" fill="white">
<path d="M16.11 11.3252C16.1255 11.3925 16.1255 11.4625 16.11 11.5299C16.0821 11.6138 16.0322 11.6886 15.9655 11.7466C15.8894 11.823 15.7995 11.8843 15.7006 11.9272C15.5874 11.9789 15.4637 12.0036 15.3394 11.9995C15.2435 12.0127 15.1462 12.0127 15.0504 11.9995C14.9633 11.9878 14.8806 11.9547 14.8095 11.9032C14.7344 11.8608 14.6688 11.8034 14.6169 11.7346C14.5617 11.6716 14.5133 11.6029 14.4724 11.5299C14.425 11.4367 14.3847 11.3401 14.3519 11.2409C14.3455 11.1447 14.3455 11.0481 14.3519 10.9519C14.3257 10.8086 14.3257 10.6617 14.3519 10.5184C14.3906 10.394 14.4612 10.2819 14.5567 10.1933C14.6425 10.0974 14.7498 10.0231 14.8697 9.97651C14.9879 9.92723 15.115 9.90264 15.243 9.90426C15.3946 9.90131 15.5442 9.93872 15.6765 10.0126C15.7959 10.0656 15.8996 10.1486 15.9776 10.2535C16.0341 10.3309 16.0675 10.4227 16.0739 10.5184C16.0826 10.5373 16.087 10.5578 16.087 10.5786C16.087 10.5994 16.0826 10.6199 16.0739 10.6388C16.059 10.6566 16.0407 10.6711 16.02 10.6814C15.9992 10.6918 15.9766 10.6978 15.9535 10.699C15.9145 10.7128 15.872 10.7128 15.8331 10.699C15.801 10.6575 15.7728 10.6132 15.7488 10.5665C15.7007 10.4814 15.635 10.4075 15.5561 10.3498C15.4814 10.2897 15.3869 10.2597 15.2912 10.2655C15.2145 10.2646 15.1387 10.2815 15.0698 10.3149C15.0008 10.3484 14.9405 10.3974 14.8938 10.4582C14.7851 10.6175 14.7303 10.8073 14.7373 11C14.7334 11.1361 14.758 11.2714 14.8095 11.3974C14.846 11.4898 14.9088 11.5693 14.9901 11.6262C15.075 11.6845 15.1763 11.714 15.2791 11.7105C15.3873 11.7122 15.4931 11.6784 15.5802 11.6142C15.6713 11.5569 15.7362 11.466 15.7608 11.3613C15.7735 11.3141 15.7938 11.2694 15.821 11.2288C15.8641 11.215 15.9104 11.215 15.9535 11.2288C15.9928 11.2175 16.0346 11.2175 16.0739 11.2288C16.095 11.2568 16.1076 11.2902 16.11 11.3252Z"/>
<path d="M17.3743 9.9163C17.5595 9.91283 17.7424 9.95853 17.9041 10.0488C18.0546 10.1309 18.1764 10.2569 18.2533 10.41C18.3296 10.5845 18.3666 10.7736 18.3617 10.9639C18.3818 11.1037 18.3818 11.2456 18.3617 11.3854C18.3243 11.5097 18.2594 11.624 18.1719 11.7199C18.0843 11.8157 17.9764 11.8907 17.856 11.9393C17.7216 11.9908 17.5784 12.0154 17.4345 12.0115C17.2894 12.0164 17.1451 11.9875 17.0131 11.9272C16.8931 11.8806 16.7859 11.8063 16.7 11.7105C16.6152 11.6157 16.5497 11.5053 16.5073 11.3854C16.4889 11.2455 16.4889 11.1038 16.5073 10.9639C16.5046 10.8162 16.5291 10.6693 16.5796 10.5304C16.6143 10.4071 16.6808 10.295 16.7722 10.2053C16.8534 10.1096 16.9568 10.0352 17.0733 9.98855C17.1701 9.95161 17.2713 9.92733 17.3743 9.9163ZM17.9523 10.9639C17.9563 10.8318 17.9317 10.7003 17.8801 10.5786C17.8358 10.4774 17.7651 10.3901 17.6754 10.3257C17.5837 10.2726 17.4802 10.2436 17.3743 10.2414C17.2971 10.2406 17.2207 10.2563 17.1501 10.2875C17.0795 10.3186 17.0163 10.3645 16.9649 10.422C16.9127 10.4913 16.8721 10.5686 16.8445 10.6508C16.8309 10.7547 16.8309 10.86 16.8445 10.9639C16.8319 11.0639 16.8319 11.165 16.8445 11.265C16.8748 11.3498 16.9152 11.4306 16.9649 11.5058C17.0191 11.5576 17.0798 11.6021 17.1455 11.6382C17.2213 11.6508 17.2986 11.6508 17.3743 11.6382C17.4772 11.6417 17.5785 11.6122 17.6633 11.554C17.7555 11.4976 17.8273 11.4132 17.868 11.3131C17.928 11.2019 17.961 11.0782 17.9644 10.9519L17.9523 10.9639Z"/>
<path d="M19.9151 10.2535H19.1685V10.7713H19.8308C19.8777 10.7556 19.9284 10.7556 19.9753 10.7713C19.9907 10.7848 20.003 10.8015 20.0114 10.8202C20.0199 10.8389 20.0242 10.8591 20.0242 10.8796C20.0242 10.9001 20.0199 10.9204 20.0114 10.9391C20.003 10.9578 19.9907 10.9744 19.9753 10.988C19.9289 11.0067 19.8771 11.0067 19.8308 10.988H19.1685V11.6503C19.1712 11.7195 19.1499 11.7876 19.1083 11.843C19.07 11.8814 19.018 11.903 18.9638 11.9032C18.9059 11.9036 18.8499 11.8821 18.8073 11.843C18.7862 11.7805 18.7862 11.7128 18.8073 11.6503V10.1933C18.7939 10.146 18.7939 10.096 18.8073 10.0488C18.8145 10.0295 18.8258 10.012 18.8403 9.99751C18.8548 9.98298 18.8723 9.97171 18.8915 9.96446H19.9873C20.0339 9.9469 20.0853 9.9469 20.1318 9.96446C20.1403 9.98127 20.1447 9.99983 20.1447 10.0187C20.1447 10.0375 20.1403 10.056 20.1318 10.0728C20.1398 10.0919 20.1439 10.1124 20.1439 10.133C20.1439 10.1537 20.1398 10.1742 20.1318 10.1933C20.1055 10.2234 20.071 10.2451 20.0325 10.2558C19.994 10.2665 19.9531 10.2657 19.9151 10.2535Z"/>
<path d="M21.5769 10.2535H20.7701V10.7713H21.4445C21.4872 10.7556 21.5342 10.7556 21.5769 10.7713C21.5923 10.7848 21.6046 10.8015 21.6131 10.8202C21.6215 10.8389 21.6259 10.8591 21.6259 10.8796C21.6259 10.9001 21.6215 10.9204 21.6131 10.9391C21.6046 10.9578 21.5923 10.9744 21.5769 10.988C21.5565 10.9986 21.5337 11.0041 21.5107 11.0041C21.4877 11.0041 21.465 10.9986 21.4445 10.988H20.7701V11.6503C20.7728 11.7195 20.7516 11.7876 20.7099 11.843C20.6716 11.8812 20.6196 11.9027 20.5654 11.9027C20.5113 11.9027 20.4593 11.8812 20.4209 11.843C20.3955 11.7813 20.3955 11.712 20.4209 11.6503V10.1933C20.4131 10.1454 20.4131 10.0966 20.4209 10.0488C20.4394 10.0125 20.4689 9.98295 20.5052 9.96447H21.5769C21.6241 9.95041 21.6743 9.95041 21.7214 9.96447C21.7343 9.99944 21.7343 10.0379 21.7214 10.0728C21.7328 10.1122 21.7328 10.1539 21.7214 10.1933C21.6808 10.2281 21.6303 10.2492 21.5769 10.2535Z"/>
<path d="M23.4433 10.2535H22.5282V10.7592H23.3711C23.4182 10.7452 23.4684 10.7452 23.5156 10.7592C23.5285 10.7942 23.5285 10.8326 23.5156 10.8676C23.527 10.9069 23.527 10.9487 23.5156 10.988C23.4684 11.0021 23.4182 11.0021 23.3711 10.988H22.5282V11.566H23.4795C23.5258 11.5473 23.5776 11.5473 23.624 11.566C23.6324 11.5828 23.6368 11.6014 23.6368 11.6202C23.6368 11.639 23.6324 11.6576 23.624 11.6744C23.6326 11.6933 23.6371 11.7138 23.6371 11.7346C23.6371 11.7554 23.6326 11.7759 23.624 11.7948C23.5776 11.8135 23.5258 11.8135 23.4795 11.7948H22.3716C22.302 11.8009 22.2327 11.7793 22.179 11.7346C22.1354 11.6802 22.1139 11.6114 22.1188 11.5419V10.1933C22.1109 10.1454 22.1109 10.0966 22.1188 10.0488L22.203 9.96446H23.4193C23.4658 9.9469 23.5172 9.9469 23.5637 9.96446C23.5722 9.98127 23.5766 9.99983 23.5766 10.0187C23.5766 10.0375 23.5722 10.056 23.5637 10.0728C23.5717 10.0919 23.5758 10.1124 23.5758 10.133C23.5758 10.1537 23.5717 10.1742 23.5637 10.1933C23.5315 10.2263 23.4891 10.2475 23.4433 10.2535Z"/>
<path d="M25.3217 10.2535H24.4066V10.7592H25.2495C25.2964 10.7436 25.3471 10.7436 25.394 10.7592C25.4069 10.7942 25.4069 10.8326 25.394 10.8676C25.4019 10.8867 25.406 10.9071 25.406 10.9278C25.406 10.9485 25.4019 10.9689 25.394 10.988C25.3471 11.0036 25.2964 11.0036 25.2495 10.988H24.4066V11.566H25.3579C25.4042 11.5472 25.456 11.5472 25.5024 11.566C25.5108 11.5828 25.5152 11.6014 25.5152 11.6202C25.5152 11.639 25.5108 11.6576 25.5024 11.6744C25.511 11.6933 25.5155 11.7138 25.5155 11.7346C25.5155 11.7554 25.511 11.7759 25.5024 11.7948C25.456 11.8135 25.4042 11.8135 25.3579 11.7948H24.25C24.1804 11.8009 24.1111 11.7793 24.0574 11.7346C24.0343 11.6724 24.0343 11.6041 24.0574 11.5419V10.1933C24.0495 10.1454 24.0495 10.0966 24.0574 10.0488L24.1055 9.9163H25.3217C25.3683 9.89873 25.4197 9.89873 25.4662 9.9163C25.4747 9.9331 25.4791 9.95166 25.4791 9.97048C25.4791 9.9893 25.4747 10.0079 25.4662 10.0247C25.4742 10.0437 25.4783 10.0642 25.4783 10.0849C25.4783 10.1055 25.4742 10.126 25.4662 10.1451C25.452 10.173 25.4316 10.1973 25.4066 10.2161C25.3815 10.2349 25.3525 10.2477 25.3217 10.2535Z"/>
</mask>
<path d="M16.11 11.3252C16.1255 11.3925 16.1255 11.4625 16.11 11.5299C16.0821 11.6138 16.0322 11.6886 15.9655 11.7466C15.8894 11.823 15.7995 11.8843 15.7006 11.9272C15.5874 11.9789 15.4637 12.0036 15.3394 11.9995C15.2435 12.0127 15.1462 12.0127 15.0504 11.9995C14.9633 11.9878 14.8806 11.9547 14.8095 11.9032C14.7344 11.8608 14.6688 11.8034 14.6169 11.7346C14.5617 11.6716 14.5133 11.6029 14.4724 11.5299C14.425 11.4367 14.3847 11.3401 14.3519 11.2409C14.3455 11.1447 14.3455 11.0481 14.3519 10.9519C14.3257 10.8086 14.3257 10.6617 14.3519 10.5184C14.3906 10.394 14.4612 10.2819 14.5567 10.1933C14.6425 10.0974 14.7498 10.0231 14.8697 9.97651C14.9879 9.92723 15.115 9.90264 15.243 9.90426C15.3946 9.90131 15.5442 9.93872 15.6765 10.0126C15.7959 10.0656 15.8996 10.1486 15.9776 10.2535C16.0341 10.3309 16.0675 10.4227 16.0739 10.5184C16.0826 10.5373 16.087 10.5578 16.087 10.5786C16.087 10.5994 16.0826 10.6199 16.0739 10.6388C16.059 10.6566 16.0407 10.6711 16.02 10.6814C15.9992 10.6918 15.9766 10.6978 15.9535 10.699C15.9145 10.7128 15.872 10.7128 15.8331 10.699C15.801 10.6575 15.7728 10.6132 15.7488 10.5665C15.7007 10.4814 15.635 10.4075 15.5561 10.3498C15.4814 10.2897 15.3869 10.2597 15.2912 10.2655C15.2145 10.2646 15.1387 10.2815 15.0698 10.3149C15.0008 10.3484 14.9405 10.3974 14.8938 10.4582C14.7851 10.6175 14.7303 10.8073 14.7373 11C14.7334 11.1361 14.758 11.2714 14.8095 11.3974C14.846 11.4898 14.9088 11.5693 14.9901 11.6262C15.075 11.6845 15.1763 11.714 15.2791 11.7105C15.3873 11.7122 15.4931 11.6784 15.5802 11.6142C15.6713 11.5569 15.7362 11.466 15.7608 11.3613C15.7735 11.3141 15.7938 11.2694 15.821 11.2288C15.8641 11.215 15.9104 11.215 15.9535 11.2288C15.9928 11.2175 16.0346 11.2175 16.0739 11.2288C16.095 11.2568 16.1076 11.2902 16.11 11.3252Z" stroke="#737373" stroke-width="0.8" mask="url(#path-1-inside-1_172_2981)"/>
<path d="M17.3743 9.9163C17.5595 9.91283 17.7424 9.95853 17.9041 10.0488C18.0546 10.1309 18.1764 10.2569 18.2533 10.41C18.3296 10.5845 18.3666 10.7736 18.3617 10.9639C18.3818 11.1037 18.3818 11.2456 18.3617 11.3854C18.3243 11.5097 18.2594 11.624 18.1719 11.7199C18.0843 11.8157 17.9764 11.8907 17.856 11.9393C17.7216 11.9908 17.5784 12.0154 17.4345 12.0115C17.2894 12.0164 17.1451 11.9875 17.0131 11.9272C16.8931 11.8806 16.7859 11.8063 16.7 11.7105C16.6152 11.6157 16.5497 11.5053 16.5073 11.3854C16.4889 11.2455 16.4889 11.1038 16.5073 10.9639C16.5046 10.8162 16.5291 10.6693 16.5796 10.5304C16.6143 10.4071 16.6808 10.295 16.7722 10.2053C16.8534 10.1096 16.9568 10.0352 17.0733 9.98855C17.1701 9.95161 17.2713 9.92733 17.3743 9.9163ZM17.9523 10.9639C17.9563 10.8318 17.9317 10.7003 17.8801 10.5786C17.8358 10.4774 17.7651 10.3901 17.6754 10.3257C17.5837 10.2726 17.4802 10.2436 17.3743 10.2414C17.2971 10.2406 17.2207 10.2563 17.1501 10.2875C17.0795 10.3186 17.0163 10.3645 16.9649 10.422C16.9127 10.4913 16.8721 10.5686 16.8445 10.6508C16.8309 10.7547 16.8309 10.86 16.8445 10.9639C16.8319 11.0639 16.8319 11.165 16.8445 11.265C16.8748 11.3498 16.9152 11.4306 16.9649 11.5058C17.0191 11.5576 17.0798 11.6021 17.1455 11.6382C17.2213 11.6508 17.2986 11.6508 17.3743 11.6382C17.4772 11.6417 17.5785 11.6122 17.6633 11.554C17.7555 11.4976 17.8273 11.4132 17.868 11.3131C17.928 11.2019 17.961 11.0782 17.9644 10.9519L17.9523 10.9639Z" stroke="#737373" stroke-width="0.8" mask="url(#path-1-inside-1_172_2981)"/>
<path d="M19.9151 10.2535H19.1685V10.7713H19.8308C19.8777 10.7556 19.9284 10.7556 19.9753 10.7713C19.9907 10.7848 20.003 10.8015 20.0114 10.8202C20.0199 10.8389 20.0242 10.8591 20.0242 10.8796C20.0242 10.9001 20.0199 10.9204 20.0114 10.9391C20.003 10.9578 19.9907 10.9744 19.9753 10.988C19.9289 11.0067 19.8771 11.0067 19.8308 10.988H19.1685V11.6503C19.1712 11.7195 19.1499 11.7876 19.1083 11.843C19.07 11.8814 19.018 11.903 18.9638 11.9032C18.9059 11.9036 18.8499 11.8821 18.8073 11.843C18.7862 11.7805 18.7862 11.7128 18.8073 11.6503V10.1933C18.7939 10.146 18.7939 10.096 18.8073 10.0488C18.8145 10.0295 18.8258 10.012 18.8403 9.99751C18.8548 9.98298 18.8723 9.97171 18.8915 9.96446H19.9873C20.0339 9.9469 20.0853 9.9469 20.1318 9.96446C20.1403 9.98127 20.1447 9.99983 20.1447 10.0187C20.1447 10.0375 20.1403 10.056 20.1318 10.0728C20.1398 10.0919 20.1439 10.1124 20.1439 10.133C20.1439 10.1537 20.1398 10.1742 20.1318 10.1933C20.1055 10.2234 20.071 10.2451 20.0325 10.2558C19.994 10.2665 19.9531 10.2657 19.9151 10.2535Z" stroke="#737373" stroke-width="0.8" mask="url(#path-1-inside-1_172_2981)"/>
<path d="M21.5769 10.2535H20.7701V10.7713H21.4445C21.4872 10.7556 21.5342 10.7556 21.5769 10.7713C21.5923 10.7848 21.6046 10.8015 21.6131 10.8202C21.6215 10.8389 21.6259 10.8591 21.6259 10.8796C21.6259 10.9001 21.6215 10.9204 21.6131 10.9391C21.6046 10.9578 21.5923 10.9744 21.5769 10.988C21.5565 10.9986 21.5337 11.0041 21.5107 11.0041C21.4877 11.0041 21.465 10.9986 21.4445 10.988H20.7701V11.6503C20.7728 11.7195 20.7516 11.7876 20.7099 11.843C20.6716 11.8812 20.6196 11.9027 20.5654 11.9027C20.5113 11.9027 20.4593 11.8812 20.4209 11.843C20.3955 11.7813 20.3955 11.712 20.4209 11.6503V10.1933C20.4131 10.1454 20.4131 10.0966 20.4209 10.0488C20.4394 10.0125 20.4689 9.98295 20.5052 9.96447H21.5769C21.6241 9.95041 21.6743 9.95041 21.7214 9.96447C21.7343 9.99944 21.7343 10.0379 21.7214 10.0728C21.7328 10.1122 21.7328 10.1539 21.7214 10.1933C21.6808 10.2281 21.6303 10.2492 21.5769 10.2535Z" stroke="#737373" stroke-width="0.8" mask="url(#path-1-inside-1_172_2981)"/>
<path d="M23.4433 10.2535H22.5282V10.7592H23.3711C23.4182 10.7452 23.4684 10.7452 23.5156 10.7592C23.5285 10.7942 23.5285 10.8326 23.5156 10.8676C23.527 10.9069 23.527 10.9487 23.5156 10.988C23.4684 11.0021 23.4182 11.0021 23.3711 10.988H22.5282V11.566H23.4795C23.5258 11.5473 23.5776 11.5473 23.624 11.566C23.6324 11.5828 23.6368 11.6014 23.6368 11.6202C23.6368 11.639 23.6324 11.6576 23.624 11.6744C23.6326 11.6933 23.6371 11.7138 23.6371 11.7346C23.6371 11.7554 23.6326 11.7759 23.624 11.7948C23.5776 11.8135 23.5258 11.8135 23.4795 11.7948H22.3716C22.302 11.8009 22.2327 11.7793 22.179 11.7346C22.1354 11.6802 22.1139 11.6114 22.1188 11.5419V10.1933C22.1109 10.1454 22.1109 10.0966 22.1188 10.0488L22.203 9.96446H23.4193C23.4658 9.9469 23.5172 9.9469 23.5637 9.96446C23.5722 9.98127 23.5766 9.99983 23.5766 10.0187C23.5766 10.0375 23.5722 10.056 23.5637 10.0728C23.5717 10.0919 23.5758 10.1124 23.5758 10.133C23.5758 10.1537 23.5717 10.1742 23.5637 10.1933C23.5315 10.2263 23.4891 10.2475 23.4433 10.2535Z" stroke="#737373" stroke-width="0.8" mask="url(#path-1-inside-1_172_2981)"/>
<path d="M25.3217 10.2535H24.4066V10.7592H25.2495C25.2964 10.7436 25.3471 10.7436 25.394 10.7592C25.4069 10.7942 25.4069 10.8326 25.394 10.8676C25.4019 10.8867 25.406 10.9071 25.406 10.9278C25.406 10.9485 25.4019 10.9689 25.394 10.988C25.3471 11.0036 25.2964 11.0036 25.2495 10.988H24.4066V11.566H25.3579C25.4042 11.5472 25.456 11.5472 25.5024 11.566C25.5108 11.5828 25.5152 11.6014 25.5152 11.6202C25.5152 11.639 25.5108 11.6576 25.5024 11.6744C25.511 11.6933 25.5155 11.7138 25.5155 11.7346C25.5155 11.7554 25.511 11.7759 25.5024 11.7948C25.456 11.8135 25.4042 11.8135 25.3579 11.7948H24.25C24.1804 11.8009 24.1111 11.7793 24.0574 11.7346C24.0343 11.6724 24.0343 11.6041 24.0574 11.5419V10.1933C24.0495 10.1454 24.0495 10.0966 24.0574 10.0488L24.1055 9.9163H25.3217C25.3683 9.89873 25.4197 9.89873 25.4662 9.9163C25.4747 9.9331 25.4791 9.95166 25.4791 9.97048C25.4791 9.9893 25.4747 10.0079 25.4662 10.0247C25.4742 10.0437 25.4783 10.0642 25.4783 10.0849C25.4783 10.1055 25.4742 10.126 25.4662 10.1451C25.452 10.173 25.4316 10.1973 25.4066 10.2161C25.3815 10.2349 25.3525 10.2477 25.3217 10.2535Z" stroke="#737373" stroke-width="0.8" mask="url(#path-1-inside-1_172_2981)"/>
<path d="M34.4056 18.6574V31H7.31204V19.2956M16.4154 18.9584V31H10.3464V19.2956M31.4193 18.9584V26.7854C31.4193 26.8914 31.3985 26.9963 31.3579 27.0942C31.3174 27.1921 31.2579 27.281 31.183 27.3559C31.1081 27.4308 31.0192 27.4903 30.9213 27.5308C30.8234 27.5714 30.7185 27.5922 30.6125 27.5922H19.1249C19.0189 27.5922 18.914 27.5714 18.8161 27.5308C18.7182 27.4903 18.6293 27.4308 18.5544 27.3559C18.4795 27.281 18.42 27.1921 18.3795 27.0942C18.3389 26.9963 18.3181 26.8914 18.3181 26.7854V18.9584M10.3464 27.5922H16.4154M18.306 25.5451H31.4193M7.51665 12.8654L5.91512 16.803C5.89792 16.8516 5.89254 16.9036 5.8994 16.9546C5.90626 17.0057 5.92517 17.0545 5.95458 17.0968C5.98399 17.1392 6.02304 17.1739 6.06852 17.1982C6.11401 17.2225 6.16461 17.2356 6.21616 17.2365L35.5134 17.0197C35.5649 17.0197 35.6156 17.007 35.6611 16.9827C35.7065 16.9583 35.7453 16.9232 35.7739 16.8803C35.8024 16.8374 35.82 16.7881 35.825 16.7368C35.83 16.6855 35.8222 16.6338 35.8024 16.5862L34.2369 12.8292M5.90307 17.0077C5.90307 17.0077 5.54182 19.1511 7.20356 19.1511C7.20356 19.1511 9.07001 19.1511 8.99776 17.4773M9.05807 17.2364C8.98894 17.4451 8.96918 17.667 9.00032 17.8846C9.03146 18.1022 9.11267 18.3096 9.23755 18.4905C9.36243 18.6714 9.52758 18.8209 9.72001 18.9271C9.91244 19.0334 10.1269 19.0936 10.3465 19.1029C10.5661 19.1065 10.7842 19.0649 10.987 18.9807C11.1899 18.8964 11.3732 18.7714 11.5257 18.6133C11.6782 18.4551 11.7965 18.2674 11.8733 18.0616C11.9501 17.8558 11.9837 17.6364 11.9721 17.4171M12.0443 17.2846C12.0443 17.2846 11.6469 18.9584 13.1521 19.0547C13.1521 19.0547 15.0185 19.0547 14.9463 17.3689M14.7778 18.1155C14.8672 18.3956 15.0497 18.6367 15.295 18.7988C15.5403 18.9609 15.8337 19.0342 16.1264 19.0066C16.1264 19.0066 17.9929 19.0066 17.9206 17.3207M17.7882 18.1637C17.8944 18.4182 18.0788 18.6324 18.3147 18.7752C18.5507 18.9181 18.8259 18.9822 19.1007 18.9584C19.1007 18.9584 20.9671 18.9584 20.8949 17.2726M20.7745 18.1155C20.8685 18.3754 21.0491 18.595 21.2859 18.7375C21.5227 18.8801 21.8013 18.9368 22.075 18.8982C22.075 18.8982 23.9414 18.8982 23.8691 17.2244M23.7487 18.0673C23.8427 18.3272 24.0233 18.5469 24.2601 18.6894C24.4969 18.8319 24.7755 18.8886 25.0492 18.85C25.0492 18.85 26.8916 18.8139 26.8916 17.1522M26.7351 18.0673C26.8495 18.3065 27.0341 18.505 27.2644 18.6363C27.4947 18.7675 27.7596 18.8253 28.0236 18.8019C28.0236 18.8019 29.89 18.8019 29.8178 17.1281M29.6973 17.9589C29.7998 18.2137 29.9817 18.4286 30.2159 18.5717C30.4502 18.7149 30.7244 18.7787 30.9978 18.7537C30.9978 18.7537 32.8643 18.7537 32.792 17.0799M32.6957 17.983C32.811 18.2179 32.9946 18.4125 33.2223 18.5414C33.45 18.6703 33.7113 18.7275 33.9721 18.7055C33.9721 18.7055 35.8385 18.5369 35.7663 16.8872M5 31H35.7663M8.21516 9H33.5025C34.0013 9 34.4056 9.40434 34.4056 9.90312V12.1067C34.4056 12.6055 34.0013 13.0099 33.5025 13.0099H8.21516C7.71638 13.0099 7.31204 12.6055 7.31204 12.1067V9.90312C7.31204 9.40434 7.71638 9 8.21516 9Z" stroke="#737373" stroke-width="0.4" stroke-miterlimit="10" stroke-linecap="round"/>
</svg>
