<svg width="40" height="40" viewBox="0 0 40 40" fill="none" xmlns="http://www.w3.org/2000/svg">
<path d="M10.0253 9.95108V19.9488M12.3929 9.95108V19.9488M27.333 9.95108V19.9488M29.7007 9.95108V19.9488M25.4916 20.0582H31.4326C31.6681 20.0582 31.8939 20.1515 32.0604 20.3177C32.2269 20.4838 32.3205 20.7092 32.3205 20.9442V23.635C32.3205 23.7509 32.2975 23.8655 32.2527 23.9724C32.208 24.0793 32.1424 24.1763 32.0598 24.2577C31.9772 24.3391 31.8792 24.4033 31.7716 24.4466C31.6639 24.49 31.5487 24.5115 31.4326 24.5101H25.2176M14.4975 24.5101H8.47978C8.36174 24.513 8.24427 24.4927 8.13411 24.4502C8.02394 24.4078 7.92323 24.3442 7.83772 24.2629C7.75221 24.1817 7.68359 24.0844 7.63577 23.9766C7.58795 23.8689 7.56188 23.7528 7.55903 23.635V20.9442C7.56479 20.7053 7.66468 20.4783 7.83704 20.3124C8.00941 20.1466 8.24035 20.0552 8.47978 20.0582H14.5962M14.7058 21.9833H25.2176M14.7058 23.8757H25.2176M14.5961 20.0472H25.2175V25.0789C25.2175 25.2616 25.1448 25.4369 25.0153 25.5662C24.8858 25.6954 24.7101 25.768 24.527 25.768H15.2866C15.1035 25.768 14.9278 25.6954 14.7983 25.5662C14.6688 25.4369 14.5961 25.2616 14.5961 25.0789V20.0472ZM11.2639 29.148C11.2639 30.0602 10.5229 30.7997 9.60877 30.7997C8.69466 30.7997 7.95362 30.0602 7.95362 29.148C7.95362 28.2358 8.69466 27.4963 9.60877 27.4963C10.5229 27.4963 11.2639 28.2358 11.2639 29.148ZM9.17036 30.7997H10.2665C10.8479 30.7997 11.4055 31.0301 11.8166 31.4404C12.2278 31.8507 12.4587 32.4071 12.4587 32.9873V34.4203C12.4587 34.5624 12.4021 34.6988 12.3014 34.7993C12.2007 34.8998 12.0641 34.9563 11.9216 34.9563H7.53713C7.39468 34.9563 7.25807 34.8998 7.15734 34.7993C7.05662 34.6988 7.00003 34.5624 7.00003 34.4203V32.9983C6.9971 32.4199 7.22378 31.864 7.63048 31.452C8.03719 31.04 8.59084 30.8054 9.17036 30.7997ZM18.1037 29.148C18.1037 30.0602 17.3627 30.7997 16.4486 30.7997C15.5345 30.7997 14.7934 30.0602 14.7934 29.148C14.7934 28.2358 15.5345 27.4963 16.4486 27.4963C17.3627 27.4963 18.1037 28.2358 18.1037 29.148ZM16.0101 30.7997H17.1063C17.6877 30.7997 18.2453 31.0301 18.6564 31.4404C19.0675 31.8507 19.2985 32.4071 19.2985 32.9873V34.1796C19.2985 34.2816 19.2784 34.3826 19.2393 34.4768C19.2002 34.571 19.1428 34.6567 19.0706 34.7288C18.9983 34.8009 18.9125 34.8581 18.8181 34.8971C18.7237 34.9362 18.6225 34.9562 18.5203 34.9562H14.5852C14.3788 34.9562 14.1808 34.8744 14.0349 34.7288C13.8889 34.5831 13.8069 34.3856 13.8069 34.1796V32.9983C13.8055 32.7091 13.8615 32.4226 13.9717 32.1552C14.0819 31.8878 14.2441 31.6448 14.449 31.4404C14.6539 31.2359 14.8973 31.074 15.1653 30.9641C15.4332 30.8541 15.7204 30.7982 16.0101 30.7997ZM24.7901 29.148C24.7901 30.0602 24.049 30.7997 23.1349 30.7997C22.2208 30.7997 21.4798 30.0602 21.4798 29.148C21.4798 28.2358 22.2208 27.4963 23.1349 27.4963C24.049 27.4963 24.7901 28.2358 24.7901 29.148ZM22.7074 30.7997H23.8036C24.385 30.7997 24.9426 31.0301 25.3537 31.4404C25.7649 31.8507 25.9958 32.4071 25.9958 32.9873V34.2671C25.9958 34.4615 25.9184 34.6479 25.7807 34.7853C25.643 34.9228 25.4562 35 25.2614 35H21.2277C21.0348 34.9971 20.8508 34.9186 20.7154 34.7815C20.5801 34.6444 20.5042 34.4596 20.5042 34.2671V32.9983C20.5028 32.7091 20.5588 32.4226 20.669 32.1552C20.7792 31.8878 20.9414 31.6448 21.1463 31.4404C21.3512 31.2359 21.5946 31.074 21.8626 30.9641C22.1306 30.8541 22.4177 30.7982 22.7074 30.7997ZM31.7943 29.148C31.7943 30.0602 31.0533 30.7997 30.1392 30.7997C29.2251 30.7997 28.484 30.0602 28.484 29.148C28.484 28.2358 29.2251 27.4963 30.1392 27.4963C31.0533 27.4963 31.7943 28.2358 31.7943 29.148ZM29.7116 30.7997H30.8077C31.3892 30.7997 31.9468 31.0301 32.3579 31.4404C32.769 31.8507 33 32.4071 33 32.9873V34.4312C33 34.5705 32.9446 34.704 32.8459 34.8025C32.7472 34.9009 32.6134 34.9563 32.4739 34.9563H28.0894C27.9498 34.9563 27.816 34.9009 27.7173 34.8025C27.6187 34.704 27.5632 34.5705 27.5632 34.4312V32.9983C27.5602 32.4237 27.7839 31.871 28.1859 31.4596C28.5879 31.0482 29.1359 30.8111 29.7116 30.7997ZM9.38948 9.94014H30.4241C30.5695 9.94014 30.7089 9.88252 30.8117 9.77995C30.9144 9.67738 30.9722 9.53827 30.9722 9.39322V8.67129C30.9734 8.58226 30.9519 8.49439 30.9097 8.41594C30.8675 8.33749 30.806 8.27103 30.731 8.22281C27.5566 6.02701 23.7623 4.90031 19.9013 5.00693C17.0952 5.00693 12.3929 5.46634 9.10449 8.12437C9.02762 8.17758 8.96396 8.24762 8.91836 8.32914C8.87277 8.41066 8.84645 8.5015 8.84142 8.59472V9.39322C8.84142 9.53827 8.89916 9.67738 9.00194 9.77995C9.10472 9.88252 9.24412 9.94014 9.38948 9.94014Z" stroke="#737373" stroke-width="0.4" stroke-miterlimit="10"/>
</svg>
