<svg width="40" height="40" viewBox="0 0 40 40" fill="none" xmlns="http://www.w3.org/2000/svg">
<path d="M19.9626 32.6562V25.9505M11.9683 28.7066V26.1132C11.9683 26.0183 12.0055 25.9272 12.0716 25.86C12.1377 25.7929 12.2275 25.7551 12.321 25.7551H14.3409C14.4345 25.7551 14.5242 25.7929 14.5903 25.86C14.6565 25.9272 14.6936 26.0183 14.6936 26.1132V29.5421C14.6936 29.7374 14.5333 29.9001 13.9028 29.9001H12.4813M5 33.3724C5 33.3724 5.28856 30.6054 7.13751 30.8333C7.13751 30.8333 7.13751 29.0755 9.6384 29.325C9.6384 29.325 10.472 27.7734 11.5622 28.457C11.7781 28.5644 11.9667 28.721 12.1131 28.9145C12.2596 29.1081 12.3601 29.3335 12.4066 29.5729C12.4532 29.8124 12.4446 30.0596 12.3815 30.2952C12.3185 30.5308 12.2027 30.7483 12.0431 30.931C12.4414 31.0205 12.8016 31.2356 13.0722 31.5454C13.3429 31.8553 13.5101 32.2441 13.55 32.6562M9.51025 20.7963V13.2659C9.51305 13.0922 9.58297 12.9267 9.70493 12.8049C9.82689 12.6831 9.99112 12.6148 10.1622 12.6149H11.947C12.1171 12.6149 12.2802 12.6835 12.4004 12.8055C12.5207 12.9276 12.5883 13.0932 12.5883 13.2659V16.1414M24.6651 12.0506C24.6651 12.0506 29.1539 8.49158 30.0089 13.3527C30.086 13.7439 30.2543 14.1106 30.4998 14.4221C30.7452 14.7336 31.0607 14.9809 31.4197 15.1431C32.135 15.448 32.7469 15.9587 33.1799 16.6123C33.6129 17.2659 33.8481 18.0339 33.8564 18.8215C33.7835 19.5742 33.5352 20.2984 33.1319 20.9343C32.7286 21.5702 32.182 22.0994 31.5372 22.4782M8.6124 26.3628V29.3251M31.5373 26.6992V32.6562M22.0039 7.84052L32.6915 24.2686L33.7602 25.8637C33.8493 25.9869 33.9118 26.1279 33.9435 26.2774C33.9752 26.4269 33.9754 26.5815 33.9441 26.7311C33.9128 26.8807 33.8508 27.0219 33.762 27.1454C33.6732 27.2689 33.5597 27.372 33.4289 27.4479L33.3113 27.5238C33.0781 27.6665 32.8 27.7134 32.5338 27.6549C32.2676 27.5964 32.0335 27.437 31.8792 27.2091L20.3473 9.6743C20.3056 9.60938 20.2485 9.55605 20.1813 9.51913C20.1142 9.48222 20.039 9.46289 19.9626 9.46289C19.8862 9.46289 19.811 9.48222 19.7438 9.51913C19.6767 9.55605 19.6196 9.60938 19.5778 9.6743L7.88566 27.4696C7.81359 27.5788 7.72096 27.6725 7.61311 27.7454C7.50525 27.8182 7.3843 27.8686 7.25718 27.8938C7.13006 27.919 6.99929 27.9185 6.87238 27.8922C6.74547 27.866 6.62492 27.8145 6.51765 27.7408L6.25046 27.5672C6.14285 27.494 6.05053 27.4 5.97882 27.2905C5.90711 27.181 5.85741 27.0582 5.83259 26.9291C5.80776 26.8001 5.80829 26.6673 5.83415 26.5385C5.86001 26.4096 5.91069 26.2872 5.98327 26.1783L17.9533 7.73202L19.3962 5.334C19.446 5.23356 19.5224 5.14916 19.6168 5.09019C19.7111 5.03122 19.8197 5 19.9305 5C20.0413 5 20.1499 5.03122 20.2443 5.09019C20.3386 5.14916 20.415 5.23356 20.4649 5.334L22.0039 7.84052ZM21.7153 17.7907C21.7153 18.7735 20.9306 19.5702 19.9626 19.5702C18.9945 19.5702 18.2098 18.7735 18.2098 17.7907C18.2098 16.8079 18.9945 16.0112 19.9626 16.0112C20.9306 16.0112 21.7153 16.8079 21.7153 17.7907ZM17.387 25.7551H22.4635C22.6081 25.7551 22.7467 25.8134 22.849 25.9172C22.9512 26.021 23.0086 26.1618 23.0086 26.3085V32.6562H16.8419V26.3085C16.8419 26.2359 16.856 26.1639 16.8834 26.0968C16.9108 26.0296 16.9509 25.9686 17.0015 25.9172C17.0522 25.8658 17.1122 25.8251 17.1784 25.7973C17.2445 25.7695 17.3154 25.7551 17.387 25.7551ZM25.9156 25.7551H27.4225C27.7413 25.7551 27.9996 26.0175 27.9996 26.3411V29.3359C27.9996 29.6595 27.7413 29.9218 27.4225 29.9218H25.9156C25.5968 29.9218 25.3384 29.6595 25.3384 29.3359V26.3411C25.3384 26.0175 25.5968 25.7551 25.9156 25.7551ZM5.83367 32.6562H34.2091C34.6459 32.6562 35 33.0157 35 33.4592V34.197C35 34.6405 34.6459 35 34.2091 35H5.83367C5.39688 35 5.04279 34.6405 5.04279 34.197V33.4592C5.04279 33.0157 5.39688 32.6562 5.83367 32.6562Z" stroke="#737373" stroke-width="0.4" stroke-miterlimit="10"/>
</svg>
