<svg width="40" height="40" viewBox="0 0 40 40" fill="none" xmlns="http://www.w3.org/2000/svg">
<path d="M30.6146 24.0302L35.3378 20.1945C35.3607 20.1743 35.3768 20.1477 35.3842 20.1182C35.3915 20.0887 35.3896 20.0576 35.3787 20.0292C35.3678 20.0007 35.3485 19.9763 35.3233 19.9591C35.2982 19.9419 35.2683 19.9328 35.2378 19.9329L31.1644 20.045C30.9553 20.0447 30.7497 19.992 30.5663 19.892C30.3829 19.7919 30.2277 19.6475 30.1148 19.4721L28.1906 16.2965C26.7661 13.9428 25.6915 13.868 25.6915 13.868H18.8317C18.6708 14.4213 18.3462 14.9133 17.9004 15.2799C17.4546 15.6464 16.9082 15.8705 16.3327 15.9229H8.23586C7.63159 15.9084 7.03609 16.0689 6.52154 16.385C6.007 16.7011 5.59551 17.1592 5.33699 17.7037L4.41235 19.5593C4.24772 19.888 4.16216 20.2505 4.16245 20.6179V23.7935C4.16192 23.9224 4.19226 24.0495 4.25094 24.1643C4.30962 24.2791 4.39494 24.3783 4.49982 24.4536C5.18284 24.9122 5.99841 25.1339 6.82049 25.0844C7.64257 25.0349 8.42541 24.7169 9.04804 24.1796C9.56156 24.0456 10.0978 24.0218 10.6212 24.1098C11.1447 24.1978 11.6434 24.3957 12.0844 24.6902C12.4094 24.9121 12.7812 25.0567 13.1711 25.1129C13.5611 25.169 13.9587 25.1352 14.3335 25.014C14.5977 24.9161 14.8563 24.8039 15.1082 24.6777C15.6784 24.3709 16.3219 24.225 16.9693 24.2557C17.6166 24.2864 18.2433 24.4926 18.7817 24.8521C19.1011 25.0892 19.4972 25.2001 19.8938 25.1634C20.6567 25.0841 21.3894 24.8236 22.0305 24.4038C22.3324 24.2089 22.6745 24.0842 23.0314 24.0389C23.3883 23.9937 23.7508 24.029 24.0922 24.1422C24.4189 24.265 24.7328 24.4193 25.0293 24.603C25.4432 24.8911 25.9274 25.0628 26.4308 25.1001C26.9343 25.1373 27.4386 25.0388 27.8907 24.8147C28.1518 24.6761 28.3849 24.4903 28.5779 24.2668C28.5779 24.2668 29.615 23.4822 31.7017 24.6404C32.1325 24.8884 32.6152 25.0332 33.1118 25.0634C33.6083 25.0937 34.1052 25.0086 34.5631 24.8147C35.0825 24.591 35.5666 24.2931 36 23.9305M36 26.5084C36 26.5084 33.6509 28.4387 31.5142 27.2805C31.1161 27.054 30.6755 26.9116 30.2197 26.8623C29.7639 26.813 29.3029 26.8579 28.8653 26.9941C28.4393 27.1467 28.0422 27.3698 27.6907 27.6541C27.066 28.1647 26.1288 28.2021 24.417 27.1311C23.9567 26.83 23.4182 26.6696 22.8676 26.6696C22.3171 26.6696 21.7785 26.83 21.3182 27.1311L21.1308 27.2556C20.7163 27.5685 20.2203 27.7559 19.7019 27.7957C19.1835 27.8354 18.6646 27.7258 18.2069 27.4798L17.8696 27.2556C17.437 26.8845 16.893 26.6672 16.323 26.6379C15.753 26.6086 15.1894 26.769 14.7208 27.0937C14.2478 27.4445 13.6819 27.6492 13.0933 27.6824C12.5047 27.7156 11.9193 27.5759 11.4096 27.2805L11.0972 27.156C10.702 26.8726 10.2352 26.7049 9.74949 26.6719C9.26375 26.6389 8.77842 26.7418 8.3483 26.9692L8.22335 27.0564C7.78485 27.3714 7.26993 27.564 6.73177 27.6144C6.1936 27.6647 5.65171 27.571 5.16205 27.3428C4.72812 27.1249 4.33503 26.8342 4 26.4835M4.33739 19.6963L35.0629 20.045M8.1233 15.9229V14.3288C8.1233 14.2033 8.17332 14.0829 8.26237 13.9942C8.35141 13.9054 8.47218 13.8556 8.59811 13.8556H11.8468C11.9728 13.8556 12.0935 13.9054 12.1826 13.9942C12.2716 14.0829 12.3217 14.2033 12.3217 14.3288V15.9229M18.8067 12V14.1296M20.8309 12.5355V13.9303M8.81059 18.0275H10.2225M11.8593 18.0275H13.2088M14.9207 18.0275H16.3327M17.9695 18.0275H19.4314M21.0308 18.0275H22.5303M24.0796 18.0275H25.6165M27.4907 18.0275H29.0151M26.0663 15.9229H27.4907M22.98 15.9229H24.4044M19.8437 15.9229H21.3056M8.81059 22.1123H10.2475M11.8593 22.1123H13.1463M14.9207 22.1123H16.2077M17.9695 22.1123H19.4314M21.0308 22.1123H22.4053M24.0796 22.1123H25.479" stroke="#737373" stroke-width="0.4" stroke-miterlimit="10" stroke-linecap="round"/>
</svg>
