<svg width="40" height="40" viewBox="0 0 40 40" fill="none" xmlns="http://www.w3.org/2000/svg">
<path d="M19.524 20.44H19.324L19.324 20.44L19.524 20.44ZM15.574 22.66H15.374H15.574ZM11.424 14.31L11.224 14.309V14.31H11.424ZM13.524 12.22L13.524 12.42L13.524 12.42L13.524 12.22ZM15.624 14.31L15.824 14.31L15.824 14.309L15.624 14.31ZM17.134 19.8H17.334H17.134ZM11.4241 26.46H11.2241H11.4241ZM11.1341 26.17V25.97V26.17ZM9.79405 26.17L9.76805 26.3683L9.781 26.37H9.79405V26.17ZM7.65405 23.76H7.45404L7.45407 23.7624L7.65405 23.76ZM6.07405 33.74L6.1635 33.9189L6.16607 33.9176L6.07405 33.74ZM34.654 33.99H34.854V33.8768L34.7569 33.8185L34.654 33.99ZM34.654 34.08V34.28H34.854V34.08H34.654ZM34.284 29.11L34.3718 28.9299L34.3609 28.9254L34.284 29.11ZM34.694 29.78L34.494 29.7762L34.494 29.7777L34.694 29.78ZM28.694 5C28.694 4.88954 28.6045 4.8 28.494 4.8C28.3836 4.8 28.294 4.88954 28.294 5H28.694ZM28.294 6.2C28.294 6.31046 28.3836 6.4 28.494 6.4C28.6045 6.4 28.694 6.31046 28.694 6.2H28.294ZM34.1009 8.27906C34.1943 8.22004 34.2222 8.09651 34.1631 8.00314C34.1041 7.90977 33.9806 7.88192 33.8872 7.94094L34.1009 8.27906ZM32.8272 8.61094C32.7339 8.66996 32.706 8.79349 32.765 8.88686C32.824 8.98023 32.9476 9.00808 33.0409 8.94906L32.8272 8.61094ZM33.6741 11.13C33.5636 11.13 33.4741 11.2195 33.4741 11.33C33.4741 11.4405 33.5636 11.53 33.6741 11.53V11.13ZM34.8541 11.53C34.9645 11.53 35.0541 11.4405 35.0541 11.33C35.0541 11.2195 34.9645 11.13 34.8541 11.13V11.53ZM31.1249 15.7562C31.0676 15.6618 30.9446 15.6317 30.8502 15.6891C30.7557 15.7464 30.7257 15.8694 30.783 15.9638L31.1249 15.7562ZM31.603 17.3138C31.6604 17.4082 31.7834 17.4383 31.8778 17.3809C31.9722 17.3236 32.0023 17.2006 31.9449 17.1062L31.603 17.3138ZM28.694 16.46C28.694 16.3495 28.6045 16.26 28.494 16.26C28.3836 16.26 28.294 16.3495 28.294 16.46H28.694ZM28.294 17.95C28.294 18.0605 28.3836 18.15 28.494 18.15C28.6045 18.15 28.694 18.0605 28.694 17.95H28.294ZM26.0573 15.9598C26.1125 15.8641 26.0795 15.7418 25.9838 15.6867C25.8881 15.6316 25.7658 15.6645 25.7107 15.7602L26.0573 15.9598ZM24.9507 17.0802C24.8956 17.1759 24.9285 17.2982 25.0242 17.3533C25.12 17.4084 25.2422 17.3755 25.2973 17.2798L24.9507 17.0802ZM23.304 11.53C23.4144 11.53 23.504 11.4405 23.504 11.33C23.504 11.2195 23.4144 11.13 23.304 11.13V11.53ZM21.834 11.13C21.7235 11.13 21.634 11.2195 21.634 11.33C21.634 11.4405 21.7235 11.53 21.834 11.53V11.13ZM25.4394 5.6638C25.3862 5.56696 25.2647 5.53153 25.1678 5.58466C25.071 5.63779 25.0356 5.75937 25.0887 5.85621L25.4394 5.6638ZM25.7087 6.98621C25.7618 7.08305 25.8834 7.11848 25.9802 7.06534C26.0771 7.01221 26.1125 6.89064 26.0594 6.7938L25.7087 6.98621ZM22.8954 7.86754C22.8001 7.81161 22.6775 7.84347 22.6216 7.93872C22.5657 8.03396 22.5975 8.15652 22.6928 8.21246L22.8954 7.86754ZM23.9528 8.95246C24.048 9.0084 24.1706 8.97653 24.2265 8.88129C24.2825 8.78604 24.2506 8.66348 24.1554 8.60754L23.9528 8.95246ZM22.477 14.5651C22.3804 14.6186 22.3455 14.7403 22.399 14.8369C22.4526 14.9335 22.5743 14.9685 22.6709 14.9149L22.477 14.5651ZM24.1509 14.0949C24.2475 14.0414 24.2824 13.9197 24.2289 13.8231C24.1754 13.7265 24.0537 13.6915 23.957 13.7451L24.1509 14.0949ZM33.0414 13.6912C32.9481 13.632 32.8245 13.6595 32.7653 13.7527C32.706 13.8459 32.7336 13.9695 32.8268 14.0288L33.0414 13.6912ZM34.0068 14.7788C34.1 14.838 34.2236 14.8105 34.2829 14.7173C34.3421 14.6241 34.3146 14.5005 34.2214 14.4412L34.0068 14.7788ZM31.796 5.862C31.8523 5.76699 31.821 5.6443 31.726 5.58797C31.631 5.53163 31.5083 5.56299 31.4519 5.658L31.796 5.862ZM30.7819 6.788C30.7256 6.88301 30.757 7.0057 30.852 7.06204C30.947 7.11837 31.0697 7.08702 31.126 6.992L30.7819 6.788ZM8.86405 19.81L8.86405 19.61L8.86241 19.61L8.86405 19.81ZM18.2841 16.06L18.2857 15.8597L18.2742 15.8602L18.2841 16.06ZM19.524 17.18H19.324V20.44H19.524H19.724V17.18H19.524ZM19.524 20.44C19.324 20.44 19.324 20.4399 19.324 20.4399C19.324 20.4398 19.324 20.4398 19.324 20.4398C19.324 20.4397 19.324 20.4397 19.324 20.4397C19.324 20.4397 19.324 20.4398 19.324 20.4401C19.324 20.4406 19.324 20.4415 19.3239 20.443C19.3239 20.4458 19.3238 20.4504 19.3236 20.4567C19.3233 20.4693 19.3225 20.4886 19.321 20.5136C19.3179 20.5637 19.3116 20.6363 19.299 20.724C19.2736 20.9002 19.2231 21.1318 19.1242 21.3606C19.0252 21.5894 18.881 21.808 18.672 21.9691C18.4658 22.1281 18.185 22.24 17.794 22.24V22.44V22.64C18.268 22.64 18.6359 22.502 18.9162 22.2859C19.1938 22.072 19.374 21.7906 19.4913 21.5194C19.6086 21.2482 19.6662 20.9798 19.6949 20.781C19.7093 20.6812 19.7166 20.5976 19.7202 20.5383C19.722 20.5086 19.723 20.4849 19.7235 20.4682C19.7237 20.4599 19.7238 20.4533 19.7239 20.4485C19.7239 20.4462 19.724 20.4443 19.724 20.4428C19.724 20.4421 19.724 20.4415 19.724 20.4411C19.724 20.4408 19.724 20.4406 19.724 20.4404C19.724 20.4403 19.724 20.4402 19.724 20.4402C19.724 20.4401 19.724 20.44 19.524 20.44ZM17.794 22.44V22.24H15.794V22.44V22.64H17.794V22.44ZM15.794 22.44V22.24C15.6826 22.24 15.5758 22.2843 15.497 22.363L15.6384 22.5044L15.7798 22.6459C15.7836 22.6421 15.7887 22.64 15.794 22.64V22.44ZM15.6384 22.5044L15.497 22.363C15.4182 22.4418 15.374 22.5486 15.374 22.66L15.574 22.66L15.774 22.66C15.774 22.6547 15.7761 22.6496 15.7798 22.6459L15.6384 22.5044ZM15.574 22.66H15.374V30.56H15.574H15.774V22.66H15.574ZM10.084 20.97H9.88398V23.76H10.084H10.284V20.97H10.084ZM10.084 23.76H9.88398C9.88398 23.9919 10.0502 24.1351 10.2081 24.2095C10.3685 24.2851 10.5677 24.3169 10.7547 24.3163C10.9419 24.3156 11.1405 24.2822 11.3003 24.2065C11.4561 24.1327 11.624 23.9907 11.624 23.76H11.424H11.224C11.224 23.7643 11.2244 23.7998 11.129 23.845C11.0375 23.8884 10.9011 23.9157 10.7532 23.9163C10.6053 23.9168 10.4695 23.8905 10.3786 23.8477C10.2853 23.8037 10.284 23.7681 10.284 23.76H10.084ZM11.424 23.76H11.624V14.31H11.424H11.224V23.76H11.424ZM11.424 14.31L11.624 14.311C11.6264 13.8086 11.8276 13.3277 12.1837 12.9733L12.0426 12.8315L11.9015 12.6898C11.4705 13.1187 11.2269 13.701 11.224 14.309L11.424 14.31ZM12.0426 12.8315L12.1837 12.9733C12.5397 12.6189 13.0216 12.42 13.524 12.42L13.524 12.22L13.524 12.02C12.9159 12.02 12.3325 12.2608 11.9015 12.6898L12.0426 12.8315ZM13.524 12.22L13.524 12.42C14.0263 12.42 14.5082 12.6189 14.8643 12.9733L15.0054 12.8315L15.1465 12.6898C14.7154 12.2608 14.1321 12.02 13.524 12.02L13.524 12.22ZM15.0054 12.8315L14.8643 12.9733C15.2204 13.3277 15.4216 13.8086 15.424 14.311L15.624 14.31L15.824 14.309C15.8211 13.701 15.5775 13.1187 15.1465 12.6898L15.0054 12.8315ZM15.624 14.31H15.424V19.81H15.624H15.824V14.31H15.624ZM15.624 19.81H15.424C15.424 19.9293 15.4714 20.0438 15.5558 20.1282L15.6972 19.9868L15.8386 19.8454C15.8293 19.836 15.824 19.8233 15.824 19.81H15.624ZM15.6972 19.9868L15.5558 20.1282C15.6402 20.2126 15.7546 20.26 15.874 20.26V20.06V19.86C15.8607 19.86 15.848 19.8547 15.8386 19.8454L15.6972 19.9868ZM15.874 20.06V20.26H16.874V20.06V19.86H15.874V20.06ZM16.874 20.06V20.26C16.9344 20.26 16.9942 20.2481 17.05 20.225L16.9735 20.0402L16.8969 19.8554C16.8897 19.8584 16.8819 19.86 16.874 19.86V20.06ZM16.9735 20.0402L17.05 20.225C17.1058 20.2019 17.1565 20.168 17.1993 20.1253L17.0578 19.9838L16.9164 19.8424C16.9108 19.848 16.9042 19.8524 16.8969 19.8554L16.9735 20.0402ZM17.0578 19.9838L17.1993 20.1253C17.242 20.0826 17.2759 20.0318 17.299 19.976L17.1142 19.8995L16.9294 19.823C16.9264 19.8302 16.922 19.8369 16.9164 19.8424L17.0578 19.9838ZM17.1142 19.8995L17.299 19.976C17.3221 19.9202 17.334 19.8604 17.334 19.8L17.134 19.8L16.934 19.8C16.934 19.8079 16.9324 19.8157 16.9294 19.823L17.1142 19.8995ZM17.134 19.8H17.334V17.2H17.134H16.934V19.8H17.134ZM11.4241 31.56H11.6241V26.46H11.4241H11.2241V31.56H11.4241ZM11.4241 26.46L11.6241 26.46C11.6241 26.33 11.5724 26.2054 11.4805 26.1135L11.3391 26.2549L11.1977 26.3964C11.2146 26.4132 11.2241 26.4361 11.2241 26.46L11.4241 26.46ZM11.3391 26.2549L11.4805 26.1135C11.3886 26.0216 11.264 25.97 11.1341 25.97L11.1341 26.17L11.1341 26.37C11.1579 26.37 11.1808 26.3795 11.1977 26.3964L11.3391 26.2549ZM11.1341 26.17V25.97H9.79405V26.17V26.37H11.1341V26.17ZM9.79405 26.17L9.82006 25.9717C9.28078 25.901 8.78509 25.6382 8.42396 25.2315L8.27441 25.3643L8.12486 25.4971C8.54991 25.9757 9.13333 26.2851 9.76805 26.3683L9.79405 26.17ZM8.27441 25.3643L8.42396 25.2315C8.06283 24.8248 7.86048 24.3015 7.85404 23.7576L7.65405 23.76L7.45407 23.7624C7.46164 24.4025 7.69981 25.0184 8.12486 25.4971L8.27441 25.3643ZM7.65405 23.76H7.85405V20.9H7.65405H7.45405V23.76H7.65405ZM6.07405 33.74L6.16607 33.9176C8.62861 32.6414 21.6989 26.4501 34.5511 34.1615L34.654 33.99L34.7569 33.8185C21.7092 25.9899 8.45948 32.2786 5.98202 33.5624L6.07405 33.74ZM34.654 33.99H34.454V34.08H34.654H34.854V33.99H34.654ZM34.654 34.08V33.88C34.6497 33.88 34.6454 33.88 34.6409 33.88C34.6365 33.88 34.6319 33.88 34.6273 33.88C34.6227 33.88 34.618 33.88 34.6133 33.88C34.6085 33.88 34.6037 33.88 34.5987 33.88C34.5938 33.88 34.5888 33.88 34.5837 33.88C34.5787 33.88 34.5735 33.88 34.5683 33.88C34.563 33.88 34.5577 33.88 34.5524 33.88C34.547 33.88 34.5415 33.88 34.536 33.88C34.5304 33.88 34.5248 33.88 34.5192 33.88C34.5135 33.88 34.5077 33.88 34.5019 33.88C34.496 33.88 34.4901 33.88 34.4841 33.88C34.4781 33.88 34.4721 33.88 34.4659 33.88C34.4598 33.88 34.4536 33.88 34.4473 33.88C34.441 33.88 34.4346 33.88 34.4282 33.88C34.4217 33.88 34.4152 33.88 34.4086 33.88C34.4021 33.88 34.3954 33.88 34.3887 33.88C34.3819 33.88 34.3751 33.88 34.3682 33.88C34.3614 33.88 34.3544 33.88 34.3474 33.88C34.3403 33.88 34.3332 33.88 34.3261 33.88C34.3189 33.88 34.3116 33.88 34.3043 33.88C34.297 33.88 34.2896 33.88 34.2821 33.88C34.2747 33.88 34.2671 33.88 34.2595 33.88C34.2519 33.88 34.2442 33.88 34.2365 33.88C34.2287 33.88 34.2209 33.88 34.213 33.88C34.2051 33.88 34.1971 33.88 34.1891 33.88C34.181 33.88 34.1729 33.88 34.1647 33.88C34.1566 33.88 34.1483 33.88 34.14 33.88C34.1317 33.88 34.1233 33.88 34.1148 33.88C34.1063 33.88 34.0978 33.88 34.0892 33.88C34.0806 33.88 34.0719 33.88 34.0632 33.88C34.0544 33.88 34.0456 33.88 34.0367 33.88C34.0278 33.88 34.0189 33.88 34.0099 33.88C34.0009 33.88 33.9918 33.88 33.9826 33.88C33.9734 33.88 33.9642 33.88 33.9549 33.88C33.9456 33.88 33.9363 33.88 33.9268 33.88C33.9174 33.88 33.9079 33.88 33.8983 33.88C33.8887 33.88 33.8791 33.88 33.8694 33.88C33.8597 33.88 33.8499 33.88 33.8401 33.88C33.8302 33.88 33.8203 33.88 33.8104 33.88C33.8004 33.88 33.7903 33.88 33.7802 33.88C33.7701 33.88 33.76 33.88 33.7497 33.88C33.7395 33.88 33.7292 33.88 33.7188 33.88C33.7084 33.88 33.698 33.88 33.6875 33.88C33.677 33.88 33.6664 33.88 33.6558 33.88C33.6451 33.88 33.6344 33.88 33.6237 33.88C33.6129 33.88 33.6021 33.88 33.5912 33.88C33.5803 33.88 33.5693 33.88 33.5583 33.88C33.5472 33.88 33.5361 33.88 33.525 33.88C33.5138 33.88 33.5026 33.88 33.4913 33.88C33.48 33.88 33.4687 33.88 33.4573 33.88C33.4459 33.88 33.4344 33.88 33.4229 33.88C33.4113 33.88 33.3997 33.88 33.388 33.88C33.3764 33.88 33.3647 33.88 33.3529 33.88C33.3411 33.88 33.3292 33.88 33.3173 33.88C33.3054 33.88 33.2934 33.88 33.2814 33.88C33.2693 33.88 33.2572 33.88 33.245 33.88C33.2329 33.88 33.2206 33.88 33.2084 33.88C33.1961 33.88 33.1837 33.88 33.1713 33.88C33.1589 33.88 33.1464 33.88 33.1339 33.88C33.1213 33.88 33.1088 33.88 33.0961 33.88C33.0834 33.88 33.0707 33.88 33.0579 33.88C33.0452 33.88 33.0323 33.88 33.0194 33.88C33.0065 33.88 32.9936 33.88 32.9805 33.88C32.9675 33.88 32.9544 33.88 32.9413 33.88C32.9282 33.88 32.915 33.88 32.9017 33.88C32.8885 33.88 32.8751 33.88 32.8618 33.88C32.8484 33.88 32.835 33.88 32.8215 33.88C32.808 33.88 32.7944 33.88 32.7808 33.88C32.7672 33.88 32.7535 33.88 32.7398 33.88C32.7261 33.88 32.7123 33.88 32.6985 33.88C32.6846 33.88 32.6707 33.88 32.6567 33.88C32.6428 33.88 32.6288 33.88 32.6147 33.88C32.6006 33.88 32.5865 33.88 32.5723 33.88C32.5581 33.88 32.5439 33.88 32.5296 33.88C32.5153 33.88 32.5009 33.88 32.4865 33.88C32.4721 33.88 32.4576 33.88 32.4431 33.88C32.4286 33.88 32.414 33.88 32.3994 33.88C32.3847 33.88 32.37 33.88 32.3553 33.88C32.3405 33.88 32.3257 33.88 32.3109 33.88C32.296 33.88 32.2811 33.88 32.2661 33.88C32.2512 33.88 32.2361 33.88 32.2211 33.88C32.206 33.88 32.1909 33.88 32.1757 33.88C32.1605 33.88 32.1452 33.88 32.1299 33.88C32.1147 33.88 32.0993 33.88 32.0839 33.88C32.0685 33.88 32.053 33.88 32.0375 33.88C32.022 33.88 32.0065 33.88 31.9908 33.88C31.9752 33.88 31.9596 33.88 31.9438 33.88C31.9281 33.88 31.9123 33.88 31.8965 33.88C31.8807 33.88 31.8648 33.88 31.8489 33.88C31.833 33.88 31.817 33.88 31.8009 33.88C31.7849 33.88 31.7688 33.88 31.7527 33.88C31.7365 33.88 31.7203 33.88 31.7041 33.88C31.6879 33.88 31.6716 33.88 31.6552 33.88C31.6389 33.88 31.6225 33.88 31.606 33.88C31.5896 33.88 31.5731 33.88 31.5566 33.88C31.54 33.88 31.5234 33.88 31.5068 33.88C31.4901 33.88 31.4734 33.88 31.4567 33.88C31.4399 33.88 31.4231 33.88 31.4063 33.88C31.3894 33.88 31.3726 33.88 31.3556 33.88C31.3387 33.88 31.3217 33.88 31.3046 33.88C31.2876 33.88 31.2705 33.88 31.2534 33.88C31.2362 33.88 31.219 33.88 31.2018 33.88C31.1846 33.88 31.1673 33.88 31.1499 33.88C31.1326 33.88 31.1152 33.88 31.0978 33.88C31.0804 33.88 31.0629 33.88 31.0454 33.88C31.0278 33.88 31.0103 33.88 30.9927 33.88C30.975 33.88 30.9574 33.88 30.9397 33.88C30.922 33.88 30.9042 33.88 30.8864 33.88C30.8686 33.88 30.8507 33.88 30.8328 33.88C30.8149 33.88 30.797 33.88 30.779 33.88C30.761 33.88 30.743 33.88 30.7249 33.88C30.7068 33.88 30.6887 33.88 30.6705 33.88C30.6523 33.88 30.6341 33.88 30.6159 33.88C30.5976 33.88 30.5793 33.88 30.5609 33.88C30.5426 33.88 30.5242 33.88 30.5057 33.88C30.4873 33.88 30.4688 33.88 30.4503 33.88C30.4318 33.88 30.4132 33.88 30.3946 33.88C30.376 33.88 30.3573 33.88 30.3386 33.88C30.3199 33.88 30.3011 33.88 30.2823 33.88C30.2635 33.88 30.2447 33.88 30.2258 33.88C30.207 33.88 30.188 33.88 30.1691 33.88C30.1501 33.88 30.1311 33.88 30.1121 33.88C30.093 33.88 30.0739 33.88 30.0548 33.88C30.0356 33.88 30.0165 33.88 29.9973 33.88C29.978 33.88 29.9588 33.88 29.9395 33.88C29.9202 33.88 29.9008 33.88 29.8815 33.88C29.8621 33.88 29.8427 33.88 29.8232 33.88C29.8037 33.88 29.7842 33.88 29.7647 33.88C29.7451 33.88 29.7255 33.88 29.7059 33.88C29.6863 33.88 29.6666 33.88 29.6469 33.88C29.6272 33.88 29.6075 33.88 29.5877 33.88C29.5679 33.88 29.5481 33.88 29.5282 33.88C29.5083 33.88 29.4884 33.88 29.4685 33.88C29.4485 33.88 29.4286 33.88 29.4085 33.88C29.3885 33.88 29.3684 33.88 29.3483 33.88C29.3282 33.88 29.3081 33.88 29.2879 33.88C29.2678 33.88 29.2475 33.88 29.2273 33.88C29.207 33.88 29.1868 33.88 29.1664 33.88C29.1461 33.88 29.1257 33.88 29.1053 33.88C29.0849 33.88 29.0645 33.88 29.044 33.88C29.0235 33.88 29.003 33.88 28.9825 33.88C28.9619 33.88 28.9413 33.88 28.9207 33.88C28.9001 33.88 28.8794 33.88 28.8587 33.88C28.838 33.88 28.8173 33.88 28.7965 33.88C28.7758 33.88 28.755 33.88 28.7341 33.88C28.7133 33.88 28.6924 33.88 28.6715 33.88C28.6506 33.88 28.6297 33.88 28.6087 33.88C28.5877 33.88 28.5667 33.88 28.5456 33.88C28.5246 33.88 28.5035 33.88 28.4824 33.88C28.4613 33.88 28.4401 33.88 28.4189 33.88C28.3977 33.88 28.3765 33.88 28.3553 33.88C28.334 33.88 28.3127 33.88 28.2914 33.88C28.2701 33.88 28.2487 33.88 28.2273 33.88C28.206 33.88 28.1845 33.88 28.1631 33.88C28.1416 33.88 28.1201 33.88 28.0986 33.88C28.0771 33.88 28.0555 33.88 28.034 33.88C28.0124 33.88 27.9908 33.88 27.9691 33.88C27.9475 33.88 27.9258 33.88 27.9041 33.88C27.8824 33.88 27.8606 33.88 27.8388 33.88C27.8171 33.88 27.7953 33.88 27.7734 33.88C27.7516 33.88 27.7297 33.88 27.7078 33.88C27.6859 33.88 27.664 33.88 27.642 33.88C27.6201 33.88 27.5981 33.88 27.5761 33.88C27.554 33.88 27.532 33.88 27.5099 33.88C27.4878 33.88 27.4657 33.88 27.4436 33.88C27.4214 33.88 27.3993 33.88 27.3771 33.88C27.3549 33.88 27.3327 33.88 27.3104 33.88C27.2881 33.88 27.2659 33.88 27.2435 33.88C27.2212 33.88 27.1989 33.88 27.1765 33.88C27.1541 33.88 27.1317 33.88 27.1093 33.88C27.0869 33.88 27.0644 33.88 27.0419 33.88C27.0195 33.88 26.9969 33.88 26.9744 33.88C26.9519 33.88 26.9293 33.88 26.9067 33.88C26.8841 33.88 26.8615 33.88 26.8388 33.88C26.8162 33.88 26.7935 33.88 26.7708 33.88C26.7481 33.88 26.7254 33.88 26.7026 33.88C26.6799 33.88 26.6571 33.88 26.6343 33.88C26.6115 33.88 26.5887 33.88 26.5658 33.88C26.5429 33.88 26.5201 33.88 26.4971 33.88C26.4742 33.88 26.4513 33.88 26.4283 33.88C26.4054 33.88 26.3824 33.88 26.3594 33.88C26.3364 33.88 26.3133 33.88 26.2903 33.88C26.2672 33.88 26.2441 33.88 26.221 33.88C26.1979 33.88 26.1748 33.88 26.1516 33.88C26.1285 33.88 26.1053 33.88 26.0821 33.88C26.0589 33.88 26.0357 33.88 26.0124 33.88C25.9892 33.88 25.9659 33.88 25.9426 33.88C25.9193 33.88 25.896 33.88 25.8726 33.88C25.8493 33.88 25.8259 33.88 25.8026 33.88C25.7792 33.88 25.7558 33.88 25.7323 33.88C25.7089 33.88 25.6854 33.88 25.662 33.88C25.6385 33.88 25.615 33.88 25.5915 33.88C25.5679 33.88 25.5444 33.88 25.5208 33.88C25.4973 33.88 25.4737 33.88 25.4501 33.88C25.4265 33.88 25.4029 33.88 25.3792 33.88C25.3556 33.88 25.3319 33.88 25.3082 33.88C25.2845 33.88 25.2608 33.88 25.2371 33.88C25.2134 33.88 25.1896 33.88 25.1659 33.88C25.1421 33.88 25.1183 33.88 25.0945 33.88C25.0707 33.88 25.0469 33.88 25.023 33.88C24.9992 33.88 24.9753 33.88 24.9514 33.88C24.9275 33.88 24.9036 33.88 24.8797 33.88C24.8558 33.88 24.8319 33.88 24.8079 33.88C24.784 33.88 24.76 33.88 24.736 33.88C24.712 33.88 24.688 33.88 24.6639 33.88C24.6399 33.88 24.6159 33.88 24.5918 33.88C24.5677 33.88 24.5437 33.88 24.5196 33.88C24.4955 33.88 24.4714 33.88 24.4472 33.88C24.4231 33.88 24.3989 33.88 24.3748 33.88C24.3506 33.88 24.3264 33.88 24.3022 33.88C24.278 33.88 24.2538 33.88 24.2296 33.88C24.2054 33.88 24.1811 33.88 24.1568 33.88C24.1326 33.88 24.1083 33.88 24.084 33.88C24.0597 33.88 24.0354 33.88 24.0111 33.88C23.9868 33.88 23.9624 33.88 23.9381 33.88C23.9137 33.88 23.8894 33.88 23.865 33.88C23.8406 33.88 23.8162 33.88 23.7918 33.88C23.7674 33.88 23.743 33.88 23.7185 33.88C23.6941 33.88 23.6696 33.88 23.6452 33.88C23.6207 33.88 23.5962 33.88 23.5717 33.88C23.5472 33.88 23.5227 33.88 23.4982 33.88C23.4737 33.88 23.4492 33.88 23.4246 33.88C23.4001 33.88 23.3755 33.88 23.3509 33.88C23.3264 33.88 23.3018 33.88 23.2772 33.88C23.2526 33.88 23.228 33.88 23.2034 33.88C23.1788 33.88 23.1541 33.88 23.1295 33.88C23.1049 33.88 23.0802 33.88 23.0555 33.88C23.0309 33.88 23.0062 33.88 22.9815 33.88C22.9568 33.88 22.9321 33.88 22.9074 33.88C22.8827 33.88 22.858 33.88 22.8333 33.88C22.8086 33.88 22.7838 33.88 22.7591 33.88C22.7343 33.88 22.7096 33.88 22.6848 33.88C22.66 33.88 22.6353 33.88 22.6105 33.88C22.5857 33.88 22.5609 33.88 22.5361 33.88C22.5113 33.88 22.4865 33.88 22.4617 33.88C22.4368 33.88 22.412 33.88 22.3872 33.88C22.3623 33.88 22.3375 33.88 22.3126 33.88C22.2878 33.88 22.2629 33.88 22.238 33.88C22.2132 33.88 22.1883 33.88 22.1634 33.88C22.1385 33.88 22.1136 33.88 22.0887 33.88C22.0638 33.88 22.0389 33.88 22.014 33.88C21.9891 33.88 21.9641 33.88 21.9392 33.88C21.9143 33.88 21.8893 33.88 21.8644 33.88C21.8395 33.88 21.8145 33.88 21.7896 33.88C21.7646 33.88 21.7396 33.88 21.7147 33.88C21.6897 33.88 21.6647 33.88 21.6398 33.88C21.6148 33.88 21.5898 33.88 21.5648 33.88C21.5398 33.88 21.5148 33.88 21.4898 33.88C21.4648 33.88 21.4398 33.88 21.4148 33.88C21.3898 33.88 21.3648 33.88 21.3398 33.88C21.3147 33.88 21.2897 33.88 21.2647 33.88C21.2397 33.88 21.2146 33.88 21.1896 33.88C21.1646 33.88 21.1395 33.88 21.1145 33.88C21.0895 33.88 21.0644 33.88 21.0394 33.88C21.0143 33.88 20.9893 33.88 20.9642 33.88C20.9392 33.88 20.9141 33.88 20.889 33.88C20.864 33.88 20.8389 33.88 20.8139 33.88C20.7888 33.88 20.7637 33.88 20.7387 33.88C20.7136 33.88 20.6885 33.88 20.6635 33.88C20.6384 33.88 20.6133 33.88 20.5882 33.88C20.5632 33.88 20.5381 33.88 20.513 33.88C20.4879 33.88 20.4629 33.88 20.4378 33.88C20.4127 33.88 20.3876 33.88 20.3625 33.88C20.3375 33.88 20.3124 33.88 20.2873 33.88C20.2622 33.88 20.2371 33.88 20.2121 33.88C20.187 33.88 20.1619 33.88 20.1368 33.88C20.1117 33.88 20.0867 33.88 20.0616 33.88C20.0365 33.88 20.0114 33.88 19.9864 33.88C19.9613 33.88 19.9362 33.88 19.9111 33.88C19.8861 33.88 19.861 33.88 19.8359 33.88C19.8108 33.88 19.7858 33.88 19.7607 33.88C19.7356 33.88 19.7106 33.88 19.6855 33.88C19.6605 33.88 19.6354 33.88 19.6103 33.88C19.5853 33.88 19.5602 33.88 19.5352 33.88C19.5101 33.88 19.4851 33.88 19.46 33.88C19.435 33.88 19.4099 33.88 19.3849 33.88C19.3598 33.88 19.3348 33.88 19.3098 33.88C19.2847 33.88 19.2597 33.88 19.2347 33.88C19.2097 33.88 19.1846 33.88 19.1596 33.88C19.1346 33.88 19.1096 33.88 19.0846 33.88C19.0596 33.88 19.0346 33.88 19.0096 33.88C18.9846 33.88 18.9596 33.88 18.9346 33.88C18.9096 33.88 18.8846 33.88 18.8596 33.88C18.8347 33.88 18.8097 33.88 18.7847 33.88C18.7598 33.88 18.7348 33.88 18.7098 33.88C18.6849 33.88 18.6599 33.88 18.635 33.88C18.6101 33.88 18.5851 33.88 18.5602 33.88C18.5353 33.88 18.5103 33.88 18.4854 33.88C18.4605 33.88 18.4356 33.88 18.4107 33.88C18.3858 33.88 18.3609 33.88 18.336 33.88C18.3111 33.88 18.2863 33.88 18.2614 33.88C18.2365 33.88 18.2116 33.88 18.1868 33.88C18.1619 33.88 18.1371 33.88 18.1123 33.88C18.0874 33.88 18.0626 33.88 18.0378 33.88C18.0129 33.88 17.9881 33.88 17.9633 33.88C17.9385 33.88 17.9137 33.88 17.8889 33.88C17.8642 33.88 17.8394 33.88 17.8146 33.88C17.7899 33.88 17.7651 33.88 17.7404 33.88C17.7156 33.88 17.6909 33.88 17.6661 33.88C17.6414 33.88 17.6167 33.88 17.592 33.88C17.5673 33.88 17.5426 33.88 17.5179 33.88C17.4932 33.88 17.4686 33.88 17.4439 33.88C17.4192 33.88 17.3946 33.88 17.3699 33.88C17.3453 33.88 17.3207 33.88 17.2961 33.88C17.2714 33.88 17.2468 33.88 17.2223 33.88C17.1977 33.88 17.1731 33.88 17.1485 33.88C17.1239 33.88 17.0994 33.88 17.0748 33.88C17.0503 33.88 17.0258 33.88 17.0013 33.88C16.9767 33.88 16.9522 33.88 16.9277 33.88C16.9033 33.88 16.8788 33.88 16.8543 33.88C16.8299 33.88 16.8054 33.88 16.781 33.88C16.7565 33.88 16.7321 33.88 16.7077 33.88C16.6833 33.88 16.6589 33.88 16.6345 33.88C16.6101 33.88 16.5858 33.88 16.5614 33.88C16.5371 33.88 16.5127 33.88 16.4884 33.88C16.4641 33.88 16.4398 33.88 16.4155 33.88C16.3912 33.88 16.3669 33.88 16.3427 33.88C16.3184 33.88 16.2942 33.88 16.2699 33.88C16.2457 33.88 16.2215 33.88 16.1973 33.88C16.1731 33.88 16.1489 33.88 16.1247 33.88C16.1006 33.88 16.0764 33.88 16.0523 33.88C16.0282 33.88 16.0041 33.88 15.98 33.88C15.9559 33.88 15.9318 33.88 15.9077 33.88C15.8837 33.88 15.8596 33.88 15.8356 33.88C15.8116 33.88 15.7876 33.88 15.7636 33.88C15.7396 33.88 15.7156 33.88 15.6916 33.88C15.6677 33.88 15.6438 33.88 15.6198 33.88C15.5959 33.88 15.572 33.88 15.5481 33.88C15.5243 33.88 15.5004 33.88 15.4766 33.88C15.4527 33.88 15.4289 33.88 15.4051 33.88C15.3813 33.88 15.3575 33.88 15.3337 33.88C15.31 33.88 15.2862 33.88 15.2625 33.88C15.2388 33.88 15.2151 33.88 15.1914 33.88C15.1677 33.88 15.144 33.88 15.1204 33.88C15.0967 33.88 15.0731 33.88 15.0495 33.88C15.0259 33.88 15.0023 33.88 14.9788 33.88C14.9552 33.88 14.9317 33.88 14.9082 33.88C14.8846 33.88 14.8611 33.88 14.8377 33.88C14.8142 33.88 14.7907 33.88 14.7673 33.88C14.7439 33.88 14.7205 33.88 14.6971 33.88C14.6737 33.88 14.6503 33.88 14.627 33.88C14.6037 33.88 14.5804 33.88 14.5571 33.88C14.5338 33.88 14.5105 33.88 14.4872 33.88C14.464 33.88 14.4408 33.88 14.4176 33.88C14.3944 33.88 14.3712 33.88 14.348 33.88C14.3249 33.88 14.3018 33.88 14.2787 33.88C14.2555 33.88 14.2325 33.88 14.2094 33.88C14.1864 33.88 14.1633 33.88 14.1403 33.88C14.1173 33.88 14.0943 33.88 14.0714 33.88C14.0484 33.88 14.0255 33.88 14.0026 33.88C13.9797 33.88 13.9568 33.88 13.9339 33.88C13.9111 33.88 13.8882 33.88 13.8654 33.88C13.8426 33.88 13.8199 33.88 13.7971 33.88C13.7744 33.88 13.7516 33.88 13.7289 33.88C13.7062 33.88 13.6836 33.88 13.6609 33.88C13.6383 33.88 13.6157 33.88 13.5931 33.88C13.5705 33.88 13.5479 33.88 13.5254 33.88C13.5028 33.88 13.4803 33.88 13.4578 33.88C13.4354 33.88 13.4129 33.88 13.3905 33.88C13.3681 33.88 13.3457 33.88 13.3233 33.88C13.3009 33.88 13.2786 33.88 13.2563 33.88C13.234 33.88 13.2117 33.88 13.1894 33.88C13.1672 33.88 13.145 33.88 13.1228 33.88C13.1006 33.88 13.0784 33.88 13.0563 33.88C13.0341 33.88 13.012 33.88 12.9899 33.88C12.9679 33.88 12.9458 33.88 12.9238 33.88C12.9018 33.88 12.8798 33.88 12.8578 33.88C12.8359 33.88 12.814 33.88 12.7921 33.88C12.7702 33.88 12.7483 33.88 12.7265 33.88C12.7046 33.88 12.6828 33.88 12.6611 33.88C12.6393 33.88 12.6175 33.88 12.5958 33.88C12.5741 33.88 12.5525 33.88 12.5308 33.88C12.5092 33.88 12.4876 33.88 12.466 33.88C12.4444 33.88 12.4228 33.88 12.4013 33.88C12.3798 33.88 12.3583 33.88 12.3369 33.88C12.3154 33.88 12.294 33.88 12.2726 33.88C12.2512 33.88 12.2299 33.88 12.2086 33.88C12.1873 33.88 12.166 33.88 12.1447 33.88C12.1235 33.88 12.1023 33.88 12.0811 33.88C12.0599 33.88 12.0387 33.88 12.0176 33.88C11.9965 33.88 11.9754 33.88 11.9544 33.88C11.9333 33.88 11.9123 33.88 11.8914 33.88C11.8704 33.88 11.8494 33.88 11.8285 33.88C11.8076 33.88 11.7868 33.88 11.7659 33.88C11.7451 33.88 11.7243 33.88 11.7035 33.88C11.6828 33.88 11.662 33.88 11.6413 33.88C11.6206 33.88 11.6 33.88 11.5794 33.88C11.5588 33.88 11.5382 33.88 11.5176 33.88C11.4971 33.88 11.4766 33.88 11.4561 33.88C11.4356 33.88 11.4152 33.88 11.3948 33.88C11.3744 33.88 11.354 33.88 11.3337 33.88C11.3134 33.88 11.2931 33.88 11.2729 33.88C11.2526 33.88 11.2324 33.88 11.2122 33.88C11.1921 33.88 11.1719 33.88 11.1518 33.88C11.1317 33.88 11.1117 33.88 11.0917 33.88C11.0716 33.88 11.0517 33.88 11.0317 33.88C11.0118 33.88 10.9919 33.88 10.972 33.88C10.9522 33.88 10.9323 33.88 10.9125 33.88C10.8928 33.88 10.873 33.88 10.8533 33.88C10.8336 33.88 10.814 33.88 10.7943 33.88C10.7747 33.88 10.7551 33.88 10.7356 33.88C10.716 33.88 10.6965 33.88 10.6771 33.88C10.6576 33.88 10.6382 33.88 10.6188 33.88C10.5994 33.88 10.5801 33.88 10.5608 33.88C10.5415 33.88 10.5223 33.88 10.5031 33.88C10.4838 33.88 10.4647 33.88 10.4455 33.88C10.4264 33.88 10.4073 33.88 10.3883 33.88C10.3692 33.88 10.3502 33.88 10.3313 33.88C10.3123 33.88 10.2934 33.88 10.2745 33.88C10.2557 33.88 10.2368 33.88 10.218 33.88C10.1993 33.88 10.1805 33.88 10.1618 33.88C10.1431 33.88 10.1245 33.88 10.1058 33.88C10.0872 33.88 10.0687 33.88 10.0501 33.88C10.0316 33.88 10.0131 33.88 9.99469 33.88C9.97625 33.88 9.95786 33.88 9.93951 33.88C9.92116 33.88 9.90286 33.88 9.8846 33.88C9.86634 33.88 9.84813 33.88 9.82996 33.88C9.8118 33.88 9.79367 33.88 9.7756 33.88C9.75752 33.88 9.73949 33.88 9.72151 33.88C9.70352 33.88 9.68558 33.88 9.66769 33.88C9.6498 33.88 9.63195 33.88 9.61415 33.88C9.59635 33.88 9.5786 33.88 9.56089 33.88C9.54318 33.88 9.52552 33.88 9.50791 33.88C9.4903 33.88 9.47273 33.88 9.45521 33.88C9.43769 33.88 9.42022 33.88 9.4028 33.88C9.38538 33.88 9.368 33.88 9.35067 33.88C9.33335 33.88 9.31607 33.88 9.29883 33.88C9.2816 33.88 9.26442 33.88 9.24729 33.88C9.23015 33.88 9.21307 33.88 9.19603 33.88C9.17899 33.88 9.162 33.88 9.14507 33.88C9.12813 33.88 9.11124 33.88 9.0944 33.88C9.07756 33.88 9.06077 33.88 9.04402 33.88C9.02728 33.88 9.01059 33.88 8.99395 33.88C8.97731 33.88 8.96072 33.88 8.94418 33.88C8.92764 33.88 8.91115 33.88 8.89471 33.88C8.87827 33.88 8.86188 33.88 8.84554 33.88C8.8292 33.88 8.81292 33.88 8.79668 33.88C8.78044 33.88 8.76426 33.88 8.74813 33.88C8.73199 33.88 8.71591 33.88 8.69988 33.88C8.68385 33.88 8.66788 33.88 8.65195 33.88C8.63603 33.88 8.62015 33.88 8.60433 33.88C8.58851 33.88 8.57274 33.88 8.55703 33.88C8.54131 33.88 8.52565 33.88 8.51004 33.88C8.49443 33.88 8.47887 33.88 8.46337 33.88C8.44786 33.88 8.43241 33.88 8.41702 33.88C8.40162 33.88 8.38628 33.88 8.37099 33.88C8.3557 33.88 8.34046 33.88 8.32528 33.88C8.3101 33.88 8.29498 33.88 8.2799 33.88C8.26483 33.88 8.24982 33.88 8.23485 33.88C8.21989 33.88 8.20498 33.88 8.19013 33.88C8.17528 33.88 8.16048 33.88 8.14574 33.88C8.13099 33.88 8.11631 33.88 8.10168 33.88C8.08705 33.88 8.07247 33.88 8.05795 33.88C8.04343 33.88 8.02897 33.88 8.01456 33.88C8.00015 33.88 7.9858 33.88 7.97151 33.88C7.95722 33.88 7.94298 33.88 7.9288 33.88C7.91462 33.88 7.90049 33.88 7.88643 33.88C7.87236 33.88 7.85835 33.88 7.8444 33.88C7.83045 33.88 7.81655 33.88 7.80272 33.88C7.78888 33.88 7.7751 33.88 7.76138 33.88C7.74766 33.88 7.734 33.88 7.7204 33.88C7.70679 33.88 7.69325 33.88 7.67976 33.88C7.66627 33.88 7.65284 33.88 7.63948 33.88C7.62611 33.88 7.6128 33.88 7.59954 33.88C7.58629 33.88 7.5731 33.88 7.55997 33.88C7.54684 33.88 7.53377 33.88 7.52075 33.88C7.50774 33.88 7.49479 33.88 7.48189 33.88C7.469 33.88 7.45617 33.88 7.4434 33.88C7.43063 33.88 7.41791 33.88 7.40526 33.88C7.39261 33.88 7.38002 33.88 7.36749 33.88C7.35497 33.88 7.3425 33.88 7.33009 33.88C7.31768 33.88 7.30534 33.88 7.29306 33.88C7.28077 33.88 7.26855 33.88 7.25639 33.88C7.24423 33.88 7.23213 33.88 7.2201 33.88C7.20806 33.88 7.19609 33.88 7.18418 33.88C7.17227 33.88 7.16042 33.88 7.14863 33.88C7.13685 33.88 7.12513 33.88 7.11347 33.88C7.10181 33.88 7.09021 33.88 7.07868 33.88C7.06715 33.88 7.05568 33.88 7.04427 33.88C7.03287 33.88 7.02152 33.88 7.01025 33.88C6.99897 33.88 6.98776 33.88 6.97661 33.88C6.96546 33.88 6.95437 33.88 6.94335 33.88C6.93233 33.88 6.92137 33.88 6.91048 33.88C6.89959 33.88 6.88877 33.88 6.87801 33.88C6.86725 33.88 6.85655 33.88 6.84592 33.88C6.83529 33.88 6.82473 33.88 6.81423 33.88C6.80373 33.88 6.7933 33.88 6.78293 33.88C6.77256 33.88 6.76226 33.88 6.75203 33.88C6.74179 33.88 6.73163 33.88 6.72152 33.88C6.71142 33.88 6.70139 33.88 6.69142 33.88C6.68146 33.88 6.67155 33.88 6.66172 33.88C6.65189 33.88 6.64212 33.88 6.63243 33.88C6.62273 33.88 6.6131 33.88 6.60353 33.88C6.59397 33.88 6.58448 33.88 6.57505 33.88C6.56562 33.88 6.55627 33.88 6.54698 33.88C6.53769 33.88 6.52847 33.88 6.51931 33.88C6.51016 33.88 6.50108 33.88 6.49206 33.88C6.48305 33.88 6.4741 33.88 6.46523 33.88C6.45635 33.88 6.44754 33.88 6.43881 33.88C6.43007 33.88 6.4214 33.88 6.4128 33.88C6.40421 33.88 6.39568 33.88 6.38722 33.88C6.37877 33.88 6.37038 33.88 6.36206 33.88C6.35375 33.88 6.3455 33.88 6.33733 33.88C6.32915 33.88 6.32105 33.88 6.31301 33.88C6.30498 33.88 6.29702 33.88 6.28913 33.88C6.28124 33.88 6.27342 33.88 6.26567 33.88C6.25793 33.88 6.25025 33.88 6.24265 33.88C6.23505 33.88 6.22752 33.88 6.22006 33.88C6.2126 33.88 6.20521 33.88 6.1979 33.88C6.19058 33.88 6.18334 33.88 6.17618 33.88C6.16901 33.88 6.16191 33.88 6.15489 33.88C6.14787 33.88 6.14092 33.88 6.13405 33.88V34.08V34.28C6.14092 34.28 6.14787 34.28 6.15489 34.28C6.16191 34.28 6.16901 34.28 6.17618 34.28C6.18334 34.28 6.19058 34.28 6.1979 34.28C6.20521 34.28 6.2126 34.28 6.22006 34.28C6.22752 34.28 6.23505 34.28 6.24265 34.28C6.25025 34.28 6.25793 34.28 6.26567 34.28C6.27342 34.28 6.28124 34.28 6.28913 34.28C6.29702 34.28 6.30498 34.28 6.31301 34.28C6.32105 34.28 6.32915 34.28 6.33733 34.28C6.3455 34.28 6.35375 34.28 6.36206 34.28C6.37038 34.28 6.37877 34.28 6.38722 34.28C6.39568 34.28 6.40421 34.28 6.4128 34.28C6.4214 34.28 6.43007 34.28 6.43881 34.28C6.44754 34.28 6.45635 34.28 6.46523 34.28C6.4741 34.28 6.48305 34.28 6.49206 34.28C6.50108 34.28 6.51016 34.28 6.51931 34.28C6.52847 34.28 6.53769 34.28 6.54698 34.28C6.55627 34.28 6.56562 34.28 6.57505 34.28C6.58448 34.28 6.59397 34.28 6.60353 34.28C6.6131 34.28 6.62273 34.28 6.63243 34.28C6.64212 34.28 6.65189 34.28 6.66172 34.28C6.67155 34.28 6.68146 34.28 6.69142 34.28C6.70139 34.28 6.71142 34.28 6.72152 34.28C6.73163 34.28 6.74179 34.28 6.75203 34.28C6.76226 34.28 6.77256 34.28 6.78293 34.28C6.7933 34.28 6.80373 34.28 6.81423 34.28C6.82473 34.28 6.83529 34.28 6.84592 34.28C6.85655 34.28 6.86725 34.28 6.87801 34.28C6.88877 34.28 6.89959 34.28 6.91048 34.28C6.92137 34.28 6.93233 34.28 6.94335 34.28C6.95437 34.28 6.96546 34.28 6.97661 34.28C6.98776 34.28 6.99897 34.28 7.01025 34.28C7.02152 34.28 7.03287 34.28 7.04427 34.28C7.05568 34.28 7.06715 34.28 7.07868 34.28C7.09021 34.28 7.10181 34.28 7.11347 34.28C7.12513 34.28 7.13685 34.28 7.14863 34.28C7.16042 34.28 7.17227 34.28 7.18418 34.28C7.19609 34.28 7.20806 34.28 7.2201 34.28C7.23213 34.28 7.24423 34.28 7.25639 34.28C7.26855 34.28 7.28077 34.28 7.29306 34.28C7.30534 34.28 7.31768 34.28 7.33009 34.28C7.3425 34.28 7.35497 34.28 7.36749 34.28C7.38002 34.28 7.39261 34.28 7.40526 34.28C7.41791 34.28 7.43063 34.28 7.4434 34.28C7.45617 34.28 7.469 34.28 7.48189 34.28C7.49479 34.28 7.50774 34.28 7.52075 34.28C7.53377 34.28 7.54684 34.28 7.55997 34.28C7.5731 34.28 7.58629 34.28 7.59954 34.28C7.6128 34.28 7.62611 34.28 7.63948 34.28C7.65284 34.28 7.66627 34.28 7.67976 34.28C7.69325 34.28 7.70679 34.28 7.7204 34.28C7.734 34.28 7.74766 34.28 7.76138 34.28C7.7751 34.28 7.78888 34.28 7.80272 34.28C7.81655 34.28 7.83045 34.28 7.8444 34.28C7.85835 34.28 7.87236 34.28 7.88643 34.28C7.90049 34.28 7.91462 34.28 7.9288 34.28C7.94298 34.28 7.95722 34.28 7.97151 34.28C7.9858 34.28 8.00015 34.28 8.01456 34.28C8.02897 34.28 8.04343 34.28 8.05795 34.28C8.07247 34.28 8.08705 34.28 8.10168 34.28C8.11631 34.28 8.13099 34.28 8.14574 34.28C8.16048 34.28 8.17528 34.28 8.19013 34.28C8.20498 34.28 8.21989 34.28 8.23485 34.28C8.24982 34.28 8.26483 34.28 8.2799 34.28C8.29498 34.28 8.3101 34.28 8.32528 34.28C8.34046 34.28 8.3557 34.28 8.37099 34.28C8.38628 34.28 8.40162 34.28 8.41702 34.28C8.43241 34.28 8.44786 34.28 8.46337 34.28C8.47887 34.28 8.49443 34.28 8.51004 34.28C8.52565 34.28 8.54131 34.28 8.55703 34.28C8.57274 34.28 8.58851 34.28 8.60433 34.28C8.62015 34.28 8.63603 34.28 8.65195 34.28C8.66788 34.28 8.68385 34.28 8.69988 34.28C8.71591 34.28 8.73199 34.28 8.74813 34.28C8.76426 34.28 8.78044 34.28 8.79668 34.28C8.81292 34.28 8.8292 34.28 8.84554 34.28C8.86188 34.28 8.87827 34.28 8.89471 34.28C8.91115 34.28 8.92764 34.28 8.94418 34.28C8.96072 34.28 8.97731 34.28 8.99395 34.28C9.01059 34.28 9.02728 34.28 9.04402 34.28C9.06077 34.28 9.07756 34.28 9.0944 34.28C9.11124 34.28 9.12813 34.28 9.14507 34.28C9.162 34.28 9.17899 34.28 9.19603 34.28C9.21307 34.28 9.23015 34.28 9.24729 34.28C9.26442 34.28 9.2816 34.28 9.29883 34.28C9.31607 34.28 9.33335 34.28 9.35067 34.28C9.368 34.28 9.38538 34.28 9.4028 34.28C9.42022 34.28 9.43769 34.28 9.45521 34.28C9.47273 34.28 9.4903 34.28 9.50791 34.28C9.52552 34.28 9.54318 34.28 9.56089 34.28C9.5786 34.28 9.59635 34.28 9.61415 34.28C9.63195 34.28 9.6498 34.28 9.66769 34.28C9.68558 34.28 9.70352 34.28 9.72151 34.28C9.73949 34.28 9.75752 34.28 9.7756 34.28C9.79367 34.28 9.8118 34.28 9.82996 34.28C9.84813 34.28 9.86634 34.28 9.8846 34.28C9.90286 34.28 9.92116 34.28 9.93951 34.28C9.95786 34.28 9.97625 34.28 9.99469 34.28C10.0131 34.28 10.0316 34.28 10.0501 34.28C10.0687 34.28 10.0872 34.28 10.1058 34.28C10.1245 34.28 10.1431 34.28 10.1618 34.28C10.1805 34.28 10.1993 34.28 10.218 34.28C10.2368 34.28 10.2557 34.28 10.2745 34.28C10.2934 34.28 10.3123 34.28 10.3313 34.28C10.3502 34.28 10.3692 34.28 10.3883 34.28C10.4073 34.28 10.4264 34.28 10.4455 34.28C10.4647 34.28 10.4838 34.28 10.5031 34.28C10.5223 34.28 10.5415 34.28 10.5608 34.28C10.5801 34.28 10.5994 34.28 10.6188 34.28C10.6382 34.28 10.6576 34.28 10.6771 34.28C10.6965 34.28 10.716 34.28 10.7356 34.28C10.7551 34.28 10.7747 34.28 10.7943 34.28C10.814 34.28 10.8336 34.28 10.8533 34.28C10.873 34.28 10.8928 34.28 10.9125 34.28C10.9323 34.28 10.9522 34.28 10.972 34.28C10.9919 34.28 11.0118 34.28 11.0317 34.28C11.0517 34.28 11.0716 34.28 11.0917 34.28C11.1117 34.28 11.1317 34.28 11.1518 34.28C11.1719 34.28 11.1921 34.28 11.2122 34.28C11.2324 34.28 11.2526 34.28 11.2729 34.28C11.2931 34.28 11.3134 34.28 11.3337 34.28C11.354 34.28 11.3744 34.28 11.3948 34.28C11.4152 34.28 11.4356 34.28 11.4561 34.28C11.4766 34.28 11.4971 34.28 11.5176 34.28C11.5382 34.28 11.5588 34.28 11.5794 34.28C11.6 34.28 11.6206 34.28 11.6413 34.28C11.662 34.28 11.6828 34.28 11.7035 34.28C11.7243 34.28 11.7451 34.28 11.7659 34.28C11.7868 34.28 11.8076 34.28 11.8285 34.28C11.8494 34.28 11.8704 34.28 11.8914 34.28C11.9123 34.28 11.9333 34.28 11.9544 34.28C11.9754 34.28 11.9965 34.28 12.0176 34.28C12.0387 34.28 12.0599 34.28 12.0811 34.28C12.1023 34.28 12.1235 34.28 12.1447 34.28C12.166 34.28 12.1873 34.28 12.2086 34.28C12.2299 34.28 12.2512 34.28 12.2726 34.28C12.294 34.28 12.3154 34.28 12.3369 34.28C12.3583 34.28 12.3798 34.28 12.4013 34.28C12.4228 34.28 12.4444 34.28 12.466 34.28C12.4876 34.28 12.5092 34.28 12.5308 34.28C12.5525 34.28 12.5741 34.28 12.5958 34.28C12.6175 34.28 12.6393 34.28 12.6611 34.28C12.6828 34.28 12.7046 34.28 12.7265 34.28C12.7483 34.28 12.7702 34.28 12.7921 34.28C12.814 34.28 12.8359 34.28 12.8578 34.28C12.8798 34.28 12.9018 34.28 12.9238 34.28C12.9458 34.28 12.9679 34.28 12.9899 34.28C13.012 34.28 13.0341 34.28 13.0563 34.28C13.0784 34.28 13.1006 34.28 13.1228 34.28C13.145 34.28 13.1672 34.28 13.1894 34.28C13.2117 34.28 13.234 34.28 13.2563 34.28C13.2786 34.28 13.3009 34.28 13.3233 34.28C13.3457 34.28 13.3681 34.28 13.3905 34.28C13.4129 34.28 13.4354 34.28 13.4578 34.28C13.4803 34.28 13.5028 34.28 13.5254 34.28C13.5479 34.28 13.5705 34.28 13.5931 34.28C13.6157 34.28 13.6383 34.28 13.6609 34.28C13.6836 34.28 13.7062 34.28 13.7289 34.28C13.7516 34.28 13.7744 34.28 13.7971 34.28C13.8199 34.28 13.8426 34.28 13.8654 34.28C13.8882 34.28 13.9111 34.28 13.9339 34.28C13.9568 34.28 13.9797 34.28 14.0026 34.28C14.0255 34.28 14.0484 34.28 14.0714 34.28C14.0943 34.28 14.1173 34.28 14.1403 34.28C14.1633 34.28 14.1864 34.28 14.2094 34.28C14.2325 34.28 14.2555 34.28 14.2787 34.28C14.3018 34.28 14.3249 34.28 14.348 34.28C14.3712 34.28 14.3944 34.28 14.4176 34.28C14.4408 34.28 14.464 34.28 14.4872 34.28C14.5105 34.28 14.5338 34.28 14.5571 34.28C14.5804 34.28 14.6037 34.28 14.627 34.28C14.6503 34.28 14.6737 34.28 14.6971 34.28C14.7205 34.28 14.7439 34.28 14.7673 34.28C14.7907 34.28 14.8142 34.28 14.8377 34.28C14.8611 34.28 14.8846 34.28 14.9082 34.28C14.9317 34.28 14.9552 34.28 14.9788 34.28C15.0023 34.28 15.0259 34.28 15.0495 34.28C15.0731 34.28 15.0967 34.28 15.1204 34.28C15.144 34.28 15.1677 34.28 15.1914 34.28C15.2151 34.28 15.2388 34.28 15.2625 34.28C15.2862 34.28 15.31 34.28 15.3337 34.28C15.3575 34.28 15.3813 34.28 15.4051 34.28C15.4289 34.28 15.4527 34.28 15.4766 34.28C15.5004 34.28 15.5243 34.28 15.5481 34.28C15.572 34.28 15.5959 34.28 15.6198 34.28C15.6438 34.28 15.6677 34.28 15.6916 34.28C15.7156 34.28 15.7396 34.28 15.7636 34.28C15.7876 34.28 15.8116 34.28 15.8356 34.28C15.8596 34.28 15.8837 34.28 15.9077 34.28C15.9318 34.28 15.9559 34.28 15.98 34.28C16.0041 34.28 16.0282 34.28 16.0523 34.28C16.0764 34.28 16.1006 34.28 16.1247 34.28C16.1489 34.28 16.1731 34.28 16.1973 34.28C16.2215 34.28 16.2457 34.28 16.2699 34.28C16.2942 34.28 16.3184 34.28 16.3427 34.28C16.3669 34.28 16.3912 34.28 16.4155 34.28C16.4398 34.28 16.4641 34.28 16.4884 34.28C16.5127 34.28 16.5371 34.28 16.5614 34.28C16.5858 34.28 16.6101 34.28 16.6345 34.28C16.6589 34.28 16.6833 34.28 16.7077 34.28C16.7321 34.28 16.7565 34.28 16.781 34.28C16.8054 34.28 16.8299 34.28 16.8543 34.28C16.8788 34.28 16.9033 34.28 16.9277 34.28C16.9522 34.28 16.9767 34.28 17.0013 34.28C17.0258 34.28 17.0503 34.28 17.0748 34.28C17.0994 34.28 17.1239 34.28 17.1485 34.28C17.1731 34.28 17.1977 34.28 17.2223 34.28C17.2468 34.28 17.2714 34.28 17.2961 34.28C17.3207 34.28 17.3453 34.28 17.3699 34.28C17.3946 34.28 17.4192 34.28 17.4439 34.28C17.4686 34.28 17.4932 34.28 17.5179 34.28C17.5426 34.28 17.5673 34.28 17.592 34.28C17.6167 34.28 17.6414 34.28 17.6661 34.28C17.6909 34.28 17.7156 34.28 17.7404 34.28C17.7651 34.28 17.7899 34.28 17.8146 34.28C17.8394 34.28 17.8642 34.28 17.8889 34.28C17.9137 34.28 17.9385 34.28 17.9633 34.28C17.9881 34.28 18.0129 34.28 18.0378 34.28C18.0626 34.28 18.0874 34.28 18.1123 34.28C18.1371 34.28 18.1619 34.28 18.1868 34.28C18.2116 34.28 18.2365 34.28 18.2614 34.28C18.2863 34.28 18.3111 34.28 18.336 34.28C18.3609 34.28 18.3858 34.28 18.4107 34.28C18.4356 34.28 18.4605 34.28 18.4854 34.28C18.5103 34.28 18.5353 34.28 18.5602 34.28C18.5851 34.28 18.6101 34.28 18.635 34.28C18.6599 34.28 18.6849 34.28 18.7098 34.28C18.7348 34.28 18.7598 34.28 18.7847 34.28C18.8097 34.28 18.8347 34.28 18.8596 34.28C18.8846 34.28 18.9096 34.28 18.9346 34.28C18.9596 34.28 18.9846 34.28 19.0096 34.28C19.0346 34.28 19.0596 34.28 19.0846 34.28C19.1096 34.28 19.1346 34.28 19.1596 34.28C19.1846 34.28 19.2097 34.28 19.2347 34.28C19.2597 34.28 19.2847 34.28 19.3098 34.28C19.3348 34.28 19.3598 34.28 19.3849 34.28C19.4099 34.28 19.435 34.28 19.46 34.28C19.4851 34.28 19.5101 34.28 19.5352 34.28C19.5602 34.28 19.5853 34.28 19.6103 34.28C19.6354 34.28 19.6605 34.28 19.6855 34.28C19.7106 34.28 19.7356 34.28 19.7607 34.28C19.7858 34.28 19.8108 34.28 19.8359 34.28C19.861 34.28 19.8861 34.28 19.9111 34.28C19.9362 34.28 19.9613 34.28 19.9864 34.28C20.0114 34.28 20.0365 34.28 20.0616 34.28C20.0867 34.28 20.1117 34.28 20.1368 34.28C20.1619 34.28 20.187 34.28 20.2121 34.28C20.2371 34.28 20.2622 34.28 20.2873 34.28C20.3124 34.28 20.3375 34.28 20.3625 34.28C20.3876 34.28 20.4127 34.28 20.4378 34.28C20.4629 34.28 20.4879 34.28 20.513 34.28C20.5381 34.28 20.5632 34.28 20.5882 34.28C20.6133 34.28 20.6384 34.28 20.6635 34.28C20.6885 34.28 20.7136 34.28 20.7387 34.28C20.7637 34.28 20.7888 34.28 20.8139 34.28C20.8389 34.28 20.864 34.28 20.889 34.28C20.9141 34.28 20.9392 34.28 20.9642 34.28C20.9893 34.28 21.0143 34.28 21.0394 34.28C21.0644 34.28 21.0895 34.28 21.1145 34.28C21.1395 34.28 21.1646 34.28 21.1896 34.28C21.2146 34.28 21.2397 34.28 21.2647 34.28C21.2897 34.28 21.3147 34.28 21.3398 34.28C21.3648 34.28 21.3898 34.28 21.4148 34.28C21.4398 34.28 21.4648 34.28 21.4898 34.28C21.5148 34.28 21.5398 34.28 21.5648 34.28C21.5898 34.28 21.6148 34.28 21.6398 34.28C21.6647 34.28 21.6897 34.28 21.7147 34.28C21.7396 34.28 21.7646 34.28 21.7896 34.28C21.8145 34.28 21.8395 34.28 21.8644 34.28C21.8893 34.28 21.9143 34.28 21.9392 34.28C21.9641 34.28 21.9891 34.28 22.014 34.28C22.0389 34.28 22.0638 34.28 22.0887 34.28C22.1136 34.28 22.1385 34.28 22.1634 34.28C22.1883 34.28 22.2132 34.28 22.238 34.28C22.2629 34.28 22.2878 34.28 22.3126 34.28C22.3375 34.28 22.3623 34.28 22.3872 34.28C22.412 34.28 22.4368 34.28 22.4617 34.28C22.4865 34.28 22.5113 34.28 22.5361 34.28C22.5609 34.28 22.5857 34.28 22.6105 34.28C22.6353 34.28 22.66 34.28 22.6848 34.28C22.7096 34.28 22.7343 34.28 22.7591 34.28C22.7838 34.28 22.8086 34.28 22.8333 34.28C22.858 34.28 22.8827 34.28 22.9074 34.28C22.9321 34.28 22.9568 34.28 22.9815 34.28C23.0062 34.28 23.0309 34.28 23.0555 34.28C23.0802 34.28 23.1049 34.28 23.1295 34.28C23.1541 34.28 23.1788 34.28 23.2034 34.28C23.228 34.28 23.2526 34.28 23.2772 34.28C23.3018 34.28 23.3264 34.28 23.3509 34.28C23.3755 34.28 23.4001 34.28 23.4246 34.28C23.4492 34.28 23.4737 34.28 23.4982 34.28C23.5227 34.28 23.5472 34.28 23.5717 34.28C23.5962 34.28 23.6207 34.28 23.6452 34.28C23.6696 34.28 23.6941 34.28 23.7185 34.28C23.743 34.28 23.7674 34.28 23.7918 34.28C23.8162 34.28 23.8406 34.28 23.865 34.28C23.8894 34.28 23.9137 34.28 23.9381 34.28C23.9624 34.28 23.9868 34.28 24.0111 34.28C24.0354 34.28 24.0597 34.28 24.084 34.28C24.1083 34.28 24.1326 34.28 24.1568 34.28C24.1811 34.28 24.2054 34.28 24.2296 34.28C24.2538 34.28 24.278 34.28 24.3022 34.28C24.3264 34.28 24.3506 34.28 24.3748 34.28C24.3989 34.28 24.4231 34.28 24.4472 34.28C24.4714 34.28 24.4955 34.28 24.5196 34.28C24.5437 34.28 24.5677 34.28 24.5918 34.28C24.6159 34.28 24.6399 34.28 24.6639 34.28C24.688 34.28 24.712 34.28 24.736 34.28C24.76 34.28 24.784 34.28 24.8079 34.28C24.8319 34.28 24.8558 34.28 24.8797 34.28C24.9036 34.28 24.9275 34.28 24.9514 34.28C24.9753 34.28 24.9992 34.28 25.023 34.28C25.0469 34.28 25.0707 34.28 25.0945 34.28C25.1183 34.28 25.1421 34.28 25.1659 34.28C25.1896 34.28 25.2134 34.28 25.2371 34.28C25.2608 34.28 25.2845 34.28 25.3082 34.28C25.3319 34.28 25.3556 34.28 25.3792 34.28C25.4029 34.28 25.4265 34.28 25.4501 34.28C25.4737 34.28 25.4973 34.28 25.5208 34.28C25.5444 34.28 25.5679 34.28 25.5915 34.28C25.615 34.28 25.6385 34.28 25.662 34.28C25.6854 34.28 25.7089 34.28 25.7323 34.28C25.7558 34.28 25.7792 34.28 25.8026 34.28C25.8259 34.28 25.8493 34.28 25.8726 34.28C25.896 34.28 25.9193 34.28 25.9426 34.28C25.9659 34.28 25.9892 34.28 26.0124 34.28C26.0357 34.28 26.0589 34.28 26.0821 34.28C26.1053 34.28 26.1285 34.28 26.1516 34.28C26.1748 34.28 26.1979 34.28 26.221 34.28C26.2441 34.28 26.2672 34.28 26.2903 34.28C26.3133 34.28 26.3364 34.28 26.3594 34.28C26.3824 34.28 26.4054 34.28 26.4283 34.28C26.4513 34.28 26.4742 34.28 26.4971 34.28C26.5201 34.28 26.5429 34.28 26.5658 34.28C26.5887 34.28 26.6115 34.28 26.6343 34.28C26.6571 34.28 26.6799 34.28 26.7026 34.28C26.7254 34.28 26.7481 34.28 26.7708 34.28C26.7935 34.28 26.8162 34.28 26.8388 34.28C26.8615 34.28 26.8841 34.28 26.9067 34.28C26.9293 34.28 26.9519 34.28 26.9744 34.28C26.9969 34.28 27.0195 34.28 27.0419 34.28C27.0644 34.28 27.0869 34.28 27.1093 34.28C27.1317 34.28 27.1541 34.28 27.1765 34.28C27.1989 34.28 27.2212 34.28 27.2435 34.28C27.2659 34.28 27.2881 34.28 27.3104 34.28C27.3327 34.28 27.3549 34.28 27.3771 34.28C27.3993 34.28 27.4214 34.28 27.4436 34.28C27.4657 34.28 27.4878 34.28 27.5099 34.28C27.532 34.28 27.554 34.28 27.5761 34.28C27.5981 34.28 27.6201 34.28 27.642 34.28C27.664 34.28 27.6859 34.28 27.7078 34.28C27.7297 34.28 27.7516 34.28 27.7734 34.28C27.7953 34.28 27.8171 34.28 27.8388 34.28C27.8606 34.28 27.8824 34.28 27.9041 34.28C27.9258 34.28 27.9475 34.28 27.9691 34.28C27.9908 34.28 28.0124 34.28 28.034 34.28C28.0555 34.28 28.0771 34.28 28.0986 34.28C28.1201 34.28 28.1416 34.28 28.1631 34.28C28.1845 34.28 28.206 34.28 28.2273 34.28C28.2487 34.28 28.2701 34.28 28.2914 34.28C28.3127 34.28 28.334 34.28 28.3553 34.28C28.3765 34.28 28.3977 34.28 28.4189 34.28C28.4401 34.28 28.4613 34.28 28.4824 34.28C28.5035 34.28 28.5246 34.28 28.5456 34.28C28.5667 34.28 28.5877 34.28 28.6087 34.28C28.6297 34.28 28.6506 34.28 28.6715 34.28C28.6924 34.28 28.7133 34.28 28.7341 34.28C28.755 34.28 28.7758 34.28 28.7965 34.28C28.8173 34.28 28.838 34.28 28.8587 34.28C28.8794 34.28 28.9001 34.28 28.9207 34.28C28.9413 34.28 28.9619 34.28 28.9825 34.28C29.003 34.28 29.0235 34.28 29.044 34.28C29.0645 34.28 29.0849 34.28 29.1053 34.28C29.1257 34.28 29.1461 34.28 29.1664 34.28C29.1868 34.28 29.207 34.28 29.2273 34.28C29.2475 34.28 29.2678 34.28 29.2879 34.28C29.3081 34.28 29.3282 34.28 29.3483 34.28C29.3684 34.28 29.3885 34.28 29.4085 34.28C29.4286 34.28 29.4485 34.28 29.4685 34.28C29.4884 34.28 29.5083 34.28 29.5282 34.28C29.5481 34.28 29.5679 34.28 29.5877 34.28C29.6075 34.28 29.6272 34.28 29.6469 34.28C29.6666 34.28 29.6863 34.28 29.7059 34.28C29.7255 34.28 29.7451 34.28 29.7647 34.28C29.7842 34.28 29.8037 34.28 29.8232 34.28C29.8427 34.28 29.8621 34.28 29.8815 34.28C29.9008 34.28 29.9202 34.28 29.9395 34.28C29.9588 34.28 29.978 34.28 29.9973 34.28C30.0165 34.28 30.0356 34.28 30.0548 34.28C30.0739 34.28 30.093 34.28 30.1121 34.28C30.1311 34.28 30.1501 34.28 30.1691 34.28C30.188 34.28 30.207 34.28 30.2258 34.28C30.2447 34.28 30.2635 34.28 30.2823 34.28C30.3011 34.28 30.3199 34.28 30.3386 34.28C30.3573 34.28 30.376 34.28 30.3946 34.28C30.4132 34.28 30.4318 34.28 30.4503 34.28C30.4688 34.28 30.4873 34.28 30.5057 34.28C30.5242 34.28 30.5426 34.28 30.5609 34.28C30.5793 34.28 30.5976 34.28 30.6159 34.28C30.6341 34.28 30.6523 34.28 30.6705 34.28C30.6887 34.28 30.7068 34.28 30.7249 34.28C30.743 34.28 30.761 34.28 30.779 34.28C30.797 34.28 30.8149 34.28 30.8328 34.28C30.8507 34.28 30.8686 34.28 30.8864 34.28C30.9042 34.28 30.922 34.28 30.9397 34.28C30.9574 34.28 30.975 34.28 30.9927 34.28C31.0103 34.28 31.0278 34.28 31.0454 34.28C31.0629 34.28 31.0804 34.28 31.0978 34.28C31.1152 34.28 31.1326 34.28 31.1499 34.28C31.1673 34.28 31.1846 34.28 31.2018 34.28C31.219 34.28 31.2362 34.28 31.2534 34.28C31.2705 34.28 31.2876 34.28 31.3046 34.28C31.3217 34.28 31.3387 34.28 31.3556 34.28C31.3726 34.28 31.3894 34.28 31.4063 34.28C31.4231 34.28 31.4399 34.28 31.4567 34.28C31.4734 34.28 31.4901 34.28 31.5068 34.28C31.5234 34.28 31.54 34.28 31.5566 34.28C31.5731 34.28 31.5896 34.28 31.606 34.28C31.6225 34.28 31.6389 34.28 31.6552 34.28C31.6716 34.28 31.6879 34.28 31.7041 34.28C31.7203 34.28 31.7365 34.28 31.7527 34.28C31.7688 34.28 31.7849 34.28 31.8009 34.28C31.817 34.28 31.833 34.28 31.8489 34.28C31.8648 34.28 31.8807 34.28 31.8965 34.28C31.9123 34.28 31.9281 34.28 31.9438 34.28C31.9596 34.28 31.9752 34.28 31.9908 34.28C32.0065 34.28 32.022 34.28 32.0375 34.28C32.053 34.28 32.0685 34.28 32.0839 34.28C32.0993 34.28 32.1147 34.28 32.1299 34.28C32.1452 34.28 32.1605 34.28 32.1757 34.28C32.1909 34.28 32.206 34.28 32.2211 34.28C32.2361 34.28 32.2512 34.28 32.2661 34.28C32.2811 34.28 32.296 34.28 32.3109 34.28C32.3257 34.28 32.3405 34.28 32.3553 34.28C32.37 34.28 32.3847 34.28 32.3994 34.28C32.414 34.28 32.4286 34.28 32.4431 34.28C32.4576 34.28 32.4721 34.28 32.4865 34.28C32.5009 34.28 32.5153 34.28 32.5296 34.28C32.5439 34.28 32.5581 34.28 32.5723 34.28C32.5865 34.28 32.6006 34.28 32.6147 34.28C32.6288 34.28 32.6428 34.28 32.6567 34.28C32.6707 34.28 32.6846 34.28 32.6985 34.28C32.7123 34.28 32.7261 34.28 32.7398 34.28C32.7535 34.28 32.7672 34.28 32.7808 34.28C32.7944 34.28 32.808 34.28 32.8215 34.28C32.835 34.28 32.8484 34.28 32.8618 34.28C32.8751 34.28 32.8885 34.28 32.9017 34.28C32.915 34.28 32.9282 34.28 32.9413 34.28C32.9544 34.28 32.9675 34.28 32.9805 34.28C32.9936 34.28 33.0065 34.28 33.0194 34.28C33.0323 34.28 33.0452 34.28 33.0579 34.28C33.0707 34.28 33.0834 34.28 33.0961 34.28C33.1088 34.28 33.1213 34.28 33.1339 34.28C33.1464 34.28 33.1589 34.28 33.1713 34.28C33.1837 34.28 33.1961 34.28 33.2084 34.28C33.2206 34.28 33.2329 34.28 33.245 34.28C33.2572 34.28 33.2693 34.28 33.2814 34.28C33.2934 34.28 33.3054 34.28 33.3173 34.28C33.3292 34.28 33.3411 34.28 33.3529 34.28C33.3647 34.28 33.3764 34.28 33.388 34.28C33.3997 34.28 33.4113 34.28 33.4229 34.28C33.4344 34.28 33.4459 34.28 33.4573 34.28C33.4687 34.28 33.48 34.28 33.4913 34.28C33.5026 34.28 33.5138 34.28 33.525 34.28C33.5361 34.28 33.5472 34.28 33.5583 34.28C33.5693 34.28 33.5803 34.28 33.5912 34.28C33.6021 34.28 33.6129 34.28 33.6237 34.28C33.6344 34.28 33.6451 34.28 33.6558 34.28C33.6664 34.28 33.677 34.28 33.6875 34.28C33.698 34.28 33.7084 34.28 33.7188 34.28C33.7292 34.28 33.7395 34.28 33.7497 34.28C33.76 34.28 33.7701 34.28 33.7802 34.28C33.7903 34.28 33.8004 34.28 33.8104 34.28C33.8203 34.28 33.8302 34.28 33.8401 34.28C33.8499 34.28 33.8597 34.28 33.8694 34.28C33.8791 34.28 33.8887 34.28 33.8983 34.28C33.9079 34.28 33.9174 34.28 33.9268 34.28C33.9363 34.28 33.9456 34.28 33.9549 34.28C33.9642 34.28 33.9734 34.28 33.9826 34.28C33.9918 34.28 34.0009 34.28 34.0099 34.28C34.0189 34.28 34.0278 34.28 34.0367 34.28C34.0456 34.28 34.0544 34.28 34.0632 34.28C34.0719 34.28 34.0806 34.28 34.0892 34.28C34.0978 34.28 34.1063 34.28 34.1148 34.28C34.1233 34.28 34.1317 34.28 34.14 34.28C34.1483 34.28 34.1566 34.28 34.1647 34.28C34.1729 34.28 34.181 34.28 34.1891 34.28C34.1971 34.28 34.2051 34.28 34.213 34.28C34.2209 34.28 34.2287 34.28 34.2365 34.28C34.2442 34.28 34.2519 34.28 34.2595 34.28C34.2671 34.28 34.2747 34.28 34.2821 34.28C34.2896 34.28 34.297 34.28 34.3043 34.28C34.3116 34.28 34.3189 34.28 34.3261 34.28C34.3332 34.28 34.3403 34.28 34.3474 34.28C34.3544 34.28 34.3614 34.28 34.3682 34.28C34.3751 34.28 34.3819 34.28 34.3887 34.28C34.3954 34.28 34.4021 34.28 34.4086 34.28C34.4152 34.28 34.4217 34.28 34.4282 34.28C34.4346 34.28 34.441 34.28 34.4473 34.28C34.4536 34.28 34.4598 34.28 34.4659 34.28C34.4721 34.28 34.4781 34.28 34.4841 34.28C34.4901 34.28 34.496 34.28 34.5019 34.28C34.5077 34.28 34.5135 34.28 34.5192 34.28C34.5248 34.28 34.5304 34.28 34.536 34.28C34.5415 34.28 34.547 34.28 34.5524 34.28C34.5577 34.28 34.563 34.28 34.5683 34.28C34.5735 34.28 34.5787 34.28 34.5837 34.28C34.5888 34.28 34.5938 34.28 34.5987 34.28C34.6037 34.28 34.6085 34.28 34.6133 34.28C34.618 34.28 34.6227 34.28 34.6273 34.28C34.6319 34.28 34.6365 34.28 34.6409 34.28C34.6454 34.28 34.6497 34.28 34.654 34.28V34.08ZM6.13405 34.08V33.88C6.14754 33.88 6.16232 33.8834 6.17579 33.8904C6.18857 33.8971 6.19622 33.9049 6.1999 33.9094C6.20342 33.9137 6.20395 33.9158 6.20324 33.9141C6.20258 33.9124 6.20147 33.9089 6.20072 33.9038C6.19998 33.8987 6.19983 33.8935 6.20017 33.8891C6.20052 33.8845 6.20124 33.8823 6.20118 33.8825C6.20116 33.8825 6.1996 33.8873 6.19417 33.8943C6.18842 33.9017 6.17845 33.9114 6.16349 33.9189L6.07405 33.74L5.9846 33.5611C5.89356 33.6066 5.84513 33.6866 5.82222 33.7544C5.79914 33.8228 5.79534 33.8956 5.80487 33.9612C5.81429 34.0262 5.83908 34.0995 5.88913 34.1612C5.94242 34.227 6.02632 34.28 6.13405 34.28V34.08ZM22.864 30.24C22.9184 30.4325 22.9184 30.4325 22.9185 30.4324C22.9185 30.4324 22.9186 30.4324 22.9187 30.4324C22.9189 30.4323 22.9193 30.4322 22.9198 30.4321C22.9207 30.4318 22.9222 30.4314 22.9242 30.4308C22.9281 30.4297 22.9341 30.4281 22.9419 30.4259C22.9577 30.4215 22.9813 30.4149 23.0122 30.4064C23.0741 30.3895 23.1655 30.3646 23.283 30.3335C23.5179 30.2712 23.8572 30.1834 24.2738 30.082C25.1073 29.879 26.2492 29.6216 27.4839 29.4032C28.7193 29.1846 30.0432 29.0059 31.2418 28.9591C32.4472 28.9119 33.4992 28.9997 34.2071 29.2946L34.284 29.11L34.3609 28.9254C33.5688 28.5953 32.4433 28.5118 31.2262 28.5594C30.0023 28.6072 28.6588 28.7891 27.4142 29.0093C26.1688 29.2296 25.0182 29.4891 24.1792 29.6933C23.7596 29.7955 23.4176 29.8839 23.1804 29.9469C23.0618 29.9783 22.9693 30.0034 22.9064 30.0207C22.8749 30.0293 22.8508 30.036 22.8346 30.0405C22.8264 30.0428 22.8203 30.0445 22.8161 30.0457C22.814 30.0463 22.8124 30.0467 22.8113 30.0471C22.8108 30.0472 22.8104 30.0473 22.8101 30.0474C22.8099 30.0474 22.8098 30.0475 22.8098 30.0475C22.8097 30.0475 22.8096 30.0475 22.864 30.24ZM34.284 29.11L34.1964 29.2898C34.2872 29.334 34.3635 29.4034 34.4162 29.4895L34.5868 29.3851L34.7574 29.2808C34.6649 29.1295 34.531 29.0079 34.3716 28.9302L34.284 29.11ZM34.5868 29.3851L34.4162 29.4895C34.469 29.5757 34.496 29.6752 34.494 29.7762L34.694 29.78L34.894 29.7838C34.8973 29.6065 34.8499 29.432 34.7574 29.2808L34.5868 29.3851ZM34.694 29.78L34.494 29.7777L34.444 34.1677L34.644 34.17L34.844 34.1723L34.894 29.7823L34.694 29.78ZM32.224 11.33H32.024C32.024 13.2796 30.4436 14.86 28.494 14.86V15.06V15.26C30.6645 15.26 32.424 13.5005 32.424 11.33H32.224ZM28.494 15.06V14.86C26.5445 14.86 24.964 13.2796 24.964 11.33H24.764H24.564C24.564 13.5005 26.3236 15.26 28.494 15.26V15.06ZM24.764 11.33H24.964C24.964 9.38043 26.5445 7.8 28.494 7.8V7.6V7.4C26.3236 7.4 24.564 9.15952 24.564 11.33H24.764ZM28.494 7.6V7.8C30.4436 7.8 32.024 9.38043 32.024 11.33H32.224H32.424C32.424 9.15952 30.6645 7.4 28.494 7.4V7.6ZM28.494 5H28.294V6.2H28.494H28.694V5H28.494ZM33.9941 8.11L33.8872 7.94094L32.8272 8.61094L32.9341 8.78L33.0409 8.94906L34.1009 8.27906L33.9941 8.11ZM33.6741 11.33V11.53H34.8541V11.33V11.13H33.6741V11.33ZM30.954 15.86L30.783 15.9638L31.603 17.3138L31.774 17.21L31.9449 17.1062L31.1249 15.7562L30.954 15.86ZM28.494 16.46H28.294V17.95H28.494H28.694V16.46H28.494ZM25.884 15.86L25.7107 15.7602L24.9507 17.0802L25.124 17.18L25.2973 17.2798L26.0573 15.9598L25.884 15.86ZM23.304 11.33V11.13H21.834V11.33V11.53H23.304V11.33ZM25.264 5.76L25.0887 5.85621L25.7087 6.98621L25.884 6.89L26.0594 6.7938L25.4394 5.6638L25.264 5.76ZM22.7941 8.04L22.6928 8.21246L23.9528 8.95246L24.0541 8.78L24.1554 8.60754L22.8954 7.86754L22.7941 8.04ZM22.574 14.74L22.6709 14.9149L24.1509 14.0949L24.054 13.92L23.957 13.7451L22.477 14.5651L22.574 14.74ZM32.9341 13.86L32.8268 14.0288L34.0068 14.7788L34.1141 14.61L34.2214 14.4412L33.0414 13.6912L32.9341 13.86ZM31.624 5.76L31.4519 5.658L30.7819 6.788L30.954 6.89L31.126 6.992L31.796 5.862L31.624 5.76ZM7.65405 21.03L7.85405 21.03C7.85404 20.7609 7.96036 20.5027 8.14984 20.3117L8.00784 20.1708L7.86584 20.03C7.60205 20.296 7.45404 20.6554 7.45405 21.03L7.65405 21.03ZM8.00784 20.1708L8.14984 20.3117C8.33932 20.1206 8.59662 20.0122 8.86569 20.01L8.86405 19.81L8.86241 19.61C8.48783 19.6131 8.12963 19.764 7.86584 20.03L8.00784 20.1708ZM8.86405 19.81V20.01C8.998 20.01 9.13064 20.0364 9.25439 20.0876L9.33093 19.9029L9.40746 19.7181C9.23518 19.6467 9.05053 19.61 8.86405 19.61V19.81ZM9.33093 19.9029L9.25439 20.0876C9.37814 20.1389 9.49059 20.214 9.5853 20.3087L9.72672 20.1673L9.86814 20.0259C9.73629 19.894 9.57975 19.7895 9.40746 19.7181L9.33093 19.9029ZM9.72672 20.1673L9.5853 20.3087C9.68002 20.4035 9.75515 20.5159 9.80641 20.6397L9.99119 20.5631L10.176 20.4866C10.1046 20.3143 10 20.1578 9.86814 20.0259L9.72672 20.1673ZM9.99119 20.5631L9.80641 20.6397C9.85767 20.7634 9.88405 20.896 9.88405 21.03L10.0841 21.03L10.2841 21.03C10.2841 20.8435 10.2473 20.6589 10.176 20.4866L9.99119 20.5631ZM17.1341 17.28L17.3341 17.2781C17.3316 17.0172 17.4301 16.7656 17.6091 16.5757L17.4635 16.4385L17.318 16.3014C17.0682 16.5664 16.9306 16.9177 16.9341 17.2819L17.1341 17.28ZM17.4635 16.4385L17.6091 16.5757C17.788 16.3859 18.0335 16.2727 18.294 16.2598L18.2841 16.06L18.2742 15.8602C17.9105 15.8783 17.5678 16.0364 17.318 16.3014L17.4635 16.4385ZM18.2841 16.06L18.2824 16.26C18.4151 16.2611 18.5462 16.2883 18.6683 16.3401L18.7464 16.1559L18.8244 15.9718C18.654 15.8995 18.4709 15.8615 18.2857 15.86L18.2841 16.06ZM18.7464 16.1559L18.6683 16.3401C18.7904 16.3918 18.9012 16.4671 18.9942 16.5617L19.1368 16.4215L19.2794 16.2812C19.1495 16.1492 18.9949 16.0441 18.8244 15.9718L18.7464 16.1559ZM19.1368 16.4215L18.9942 16.5617C19.0872 16.6563 19.1607 16.7682 19.2104 16.8912L19.3958 16.8162L19.5812 16.7412C19.5118 16.5695 19.4092 16.4132 19.2794 16.2812L19.1368 16.4215ZM19.3958 16.8162L19.2104 16.8912C19.2602 17.0141 19.2852 17.1457 19.2841 17.2783L19.4841 17.28L19.6841 17.2817C19.6856 17.0965 19.6507 16.9128 19.5812 16.7412L19.3958 16.8162Z" fill="#737373"/>
</svg>
