<svg width="40" height="40" viewBox="0 0 40 40" fill="none" xmlns="http://www.w3.org/2000/svg">
<path d="M9.72947 27.4731L6.3455 22.8166C6.16427 22.5654 6.06609 22.2646 6.06452 21.9556V21.0704C6.07046 20.9469 6.12256 20.83 6.21065 20.7426C6.29875 20.6551 6.41652 20.6034 6.54096 20.5975H25.3544C25.5569 20.5986 25.7557 20.5436 25.9283 20.4386C26.101 20.3336 26.2407 20.1829 26.3317 20.0033L26.7593 19.1666C26.8466 18.9963 26.9794 18.8531 27.1431 18.7525C27.3068 18.652 27.4952 18.5981 27.6877 18.5967H35.4574C35.5347 18.596 35.6111 18.6118 35.6816 18.643C35.7521 18.6742 35.815 18.7202 35.866 18.7777C35.917 18.8353 35.9549 18.903 35.9772 18.9764C35.9994 19.0498 36.0055 19.1271 35.995 19.203C35.7384 20.9613 34.8833 26.0301 31.8169 27.5822M6.29671 22.4286L35.2376 22.4528M29.3248 18.4148L30.1067 16.4746C30.1995 16.2633 30.3511 16.0826 30.5436 15.9537C30.7362 15.8249 30.9618 15.7532 31.1939 15.747H33.8571V18.5724M33.8571 12V15.7349M31.646 12.7639V15.7349M9.74172 18.5724H8.33682C8.27002 18.574 8.20357 18.5624 8.14139 18.5381C8.0792 18.5139 8.02253 18.4775 7.97472 18.4312C7.92691 18.3848 7.88892 18.3295 7.86298 18.2683C7.83705 18.2072 7.8237 18.1416 7.82372 18.0752V16.6929C7.82372 16.6929 7.68934 15.7106 9.04537 15.6621H21.2008C21.5617 15.6395 21.9181 15.7513 22.2005 15.9755C22.4828 16.1997 22.6709 16.5203 22.7279 16.8747C22.7279 16.8747 23.1432 18.5239 22.7279 18.5239H21.1153M17.9513 18.5724H12.7715M10.5236 15.6621L11.7452 13.7826C11.8346 13.6409 11.959 13.5242 12.1065 13.4436C12.254 13.363 12.4198 13.321 12.5882 13.3218H16.6563C16.8511 13.3178 17.0444 13.3571 17.2219 13.4368C17.3995 13.5166 17.5568 13.6347 17.6825 13.7826L19.3195 15.6621M4 26.3332C4.9314 26.4357 5.81346 26.802 6.54103 27.3882C6.95212 27.6838 7.43047 27.8739 7.93349 27.9416C8.43651 28.0093 8.94859 27.9525 9.42413 27.7762C10.0515 27.5438 10.66 27.2641 11.2444 26.9395C11.6626 26.7034 12.1321 26.5713 12.6129 26.5544C13.0936 26.5375 13.5714 26.6363 14.0053 26.8425C14.3834 27.0232 14.7505 27.2256 15.1048 27.4488C15.5612 27.7568 16.0966 27.9295 16.6482 27.9467C17.1999 27.9638 17.745 27.8248 18.22 27.5458C18.4155 27.4246 18.6109 27.2912 18.8186 27.1335C19.118 26.8949 19.4625 26.7183 19.8318 26.6142C20.2011 26.51 20.5877 26.4805 20.9687 26.5272C21.6709 26.6066 22.3402 26.8657 22.9112 27.2791C23.492 27.7777 24.2443 28.0346 25.0113 27.9962C25.7783 27.9578 26.5008 27.6271 27.0281 27.0729C27.0281 27.0729 27.0281 27.0123 27.1136 26.988C27.9199 26.2483 29.1294 25.6299 31.4749 27.3154C31.8908 27.6499 32.3925 27.8624 32.9236 27.9288C33.4546 27.9953 33.9938 27.913 34.4802 27.6914C34.8958 27.4829 35.2621 27.1895 35.5553 26.8304M31.426 20.3186H31.878V20.7188H31.426V20.3186ZM33.4051 20.3186H33.8571V20.7188H33.4051V20.3186ZM12.7715 19.0817C12.7715 19.939 12.0714 20.6339 11.2077 20.6339C10.3441 20.6339 9.64402 19.939 9.64402 19.0817C9.64402 18.2245 10.3441 17.5296 11.2077 17.5296C12.0714 17.5296 12.7715 18.2245 12.7715 19.0817ZM21.0787 19.0817C21.0787 19.939 20.3786 20.6339 19.515 20.6339C18.6514 20.6339 17.9513 19.939 17.9513 19.0817C17.9513 18.2245 18.6514 17.5296 19.515 17.5296C20.3786 17.5296 21.0787 18.2245 21.0787 19.0817Z" stroke="#737373" stroke-width="0.4" stroke-miterlimit="10" stroke-linecap="round"/>
</svg>
