<svg width="40" height="40" viewBox="0 0 40 40" fill="none" xmlns="http://www.w3.org/2000/svg">
<path d="M17.8868 19.6116C18.1016 19.6116 18.2757 19.4349 18.2757 19.217C18.2757 18.9991 18.1016 18.8225 17.8868 18.8225C17.672 18.8225 17.4978 18.9991 17.4978 19.217C17.4978 19.4349 17.672 19.6116 17.8868 19.6116Z" fill="#231F20"/>
<path d="M22.5905 19.6116C22.8053 19.6116 22.9794 19.4349 22.9794 19.217C22.9794 18.9991 22.8053 18.8225 22.5905 18.8225C22.3757 18.8225 22.2015 18.9991 22.2015 19.217C22.2015 19.4349 22.3757 19.6116 22.5905 19.6116Z" fill="#231F20"/>
<path d="M35 32.0284C34.6836 32.539 34.2704 32.9808 33.7842 33.3279C33.298 33.6751 32.7487 33.9207 32.1681 34.0506C31.3397 34.1971 30.4868 34.0673 29.7372 33.6806C28.8831 33.2159 27.9224 32.9904 26.9539 33.0271C26.2638 33.0237 25.5878 33.2252 25.0092 33.6067C24.2994 34.0912 23.4761 34.3772 22.6225 34.4356C21.7688 34.4941 20.9151 34.323 20.1475 33.9396C19.6458 33.3889 18.9715 33.0315 18.2393 32.9285C17.4156 32.7984 16.5738 32.9877 15.8814 33.4587C15.3133 33.8762 14.6628 34.164 13.9746 34.3023C13.2865 34.4407 12.577 34.4263 11.8948 34.2602C11.7121 34.2126 11.545 34.1168 11.4105 33.9825C11.276 33.8483 11.1789 33.6803 11.1291 33.4957L8.11486 22.7682C8.06823 22.6059 8.07504 22.4326 8.13426 22.2746C8.19349 22.1166 8.30189 21.9826 8.44303 21.8927L20.0017 14.4944L31.4631 21.8927C31.6347 22.0041 31.7664 22.1686 31.8386 22.3618C31.9108 22.555 31.9198 22.7667 31.8642 22.9655L28.9594 33.0395M20.0867 14.5931V33.4094M24.2313 19.9938L28.8256 23.0148M16.1731 19.9938L11.6882 23.1628M19.6249 14.8027H12.855V12.7559C12.855 12.5727 12.9267 12.3971 13.0544 12.2676C13.182 12.1381 13.3551 12.0653 13.5356 12.0653H26.6622C26.8406 12.0686 27.0106 12.1428 27.1356 12.2719C27.2607 12.401 27.3307 12.5748 27.3307 12.7559V14.8027M20.5972 14.8027H28.461C28.6254 14.8027 28.7831 14.869 28.8993 14.9869C29.0156 15.1048 29.0809 15.2648 29.0809 15.4316V19.9938M11.1047 20.2158V15.4316C11.1047 15.2648 11.17 15.1048 11.2863 14.9869C11.4025 14.869 11.5602 14.8027 11.7246 14.8027H19.0171M6 35C6 35 7.51928 32.0654 11.5788 34.0506M19.3088 5H20.9132C21.0712 5.00944 21.2196 5.07985 21.3281 5.19677C21.4366 5.3137 21.4968 5.46829 21.4966 5.62885V10.0308H18.6889V5.62885C18.6889 5.46207 18.7542 5.30212 18.8705 5.18419C18.9867 5.06625 19.1444 5 19.3088 5ZM15.8449 10.0308H24.4623C24.588 10.0308 24.7086 10.0815 24.7974 10.1717C24.8863 10.2619 24.9363 10.3842 24.9363 10.5117V12.09H15.4195V10.5117C15.4189 10.3923 15.4621 10.2769 15.5408 10.188C15.6194 10.0991 15.7278 10.0431 15.8449 10.0308ZM18.2757 19.217C18.2757 19.4349 18.1016 19.6116 17.8868 19.6116C17.672 19.6116 17.4978 19.4349 17.4978 19.217C17.4978 18.9991 17.672 18.8225 17.8868 18.8225C18.1016 18.8225 18.2757 18.9991 18.2757 19.217ZM22.9794 19.217C22.9794 19.4349 22.8053 19.6116 22.5905 19.6116C22.3757 19.6116 22.2015 19.4349 22.2015 19.217C22.2015 18.9991 22.3757 18.8225 22.5905 18.8225C22.8053 18.8225 22.9794 18.9991 22.9794 19.217Z" stroke="#737373" stroke-width="0.5" stroke-miterlimit="10" stroke-linecap="round"/>
</svg>
