<svg width="40" height="40" viewBox="0 0 40 40" fill="none" xmlns="http://www.w3.org/2000/svg">
<path d="M18.5018 11.8882C18.5018 11.8882 14.0848 12.9073 14.8985 18.5312C15.1305 19.3991 15.5629 20.2039 16.1627 20.8842C16.7626 21.5645 17.514 22.1023 18.3598 22.4567M19.1735 12.0391C19.1735 12.0391 16.2547 17.7889 19.2768 22.3938M20.8007 12.0391C21.6779 13.6084 22.1375 15.3667 22.1375 17.1535C22.1375 18.9404 21.6779 20.6987 20.8007 22.2679M21.4594 11.8882C22.6844 12.264 23.7388 13.0399 24.4446 14.0851C25.1505 15.1303 25.4646 16.3807 25.334 17.6253C25.2708 18.7224 24.8662 19.7746 24.1741 20.6422C23.4819 21.5097 22.5351 22.1514 21.4594 22.4818M29.2344 19.3616V23.891C28.8057 23.9328 28.4019 24.1066 28.0814 24.3871C27.761 24.6676 27.5405 25.0403 27.4521 25.4511C26.9969 25.4866 26.5564 25.6249 26.1655 25.8548C25.7746 26.0848 25.4439 26.4001 25.1996 26.776C24.9553 27.1519 24.8041 27.5779 24.758 28.0205C24.7118 28.4631 24.772 28.9101 24.9337 29.3262C24.9337 29.3262 25.6569 31.4147 29.0278 31.1631L31.7271 31.0247C32.2541 30.8229 32.7113 30.479 33.0452 30.0335C33.3791 29.5879 33.5759 29.0589 33.6127 28.5084C33.6893 27.7279 33.45 26.9492 32.9458 26.3381C32.4416 25.7271 31.7123 25.332 30.9134 25.2372C30.9134 25.2372 30.978 23.979 29.3636 23.891M27.1033 25.4637H31.6107M28.5758 31.1631C27.954 30.3777 27.5842 29.4309 27.513 28.4415C27.4417 27.4521 27.6722 26.4643 28.1754 25.6021M30.0997 25.6021C30.711 26.3562 31.0625 27.279 31.1042 28.239C31.146 29.199 30.8758 30.1474 30.3322 30.9492M28.4724 31.2637V33M30.0997 31.2637V33M27.8782 19.3616C30.0035 19.1406 32.0741 18.5661 34 17.6631M6.15498 17.6631C8.03489 18.4737 10.0144 19.0446 12.0443 19.3616M10.714 19.3616V23.6896C10.7224 23.7005 10.7269 23.7138 10.7269 23.7274C10.7269 23.741 10.7224 23.7542 10.714 23.7651C10.4428 23.8532 8.95756 24.0293 8.91882 25.5391C8.91882 25.5391 5.74169 26.1934 6.55534 29.0242C6.55534 29.0242 6.86531 31.1002 9.80996 31.1253L13.2067 31.0247C13.7822 30.8894 14.2925 30.5656 14.6522 30.1075C15.0119 29.6494 15.1992 29.0849 15.1827 28.5084C15.1827 28.5084 15.1827 25.665 12.5996 25.4888C12.5996 25.4888 12.8321 24.0923 10.7657 23.7274M9.00918 25.4511L10.0166 25.4762L12.5479 25.514M9.83581 25.514C9.83581 25.514 7.69189 28.5965 9.93913 31.1253L9.93919 33M11.6181 25.514C12.2119 26.302 12.5321 27.254 12.5321 28.2316C12.5321 29.2091 12.2119 30.1612 11.6181 30.9492M11.6181 31.1253V33M6 6C10.3775 7.77362 15.0717 8.68669 19.8128 8.68669C24.5538 8.68669 29.248 7.77362 33.6255 6M18.1274 11.7372C18.1274 11.7372 18.037 10.3532 20.0001 10.3532C20.4641 10.3459 20.9148 10.5045 21.267 10.7989C21.6191 11.0933 21.8484 11.5032 21.9115 11.9511M19.9614 8.86859L20.0001 10.2903M17.6624 11.8882H16.8874C16.2166 11.8843 15.5538 12.0306 14.9502 12.3159C13.2841 13.096 10.559 15.0839 12.3671 19.3616C12.7703 20.3888 13.5176 21.2533 14.488 21.815C15.4585 22.3768 16.5952 22.6029 17.714 22.4567H22.3247C22.3247 22.4567 27.2067 22.8215 28.1753 18.4809C28.1753 18.4809 29.0535 12.1901 23.3709 11.8756C21.9114 11.8253 17.6624 11.8882 17.6624 11.8882ZM17.1588 22.4567H22.8156C23.051 22.4567 23.2418 22.6426 23.2418 22.8719V23.7022C23.2418 23.9315 23.051 24.1174 22.8156 24.1174H17.1588C16.9234 24.1174 16.7326 23.9315 16.7326 23.7022V22.8719C16.7326 22.6426 16.9234 22.4567 17.1588 22.4567Z" stroke="#737373" stroke-width="0.4" stroke-miterlimit="10" stroke-linecap="round"/>
</svg>
