<svg width="40" height="40" viewBox="0 0 40 40" fill="none" xmlns="http://www.w3.org/2000/svg">
<path d="M7.92009 28.0747C7.70493 27.5901 7.39303 27.1544 7.00344 26.7942C6.61386 26.434 6.15477 26.1568 5.65423 25.9797C5.50417 25.9188 5.36991 25.8248 5.26155 25.7046C5.15319 25.5845 5.07357 25.4413 5.02869 25.286L4.63947 23.8986C4.61953 23.8309 4.61604 23.7595 4.62927 23.6902C4.64251 23.6209 4.67209 23.5558 4.71557 23.5002C4.75904 23.4446 4.81517 23.4001 4.87929 23.3705C4.94341 23.3408 5.01369 23.3269 5.0843 23.3297C8.49003 23.4685 25.4214 24.0789 29.4944 22.4002C31.5008 22.0848 33.4873 21.654 35.444 21.1099L36 19.6114L34.4709 19.7641L33.8454 21.3041M4.4865 25.8132C4.4865 25.8132 21.9322 27.7694 28.6046 25.397C28.6046 25.397 34.165 24.5645 35.1103 23.4823M35.3605 21.4151C34.9655 23.8761 33.8976 26.1806 32.2745 28.0747M11.8819 23.3852V17.9743H11.3537C11.3537 17.9743 12.9106 18.0437 13.6056 17.9743C13.8697 17.9743 13.6056 16.4481 13.6056 16.4481H21.4179M20.8896 16.6285L19.7915 23.3991M20.3475 18.5848H17.4978C17.3762 18.5848 17.2595 18.633 17.1735 18.7189C17.0874 18.8047 17.0391 18.9212 17.0391 19.0426V20.7214C17.0391 20.8428 17.0874 20.9593 17.1735 21.0451C17.2595 21.131 17.3762 21.1792 17.4978 21.1792H20.1529M15.7324 23.3852V19.6808C15.7287 19.5618 15.6788 19.4489 15.5932 19.366C15.5075 19.2831 15.3929 19.2368 15.2736 19.2368H13.953C13.8351 19.2368 13.7219 19.2836 13.6385 19.3669C13.5551 19.4501 13.5082 19.5631 13.5082 19.6808V23.5378M14.8983 14.2699V16.3094M24.7681 23.2465V6.48649C24.7681 6.48649 24.6569 6.07027 25.3241 6.0009C25.3891 5.99683 25.4542 6.00661 25.515 6.02958C25.5759 6.05254 25.6312 6.08817 25.6772 6.1341C25.7232 6.18003 25.7589 6.2352 25.7819 6.29596C25.8049 6.35672 25.8147 6.42167 25.8107 6.48649V22.8719M26.0191 7.1802L28.8131 10.1354M26.019 13.049L28.966 10.2741C28.966 10.2741 29.3969 9.83015 29.6889 10.1909C29.6889 10.1909 30.0503 10.399 29.5221 10.954L25.8105 14.5612M35.3605 19.3617L29.8001 11.3702C29.8001 11.3702 31.1207 19.7641 29.4943 22.4695M21.0982 20.985V23.5517M23.4196 20.985V23.3436M9.15721 13.2848L5.69587 23.2465M4 27.7278C4.38088 28.072 4.87632 28.2626 5.39009 28.2626C5.90387 28.2626 6.39931 28.072 6.78019 27.7278C7.33623 27.2145 7.82276 29.4066 9.78279 27.7278C10.3527 27.2422 10.4083 29.1152 12.7854 27.7278C13.1885 27.492 13.3136 28.8378 14.6481 27.7278C15.232 27.2422 15.6212 29.1152 17.6924 27.7278C18.1373 27.4365 18.5821 28.4909 19.8193 27.7278C19.9992 27.6345 20.2053 27.6043 20.4045 27.642C20.6037 27.6798 20.7843 27.7833 20.9174 27.9359M29.6333 28.0747C29.9517 28.06 30.2515 27.9204 30.4673 27.6862C30.8565 27.2145 30.9678 28.8794 32.8861 27.8804C33.456 27.5752 34.8044 28.7129 35.4578 27.6307M29.9948 20.985C29.7246 22.9691 28.8955 24.836 27.6038 26.3681C27.6038 26.3681 18.2346 27.1728 16.1633 32.8751M27.868 26.4514C27.868 26.4514 32.6638 29.6979 31.4266 32.8474M17.2337 31.3767C17.4367 31.7186 17.7663 31.967 18.1512 32.0683C18.5362 32.1695 18.9457 32.1155 19.2911 31.9178C19.7063 32.1619 20.1677 32.3176 20.6462 32.3749C21.1247 32.4322 21.6099 32.3899 22.0713 32.2508C22.5684 32.5278 23.1283 32.6733 23.6977 32.6733C24.267 32.6733 24.8269 32.5278 25.3241 32.2508C25.3241 32.2508 27.4509 33.0139 28.3823 32.0149C28.3823 32.0149 29.3693 33.1804 31.5795 32.0149M18.6794 29.6702C18.6794 29.6702 18.5404 30.4749 20.5839 30.3639C20.5839 30.3639 20.9731 31.2241 22.8914 30.5304C23.3158 30.8239 23.8137 30.9936 24.3293 31.0205C24.8449 31.0475 25.3578 30.9306 25.8106 30.683C25.8106 30.683 27.7985 31.5987 28.6742 30.7663C28.6742 30.7663 30.8011 30.9883 30.9262 29.6702M20.6395 28.1857C20.6395 28.1857 20.3892 28.8932 21.6403 28.9487C21.6403 28.9487 23.0304 29.7257 24.0452 28.9487C24.0452 28.9487 25.8801 29.8367 26.5891 28.7406C26.5891 28.7406 27.1312 30.0448 28.2989 28.9071C28.2989 28.9071 29.5222 29.4205 29.689 28.2967M28.1738 32.8474C29.7585 30.4472 27.6039 26.7011 27.6039 26.7011C26.2566 28.5331 25.4522 30.7061 25.2824 32.9723M27.2979 26.826C25.9385 27.3075 24.7246 28.1272 23.771 29.2076C22.8175 30.288 22.1559 31.5933 21.8488 33M27.2979 26.6734C27.2979 26.6734 20.8618 27.2977 19.0686 32.8474M9.1572 23.4685V12.8825C9.1572 12.8825 9.1572 12.2998 9.65763 12.3275C9.65763 12.3275 10.2276 12.2304 10.2276 12.8825M10.2276 12.8825V23.5378M10.2276 12.8825L24.7958 6.9721M18.2763 16.3649V15.6712M17.3727 13.9785C17.2754 14.367 17.1364 15.1162 17.3727 15.3659C17.663 15.5226 17.9879 15.6046 18.318 15.6046C18.648 15.6046 18.9729 15.5226 19.2632 15.3659C19.5551 15.144 19.6385 13.8953 19.2632 13.8675C18.8879 13.8398 17.5117 13.5207 17.3727 13.9785ZM14.0643 12.8963V14.1728C14.0643 14.1728 15.5378 14.1728 16.0104 14.1728C16.483 14.1728 15.9826 12.7021 14.0643 12.8963ZM23.4753 21.2763C23.4753 21.9276 22.9463 22.4556 22.2937 22.4556C21.6412 22.4556 21.1121 21.9276 21.1121 21.2763C21.1121 20.625 21.6412 20.097 22.2937 20.097C22.9463 20.097 23.4753 20.625 23.4753 21.2763Z" stroke="#737373" stroke-width="0.4" stroke-miterlimit="10" stroke-linecap="round"/>
</svg>
