<svg width="40" height="40" viewBox="0 0 40 40" fill="none" xmlns="http://www.w3.org/2000/svg">
<path d="M16.2944 22.2942L17.7905 25.6076C17.9967 26.0695 18.1026 26.5696 18.1012 27.0751V33.9541M21.8183 33.9771V26.9719C21.8186 26.4677 21.9204 25.9687 22.1175 25.5044L23.3835 22.6381C23.3888 22.6259 23.3977 22.6154 23.4089 22.6081C23.4202 22.6007 23.4333 22.5968 23.4467 22.5968C23.4602 22.5968 23.4733 22.6007 23.4846 22.6081C23.4958 22.6154 23.5047 22.6259 23.51 22.6381C23.8208 23.177 25.1212 25.0573 27.0776 22.7757C27.1209 22.7265 27.1788 22.6922 27.2429 22.6778C27.307 22.6633 27.374 22.6695 27.4344 22.6955C27.7695 22.888 28.1561 22.9726 28.5414 22.9377C28.9267 22.9028 29.2917 22.7501 29.5864 22.5005C30.0813 22.0993 30.2769 24.2318 31.8305 23.6471C31.8305 23.6471 32.9814 23.5095 33.3036 21.8814C33.3148 21.8014 33.3548 21.7282 33.4162 21.6755C33.4777 21.6227 33.5562 21.594 33.6373 21.5948C34.2703 21.5948 35.7779 21.4572 35.9965 19.3018C36.0291 18.7119 35.8318 18.1323 35.4459 17.6837C35.06 17.2352 34.5152 16.9523 33.925 16.8941C33.0964 16.8139 33.925 14.2113 31.75 14.4291C31.6103 14.4422 31.47 14.4102 31.3499 14.338C31.2298 14.2658 31.136 14.1571 31.0825 14.0279C30.9812 13.6391 30.7987 13.2759 30.5469 12.9622C30.295 12.6485 29.9796 12.3912 29.6211 12.2072C29.2627 12.0233 28.8693 11.9168 28.4667 11.8946C28.0641 11.8725 27.6613 11.9353 27.2848 12.0788C27.2035 12.1105 27.1133 12.1103 27.0322 12.0784C26.9511 12.0465 26.8851 11.9852 26.8474 11.9068C26.6732 11.4513 26.3535 11.0655 25.9377 10.8086C25.5218 10.5518 25.0328 10.4381 24.5458 10.4852C24.397 10.5106 24.244 10.4801 24.1165 10.3996C23.9889 10.3191 23.8959 10.1944 23.8553 10.0495C23.7252 9.38136 23.3624 8.78044 22.8311 8.35267C22.494 7.9427 22.0724 7.60982 21.5948 7.37664C21.1171 7.14346 20.5947 7.01545 20.063 7.00131C19.5313 6.98717 19.0028 7.08723 18.5133 7.2947C18.0239 7.50216 17.585 7.81215 17.2265 8.20362C16.6823 8.72107 16.3227 9.40143 16.2023 10.1412C16.1984 10.1899 16.1842 10.2371 16.1606 10.2799C16.1369 10.3226 16.1045 10.3599 16.0653 10.3892C16.0261 10.4184 15.9811 10.4391 15.9333 10.4497C15.8855 10.4603 15.836 10.4607 15.788 10.4508C14.9709 10.2903 13.1181 10.2559 12.8764 13.0533C12.8588 13.219 12.7927 13.3758 12.6863 13.5042C12.5799 13.6326 12.4379 13.7271 12.278 13.7756C11.6299 13.9661 11.0707 14.3794 10.6998 14.942C10.3289 15.5047 10.1704 16.1801 10.2525 16.8483C10.2955 17.6144 10.6256 18.3365 11.1777 18.8716C11.7297 19.4066 12.4633 19.7157 13.2332 19.7375C13.3321 19.7361 13.4282 19.77 13.5042 19.8331C13.5802 19.8962 13.631 19.9843 13.6474 20.0814C13.7625 20.9184 14.361 22.9477 17.3301 21.9846C17.6629 21.765 17.9549 21.4896 18.1932 21.1706C18.2732 21.0634 18.3877 20.9868 18.5175 20.9534C18.6473 20.92 18.7847 20.932 18.9067 20.9872C19.3038 21.1681 19.7419 21.2411 20.1764 21.1988C20.611 21.1566 21.0266 21.0005 21.381 20.7464C21.5968 21.1832 21.9219 21.5573 22.3251 21.8324C22.7283 22.1075 23.1959 22.2745 23.6827 22.3171C24.3057 22.3518 24.9191 22.1517 25.4009 21.7566C25.8828 21.3616 26.1978 20.8004 26.2835 20.1846C26.3118 20.0685 26.3758 19.964 26.4666 19.8859C26.5574 19.8078 26.6704 19.7599 26.7899 19.7489C27.6415 19.7489 29.5864 19.2445 29.8396 16.3094C29.7408 15.6906 29.4742 15.1104 29.0685 14.6315C28.6629 14.1527 28.1336 13.7933 27.5379 13.5922C27.3312 13.5187 27.1536 13.381 27.0313 13.1994C26.9091 13.0177 26.8487 12.8017 26.859 12.5833C26.9061 12.3487 26.9061 12.1071 26.859 11.8724M18.4004 21.0445L19.6548 23.8993C19.679 23.9503 19.7173 23.9934 19.7652 24.0236C19.8131 24.0538 19.8686 24.0698 19.9252 24.0698C19.9819 24.0698 20.0374 24.0538 20.0853 24.0236C20.1331 23.9934 20.1714 23.9503 20.1957 23.8993L21.3465 21.056M10.287 22.7872L11.4378 25.149C11.4503 25.1814 11.4724 25.2093 11.5012 25.229C11.53 25.2487 11.564 25.2592 11.5989 25.2592C11.6338 25.2592 11.6679 25.2487 11.6967 25.229C11.7254 25.2093 11.7475 25.1814 11.76 25.149L12.8418 22.5808M8.62986 23.7846L9.84974 26.3069C9.99924 26.6144 10.0779 26.9513 10.0799 27.2929V34M6.23614 33.9771C6.23614 33.9771 5.30397 31.042 7.73222 30.1477C7.86224 30.094 7.97612 30.0077 8.06282 29.8972C8.14952 29.7868 8.2061 29.6558 8.22708 29.5172C8.28511 29.0477 8.49898 28.6111 8.83469 28.2766C9.1704 27.9422 9.6087 27.7291 10.0799 27.6713M7.84724 32.7732L8.23852 33.9771M14.7292 32.842L15.2125 33.828M16.1677 32.7732L15.8915 33.828M14.2459 23.7846L13.3252 26.0776C13.1643 26.4907 13.0824 26.9301 13.0836 27.3732V33.9312M13.1871 28.9898C13.1871 28.9898 15.0745 28.0611 16.2483 30.6866C16.467 31.2025 17.871 30.8815 18.0436 32.0509M18.0436 28.8751C17.5961 28.9532 17.1836 29.1668 16.8624 29.4869C16.5411 29.8069 16.3267 30.2178 16.2483 30.6637M25.501 23.7846L26.4217 25.9057C26.6411 26.4086 26.7547 26.951 26.7554 27.4993V33.9541M30.9099 23.842L30.0353 26.2038C29.8841 26.5953 29.8061 27.011 29.8051 27.4305V33.9771M27.0316 22.7872L27.9868 24.9311C28.011 24.9822 28.0493 25.0253 28.0972 25.0555C28.1451 25.0857 28.2006 25.1017 28.2572 25.1017C28.3139 25.1017 28.3694 25.0857 28.4173 25.0555C28.4651 25.0253 28.5034 24.9822 28.5277 24.9311L29.6094 22.7757M32.8433 17.6164C32.8433 17.6164 31.6925 20.6203 29.3908 17.9718M12.957 12.2049C12.957 12.2049 10.3446 10.703 8.64142 14.1196C8.58611 14.2271 8.50199 14.3172 8.39838 14.3799C8.29478 14.4427 8.17574 14.4756 8.0545 14.475C7.37551 14.475 6.05206 14.6699 6.04055 16.5846C6.04566 16.6841 6.01962 16.7828 5.96602 16.867C5.91243 16.9512 5.83392 17.0168 5.74133 17.0546C5.38276 17.1321 5.0492 17.2973 4.77075 17.5353C4.4923 17.7733 4.27772 18.0767 4.14639 18.418C4.01507 18.7593 3.97112 19.1278 4.01851 19.4903C4.06591 19.8528 4.20316 20.1978 4.41788 20.4942C4.47542 20.6088 4.5905 20.884 6.58144 21.7553C7.46757 22.1451 7.65171 25.5273 10.3907 22.5349C10.3907 22.5349 11.8752 23.4865 12.8189 22.4203C12.8189 22.4203 14.4301 25.3783 16.352 22.6611L16.6282 22.1451M4.41779 33.9771H35.5592M33.6604 31.3286C33.9277 31.6909 34.0719 32.1287 34.0719 32.5783C34.0719 33.0279 33.9277 33.4658 33.6604 33.828M32.3484 32.842L32.0722 33.828M24.9947 32.7732L24.6149 33.9771M23.5445 32.842L24.0279 33.9771M21.8183 27.5681C21.8183 27.5681 24.3731 27.7286 24.2581 29.8611M26.7554 28.8751C26.0809 28.8368 25.4127 29.0218 24.8549 29.4013C24.297 29.7808 23.8808 30.3335 23.6711 30.9732C23.5445 31.3172 22.129 30.9732 21.8183 32.0509M29.8051 27.5681C30.3343 27.7174 30.8109 28.0114 31.1811 28.4166C31.5512 28.8219 31.8001 29.3222 31.8996 29.8611C31.8996 30.1477 32.2334 30.3312 32.8893 30.4573C33.2231 30.5146 33.3382 30.7095 33.764 31.4892M18.642 12.3769C18.642 12.3769 20.4373 15.61 22.2671 12.3769M15.3276 15.2661C15.3276 15.2661 16.9043 17.3069 18.1011 15.2661M20.1956 17.089C20.1956 17.089 21.9218 20.1502 23.9243 17.089M8.62986 18.8776C8.62986 18.8776 9.78069 20.9642 11.1502 19.1986" stroke="#737373" stroke-width="0.4" stroke-miterlimit="10" stroke-linecap="round"/>
</svg>
