<svg width="40" height="40" viewBox="0 0 40 40" fill="none" xmlns="http://www.w3.org/2000/svg">
<path d="M5 31H35M13.9741 14.9723H26.015M6.99065 12.1291H13.9741V30.989H6.99065V12.1291ZM26.0151 12.1291H32.9125V30.989H26.0151V12.1291ZM10.2295 18.0461H10.8752C11.1291 18.0461 11.3727 18.1491 11.5523 18.3323C11.7319 18.5155 11.8328 18.764 11.8328 19.0232V21.6469C11.8328 21.7284 11.8011 21.8066 11.7446 21.8642C11.6881 21.9219 11.6115 21.9542 11.5315 21.9542H9.58391C9.504 21.9542 9.42737 21.9219 9.37087 21.8642C9.31436 21.8066 9.28262 21.7284 9.28262 21.6469V19.0232C9.2826 18.7659 9.38202 18.5191 9.5593 18.3362C9.73658 18.1532 9.97741 18.049 10.2295 18.0461ZM10.1112 24.534H10.7568C11.0108 24.534 11.2544 24.637 11.434 24.8202C11.6136 25.0034 11.7145 25.2519 11.7145 25.5111V27.3224C11.7145 27.4039 11.6828 27.4821 11.6263 27.5398C11.5698 27.5974 11.4931 27.6298 11.4132 27.6298H9.49787C9.41797 27.6298 9.34133 27.5974 9.28483 27.5398C9.22833 27.4821 9.19658 27.4039 9.19658 27.3224V25.5111C9.19633 25.2594 9.2913 25.0173 9.46169 24.8353C9.63209 24.6533 9.86476 24.5454 10.1112 24.534ZM29.1464 24.534H29.792C30.046 24.534 30.2896 24.637 30.4692 24.8202C30.6488 25.0034 30.7497 25.2519 30.7497 25.5111V27.2017C30.7497 27.3152 30.7055 27.4241 30.6268 27.5044C30.5481 27.5847 30.4413 27.6298 30.33 27.6298H28.6084C28.4971 27.6298 28.3903 27.5847 28.3116 27.5044C28.2329 27.4241 28.1887 27.3152 28.1887 27.2017V25.5111C28.1887 25.2519 28.2896 25.0034 28.4692 24.8202C28.6488 24.637 28.8924 24.534 29.1464 24.534ZM17.2239 17.607H17.8695C18.1235 17.607 18.3671 17.71 18.5467 17.8932C18.7263 18.0764 18.8272 18.3249 18.8272 18.5841V21.2626C18.8272 21.3587 18.7898 21.4509 18.7232 21.5188C18.6566 21.5868 18.5662 21.6249 18.4721 21.6249H16.5675C16.4733 21.6249 16.383 21.5868 16.3164 21.5188C16.2498 21.4509 16.2124 21.3587 16.2124 21.2626V18.5292C16.2193 18.4008 16.2509 18.2751 16.3055 18.1592C16.3601 18.0433 16.4365 17.9396 16.5305 17.8539C16.6245 17.7682 16.7341 17.7023 16.8531 17.66C16.972 17.6176 17.0981 17.5996 17.2239 17.607ZM22.109 17.607H22.7547C23.0087 17.607 23.2522 17.71 23.4318 17.8932C23.6114 18.0764 23.7123 18.3249 23.7123 18.5841V21.2297C23.7123 21.32 23.6772 21.4065 23.6146 21.4703C23.5521 21.5342 23.4672 21.57 23.3788 21.57H21.4742C21.4304 21.57 21.387 21.5612 21.3465 21.5441C21.3061 21.527 21.2693 21.502 21.2383 21.4703C21.2073 21.4387 21.1828 21.4012 21.166 21.3599C21.1492 21.3187 21.1406 21.2744 21.1406 21.2297V18.5292C21.1544 18.2778 21.2629 18.0415 21.4433 17.8697C21.6238 17.6979 21.8622 17.6038 22.109 17.607ZM29.1464 18.0461H29.792C30.046 18.0461 30.2896 18.1491 30.4692 18.3323C30.6488 18.5155 30.7497 18.764 30.7497 19.0232V21.592C30.7497 21.7143 30.7021 21.8315 30.6173 21.918C30.5326 22.0045 30.4176 22.053 30.2978 22.053H28.6407C28.5813 22.053 28.5225 22.0411 28.4677 22.018C28.4129 21.9948 28.3631 21.9608 28.3211 21.918C28.2791 21.8752 28.2458 21.8244 28.2231 21.7684C28.2004 21.7125 28.1887 21.6525 28.1887 21.592V19.0232C28.1887 18.764 28.2896 18.5155 28.4692 18.3323C28.6488 18.1491 28.8924 18.0461 29.1464 18.0461ZM19.3867 24.073H20.6134C20.8536 24.073 21.0915 24.1212 21.3134 24.215C21.5354 24.3088 21.737 24.4463 21.9069 24.6196C22.0767 24.7929 22.2115 24.9986 22.3034 25.225C22.3953 25.4515 22.4427 25.6941 22.4427 25.9392V31H17.5574V25.9392C17.5574 25.4443 17.7502 24.9696 18.0932 24.6196C18.4363 24.2696 18.9016 24.073 19.3867 24.073ZM5.32281 8.08923C5.93423 7.97026 6.56218 7.97026 7.1736 8.08923C7.21127 8.76199 7.21127 9.4364 7.1736 10.1092H9.43329C9.43329 10.1092 9.43329 8.64911 9.43329 8.08923C10.0813 8.03248 10.7329 8.03248 11.3809 8.08923C11.4347 8.76143 11.4347 9.43697 11.3809 10.1092H13.533V8.08923C14.1059 8.03984 14.6818 8.03984 15.2547 8.08923C15.3574 8.08923 15.4559 8.13087 15.5286 8.20499C15.6012 8.2791 15.642 8.37962 15.642 8.48444V11.7778C15.6421 11.8836 15.6016 11.9853 15.5293 12.0612C15.4569 12.1371 15.3584 12.1811 15.2547 12.184H5.66715C5.56325 12.1703 5.46884 12.1153 5.40439 12.0311C5.33993 11.9468 5.31062 11.84 5.32281 11.7339V8.08923ZM24.2611 8.08923C24.8726 7.97026 25.5005 7.97026 26.1119 8.08923C26.1496 8.76199 26.1496 9.4364 26.1119 10.1092H28.4254C28.4254 10.1092 28.4254 8.64911 28.4254 8.08923C29.0698 8.03246 29.7179 8.03246 30.3623 8.08923C30.4214 8.76119 30.4214 9.4372 30.3623 10.1092H32.5144V8.08923C33.0908 8.03985 33.6703 8.03985 34.2468 8.08923C34.3495 8.08923 34.4481 8.13087 34.5207 8.20499C34.5934 8.2791 34.6342 8.37962 34.6342 8.48444V11.7778C34.6342 11.8836 34.5937 11.9853 34.5214 12.0612C34.449 12.1371 34.3505 12.1811 34.2468 12.184H24.6916C24.5878 12.1811 24.4893 12.1371 24.417 12.0612C24.3446 11.9853 24.3041 11.8836 24.3042 11.7778C24.3042 11.7778 24.2719 9.07724 24.2611 8.08923Z" stroke="#737373" stroke-width="0.4" stroke-miterlimit="10" stroke-linecap="round"/>
</svg>
