<svg width="40" height="40" viewBox="0 0 40 40" fill="none" xmlns="http://www.w3.org/2000/svg">
<path d="M32.0743 31.9452C32.0665 32.0554 32.1495 32.151 32.2596 32.1589C32.3698 32.1667 32.4655 32.0837 32.4733 31.9736L32.0743 31.9452ZM34.5648 27.5609L34.467 27.3865L34.4524 27.3947L34.4393 27.4051L34.5648 27.5609ZM34.5648 27.3985L34.6626 27.224L34.6134 27.1964L34.5571 27.1986L34.5648 27.3985ZM28.8374 32.5164L28.6374 32.5164L29.0372 32.5258L28.8374 32.5164ZM33.6255 19.3095L33.7612 19.4563L33.8255 19.397V19.3095H33.6255ZM33.6255 19.2282H33.8255V19.0104L33.6084 19.029L33.6255 19.2282ZM26.5121 28.1992L26.3121 28.2027L26.3384 29.7193L26.7061 28.2477L26.5121 28.1992ZM21.6667 19.4603L21.7003 19.2632L21.2439 19.1856L21.5002 19.5711L21.6667 19.4603ZM23.7973 31.4023L23.6116 31.4765L23.8463 32.0643L23.9919 31.4483L23.7973 31.4023ZM22.9611 25.6692L23.1603 25.6872L23.1611 25.6782V25.6692H22.9611ZM22.8466 25.6692L22.9868 25.8119L23.0142 25.7849L23.0297 25.7496L22.8466 25.6692ZM21.0825 31.472L20.8989 31.5512L21.6612 33.3171L21.2785 31.4322L21.0825 31.472ZM19.3414 21.5145L19.1926 21.3809L19.146 21.4328L19.1418 21.5023L19.3414 21.5145ZM19.2154 21.3984L19.0665 21.2649L19.0593 21.2729L19.053 21.2817L19.2154 21.3984ZM17.2223 31.1934L17.0227 31.2061L17.422 31.1827L17.2223 31.1934ZM12.3769 22.942L12.4109 22.7449L12.401 22.7432L12.391 22.7425L12.3769 22.942ZM12.2509 23.1161L12.0641 23.1886L12.0697 23.2008L12.2509 23.1161ZM13.488 32.4816L13.3093 32.5714L13.5804 33.111L13.685 32.5163L13.488 32.4816ZM11.7698 27.0619L11.9676 27.0322L11.9611 26.989L11.9371 26.9523L11.7698 27.0619ZM11.598 27.0619L11.4306 26.9523L11.4266 26.9588L11.598 27.0619ZM10.4525 32.528L10.2609 32.5852L10.6505 32.4997L10.4525 32.528ZM5.52698 28.06L5.52403 28.2602L5.53515 28.2598L5.52698 28.06ZM5.46971 28.1992L5.61182 28.0585L5.61059 28.0573L5.46971 28.1992ZM7.81305 34.9876C7.8062 35.0979 7.89003 35.1928 8.00027 35.1996C8.11052 35.2065 8.20544 35.1226 8.21228 35.0124L7.81305 34.9876ZM6.03096 21.5145L5.85702 21.614L5.86389 21.6245L6.03096 21.5145ZM5.71022 17.8124L5.61097 17.6387L5.6083 17.6403L5.71022 17.8124ZM14.4731 15.7118L14.2992 15.8106L14.3029 15.8172L14.3072 15.8235L14.4731 15.7118ZM14.1638 11.9981L14.0626 11.8256L14.0619 11.826L14.1638 11.9981ZM23.7743 17.5455L23.9537 17.4565L23.949 17.4481L23.7743 17.5455ZM23.465 13.8317L23.3638 13.6592L23.3631 13.6596L23.465 13.8317ZM11.9187 17.9284L12.0319 17.7635L12.0273 17.7605L11.9187 17.9284ZM20.2463 11.9981L20.1343 12.1638L20.1362 12.165L20.2463 11.9981ZM29.4559 14.0638L29.5672 13.8977L29.5657 13.8967L29.4559 14.0638ZM10.3723 7.25145L10.5676 7.20804L10.5664 7.20313L10.3723 7.25145ZM8.96337 10.3153L8.77938 10.2368L8.77792 10.2404L8.96337 10.3153ZM7.53153 8.67892L7.60934 8.4946L7.60443 8.49268L7.53153 8.67892ZM10.3952 14.1799L10.2682 14.0251L10.2605 14.0321L10.3952 14.1799ZM7.90956 11.3017L8.0397 11.4538L8.04559 11.4484L7.90956 11.3017ZM12.5258 9.23598L12.3862 9.37955L12.3944 9.38673L12.5258 9.23598ZM12.6976 11.4178L12.8258 11.5714L12.8397 11.5598L12.8513 11.5458L12.6976 11.4178ZM10.5441 11.2321L10.6964 11.1024L10.6833 11.0871L10.6675 11.0747L10.5441 11.2321ZM11.428 9.66169C11.3555 9.5784 11.2291 9.56968 11.1458 9.64222C11.0625 9.71476 11.0538 9.8411 11.1264 9.92439L11.428 9.66169ZM11.2982 10.1217C11.3707 10.205 11.4971 10.2137 11.5804 10.1412C11.6636 10.0686 11.6724 9.94228 11.5998 9.85899L11.2982 10.1217ZM12.6954 6.09381C12.7996 6.05704 12.8542 5.94279 12.8174 5.83864C12.7806 5.73448 12.6664 5.67986 12.5622 5.71663L12.6954 6.09381ZM11.4142 8.6877C11.4382 8.7955 11.5451 8.86337 11.6529 8.83929C11.7607 8.81521 11.8286 8.7083 11.8045 8.6005L11.4142 8.6877ZM13.9732 7.47452C14.0836 7.47858 14.1764 7.39239 14.1805 7.28201C14.1845 7.17163 14.0983 7.07885 13.9879 7.07479L13.9732 7.47452ZM12.0741 9.04978C12.0803 9.16006 12.1746 9.2445 12.2849 9.23837C12.3952 9.23224 12.4797 9.13787 12.4735 9.02758L12.0741 9.04978ZM31.3169 5C31.3169 4.88954 31.2273 4.8 31.1169 4.8C31.0064 4.8 30.9169 4.88954 30.9169 5H31.3169ZM30.9169 5.89362C30.9169 6.00407 31.0064 6.09362 31.1169 6.09362C31.2273 6.09362 31.3169 6.00407 31.3169 5.89362H30.9169ZM33.9727 6.22102C34.051 6.14309 34.0512 6.01645 33.9733 5.93818C33.8954 5.85991 33.7687 5.85963 33.6904 5.93757L33.9727 6.22102ZM33.0261 6.59908C32.9478 6.67701 32.9475 6.80365 33.0255 6.88192C33.1034 6.96019 33.23 6.96047 33.3083 6.88253L33.0261 6.59908ZM35 9.07621C35.1105 9.07621 35.2 8.98666 35.2 8.87621C35.2 8.76575 35.1105 8.67621 35 8.67621V9.07621ZM33.9347 8.67621C33.8243 8.67621 33.7347 8.76575 33.7347 8.87621C33.7347 8.98666 33.8243 9.07621 33.9347 9.07621V8.67621ZM33.1731 10.5936C33.096 10.5144 32.9694 10.5127 32.8903 10.5897C32.8111 10.6668 32.8094 10.7934 32.8864 10.8726L33.1731 10.5936ZM33.6882 11.6965C33.7653 11.7757 33.8919 11.7774 33.9711 11.7004C34.0502 11.6234 34.0519 11.4967 33.9749 11.4176L33.6882 11.6965ZM31.3169 11.5571C31.3169 11.4466 31.2273 11.3571 31.1169 11.3571C31.0064 11.3571 30.9169 11.4466 30.9169 11.5571H31.3169ZM30.9169 12.6596C30.9169 12.77 31.0064 12.8596 31.1169 12.8596C31.2273 12.8596 31.3169 12.77 31.3169 12.6596H30.9169ZM29.3014 10.8726C29.3785 10.7934 29.3767 10.6668 29.2976 10.5897C29.2184 10.5127 29.0918 10.5144 29.0147 10.5936L29.3014 10.8726ZM28.2129 11.4176C28.1359 11.4967 28.1376 11.6234 28.2168 11.7004C28.2959 11.7774 28.4226 11.7757 28.4996 11.6965L28.2129 11.4176ZM28.425 9.07621C28.5354 9.07621 28.625 8.98666 28.625 8.87621C28.625 8.76575 28.5354 8.67621 28.425 8.67621V9.07621ZM27.1993 8.67621C27.0889 8.67621 26.9993 8.76575 26.9993 8.87621C26.9993 8.98666 27.0889 9.07621 27.1993 9.07621V8.67621ZM28.4965 5.93675C28.4178 5.85927 28.2912 5.86028 28.2137 5.939C28.1362 6.01773 28.1372 6.14436 28.216 6.22184L28.4965 5.93675ZM29.0178 7.01101C29.0965 7.08849 29.2231 7.08748 29.3006 7.00876C29.3781 6.93003 29.3771 6.8034 29.2984 6.72592L29.0178 7.01101ZM5 34.7536C4.88954 34.7536 4.8 34.8431 4.8 34.9536C4.8 35.064 4.88954 35.1536 5 35.1536V34.7536ZM35 35.1536C35.1104 35.1536 35.2 35.064 35.2 34.9536C35.2 34.8431 35.1104 34.7536 35 34.7536V35.1536ZM17.4451 17.882C17.4451 17.7716 17.3555 17.682 17.2451 17.682C17.1346 17.682 17.0451 17.7716 17.0451 17.882H17.4451ZM17.0451 20.4004C17.0451 20.5109 17.1346 20.6004 17.2451 20.6004C17.3555 20.6004 17.4451 20.5109 17.4451 20.4004H17.0451ZM8.66024 28.9884C8.66024 29.0989 8.74979 29.1884 8.86024 29.1884C8.9707 29.1884 9.06024 29.0989 9.06024 28.9884L8.66024 28.9884ZM26.2662 27.3636C26.2662 27.4741 26.3557 27.5636 26.4662 27.5636C26.5766 27.5636 26.6662 27.4741 26.6662 27.3636L26.2662 27.3636ZM32.2738 31.9594L32.4733 31.9736C32.5321 31.1469 32.7595 30.3418 33.1412 29.609L32.9638 29.5166L32.7864 29.4242C32.3794 30.2057 32.1369 31.0641 32.0743 31.9452L32.2738 31.9594ZM32.9638 29.5166L33.1412 29.609C33.5228 28.8762 34.0503 28.2319 34.6902 27.7167L34.5648 27.5609L34.4393 27.4051C33.7562 27.9552 33.1934 28.6427 32.7864 29.4242L32.9638 29.5166ZM34.5648 27.5609L34.6626 27.7354C34.7083 27.7098 34.7461 27.6724 34.7722 27.6274L34.5993 27.5268L34.4265 27.4263C34.436 27.4099 34.4499 27.396 34.467 27.3865L34.5648 27.5609ZM34.5993 27.5268L34.7722 27.6274C34.7984 27.5825 34.812 27.5315 34.812 27.4797H34.612H34.412C34.412 27.4611 34.417 27.4426 34.4265 27.4263L34.5993 27.5268ZM34.612 27.4797H34.812C34.812 27.4279 34.7984 27.3769 34.7722 27.3319L34.5993 27.4325L34.4265 27.5331C34.417 27.5168 34.412 27.4983 34.412 27.4797H34.612ZM34.5993 27.4325L34.7722 27.3319C34.7461 27.287 34.7083 27.2496 34.6626 27.224L34.5648 27.3985L34.467 27.5729C34.4499 27.5633 34.436 27.5495 34.4265 27.5331L34.5993 27.4325ZM34.5648 27.3985L34.5571 27.1986C31.6239 27.3115 30.1296 28.6295 29.3797 29.9409C29.0081 30.5907 28.823 31.2319 28.7305 31.7098C28.6842 31.9491 28.661 32.1485 28.6493 32.289C28.6434 32.3593 28.6404 32.4149 28.6389 32.4536C28.6382 32.4729 28.6378 32.488 28.6376 32.4986C28.6375 32.5039 28.6375 32.5081 28.6374 32.511C28.6374 32.5125 28.6374 32.5137 28.6374 32.5146C28.6374 32.5151 28.6374 32.5155 28.6374 32.5158C28.6374 32.5159 28.6374 32.5161 28.6374 32.5162C28.6374 32.5163 28.6374 32.5164 28.8374 32.5164C29.0374 32.5164 29.0374 32.5165 29.0374 32.5166C29.0374 32.5166 29.0374 32.5167 29.0374 32.5167C29.0374 32.5167 29.0374 32.5166 29.0374 32.5165C29.0374 32.5162 29.0374 32.5156 29.0374 32.5147C29.0374 32.513 29.0375 32.5101 29.0375 32.5062C29.0377 32.4982 29.038 32.4857 29.0386 32.4692C29.0399 32.436 29.0426 32.3862 29.0479 32.3222C29.0586 32.194 29.08 32.009 29.1232 31.7858C29.2098 31.3385 29.3826 30.7415 29.7269 30.1394C30.4089 28.9469 31.7783 27.7059 34.5725 27.5983L34.5648 27.3985ZM28.8374 32.5164L29.0372 32.5258C29.4467 23.8007 33.1408 20.0298 33.7612 19.4563L33.6255 19.3095L33.4897 19.1626C32.8043 19.7961 29.0528 23.6616 28.6376 32.5071L28.8374 32.5164ZM33.6255 19.3095H33.8255V19.2282H33.6255H33.4255V19.3095H33.6255ZM33.6255 19.2282L33.6084 19.029C33.1715 19.0664 31.8628 19.2687 30.4031 20.5106C28.9439 21.7521 27.3509 24.0177 26.318 28.1507L26.5121 28.1992L26.7061 28.2477C27.7237 24.1757 29.2807 21.9907 30.6623 20.8153C32.0433 19.6403 33.2661 19.4597 33.6425 19.4275L33.6255 19.2282ZM26.5121 28.1992C26.7121 28.1958 26.7121 28.1957 26.712 28.1956C26.712 28.1955 26.712 28.1953 26.712 28.1952C26.712 28.1949 26.712 28.1944 26.712 28.1939C26.712 28.1927 26.712 28.1911 26.7119 28.1891C26.7118 28.1849 26.7117 28.1789 26.7115 28.1711C26.7111 28.1554 26.7104 28.1324 26.7093 28.1025C26.707 28.0428 26.7032 27.9556 26.6966 27.8447C26.6835 27.623 26.6594 27.3061 26.6158 26.9237C26.5285 26.1595 26.3623 25.1299 26.0465 24.0728C25.4202 21.9766 24.1764 19.6843 21.7003 19.2632L21.6667 19.4603L21.6332 19.6575C23.8649 20.0371 25.0438 22.1143 25.6632 24.1873C25.9703 25.2149 26.1327 26.2198 26.2183 26.9691C26.2611 27.3433 26.2846 27.6529 26.2973 27.8684C26.3037 27.9761 26.3074 28.0603 26.3095 28.1173C26.3106 28.1457 26.3112 28.1674 26.3116 28.1818C26.3118 28.189 26.3119 28.1944 26.312 28.1979C26.3121 28.1996 26.3121 28.2009 26.3121 28.2017C26.3121 28.2021 26.3121 28.2024 26.3121 28.2026C26.3121 28.2026 26.3121 28.2027 26.3121 28.2027C26.3121 28.2027 26.3121 28.2027 26.5121 28.1992ZM21.6667 19.4603L21.5002 19.5711C22.6367 21.2808 23.4105 23.2111 23.7725 25.2399L23.9694 25.2047L24.1663 25.1696C23.7947 23.087 23.0003 21.1052 21.8333 19.3496L21.6667 19.4603ZM23.9694 25.2047L23.7725 25.2399C24.1344 27.2686 24.0766 29.3514 23.6027 31.3563L23.7973 31.4023L23.9919 31.4483C24.4785 29.3902 24.5378 27.2522 24.1663 25.1696L23.9694 25.2047ZM23.7973 31.4023L23.983 31.3281C23.2693 29.5411 22.9872 27.6071 23.1603 25.6872L22.9611 25.6692L22.7619 25.6513C22.5832 27.6338 22.8745 29.6309 23.6116 31.4765L23.7973 31.4023ZM22.9611 25.6692H23.1611C23.1611 25.5875 23.1167 25.4376 22.9583 25.4075C22.7879 25.3751 22.6946 25.5178 22.6634 25.5889L22.8466 25.6692L23.0297 25.7496C23.0331 25.7418 23.0293 25.7551 23.0089 25.7714C22.986 25.7898 22.941 25.8113 22.8837 25.8005C22.8292 25.7901 22.7959 25.7564 22.7802 25.7314C22.7645 25.7064 22.7611 25.6836 22.7611 25.6692H22.9611ZM22.8466 25.6692L22.7063 25.5266C21.9307 26.2893 21.3575 27.2375 21.0395 28.2835L21.2308 28.3416L21.4222 28.3998C21.7208 27.4174 22.259 26.5273 22.9868 25.8119L22.8466 25.6692ZM21.2308 28.3416L21.0395 28.2835C20.7215 29.3295 20.6689 30.4397 20.8865 31.5117L21.0825 31.472L21.2785 31.4322C21.0741 30.4252 21.1235 29.3823 21.4222 28.3998L21.2308 28.3416ZM21.0825 31.472L21.2662 31.3927C19.9265 28.2894 19.3352 24.9075 19.541 21.5267L19.3414 21.5145L19.1418 21.5023C18.9321 24.9457 19.5344 28.3902 20.8989 31.5512L21.0825 31.472ZM19.3414 21.5145L19.4903 21.6481C19.5408 21.5918 19.5668 21.518 19.5632 21.443L19.3635 21.4524L19.1637 21.4618C19.1623 21.4325 19.1724 21.4034 19.1926 21.3809L19.3414 21.5145ZM19.3635 21.4524L19.5632 21.443C19.5597 21.368 19.5269 21.2969 19.4712 21.2455L19.3357 21.3926L19.2002 21.5398C19.1779 21.5192 19.1651 21.4911 19.1637 21.4618L19.3635 21.4524ZM19.3357 21.3926L19.4712 21.2455C19.4154 21.1941 19.3411 21.1669 19.2647 21.1705L19.2744 21.3703L19.284 21.5701C19.2527 21.5716 19.2226 21.5604 19.2002 21.5398L19.3357 21.3926ZM19.2744 21.3703L19.2647 21.1705C19.1883 21.1742 19.1171 21.2085 19.0665 21.2649L19.2154 21.3984L19.3643 21.532C19.3441 21.5545 19.3153 21.5686 19.284 21.5701L19.2744 21.3703ZM19.2154 21.3984L19.053 21.2817C18.4429 22.1301 16.6416 25.2162 17.0227 31.2061L17.2223 31.1934L17.4219 31.1807C17.0469 25.2867 18.8195 22.2915 19.3778 21.5152L19.2154 21.3984ZM17.2223 31.1934C17.422 31.1827 17.422 31.1826 17.422 31.1825C17.422 31.1825 17.422 31.1823 17.422 31.1822C17.4219 31.1819 17.4219 31.1814 17.4219 31.1809C17.4218 31.1798 17.4217 31.1783 17.4216 31.1764C17.4214 31.1725 17.4211 31.1668 17.4206 31.1593C17.4197 31.1445 17.4182 31.1228 17.4162 31.0946C17.412 31.0382 17.4054 30.956 17.3955 30.8513C17.3755 30.6421 17.3421 30.3431 17.288 29.9822C17.1799 29.2611 16.9886 28.2895 16.656 27.2917C15.9965 25.3135 14.7512 23.1482 12.4109 22.7449L12.3769 22.942L12.343 23.1391C14.4471 23.5017 15.6244 25.4621 16.2765 27.4182C16.5997 28.3875 16.7865 29.3351 16.8924 30.0415C16.9453 30.3944 16.9779 30.6861 16.9973 30.8893C17.0069 30.9908 17.0133 31.0701 17.0172 31.1238C17.0192 31.1506 17.0205 31.171 17.0214 31.1845C17.0218 31.1913 17.0221 31.1963 17.0223 31.1996C17.0224 31.2013 17.0225 31.2025 17.0225 31.2032C17.0225 31.2036 17.0226 31.2039 17.0226 31.204C17.0226 31.2041 17.0226 31.2041 17.0226 31.2041C17.0226 31.2041 17.0226 31.2041 17.2223 31.1934ZM12.3769 22.942L12.391 22.7425C12.3356 22.7386 12.2802 22.7489 12.2301 22.7725L12.3152 22.9535L12.4002 23.1345C12.3887 23.14 12.3758 23.1424 12.3629 23.1415L12.3769 22.942ZM12.3152 22.9535L12.2301 22.7725C12.18 22.7961 12.1368 22.8319 12.1046 22.8766L12.2666 22.9938L12.4286 23.1111C12.4214 23.121 12.4118 23.1291 12.4002 23.1345L12.3152 22.9535ZM12.2666 22.9938L12.1046 22.8766C12.0723 22.9212 12.0518 22.9731 12.0448 23.0275L12.2432 23.0529L12.4416 23.0783C12.4401 23.09 12.4357 23.1013 12.4286 23.1111L12.2666 22.9938ZM12.2432 23.0529L12.0448 23.0275C12.0379 23.0819 12.0446 23.1372 12.0645 23.1884L12.2509 23.1161L12.4374 23.0437C12.4417 23.0548 12.4431 23.0666 12.4416 23.0783L12.2432 23.0529ZM12.2509 23.1161L12.0697 23.2008C13.4157 26.0791 13.8426 29.3111 13.2911 32.447L13.488 32.4816L13.685 32.5163C14.2508 29.2996 13.8129 25.9843 12.4321 23.0313L12.2509 23.1161ZM13.488 32.4816L13.6667 32.3918C12.8212 30.7089 12.2476 28.8994 11.9676 27.0322L11.7698 27.0619L11.572 27.0916C11.8582 29.0005 12.4448 30.8506 13.3093 32.5714L13.488 32.4816ZM11.7698 27.0619L11.9371 26.9523C11.9098 26.9105 11.8724 26.8759 11.8282 26.8519L11.7327 27.0276L11.6371 27.2033C11.6229 27.1956 11.6111 27.1845 11.6025 27.1714L11.7698 27.0619ZM11.7327 27.0276L11.8282 26.8519C11.784 26.8278 11.7344 26.8152 11.6839 26.8152V27.0152V27.2152C11.6675 27.2152 11.6514 27.211 11.6371 27.2033L11.7327 27.0276ZM11.6839 27.0152V26.8152C11.6334 26.8152 11.5838 26.8278 11.5396 26.8519L11.6352 27.0276L11.7307 27.2033C11.7164 27.2111 11.7004 27.2152 11.6839 27.2152V27.0152ZM11.6352 27.0276L11.5396 26.8519C11.4954 26.8759 11.4581 26.9105 11.4307 26.9523L11.598 27.0619L11.7653 27.1714C11.7568 27.1845 11.7449 27.1956 11.7307 27.2033L11.6352 27.0276ZM11.598 27.0619L11.4266 26.9588C11.1992 27.3369 10.7381 28.1616 10.4178 29.1778C10.0984 30.1916 9.91256 31.417 10.2609 32.5852L10.4525 32.528L10.6442 32.4709C10.3281 31.4108 10.4917 30.2745 10.7994 29.298C11.1063 28.3239 11.5501 27.5296 11.7694 27.165L11.598 27.0619ZM10.4525 32.528C10.6505 32.4997 10.6505 32.4996 10.6505 32.4995C10.6505 32.4994 10.6504 32.4993 10.6504 32.4991C10.6504 32.4989 10.6503 32.4986 10.6503 32.4982C10.6502 32.4974 10.65 32.4963 10.6498 32.4949C10.6494 32.4922 10.6488 32.4884 10.648 32.4835C10.6465 32.4738 10.6442 32.4597 10.6411 32.4417C10.6348 32.4056 10.6252 32.3536 10.6114 32.288C10.5839 32.1567 10.54 31.9706 10.4738 31.7483C10.3416 31.3046 10.1192 30.7125 9.75816 30.1241C9.03276 28.9419 7.74098 27.7693 5.51882 27.8601L5.52698 28.06L5.53515 28.2598C7.57415 28.1765 8.74515 29.238 9.41722 30.3333C9.75494 30.8837 9.96495 31.4413 10.0905 31.8625C10.1531 32.0728 10.1944 32.248 10.2199 32.3699C10.2326 32.4308 10.2414 32.4784 10.247 32.5102C10.2498 32.5262 10.2517 32.5382 10.2529 32.546C10.2536 32.5498 10.254 32.5527 10.2543 32.5544C10.2544 32.5553 10.2545 32.5559 10.2545 32.5562C10.2545 32.5564 10.2546 32.5565 10.2546 32.5565C10.2546 32.5565 10.2546 32.5565 10.2546 32.5565C10.2546 32.5565 10.2545 32.5564 10.4525 32.528ZM5.52698 28.06L5.52993 27.86C5.47333 27.8591 5.418 27.8755 5.37109 27.9067L5.48182 28.0733L5.59255 28.2398C5.57245 28.2532 5.54858 28.2603 5.52404 28.2599L5.52698 28.06ZM5.48182 28.0733L5.37109 27.9067C5.32422 27.9379 5.28805 27.9823 5.26683 28.0339L5.4518 28.1099L5.63677 28.186C5.62788 28.2076 5.61263 28.2265 5.59255 28.2398L5.48182 28.0733ZM5.4518 28.1099L5.26683 28.0339C5.24562 28.0854 5.2402 28.1421 5.25114 28.1967L5.44724 28.1574L5.64333 28.118C5.6479 28.1408 5.64565 28.1644 5.63677 28.186L5.4518 28.1099ZM5.44724 28.1574L5.25114 28.1967C5.26209 28.2513 5.28901 28.3017 5.32883 28.3412L5.46971 28.1992L5.61059 28.0573C5.62751 28.0741 5.63877 28.0953 5.64333 28.118L5.44724 28.1574ZM5.46971 28.1992L5.3276 28.34C6.1843 29.205 6.84923 30.2454 7.27788 31.3918L7.46521 31.3217L7.65254 31.2517C7.20418 30.0526 6.50852 28.964 5.61182 28.0585L5.46971 28.1992ZM7.46521 31.3217L7.27788 31.3918C7.70653 32.5381 7.889 33.764 7.81305 34.9876L8.01266 35L8.21228 35.0124C8.2917 33.7328 8.1009 32.4507 7.65254 31.2517L7.46521 31.3217ZM10.4181 20.4004H10.2181C10.2181 21.3075 10.0475 22.119 9.78033 22.6962C9.50537 23.2902 9.16572 23.566 8.86026 23.566V23.766V23.966C9.41517 23.966 9.85445 23.4883 10.1433 22.8642C10.44 22.2233 10.6181 21.352 10.6181 20.4004H10.4181ZM8.86026 23.766V23.566C8.5548 23.566 8.21515 23.2902 7.9402 22.6962C7.67301 22.119 7.50242 21.3075 7.50242 20.4004H7.30242H7.10242C7.10242 21.352 7.28055 22.2233 7.5772 22.8642C7.86607 23.4883 8.30535 23.966 8.86026 23.966V23.766ZM7.30242 20.4004H7.50242C7.50242 19.4933 7.67301 18.6818 7.9402 18.1046C8.21515 17.5106 8.5548 17.2348 8.86026 17.2348V17.0348V16.8348C8.30535 16.8348 7.86607 17.3125 7.5772 17.9366C7.28055 18.5774 7.10242 19.4487 7.10242 20.4004H7.30242ZM8.86026 17.0348V17.2348C9.16572 17.2348 9.50537 17.5106 9.78033 18.1046C10.0475 18.6818 10.2181 19.4933 10.2181 20.4004H10.4181H10.6181C10.6181 19.4487 10.44 18.5774 10.1433 17.9366C9.85445 17.3125 9.41518 16.8348 8.86026 16.8348V17.0348ZM28.0241 16.501H27.8241C27.8241 17.4081 27.6535 18.2195 27.3863 18.7968C27.1113 19.3908 26.7717 19.6665 26.4662 19.6665V19.8665V20.0665C27.0211 20.0665 27.4604 19.5889 27.7493 18.9648C28.0459 18.3239 28.2241 17.4526 28.2241 16.501H28.0241ZM26.4662 19.8665V19.6665C26.1607 19.6665 25.8211 19.3908 25.5461 18.7968C25.279 18.2195 25.1084 17.4081 25.1084 16.501H24.9084H24.7084C24.7084 17.4526 24.8865 18.3239 25.1831 18.9648C25.472 19.5889 25.9113 20.0665 26.4662 20.0665V19.8665ZM24.9084 16.501H25.1084C25.1084 15.5939 25.279 14.7824 25.5461 14.2052C25.8211 13.6111 26.1607 13.3354 26.4662 13.3354V13.1354V12.9354C25.9113 12.9354 25.472 13.4131 25.1831 14.0371C24.8865 14.678 24.7084 15.5493 24.7084 16.501H24.9084ZM26.4662 13.1354V13.3354C26.7717 13.3354 27.1113 13.6111 27.3863 14.2052C27.6535 14.7824 27.8241 15.5939 27.8241 16.501H28.0241H28.2241C28.2241 15.5493 28.0459 14.678 27.7493 14.0371C27.4604 13.4131 27.0211 12.9354 26.4662 12.9354V13.1354ZM18.8029 14.5048H18.6029C18.6029 15.4119 18.4323 16.2234 18.1651 16.8006C17.8902 17.3947 17.5505 17.6704 17.2451 17.6704V17.8704V18.0704C17.8 18.0704 18.2393 17.5927 18.5281 16.9687C18.8248 16.3278 19.0029 15.4565 19.0029 14.5048H18.8029ZM17.2451 17.8704V17.6704C16.9396 17.6704 16.6 17.3947 16.325 16.8006C16.0578 16.2234 15.8872 15.4119 15.8872 14.5048H15.6872H15.4872C15.4872 15.4565 15.6654 16.3278 15.962 16.9687C16.2509 17.5927 16.6902 18.0704 17.2451 18.0704V17.8704ZM15.6872 14.5048H15.8872C15.8872 13.5977 16.0578 12.7862 16.325 12.209C16.6 11.615 16.9396 11.3393 17.2451 11.3393V11.1393V10.9393C16.6902 10.9393 16.2509 11.4169 15.962 12.041C15.6654 12.6819 15.4872 13.5532 15.4872 14.5048H15.6872ZM17.2451 11.1393V11.3393C17.5505 11.3393 17.8902 11.615 18.1651 12.209C18.4323 12.7862 18.6029 13.5977 18.6029 14.5048H18.8029H19.0029C19.0029 13.5532 18.8248 12.6819 18.5281 12.041C18.2393 11.4169 17.8 10.9393 17.2451 10.9393V11.1393ZM8.66555 23.7427L8.74587 23.5596C7.70972 23.1052 6.82485 22.357 6.19802 21.4046L6.03096 21.5145L5.86389 21.6245C6.53288 22.6409 7.4778 23.4403 8.58523 23.9259L8.66555 23.7427ZM6.03096 21.5145L6.20455 21.4152C5.75748 20.6339 5.50264 19.8463 5.44697 19.2108C5.38973 18.5572 5.54555 18.1424 5.81215 17.9845L5.71022 17.8124L5.6083 17.6403C5.13033 17.9234 4.98833 18.5588 5.0485 19.2457C5.11024 19.9506 5.38805 20.7936 5.85736 21.6138L6.03096 21.5145ZM5.71022 17.8124L5.80946 17.986C5.96668 17.8962 6.17495 17.8852 6.44058 17.9732C6.7068 18.0614 7.00886 18.2428 7.32475 18.5011L7.45134 18.3462L7.57794 18.1914C7.24091 17.9158 6.89578 17.7026 6.56635 17.5935C6.23633 17.4842 5.9005 17.4733 5.61098 17.6387L5.71022 17.8124ZM17.0504 17.8472L17.1289 17.6633C16.1207 17.2328 15.256 16.5165 14.639 15.6001L14.4731 15.7118L14.3072 15.8235C14.967 16.8035 15.8921 17.5701 16.9718 18.0311L17.0504 17.8472ZM14.4731 15.7118L14.647 15.613C14.1999 14.826 13.9478 14.0357 13.8949 13.3988C13.8404 12.7442 13.9984 12.3285 14.2657 12.1702L14.1638 11.9981L14.0619 11.826C13.5846 12.1087 13.439 12.7433 13.4962 13.432C13.555 14.1384 13.8299 14.9845 14.2992 15.8106L14.4731 15.7118ZM14.1638 11.9981L14.265 12.1706C14.415 12.0826 14.6217 12.0706 14.8884 12.1589C15.1545 12.2471 15.4563 12.4283 15.7655 12.6856L15.8934 12.5319L16.0214 12.3782C15.6891 12.1017 15.3437 11.8883 15.0142 11.7792C14.6852 11.6702 14.3478 11.6582 14.0626 11.8256L14.1638 11.9981ZM26.3287 19.8665L26.3994 19.6795C25.3372 19.2779 24.4633 18.4842 23.9535 17.4566L23.7743 17.5455L23.5951 17.6343C24.1494 18.7516 25.1003 19.616 26.258 20.0536L26.3287 19.8665ZM23.7743 17.5455L23.949 17.4481C23.5069 16.6544 23.2547 15.8635 23.2004 15.2277C23.1445 14.5742 23.3001 14.1619 23.5669 14.0038L23.465 13.8317L23.3631 13.6596C22.8854 13.9426 22.7431 14.5748 22.8018 15.2617C22.862 15.9663 23.1367 16.8118 23.5996 17.6428L23.7743 17.5455ZM23.465 13.8317L23.5662 14.0042C23.7161 13.9163 23.9226 13.9043 24.1888 13.9937C24.4546 14.0831 24.7561 14.2668 25.0651 14.5295L25.1947 14.3772L25.3242 14.2248C24.9918 13.9421 24.6461 13.7255 24.3162 13.6146C23.9868 13.5039 23.6492 13.4918 23.3638 13.6592L23.465 13.8317ZM10.2005 18.323L10.3188 18.4843C10.6372 18.2506 10.9396 18.1002 11.2009 18.0373C11.4618 17.9744 11.6641 18.0019 11.81 18.0963L11.9187 17.9284L12.0273 17.7605C11.7608 17.588 11.4362 17.5691 11.1072 17.6484C10.7786 17.7276 10.428 17.908 10.0821 18.1618L10.2005 18.323ZM11.9187 17.9284L11.8055 18.0933C11.9216 18.173 12.0404 18.3566 12.0899 18.6645C12.1386 18.9675 12.1155 19.3702 11.9706 19.8493C11.6813 20.8061 10.9103 22.0514 9.30612 23.3676L9.43298 23.5222L9.55985 23.6769C11.2088 22.3239 12.0358 21.0159 12.3535 19.965C12.5122 19.4402 12.545 18.9754 12.4848 18.601C12.4255 18.2314 12.2708 17.9275 12.0318 17.7635L11.9187 17.9284ZM18.528 12.3927L18.6482 12.5526C18.9665 12.3134 19.2683 12.1609 19.5285 12.0982C19.7877 12.0357 19.9886 12.0654 20.1343 12.1638L20.2463 11.9981L20.3582 11.8323C20.0915 11.6522 19.7655 11.6296 19.4348 11.7093C19.1051 11.7888 18.7539 11.9729 18.4079 12.2327L18.528 12.3927ZM20.2463 11.9981L20.1362 12.165C20.1759 12.1912 20.2342 12.2608 20.2881 12.402C20.3402 12.5383 20.3801 12.7208 20.3989 12.9411C20.4363 13.3811 20.3874 13.9496 20.2065 14.5533C19.8456 15.7577 18.9653 17.086 17.2252 17.8136L17.3024 17.9981L17.3795 18.1826C19.2477 17.4015 20.2002 15.9677 20.5896 14.6682C20.7838 14.02 20.8394 13.4011 20.7974 12.9072C20.7764 12.6605 20.7306 12.4395 20.6618 12.2593C20.5948 12.0838 20.4971 11.9239 20.3564 11.8311L20.2463 11.9981ZM27.7262 14.4584L27.8464 14.6183C28.1647 14.3792 28.4664 14.2267 28.7279 14.164C28.988 14.1016 29.1934 14.1306 29.3461 14.231L29.4559 14.0638L29.5657 13.8967C29.2946 13.7185 28.9673 13.6953 28.6346 13.7751C28.3034 13.8545 27.9522 14.0386 27.6061 14.2985L27.7262 14.4584ZM29.4559 14.0638L29.3446 14.23C29.4578 14.3059 29.6023 14.5278 29.6814 14.9002C29.7581 15.2611 29.7653 15.7297 29.6408 16.2499C29.3932 17.2849 28.6221 18.5322 26.8273 19.5292L26.9244 19.7041L27.0215 19.8789C28.9037 18.8334 29.7534 17.4984 30.0299 16.343C30.1674 15.7679 30.1624 15.2391 30.0727 14.817C29.9854 14.4064 29.8091 14.0597 29.5672 13.8977L29.4559 14.0638ZM10.3723 7.25145L10.1771 7.29485C10.3131 7.90661 10.2828 8.57903 10.1462 9.09004C10.0777 9.3462 9.98592 9.54906 9.88572 9.68177C9.7842 9.81623 9.69756 9.85083 9.63527 9.8485L9.62778 10.0484L9.62028 10.2482C9.86727 10.2575 10.0641 10.1093 10.2049 9.9228C10.3471 9.73455 10.4565 9.47827 10.5326 9.19332C10.6853 8.62213 10.7179 7.88449 10.5676 7.20805L10.3723 7.25145ZM9.62778 10.0484L9.63527 9.8485C9.40427 9.83983 9.05878 9.65906 8.72311 9.2912C8.39485 8.93148 8.10263 8.42012 7.96734 7.81153L7.77211 7.85493L7.57687 7.89833C7.72795 8.57794 8.05429 9.15169 8.42764 9.56083C8.79356 9.96183 9.23273 10.2337 9.62028 10.2482L9.62778 10.0484ZM7.77211 7.85493L7.96734 7.81153C7.83009 7.19413 7.84629 6.61089 7.97416 6.17145C8.10443 5.72381 8.3328 5.47298 8.58418 5.41547L8.53957 5.2205L8.49497 5.02554C8.03616 5.13051 7.7376 5.55279 7.59009 6.05969C7.44019 6.5748 7.42775 7.22753 7.57687 7.89833L7.77211 7.85493ZM8.53957 5.2205L8.58418 5.41547C8.83582 5.3579 9.14491 5.48203 9.45314 5.82554C9.75628 6.16338 10.024 6.68031 10.1783 7.29977L10.3723 7.25145L10.5664 7.20313C10.3999 6.53439 10.1064 5.95461 9.75086 5.5584C9.40044 5.16787 8.95352 4.92063 8.49497 5.02554L8.53957 5.2205ZM9.08937 9.83946L8.89069 9.81656C8.87399 9.96144 8.83649 10.103 8.77941 10.2368L8.96337 10.3153L9.14733 10.3938C9.21956 10.2245 9.26696 10.0454 9.28806 9.86235L9.08937 9.83946ZM8.96337 10.3153L8.77792 10.2404C8.71692 10.3915 8.5277 10.5218 8.17011 10.5527C7.82199 10.5827 7.36699 10.5098 6.88463 10.3155L6.80988 10.501L6.73513 10.6865C7.26078 10.8983 7.77944 10.9879 8.20451 10.9512C8.62012 10.9153 9.00364 10.7497 9.14882 10.3902L8.96337 10.3153ZM6.80988 10.501L6.88463 10.3155C6.40506 10.1222 6.02672 9.84919 5.79474 9.57869C5.55284 9.29665 5.50982 9.07063 5.56313 8.94036L5.37803 8.8646L5.19293 8.78885C5.05152 9.1344 5.22041 9.52347 5.49111 9.8391C5.77172 10.1663 6.20667 10.4735 6.73513 10.6865L6.80988 10.501ZM5.37803 8.8646L5.56313 8.94036C5.61703 8.80866 5.8032 8.67862 6.16841 8.64449C6.51958 8.61167 6.97777 8.67693 7.45862 8.86516L7.53153 8.67892L7.60443 8.49268C7.07726 8.28632 6.55607 8.20651 6.13118 8.24622C5.72033 8.28463 5.33377 8.44473 5.19293 8.78885L5.37803 8.8646ZM7.53153 8.67892L7.45374 8.86317C7.50946 8.88669 7.67187 8.97518 7.85034 9.0753C8.01944 9.17016 8.19677 9.27189 8.25953 9.30658L8.35627 9.13153L8.45301 8.95648C8.38976 8.92153 8.22345 8.82597 8.04605 8.72644C7.87801 8.63217 7.69105 8.52917 7.60931 8.49466L7.53153 8.67892ZM11.6094 11.8588L11.4101 11.842C11.3746 12.2653 11.255 12.6769 11.0588 13.0521L11.236 13.1448L11.4132 13.2375C11.6342 12.815 11.7687 12.3518 11.8087 11.8756L11.6094 11.8588ZM11.236 13.1448L11.0588 13.0521C10.8625 13.4273 10.5936 13.7582 10.2683 14.0253L10.3952 14.1799L10.5222 14.3345C10.8891 14.0331 11.1922 13.66 11.4132 13.2375L11.236 13.1448ZM10.3952 14.1799L10.2605 14.0321C9.71456 14.5299 9.08139 14.8202 8.51329 14.8955C7.94304 14.9711 7.46414 14.8293 7.17837 14.5011L7.02755 14.6325L6.87672 14.7638C7.27824 15.2249 7.91045 15.379 8.56586 15.2921C9.22342 15.2049 9.93045 14.8744 10.53 14.3277L10.3952 14.1799ZM7.02755 14.6325L7.17837 14.5011C6.89234 14.1727 6.81334 13.6685 6.96188 13.1004C7.10964 12.5353 7.478 11.9343 8.0396 11.4537L7.90956 11.3017L7.77952 11.1498C7.16129 11.6789 6.745 12.3486 6.57489 12.9992C6.40555 13.6468 6.47547 14.3031 6.87672 14.7638L7.02755 14.6325ZM7.90956 11.3017L8.04559 11.4484C8.54811 10.9821 9.17745 10.6806 9.85123 10.5828L9.8225 10.3849L9.79378 10.187C9.03922 10.2965 8.33516 10.6341 7.77353 11.1551L7.90956 11.3017ZM10.464 8.74855L10.5251 8.93899C10.8456 8.83616 11.1875 8.82275 11.5149 8.90015L11.5609 8.70551L11.6069 8.51088C11.2087 8.41673 10.7927 8.43306 10.4029 8.55811L10.464 8.74855ZM11.5609 8.70551L11.5149 8.90015C11.8423 8.97755 12.1434 9.14297 12.3864 9.37933L12.5258 9.23598L12.6653 9.09263C12.3708 8.8061 12.0052 8.60503 11.6069 8.51088L11.5609 8.70551ZM12.5258 9.23598L12.3944 9.38673C12.6613 9.6194 12.8272 9.94995 12.8553 10.3068L13.0547 10.2911L13.2541 10.2754C13.2179 9.81506 13.0037 9.38724 12.6572 9.08523L12.5258 9.23598ZM13.0547 10.2911L12.8553 10.3068C12.8834 10.6636 12.7713 11.0169 12.544 11.2898L12.6976 11.4178L12.8513 11.5458C13.1458 11.1922 13.2904 10.7357 13.2541 10.2754L13.0547 10.2911ZM12.6976 11.4178L12.5695 11.2642C12.298 11.4907 11.9503 11.6003 11.6007 11.5701L11.5836 11.7694L11.5664 11.9687C12.0217 12.0079 12.4737 11.8651 12.8258 11.5714L12.6976 11.4178ZM11.5836 11.7694L11.6007 11.5701C11.2512 11.54 10.9265 11.3724 10.6964 11.1024L10.5441 11.2321L10.3919 11.3618C10.6897 11.7113 11.1111 11.9294 11.5664 11.9687L11.5836 11.7694ZM10.5441 11.2321L10.6675 11.0747C10.487 10.9332 10.3507 10.7413 10.2757 10.5221L10.0865 10.5868L9.89726 10.6516C9.99717 10.9435 10.1789 11.2 10.4208 11.3895L10.5441 11.2321ZM10.0865 10.5868L10.2757 10.5221C10.2007 10.3028 10.1903 10.0661 10.2458 9.84092L10.0516 9.79304L9.85741 9.74516C9.78353 10.0448 9.79736 10.3597 9.89726 10.6516L10.0865 10.5868ZM11.2772 9.79304L11.1264 9.92439L11.2982 10.1217L11.449 9.99034L11.5998 9.85899L11.428 9.66169L11.2772 9.79304ZM12.6288 5.90522C12.5622 5.71663 12.5621 5.71668 12.562 5.71673C12.5619 5.71675 12.5618 5.7168 12.5616 5.71684C12.5614 5.71692 12.5612 5.717 12.5609 5.7171C12.5604 5.71729 12.5598 5.71751 12.5591 5.71778C12.5576 5.7183 12.5558 5.71896 12.5537 5.71978C12.5494 5.7214 12.5437 5.72361 12.5367 5.72645C12.5227 5.73213 12.5035 5.74032 12.48 5.75133C12.433 5.77333 12.3685 5.80671 12.2936 5.8539C12.1441 5.94815 11.9515 6.09872 11.7762 6.32541C11.4197 6.78628 11.1563 7.53319 11.4142 8.6877L11.6093 8.6441L11.8045 8.6005C11.5699 7.54998 11.8162 6.92745 12.0926 6.57014C12.2337 6.38774 12.3883 6.26703 12.5069 6.19228C12.5661 6.15497 12.6158 6.12941 12.6496 6.1136C12.6665 6.10571 12.6793 6.10028 12.6872 6.09706C12.6912 6.09545 12.6939 6.0944 12.6953 6.09386C12.696 6.0936 12.6964 6.09346 12.6964 6.09346C12.6964 6.09345 12.6963 6.09348 12.6962 6.09354C12.6961 6.09357 12.696 6.09361 12.6959 6.09365C12.6958 6.09368 12.6957 6.09372 12.6956 6.09373C12.6955 6.09377 12.6954 6.09381 12.6288 5.90522ZM13.9806 7.27466L13.9879 7.07479C13.7304 7.06531 13.4739 7.11038 13.2347 7.20704L13.3096 7.39248L13.3845 7.57791C13.5716 7.50231 13.7721 7.46712 13.9732 7.47452L13.9806 7.27466ZM13.3096 7.39248L13.2347 7.20704C12.9955 7.3037 12.779 7.44979 12.599 7.6358L12.7428 7.77487L12.8865 7.91394C13.0278 7.76791 13.1975 7.65351 13.3845 7.57791L13.3096 7.39248ZM12.7428 7.77487L12.599 7.6358C12.4191 7.82181 12.2795 8.04365 12.1892 8.28708L12.3767 8.35666L12.5642 8.42623C12.6354 8.23443 12.7452 8.05998 12.8865 7.91394L12.7428 7.77487ZM12.3767 8.35666L12.1892 8.28708C12.0989 8.53051 12.0597 8.79026 12.0741 9.04978L12.2738 9.03868L12.4735 9.02758C12.4621 8.82286 12.4931 8.61804 12.5642 8.42623L12.3767 8.35666ZM32.6517 8.87621H32.4517C32.4517 9.6271 31.8516 10.2313 31.1168 10.2313V10.4313V10.6313C32.0774 10.6313 32.8517 9.84307 32.8517 8.87621H32.6517ZM31.1168 10.4313V10.2313C30.382 10.2313 29.7818 9.6271 29.7818 8.87621H29.5818H29.3818C29.3818 9.84307 30.1561 10.6313 31.1168 10.6313V10.4313ZM29.5818 8.87621H29.7818C29.7818 8.12532 30.382 7.52108 31.1168 7.52108V7.32108V7.12108C30.1561 7.12108 29.3818 7.90935 29.3818 8.87621H29.5818ZM31.1168 7.32108V7.52108C31.8516 7.52108 32.4517 8.12532 32.4517 8.87621H32.6517H32.8517C32.8517 7.90935 32.0774 7.12108 31.1168 7.12108V7.32108ZM31.1169 5H30.9169V5.89362H31.1169H31.3169V5H31.1169ZM33.8316 6.0793L33.6904 5.93757L33.0261 6.59908L33.1672 6.7408L33.3083 6.88253L33.9727 6.22102L33.8316 6.0793ZM35 8.87621V8.67621H33.9347V8.87621V9.07621H35V8.87621ZM33.0297 10.7331L32.8864 10.8726L33.6882 11.6965L33.8316 11.5571L33.9749 11.4176L33.1731 10.5936L33.0297 10.7331ZM31.1169 11.5571H30.9169V12.6596H31.1169H31.3169V11.5571H31.1169ZM29.1581 10.7331L29.0147 10.5936L28.2129 11.4176L28.3563 11.5571L28.4996 11.6965L29.3014 10.8726L29.1581 10.7331ZM28.425 8.87621V8.67621H27.1993V8.87621V9.07621H28.425V8.87621ZM28.3563 6.0793L28.216 6.22184L29.0178 7.01101L29.1581 6.86846L29.2984 6.72592L28.4965 5.93675L28.3563 6.0793ZM5 34.9536V35.1536H35V34.9536V34.7536H5V34.9536ZM17.3024 22.0135H17.1024C17.1024 21.9761 17.1331 21.9412 17.1764 21.9412V22.1412V22.3412C17.3589 22.3412 17.5024 22.192 17.5024 22.0135H17.3024ZM17.1764 22.1412V21.9412C17.2197 21.9412 17.2504 21.9761 17.2504 22.0135H17.0504H16.8504C16.8504 22.192 16.9939 22.3412 17.1764 22.3412V22.1412ZM17.0504 22.0135H17.2504C17.2504 22.051 17.2197 22.0859 17.1764 22.0859V21.8859V21.6859C16.9939 21.6859 16.8504 21.8351 16.8504 22.0135H17.0504ZM17.1764 21.8859V22.0859C17.1331 22.0859 17.1024 22.051 17.1024 22.0135H17.3024H17.5024C17.5024 21.8351 17.3589 21.6859 17.1764 21.6859V21.8859ZM31.9874 33.3056H31.7874C31.7874 33.2553 31.8283 33.2101 31.8843 33.2101V33.4101V33.6101C32.0542 33.6101 32.1874 33.4713 32.1874 33.3056H31.9874ZM31.8843 33.4101V33.2101C31.9403 33.2101 31.9812 33.2553 31.9812 33.3056H31.7812H31.5812C31.5812 33.4713 31.7145 33.6101 31.8843 33.6101V33.4101ZM31.7812 33.3056H31.9812C31.9812 33.3559 31.9403 33.4012 31.8843 33.4012V33.2012V33.0012C31.7145 33.0012 31.5812 33.14 31.5812 33.3056H31.7812ZM31.8843 33.2012V33.4012C31.8283 33.4012 31.7874 33.3559 31.7874 33.3056H31.9874H32.1874C32.1874 33.14 32.0542 33.0012 31.8843 33.0012V33.2012ZM17.2451 17.882H17.0451V20.4004H17.2451H17.4451V17.882H17.2451ZM8.86026 23.766L8.66026 23.766L8.66024 28.9884L8.86024 28.9884L9.06024 28.9884L9.06026 23.766L8.86026 23.766ZM26.4662 19.8665L26.2662 19.8665L26.2662 27.3636L26.4662 27.3636L26.6662 27.3636L26.6662 19.8665L26.4662 19.8665Z" fill="#737373"/>
</svg>
