<svg width="40" height="40" viewBox="0 0 40 40" fill="none" xmlns="http://www.w3.org/2000/svg">
<path d="M11.0919 21.5282C11.0919 21.5282 12.9216 16.9839 14.0568 14.8257C14.2305 14.504 15.3924 14.4906 15.5393 14.8257C15.8064 15.3619 16.354 16.5952 16.6745 17.3056C16.7398 17.4676 16.8527 17.6058 16.9983 17.7016C17.1439 17.7974 17.3152 17.8464 17.4892 17.8418H19.9734C20.1253 17.8406 20.2753 17.8766 20.4103 17.9467C20.5452 18.0168 20.6612 18.1188 20.748 18.244L23.152 21.7024M26.4775 21.689L27.0785 18.2574C27.0919 18.1768 27.0827 18.094 27.0521 18.0183C27.0214 17.9426 26.9705 17.8768 26.9049 17.8284L25.5693 16.8231C25.4783 16.7582 25.4162 16.6602 25.3962 16.55C25.3763 16.4398 25.4 16.3261 25.4625 16.2332L27.0518 13.7399C27.0986 13.6239 27.0986 13.4941 27.0518 13.378L25.5026 8.01609M23.2989 11.9705L21.6561 15.1475C21.5889 15.2813 21.4858 15.3937 21.3584 15.4718C21.2309 15.55 21.0843 15.5909 20.9349 15.5898H19.8531C19.7005 15.5898 19.5506 15.6308 19.4191 15.7086C19.2875 15.7864 19.1792 15.8981 19.1052 16.0322L18.0635 17.8686M23.6862 15.63L21.4291 15.5764M11.5325 15.5764L10.5309 17.0912C10.4431 17.2174 10.3276 17.3217 10.1933 17.3961C10.059 17.4705 9.90946 17.5129 9.75623 17.5201H8.31383M15.5392 5V8.41823C15.5361 8.70287 15.6357 8.979 15.8196 9.19571L18.3038 12.1448C18.4365 12.3028 18.5189 12.4971 18.5403 12.7026C18.5617 12.9082 18.5212 13.1154 18.424 13.2976L16.5008 16.9839M4 21.689H36M33.6227 21.5416L31.8999 24.9598C31.8375 25.088 31.7407 25.1961 31.6203 25.2719C31.4999 25.3477 31.3608 25.3882 31.2187 25.3887H27.5726C27.4393 25.3905 27.3095 25.4323 27.2 25.5087C27.0905 25.5852 27.0063 25.6928 26.9583 25.8177L26.3439 27.4129C26.2865 27.5506 26.1901 27.6685 26.0667 27.7519C25.9433 27.8353 25.7982 27.8805 25.6494 27.882H24.1135C23.8995 27.8836 23.6882 27.9297 23.4928 28.0174C23.2974 28.1051 23.1222 28.2324 22.9783 28.3914L22.3907 29.0751M5.53593 21.689L7.98 24.7319C8.03522 24.7991 8.10457 24.8532 8.18309 24.8902C8.2616 24.9273 8.34732 24.9465 8.43409 24.9464H16.3272C16.4886 24.9425 16.6484 24.9784 16.7927 25.0508C16.9371 25.1233 17.0616 25.2301 17.1553 25.3619L18.7713 27.4799M14.2837 24.8928L19.025 31.7426C19.025 31.7426 19.9866 32.7882 21.1084 30.496M9.60928 31.9839C10.3216 32.1364 10.9835 32.4686 11.5325 32.9491C11.8664 33.3646 12.7478 32.9491 13.3355 32.5603C13.4989 32.4552 13.689 32.3994 13.8831 32.3994C14.0772 32.3994 14.2672 32.4552 14.4307 32.5603C14.8847 32.8955 15.5392 33.2574 16.02 33.0697M27.9199 29.1689C27.9199 29.1689 29.0952 30.2279 30.0435 28.6193C30.4708 27.8954 32.0468 30.2815 33.4091 28.6193C33.5827 28.4182 33.7697 27.9759 34.4909 28.4316M6.55096 28.7399C6.55096 28.7399 7.7129 29.7855 8.6745 28.1903C9.10188 27.4665 10.6645 29.8525 12.0268 28.1903C12.2137 27.9759 12.4007 27.5335 13.1219 28.0027M4 35H36M5.76287 21.689L6.96487 17.5469H8.12681L14.5108 5.48258C14.5805 5.35864 14.6812 5.25511 14.803 5.18223C14.9248 5.10935 15.0635 5.06964 15.2053 5.06703H15.9933C16.1068 5.06563 16.2192 5.08886 16.323 5.13513C16.4267 5.1814 16.5192 5.24962 16.5943 5.33512L22.7512 12.1046C22.7893 12.145 22.8366 12.1757 22.889 12.194C22.9414 12.2123 22.9974 12.2178 23.0524 12.2099C23.1073 12.202 23.1596 12.181 23.2047 12.1487C23.2499 12.1164 23.2868 12.0737 23.3121 12.0241L25.1151 8.47185C25.1672 8.36723 25.2472 8.27922 25.3463 8.21766C25.4454 8.15611 25.5595 8.12344 25.6761 8.12333H26.8781C27.0242 8.12087 27.1679 8.16146 27.2913 8.24008C27.4148 8.3187 27.5125 8.4319 27.5726 8.56569L33.7028 21.756L5.76287 21.689Z" stroke="#737373" stroke-width="0.4" stroke-miterlimit="10" stroke-linecap="round"/>
</svg>
