<svg width="40" height="40" viewBox="0 0 40 40" fill="none" xmlns="http://www.w3.org/2000/svg">
<path d="M11.7801 24.1102H33.9701C34.1301 24.1075 34.2827 24.0421 34.395 23.928C34.5072 23.8139 34.5701 23.6602 34.5701 23.5002V22.5802C34.5701 22.4201 34.5072 22.2664 34.395 22.1523C34.2827 22.0382 34.1301 21.9728 33.9701 21.9702H14.2601C13.8821 21.9808 13.5233 22.1387 13.2601 22.4102L6.3201 29.3402C6.11618 29.5528 6.00164 29.8356 6.0001 30.1302V32.4302C5.99916 32.4526 6.00509 32.4747 6.01711 32.4937C6.02912 32.5126 6.04664 32.5274 6.06731 32.5361C6.08799 32.5448 6.11083 32.547 6.13277 32.5424C6.15472 32.5377 6.17472 32.5265 6.1901 32.5102L13.6501 25.2302M13.6501 32.5502L6.00012 32.5402M17.9701 19.2802H30.1901M21.1901 19.4301V21.9701M26.9601 19.4301V21.9701M16.6402 13.5901V21.9801H14.5302V13.5901M33.6802 13.5901V21.9801H31.5602V13.5901M8.02014 27.6402V30.7202M9.82007 25.8202V28.9502M11.6802 23.9601L11.7802 27.0301M15.3801 6.16016L13.6601 11.5602C13.6486 11.5942 13.6456 11.6305 13.6514 11.6659C13.6572 11.7013 13.6716 11.7348 13.6933 11.7634C13.715 11.792 13.7434 11.8149 13.7759 11.83C13.8085 11.8451 13.8442 11.852 13.8801 11.8502H34.3201C34.3563 11.851 34.3922 11.8429 34.4245 11.8265C34.4568 11.8102 34.4846 11.7861 34.5054 11.7564C34.5262 11.7267 34.5393 11.6923 34.5436 11.6564C34.5479 11.6204 34.5433 11.5839 34.5301 11.5502L32.5301 6.15016C32.5141 6.10702 32.4856 6.06967 32.4481 6.04293C32.4107 6.01619 32.3661 6.00129 32.3201 6.00016H15.6001C15.5508 5.9983 15.5023 6.01306 15.4624 6.04208C15.4225 6.0711 15.3935 6.11268 15.3801 6.16016ZM13.8401 13.5902H34.3801C34.4305 13.5902 34.4789 13.5701 34.5145 13.5345C34.5501 13.4989 34.5701 13.4506 34.5701 13.4002V11.8502H13.6501V13.4002C13.6526 13.4498 13.6734 13.4967 13.7085 13.5318C13.7436 13.5669 13.7905 13.5877 13.8401 13.5902ZM33.6501 24.1102V34.1102C33.6501 34.2348 33.6006 34.3544 33.5125 34.4425C33.4243 34.5306 33.3048 34.5802 33.1801 34.5802H14.1101C13.9855 34.5802 13.8659 34.5306 13.7778 34.4425C13.6897 34.3544 13.6401 34.2348 13.6401 34.1102V24.1102H33.6501ZM18.2302 26.7502H19.6102C19.8492 26.7502 20.0858 26.7972 20.3067 26.8887C20.5275 26.9802 20.7281 27.1142 20.8971 27.2832C21.0661 27.4522 21.2002 27.6529 21.2916 27.8737C21.3831 28.0945 21.4302 28.3311 21.4302 28.5702V34.5702H16.4302V28.5702C16.4301 28.0909 16.6191 27.631 16.9562 27.2902C17.2932 26.9495 17.751 26.7554 18.2302 26.7502ZM27.7501 26.7502H29.1301C29.6128 26.7502 30.0757 26.9419 30.417 27.2832C30.7583 27.6245 30.9501 28.0875 30.9501 28.5702V34.5702H25.9501V28.5702C25.95 28.0909 26.139 27.631 26.476 27.2902C26.8131 26.9495 27.2709 26.7554 27.7501 26.7502ZM21.3101 15.4501C21.5727 15.4501 21.8328 15.5019 22.0755 15.6024C22.3181 15.7029 22.5386 15.8502 22.7243 16.0359C22.91 16.2217 23.0573 16.4421 23.1578 16.6848C23.2584 16.9274 23.3101 17.1875 23.3101 17.4501V21.9601H19.3101V17.4601C19.3088 17.1967 19.3595 16.9355 19.4594 16.6917C19.5594 16.4479 19.7065 16.2262 19.8923 16.0395C20.0782 15.8527 20.2991 15.7045 20.5424 15.6033C20.7857 15.5022 21.0466 15.4501 21.3101 15.4501ZM26.9601 15.4501C27.4905 15.4501 27.9993 15.6609 28.3743 16.0359C28.7494 16.411 28.9601 16.9197 28.9601 17.4501V21.9601H24.9601V17.4601C24.9588 17.1967 25.0096 16.9355 25.1095 16.6917C25.2094 16.4479 25.3565 16.2262 25.5423 16.0395C25.7282 15.8527 25.9491 15.7045 26.1924 15.6033C26.4357 15.5022 26.6966 15.4501 26.9601 15.4501Z" stroke="#737373" stroke-width="0.4" stroke-miterlimit="10" stroke-linecap="round"/>
</svg>
