<svg width="40" height="40" viewBox="0 0 40 40" fill="none" xmlns="http://www.w3.org/2000/svg">
<path d="M7.94462 19.8786V23.0005M9.91887 19.8786V23.0005M11.7593 19.8786V23.0005M7.51272 18.4946L9.78511 15.7369C9.80143 15.7153 9.82244 15.6978 9.84651 15.6858C9.87058 15.6738 9.89707 15.6675 9.92392 15.6675C9.95077 15.6675 9.97726 15.6738 10.0013 15.6858C10.0254 15.6978 10.0464 15.7153 10.0627 15.7369L12.2323 18.4946M9.92911 15.841L9.86741 8.55655C9.86741 8.39005 9.73374 8.3068 9.57951 8.28598C9.24019 8.28598 8.46902 8.39005 8.46902 8.28598V6.68341C8.4634 6.58762 8.47897 6.49176 8.51459 6.40282C8.55021 6.31388 8.60499 6.23411 8.67493 6.16931C8.74487 6.10451 8.82821 6.05631 8.91888 6.02823C9.00955 6.00016 9.10527 5.9929 9.19906 6.007H12.7053C12.8018 6.00901 12.8966 6.03353 12.9822 6.07865C13.0678 6.12378 13.1419 6.18829 13.1989 6.26716L22.9671 20.3885V22.397M13.7541 7.04763L30.5863 12.667C30.6452 12.6862 30.6953 12.7262 30.7274 12.7797C30.7595 12.8332 30.7714 12.8967 30.7611 12.9584M30.7611 12.9584L30.0619 16.7047M30.7611 12.9584C30.7611 12.9584 30.9461 11.8554 31.7275 11.9178C31.7275 11.9178 32.5398 11.9178 32.5604 12.615V30.722M22.8642 24.9881V30.722M25.4862 24.9881V30.722M30.0824 24.9881V30.722M14.5869 34H6.00123V32.2621C6.00123 32.2621 5.90869 31.5233 7.32765 31.8251C7.67222 31.9276 8.03476 31.9528 8.38996 31.8989C8.74515 31.845 9.08443 31.7132 9.38411 31.5129C10.0627 31.107 10.9984 32.3662 12.5408 31.5129C12.8998 31.3517 13.3038 31.3249 13.6805 31.4374C14.0572 31.5499 14.3821 31.7943 14.5972 32.1269M14.5869 34L33.5065 34C33.6373 34 33.7629 33.9474 33.8554 33.8537C33.948 33.76 34 33.633 34 33.5005V31.1903C34 31.1247 33.9872 31.0597 33.9624 30.9991C33.9376 30.9385 33.9013 30.8835 33.8554 30.8371C33.8096 30.7907 33.7552 30.7539 33.6953 30.7288C33.6354 30.7037 33.5713 30.6908 33.5065 30.6908H15.0806C15.0122 30.6906 14.9444 30.7047 14.8817 30.7324C14.819 30.76 14.7626 30.8006 14.7162 30.8515C14.6698 30.9024 14.6343 30.9625 14.6121 31.028C14.5899 31.0935 14.5813 31.1629 14.587 31.2319L14.5869 34ZM22.967 20.3573V17.7974C22.967 17.7974 22.7305 16.7567 24.1804 16.7567H31.2237C31.2237 16.7567 32.5604 16.6319 32.5604 17.6725M24.6122 18.8484H26.062M27.0285 18.8484H28.4475M28.1494 24.7384V26.7364C28.1482 26.9169 28.1991 27.0938 28.2959 27.2454C28.3927 27.397 28.5312 27.5167 28.6943 27.5897C29.1442 27.7478 29.6292 27.7731 30.0927 27.6625M9.29154 8.28599H11.492C11.5757 8.28639 11.6582 8.30631 11.7331 8.34421C11.808 8.38211 11.8733 8.43697 11.9238 8.50452L21.4246 22.397M6.48458 18.6195H13.3634C13.4188 18.6195 13.4736 18.6305 13.5248 18.6519C13.5759 18.6734 13.6224 18.7048 13.6615 18.7444C13.7007 18.784 13.7317 18.8311 13.7529 18.8828C13.7741 18.9346 13.785 18.9901 13.785 19.0461V24.0099C13.785 24.1203 13.7417 24.2262 13.6645 24.3043C13.5874 24.3823 13.4828 24.4262 13.3737 24.4262H6.48458C6.37277 24.4262 6.26555 24.3812 6.18649 24.3012C6.10742 24.2212 6.06301 24.1127 6.06301 23.9995V19.0357C6.06569 18.9244 6.11129 18.8185 6.19006 18.7407C6.26883 18.6629 6.37453 18.6194 6.48458 18.6195ZM20.1394 22.3657H32.2006C32.296 22.3657 32.3875 22.4041 32.455 22.4724C32.5225 22.5407 32.5604 22.6334 32.5604 22.73V24.3429C32.5604 24.4395 32.5225 24.5322 32.455 24.6005C32.3875 24.6688 32.296 24.7072 32.2006 24.7072H20.1394C19.984 24.7072 19.8349 24.6447 19.725 24.5334C19.6151 24.4222 19.5533 24.2713 19.5533 24.114V22.9693C19.552 22.8905 19.5661 22.8123 19.595 22.7391C19.6238 22.6659 19.6668 22.5993 19.7213 22.5431C19.7759 22.4869 19.841 22.4423 19.9127 22.4119C19.9845 22.3814 20.0616 22.3657 20.1394 22.3657Z" stroke="#737373" stroke-width="0.4" stroke-miterlimit="10"/>
</svg>
