<svg width="40" height="40" viewBox="0 0 40 40" fill="none" xmlns="http://www.w3.org/2000/svg">
<path d="M8.46252 14.0391H14.5625M15.9875 14.0391H20M22.4374 14.0391H24.5874M26.3 14.0391H31.025M5.62505 11.7271L19.575 5.09579C19.7125 5.03266 19.8617 5 20.0125 5C20.1634 5 20.3126 5.03266 20.45 5.09579L34.425 11.7271C34.4538 11.7448 34.4764 11.7711 34.4898 11.8024C34.5032 11.8337 34.5067 11.8685 34.4999 11.902C34.493 11.9354 34.4761 11.9659 34.4515 11.9891C34.427 12.0124 34.3959 12.0274 34.3625 12.0319H5.70005C5.66577 12.0296 5.63311 12.0162 5.60677 11.9938C5.58042 11.9714 5.56174 11.9411 5.55341 11.9072C5.54507 11.8734 5.54752 11.8377 5.56039 11.8053C5.57326 11.7729 5.5959 11.7455 5.62505 11.7271ZM33.0501 12.0319V15.4619C33.0501 15.6135 32.9908 15.7589 32.8853 15.8661C32.7798 15.9733 32.6367 16.0336 32.4875 16.0336H7.48755C7.33836 16.0336 7.19529 15.9733 7.0898 15.8661C6.98431 15.7589 6.92505 15.6135 6.92505 15.4619V12.0319H33.0501ZM8.4375 16.1098H11.9875V17.8248C11.9875 17.8719 11.9691 17.9172 11.9362 17.9505C11.9034 17.9839 11.8589 18.0026 11.8125 18.0026H8.6375C8.59285 18.0101 8.54708 17.9998 8.50979 17.9737C8.4725 17.9477 8.44659 17.9079 8.4375 17.8629V16.1098ZM14.9625 16.1098H18.4375V17.8121C18.4375 17.8371 18.4326 17.8619 18.4232 17.885C18.4138 17.9081 18.4 17.9291 18.3825 17.9468C18.3651 17.9645 18.3445 17.9785 18.3217 17.9881C18.299 17.9977 18.2746 18.0026 18.25 18.0026H15.15C15.1002 18.0026 15.0525 17.9825 15.0174 17.9468C14.9822 17.9111 14.9625 17.8626 14.9625 17.8121V16.1098ZM21.4626 16.1098H24.9751V17.8883C24.9751 17.9254 24.9606 17.9609 24.9348 17.9871C24.909 18.0133 24.874 18.028 24.8376 18.028H21.6001C21.5636 18.028 21.5286 18.0133 21.5028 17.9871C21.477 17.9609 21.4626 17.9254 21.4626 17.8883V16.1098ZM31.6875 16.1098V17.7104C31.6875 17.7879 31.6572 17.8623 31.6033 17.917C31.5494 17.9718 31.4763 18.0026 31.4 18.0026H28.4375C28.3613 18.0026 28.2881 17.9718 28.2342 17.917C28.1803 17.8623 28.15 17.7879 28.15 17.7104V16.1098H31.6875ZM8.86246 18.0407H11.375V25.8534H8.86246V18.0407ZM15.4625 18.0407H17.975V25.9678H15.4625V18.0407ZM22.075 18.0407H24.5875V26.0821H22.075V18.0407ZM28.6749 18.0407H31.1874V26.1964H28.6749V18.0407ZM8.63755 25.8534H11.6876C11.727 25.8534 11.766 25.8613 11.8024 25.8766C11.8388 25.892 11.8718 25.9144 11.8997 25.9427C11.9275 25.971 11.9496 26.0047 11.9647 26.0416C11.9798 26.0786 11.9876 26.1183 11.9876 26.1583V27.543H8.33755V26.1456C8.34078 26.067 8.37381 25.9927 8.42972 25.9382C8.48564 25.8837 8.56011 25.8534 8.63755 25.8534ZM15.2001 25.9678H18.2626C18.3421 25.9678 18.4184 25.9999 18.4747 26.0571C18.5309 26.1142 18.5626 26.1918 18.5626 26.2727V27.3779H14.9001V26.2727C14.9001 26.1918 14.9317 26.1142 14.9879 26.0571C15.0442 25.9999 15.1205 25.9678 15.2001 25.9678ZM21.7999 26.0821H24.8624C24.942 26.0821 25.0183 26.1142 25.0746 26.1714C25.1308 26.2286 25.1624 26.3061 25.1624 26.387V27.3779H21.4999V26.387C21.4999 26.3061 21.5315 26.2286 21.5878 26.1714C21.6441 26.1142 21.7204 26.0821 21.7999 26.0821ZM28.4375 26.0821H31.4875C31.5671 26.0821 31.6434 26.1142 31.6996 26.1714C31.7559 26.2286 31.7875 26.3061 31.7875 26.387V27.3779H28.1125V26.387C28.1123 26.3447 28.1209 26.3029 28.1375 26.2641C28.1541 26.2254 28.1784 26.1906 28.209 26.1619C28.2396 26.1332 28.2757 26.1113 28.315 26.0976C28.3543 26.0839 28.396 26.0786 28.4375 26.0821ZM7.35007 27.8098H32.6501C32.871 27.8098 33.0501 27.9918 33.0501 28.2163V29.855C33.0501 30.0796 32.871 30.2616 32.6501 30.2616H7.35007C7.12916 30.2616 6.95007 30.0796 6.95007 29.855V28.2163C6.95007 27.9918 7.12916 27.8098 7.35007 27.8098ZM6.275 30.2743H33.6125C33.7989 30.2743 33.95 30.4278 33.95 30.6173V32.2941C33.95 32.4836 33.7989 32.6371 33.6125 32.6371H6.275C6.0886 32.6371 5.9375 32.4836 5.9375 32.2941V30.6173C5.9375 30.4278 6.0886 30.2743 6.275 30.2743ZM5.5375 32.6371H34.4625C34.7594 32.6371 35 32.8817 35 33.1834V34.4537C35 34.7554 34.7594 35 34.4625 35H5.5375C5.24065 35 5 34.7554 5 34.4537V33.1834C5 32.8817 5.24065 32.6371 5.5375 32.6371ZM19.0999 7.44595L18.5124 8.47494C18.4696 8.55026 18.4471 8.63569 18.4471 8.72266C18.4471 8.80963 18.4696 8.89506 18.5124 8.97038L19.0999 9.97396C19.1407 10.0484 19.2006 10.1102 19.2733 10.1527C19.3459 10.1952 19.4286 10.2169 19.5124 10.2153H20.5374C20.6222 10.2143 20.7052 10.1901 20.7778 10.1455C20.8503 10.1008 20.9098 10.0372 20.9499 9.96126L21.4999 8.94497C21.5431 8.87445 21.566 8.79303 21.566 8.70996C21.566 8.62688 21.5431 8.54546 21.4999 8.47494L20.9249 7.44595C20.8842 7.3715 20.8242 7.30971 20.7516 7.2672C20.6789 7.22468 20.5963 7.20304 20.5124 7.20458H19.5124C19.4286 7.20304 19.3459 7.22468 19.2733 7.2672C19.2006 7.30971 19.1407 7.3715 19.0999 7.44595Z" stroke="#737373" stroke-width="0.4" stroke-miterlimit="10"/>
</svg>
