<svg width="40" height="40" viewBox="0 0 40 40" fill="none" xmlns="http://www.w3.org/2000/svg">
<path d="M20 5C14.4772 5 10 9.56088 10 15.187C10 20.8132 14.4772 25.374 20 25.374C25.5228 25.374 30 20.8132 30 15.187C30 9.56088 25.5228 5 20 5ZM20 5C20 5 14.8165 11.6997 19.1577 25.33M16.609 5.59406C16.609 5.59406 9.93515 14.923 16.2526 24.626C16.2526 24.626 18.6394 28.3553 18.5854 30.5555M20.4643 5C20.4643 5 24.784 11.8647 21.0259 25.308M23.3801 5.59406C25.452 8.3035 26.6047 11.6247 26.6651 15.0586C26.7254 18.4926 25.6902 21.8537 23.7149 24.637C23.7149 24.637 21.5551 28.2013 21.3175 30.5445M10.2159 17.2882C10.2159 17.2882 11.9654 20.2695 13.5313 17.7063C13.5447 17.6835 13.5637 17.6646 13.5864 17.6515C13.6091 17.6385 13.6348 17.6316 13.6609 17.6316C13.6869 17.6316 13.7126 17.6385 13.7353 17.6515C13.758 17.6646 13.777 17.6835 13.7904 17.7063C14.2548 18.4543 15.7451 20.7206 17.419 17.9153C17.4332 17.8902 17.4536 17.8693 17.4783 17.8548C17.5029 17.8402 17.5309 17.8326 17.5593 17.8326C17.5878 17.8326 17.6158 17.8402 17.6404 17.8548C17.6651 17.8693 17.6855 17.8902 17.6997 17.9153C17.8977 18.3778 18.2173 18.7757 18.6232 19.0649C19.0291 19.3542 19.5055 19.5236 19.9999 19.5545C20.4515 19.5222 20.8914 19.394 21.2913 19.178C21.6912 18.962 22.0422 18.663 22.3218 18.3003C22.3344 18.2749 22.3537 18.2535 22.3775 18.2385C22.4013 18.2236 22.4288 18.2157 22.4568 18.2157C22.4847 18.2157 22.5122 18.2236 22.536 18.2385C22.5598 18.2535 22.5791 18.2749 22.5917 18.3003C22.7148 18.7195 22.9672 19.0872 23.3115 19.3487C23.6558 19.6103 24.0737 19.7519 24.5032 19.7525C24.5032 19.7525 25.5291 19.8845 26.3282 18.3993C26.3422 18.3789 26.3607 18.3622 26.3824 18.3507C26.404 18.3392 26.428 18.3332 26.4524 18.3332C26.4768 18.3332 26.5009 18.3392 26.5225 18.3507C26.5441 18.3622 26.5627 18.3789 26.5766 18.3993C27.0086 18.9164 28.3585 20.2035 29.5788 18.0583M11.7711 20.9626L17.689 30.5446M28.4342 20.6546L22.3219 30.5445M17.8726 27.4752H22.1815M21.6306 25.33L20.7667 27.4752M20 25.6051V27.4752M18.0453 25.176L19.1144 27.4752M17.3758 32.1837H22.7537M18.3045 30.7206V32.1837M20 30.7206V32.1837M21.5227 30.7206V32.1837M17.527 30.5446H22.5054C22.6257 30.5446 22.7411 30.5932 22.8262 30.6799C22.9112 30.7665 22.959 30.8841 22.959 31.0066V33.6029C22.9591 33.9696 22.8175 34.3217 22.565 34.5831C22.3124 34.8445 21.9691 34.9942 21.6091 35H18.4342C18.0723 34.9971 17.7262 34.8486 17.4714 34.5869C17.2165 34.3252 17.0735 33.9715 17.0735 33.6029V31.0176C17.072 30.956 17.0827 30.8947 17.1049 30.8374C17.127 30.7801 17.1602 30.7278 17.2025 30.6838C17.2447 30.6397 17.2952 30.6047 17.3509 30.5807C17.4067 30.5568 17.4666 30.5445 17.527 30.5446Z" stroke="#737373" stroke-width="0.4" stroke-miterlimit="10"/>
</svg>
