<svg width="40" height="40" viewBox="0 0 40 40" fill="none" xmlns="http://www.w3.org/2000/svg">
<path d="M22.856 23.8938C22.5592 19.561 23.2588 15.2175 24.8993 11.2081C24.8993 11.2081 24.9839 10.7554 24.7722 10.6261C24.5605 10.4968 24.2746 10.7878 24.2746 10.7878C24.2746 10.7878 20.9504 14.6247 20.6223 23.8938M26.2755 10.0441C29.695 9.86086 30.5101 14.3553 30.5101 14.3553C28.778 12.8414 26.8149 11.6255 24.6981 10.7554C28.594 8.83695 30.9654 9.02018 30.9654 9.02018C25.8309 5.71134 24.5393 10.7554 24.5393 10.7554C23.946 8.58554 22.8203 6.60496 21.268 5C21.268 5 25.2168 5.71135 25.5027 8.9124M24.444 11.0249C25.7539 13.0489 26.4869 15.4031 26.5613 17.8258C26.5613 17.8258 30.0655 12.8032 24.9522 11.0788M22.9725 23.9153C23.3642 23.6998 24.3593 23.2902 24.317 24.7344C24.317 25.0793 24.8675 23.8614 25.5768 24.2063C25.5768 24.2063 26.0002 24.3141 25.8838 25.2194C25.8838 25.4673 26.6778 25.2194 26.8366 25.047C26.9954 24.8746 26.9107 23.9692 27.7894 24.2063C27.7894 24.2063 28.901 24.3033 28.3928 25.6829C28.2658 26.0062 28.7739 24.6051 29.6526 25.1224C29.6526 25.1224 30.5948 25.532 30.0126 26.3404C29.8008 26.6206 30.9336 27.472 31.3465 26.7499C31.537 26.405 33.5485 28.9594 31.3465 28.6792C30.8171 28.6145 30.2349 28.0002 29.5997 28.2588C29.1762 28.4313 29.4832 29.6169 28.1917 29.3366C28.1188 29.3146 28.0416 29.312 27.9675 29.3289C27.8934 29.3459 27.8248 29.382 27.7682 29.4336C27.0598 30.1654 26.2037 30.7317 25.2592 31.0934M9.78149 24.2063C9.78149 24.2063 8.14057 20.6819 11.8988 21.5334C12.4705 21.6627 10.8402 20.2077 11.6765 19.5287C12.227 19.076 12.6399 19.1191 13.2751 19.949C13.3379 20.0544 13.4321 20.1367 13.5438 20.1841C13.6556 20.2315 13.7793 20.2416 13.8971 20.2128C14.0148 20.184 14.1206 20.1179 14.199 20.024C14.2775 19.9301 14.3247 19.8133 14.3337 19.6904C14.4714 18.4401 13.8997 17.5348 15.6571 17.6749C15.6571 17.6749 16.8428 17.6749 16.6204 20.5849C16.6204 20.9083 17.0651 22.04 17.9014 20.6712C18.1026 20.3586 18.2296 19.6472 19.1083 19.8089C19.1083 19.8089 20.474 19.9059 19.4682 21.5118L19.3094 21.749M9.62271 29.0887C9.62271 29.0887 7.336 27.3427 8.77578 25.8553C8.77578 25.8553 9.83444 24.8961 11.5283 26.7607C11.6659 26.9116 12.1741 26.5128 12.227 26.3188C12.2799 26.1248 11.8141 25.4566 12.6611 24.9177C12.9306 24.7502 13.2536 24.6959 13.5617 24.7663C13.8699 24.8367 14.1391 25.0262 14.3126 25.2949C14.6513 25.7044 13.7197 23.9584 15.0007 23.2794C15.0007 23.2794 15.8794 22.7513 17.118 24.0339C17.3615 24.2818 16.8534 22.9561 17.9226 22.8806C18.0987 22.8662 18.2758 22.8932 18.44 22.9594C18.6043 23.0257 18.7515 23.1295 18.8701 23.2627C18.9888 23.396 19.0758 23.5553 19.1244 23.7282C19.173 23.9012 19.182 24.0832 19.1507 24.2602M10.6814 29.4875L13.4022 30.5653C13.4361 30.5776 13.4729 30.5799 13.508 30.5718C13.5432 30.5638 13.5754 30.5457 13.6009 30.5198C13.6264 30.4938 13.6442 30.461 13.6521 30.4252C13.66 30.3894 13.6578 30.352 13.6457 30.3174C13.4657 29.854 13.1693 28.6145 13.9739 28.6468C14.3867 28.6468 15.3078 29.8216 15.5936 28.7438C15.5936 28.6145 14.4079 27.4505 15.6783 26.7068C15.6783 26.7068 16.5358 26.1248 17.5733 27.3427C17.8909 27.7199 16.8428 25.8769 18.1026 25.4242C18.1026 25.4242 19.0237 24.8638 20.04 26.1571C20.3682 26.5775 19.1931 24.1416 21.3421 24.465C21.3421 24.465 22.6443 24.465 21.9773 26.3188C21.9773 26.4373 22.3267 26.7176 22.4008 26.6098C23.0889 25.7152 23.5971 25.532 24.0735 26.1895C24.0735 26.1895 24.751 26.7284 23.8618 27.7415M14.789 31.1904C17.6653 32.3823 20.8613 32.5082 23.8194 31.5461M8.32057 28.1942C8.32057 28.1942 6.20325 31.5245 12.8516 33.7232C16.3623 34.904 20.0876 35.2722 23.7559 34.801C24.9799 34.6462 26.1813 34.3422 27.3341 33.8957C30.0549 32.8179 34.7448 30.8347 32.331 28.3989M17.9226 9.19263C17.9226 9.19263 23.3006 5.194 24.444 10.7447C22.4619 9.60007 20.1977 9.06123 17.9226 9.19263ZM18.5472 14.3445C18.5472 14.3445 19.2988 8.4705 24.3698 10.6261V10.9386C24.3698 10.9386 22.1149 11.3482 18.5472 14.3445Z" stroke="#737373" stroke-width="0.4" stroke-miterlimit="10" stroke-linecap="round"/>
</svg>
