<svg width="40" height="40" viewBox="0 0 40 40" fill="none" xmlns="http://www.w3.org/2000/svg">
<path d="M19.2447 31.4593L19.245 31.2593H19.2447V31.4593ZM4.03854 25.1569L4.23492 25.195L4.23545 25.192L4.03854 25.1569ZM8.40123 21.0727L8.25163 20.9399L8.25028 20.9415L8.40123 21.0727ZM6.89431 18.748L6.75709 18.6025L6.75633 18.6032L6.89431 18.748ZM36 23.8773L36.2 23.8905V23.8773H36ZM15.1666 8.02014L15.0536 7.85505L15.0491 7.85828L15.1666 8.02014ZM15.3457 8.13744L15.1486 8.10348L15.1478 8.10859L15.3457 8.13744ZM17.6746 11.7418L17.8684 11.7916L17.8696 11.7865L17.6746 11.7418ZM17.485 11.5499L17.4393 11.3552L17.432 11.3569L17.4248 11.3591L17.485 11.5499ZM8.13785 11.9018H7.93785V11.9338L7.94784 11.9642L8.13785 11.9018ZM8.23269 11.7951L8.30176 11.6074L8.28941 11.6029L8.27657 11.6L8.23269 11.7951ZM16.2836 19.3264C16.1732 19.3264 16.0836 19.416 16.0836 19.5264C16.0836 19.6369 16.1732 19.7264 16.2836 19.7264V19.3264ZM18.6968 19.7264C18.8073 19.7264 18.8968 19.6369 18.8968 19.5264C18.8968 19.416 18.8073 19.3264 18.6968 19.3264V19.7264ZM23.1964 19.7423C23.086 19.7423 22.9964 19.8319 22.9964 19.9423C22.9964 20.0528 23.086 20.1423 23.1964 20.1423V19.7423ZM25.6201 20.1423C25.7306 20.1423 25.8201 20.0528 25.8201 19.9423C25.8201 19.8319 25.7306 19.7423 25.6201 19.7423V20.1423ZM19.4555 21.4379C19.3451 21.4379 19.2555 21.5274 19.2555 21.6379C19.2555 21.7483 19.3451 21.8379 19.4555 21.8379V21.4379ZM21.9003 21.8379C22.0108 21.8379 22.1003 21.7483 22.1003 21.6379C22.1003 21.5274 22.0108 21.4379 21.9003 21.4379V21.8379ZM25.6202 22.0137C25.5097 22.0137 25.4202 22.1033 25.4202 22.2137C25.4202 22.3242 25.5097 22.4137 25.6202 22.4137V22.0137ZM28.1809 22.4137C28.2914 22.4137 28.3809 22.3242 28.3809 22.2137C28.3809 22.1033 28.2914 22.0137 28.1809 22.0137V22.4137ZM29.5614 30.1796L29.757 30.1376L29.7558 30.1328L29.5614 30.1796ZM29.3822 31.6939L29.4462 31.8834L29.4757 31.8734L29.5008 31.8549L29.3822 31.6939ZM26.7583 31.9498L26.7845 31.7515L26.7615 31.7485L26.7385 31.7508L26.7583 31.9498ZM24.3346 31.6939L24.2294 31.864L24.2503 31.8769L24.2737 31.8844L24.3346 31.6939ZM23.9552 30.0303L23.7564 30.0087L23.7563 30.0093L23.9552 30.0303ZM26.7583 28.1108V28.3108H26.7655L26.7728 28.3103L26.7583 28.1108ZM34.8198 29.0279L35.0004 28.9419L34.9957 28.932L34.9899 28.9227L34.8198 29.0279ZM33.6817 31.9711L33.6751 32.171L33.6903 32.1715L33.7055 32.1697L33.6817 31.9711ZM21.9003 26.8631H21.7003C21.7003 27.043 21.6074 27.2362 21.3922 27.434C21.1769 27.6321 20.8543 27.8196 20.4389 27.9813C19.6092 28.304 18.4494 28.508 17.1582 28.508V28.708V28.908C18.4861 28.908 19.6973 28.699 20.5839 28.354C21.0265 28.1818 21.3984 27.9718 21.663 27.7284C21.9278 27.4849 22.1003 27.1927 22.1003 26.8631H21.9003ZM17.1582 28.708V28.508C15.8671 28.508 14.7073 28.304 13.8776 27.9813C13.4621 27.8196 13.1395 27.6321 12.9242 27.434C12.7091 27.2362 12.6162 27.043 12.6162 26.8631H12.4162H12.2162C12.2162 27.1927 12.3886 27.4849 12.6534 27.7284C12.918 27.9718 13.2899 28.1818 13.7326 28.354C14.6192 28.699 15.8304 28.908 17.1582 28.908V28.708ZM12.4162 26.8631H12.6162C12.6162 26.6833 12.7091 26.4901 12.9242 26.2923C13.1395 26.0942 13.4621 25.9067 13.8776 25.745C14.7073 25.4223 15.8671 25.2183 17.1582 25.2183V25.0183V24.8183C15.8304 24.8183 14.6192 25.0273 13.7326 25.3723C13.2899 25.5445 12.918 25.7545 12.6534 25.9978C12.3886 26.2414 12.2162 26.5336 12.2162 26.8631H12.4162ZM17.1582 25.0183V25.2183C18.4494 25.2183 19.6092 25.4223 20.4389 25.745C20.8543 25.9067 21.1769 26.0942 21.3922 26.2923C21.6074 26.4901 21.7003 26.6833 21.7003 26.8631H21.9003H22.1003C22.1003 26.5336 21.9278 26.2414 21.663 25.9978C21.3984 25.7545 21.0265 25.5445 20.5839 25.3723C19.6973 25.0273 18.4861 24.8183 17.1582 24.8183V25.0183ZM23.7866 31.182L23.762 30.9835C22.2634 31.1694 20.7548 31.2615 19.245 31.2593L19.2447 31.4593L19.2444 31.6593C20.7709 31.6615 22.2961 31.5684 23.8112 31.3805L23.7866 31.182ZM19.2447 31.4593V31.2593C14.6018 31.2593 10.6789 30.4625 7.99938 29.2886C6.65866 28.7012 5.64087 28.0245 4.99767 27.3164C4.35591 26.6099 4.10047 25.8895 4.2349 25.1949L4.03854 25.1569L3.84219 25.1189C3.67629 25.976 4.00569 26.8192 4.70159 27.5853C5.39604 28.3498 6.46871 29.0547 7.83886 29.655C10.5811 30.8564 14.5616 31.6593 19.2447 31.6593V31.4593ZM4.03854 25.1569L4.23545 25.192C4.25185 25.0998 4.30748 24.9777 4.41311 24.8258C4.51702 24.6763 4.66012 24.511 4.83464 24.3336C5.18374 23.9787 5.64336 23.5905 6.12753 23.203C6.6162 22.8118 7.10756 22.4386 7.54595 22.091C7.97331 21.7522 8.34556 21.4416 8.55219 21.2039L8.40123 21.0727L8.25028 20.9415C8.07227 21.1463 7.73058 21.4342 7.29746 21.7776C6.87535 22.1122 6.35969 22.5048 5.87756 22.8907C5.39092 23.2802 4.91596 23.6805 4.54947 24.0531C4.36619 24.2394 4.20625 24.4226 4.08471 24.5974C3.96488 24.7697 3.87265 24.9475 3.84163 25.1219L4.03854 25.1569ZM8.40123 21.0727L8.55083 21.2054C8.60291 21.1467 8.63976 21.0747 8.64786 20.9911C8.6558 20.9093 8.6343 20.8355 8.60343 20.7747C8.54551 20.6606 8.43855 20.5612 8.33283 20.4776C8.1222 20.311 7.79257 20.1168 7.52683 19.9367C7.23943 19.7419 7.01223 19.5558 6.91148 19.3762C6.86488 19.2932 6.85204 19.223 6.86345 19.158C6.87518 19.091 6.91741 19.0022 7.03229 18.8928L6.89431 18.748L6.75633 18.6032C6.59986 18.7523 6.50016 18.9138 6.46946 19.0889C6.43842 19.2658 6.48263 19.4294 6.56266 19.572C6.71514 19.8437 7.01945 20.0761 7.30241 20.2678C7.60704 20.4743 7.88663 20.6347 8.08468 20.7913C8.18329 20.8693 8.23053 20.9238 8.24675 20.9557C8.25294 20.9679 8.2485 20.9652 8.24973 20.9525C8.25112 20.9381 8.25751 20.9333 8.25164 20.9399L8.40123 21.0727ZM6.89431 18.748L7.03154 18.8935C8.30841 17.6892 9.91585 17.0869 11.9331 16.7877C13.9556 16.4878 16.3676 16.4953 19.2447 16.4953V16.2953V16.0953C16.3787 16.0953 13.9327 16.0868 11.8744 16.392C9.81088 16.6981 8.11469 17.3221 6.75709 18.6025L6.89431 18.748ZM19.2447 16.2953V16.4953C23.8492 16.4953 28.0087 17.3395 31.0095 18.6969C34.0288 20.0626 35.8 21.909 35.8 23.8773H36H36.2C36.2 21.6547 34.2197 19.71 31.1744 18.3325C28.1107 16.9466 23.8926 16.0953 19.2447 16.0953V16.2953ZM36 23.8773L35.8004 23.8641C35.7534 24.5757 35.5468 25.2671 35.1965 25.8856L35.3705 25.9842L35.5446 26.0827C35.9246 25.4117 36.1486 24.662 36.1996 23.8905L36 23.8773ZM35.3705 25.9842L35.1965 25.8856C34.8462 26.5042 34.3614 27.0337 33.7791 27.4342L33.8924 27.599L34.0057 27.7638C34.6383 27.3288 35.1645 26.7538 35.5446 26.0827L35.3705 25.9842ZM11.1938 16.7112L11.3931 16.695C11.2599 15.0564 11.5484 13.411 12.2304 11.9191L12.0485 11.8359L11.8666 11.7528C11.1561 13.307 10.8557 15.0209 10.9944 16.7274L11.1938 16.7112ZM12.0485 11.8359L12.2304 11.9191C12.9124 10.4271 13.9645 9.13967 15.2841 8.18201L15.1666 8.02014L15.0491 7.85828C13.6734 8.85669 12.5771 10.1985 11.8666 11.7528L12.0485 11.8359ZM15.1666 8.02014L15.2796 8.18518C15.2658 8.19457 15.2494 8.19982 15.2324 8.2L15.2303 8.00001L15.2283 7.80002C15.1657 7.80066 15.105 7.81992 15.0536 7.85511L15.1666 8.02014ZM15.2303 8.00001L15.2324 8.2C15.2154 8.20017 15.1989 8.19526 15.1849 8.18614L15.2945 8.01882L15.4041 7.8515C15.3519 7.81737 15.2908 7.79937 15.2283 7.80002L15.2303 8.00001ZM15.2945 8.01882L15.1849 8.18614C15.171 8.17704 15.1604 8.16424 15.1541 8.14962L15.3377 8.07033L15.5214 7.99105C15.4968 7.93424 15.4562 7.88561 15.4041 7.8515L15.2945 8.01882ZM15.3377 8.07033L15.1541 8.14962C15.1478 8.13502 15.146 8.11901 15.1486 8.1035L15.3457 8.13744L15.5428 8.17139C15.5533 8.11052 15.5459 8.04784 15.5214 7.99105L15.3377 8.07033ZM15.3457 8.13744L15.1478 8.10859C15.0531 8.75856 14.7889 10.5388 14.6184 12.3173C14.5332 13.2062 14.471 14.0986 14.4655 14.8512C14.4628 15.2274 14.4742 15.5721 14.5047 15.8657C14.5348 16.1557 14.5849 16.4108 14.6671 16.5992L14.8504 16.5192L15.0337 16.4392C14.9764 16.3078 14.9313 16.1016 14.9025 15.8244C14.8741 15.5507 14.8628 15.222 14.8655 14.8541C14.8709 14.1185 14.9319 13.2394 15.0166 12.3554C15.186 10.5882 15.4487 8.81732 15.5436 8.1663L15.3457 8.13744ZM16.5049 16.2953L16.6986 16.345L17.8684 11.7916L17.6746 11.7418L17.4809 11.6921L16.3112 16.2455L16.5049 16.2953ZM17.6746 11.7418L17.8696 11.7865C17.8831 11.7273 17.8816 11.6657 17.8651 11.6072L17.6726 11.6617L17.4802 11.7161C17.4784 11.7099 17.4783 11.7034 17.4797 11.6972L17.6746 11.7418ZM17.6726 11.6617L17.8651 11.6072C17.8485 11.5488 17.8175 11.4954 17.7747 11.452L17.6324 11.5926L17.4902 11.7332C17.4853 11.7282 17.4819 11.7223 17.4802 11.7161L17.6726 11.6617ZM17.6324 11.5926L17.7747 11.452C17.7318 11.4087 17.6786 11.3768 17.6198 11.3598L17.5642 11.5519L17.5085 11.744C17.5013 11.7419 17.4951 11.7381 17.4902 11.7332L17.6324 11.5926ZM17.5642 11.5519L17.6198 11.3598C17.561 11.3428 17.4989 11.3412 17.4393 11.3552L17.485 11.5499L17.5306 11.7446C17.5233 11.7463 17.5157 11.7461 17.5085 11.744L17.5642 11.5519ZM17.485 11.5499L17.4248 11.3591C16.7927 11.5586 16.2089 11.8894 15.7107 12.3303L15.8433 12.48L15.9758 12.6298C16.4322 12.2259 16.9667 11.9231 17.5451 11.7406L17.485 11.5499ZM15.8433 12.48L15.7107 12.3303C15.2126 12.7711 14.8111 13.3122 14.5318 13.9189L14.7135 14.0026L14.8952 14.0862C15.1513 13.5297 15.5195 13.0337 15.9758 12.6298L15.8433 12.48ZM9.34971 17.2337L9.54803 17.2079C9.31018 15.3833 8.90163 13.5857 8.32786 11.8394L8.13785 11.9018L7.94784 11.9642C8.51378 13.6868 8.91677 15.4598 9.15139 17.2596L9.34971 17.2337ZM8.13785 11.9018H8.33785C8.33785 11.8804 8.33804 11.8736 8.33838 11.8701C8.33887 11.8651 8.33811 11.8869 8.32174 11.9145C8.31243 11.9302 8.29859 11.947 8.27925 11.9611C8.25999 11.9752 8.24041 11.983 8.22405 11.9869C8.19509 11.9938 8.17865 11.988 8.18881 11.9903L8.23269 11.7951L8.27657 11.6C8.23931 11.5916 8.18731 11.5845 8.13167 11.5977C8.06606 11.6133 8.01151 11.6534 7.97767 11.7105C7.94945 11.7581 7.94276 11.8058 7.94028 11.8312C7.93766 11.858 7.93785 11.8859 7.93785 11.9018H8.13785ZM8.23269 11.7951L8.16362 11.9828C8.4448 12.0863 9.07727 12.3447 9.68698 12.8087C10.2966 13.2727 10.8693 13.9311 11.0615 14.8333L11.2571 14.7917L11.4527 14.75C11.2338 13.7221 10.5842 12.9889 9.92923 12.4904C9.2744 11.9921 8.60017 11.7173 8.30176 11.6074L8.23269 11.7951ZM16.2836 19.5264V19.7264H18.6968V19.5264V19.3264H16.2836V19.5264ZM23.1964 19.9423V20.1423H25.6201V19.9423V19.7423H23.1964V19.9423ZM19.4555 21.6379V21.8379H21.9003V21.6379V21.4379H19.4555V21.6379ZM25.6202 22.2137V22.4137H28.1809V22.2137V22.0137H25.6202V22.2137ZM29.5614 30.1796L29.3658 30.2216C29.4207 30.4769 29.4852 30.7447 29.4852 30.9927C29.4852 31.2349 29.4235 31.4152 29.2637 31.5328L29.3822 31.6939L29.5008 31.8549C29.8046 31.6313 29.8852 31.2997 29.8852 30.9927C29.8852 30.6916 29.8075 30.3729 29.7569 30.1376L29.5614 30.1796ZM29.3822 31.6939L29.3182 31.5044C28.503 31.7798 27.6367 31.8643 26.7845 31.7515L26.7583 31.9498L26.7321 32.1481C27.645 32.2688 28.573 32.1783 29.4462 31.8834L29.3822 31.6939ZM26.7583 31.9498L26.7385 31.7508C25.949 31.8294 25.152 31.7453 24.3955 31.5034L24.3346 31.6939L24.2737 31.8844C25.0822 32.1429 25.9342 32.2329 26.7781 32.1488L26.7583 31.9498ZM24.3346 31.6939L24.4398 31.5238C24.2244 31.3906 24.1341 31.1912 24.1067 30.9329C24.0779 30.6627 24.1211 30.3634 24.1541 30.0514L23.9552 30.0303L23.7563 30.0093C23.7261 30.2944 23.6744 30.6509 23.7089 30.9752C23.7447 31.3115 23.8757 31.6452 24.2294 31.864L24.3346 31.6939ZM23.9552 30.0303L24.154 30.0519C24.2547 29.1263 25.2663 28.3108 26.7583 28.3108V28.1108V27.9108C25.1522 27.9108 23.8876 28.8016 23.7564 30.0087L23.9552 30.0303ZM26.7583 28.1108L26.7728 28.3103C27.3584 28.2678 27.9403 28.4365 28.4152 28.787L28.534 28.6261L28.6527 28.4652C28.1014 28.0583 27.4251 27.8619 26.7438 27.9113L26.7583 28.1108ZM28.534 28.6261L28.4152 28.787C28.8902 29.1376 29.2276 29.6474 29.3669 30.2264L29.5614 30.1796L29.7558 30.1328C29.5946 29.463 29.204 28.872 28.6527 28.4652L28.534 28.6261ZM27.359 28.1642C27.5031 28.3028 27.5031 28.3028 27.503 28.3029C27.503 28.3029 27.503 28.3029 27.503 28.3029C27.5031 28.3028 27.5032 28.3027 27.5034 28.3026C27.5037 28.3022 27.5043 28.3016 27.5051 28.3008C27.5068 28.299 27.5094 28.2963 27.5131 28.2927C27.5204 28.2853 27.5316 28.2741 27.5466 28.2595C27.5766 28.2304 27.6216 28.1876 27.6803 28.1346C27.7979 28.0287 27.9702 27.8822 28.187 27.7223C28.6221 27.4013 29.2297 27.0311 29.93 26.8201C30.6282 26.6096 31.4125 26.5589 32.2131 26.8663C33.014 27.1737 33.8551 27.8486 34.6497 29.1331L34.8198 29.0279L34.9899 28.9227C34.1617 27.5839 33.2587 26.8392 32.3565 26.4928C31.4539 26.1464 30.5758 26.2076 29.8145 26.4371C29.0553 26.6659 28.4063 27.0635 27.9496 27.4004C27.7205 27.5693 27.5381 27.7243 27.4125 27.8375C27.3497 27.8941 27.301 27.9404 27.2676 27.9729C27.2509 27.9891 27.2381 28.0019 27.2292 28.0108C27.2248 28.0153 27.2214 28.0188 27.219 28.0212C27.2178 28.0225 27.2168 28.0234 27.2161 28.0242C27.2158 28.0245 27.2155 28.0248 27.2153 28.025C27.2152 28.0252 27.2151 28.0253 27.215 28.0253C27.2149 28.0254 27.2148 28.0255 27.359 28.1642ZM34.8198 29.0279C34.6392 29.1139 34.6392 29.1139 34.6392 29.1138C34.6392 29.1138 34.6392 29.1138 34.6392 29.1138C34.6392 29.1138 34.6392 29.1138 34.6392 29.1138C34.6393 29.114 34.6394 29.1143 34.6396 29.1147C34.64 29.1156 34.6407 29.1171 34.6417 29.1193C34.6437 29.1235 34.6467 29.1301 34.6507 29.139C34.6586 29.1569 34.6702 29.1836 34.6843 29.2182C34.7126 29.2874 34.7507 29.3873 34.7894 29.5082C34.8672 29.7518 34.9445 30.0725 34.9518 30.3961C34.9591 30.7204 34.896 31.0286 34.7138 31.269C34.535 31.5049 34.219 31.7053 33.6579 31.7726L33.6817 31.9711L33.7055 32.1697C34.3458 32.093 34.7727 31.8535 35.0326 31.5106C35.289 31.1722 35.3602 30.7626 35.3517 30.387C35.3432 30.0108 35.2545 29.6497 35.1704 29.3864C35.128 29.2539 35.0861 29.1441 35.0546 29.067C35.0388 29.0283 35.0256 28.9978 35.0162 28.9766C35.0115 28.966 35.0077 28.9577 35.005 28.9518C35.0037 28.9489 35.0026 28.9466 35.0018 28.945C35.0014 28.9441 35.0011 28.9435 35.0009 28.943C35.0008 28.9427 35.0007 28.9425 35.0006 28.9423C35.0005 28.9422 35.0005 28.9421 35.0005 28.9421C35.0004 28.942 35.0004 28.9419 34.8198 29.0279ZM33.6817 31.9711L33.6884 31.7713L29.1992 31.622L29.1926 31.8219L29.1859 32.0217L33.6751 32.171L33.6817 31.9711Z" fill="#737373"/>
</svg>
