<svg width="40" height="40" viewBox="0 0 40 40" fill="none" xmlns="http://www.w3.org/2000/svg">
<path d="M16.4103 17.8087L23.9514 21.5902M16.0376 23.0328L24.4665 27.2076M15.5992 9.16393H24.357M18.8656 12.235V9.16393M21.1234 12.235V9.16393M15.6101 29.0874L12.1136 31.6011C11.9711 31.7104 12.5301 31.7322 11.6203 31.7213C11.1381 31.7213 10.7654 31.5902 10.6558 31.7213C9.48296 33.6995 8.78146 35 8.78146 35M29.2565 31.7213L10.6559 31.765M24.642 29.0328L28.8291 31.5027C29.0864 31.654 29.3042 31.8637 29.4648 32.1148L31.1418 34.8907M8.70479 8.7377L14.1633 9.62295M8.70479 12.8142L14.1633 11.8743M25.9463 9.62295L31.3171 8.7377M25.9463 11.8743L31.3171 12.8142M35 33.2295C34.2738 33.7739 33.4867 34.2324 32.6544 34.5956C32.2474 34.7776 31.8021 34.8577 31.357 34.8292C30.912 34.8006 30.4806 34.6642 30.1005 34.4317C29.0044 33.7978 27.426 33.0765 26.3299 33.8415C26.0274 34.1926 25.6524 34.4744 25.2305 34.6676C24.8086 34.8607 24.3499 34.9607 23.8856 34.9607C23.4214 34.9607 22.9627 34.8607 22.5408 34.6676C22.1189 34.4744 21.7439 34.1926 21.4414 33.8415C21.4414 33.8415 19.7753 32.4973 17.7804 34.4863C17.7804 34.4863 16.2349 35.9508 13.5934 33.8415C13.5934 33.8415 12.574 32.4973 9.39532 34.847C8.92248 34.9919 8.41877 35.0043 7.93932 34.8828C7.45988 34.7614 7.02318 34.5108 6.67702 34.1585C6.23427 33.6667 5.64755 33.3264 5 33.1858M24.631 29.0219L15.5992 29.0874L16.6734 14.0929H23.2719L24.631 29.0219ZM16.6185 12.388H23.5239C23.9053 12.388 24.2144 12.6962 24.2144 13.0765V13.4044C24.2144 13.7846 23.9053 14.0929 23.5239 14.0929H16.6185C16.2372 14.0929 15.928 13.7846 15.928 13.4044V13.0765C15.928 12.6962 16.2372 12.388 16.6185 12.388ZM19.3698 5.93989H20.7947C21.4808 5.95138 22.1348 6.23199 22.6149 6.72091C23.095 7.20983 23.3625 7.86768 23.3595 8.55191V12.377H16.783V8.55191C16.7801 7.86394 17.0506 7.20283 17.5354 6.71329C18.0202 6.22376 18.6798 5.94567 19.3698 5.93989ZM21.3975 16.0492H21.7701V16.4208H21.3975V16.0492ZM21.5839 17.929H21.8908V18.235H21.5839V17.929ZM19.9178 5H20.2466V5.54645H19.9178V5Z" stroke="#737373" stroke-width="0.4" stroke-miterlimit="10" stroke-linecap="round"/>
</svg>
