<svg width="40" height="40" viewBox="0 0 40 40" fill="none" xmlns="http://www.w3.org/2000/svg">
<path d="M10.985 27.1684C9.65353 25.5119 8.82321 23.5178 8.58968 21.4159C8.35614 19.3139 8.7289 17.1896 9.66501 15.2877C10.6011 13.3857 12.0625 11.7834 13.8809 10.6653C15.6992 9.54726 17.8005 8.95891 19.9428 8.96805C22.0851 8.97719 24.1812 9.58344 25.9897 10.717C27.7982 11.8505 29.2455 13.4652 30.1649 15.3751C31.0843 17.285 31.4385 19.4124 31.1865 21.5123C30.9346 23.6121 30.0869 25.599 28.7409 27.2442M5.85937 27.4411C4.65933 25.0786 4.0914 22.4524 4.20956 19.8121C4.32773 17.1719 5.12806 14.6053 6.53448 12.3564C7.9409 10.1076 9.90667 8.2511 12.2449 6.96351C14.5832 5.67592 17.2162 5 19.8938 5C22.5713 5 25.2043 5.67592 27.5426 6.96351C29.8808 8.2511 31.8466 10.1076 33.253 12.3564C34.6595 14.6053 35.4598 17.1719 35.5779 19.8121C35.6961 22.4524 35.1282 25.0786 33.9281 27.4411M21.9578 11.6876C23.9566 12.2109 25.7187 13.3831 26.9603 15.0153C28.2019 16.6475 28.8508 18.6447 28.8023 20.6853M4.07924 27.426H36C36 28.2937 35.6508 29.1259 35.0291 29.7395C34.4074 30.3531 33.5643 30.6978 32.6852 30.6978H7.39409C6.51494 30.6978 5.67179 30.3531 5.05014 29.7395C4.42848 29.1259 4.07924 28.2937 4.07924 27.426ZM20.4078 11.5058C20.4078 11.7066 20.2429 11.8694 20.0395 11.8694C19.8361 11.8694 19.6712 11.7066 19.6712 11.5058C19.6712 11.3051 19.8361 11.1423 20.0395 11.1423C20.2429 11.1423 20.4078 11.3051 20.4078 11.5058ZM4.38608 30.713C4.30978 30.7093 4.23423 30.7292 4.16988 30.7698C4.10553 30.8104 4.05557 30.8698 4.02691 30.9397C3.99825 31.0096 3.99231 31.0865 4.00992 31.1599C4.02753 31.2332 4.06781 31.2994 4.12518 31.3492C6.26415 33.5032 9.13282 34.803 12.1821 34.9997C16.0494 34.9997 27.6514 34.9997 27.6514 34.9997C28.858 35.0087 30.0555 34.7929 31.1811 34.3635C33.0051 33.7847 34.6412 32.7394 35.9232 31.334C35.9659 31.2778 35.992 31.2108 35.9984 31.1408C36.0048 31.0708 35.9913 31.0003 35.9594 30.9374C35.9275 30.8745 35.8786 30.8216 35.8179 30.7847C35.7573 30.7477 35.6875 30.7281 35.6162 30.7281L4.38608 30.713Z" stroke="#737373" stroke-width="0.4" stroke-miterlimit="10" stroke-linecap="round"/>
</svg>
