<svg width="40" height="40" viewBox="0 0 40 40" fill="none" xmlns="http://www.w3.org/2000/svg">
<path d="M22.9357 11.1045H16.9556C16.455 11.1045 17.9026 9.38229 17.9026 9.38229C17.9345 9.32502 17.9816 9.27738 18.0388 9.24446C18.096 9.21154 18.1611 9.19458 18.2274 9.19539H34.6524C34.7171 9.19458 34.7808 9.2101 34.8377 9.24048C34.8945 9.27085 34.9425 9.31508 34.9772 9.36894C34.9772 9.36894 36.5466 11.1712 36.0189 11.1846H29.8088M23.3415 9.10192L26.1692 6.13818C26.211 6.09454 26.2613 6.05978 26.3171 6.03602C26.373 6.01226 26.4331 6 26.4939 6C26.5547 6 26.6149 6.01226 26.6707 6.03602C26.7266 6.05978 26.7769 6.09454 26.8186 6.13818L29.6734 9.10192M26.494 11.4916V12.7599L27.1435 13.4007M16.8609 32.3179V18.4737H36.1407V32.3179M16.8473 23.1997H8.20175C8.20175 23.1997 6.60524 22.7591 3.49341 27.8456C3.49341 27.8456 1.77513 30.5156 4.75167 31.1297H16.8067M16.8472 28.5264H12.4771C12.1489 28.524 11.8246 28.5971 11.53 28.74L10.1771 29.3675C9.88347 29.5146 9.55924 29.5922 9.22999 29.5944H3.20926M5.95593 24.5614H8.45893C8.5917 24.5614 8.71903 24.6135 8.81291 24.7061C8.90679 24.7987 8.95953 24.9244 8.95953 25.0554V26.7509C8.95953 26.9031 8.89824 27.0491 8.78913 27.1568C8.68003 27.2644 8.53205 27.3249 8.37775 27.3249H3.85882M12.5583 24.6816V27.1647M14.7908 24.6816V27.0846M8.44525 31.1297C8.45186 31.1963 8.45186 31.2634 8.44525 31.33C8.3611 31.6306 8.17295 31.8926 7.91346 32.0706C7.65396 32.2486 7.3395 32.3314 7.02463 32.3045C6.73178 32.3093 6.4446 32.2246 6.2024 32.0621C5.9602 31.8996 5.77483 31.6672 5.67166 31.3967C5.65748 31.3083 5.65748 31.2182 5.67166 31.1297M12.2607 31.1297C12.2673 31.1963 12.2673 31.2634 12.2607 31.33C12.1766 31.6306 11.9884 31.8926 11.7289 32.0706C11.4694 32.2486 11.155 32.3314 10.8401 32.3045C10.5451 32.3197 10.2531 32.2392 10.0088 32.0753C9.76449 31.9114 9.58127 31.673 9.48714 31.3967C9.47296 31.3083 9.47296 31.2182 9.48714 31.1297M18.1055 11.1846V16.0307M34.9637 11.1846V16.0307M28.7399 12.6931C28.7399 13.9171 27.7344 14.9093 26.494 14.9093C25.2536 14.9093 24.2481 13.9171 24.2481 12.6931C24.2481 11.4692 25.2536 10.477 26.494 10.477C27.7344 10.477 28.7399 11.4692 28.7399 12.6931ZM23.1116 9.19538H29.7412V16.0307H23.1116V9.19538ZM36.709 18.4737H16.0762C16.0404 18.4755 16.0047 18.4679 15.9729 18.4516C15.941 18.4354 15.9141 18.4111 15.8949 18.3813C15.8756 18.3514 15.8647 18.3171 15.8633 18.2817C15.8619 18.2464 15.87 18.2113 15.8867 18.18L16.6715 16.4178C16.724 16.302 16.8095 16.2037 16.9176 16.1349C17.0257 16.0662 17.1517 16.03 17.2803 16.0307H35.6943C35.8244 16.0311 35.9515 16.0693 36.0598 16.1405C36.168 16.2117 36.2527 16.3128 36.3031 16.4312L36.9796 18.0732C36.997 18.1172 37.0034 18.1647 36.9983 18.2117C36.9931 18.2587 36.9766 18.3037 36.95 18.343C36.9235 18.3823 36.8877 18.4147 36.8457 18.4375C36.8038 18.4603 36.7569 18.4727 36.709 18.4737ZM23.8556 24.8017H29.1864V32.4247H23.8556V24.8017ZM30.3635 24.7617C29.0105 24.7617 24.2751 24.7617 22.7327 24.7617C22.3539 24.7617 23.6257 23.7738 23.6257 23.7738C23.7044 23.6893 23.8009 23.6228 23.9084 23.579C24.0159 23.5352 24.1318 23.5151 24.248 23.5201H28.794C28.9066 23.5178 29.0186 23.5379 29.1232 23.5791C29.2278 23.6204 29.3229 23.6821 29.4028 23.7604C29.4028 23.7604 30.7558 24.7617 30.3635 24.7617ZM19.0661 19.7954H20.9874C21.219 19.7954 21.4068 19.9807 21.4068 20.2093V21.6377C21.4068 21.8663 21.219 22.0516 20.9874 22.0516H19.0661C18.8345 22.0516 18.6467 21.8663 18.6467 21.6377V20.2093C18.6467 19.9807 18.8345 19.7954 19.0661 19.7954ZM25.6009 19.7954H27.5222C27.7538 19.7954 27.9416 19.9807 27.9416 20.2093V21.6377C27.9416 21.8663 27.7538 22.0516 27.5222 22.0516H25.6009C25.3693 22.0516 25.1815 21.8663 25.1815 21.6377V20.2093C25.1815 19.9807 25.3693 19.7954 25.6009 19.7954ZM32.0817 19.7954H34.003C34.2346 19.7954 34.4224 19.9807 34.4224 20.2093V21.6377C34.4224 21.8663 34.2346 22.0516 34.003 22.0516H32.0817C31.8501 22.0516 31.6623 21.8663 31.6623 21.6377V20.2093C31.6623 19.9807 31.8501 19.7954 32.0817 19.7954ZM32.0817 23.9206H34.003C34.2346 23.9206 34.4224 24.1059 34.4224 24.3345V25.7629C34.4224 25.9915 34.2346 26.1768 34.003 26.1768H32.0817C31.8501 26.1768 31.6623 25.9915 31.6623 25.7629V24.3345C31.6623 24.1059 31.8501 23.9206 32.0817 23.9206ZM32.0817 28.0458H34.003C34.2346 28.0458 34.4224 28.2311 34.4224 28.4597V29.8881C34.4224 30.1167 34.2346 30.302 34.003 30.302H32.0817C31.8501 30.302 31.6623 30.1167 31.6623 29.8881V28.4597C31.6623 28.2311 31.8501 28.0458 32.0817 28.0458ZM19.0661 23.9206H20.9874C21.219 23.9206 21.4068 24.1059 21.4068 24.3345V25.7629C21.4068 25.9915 21.219 26.1768 20.9874 26.1768H19.0661C18.8345 26.1768 18.6467 25.9915 18.6467 25.7629V24.3345C18.6467 24.1059 18.8345 23.9206 19.0661 23.9206ZM19.0661 28.0458H20.9874C21.219 28.0458 21.4068 28.2311 21.4068 28.4597V29.8881C21.4068 30.1167 21.219 30.302 20.9874 30.302H19.0661C18.8345 30.302 18.6467 30.1167 18.6467 29.8881V28.4597C18.6467 28.2311 18.8345 28.0458 19.0661 28.0458ZM3.41219 32.438H36.1406V33.6262C36.1406 33.6753 36.1308 33.7239 36.1118 33.7692C36.0927 33.8146 36.0648 33.8558 36.0297 33.8905C35.9945 33.9252 35.9527 33.9528 35.9068 33.9715C35.8608 33.9903 35.8115 34 35.7618 34H3.41219C3.36245 34 3.31318 33.9903 3.26722 33.9715C3.22126 33.9528 3.1795 33.9252 3.14432 33.8905C3.10914 33.8558 3.08124 33.8146 3.0622 33.7692C3.04316 33.7239 3.03336 33.6753 3.03336 33.6262V32.8118C3.03336 32.7627 3.04316 32.7141 3.0622 32.6688C3.08124 32.6234 3.10914 32.5822 3.14432 32.5475C3.1795 32.5128 3.22126 32.4853 3.26722 32.4665C3.31318 32.4477 3.36245 32.438 3.41219 32.438ZM11.043 24.5614H16.8608V27.3249H11.043C10.956 27.3249 10.8698 27.308 10.7893 27.2751C10.7089 27.2423 10.6358 27.1941 10.5743 27.1333C10.5127 27.0726 10.4639 27.0005 10.4305 26.9211C10.3972 26.8417 10.3801 26.7567 10.3801 26.6708V25.2022C10.3836 25.0311 10.455 24.8681 10.579 24.7483C10.7029 24.6285 10.8695 24.5614 11.043 24.5614Z" stroke="#737373" stroke-width="0.4" stroke-miterlimit="10" stroke-linecap="round"/>
</svg>
