<svg width="40" height="40" viewBox="0 0 40 40" fill="none" xmlns="http://www.w3.org/2000/svg">
<path d="M4 11.6403H20C20 11.6403 26.5934 11.1595 32.2857 18.8959C32.2857 18.8959 38.8132 26.851 33.3846 27.9655H4.32967M4 14.6562H17.3736C17.4712 14.6562 17.5679 14.6755 17.6579 14.7129C17.748 14.7504 17.8297 14.8053 17.8982 14.8745C17.9667 14.9436 18.0207 15.0256 18.057 15.1157C18.0934 15.2058 18.1113 15.3022 18.1099 15.3992V17.8579C18.1099 18.052 18.0323 18.2382 17.8942 18.3755C17.7562 18.5128 17.5689 18.59 17.3736 18.59H4M4 24.0973H31.3626M4 25.9986H31.3626M35.044 23.4417C34.5956 23.5505 34.1891 23.7875 33.8747 24.1235C33.5603 24.4594 33.3517 24.8796 33.2747 25.3321C33.1209 25.9221 33.4066 26.9712 35.044 27.0586M5.23076 18.59L8.1978 14.6562M10.1758 14.6562L7.3077 18.59M16.6593 14.6562L14.1318 18.59M7.3407 28.0857C7.40918 28.6303 7.68116 29.1292 8.10259 29.4835C8.52403 29.8378 9.06407 30.0215 9.61543 29.998C10.1931 30.0092 10.7577 29.8266 11.2182 29.4797C11.6787 29.1327 12.0083 28.6417 12.1539 28.0857M12.1539 28.1732C12.2303 28.6968 12.5102 29.1698 12.9335 29.4906C13.3567 29.8113 13.8896 29.9543 14.4176 29.8887C14.9708 29.9093 15.5161 29.7541 15.9745 29.4456C16.433 29.1371 16.7806 28.6914 16.9671 28.1732M16.9781 28.0639C17.0467 28.5964 17.3244 29.0804 17.7506 29.41C18.1768 29.7396 18.7168 29.8881 19.2528 29.8232C19.8067 29.8472 20.3536 29.6934 20.8127 29.3844C21.2718 29.0755 21.6188 28.6278 21.8023 28.1076M21.8021 27.9655C21.8812 28.4901 22.1634 28.9632 22.5884 29.2837C23.0134 29.6042 23.5476 29.7469 24.0769 29.6811C24.6297 29.7 25.1742 29.5441 25.6323 29.2358C26.0904 28.9276 26.4384 28.4828 26.6263 27.9655M4 29.998H36M4 10.0012H17.6484C18.1618 9.98503 18.6665 10.1365 19.0852 10.4325C19.5039 10.7285 19.8136 11.1527 19.967 11.6403M22.9341 13.9787C25.4396 14.7436 29.4616 16.5794 31.077 20.7099C31.1156 20.803 31.1313 20.904 31.1229 21.0045C31.1144 21.1049 31.0819 21.2019 31.0282 21.2874C30.9745 21.3729 30.901 21.4444 30.814 21.496C30.7269 21.5475 30.6287 21.5777 30.5275 21.584L26.9011 21.7807C26.0294 21.8218 25.1592 21.6726 24.3517 21.3436C23.9519 21.1869 23.5628 21.0044 23.1868 20.7973C23.1868 20.7973 20.3956 19.7592 20.4945 15.738C20.5006 15.4477 20.5742 15.1628 20.7095 14.9056C20.8448 14.6484 21.0382 14.4258 21.2746 14.2554C21.5109 14.085 21.7837 13.9713 22.0717 13.9233C22.3596 13.8753 22.6548 13.8942 22.9341 13.9787Z" stroke="#737373" stroke-width="0.4" stroke-miterlimit="10" stroke-linecap="round"/>
</svg>
