<svg width="40" height="40" viewBox="0 0 40 40" fill="none" xmlns="http://www.w3.org/2000/svg">
<path d="M18.4097 35.9377V31.6868C18.4097 31.5104 18.479 31.341 18.6026 31.2151C18.7262 31.0893 18.8943 31.0169 19.0708 31.0136H21.0414C21.22 31.0136 21.3913 31.0846 21.5176 31.2108C21.6439 31.337 21.7149 31.5083 21.7149 31.6868V35.9377M8.30732 35.9377V33.8933C8.30732 33.7742 8.35462 33.6601 8.43883 33.5759C8.52303 33.4918 8.63724 33.4445 8.75632 33.4445H11.0263C11.1377 33.4566 11.2409 33.5088 11.3166 33.5914C11.3924 33.6739 11.4355 33.7813 11.4378 33.8933V36M28.4998 35.9377V33.8933C28.4998 33.761 28.5524 33.6342 28.6459 33.5407C28.7395 33.4472 28.8664 33.3946 28.9987 33.3946H31.0691C31.2014 33.3946 31.3283 33.4472 31.4219 33.5407C31.5154 33.6342 31.568 33.761 31.568 33.8933V36M6 29.9166H13.7078M26.2423 29.9166H34M11.8619 28.0841C13.4128 27.2692 14.7964 26.1697 15.9403 24.843C16.0125 24.7459 16.1066 24.6671 16.2149 24.613C16.3232 24.5588 16.4428 24.5309 16.5639 24.5314H23.5483C23.6671 24.5289 23.785 24.5534 23.8931 24.6031C24.0011 24.6527 24.0964 24.7262 24.1719 24.8181C24.808 25.591 26.6663 27.6478 28.2378 28.0841M18.4472 24.3693C18.4906 24.044 18.5876 23.7281 18.7341 23.4344C18.853 23.2158 19.0288 23.0334 19.2428 22.9062C19.4568 22.7791 19.7011 22.712 19.9501 22.712C20.199 22.712 20.4434 22.7791 20.6574 22.9062C20.8714 23.0334 21.0471 23.2158 21.1661 23.4344C21.3427 23.7361 21.469 24.0645 21.5403 24.4067M12.6851 16.79V14.1846C12.6847 14.0368 12.6356 13.8933 12.5455 13.7761C12.4553 13.659 12.3291 13.5747 12.1863 13.5364C11.4629 13.337 9.01833 12.5516 9.69183 12.4394C12.7252 12.0731 15.5331 10.6522 17.6241 8.4254C17.7065 8.32619 17.8093 8.2459 17.9255 8.18997C18.0417 8.13404 18.1687 8.10379 18.2976 8.10128H21.4157C21.6324 8.09964 21.8417 8.17977 22.0018 8.32567C22.9248 9.14842 24.4214 11.0682 29.8094 12.0654C30.3956 12.1776 29.5101 13.1749 27.8513 13.524C27.7074 13.5603 27.5799 13.6441 27.4894 13.7616C27.3989 13.8792 27.3507 14.0238 27.3524 14.1722V16.7776M12.3483 13.6486H27.5893M18.5844 8.10129C18.5844 8.10129 18.8837 6.03194 19.9563 5.86989C19.9563 5.86989 20.9416 5.86989 21.2035 8.10129M19.9563 5.73276V4M7.15996 16.79H32.5283C32.797 16.79 33.0147 17.0077 33.0147 17.2762V18.448C33.0147 18.7165 32.797 18.9342 32.5283 18.9342H7.15996C6.89132 18.9342 6.67355 18.7165 6.67355 18.448V17.2762C6.67355 17.0077 6.89132 16.79 7.15996 16.79ZM9.06818 19.1087H30.857C30.9879 19.1087 31.094 19.2147 31.094 19.3455V20.4176C31.094 20.5484 30.9879 20.6545 30.857 20.6545H9.06818C8.9373 20.6545 8.8312 20.5484 8.8312 20.4176V19.3455C8.8312 19.2147 8.9373 19.1087 9.06818 19.1087ZM31.0815 20.6669V27.8598C31.0815 27.9226 31.0566 27.9828 31.0121 28.0272C30.9677 28.0717 30.9074 28.0966 30.8446 28.0966H9.05569C8.99284 28.0966 8.93257 28.0717 8.88813 28.0272C8.84369 27.9828 8.81872 27.9226 8.81872 27.8598V20.6669H31.0815ZM6.5363 28.0841H33.4637C33.7599 28.0841 34 28.3241 34 28.6202V35.4016C34 35.6977 33.7599 35.9377 33.4637 35.9377H6.5363C6.24011 35.9377 6 35.6977 6 35.4016V28.6202C6 28.3241 6.24011 28.0841 6.5363 28.0841ZM23.7728 28.0841H26.2423V35.9377H23.7728V28.0841ZM13.7079 28.0841H16.1773V35.9377H13.7079V28.0841ZM15.7782 15.1321H18.2726C18.3487 15.1321 18.4216 15.1623 18.4754 15.216C18.5292 15.2698 18.5594 15.3427 18.5594 15.4188V16.79H15.4913V15.4188C15.4913 15.3427 15.5215 15.2698 15.5753 15.216C15.6291 15.1623 15.7021 15.1321 15.7782 15.1321ZM21.6277 15.1321H24.1221C24.1982 15.1321 24.2712 15.1623 24.3249 15.216C24.3787 15.2698 24.409 15.3427 24.409 15.4188V16.79H21.3408V15.4188C21.3408 15.3427 21.371 15.2698 21.4248 15.216C21.4786 15.1623 21.5516 15.1321 21.6277 15.1321Z" stroke="#737373" stroke-width="0.4" stroke-miterlimit="10" stroke-linecap="round"/>
</svg>
