<svg width="40" height="40" viewBox="0 0 40 40" fill="none" xmlns="http://www.w3.org/2000/svg">
<path d="M8.61685 24.3389H15.8012M8.61685 28.3053H15.8012M25.0658 24.3029H32.2501M25.0658 28.2692H32.2501M9.37883 33.0649H15.8012M20.6149 20.024C21.4008 20.024 22.1545 20.3343 22.7102 20.8865C23.2659 21.4388 23.5781 22.1878 23.5781 22.9687V34.7476H17.6516V22.9687C17.6516 22.1878 17.9638 21.4388 18.5196 20.8865C19.0753 20.3343 19.829 20.024 20.6149 20.024ZM20.6149 20.024L20.6029 18.4976M11.0116 26.2861H14.1683M27.0857 26.2861H30.2424M8 34.988H33M16.7566 9.42308H24.3764M15.7649 7.37981L17.2647 5.45673C17.3748 5.3182 17.5142 5.20546 17.673 5.12652C17.8319 5.04758 18.0063 5.00439 18.1839 5H23.0218C23.2045 5.00226 23.3843 5.04561 23.5476 5.1268C23.711 5.20798 23.8538 5.32489 23.9652 5.46875L25.3319 7.27163M12.8017 7.48798H28.3677C28.6683 7.48798 28.912 7.73013 28.912 8.02885V10.8173C28.912 11.116 28.6683 11.3582 28.3677 11.3582H12.8017C12.5011 11.3582 12.2574 11.116 12.2574 10.8173V8.02885C12.2574 7.73013 12.5011 7.48798 12.8017 7.48798ZM11.1205 11.3582H29.9884C30.1617 11.3582 30.3278 11.4266 30.4503 11.5483C30.5727 11.67 30.6416 11.8351 30.6416 12.0072V13.2091H10.4674V12.0072C10.4674 11.8351 10.5362 11.67 10.6587 11.5483C10.7812 11.4266 10.9473 11.3582 11.1205 11.3582ZM9.81424 13.1971H31.2946C31.4101 13.1971 31.5209 13.2427 31.6025 13.3238C31.6842 13.405 31.7301 13.515 31.7301 13.6298V15.0361H9.37883V13.6298C9.37883 13.515 9.4247 13.405 9.50636 13.3238C9.58801 13.2427 9.69876 13.1971 9.81424 13.1971ZM31.343 17.1274L9.5723 17.1995C9.47509 17.1971 9.38049 17.1677 9.29925 17.1146C9.21801 17.0615 9.15338 16.9868 9.1127 16.899L8.50796 15.4327C8.48735 15.3903 8.47799 15.3434 8.48075 15.2963C8.48352 15.2493 8.49833 15.2038 8.52377 15.1641C8.54921 15.1243 8.58445 15.0917 8.62613 15.0693C8.66781 15.0469 8.71456 15.0355 8.76195 15.0361H32.492C33.0242 15.0361 31.9356 16.8029 31.9356 16.8029C31.8724 16.9023 31.7849 16.9841 31.6813 17.0408C31.5777 17.0976 31.4613 17.1274 31.343 17.1274ZM9.37883 17.1995H15.8012V35H9.37883V17.1995ZM25.3078 17.1995H31.7301V35H25.3078V17.1995ZM13.6846 20.4808C13.6846 21.0848 13.1918 21.5745 12.5839 21.5745C11.9761 21.5745 11.4833 21.0848 11.4833 20.4808C11.4833 19.8767 11.9761 19.387 12.5839 19.387C13.1918 19.387 13.6846 19.8767 13.6846 20.4808ZM29.6256 20.4808C29.6256 21.0848 29.1328 21.5745 28.525 21.5745C27.9171 21.5745 27.4244 21.0848 27.4244 20.4808C27.4244 19.8767 27.9171 19.387 28.525 19.387C29.1328 19.387 29.6256 19.8767 29.6256 20.4808ZM15.4504 9.42307C15.4504 9.52928 15.3637 9.61538 15.2569 9.61538C15.15 9.61538 15.0633 9.52928 15.0633 9.42307C15.0633 9.31686 15.15 9.23076 15.2569 9.23076C15.3637 9.23076 15.4504 9.31686 15.4504 9.42307ZM26.1543 9.42307C26.1543 9.52928 26.0676 9.61538 25.9607 9.61538C25.8539 9.61538 25.7672 9.52928 25.7672 9.42307C25.7672 9.31686 25.8539 9.23076 25.9607 9.23076C26.0676 9.23076 26.1543 9.31686 26.1543 9.42307Z" stroke="#737373" stroke-width="0.4" stroke-miterlimit="10" stroke-linecap="round"/>
</svg>
