<svg width="40" height="40" viewBox="0 0 40 40" fill="none" xmlns="http://www.w3.org/2000/svg">
<path d="M7.48803 11.0899L7.54389 10.8978L7.48335 10.8802L7.42365 10.9005L7.48803 11.0899ZM32.3691 10.8423L32.4829 10.6778L32.3814 10.6075L32.273 10.6668L32.3691 10.8423ZM30.7857 15.5587L30.6203 15.671L30.6798 15.7587H30.7857V15.5587ZM33.9167 15.5587V15.7587H34.0022L34.0613 15.6969L33.9167 15.5587ZM32.569 9.66315C32.569 9.55269 32.4794 9.46315 32.369 9.46315C32.2585 9.46315 32.169 9.55269 32.169 9.66315H32.569ZM32.169 10.9366C32.169 11.047 32.2585 11.1366 32.369 11.1366C32.4794 11.1366 32.569 11.047 32.569 10.9366H32.169ZM7.70005 9.65303C7.70097 9.54258 7.61218 9.45229 7.50173 9.45137C7.39128 9.45045 7.30099 9.53924 7.30007 9.6497L7.70005 9.65303ZM7.28816 11.0764C7.28724 11.1869 7.37603 11.2772 7.48649 11.2781C7.59694 11.279 7.68723 11.1902 7.68815 11.0798L7.28816 11.0764ZM20.7737 10.3117L20.6182 10.186L20.4461 10.399L20.7013 10.4981L20.7737 10.3117ZM20.2737 6.14939L20.113 6.2684L20.1146 6.2705L20.2737 6.14939ZM19.9761 6V5.8V6ZM19.6785 6.14939L19.8365 6.27214L19.8393 6.26839L19.6785 6.14939ZM19.1547 10.3117L19.2262 10.4984L19.5002 10.3935L19.3024 10.1768L19.1547 10.3117ZM12.4881 20.3577L12.6881 20.3577L12.6881 20.3576L12.4881 20.3577ZM12.9048 19.9332L12.9048 19.7331L12.8993 19.7333L12.9048 19.9332ZM26.9286 19.9332L26.9286 20.1332L26.9286 19.9332ZM9.65473 18.2707H9.85473V18.0707H9.65473V18.2707ZM9.21426 33.9175L9.21426 34.1175L9.21426 33.9175ZM5.91664 33.9175V34.1175V33.9175ZM5.47617 33.4812H5.27617H5.47617ZM5.47617 18.2707H5.67617V18.0707H5.47617V18.2707ZM30.2619 18.2707V18.0707H30.0619V18.2707H30.2619ZM34.4643 18.2707H34.6643V18.0707H34.4643V18.2707ZM34.0238 33.9528L34.0238 34.1528L34.0238 33.9528ZM30.7024 33.9528L30.7024 33.7528L30.7024 33.9528ZM19.7738 10.0523L19.6998 9.86625L19.6928 9.86936L19.7738 10.0523ZM20.1904 10.0523L20.2693 9.8684L20.2643 9.86639L20.1904 10.0523ZM20.8856 12.4976C20.7774 12.4753 20.6717 12.5449 20.6494 12.6531C20.6271 12.7613 20.6967 12.8671 20.8049 12.8893L20.8856 12.4976ZM24.2246 15.414C24.2554 15.5201 24.3663 15.5811 24.4724 15.5503C24.5785 15.5195 24.6395 15.4086 24.6088 15.3025L24.2246 15.414ZM22.7023 28.4582H22.9024L22.9022 28.4522L22.7023 28.4582ZM19.9761 24.2487L20.0642 24.0692L19.9705 24.0232L19.8792 24.0738L19.9761 24.2487ZM17.1904 28.5643L16.991 28.5487L16.9904 28.5565V28.5643H17.1904ZM24.5714 30.1089L24.3747 30.0729L24.3714 30.0908V30.1089H24.5714ZM26.3095 27.5149L26.4182 27.6828L26.4254 27.6782L26.4321 27.6729L26.3095 27.5149ZM26.5298 27.4396L26.5298 27.2396L26.5298 27.4396ZM26.75 27.5149L26.6273 27.673L26.6331 27.6771L26.75 27.5149ZM28.3929 30.0382H28.5929V30.0175L28.5887 29.9973L28.3929 30.0382ZM11.3215 30.1089L11.1247 30.0729L11.1215 30.0908V30.1089H11.3215ZM13.0595 27.5149L13.1682 27.6828L13.1754 27.6782L13.1821 27.6729L13.0595 27.5149ZM13.2798 27.4396L13.2798 27.2396L13.2798 27.4396ZM13.5 27.5149L13.3773 27.673L13.3831 27.6771L13.5 27.5149ZM15.1429 30.0382H15.3429V30.0175L15.3387 29.9973L15.1429 30.0382ZM5.9285 15.4644L6.09736 15.3572C5.87382 15.0051 5.73364 14.6075 5.68718 14.1944L5.48844 14.2167L5.28969 14.2391C5.34295 14.7128 5.50365 15.1683 5.75965 15.5716L5.9285 15.4644ZM5.48844 14.2167L5.68718 14.1944C5.64072 13.7812 5.68917 13.363 5.82895 12.9709L5.64056 12.9037L5.45218 12.8366C5.29199 13.2859 5.23642 13.7654 5.28969 14.2391L5.48844 14.2167ZM5.64056 12.9037L5.82895 12.9709C5.96873 12.5788 6.19626 12.2229 6.49467 11.9299L6.35455 11.7872L6.21444 11.6445C5.873 11.9797 5.61237 12.3872 5.45218 12.8366L5.64056 12.9037ZM6.35455 11.7872L6.49467 11.9299C6.79309 11.637 7.15466 11.4145 7.55241 11.2792L7.48803 11.0899L7.42365 10.9005C6.96927 11.055 6.55587 11.3093 6.21444 11.6445L6.35455 11.7872ZM7.48803 11.0899L7.43216 11.2819C7.85462 11.4048 8.24224 11.6234 8.5644 11.9201L8.6999 11.773L8.8354 11.6259C8.46762 11.2871 8.02544 11.0379 7.54389 10.8978L7.48803 11.0899ZM8.6999 11.773L8.5644 11.9201C8.88656 12.2168 9.13442 12.5836 9.28852 12.9914L9.4756 12.9206L9.66269 12.8499C9.48647 12.3837 9.20318 11.9647 8.8354 11.6259L8.6999 11.773ZM9.4756 12.9206L9.28852 12.9914C9.44262 13.3991 9.49877 13.8366 9.4526 14.2695L9.65147 14.2907L9.85034 14.3119C9.90317 13.8167 9.8389 13.3162 9.66269 12.8499L9.4756 12.9206ZM9.65147 14.2907L9.4526 14.2695C9.40643 14.7023 9.25917 15.1187 9.02236 15.4856L9.19041 15.5941L9.35845 15.7025C9.62907 15.2832 9.79752 14.8071 9.85034 14.3119L9.65147 14.2907ZM32.3691 10.8423C32.273 10.6668 32.2729 10.6669 32.2728 10.6669C32.2728 10.667 32.2727 10.667 32.2726 10.6671C32.2723 10.6672 32.2721 10.6673 32.2718 10.6675C32.2712 10.6679 32.2703 10.6683 32.2693 10.6689C32.2672 10.67 32.2643 10.6717 32.2607 10.6737C32.2533 10.6779 32.2428 10.6839 32.2294 10.6918C32.2025 10.7075 32.1641 10.7305 32.1163 10.7606C32.0208 10.8207 31.8874 10.9094 31.7338 11.0246C31.4276 11.2542 31.036 11.5932 30.7043 12.0266C30.3726 12.46 30.0947 12.996 30.0306 13.6173C29.9661 14.2428 30.1205 14.9348 30.6203 15.671L30.7857 15.5587L30.9512 15.4464C30.4986 14.7795 30.3747 14.1803 30.4285 13.6584C30.4827 13.1323 30.7197 12.6646 31.0219 12.2697C31.3242 11.8748 31.6855 11.5608 31.9738 11.3446C32.1174 11.2369 32.2417 11.1543 32.3295 11.0991C32.3733 11.0714 32.408 11.0507 32.4314 11.037C32.443 11.0302 32.4519 11.0251 32.4576 11.0219C32.4604 11.0203 32.4625 11.0191 32.4638 11.0184C32.4644 11.0181 32.4649 11.0178 32.4651 11.0177C32.4652 11.0176 32.4653 11.0176 32.4653 11.0176C32.4653 11.0176 32.4652 11.0176 32.4652 11.0176C32.4652 11.0176 32.4651 11.0177 32.3691 10.8423ZM30.7857 15.5587V15.7587H33.9167V15.5587V15.3587H30.7857V15.5587ZM33.9167 15.5587C34.0613 15.6969 34.0614 15.6968 34.0615 15.6966C34.0616 15.6966 34.0617 15.6965 34.0618 15.6964C34.062 15.6961 34.0622 15.6959 34.0625 15.6956C34.063 15.6951 34.0636 15.6944 34.0644 15.6936C34.0659 15.692 34.0679 15.6898 34.0704 15.6871C34.0753 15.6817 34.0821 15.6741 34.0905 15.6645C34.1072 15.6452 34.1303 15.6175 34.1578 15.5819C34.2128 15.5107 34.2859 15.4074 34.3609 15.2756C34.5108 15.0124 34.6712 14.6311 34.7083 14.1625C34.784 13.2076 34.3441 11.967 32.4829 10.6778L32.3691 10.8423L32.2552 11.0067C34.0369 12.2408 34.3708 13.3584 34.3096 14.1309C34.2783 14.5261 34.1425 14.8507 34.0133 15.0776C33.9489 15.1908 33.8867 15.2786 33.8414 15.3372C33.8187 15.3665 33.8004 15.3884 33.7882 15.4025C33.7821 15.4095 33.7776 15.4146 33.7748 15.4176C33.7734 15.4191 33.7725 15.4201 33.772 15.4206C33.7718 15.4209 33.7717 15.421 33.7717 15.421C33.7717 15.421 33.7717 15.4209 33.7718 15.4209C33.7718 15.4208 33.7719 15.4207 33.7719 15.4207C33.772 15.4206 33.7721 15.4205 33.9167 15.5587ZM32.369 9.66315H32.169V10.9366H32.369H32.569V9.66315H32.369ZM7.50006 9.65136L7.30007 9.6497L7.28816 11.0764L7.48816 11.0781L7.68815 11.0798L7.70005 9.65303L7.50006 9.65136ZM25.8095 19.9332L25.9757 20.0444C27.0202 18.4835 27.2306 17.0653 26.9349 15.8169C26.6411 14.5768 25.8543 13.5315 24.9546 12.6944C24.0538 11.8563 23.0268 11.2147 22.2281 10.7834C21.8282 10.5675 21.484 10.4034 21.2393 10.2932C21.1169 10.238 21.0193 10.1963 20.952 10.1683C20.9183 10.1542 20.8922 10.1436 20.8744 10.1364C20.8654 10.1328 20.8586 10.1301 20.8538 10.1282C20.8515 10.1273 20.8496 10.1266 20.8484 10.1261C20.8477 10.1258 20.8472 10.1256 20.8468 10.1255C20.8467 10.1254 20.8465 10.1253 20.8464 10.1253C20.8463 10.1253 20.8462 10.1252 20.7737 10.3117C20.7013 10.4981 20.7013 10.4981 20.7013 10.4981C20.7014 10.4981 20.7014 10.4981 20.7015 10.4981C20.7017 10.4982 20.702 10.4983 20.7025 10.4985C20.7034 10.4989 20.7048 10.4995 20.7068 10.5002C20.7108 10.5018 20.717 10.5043 20.7251 10.5075C20.7415 10.5141 20.766 10.5241 20.7981 10.5375C20.8622 10.5642 20.9563 10.6044 21.075 10.6579C21.3124 10.7649 21.6479 10.9247 22.0381 11.1354C22.8198 11.5575 23.8151 12.1805 24.6821 12.9873C25.5503 13.7951 26.2769 14.7749 26.5456 15.9092C26.8124 17.0352 26.6344 18.3407 25.6432 19.822L25.8095 19.9332ZM20.7737 10.3117L20.9293 10.4373C21.5764 9.63619 21.6028 8.72738 21.3959 7.93253C21.1902 7.14238 20.7508 6.4461 20.4329 6.02828L20.2737 6.14939L20.1146 6.2705C20.4157 6.66627 20.8216 7.31417 21.0088 8.03329C21.1947 8.7477 21.1616 9.51323 20.6182 10.186L20.7737 10.3117ZM20.2737 6.14939L20.4345 6.03039C20.3815 5.95877 20.3123 5.9007 20.2327 5.86073L20.143 6.03948L20.0532 6.21823C20.077 6.23017 20.0975 6.24741 20.113 6.26839L20.2737 6.14939ZM20.143 6.03948L20.2327 5.86073C20.1531 5.82078 20.0652 5.8 19.9761 5.8L19.9761 6L19.9761 6.2C20.003 6.2 20.0294 6.20628 20.0532 6.21823L20.143 6.03948ZM19.9761 6V5.8C19.8871 5.8 19.7992 5.82078 19.7196 5.86073L19.8093 6.03948L19.899 6.21823C19.9228 6.20627 19.9493 6.2 19.9761 6.2V6ZM19.8093 6.03948L19.7196 5.86073C19.64 5.9007 19.5708 5.95877 19.5178 6.03039L19.6785 6.14939L19.8393 6.26839C19.8548 6.24741 19.8752 6.23017 19.899 6.21823L19.8093 6.03948ZM19.6785 6.14939L19.5206 6.02668C18.4966 7.3446 18.3461 8.44029 18.4737 9.22222C18.5368 9.60945 18.6669 9.91182 18.7823 10.1186C18.84 10.222 18.8942 10.3018 18.9349 10.3567C18.9553 10.3842 18.9723 10.4055 18.9847 10.4205C18.9909 10.428 18.996 10.434 18.9997 10.4383C19.0016 10.4405 19.0032 10.4422 19.0044 10.4436C19.005 10.4443 19.0055 10.4449 19.006 10.4454C19.0062 10.4456 19.0064 10.4458 19.0066 10.446C19.0066 10.4461 19.0068 10.4462 19.0068 10.4463C19.0069 10.4464 19.007 10.4465 19.1547 10.3117C19.3024 10.1768 19.3025 10.1769 19.3026 10.177C19.3026 10.177 19.3027 10.1771 19.3027 10.1771C19.3028 10.1772 19.3029 10.1773 19.3029 10.1774C19.303 10.1774 19.303 10.1774 19.3029 10.1773C19.3027 10.1772 19.3022 10.1766 19.3014 10.1756C19.2997 10.1737 19.2968 10.1704 19.2928 10.1655C19.2847 10.1557 19.2722 10.1401 19.2564 10.1188C19.2248 10.076 19.1801 10.0105 19.1316 9.92364C19.0346 9.74977 18.9229 9.49132 18.8685 9.15783C18.7609 8.49829 18.8724 7.51285 19.8364 6.2721L19.6785 6.14939ZM19.1547 10.3117C19.0832 10.1249 19.0831 10.1249 19.0829 10.125C19.0828 10.125 19.0827 10.1251 19.0825 10.1251C19.0821 10.1253 19.0816 10.1255 19.081 10.1257C19.0798 10.1262 19.078 10.1269 19.0758 10.1277C19.0713 10.1295 19.0647 10.1321 19.0562 10.1354C19.0392 10.1422 19.0144 10.1522 18.9825 10.1654C18.9185 10.1918 18.8258 10.2311 18.7094 10.2832C18.4768 10.3873 18.1492 10.5428 17.7674 10.749C17.005 11.1608 16.0208 11.7777 15.1447 12.5959C14.2692 13.4135 13.4913 14.4417 13.1607 15.677C12.8285 16.9188 12.9543 18.348 13.8492 19.9483L14.0238 19.8507L14.1983 19.753C13.3492 18.2346 13.2443 16.912 13.5471 15.7804C13.8516 14.6424 14.5744 13.6758 15.4177 12.8883C16.2603 12.1014 17.2128 11.5031 17.9575 11.1009C18.3293 10.9002 18.6478 10.749 18.8729 10.6482C18.9854 10.5979 19.0745 10.5601 19.1351 10.5351C19.1654 10.5226 19.1885 10.5133 19.2039 10.5072C19.2116 10.5041 19.2174 10.5019 19.2211 10.5004C19.223 10.4997 19.2244 10.4991 19.2252 10.4988C19.2257 10.4986 19.226 10.4985 19.2261 10.4985C19.2262 10.4984 19.2262 10.4984 19.2263 10.4984C19.2263 10.4984 19.2262 10.4984 19.1547 10.3117ZM12.4881 22.0556H12.6881V20.3577H12.4881H12.2881V22.0556H12.4881ZM12.4881 20.3577L12.6881 20.3576C12.6881 20.2998 12.7108 20.2438 12.7521 20.2017L12.6094 20.0616L12.4667 19.9215C12.3523 20.038 12.288 20.1945 12.2881 20.3578L12.4881 20.3577ZM12.6094 20.0616L12.7521 20.2017C12.7935 20.1596 12.8502 20.1348 12.9103 20.1331L12.9048 19.9332L12.8993 19.7333C12.7362 19.7378 12.5809 19.8051 12.4667 19.9215L12.6094 20.0616ZM12.9048 19.9332V20.1332H26.9286V19.9332V19.7332H12.9048V19.9332ZM26.9286 19.9332L26.9286 20.1332C26.9898 20.1332 27.0481 20.1573 27.0909 20.1996L27.2316 20.0575L27.3723 19.9154C27.2543 19.7985 27.0946 19.7332 26.9286 19.7332L26.9286 19.9332ZM27.2316 20.0575L27.0909 20.1996C27.1335 20.2419 27.1571 20.2988 27.1571 20.3577H27.3571H27.5571C27.5571 20.1914 27.4904 20.0324 27.3723 19.9154L27.2316 20.0575ZM27.3571 20.3577H27.1571V21.8552H27.3571H27.5571V20.3577H27.3571ZM4.44048 15.5941V15.7941H10.8214V15.5941V15.3941H4.44048V15.5941ZM10.8214 15.5941V15.7941C10.956 15.7941 11.0619 15.9017 11.0619 16.0303H11.2619H11.4619C11.4619 15.6771 11.1733 15.3941 10.8214 15.3941V15.5941ZM11.2619 16.0303H11.0619V17.8344H11.2619H11.4619V16.0303H11.2619ZM11.2619 17.8344H11.0619C11.0619 17.9631 10.956 18.0707 10.8214 18.0707V18.2707V18.4707C11.1733 18.4707 11.4619 18.1876 11.4619 17.8344H11.2619ZM10.8214 18.2707V18.0707H4.44048V18.2707V18.4707H10.8214V18.2707ZM4.44048 18.2707V18.0707C4.30585 18.0707 4.2 17.9631 4.2 17.8344H4H3.8C3.8 18.1876 4.08856 18.4707 4.44048 18.4707V18.2707ZM4 17.8344H4.2V16.0303H4H3.8V17.8344H4ZM4 16.0303H4.2C4.2 15.9017 4.30585 15.7941 4.44048 15.7941V15.5941V15.3941C4.08856 15.3941 3.8 15.6771 3.8 16.0303H4ZM5.46426 18.2707V18.4707H9.65473V18.2707V18.0707H5.46426V18.2707ZM9.65473 18.2707H9.45473V33.4812H9.65473H9.85473V18.2707H9.65473ZM9.65473 33.4812H9.45473C9.45473 33.5432 9.42987 33.6031 9.38498 33.6476L9.52572 33.7897L9.66646 33.9318C9.78678 33.8126 9.85473 33.6506 9.85473 33.4812H9.65473ZM9.52572 33.7897L9.38498 33.6476C9.34002 33.6921 9.27865 33.7175 9.21426 33.7175L9.21426 33.9175L9.21426 34.1175C9.38351 34.1175 9.54621 34.0509 9.66646 33.9318L9.52572 33.7897ZM9.21426 33.9175V33.7175H5.91664V33.9175V34.1175H9.21426V33.9175ZM5.91664 33.9175L5.91664 33.7175C5.85225 33.7175 5.79087 33.6921 5.74592 33.6476L5.60518 33.7897L5.46444 33.9318C5.58469 34.0509 5.74739 34.1175 5.91664 34.1175L5.91664 33.9175ZM5.60518 33.7897L5.74592 33.6476C5.70103 33.6031 5.67617 33.5432 5.67617 33.4812H5.47617H5.27617C5.27617 33.6506 5.34412 33.8126 5.46444 33.9318L5.60518 33.7897ZM5.47617 33.4812H5.67617V18.2707H5.47617H5.27617V33.4812H5.47617ZM5.47617 18.2707V18.0707H5.46426V18.2707V18.4707H5.47617V18.2707ZM30.2619 18.2707V18.4707H34.4643V18.2707V18.0707H30.2619V18.2707ZM34.4643 18.2707H34.2643V33.5166H34.4643H34.6643V18.2707H34.4643ZM34.4643 33.5166H34.2643C34.2643 33.5786 34.2395 33.6385 34.1946 33.683L34.3353 33.8251L34.4761 33.9672C34.5964 33.848 34.6643 33.6859 34.6643 33.5166H34.4643ZM34.3353 33.8251L34.1946 33.683C34.1496 33.7275 34.0882 33.7528 34.0238 33.7528L34.0238 33.9528L34.0238 34.1528C34.1931 34.1528 34.3558 34.0863 34.4761 33.9672L34.3353 33.8251ZM34.0238 33.9528V33.7528H30.7024V33.9528V34.1528H34.0238V33.9528ZM30.7024 33.9528L30.7024 33.7528C30.6706 33.7528 30.6391 33.7466 30.6098 33.7346L30.5339 33.9196L30.4579 34.1047C30.5355 34.1365 30.6186 34.1528 30.7024 34.1528L30.7024 33.9528ZM30.5339 33.9196L30.6098 33.7346C30.5805 33.7226 30.5539 33.705 30.5317 33.683L30.391 33.8251L30.2502 33.9672C30.3098 34.0261 30.3804 34.0728 30.4579 34.1047L30.5339 33.9196ZM30.391 33.8251L30.5317 33.683C30.5095 33.6609 30.4919 33.6349 30.48 33.6064L30.2955 33.6835L30.111 33.7607C30.1433 33.838 30.1907 33.9082 30.2502 33.9672L30.391 33.8251ZM30.2955 33.6835L30.48 33.6064C30.4681 33.5778 30.4619 33.5473 30.4619 33.5166H30.2619H30.0619C30.0619 33.6004 30.0786 33.6833 30.111 33.7607L30.2955 33.6835ZM30.2619 33.5166H30.4619V18.2707H30.2619H30.0619V33.5166H30.2619ZM29.1786 15.5941V15.7941H35.5595V15.5941V15.3941H29.1786V15.5941ZM35.5595 15.5941V15.7941C35.6941 15.7941 35.8 15.9017 35.8 16.0303H36H36.2C36.2 15.6771 35.9114 15.3941 35.5595 15.3941V15.5941ZM36 16.0303H35.8V17.8344H36H36.2V16.0303H36ZM36 17.8344H35.8C35.8 17.9631 35.6941 18.0707 35.5595 18.0707V18.2707V18.4707C35.9114 18.4707 36.2 18.1876 36.2 17.8344H36ZM35.5595 18.2707V18.0707H29.1786V18.2707V18.4707H35.5595V18.2707ZM29.1786 18.2707V18.0707C29.044 18.0707 28.9381 17.9631 28.9381 17.8344H28.7381H28.5381C28.5381 18.1876 28.8267 18.4707 29.1786 18.4707V18.2707ZM28.7381 17.8344H28.9381V16.0303H28.7381H28.5381V17.8344H28.7381ZM28.7381 16.0303H28.9381C28.9381 15.9017 29.044 15.7941 29.1786 15.7941V15.5941V15.3941C28.8267 15.3941 28.5381 15.6771 28.5381 16.0303H28.7381ZM9.82144 22.0438V22.2438H30.2619V22.0438V21.8438H9.82144V22.0438ZM6.20235 33.9174L6.2021 34.1174L34.0236 34.1528L34.0238 33.9528L34.0241 33.7528L6.2026 33.7174L6.20235 33.9174ZM18.0952 10.7951L18.1761 10.978L19.8547 10.2351L19.7738 10.0523L19.6928 9.86936L18.0142 10.6122L18.0952 10.7951ZM19.7738 10.0523L19.8476 10.2381C19.9339 10.2038 20.0303 10.2038 20.1166 10.2381L20.1904 10.0523L20.2643 9.86639C20.0831 9.79441 19.881 9.79441 19.6999 9.86639L19.7738 10.0523ZM20.1904 10.0523L20.1115 10.236L21.183 10.6959L21.2618 10.5121L21.3407 10.3283L20.2693 9.86847L20.1904 10.0523ZM20.8453 12.6935C20.8049 12.8893 20.8048 12.8893 20.8048 12.8893C20.8048 12.8893 20.8048 12.8893 20.8048 12.8893C20.8048 12.8893 20.8049 12.8893 20.805 12.8894C20.8052 12.8894 20.8055 12.8895 20.8061 12.8896C20.8072 12.8898 20.809 12.8902 20.8115 12.8907C20.8165 12.8918 20.8242 12.8935 20.8345 12.8959C20.855 12.9005 20.8858 12.9078 20.9255 12.9178C21.0049 12.9378 21.12 12.9688 21.2603 13.0123C21.5413 13.0996 21.9212 13.2366 22.3182 13.4353C23.1204 13.8369 23.9506 14.4694 24.2246 15.414L24.4167 15.3582L24.6088 15.3025C24.2876 14.1954 23.332 13.4955 22.4973 13.0776C22.0758 12.8666 21.6745 12.7221 21.3789 12.6303C21.2309 12.5843 21.1087 12.5514 21.0231 12.5299C20.9803 12.5191 20.9465 12.5111 20.9232 12.5058C20.9115 12.5032 20.9024 12.5012 20.8961 12.4998C20.893 12.4991 20.8905 12.4986 20.8887 12.4982C20.8879 12.498 20.8871 12.4979 20.8866 12.4978C20.8864 12.4977 20.8862 12.4977 20.886 12.4976C20.8859 12.4976 20.8858 12.4976 20.8858 12.4976C20.8857 12.4976 20.8856 12.4976 20.8453 12.6935ZM22.7023 33.9175H22.9023V28.4582H22.7023H22.5023V33.9175H22.7023ZM22.7023 28.4582L22.9022 28.4522C22.8747 27.535 22.596 26.6427 22.096 25.8706L21.9281 25.9793L21.7602 26.088C22.2206 26.7989 22.4771 27.6203 22.5024 28.4642L22.7023 28.4582ZM21.9281 25.9793L22.096 25.8706C21.596 25.0985 20.8936 24.4759 20.0642 24.0692L19.9761 24.2487L19.8881 24.4283C20.6527 24.8033 21.2998 25.3771 21.7602 26.088L21.9281 25.9793ZM19.9761 24.2487L19.8792 24.0738C19.0632 24.5261 18.3724 25.1711 17.8685 25.9518L18.0365 26.0603L18.2046 26.1688C18.6726 25.4437 19.3144 24.8442 20.0731 24.4237L19.9761 24.2487ZM18.0365 26.0603L17.8685 25.9518C17.3646 26.7325 17.0631 27.6246 16.991 28.5487L17.1904 28.5643L17.3898 28.5798C17.4567 27.7221 17.7365 26.8938 18.2046 26.1688L18.0365 26.0603ZM17.1904 28.5643H16.9904V33.9175H17.1904H17.3904V28.5643H17.1904ZM24.5714 34H24.7714V30.1089H24.5714H24.3714V34H24.5714ZM24.5714 30.1089L24.7682 30.145C24.8597 29.6453 25.0532 29.1692 25.3369 28.7459L25.1707 28.6346L25.0045 28.5233C24.6905 28.9919 24.4762 29.5192 24.3747 30.0729L24.5714 30.1089ZM25.1707 28.6346L25.3369 28.7459C25.6205 28.3226 25.9884 27.9608 26.4182 27.6828L26.3095 27.5149L26.2009 27.347C25.7257 27.6544 25.3186 28.0546 25.0045 28.5233L25.1707 28.6346ZM26.3095 27.5149L26.4321 27.6729C26.4598 27.6515 26.4942 27.6396 26.5298 27.6396L26.5298 27.4396L26.5298 27.2396C26.4057 27.2396 26.285 27.2808 26.1869 27.3569L26.3095 27.5149ZM26.5298 27.4396V27.6396C26.5654 27.6396 26.5998 27.6515 26.6274 27.6729L26.75 27.5149L26.8726 27.3569C26.7745 27.2808 26.6538 27.2396 26.5298 27.2396V27.4396ZM26.75 27.5149L26.6331 27.6771C27.4383 28.2575 27.9958 29.114 28.1971 30.079L28.3929 30.0382L28.5887 29.9973C28.3668 28.9339 27.7527 27.991 26.8669 27.3526L26.75 27.5149ZM28.3929 30.0382H28.1929V34H28.3929H28.5929V30.0382H28.3929ZM11.3215 34H11.5215V30.1089H11.3215H11.1215V34H11.3215ZM11.3215 30.1089L11.5182 30.145C11.6097 29.6453 11.8032 29.1692 12.0869 28.7459L11.9207 28.6346L11.7546 28.5233C11.4405 28.9919 11.2262 29.5192 11.1247 30.0729L11.3215 30.1089ZM11.9207 28.6346L12.0869 28.7459C12.3705 28.3226 12.7384 27.9608 13.1682 27.6828L13.0595 27.5149L12.9509 27.347C12.4757 27.6544 12.0686 28.0546 11.7546 28.5233L11.9207 28.6346ZM13.0595 27.5149L13.1821 27.6729C13.2098 27.6515 13.2442 27.6396 13.2798 27.6396L13.2798 27.4396L13.2798 27.2396C13.1557 27.2396 13.035 27.2808 12.9369 27.3569L13.0595 27.5149ZM13.2798 27.4396L13.2798 27.6396C13.3154 27.6396 13.3498 27.6515 13.3774 27.6729L13.5 27.5149L13.6226 27.3569C13.5246 27.2808 13.4038 27.2396 13.2798 27.2396L13.2798 27.4396ZM13.5 27.5149L13.3831 27.6771C14.1883 28.2575 14.7458 29.114 14.9471 30.079L15.1429 30.0382L15.3387 29.9973C15.1168 28.9339 14.5027 27.991 13.617 27.3526L13.5 27.5149ZM15.1429 30.0382H14.9429V34H15.1429H15.3429V30.0382H15.1429Z" fill="#737373"/>
</svg>
