<svg width="40" height="40" viewBox="0 0 40 40" fill="none" xmlns="http://www.w3.org/2000/svg">
<path d="M3 27.7591C2.86193 27.7591 2.75 27.8711 2.75 28.0091C2.75 28.1472 2.86193 28.2591 3 28.2591V27.7591ZM37.16 28.2591C37.2981 28.2591 37.41 28.1472 37.41 28.0091C37.41 27.8711 37.2981 27.7591 37.16 27.7591V28.2591ZM11.87 18.8191L12.066 18.9743L12.0671 18.9729L11.87 18.8191ZM12.6 18.6291L12.6987 18.3995L12.6972 18.3988L12.6 18.6291ZM15.6 19.9191L15.5012 20.1488L15.5023 20.1493L15.6 19.9191ZM15.91 20.2191L15.6831 20.3243L15.6852 20.3285L15.91 20.2191ZM19.88 18.0091L19.7144 18.1965L19.717 18.1988L19.88 18.0091ZM18.71 17.9591L18.855 18.1629L18.8589 18.1599L18.71 17.9591ZM24.6716 19.7332C24.707 19.5998 24.6275 19.4629 24.494 19.4275C24.3606 19.3921 24.2237 19.4716 24.1883 19.6051L24.6716 19.7332ZM23.7083 21.4151C23.6729 21.5485 23.7524 21.6854 23.8859 21.7208C24.0193 21.7562 24.1562 21.6767 24.1916 21.5432L23.7083 21.4151ZM12.8911 18.6754C12.8006 18.7797 12.8119 18.9376 12.9162 19.028C13.0205 19.1185 13.1784 19.1072 13.2688 19.0029L12.8911 18.6754ZM19.61 11.3091L19.429 11.1362L19.4211 11.1454L19.61 11.3091ZM20.97 11.2291L21.14 11.0454L21.1292 11.0364L20.97 11.2291ZM25.53 15.4491L25.7718 15.5125L25.8098 15.3675L25.6998 15.2657L25.53 15.4491ZM24.6881 17.6758C24.6531 17.8093 24.733 17.946 24.8666 17.981C25.0002 18.016 25.1368 17.9361 25.1718 17.8025L24.6881 17.6758ZM28.09 15.3791L28.2832 15.2205L28.2812 15.218L28.09 15.3791ZM26.66 15.1291L26.7832 15.3467L26.7852 15.3455L26.66 15.1291ZM12.0846 22.8674C12.1554 22.7489 12.1167 22.5954 11.9982 22.5245C11.8797 22.4537 11.7262 22.4924 11.6554 22.6109L12.0846 22.8674ZM8.50538 27.8809C8.43454 27.9994 8.47319 28.1529 8.59171 28.2237C8.71022 28.2946 8.86372 28.2559 8.93456 28.1374L8.50538 27.8809ZM3 28.0091V28.2591H37.16V28.0091V27.7591H3V28.0091ZM4.59998 28.0091L4.79604 28.1643L12.066 18.9743L11.87 18.8191L11.6739 18.664L4.40391 27.854L4.59998 28.0091ZM11.87 18.8191L12.0671 18.9729C12.1172 18.9087 12.187 18.8628 12.2657 18.8423L12.2028 18.6004L12.1398 18.3584C11.9546 18.4066 11.7905 18.5145 11.6728 18.6654L11.87 18.8191ZM12.2028 18.6004L12.2657 18.8423C12.3445 18.8218 12.4278 18.8278 12.5028 18.8595L12.6 18.6291L12.6972 18.3988C12.5209 18.3244 12.325 18.3102 12.1398 18.3584L12.2028 18.6004ZM12.6 18.6291L12.5012 18.8588L15.5012 20.1488L15.6 19.9191L15.6987 19.6895L12.6987 18.3995L12.6 18.6291ZM15.6 19.9191L15.5023 20.1493C15.5822 20.1832 15.6467 20.2456 15.6832 20.3243L15.91 20.2191L16.1368 20.114C16.0482 19.9228 15.8916 19.7713 15.6976 19.689L15.6 19.9191ZM15.91 20.2191L15.6852 20.3285L19.4752 28.1185L19.7 28.0091L19.9248 27.8998L16.1348 20.1098L15.91 20.2191ZM31.52 28.0091L31.6829 27.8195L20.0429 17.8195L19.88 18.0091L19.717 18.1988L31.357 28.1988L31.52 28.0091ZM19.88 18.0091L20.0455 17.8218C19.8428 17.6427 19.5847 17.5386 19.3145 17.5271L19.3038 17.7769L19.2931 18.0266C19.4489 18.0333 19.5976 18.0933 19.7144 18.1965L19.88 18.0091ZM19.3038 17.7769L19.3145 17.5271C19.0442 17.5155 18.7782 17.5972 18.561 17.7584L18.71 17.9591L18.8589 18.1599C18.9841 18.067 19.1374 18.02 19.2931 18.0266L19.3038 17.7769ZM18.71 17.9591L18.565 17.7555L15.685 19.8055L15.83 20.0091L15.9749 20.2128L18.8549 18.1628L18.71 17.9591ZM24.43 19.6691L24.1883 19.6051L23.7083 21.4151L23.95 21.4791L24.1916 21.5432L24.6716 19.7332L24.43 19.6691ZM13.08 18.8391L13.2688 19.0029L19.7988 11.4729L19.61 11.3091L19.4211 11.1454L12.8911 18.6754L13.08 18.8391ZM19.61 11.3091L19.7907 11.4819C19.9217 11.3448 20.0997 11.2624 20.2889 11.2513L20.2742 11.0017L20.2595 10.7522C19.9441 10.7707 19.6475 10.908 19.4292 11.1364L19.61 11.3091ZM20.2742 11.0017L20.2889 11.2513C20.4781 11.2402 20.6646 11.3011 20.8107 11.4219L20.97 11.2291L21.1292 11.0364C20.8857 10.8352 20.5749 10.7336 20.2595 10.7522L20.2742 11.0017ZM20.97 11.2291L20.8002 11.4126L25.3602 15.6326L25.53 15.4491L25.6998 15.2657L21.1398 11.0457L20.97 11.2291ZM25.53 15.4491L25.2881 15.3858L24.6881 17.6758L24.93 17.7391L25.1718 17.8025L25.7718 15.5125L25.53 15.4491ZM35.85 28.0091C36.0682 27.887 36.0681 27.8869 36.0681 27.8869C36.068 27.8868 36.068 27.8867 36.0679 27.8865C36.0677 27.8862 36.0675 27.8857 36.0671 27.8851C36.0664 27.8839 36.0654 27.8821 36.064 27.8796C36.0613 27.8748 36.0573 27.8676 36.0519 27.858C36.0412 27.839 36.0253 27.8107 36.0045 27.7737C35.9629 27.6996 35.9016 27.5908 35.8229 27.4514C35.6654 27.1725 35.438 26.7713 35.1584 26.2816C34.5992 25.3023 33.8311 23.969 32.9953 22.5533C31.3288 19.7304 29.3782 16.5537 28.2832 15.2205L28.09 15.3791L27.8968 15.5378C28.9619 16.8346 30.8913 19.9729 32.5647 22.8075C33.399 24.2205 34.1658 25.5516 34.7242 26.5295C35.0033 27.0184 35.2303 27.419 35.3875 27.6973C35.4661 27.8364 35.5272 27.945 35.5687 28.0187C35.5894 28.0556 35.6052 28.0838 35.6159 28.1027C35.6212 28.1122 35.6252 28.1193 35.6279 28.1241C35.6292 28.1265 35.6302 28.1283 35.6309 28.1295C35.6312 28.1301 35.6315 28.1306 35.6317 28.1309C35.6317 28.131 35.6318 28.1311 35.6318 28.1312C35.6319 28.1313 35.6319 28.1313 35.85 28.0091ZM28.09 15.3791L28.2812 15.218C28.0723 14.9701 27.7829 14.8037 27.4635 14.7479L27.4205 14.9941L27.3774 15.2404C27.5811 15.276 27.7657 15.3821 27.8988 15.5402L28.09 15.3791ZM27.4205 14.9941L27.4635 14.7479C27.1442 14.692 26.8154 14.7504 26.5348 14.9127L26.66 15.1291L26.7852 15.3455C26.9641 15.242 27.1738 15.2048 27.3774 15.2404L27.4205 14.9941ZM26.66 15.1291L26.5368 14.9116L25.4068 15.5516L25.53 15.7691L25.6532 15.9867L26.7832 15.3467L26.66 15.1291ZM11.87 22.7391L11.6554 22.6109L8.50538 27.8809L8.71997 28.0091L8.93456 28.1374L12.0846 22.8674L11.87 22.7391Z" fill="#737373"/>
</svg>
