<svg width="40" height="40" viewBox="0 0 40 40" fill="none" xmlns="http://www.w3.org/2000/svg">
<path d="M21.5065 24.1214H8.44163C8.38416 24.1229 8.32699 24.1126 8.27349 24.0914C8.21998 24.0701 8.17123 24.0383 8.13009 23.9977C8.08896 23.9571 8.05627 23.9086 8.03396 23.8551C8.01165 23.8015 8.00016 23.744 8.00018 23.6859V6.50998C7.99684 6.38446 8.04041 6.26228 8.12223 6.16779C8.20404 6.0733 8.31809 6.01343 8.44163 6.00012H23.556C23.6227 5.99867 23.6889 6.01086 23.7508 6.03597C23.8127 6.06108 23.8688 6.09859 23.916 6.14622C23.9631 6.19386 24.0002 6.25065 24.0251 6.31316C24.0499 6.37567 24.062 6.44262 24.0606 6.50998V13.4462M10.8696 22.475V32.4916H9.26149M12.5198 32.4917H10.8591M8.52579 33.9894H13.2241M11.9523 22.645C11.9523 22.645 12.4253 27.0106 15.6416 28.3065C17.3117 28.9999 19.1666 29.0936 20.8969 28.5721M10.8592 20.5949C10.8592 20.5949 10.3651 18.0668 15.3577 16.2186L15.2526 14.9227M17.9013 12.2778L18.2692 15.9636C18.2692 15.9636 21.6221 16.5691 22.5365 19.1503M13.4447 10.4402C13.4447 10.4402 13.1399 7.04108 17.0604 7.49783C17.0604 7.49783 19.541 7.83774 20.0034 12.6177L20.2662 16.6753M21.7273 17.7588C21.7273 17.7588 17.6701 18.2474 16.3038 20.0001M11.9523 18.2899C12.3874 18.7637 12.9141 19.1421 13.5 19.4016C14.0858 19.6611 14.7182 19.7961 15.3578 19.7982M13.7917 20.2231C13.7917 20.2231 15.7782 20.9667 16.1356 22.1351M17.5334 21.1791C17.691 20.8924 17.9208 20.653 18.1996 20.4851C18.4783 20.3172 18.7961 20.2268 19.1205 20.2231M20.3924 19.0441C19.463 19.0849 18.5697 19.4192 17.8383 20.0001M17.0395 14.211L17.2181 15.1989M17.3233 15.9636V16.5266M24.0607 18.1943C24.0607 18.1943 20.424 19.7876 20.3819 22.5494C20.3862 22.8215 20.4826 23.0839 20.6552 23.2929C21.1807 23.9196 22.6207 25.0349 26.2049 24.9287C26.2049 24.9287 31.271 25.0137 31.9647 22.9318C32.0118 22.7291 32.0118 22.5183 31.9647 22.3157C31.8386 21.5296 31.2185 19.6495 28.1599 18.2686M23.9555 24.9393V26.8726M28.3806 24.9393V26.8726M27.1087 30.739V32.3961M28.3806 28.997V32.396M30.0202 21.3491C29.8168 21.6492 29.5501 21.9001 29.2394 22.0838C28.9286 22.2674 28.5815 22.3793 28.2229 22.4113M30.8295 22.1245C30.8295 22.1245 30.5457 22.8255 28.9796 23.2717M14.149 11.4174H14.8217M15.8412 11.4174H16.6295M11.5739 21.5403C11.5739 21.9392 11.2539 22.2626 10.8592 22.2626C10.4645 22.2626 10.1445 21.9392 10.1445 21.5403C10.1445 21.1413 10.4645 20.818 10.8592 20.818C11.2539 20.818 11.5739 21.1413 11.5739 21.5403ZM22.6416 26.8726H29.7889C29.8948 26.8726 29.9964 26.9151 30.0713 26.9908C30.1462 27.0665 30.1883 27.1691 30.1883 27.2762V32.396H22.2422V27.2762C22.2422 27.1691 22.2843 27.0665 22.3592 26.9908C22.4341 26.9151 22.5357 26.8726 22.6416 26.8726ZM21.1492 32.3961H31.2395C31.3846 32.3961 31.5022 32.515 31.5022 32.6616V33.7344C31.5022 33.8811 31.3846 34 31.2395 34H21.1492C21.0041 34 20.8864 33.8811 20.8864 33.7344V32.6616C20.8864 32.515 21.0041 32.3961 21.1492 32.3961ZM29.0952 15.7087C29.0952 17.5684 27.8011 19.0759 26.2048 19.0759C24.6084 19.0759 23.3143 17.5684 23.3143 15.7087C23.3143 13.8491 24.6084 12.3415 26.2048 12.3415C27.8011 12.3415 29.0952 13.8491 29.0952 15.7087ZM17.8698 11.821C17.8698 13.534 16.8628 14.9227 15.6205 14.9227C14.3783 14.9227 13.3712 13.534 13.3712 11.821C13.3712 10.108 14.3783 8.71937 15.6205 8.71937C16.8628 8.71937 17.8698 10.108 17.8698 11.821Z" stroke="#737373" stroke-width="0.4" stroke-miterlimit="10" stroke-linecap="round"/>
</svg>
