<svg width="40" height="40" viewBox="0 0 40 40" fill="none" xmlns="http://www.w3.org/2000/svg">
<path d="M8.41513 9.7028L8.42839 9.90236L8.51419 9.89666L8.56908 9.83048L8.41513 9.7028ZM12.7351 9.7028L12.5812 9.83048L12.7427 10.0253L12.8949 9.82307L12.7351 9.7028ZM16.9704 9.78879L16.8059 9.9026L16.8761 10.0039L16.9981 9.98686L16.9704 9.78879ZM18.7492 12.3396L18.5749 12.2416L18.5615 12.2653L18.555 12.2917L18.7492 12.3396ZM15.5445 14.3029L15.5927 14.1088L15.3445 14.0472V14.3029H15.5445ZM13.4834 15.4923L13.2931 15.4306L13.218 15.6623L13.4599 15.6909L13.4834 15.4923ZM12.0716 13.3714L11.8891 13.4532L11.9449 13.5776L12.081 13.5712L12.0716 13.3714ZM9.53042 13.3714L9.36919 13.4897L9.52612 13.7036L9.68854 13.4939L9.53042 13.3714ZM6.7069 13.5434L6.73075 13.7419L6.8332 13.7296L6.88255 13.639L6.7069 13.5434ZM5.0975 16.1085L5.29736 16.116L5.2987 16.0805L5.28769 16.0467L5.0975 16.1085ZM6.98926 17.9858L7.14023 17.8546L7.06497 17.768L6.95221 17.7893L6.98926 17.9858ZM8.23866 18.5583L8.23866 18.7583L8.23866 18.5583ZM9.48807 17.9858L9.52786 17.7898L9.41358 17.7666L9.3371 17.8546L9.48807 17.9858ZM11.0834 17.2836L11.1176 17.0866L10.9228 17.0528L10.8867 17.2471L11.0834 17.2836ZM13.0175 15.4923L13.0667 15.2985L12.8495 15.2433L12.8193 15.4654L13.0175 15.4923ZM14.9375 30.5536L15.1375 30.5536L15.1375 30.5083L15.118 30.4674L14.9375 30.5536ZM16.4905 31.9867L16.5996 31.8191L16.599 31.8187L16.4905 31.9867ZM13.3705 30.267L13.5376 30.1572L13.4506 30.0248L13.3018 30.0792L13.3705 30.267ZM13.8787 32.8895L14.0679 32.8247L14.0677 32.8242L13.8787 32.8895ZM11.634 31.2558L11.5512 31.4379L11.5585 31.4412L11.566 31.4439L11.634 31.2558ZM10.8858 30.2813L11.0828 30.2471L11.027 29.9254L10.7658 30.1214L10.8858 30.2813ZM8.16107 31.958L8.30292 32.0991L8.3072 32.0946L8.16107 31.958ZM9.8693 29.0919L9.69051 29.0023L9.68422 29.0148L9.67974 29.0281L9.8693 29.0919ZM10.0952 19.6195L9.91422 19.7047L9.92083 19.7187L9.92952 19.7315L10.0952 19.6195ZM11.888 19.1896L11.7248 19.3051L11.934 19.6007L12.0728 19.2662L11.888 19.1896ZM22.0933 13.4884C22.0471 13.388 21.9283 13.3442 21.8279 13.3904C21.7276 13.4366 21.6837 13.5554 21.73 13.6557L22.0933 13.4884ZM24.1704 14.3029L24.3287 14.1806L24.2518 14.0811L24.1288 14.1073L24.1704 14.3029ZM25.681 14.7328L25.7522 14.9197L25.7675 14.9139L25.7816 14.9056L25.681 14.7328ZM25.681 13.572L25.5588 13.7304L25.5665 13.7363L25.5748 13.7415L25.681 13.572ZM24.6222 12.7552L24.4337 12.822L24.4534 12.8776L24.5 12.9136L24.6222 12.7552ZM22.3916 11.6518L22.2739 11.8135L22.3573 11.8741L22.4551 11.8414L22.3916 11.6518ZM20.6975 10.8206L20.7532 10.6285L20.7259 10.6206H20.6975V10.8206ZM21.4034 12.4399L21.4937 12.6184L21.7304 12.4986L21.5501 12.304L21.4034 12.4399ZM18.5799 15.4493L18.3963 15.3699L18.3959 15.3709L18.5799 15.4493ZM16.0528 17.8568L15.9842 17.669L15.9838 17.6691L16.0528 17.8568ZM14.0355 18.3857C13.9319 18.4238 13.8787 18.5387 13.9169 18.6424C13.955 18.7461 14.0699 18.7992 14.1736 18.7611L14.0355 18.3857ZM21.5869 9.97508L21.6586 9.78831L21.6544 9.7868L21.5869 9.97508ZM19.1869 20.7373L19.052 20.5896L18.985 20.6508L18.9869 20.7415L19.1869 20.7373ZM18.2269 24.1336L18.0589 24.0251L18.0336 24.0642L18.0282 24.1106L18.2269 24.1336ZM18.0575 30.7972V30.9972H18.3899L18.2341 30.7035L18.0575 30.7972ZM16.6457 30.7972L16.4457 30.8012L16.4496 30.9972H16.6457V30.7972ZM16.5186 24.3629L16.7186 24.3589L16.7184 24.3493L16.7173 24.3398L16.5186 24.3629ZM15.9398 23.6177L15.9456 23.4178L15.8747 23.4157L15.8183 23.4588L15.9398 23.6177ZM14.1328 24.0189L14.1761 23.8237L14.1547 23.8189H14.1328V24.0189ZM13.8786 24.0189H13.6786V24.2189H13.8786V24.0189ZM13.8786 22.0413L13.8664 21.8417L13.6786 21.8532V22.0413H13.8786ZM15.9116 23.1304L15.7118 23.1189L15.7116 23.127L15.9116 23.1304ZM18.2268 19.9634L18.3623 20.1106L18.3826 20.0919L18.397 20.0685L18.2268 19.9634ZM17.0833 20.4507L17.0715 20.251L16.917 20.2601L16.8871 20.412L17.0833 20.4507ZM15.0644 20.508L14.9786 20.3274L14.9649 20.3339L14.9523 20.3423L15.0644 20.508ZM18.2833 17.6419L18.188 17.4659L18.1831 17.4688L18.2833 17.6419ZM19.3421 17.0687L19.4373 17.2446L19.4447 17.2405L19.4518 17.2359L19.3421 17.0687ZM19.4691 16.4238L19.6348 16.3116L19.6328 16.3089L19.4691 16.4238ZM21.0222 15.2774L21.1928 15.3818L21.2072 15.3582L21.2147 15.3315L21.0222 15.2774ZM20.2881 15.8076V15.6076H20.0614L20.0896 15.8325L20.2881 15.8076ZM7.59636 23.546L7.39765 23.5687L7.40466 23.6302L7.44521 23.677L7.59636 23.546ZM7.59636 27.4439L7.40944 27.3728L7.3997 27.3984L7.3972 27.4257L7.59636 27.4439ZM9.17754 27.3723L9.03207 27.235L8.98966 27.2799L8.97999 27.341L9.17754 27.3723ZM8.96569 23.1161L8.76833 23.1485L8.78598 23.2561L8.8859 23.2995L8.96569 23.1161ZM9.51627 23.7897L9.69944 23.87L9.71206 23.8412L9.71524 23.8099L9.51627 23.7897ZM34.7163 30.7972L34.6999 30.9966L34.7014 30.9967L34.7163 30.7972ZM30.3539 32.4023L30.3047 32.5961L30.3049 32.5962L30.3539 32.4023ZM26.1892 33.8353L26.2338 33.6403L26.2282 33.6391L26.1892 33.8353ZM24.9469 34.1076L24.8297 33.9454L24.8276 33.9471L24.9469 34.1076ZM18.6222 34.4945L18.6734 34.3008L18.6623 34.2986L18.6222 34.4945ZM13.6669 34.9531L13.6993 35.1504L13.7214 35.1468L13.7423 35.1383L13.6669 34.9531ZM10.6034 33.9929L10.4511 34.1226L10.4575 34.1301L10.4647 34.137L10.6034 33.9929ZM9.37517 33.4484L9.36819 33.2485L9.34884 33.2492L9.32999 33.2535L9.37517 33.4484ZM7.314 32.3879L7.12479 32.4527L7.12714 32.4596L7.12999 32.4663L7.314 32.3879ZM7.03165 30.7399L6.84354 30.672L6.83131 30.7058L6.83165 30.7419L7.03165 30.7399ZM22.1092 24.1479L22.3041 24.1949L22.3063 24.1819L22.1092 24.1479ZM17.9728 26.7561L17.9877 26.5566L17.5003 26.5201L17.8223 26.8878L17.9728 26.7561ZM19.3845 27.1L19.3701 27.2995L19.3787 27.3001L19.3873 27.3L19.3845 27.1ZM23.4645 23.718L23.6601 23.76L23.6621 23.7503L23.6633 23.7405L23.4645 23.718ZM22.2222 22.9298L22.1593 22.74L22.0128 22.7885L22.0226 22.9425L22.2222 22.9298ZM21.6434 24.5492L21.7249 24.7318L21.7617 24.7153L21.7893 24.6859L21.6434 24.5492ZM20.6834 25.9822L20.8831 25.9934L20.8832 25.9897L20.6834 25.9822ZM21.9822 28.9773L22.1762 29.026L22.23 28.8117L22.0114 28.7794L21.9822 28.9773ZM21.7987 29.7081L21.7252 29.8942L21.9371 29.9778L21.9926 29.7568L21.7987 29.7081ZM19.4975 26.4408L19.6973 26.4326L19.6969 26.4231L19.6956 26.4136L19.4975 26.4408ZM19.6387 23.1734L19.8338 23.2176L19.835 23.2116L19.6387 23.1734ZM23.8739 18.8743L23.7905 19.056L23.8968 19.1049L23.9915 19.0361L23.8739 18.8743ZM27.5728 20.3073L27.7727 20.3036L27.7727 20.301L27.5728 20.3073ZM24.5657 25.28L24.4723 25.4568L24.5315 25.4882L24.5977 25.4774L24.5657 25.28ZM22.1316 21.3885C22.2301 21.4385 22.3505 21.3992 22.4005 21.3007C22.4505 21.2022 22.4111 21.0818 22.3127 21.0318L22.1316 21.3885ZM21.0806 21.7994C21.0578 21.9075 21.1269 22.0136 21.2349 22.0364C21.343 22.0592 21.4491 21.9901 21.4719 21.882L21.0806 21.7994ZM31.8362 20.7086L31.8491 20.509L31.8233 20.5073L31.798 20.5123L31.8362 20.7086ZM33.8974 23.761L33.7064 23.7016L33.6947 23.7393L33.6981 23.7787L33.8974 23.761ZM31.8644 27.8738L31.7176 27.738L31.6831 27.7753L31.6706 27.8247L31.8644 27.8738ZM31.5962 30.5393V30.7393H31.806L31.796 30.5298L31.5962 30.5393ZM29.7468 30.5393L29.5471 30.5272L29.5343 30.7393H29.7468V30.5393ZM29.3656 26.7274L29.1687 26.7621L29.1701 26.7705L29.1723 26.7788L29.3656 26.7274ZM32.4009 30.6969L32.201 30.7028L32.2067 30.8969H32.4009V30.6969ZM34.1233 30.6969V30.8969H34.3228L34.3233 30.6974L34.1233 30.6969ZM33.728 27.9168L33.92 27.8606L33.9182 27.855L33.728 27.9168ZM11.761 5.81926L11.7924 6.01678L11.8631 6.00555L11.9106 5.95206L11.761 5.81926ZM13.5751 5L13.5751 5.2L13.5751 5ZM15.3893 5.81926L15.2397 5.95206L15.2503 5.96405L15.2628 5.97418L15.3893 5.81926ZM18.7492 5.99123L18.5949 6.11841L18.5959 6.11963L18.7492 5.99123ZM20.2881 8.59937L20.1033 8.5227L20.0947 8.54349L20.0909 8.56567L20.2881 8.59937ZM24.9969 25.3955C25.0291 25.2898 24.9694 25.1781 24.8638 25.146C24.7581 25.1138 24.6464 25.1735 24.6142 25.2792L24.9969 25.3955ZM24.0432 27.8452L24.2267 27.9247L24.2313 27.9142L24.2346 27.9033L24.0432 27.8452ZM22.6174 30.6317C22.5735 30.7331 22.62 30.8508 22.7214 30.8948C22.8227 30.9387 22.9405 30.8921 22.9844 30.7908L22.6174 30.6317ZM5.94455 13.572C6.13083 13.4992 6.13085 13.4993 6.13088 13.4993C6.13088 13.4993 6.1309 13.4994 6.1309 13.4994C6.1309 13.4994 6.13088 13.4994 6.13084 13.4993C6.13077 13.4991 6.13061 13.4986 6.13037 13.498C6.12989 13.4968 6.12909 13.4947 6.128 13.4917C6.12582 13.4859 6.12248 13.4768 6.11817 13.4646C6.10954 13.4403 6.09707 13.4037 6.08237 13.3567C6.05293 13.2625 6.0147 13.1267 5.98039 12.9628C5.91138 12.633 5.86023 12.1985 5.92199 11.7622C5.98342 11.3282 6.15504 10.9002 6.52555 10.5644C6.89671 10.228 7.48889 9.96479 8.42839 9.90236L8.41513 9.7028L8.40188 9.50324C7.40021 9.5698 6.71298 9.8547 6.25694 10.268C5.80025 10.6819 5.59686 11.205 5.52594 11.7061C5.45535 12.2048 5.5145 12.6893 5.58887 13.0447C5.62625 13.2233 5.66799 13.3717 5.70058 13.476C5.7169 13.5282 5.73097 13.5695 5.74113 13.5982C5.74621 13.6125 5.75032 13.6237 5.75324 13.6316C5.75471 13.6355 5.75588 13.6386 5.75672 13.6408C5.75715 13.6419 5.75749 13.6428 5.75775 13.6435C5.75788 13.6438 5.75799 13.6441 5.75808 13.6443C5.75813 13.6444 5.75818 13.6446 5.7582 13.6446C5.75824 13.6447 5.75828 13.6448 5.94455 13.572ZM8.41513 9.7028L8.56908 9.83048C8.81556 9.53329 9.12286 9.29461 9.46935 9.13095L9.38393 8.95011L9.29852 8.76927C8.89878 8.95808 8.54479 9.23318 8.26119 9.57513L8.41513 9.7028ZM9.38393 8.95011L9.46935 9.13095C9.81583 8.9673 10.1932 8.88256 10.5751 8.88256V8.68256V8.48256C10.134 8.48256 9.69826 8.58045 9.29852 8.76927L9.38393 8.95011ZM10.5751 8.68256V8.88256C10.957 8.88256 11.3344 8.9673 11.6809 9.13095L11.7663 8.95011L11.8517 8.76927C11.452 8.58045 11.0163 8.48256 10.5751 8.48256V8.68256ZM11.7663 8.95011L11.6809 9.13095C12.0274 9.29461 12.3347 9.53329 12.5812 9.83048L12.7351 9.7028L12.8891 9.57513C12.6055 9.23318 12.2515 8.95808 11.8517 8.76927L11.7663 8.95011ZM12.7351 9.7028L12.8949 9.82307C13.1266 9.51528 13.4262 9.26751 13.7694 9.09959L13.6814 8.91995L13.5935 8.7403C13.1934 8.93611 12.8446 9.22474 12.5753 9.58253L12.7351 9.7028ZM13.6814 8.91995L13.7694 9.09959C14.1125 8.93168 14.4896 8.84828 14.8702 8.85601L14.8742 8.65605L14.8783 8.45609C14.4339 8.44707 13.9937 8.54449 13.5935 8.7403L13.6814 8.91995ZM14.8742 8.65605L14.8702 8.85601C15.2507 8.86374 15.6243 8.96238 15.9606 9.1441L16.0557 8.96815L16.1507 8.7922C15.7587 8.58032 15.3227 8.46511 14.8783 8.45609L14.8742 8.65605ZM16.0557 8.96815L15.9606 9.1441C16.2969 9.32583 16.5866 9.58561 16.8059 9.9026L16.9704 9.78879L17.1349 9.67497C16.8799 9.30658 16.5428 9.00407 16.1507 8.7922L16.0557 8.96815ZM16.9704 9.78879C16.9981 9.98686 16.998 9.98687 16.998 9.98688C16.998 9.98688 16.9979 9.98688 16.9979 9.98688C16.9979 9.98688 16.998 9.98687 16.9981 9.98686C16.9983 9.98683 16.9987 9.98677 16.9994 9.98669C17.0006 9.98652 17.0027 9.98625 17.0055 9.98589C17.0111 9.98518 17.0199 9.98411 17.0315 9.9828C17.0547 9.98019 17.0892 9.97665 17.1329 9.97314C17.2204 9.96611 17.3441 9.95927 17.4874 9.96012C17.7777 9.96185 18.1317 9.99527 18.4274 10.1111C18.7189 10.2254 18.9298 10.4084 18.9969 10.7037C19.0673 11.0134 18.9928 11.4983 18.5749 12.2416L18.7492 12.3396L18.9236 12.4376C19.3597 11.6619 19.49 11.0684 19.387 10.615C19.2807 10.1473 18.9401 9.88243 18.5734 9.73871C18.2108 9.59663 17.7998 9.56198 17.4898 9.56013C17.3328 9.55919 17.1974 9.56668 17.1009 9.57443C17.0526 9.57831 17.0138 9.58227 16.9868 9.58531C16.9733 9.58683 16.9626 9.58813 16.9552 9.58907C16.9515 9.58954 16.9486 9.58992 16.9465 9.5902C16.9454 9.59034 16.9446 9.59045 16.944 9.59054C16.9437 9.59058 16.9434 9.59062 16.9432 9.59065C16.9431 9.59066 16.943 9.59068 16.9429 9.59068C16.9428 9.5907 16.9427 9.59071 16.9704 9.78879ZM18.7492 12.3396L18.555 12.2917C18.3973 12.9319 17.9965 13.4817 17.4414 13.8218L17.5459 13.9923L17.6504 14.1629C18.2962 13.7672 18.7607 13.1287 18.9434 12.3875L18.7492 12.3396ZM17.5459 13.9923L17.4414 13.8218C16.8864 14.1618 16.2218 14.2648 15.5927 14.1088L15.5445 14.3029L15.4964 14.497C16.2299 14.6789 17.0044 14.5586 17.6504 14.1629L17.5459 13.9923ZM15.5445 14.3029C15.3445 14.3029 15.3445 14.3027 15.3445 14.3026C15.3445 14.3026 15.3445 14.3025 15.3445 14.3024C15.3445 14.3022 15.3445 14.3021 15.3445 14.302C15.3445 14.3018 15.3445 14.3017 15.3445 14.3016C15.3445 14.3015 15.3445 14.3018 15.3445 14.3023C15.3445 14.3034 15.3444 14.3058 15.3443 14.3093C15.3439 14.3163 15.3432 14.3279 15.3416 14.3433C15.3384 14.3742 15.3317 14.42 15.3181 14.4751C15.2908 14.5857 15.2366 14.7293 15.1296 14.8654C14.9259 15.1245 14.4877 15.4096 13.5068 15.2937L13.4834 15.4923L13.4599 15.6909C14.5401 15.8186 15.1325 15.509 15.4441 15.1125C15.5948 14.9208 15.6694 14.7213 15.7065 14.5709C15.7251 14.4954 15.7346 14.4312 15.7394 14.3847C15.7418 14.3614 15.7431 14.3424 15.7438 14.3285C15.7441 14.3216 15.7443 14.3159 15.7444 14.3116C15.7445 14.3095 15.7445 14.3077 15.7445 14.3062C15.7445 14.3055 15.7445 14.3048 15.7445 14.3043C15.7445 14.304 15.7445 14.3037 15.7445 14.3035C15.7445 14.3034 15.7445 14.3032 15.7445 14.3032C15.7445 14.303 15.7445 14.3029 15.5445 14.3029ZM13.4834 15.4923C13.6736 15.554 13.6736 15.5539 13.6737 15.5538C13.6737 15.5538 13.6737 15.5536 13.6737 15.5536C13.6738 15.5534 13.6739 15.5532 13.6739 15.5529C13.6741 15.5524 13.6743 15.5518 13.6745 15.5511C13.675 15.5496 13.6757 15.5475 13.6764 15.545C13.678 15.5399 13.6802 15.5327 13.6829 15.5236C13.6882 15.5053 13.6955 15.4794 13.7039 15.4467C13.7206 15.3816 13.7417 15.2895 13.7599 15.1795C13.7959 14.9615 13.8223 14.6635 13.7744 14.3628C13.7263 14.061 13.6007 13.7418 13.3198 13.507C13.038 13.2715 12.6287 13.145 12.0622 13.1716L12.0716 13.3714L12.081 13.5712C12.5804 13.5477 12.8805 13.6612 13.0633 13.8139C13.2469 13.9674 13.341 14.1847 13.3794 14.4257C13.4179 14.6678 13.3975 14.9188 13.3652 15.1142C13.3492 15.2108 13.3307 15.2914 13.3164 15.3474C13.3092 15.3753 13.3031 15.397 13.299 15.4112C13.2969 15.4184 13.2953 15.4236 13.2943 15.4269C13.2938 15.4286 13.2934 15.4297 13.2932 15.4303C13.2931 15.4306 13.293 15.4308 13.293 15.4309C13.293 15.4309 13.293 15.4309 13.293 15.4309C13.293 15.4308 13.2931 15.4308 13.2931 15.4308C13.2931 15.4307 13.2931 15.4306 13.4834 15.4923ZM12.0716 13.3714C12.2541 13.2896 12.254 13.2895 12.254 13.2894C12.254 13.2893 12.2539 13.2892 12.2539 13.2891C12.2538 13.2889 12.2537 13.2887 12.2536 13.2885C12.2534 13.288 12.2531 13.2873 12.2527 13.2866C12.252 13.2851 12.2511 13.2831 12.25 13.2807C12.2477 13.2758 12.2445 13.269 12.2403 13.2605C12.232 13.2435 12.2199 13.2198 12.2042 13.1908C12.1728 13.133 12.1264 13.0535 12.0652 12.9653C11.9447 12.7913 11.7586 12.571 11.5072 12.4206C11.2497 12.2665 10.9238 12.1868 10.5471 12.3038C10.1791 12.418 9.78793 12.7123 9.37231 13.2489L9.53042 13.3714L9.68854 13.4939C10.0776 12.9915 10.4064 12.7663 10.6658 12.6858C10.9165 12.6079 11.1252 12.6581 11.3018 12.7638C11.4846 12.8732 11.632 13.0424 11.7365 13.1931C11.7878 13.2672 11.8267 13.3339 11.8526 13.3815C11.8655 13.4053 11.8751 13.4242 11.8812 13.4367C11.8842 13.4429 11.8864 13.4475 11.8878 13.4503C11.8884 13.4518 11.8889 13.4527 11.8891 13.4532C11.8892 13.4535 11.8893 13.4536 11.8893 13.4536C11.8893 13.4536 11.8892 13.4536 11.8892 13.4535C11.8892 13.4535 11.8892 13.4534 11.8892 13.4534C11.8891 13.4533 11.8891 13.4532 12.0716 13.3714ZM9.53042 13.3714C9.69166 13.2531 9.6916 13.253 9.69154 13.2529C9.69151 13.2529 9.69144 13.2528 9.69138 13.2527C9.69126 13.2525 9.69112 13.2523 9.69096 13.2521C9.69062 13.2517 9.6902 13.2511 9.68967 13.2504C9.68862 13.249 9.68719 13.2471 9.68539 13.2447C9.68177 13.2399 9.67666 13.2332 9.67009 13.2248C9.65697 13.208 9.63802 13.1844 9.61371 13.1554C9.56518 13.0977 9.49483 13.0186 9.40632 12.9314C9.23116 12.7587 8.97637 12.5459 8.67148 12.4096C8.36376 12.272 7.99334 12.2079 7.60645 12.3564C7.22301 12.5037 6.85867 12.8465 6.53126 13.4477L6.7069 13.5434L6.88255 13.639C7.18337 13.0866 7.48609 12.8311 7.74985 12.7299C8.01017 12.6299 8.2671 12.667 8.5082 12.7748C8.75213 12.8838 8.96763 13.0606 9.12556 13.2163C9.2036 13.2932 9.26549 13.3628 9.30756 13.4129C9.32855 13.4378 9.3445 13.4578 9.35495 13.4712C9.36017 13.4778 9.364 13.4829 9.3664 13.486C9.36759 13.4876 9.36843 13.4887 9.3689 13.4893C9.36913 13.4897 9.36927 13.4898 9.36932 13.4899C9.36935 13.4899 9.36935 13.4899 9.36932 13.4899C9.36931 13.4899 9.36928 13.4899 9.36927 13.4898C9.36923 13.4898 9.36919 13.4897 9.53042 13.3714ZM6.7069 13.5434L6.68306 13.3448C6.36838 13.3826 6.06608 13.4909 5.79805 13.6618L5.90555 13.8304L6.01305 13.9991C6.23072 13.8603 6.47587 13.7725 6.73075 13.7419L6.7069 13.5434ZM5.90555 13.8304L5.79805 13.6618C5.53002 13.8326 5.30303 14.0616 5.13334 14.3321L5.30275 14.4384L5.47217 14.5447C5.61056 14.3241 5.79537 14.1378 6.01305 13.9991L5.90555 13.8304ZM5.30275 14.4384L5.13334 14.3321C4.96364 14.6026 4.85543 14.9078 4.81637 15.2256L5.01488 15.25L5.21338 15.2744C5.24532 15.0145 5.33377 14.7653 5.47217 14.5447L5.30275 14.4384ZM5.01488 15.25L4.81637 15.2256C4.77731 15.5434 4.80835 15.8661 4.90731 16.1704L5.0975 16.1085L5.28769 16.0467C5.20685 15.7981 5.18145 15.5343 5.21338 15.2744L5.01488 15.25ZM5.0975 16.1085C4.89764 16.101 4.89764 16.1011 4.89763 16.1012C4.89763 16.1012 4.89763 16.1013 4.89762 16.1014C4.89762 16.1016 4.89761 16.1018 4.8976 16.1021C4.89758 16.1026 4.89756 16.1032 4.89754 16.104C4.89749 16.1056 4.89743 16.1076 4.89737 16.1103C4.89725 16.1155 4.89711 16.1228 4.89704 16.132C4.89688 16.1505 4.89695 16.1767 4.89778 16.2095C4.89945 16.2751 4.90418 16.3673 4.91639 16.4765C4.94062 16.6932 4.99517 16.9843 5.119 17.2671C5.24303 17.5504 5.44146 17.8359 5.75858 18.0221C6.0784 18.2099 6.49487 18.2825 7.02631 18.1823L6.98926 17.9858L6.95221 17.7893C6.49542 17.8754 6.18129 17.8065 5.96111 17.6772C5.73824 17.5463 5.58726 17.3393 5.48541 17.1067C5.38335 16.8736 5.33555 16.6255 5.31391 16.432C5.30317 16.3361 5.29908 16.2554 5.29765 16.1994C5.29694 16.1714 5.2969 16.1497 5.29702 16.1354C5.29708 16.1282 5.29718 16.1229 5.29726 16.1197C5.2973 16.118 5.29733 16.1169 5.29735 16.1163C5.29736 16.116 5.29737 16.1158 5.29737 16.1158C5.29737 16.1157 5.29737 16.1158 5.29737 16.1158C5.29737 16.1158 5.29736 16.1159 5.29736 16.1159C5.29736 16.116 5.29736 16.116 5.0975 16.1085ZM6.98926 17.9858L6.83828 18.117C7.01318 18.3183 7.22847 18.4797 7.46995 18.5904L7.55326 18.4086L7.63657 18.2267C7.44722 18.14 7.27799 18.0132 7.14023 17.8546L6.98926 17.9858ZM7.55326 18.4086L7.46995 18.5904C7.71143 18.701 7.97348 18.7583 8.23866 18.7583V18.5583V18.3583C8.03115 18.3583 7.82592 18.3135 7.63657 18.2267L7.55326 18.4086ZM8.23866 18.5583L8.23866 18.7583C8.50384 18.7583 8.7659 18.701 9.00738 18.5904L8.92407 18.4086L8.84075 18.2267C8.65141 18.3135 8.44618 18.3583 8.23866 18.3583L8.23866 18.5583ZM8.92407 18.4086L9.00738 18.5904C9.24886 18.4797 9.46415 18.3183 9.63905 18.117L9.48807 17.9858L9.3371 17.8546C9.19934 18.0132 9.03011 18.14 8.84075 18.2267L8.92407 18.4086ZM9.48807 17.9858C9.44828 18.1818 9.44835 18.1818 9.44843 18.1818C9.44846 18.1818 9.44855 18.1819 9.44861 18.1819C9.44875 18.1819 9.4489 18.1819 9.44908 18.182C9.44943 18.182 9.44987 18.1821 9.45039 18.1822C9.45144 18.1824 9.45283 18.1827 9.45455 18.183C9.45798 18.1837 9.46275 18.1846 9.46875 18.1857C9.48076 18.1878 9.49777 18.1907 9.51912 18.1939C9.56177 18.2004 9.62206 18.2083 9.6947 18.2144C9.83892 18.2266 10.0369 18.2323 10.2443 18.2036C10.4503 18.1752 10.6786 18.111 10.8724 17.9736C11.0716 17.8323 11.2243 17.62 11.28 17.3201L11.0834 17.2836L10.8867 17.2471C10.8506 17.4416 10.758 17.5643 10.641 17.6474C10.5184 17.7343 10.3594 17.7839 10.1895 17.8074C10.021 17.8307 9.85458 17.8265 9.72836 17.8159C9.66578 17.8106 9.61434 17.8038 9.57907 17.7985C9.56146 17.7958 9.54795 17.7935 9.53919 17.7919C9.53481 17.7911 9.53163 17.7905 9.52971 17.7902C9.52875 17.79 9.52811 17.7899 9.5278 17.7898C9.52765 17.7898 9.52757 17.7897 9.52758 17.7897C9.52759 17.7898 9.52761 17.7898 9.52766 17.7898C9.52768 17.7898 9.52773 17.7898 9.52775 17.7898C9.5278 17.7898 9.52786 17.7898 9.48807 17.9858ZM11.0834 17.2836C11.0492 17.4807 11.0493 17.4807 11.0494 17.4807C11.0495 17.4807 11.0496 17.4807 11.0497 17.4808C11.0499 17.4808 11.0502 17.4808 11.0504 17.4809C11.051 17.481 11.0516 17.4811 11.0523 17.4812C11.0538 17.4814 11.0556 17.4817 11.0579 17.4821C11.0624 17.4828 11.0685 17.4836 11.076 17.4846C11.0911 17.4866 11.1122 17.489 11.1384 17.4912C11.1908 17.4955 11.2643 17.4989 11.3529 17.4958C11.5292 17.4896 11.7697 17.4574 12.0219 17.3516C12.5415 17.1336 13.0658 16.6217 13.2157 15.5192L13.0175 15.4923L12.8193 15.4654C12.6867 16.4408 12.2441 16.8246 11.8671 16.9828C11.6711 17.065 11.481 17.0911 11.3388 17.0961C11.2681 17.0985 11.2104 17.0958 11.1714 17.0926C11.1519 17.0909 11.1372 17.0892 11.1279 17.088C11.1233 17.0874 11.1201 17.0869 11.1183 17.0867C11.1174 17.0865 11.1169 17.0865 11.1168 17.0864C11.1167 17.0864 11.1168 17.0864 11.1169 17.0864C11.1169 17.0865 11.117 17.0865 11.1171 17.0865C11.1172 17.0865 11.1173 17.0865 11.1173 17.0865C11.1174 17.0865 11.1176 17.0866 11.0834 17.2836ZM13.0175 15.4923L12.9683 15.6862L13.42 15.8008L13.4692 15.607L13.5184 15.4131L13.0667 15.2985L13.0175 15.4923ZM14.6552 15.564C14.4578 15.5318 14.4578 15.5318 14.4577 15.5319C14.4577 15.532 14.4577 15.5322 14.4577 15.5324C14.4576 15.5327 14.4575 15.5332 14.4574 15.5339C14.4572 15.5353 14.4569 15.5373 14.4564 15.54C14.4556 15.5453 14.4543 15.5531 14.4527 15.5635C14.4494 15.5842 14.4446 15.6149 14.4384 15.655C14.4259 15.7352 14.408 15.8532 14.386 16.0047C14.3419 16.3078 14.2813 16.7451 14.2149 17.2831C14.0822 18.3588 13.9264 19.8381 13.8343 21.4513C13.7423 23.064 13.7137 24.8143 13.8363 26.4311C13.9587 28.0437 14.2327 29.5421 14.757 30.6398L14.9375 30.5536L15.118 30.4674C14.6258 29.4371 14.3564 27.9978 14.2352 26.4008C14.1143 24.808 14.1422 23.0769 14.2337 21.4741C14.3251 19.872 14.4799 18.4019 14.6119 17.3321C14.6779 16.7973 14.7381 16.3628 14.7818 16.0623C14.8037 15.912 14.8214 15.7952 14.8336 15.7161C14.8398 15.6766 14.8445 15.6465 14.8477 15.6263C14.8493 15.6162 14.8505 15.6086 14.8514 15.6036C14.8518 15.601 14.8521 15.5992 14.8523 15.5979C14.8524 15.5973 14.8524 15.5969 14.8525 15.5966C14.8525 15.5964 14.8525 15.5963 14.8525 15.5962C14.8526 15.5962 14.8526 15.5962 14.6552 15.564ZM14.9375 30.5536C14.7375 30.5536 14.7375 30.554 14.7375 30.5543C14.7375 30.5545 14.7375 30.5548 14.7375 30.5551C14.7375 30.5555 14.7375 30.556 14.7375 30.5565C14.7376 30.5575 14.7376 30.5585 14.7376 30.5596C14.7377 30.5617 14.7377 30.5638 14.7379 30.5661C14.7381 30.5707 14.7385 30.5756 14.7391 30.5809C14.7403 30.5915 14.7423 30.6037 14.7453 30.6172C14.7513 30.6444 14.7615 30.6773 14.7783 30.716C14.8117 30.7931 14.8716 30.8943 14.978 31.022C15.19 31.2763 15.5964 31.6473 16.3819 32.1547L16.4905 31.9867L16.599 31.8187C15.8316 31.323 15.4615 30.9774 15.2853 30.7659C15.1976 30.6608 15.1604 30.5918 15.1453 30.5569C15.1378 30.5397 15.1359 30.5311 15.1358 30.5309C15.1358 30.5307 15.1362 30.5326 15.1367 30.5365C15.1369 30.5384 15.1371 30.5408 15.1372 30.5437C15.1373 30.5451 15.1374 30.5467 15.1374 30.5483C15.1375 30.5491 15.1375 30.55 15.1375 30.5509C15.1375 30.5513 15.1375 30.5518 15.1375 30.5522C15.1375 30.5525 15.1375 30.5528 15.1375 30.5529C15.1375 30.5533 15.1375 30.5536 14.9375 30.5536ZM16.4905 31.9867L16.3813 32.1543C16.4196 32.1792 16.4377 32.1962 16.4442 32.2035C16.4532 32.2137 16.4312 32.1944 16.4293 32.1491C16.4268 32.0897 16.4599 32.0492 16.4812 32.0332C16.4959 32.0221 16.5004 32.0252 16.4778 32.0297C16.3813 32.0491 16.14 32.0331 15.8012 31.9251C15.1407 31.7146 14.2145 31.1879 13.5376 30.1572L13.3705 30.267L13.2033 30.3768C13.9382 31.4957 14.9461 32.0724 15.6797 32.3062C16.038 32.4204 16.3587 32.4616 16.5565 32.4219C16.6074 32.4117 16.6687 32.3927 16.7215 32.353C16.7808 32.3084 16.8331 32.2328 16.8289 32.1326C16.8254 32.0464 16.7808 31.9805 16.7442 31.939C16.7052 31.8947 16.6548 31.855 16.5996 31.8191L16.4905 31.9867ZM13.3705 30.267C13.3018 30.0792 13.3012 30.0794 13.3005 30.0796C13.3003 30.0797 13.2997 30.08 13.2992 30.0801C13.2984 30.0805 13.2975 30.0808 13.2966 30.0812C13.2948 30.0819 13.293 30.0826 13.2912 30.0834C13.2876 30.0849 13.2839 30.0866 13.2802 30.0885C13.2727 30.0923 13.265 30.0966 13.2572 30.1017C13.2416 30.1119 13.2264 30.1245 13.2119 30.1398C13.1829 30.1703 13.1597 30.2087 13.1421 30.2543C13.1081 30.3427 13.0915 30.4687 13.102 30.6545C13.123 31.0267 13.2575 31.7034 13.6897 32.9548L13.8787 32.8895L14.0677 32.8242C13.6387 31.5821 13.5191 30.9476 13.5013 30.6319C13.4924 30.4737 13.5102 30.4117 13.5154 30.3979C13.5175 30.3925 13.5151 30.4014 13.502 30.4151C13.4956 30.4219 13.487 30.4293 13.4762 30.4364C13.4708 30.44 13.465 30.4433 13.4588 30.4464C13.4557 30.448 13.4525 30.4495 13.4492 30.4509C13.4475 30.4516 13.4459 30.4523 13.4442 30.4529C13.4434 30.4533 13.4425 30.4536 13.4417 30.4539C13.4412 30.4541 13.4406 30.4543 13.4404 30.4544C13.4398 30.4546 13.4391 30.4549 13.3705 30.267ZM13.8787 32.8895L13.6895 32.9543C13.7019 32.9905 13.7 32.9966 13.6999 32.985C13.6998 32.9787 13.7 32.9519 13.7164 32.9192C13.7361 32.8797 13.7724 32.8459 13.8196 32.8306C13.8594 32.8177 13.8907 32.8233 13.9007 32.8254C13.9122 32.8279 13.9171 32.8308 13.9135 32.8291C13.9061 32.8255 13.8885 32.8152 13.8586 32.7933C13.7361 32.7036 13.5379 32.5181 13.2899 32.2865C13.048 32.0606 12.7676 31.7995 12.4946 31.576C12.2268 31.3567 11.9453 31.1556 11.702 31.0677L11.634 31.2558L11.566 31.4439C11.7392 31.5065 11.9747 31.6672 12.2412 31.8855C12.5025 32.0995 12.7736 32.3516 13.0169 32.5789C13.2542 32.8005 13.4751 33.0083 13.6222 33.116C13.6597 33.1434 13.7001 33.1703 13.7401 33.1895C13.7602 33.1992 13.7861 33.2099 13.8158 33.2163C13.8441 33.2225 13.8907 33.2281 13.9429 33.2112C14.0025 33.1918 14.0482 33.1499 14.0742 33.098C14.0968 33.0527 14.1001 33.0091 14.0999 32.9811C14.0993 32.9265 14.0837 32.8709 14.0679 32.8247L13.8787 32.8895ZM11.634 31.2558L11.7168 31.0738C11.5532 30.9994 11.4097 30.8853 11.2991 30.7413L11.1405 30.8631L10.9818 30.9849C11.1321 31.1806 11.3275 31.3362 11.5512 31.4379L11.634 31.2558ZM11.1405 30.8631L11.2991 30.7413C11.1885 30.5972 11.1141 30.4276 11.0828 30.2471L10.8858 30.2813L10.6887 30.3156C10.731 30.5594 10.8316 30.7892 10.9818 30.9849L11.1405 30.8631ZM10.8858 30.2813C10.7658 30.1214 10.7657 30.1214 10.7657 30.1214C10.7657 30.1214 10.7656 30.1214 10.7656 30.1215C10.7655 30.1216 10.7653 30.1217 10.765 30.1219C10.7645 30.1223 10.7638 30.1228 10.7628 30.1236C10.7608 30.125 10.7579 30.1273 10.754 30.1302C10.7462 30.136 10.7347 30.1446 10.7196 30.1559C10.6896 30.1783 10.6457 30.2111 10.5903 30.2523C10.4795 30.3347 10.3227 30.4508 10.1391 30.5857C9.77171 30.8556 9.29766 31.1997 8.86908 31.4984C8.43391 31.8016 8.06322 32.0453 7.89344 32.126C7.87385 32.1353 7.86116 32.1404 7.85425 32.1427C7.84327 32.1464 7.85553 32.1405 7.88008 32.1408C7.90387 32.141 8.00858 32.153 8.0479 32.2644C8.06225 32.3051 8.05851 32.339 8.0557 32.3545C8.05273 32.3709 8.04811 32.3813 8.04704 32.3837C8.04598 32.3861 8.05751 32.3646 8.10613 32.308C8.15023 32.2566 8.21452 32.1879 8.30285 32.0991L8.16107 31.958L8.01929 31.817C7.92762 31.9091 7.8557 31.9856 7.8026 32.0475C7.75403 32.104 7.70737 32.1639 7.68238 32.2193C7.67415 32.2376 7.64045 32.3119 7.67071 32.3976C7.71459 32.5219 7.83182 32.5402 7.87551 32.5407C7.91995 32.5412 7.95947 32.5294 7.98253 32.5216C8.00966 32.5124 8.03777 32.5003 8.06517 32.4873C8.27127 32.3893 8.67176 32.1234 9.09776 31.8265C9.53035 31.5251 10.0075 31.1787 10.3759 30.9081C10.5603 30.7726 10.7177 30.656 10.829 30.5732C10.8846 30.5319 10.9288 30.4989 10.9591 30.4763C10.9742 30.465 10.9858 30.4563 10.9937 30.4504C10.9977 30.4474 11.0007 30.4452 11.0027 30.4437C11.0037 30.4429 11.0045 30.4423 11.005 30.4419C11.0052 30.4417 11.0054 30.4416 11.0056 30.4415C11.0056 30.4414 11.0057 30.4414 11.0057 30.4414C11.0058 30.4414 11.0058 30.4413 10.8858 30.2813ZM8.16107 31.958L8.3072 32.0946C9.09267 31.254 9.69008 30.2516 10.0589 29.1557L9.8693 29.0919L9.67974 29.0281C9.32909 30.0702 8.76118 31.0229 8.01494 31.8215L8.16107 31.958ZM9.8693 29.0919C10.0481 29.1816 10.0481 29.1815 10.0482 29.1814C10.0482 29.1813 10.0483 29.1812 10.0483 29.1811C10.0485 29.1808 10.0486 29.1805 10.0488 29.1801C10.0492 29.1792 10.0498 29.1781 10.0506 29.1766C10.0521 29.1735 10.0542 29.1691 10.057 29.1634C10.0626 29.152 10.0707 29.1353 10.081 29.1136C10.1017 29.07 10.1314 29.0062 10.1682 28.924C10.2416 28.7595 10.3432 28.521 10.4568 28.2232C10.6837 27.6278 10.9591 26.793 11.1524 25.8355C11.5375 23.9279 11.6044 21.4939 10.2608 19.5074L10.0952 19.6195L9.92952 19.7315C11.1836 21.5856 11.1375 23.8879 10.7603 25.7563C10.5724 26.6869 10.3043 27.5001 10.083 28.0807C9.97242 28.3708 9.87373 28.6024 9.80293 28.7609C9.76754 28.8401 9.73914 28.9011 9.71973 28.9419C9.71002 28.9623 9.70257 28.9777 9.69762 28.9879C9.69514 28.9929 9.69329 28.9967 9.69209 28.9991C9.69149 29.0003 9.69106 29.0012 9.6908 29.0017C9.69066 29.002 9.69057 29.0022 9.69052 29.0023C9.6905 29.0023 9.6905 29.0023 9.69048 29.0023C9.69049 29.0023 9.69051 29.0023 9.8693 29.0919ZM10.0952 19.6195C10.2761 19.5343 10.2761 19.5343 10.2761 19.5342C10.2761 19.5342 10.2761 19.5342 10.2761 19.5341C10.276 19.5341 10.276 19.534 10.2759 19.5339C10.2758 19.5336 10.2757 19.5333 10.2755 19.5329C10.2751 19.5322 10.2746 19.5311 10.2739 19.5297C10.2726 19.527 10.2707 19.523 10.2683 19.518C10.2634 19.5079 10.2563 19.4933 10.2472 19.475C10.2289 19.4383 10.2024 19.3863 10.1692 19.3241C10.1029 19.2002 10.0088 19.034 9.89826 18.8676C9.78879 18.7027 9.65805 18.5297 9.51742 18.3976C9.38511 18.2733 9.20348 18.1464 8.9962 18.1588L9.00812 18.3584L9.02005 18.5581C9.05277 18.5561 9.12701 18.5797 9.24353 18.6891C9.35172 18.7908 9.46275 18.9348 9.56505 19.0888C9.66629 19.2413 9.75389 19.3957 9.81646 19.5127C9.84763 19.571 9.87233 19.6196 9.88913 19.6533C9.89753 19.6701 9.90394 19.6833 9.90818 19.6921C9.9103 19.6964 9.91188 19.6997 9.9129 19.7019C9.91341 19.7029 9.91377 19.7037 9.91399 19.7042C9.9141 19.7044 9.91418 19.7046 9.91422 19.7046C9.91424 19.7047 9.91425 19.7047 9.91425 19.7047C9.91425 19.7047 9.91424 19.7047 9.91424 19.7047C9.91423 19.7047 9.91422 19.7047 10.0952 19.6195ZM10.8433 17.7135L10.6801 17.8291L11.7248 19.3051L11.888 19.1896L12.0513 19.074L11.0066 17.598L10.8433 17.7135ZM11.888 19.1896L12.0728 19.2662L13.4704 15.8986L13.2857 15.8219L13.1009 15.7452L11.7033 19.1129L11.888 19.1896ZM21.9116 13.572C21.73 13.6557 21.73 13.6558 21.7301 13.656C21.7301 13.656 21.7302 13.6562 21.7302 13.6563C21.7303 13.6565 21.7304 13.6567 21.7305 13.6569C21.7307 13.6574 21.731 13.658 21.7313 13.6586C21.7319 13.6598 21.7326 13.6613 21.7334 13.663C21.7351 13.6665 21.7374 13.671 21.7403 13.6765C21.7459 13.6875 21.7539 13.7022 21.7645 13.7201C21.7855 13.7559 21.8167 13.8045 21.8598 13.8605C21.9458 13.9724 22.0796 14.115 22.274 14.2439C22.6684 14.5053 23.2888 14.695 24.2121 14.4985L24.1704 14.3029L24.1288 14.1073C23.3015 14.2834 22.7924 14.1076 22.4951 13.9105C22.3436 13.8101 22.241 13.7001 22.177 13.6168C22.145 13.5752 22.1229 13.5404 22.1093 13.5173C22.1025 13.5058 22.0979 13.4972 22.0952 13.4922C22.0939 13.4896 22.0931 13.488 22.0928 13.4874C22.0926 13.487 22.0926 13.4869 22.0927 13.4871C22.0927 13.4872 22.0928 13.4873 22.0929 13.4875C22.0929 13.4876 22.093 13.4878 22.0931 13.4879C22.0931 13.488 22.0931 13.4881 22.0932 13.4881C22.0932 13.4882 22.0933 13.4884 21.9116 13.572ZM24.1704 14.3029L24.0122 14.4252C24.2121 14.684 24.4886 14.8719 24.8017 14.9611L24.8564 14.7687L24.9112 14.5763C24.681 14.5108 24.4769 14.3724 24.3287 14.1806L24.1704 14.3029ZM24.8564 14.7687L24.8017 14.9611C25.1148 15.0502 25.4478 15.0357 25.7522 14.9197L25.681 14.7328L25.6098 14.5459C25.386 14.6312 25.1413 14.6418 24.9112 14.5763L24.8564 14.7687ZM25.681 14.7328C25.7816 14.9056 25.7817 14.9056 25.7818 14.9056C25.7818 14.9055 25.7819 14.9055 25.782 14.9054C25.7821 14.9054 25.7823 14.9053 25.7824 14.9052C25.7827 14.905 25.7831 14.9048 25.7836 14.9045C25.7844 14.904 25.7856 14.9033 25.7869 14.9025C25.7895 14.9009 25.7931 14.8988 25.7974 14.8961C25.8061 14.8907 25.818 14.8831 25.8323 14.8734C25.8609 14.8541 25.8999 14.8261 25.9432 14.7904C26.0276 14.7209 26.1385 14.6137 26.2156 14.4756C26.2948 14.3338 26.343 14.149 26.276 13.9449C26.2109 13.7467 26.0487 13.5665 25.7872 13.4026L25.681 13.572L25.5748 13.7415C25.7933 13.8785 25.8711 13.9939 25.896 14.0697C25.919 14.1397 25.9072 14.2074 25.8664 14.2806C25.8235 14.3575 25.7544 14.4276 25.6888 14.4817C25.6571 14.5078 25.6286 14.5282 25.6085 14.5419C25.5984 14.5486 25.5906 14.5536 25.5857 14.5567C25.5832 14.5582 25.5815 14.5593 25.5806 14.5598C25.5801 14.5601 25.5799 14.5603 25.5798 14.5603C25.5798 14.5603 25.5799 14.5603 25.5799 14.5602C25.58 14.5602 25.58 14.5602 25.5801 14.5601C25.5802 14.5601 25.5802 14.5601 25.5802 14.56C25.5803 14.56 25.5804 14.56 25.681 14.7328ZM25.681 13.572L25.8032 13.4137L24.7444 12.5968L24.6222 12.7552L24.5 12.9136L25.5588 13.7304L25.681 13.572ZM24.6222 12.7552L24.8107 12.6884C24.6366 12.1973 24.2802 11.7937 23.8164 11.5642L23.7277 11.7435L23.6391 11.9228C24.0085 12.1055 24.2939 12.4279 24.4337 12.822L24.6222 12.7552ZM23.7277 11.7435L23.8164 11.5642C23.3525 11.3348 22.8185 11.298 22.3281 11.4621L22.3916 11.6518L22.4551 11.8414C22.845 11.7109 23.2697 11.7401 23.6391 11.9228L23.7277 11.7435ZM22.3916 11.6518L22.5093 11.49C21.9771 11.1028 21.3831 10.8113 20.7532 10.6285L20.6975 10.8206L20.6417 11.0127C21.2269 11.1825 21.779 11.4534 22.2739 11.8135L22.3916 11.6518ZM20.6975 10.8206V10.6206C20.5709 10.6206 20.407 10.6501 20.3089 10.7889C20.2108 10.9279 20.233 11.0992 20.2848 11.2456C20.3901 11.543 20.6996 11.9746 21.2567 12.5759L21.4034 12.4399L21.5501 12.304C20.9919 11.7015 20.7367 11.3235 20.6619 11.1121C20.6237 11.0041 20.6522 10.9963 20.6356 11.0197C20.6192 11.043 20.6123 11.0206 20.6975 11.0206V10.8206ZM21.4034 12.4399L21.3131 12.2615C20.012 12.9199 18.9801 14.02 18.3963 15.3699L18.5799 15.4493L18.7634 15.5287C19.3105 14.2637 20.2769 13.2341 21.4937 12.6184L21.4034 12.4399ZM18.5799 15.4493L18.3959 15.3709C18.1697 15.9013 17.8388 16.3787 17.424 16.774L17.562 16.9188L17.6999 17.0636C18.1544 16.6306 18.5164 16.1079 18.7638 15.5278L18.5799 15.4493ZM17.562 16.9188L17.424 16.774C17.0092 17.1692 16.5192 17.4737 15.9842 17.669L16.0528 17.8568L16.1214 18.0447C16.7083 17.8305 17.2455 17.4965 17.6999 17.0636L17.562 16.9188ZM16.0528 17.8568L15.9838 17.6691L14.0355 18.3857L14.1046 18.5734L14.1736 18.7611L16.1218 18.0446L16.0528 17.8568ZM21.8128 11.3221C22.003 11.2603 22.003 11.2603 22.003 11.2603C22.003 11.2603 22.003 11.2603 22.003 11.2603C22.003 11.2603 22.003 11.2602 22.0029 11.2601C22.0029 11.26 22.0028 11.2598 22.0027 11.2595C22.0025 11.2589 22.0022 11.2579 22.0018 11.2566C22.001 11.254 21.9997 11.2502 21.9981 11.2451C21.9948 11.2349 21.9901 11.2199 21.984 11.2007C21.972 11.1624 21.955 11.1076 21.9353 11.0421C21.8959 10.9107 21.8461 10.7376 21.8039 10.5681C21.761 10.3955 21.7288 10.2379 21.7203 10.1331C21.7155 10.0743 21.721 10.0607 21.7176 10.071C21.7154 10.0777 21.7009 10.1191 21.6516 10.1482C21.5951 10.1816 21.5415 10.1713 21.5195 10.1634L21.5869 9.97508L21.6544 9.7868C21.6023 9.76815 21.5242 9.7589 21.4482 9.80384C21.3793 9.84451 21.3503 9.90785 21.3378 9.94552C21.3139 10.0178 21.3165 10.102 21.3216 10.1655C21.333 10.3052 21.3722 10.4897 21.4158 10.6647C21.4601 10.8427 21.5118 11.0225 21.5522 11.1571C21.5724 11.2245 21.59 11.281 21.6025 11.3207C21.6087 11.3406 21.6137 11.3563 21.6171 11.3671C21.6189 11.3724 21.6202 11.3766 21.6211 11.3795C21.6216 11.3809 21.6219 11.382 21.6222 11.3827C21.6223 11.3831 21.6224 11.3834 21.6225 11.3836C21.6225 11.3837 21.6225 11.3838 21.6226 11.3839C21.6226 11.3839 21.6226 11.3839 21.6226 11.3839C21.6226 11.384 21.6226 11.384 21.8128 11.3221ZM21.5869 9.97508L21.5153 10.1618C22.1522 10.4062 22.6778 10.8822 22.9896 11.4984L23.1681 11.4081L23.3465 11.3178C22.9904 10.614 22.3891 10.0687 21.6586 9.78836L21.5869 9.97508ZM22.4198 14.1882C22.2319 14.1198 22.2319 14.1198 22.2319 14.1198C22.2318 14.1199 22.2318 14.1199 22.2318 14.12C22.2317 14.1201 22.2317 14.1204 22.2316 14.1207C22.2313 14.1213 22.231 14.1222 22.2305 14.1235C22.2296 14.126 22.2282 14.1298 22.2264 14.1349C22.2227 14.145 22.2171 14.16 22.2098 14.1797C22.1953 14.2192 22.1737 14.2773 22.1457 14.3518C22.0899 14.5007 22.0085 14.7149 21.907 14.9757C21.7038 15.4974 21.4198 16.2047 21.0964 16.9476C20.7728 17.6912 20.411 18.4677 20.0522 19.1289C19.6897 19.7971 19.3424 20.3243 19.052 20.5896L19.1869 20.7373L19.3218 20.8849C19.6667 20.5698 20.0411 19.9882 20.4038 19.3197C20.7704 18.6441 21.1374 17.8559 21.4632 17.1073C21.7892 16.3581 22.0752 15.6457 22.2797 15.1209C22.3819 14.8584 22.4639 14.6426 22.5202 14.4923C22.5484 14.4172 22.5703 14.3584 22.5851 14.3183C22.5925 14.2983 22.5981 14.283 22.6019 14.2726C22.6038 14.2674 22.6052 14.2635 22.6062 14.2608C22.6067 14.2595 22.6071 14.2584 22.6073 14.2578C22.6075 14.2574 22.6075 14.2572 22.6076 14.257C22.6076 14.2569 22.6077 14.2568 22.6077 14.2568C22.6077 14.2567 22.6077 14.2567 22.4198 14.1882ZM19.1869 20.7373L18.9869 20.7415C19.0115 21.9063 18.6878 23.0511 18.0589 24.0251L18.2269 24.1336L18.3949 24.2421C19.0674 23.2007 19.4131 21.9773 19.3868 20.733L19.1869 20.7373ZM18.2269 24.1336C18.0282 24.1106 18.0282 24.1106 18.0282 24.1107C18.0282 24.1107 18.0282 24.1108 18.0282 24.1109C18.0281 24.1111 18.0281 24.1113 18.0281 24.1117C18.028 24.1124 18.0279 24.1135 18.0277 24.1149C18.0274 24.1177 18.0269 24.1219 18.0263 24.1274C18.025 24.1384 18.0232 24.1546 18.0208 24.1759C18.016 24.2183 18.0091 24.2806 18.0005 24.3602C17.9832 24.5193 17.9592 24.7474 17.9319 25.0241C17.8773 25.5774 17.8096 26.3252 17.7573 27.1027C17.7051 27.8794 17.6681 28.6892 17.6755 29.3652C17.6792 29.703 17.6939 30.0112 17.7243 30.267C17.7538 30.5158 17.8004 30.7394 17.8808 30.891L18.0575 30.7972L18.2341 30.7035C18.191 30.6222 18.1503 30.4629 18.1215 30.2199C18.0935 29.984 18.0791 29.6915 18.0755 29.3609C18.0683 28.7001 18.1045 27.9023 18.1564 27.1295C18.2083 26.3575 18.2756 25.6141 18.3299 25.0634C18.3571 24.7882 18.381 24.5613 18.3982 24.4032C18.4067 24.3242 18.4136 24.2625 18.4183 24.2205C18.4206 24.1995 18.4225 24.1835 18.4237 24.1727C18.4243 24.1673 18.4248 24.1633 18.4251 24.1606C18.4252 24.1592 18.4254 24.1582 18.4254 24.1575C18.4255 24.1572 18.4255 24.157 18.4255 24.1568C18.4255 24.1567 18.4255 24.1567 18.4255 24.1566C18.4255 24.1566 18.4255 24.1566 18.2269 24.1336ZM18.0575 30.7972V30.5972H16.6457V30.7972V30.9972H18.0575V30.7972ZM16.6457 30.7972L16.8457 30.7933L16.7186 24.3589L16.5186 24.3629L16.3187 24.3668L16.4457 30.8012L16.6457 30.7972ZM16.5186 24.3629C16.7173 24.3398 16.7173 24.3398 16.7173 24.3397C16.7173 24.3397 16.7173 24.3396 16.7173 24.3395C16.7173 24.3394 16.7172 24.3393 16.7172 24.3392C16.7172 24.3389 16.7172 24.3386 16.7171 24.3383C16.717 24.3376 16.7169 24.3367 16.7168 24.3356C16.7165 24.3335 16.7162 24.3307 16.7157 24.3272C16.7147 24.3203 16.7133 24.3108 16.7114 24.2991C16.7076 24.2756 16.7016 24.2429 16.6927 24.204C16.6751 24.127 16.6455 24.0216 16.5969 23.9136C16.5042 23.7073 16.3107 23.4283 15.9456 23.4178L15.9398 23.6177L15.934 23.8176C16.0631 23.8213 16.159 23.9149 16.2321 24.0776C16.2665 24.1541 16.2889 24.2324 16.3027 24.2929C16.3095 24.3227 16.314 24.3472 16.3167 24.3638C16.318 24.372 16.3189 24.3782 16.3195 24.3821C16.3197 24.384 16.3199 24.3853 16.32 24.3859C16.32 24.3862 16.32 24.3864 16.32 24.3864C16.32 24.3864 16.32 24.3864 16.32 24.3863C16.32 24.3862 16.32 24.3862 16.32 24.3861C16.32 24.3861 16.32 24.386 16.32 24.386C16.32 24.3859 16.32 24.3859 16.5186 24.3629ZM15.9398 23.6177L15.8183 23.4588C15.5863 23.6363 15.3195 23.7606 15.0361 23.8236L15.0795 24.0188L15.1229 24.214C15.4633 24.1385 15.7834 23.9892 16.0613 23.7765L15.9398 23.6177ZM15.0795 24.0188L15.0361 23.8236C14.7528 23.8865 14.4594 23.8865 14.1761 23.8237L14.1328 24.0189L14.0895 24.2142C14.4299 24.2897 14.7824 24.2896 15.1229 24.214L15.0795 24.0188ZM14.1328 24.0189V23.8189H13.8786V24.0189V24.2189H14.1328V24.0189ZM13.8786 24.0189H14.0786V22.0413H13.8786H13.6786V24.0189H13.8786ZM13.8786 22.0413C13.8909 22.241 13.8908 22.241 13.8908 22.241C13.8908 22.241 13.8908 22.241 13.8908 22.241C13.8907 22.241 13.8908 22.241 13.8908 22.241C13.8909 22.2409 13.8911 22.2409 13.8915 22.2409C13.8922 22.2409 13.8934 22.2408 13.8951 22.2407C13.8984 22.2405 13.9036 22.2403 13.9107 22.24C13.9247 22.2394 13.9458 22.2387 13.9729 22.2381C14.0272 22.237 14.1053 22.2368 14.1991 22.2401C14.3879 22.2468 14.6348 22.2678 14.8764 22.3239C15.1209 22.3807 15.3418 22.4692 15.4942 22.5988C15.6378 22.7208 15.7256 22.8822 15.7119 23.1189L15.9116 23.1304L16.1112 23.142C16.1328 22.7696 15.9842 22.4903 15.7533 22.294C15.5311 22.1051 15.2393 21.9975 14.9668 21.9343C14.6914 21.8703 14.4168 21.8475 14.2133 21.8403C14.111 21.8367 14.0254 21.837 13.9649 21.8382C13.9346 21.8388 13.9106 21.8396 13.8938 21.8404C13.8855 21.8407 13.8789 21.841 13.8743 21.8413C13.872 21.8414 13.8702 21.8415 13.8688 21.8416C13.8682 21.8416 13.8676 21.8416 13.8672 21.8416C13.867 21.8417 13.8669 21.8417 13.8667 21.8417C13.8667 21.8417 13.8666 21.8417 13.8665 21.8417C13.8665 21.8417 13.8664 21.8417 13.8786 22.0413ZM15.9116 23.1304L15.7116 23.127C15.7088 23.2865 15.6507 23.4395 15.5481 23.5591L15.6998 23.6893L15.8516 23.8196C16.0153 23.6288 16.1072 23.386 16.1116 23.1339L15.9116 23.1304ZM19.6386 19.9634L19.8088 19.8584C19.7162 19.7084 19.5874 19.5843 19.4341 19.4982L19.3361 19.6726L19.2381 19.8469C19.3318 19.8996 19.4111 19.9757 19.4684 20.0685L19.6386 19.9634ZM19.3361 19.6726L19.4341 19.4982C19.2808 19.4121 19.1083 19.3668 18.9327 19.3668V19.5668V19.7668C19.0394 19.7668 19.1445 19.7943 19.2381 19.8469L19.3361 19.6726ZM18.9327 19.5668V19.3668C18.7571 19.3668 18.5846 19.4121 18.4313 19.4982L18.5293 19.6726L18.6273 19.8469C18.7209 19.7943 18.826 19.7668 18.9327 19.7668V19.5668ZM18.5293 19.6726L18.4313 19.4982C18.2781 19.5843 18.1492 19.7083 18.0566 19.8584L18.2268 19.9634L18.397 20.0685C18.4543 19.9757 18.5336 19.8996 18.6273 19.8469L18.5293 19.6726ZM18.2268 19.9634L18.0914 19.8163C17.8099 20.0755 17.4499 20.2286 17.0715 20.251L17.0833 20.4507L17.0951 20.6503C17.5663 20.6224 18.0134 20.4317 18.3623 20.1106L18.2268 19.9634ZM17.0833 20.4507C16.8871 20.412 16.8871 20.4121 16.887 20.4123C16.887 20.4123 16.887 20.4125 16.887 20.4126C16.8869 20.4128 16.8869 20.413 16.8868 20.4133C16.8867 20.4138 16.8866 20.4144 16.8865 20.4151C16.8862 20.4166 16.8859 20.4184 16.8855 20.4206C16.8847 20.425 16.8837 20.4308 16.8826 20.4381C16.8804 20.4527 16.8776 20.4729 16.8751 20.4981C16.8699 20.5482 16.8654 20.6184 16.8673 20.7023C16.871 20.869 16.9001 21.0964 17.0052 21.3285C17.1116 21.5633 17.2938 21.7984 17.5947 21.9769C17.8937 22.1542 18.2988 22.2692 18.8425 22.2843L18.848 22.0843L18.8535 21.8844C18.3596 21.8708 18.0253 21.7672 17.7988 21.6329C17.5742 21.4997 17.445 21.33 17.3696 21.1635C17.293 20.9944 17.2701 20.824 17.2672 20.6934C17.2657 20.6286 17.2692 20.5752 17.273 20.5389C17.2748 20.5209 17.2767 20.5072 17.278 20.4986C17.2787 20.4943 17.2792 20.4914 17.2795 20.4898C17.2796 20.489 17.2797 20.4886 17.2797 20.4885C17.2797 20.4884 17.2797 20.4885 17.2797 20.4886C17.2797 20.4887 17.2796 20.4888 17.2796 20.4889C17.2796 20.489 17.2796 20.4891 17.2796 20.4891C17.2796 20.4892 17.2795 20.4893 17.0833 20.4507ZM15.135 18.1864C14.9622 18.2872 14.9622 18.2872 14.9622 18.2871C14.9622 18.2871 14.9622 18.2871 14.9622 18.2871C14.9622 18.2871 14.9622 18.2871 14.9622 18.2871C14.9623 18.2872 14.9624 18.2874 14.9625 18.2877C14.9629 18.2883 14.9634 18.2893 14.9643 18.2907C14.9659 18.2935 14.9684 18.298 14.9717 18.304C14.9784 18.316 14.9884 18.3342 15.0008 18.3578C15.0257 18.405 15.0605 18.4736 15.0989 18.5577C15.1763 18.727 15.2665 18.9545 15.3233 19.1945C15.3808 19.437 15.4 19.6753 15.3516 19.8743C15.3057 20.0635 15.1983 20.2229 14.9786 20.3274L15.0644 20.508L15.1503 20.6886C15.4882 20.528 15.6685 20.2646 15.7403 19.9688C15.8098 19.6828 15.7769 19.3739 15.7126 19.1023C15.6476 18.8281 15.5464 18.5747 15.4627 18.3915C15.4207 18.2994 15.3825 18.224 15.3546 18.1711C15.3407 18.1447 15.3293 18.1239 15.3212 18.1094C15.3172 18.1021 15.314 18.0965 15.3117 18.0925C15.3106 18.0905 15.3097 18.0889 15.309 18.0878C15.3087 18.0872 15.3084 18.0868 15.3082 18.0864C15.3081 18.0862 15.308 18.0861 15.3079 18.086C15.3079 18.0859 15.3079 18.0858 15.3079 18.0858C15.3078 18.0857 15.3078 18.0857 15.135 18.1864ZM15.0644 20.508C14.9523 20.3423 14.9525 20.3423 14.9526 20.3422C14.9527 20.3421 14.9528 20.342 14.9529 20.342C14.9531 20.3419 14.9532 20.3417 14.9534 20.3416C14.9537 20.3414 14.9541 20.3412 14.9544 20.341C14.955 20.3406 14.9556 20.3402 14.9561 20.3399C14.9571 20.3392 14.9579 20.3388 14.9584 20.3384C14.9595 20.3378 14.9597 20.3377 14.9588 20.3382C14.9572 20.339 14.9515 20.3419 14.9414 20.3459C14.9214 20.3537 14.8832 20.3659 14.824 20.3745C14.7057 20.3917 14.4994 20.3947 14.1819 20.3141L14.1327 20.508L14.0835 20.7018C14.4436 20.7932 14.7032 20.7962 14.8814 20.7704C14.9703 20.7575 15.0381 20.7375 15.0869 20.7185C15.1112 20.709 15.1307 20.6998 15.1455 20.6919C15.153 20.688 15.1593 20.6844 15.1644 20.6813C15.167 20.6798 15.1693 20.6783 15.1713 20.677C15.1723 20.6764 15.1732 20.6758 15.1741 20.6752C15.1745 20.6749 15.175 20.6747 15.1754 20.6744C15.1756 20.6743 15.1758 20.6741 15.176 20.674C15.1761 20.6739 15.1762 20.6738 15.1762 20.6738C15.1764 20.6737 15.1765 20.6736 15.0644 20.508ZM17.3374 17.1547L17.1386 17.177C17.1542 17.3153 17.2033 17.4479 17.2819 17.5627L17.4469 17.4497L17.6119 17.3367C17.5705 17.2762 17.5444 17.206 17.5361 17.1324L17.3374 17.1547ZM17.4469 17.4497L17.2819 17.5627C17.3605 17.6774 17.4661 17.771 17.5895 17.8345L17.6811 17.6567L17.7727 17.4789C17.7086 17.4459 17.6533 17.3972 17.6119 17.3367L17.4469 17.4497ZM17.6811 17.6567L17.5895 17.8345C17.713 17.8981 17.8502 17.9297 17.989 17.9263L17.984 17.7264L17.9791 17.5264C17.9076 17.5282 17.8367 17.5119 17.7727 17.4789L17.6811 17.6567ZM17.984 17.7264L17.989 17.9263C18.1277 17.9229 18.2632 17.8846 18.3835 17.815L18.2833 17.6419L18.1831 17.4688C18.1207 17.5049 18.0506 17.5247 17.9791 17.5264L17.984 17.7264ZM18.2833 17.6419L18.3785 17.8178L19.4373 17.2446L19.3421 17.0687L19.2469 16.8928L18.1881 17.466L18.2833 17.6419ZM19.3421 17.0687L19.4518 17.2359C19.525 17.1878 19.5878 17.1255 19.6366 17.0527L19.4704 16.9414L19.3043 16.8301C19.2851 16.8587 19.2606 16.8829 19.2324 16.9015L19.3421 17.0687ZM19.4704 16.9414L19.6366 17.0527C19.6853 16.9799 19.7191 16.8981 19.7361 16.8121L19.5398 16.7735L19.3436 16.7348C19.3369 16.7691 19.3234 16.8015 19.3043 16.8301L19.4704 16.9414ZM19.5398 16.7735L19.7361 16.8121C19.753 16.7262 19.7528 16.6376 19.7354 16.5517L19.5394 16.5914L19.3434 16.631C19.3503 16.6652 19.3504 16.7006 19.3436 16.7348L19.5398 16.7735ZM19.5394 16.5914L19.7354 16.5517C19.7181 16.4659 19.6839 16.3842 19.6348 16.3117L19.4691 16.4238L19.3035 16.5359C19.3228 16.5645 19.3364 16.5968 19.3434 16.631L19.5394 16.5914ZM19.4691 16.4238L19.6328 16.3089L18.8281 15.1625L18.6644 15.2774L18.5007 15.3923L19.3054 16.5387L19.4691 16.4238ZM21.9116 15.0624C22.0701 14.9404 22.07 14.9403 22.07 14.9402C22.0699 14.9402 22.0699 14.9401 22.0698 14.9401C22.0698 14.9399 22.0697 14.9398 22.0695 14.9397C22.0693 14.9394 22.0691 14.9391 22.0688 14.9387C22.0682 14.938 22.0675 14.9371 22.0666 14.936C22.0649 14.9338 22.0625 14.9308 22.0596 14.9273C22.0538 14.9201 22.0457 14.9104 22.0355 14.8988C22.0151 14.8755 21.9861 14.8441 21.9501 14.8099C21.881 14.7443 21.7737 14.6565 21.6443 14.6069C21.5082 14.5548 21.332 14.541 21.1661 14.6564C21.0133 14.7626 20.9052 14.9549 20.8297 15.2232L21.0222 15.2774L21.2147 15.3315C21.2804 15.0982 21.354 15.0129 21.3945 14.9848C21.4218 14.9658 21.4504 14.961 21.5013 14.9805C21.5589 15.0026 21.6211 15.0491 21.6747 15.1C21.7 15.124 21.7205 15.1462 21.7345 15.1622C21.7414 15.1702 21.7466 15.1764 21.7498 15.1803C21.7514 15.1823 21.7525 15.1836 21.7531 15.1844C21.7534 15.1847 21.7535 15.1849 21.7535 15.1849C21.7536 15.1849 21.7535 15.1849 21.7535 15.1848C21.7534 15.1848 21.7534 15.1847 21.7533 15.1847C21.7533 15.1846 21.7533 15.1846 21.7533 15.1846C21.7532 15.1845 21.7532 15.1844 21.9116 15.0624ZM21.0222 15.2774C20.8516 15.1729 20.8517 15.1729 20.8517 15.1728C20.8517 15.1728 20.8517 15.1728 20.8517 15.1727C20.8518 15.1727 20.8518 15.1727 20.8518 15.1726C20.8519 15.1726 20.8519 15.1725 20.8519 15.1725C20.8519 15.1725 20.8518 15.1727 20.8516 15.1729C20.8513 15.1734 20.8508 15.1743 20.8499 15.1757C20.8481 15.1785 20.8451 15.1831 20.8411 15.1891C20.833 15.2012 20.8206 15.2192 20.8044 15.2411C20.7716 15.2853 20.7246 15.3436 20.6671 15.4012C20.5441 15.5244 20.4099 15.6076 20.2881 15.6076V15.8076V16.0076C20.5757 16.0076 20.8086 15.8256 20.9502 15.6838C21.0251 15.6088 21.0848 15.5345 21.1258 15.4793C21.1464 15.4515 21.1625 15.4281 21.1738 15.4112C21.1794 15.4027 21.1839 15.3959 21.1871 15.3909C21.1886 15.3884 21.1899 15.3864 21.1909 15.3849C21.1913 15.3841 21.1917 15.3835 21.1921 15.3829C21.1922 15.3827 21.1924 15.3825 21.1925 15.3823C21.1925 15.3822 21.1926 15.3821 21.1926 15.382C21.1927 15.382 21.1927 15.3819 21.1927 15.3819C21.1927 15.3819 21.1928 15.3818 21.0222 15.2774ZM20.2881 15.8076C20.0896 15.8325 20.0897 15.8326 20.0897 15.8327C20.0897 15.8328 20.0897 15.8329 20.0897 15.833C20.0897 15.8332 20.0898 15.8334 20.0898 15.8336C20.0899 15.8341 20.0899 15.8346 20.09 15.8351C20.0901 15.8362 20.0903 15.8375 20.0905 15.8389C20.091 15.8419 20.0915 15.8455 20.0923 15.8499C20.0938 15.8588 20.096 15.8704 20.0991 15.8846C20.1054 15.9129 20.1154 15.9514 20.1311 15.9968C20.1625 16.0872 20.2175 16.2073 20.3124 16.3285C20.5078 16.5782 20.854 16.8085 21.4403 16.8243L21.4457 16.6244L21.4511 16.4245C20.9786 16.4117 20.746 16.2336 20.6273 16.082C20.5652 16.0026 20.5292 15.9238 20.509 15.8656C20.499 15.8366 20.493 15.8133 20.4897 15.7984C20.4881 15.791 20.4871 15.7857 20.4866 15.7829C20.4864 15.7816 20.4863 15.7808 20.4863 15.7808C20.4863 15.7807 20.4863 15.7809 20.4863 15.7812C20.4864 15.7814 20.4864 15.7816 20.4864 15.7818C20.4864 15.7819 20.4865 15.7821 20.4865 15.7822C20.4865 15.7823 20.4865 15.7824 20.4865 15.7825C20.4865 15.7826 20.4865 15.7827 20.2881 15.8076ZM10.1516 20.0637L10.1163 19.8669C9.28245 20.0168 8.53722 20.484 8.0323 21.1721L8.19355 21.2904L8.35479 21.4087C8.79967 20.8024 9.4552 20.3921 10.187 20.2606L10.1516 20.0637ZM8.19355 21.2904L8.0323 21.1721C7.52744 21.8601 7.30066 22.7173 7.39765 23.5687L7.59636 23.546L7.79508 23.5234C7.70942 22.7715 7.90985 22.0151 8.35479 21.4087L8.19355 21.2904ZM7.59636 23.546C7.44521 23.677 7.44511 23.6769 7.44501 23.6768C7.44499 23.6767 7.4449 23.6766 7.44484 23.6766C7.44473 23.6764 7.44464 23.6763 7.44457 23.6763C7.44441 23.6761 7.44432 23.676 7.44429 23.6759C7.44423 23.6759 7.4444 23.6761 7.44481 23.6766C7.44562 23.6775 7.44733 23.6796 7.44987 23.6829C7.45494 23.6894 7.46329 23.7005 7.47417 23.7162C7.49594 23.7477 7.52786 23.7977 7.56409 23.8669C7.63648 24.0052 7.7264 24.2208 7.78681 24.519C7.90728 25.1136 7.9129 26.0497 7.40944 27.3728L7.59636 27.4439L7.78329 27.515C8.31041 26.1297 8.31604 25.1168 8.17885 24.4396C8.11044 24.1019 8.00713 23.8508 7.91849 23.6815C7.8742 23.5968 7.83366 23.5328 7.8031 23.4886C7.78781 23.4665 7.77502 23.4494 7.7655 23.4372C7.76074 23.4311 7.7568 23.4262 7.75377 23.4225C7.75225 23.4207 7.75097 23.4191 7.74992 23.4179C7.7494 23.4173 7.74894 23.4167 7.74853 23.4162C7.74833 23.416 7.74815 23.4158 7.74798 23.4156C7.74789 23.4155 7.74778 23.4154 7.74774 23.4153C7.74763 23.4152 7.74752 23.4151 7.59636 23.546ZM7.59636 27.4439L7.3972 27.4257C7.29662 28.5238 7.44037 29.6309 7.8179 30.6652L8.00577 30.5966L8.19365 30.528C7.83641 29.5493 7.70033 28.5016 7.79553 27.4622L7.59636 27.4439ZM9.17754 30.396L9.37508 30.3647C9.21983 29.3839 9.21983 28.3843 9.37508 27.4035L9.17754 27.3723L8.97999 27.341C8.81819 28.3632 8.81819 29.405 8.97999 30.4273L9.17754 30.396ZM9.17754 27.3723C9.323 27.5095 9.32303 27.5095 9.32306 27.5094C9.32308 27.5094 9.32312 27.5094 9.32317 27.5093C9.32325 27.5093 9.32336 27.5091 9.3235 27.509C9.32378 27.5087 9.32418 27.5083 9.32469 27.5077C9.32571 27.5066 9.32719 27.5051 9.32911 27.503C9.33294 27.4989 9.33854 27.4929 9.34579 27.4851C9.36028 27.4694 9.38137 27.4465 9.4081 27.4171C9.46157 27.3583 9.5377 27.2732 9.62898 27.1677C9.81137 26.957 10.0552 26.6637 10.2998 26.3343C10.544 26.0057 10.792 25.6372 10.9807 25.2764C11.1667 24.9209 11.3075 24.5498 11.3116 24.2221L11.1116 24.2196L10.9117 24.217C10.9087 24.4482 10.8043 24.7506 10.6263 25.091C10.451 25.4262 10.2164 25.776 9.97875 26.0958C9.74167 26.4149 9.50458 26.7002 9.32653 26.906C9.23759 27.0087 9.16361 27.0914 9.11202 27.1482C9.08623 27.1765 9.06605 27.1985 9.05241 27.2132C9.04559 27.2205 9.04041 27.2261 9.03698 27.2298C9.03526 27.2316 9.03399 27.233 9.03316 27.2338C9.03275 27.2343 9.03245 27.2346 9.03227 27.2348C9.03218 27.2349 9.03211 27.2349 9.03208 27.235C9.03206 27.235 9.03206 27.235 9.03205 27.235C9.03205 27.235 9.03207 27.235 9.17754 27.3723ZM8.01981 22.0843C8.01981 22.2843 8.01968 22.2843 8.01956 22.2843C8.01952 22.2843 8.0194 22.2843 8.01932 22.2843C8.01917 22.2843 8.01903 22.2843 8.0189 22.2843C8.01865 22.2843 8.01844 22.2843 8.01827 22.2843C8.01793 22.2843 8.01777 22.2843 8.01777 22.2843C8.01778 22.2843 8.01847 22.2843 8.01978 22.2844C8.02242 22.2845 8.02757 22.2848 8.03489 22.2855C8.04959 22.2869 8.07278 22.2898 8.10198 22.296C8.16067 22.3086 8.24142 22.3339 8.32644 22.3849C8.48892 22.4822 8.6927 22.6879 8.76833 23.1485L8.96569 23.1161L9.16305 23.0837C9.06926 22.5126 8.8001 22.2023 8.532 22.0417C8.40172 21.9637 8.27777 21.9246 8.18557 21.9049C8.13934 21.895 8.10054 21.8899 8.07211 21.8872C8.05788 21.8859 8.04617 21.8852 8.03736 21.8848C8.03294 21.8846 8.02925 21.8845 8.02631 21.8844C8.02484 21.8844 8.02356 21.8844 8.02248 21.8843C8.02193 21.8843 8.02144 21.8843 8.021 21.8843C8.02077 21.8843 8.02056 21.8843 8.02036 21.8843C8.02027 21.8843 8.02013 21.8843 8.02008 21.8843C8.01994 21.8843 8.01981 21.8843 8.01981 22.0843ZM8.96569 23.1161C8.8859 23.2995 8.88585 23.2995 8.8858 23.2995C8.88579 23.2995 8.88574 23.2994 8.88571 23.2994C8.88565 23.2994 8.88561 23.2994 8.88557 23.2994C8.88549 23.2993 8.88545 23.2993 8.88544 23.2993C8.88542 23.2993 8.88554 23.2994 8.88579 23.2995C8.88629 23.2997 8.88732 23.3002 8.88883 23.3009C8.89186 23.3022 8.89682 23.3046 8.90343 23.3078C8.91668 23.3142 8.93634 23.3242 8.96015 23.3375C9.00832 23.3644 9.07067 23.4033 9.13055 23.4521C9.26074 23.5582 9.32775 23.6669 9.3173 23.7694L9.51627 23.7897L9.71524 23.8099C9.74715 23.4968 9.53886 23.2688 9.38317 23.142C9.30011 23.0743 9.21687 23.0228 9.15519 22.9883C9.12408 22.9709 9.09775 22.9575 9.07874 22.9482C9.06921 22.9436 9.06148 22.94 9.05584 22.9374C9.05302 22.9361 9.05072 22.9351 9.04898 22.9343C9.04811 22.9339 9.04738 22.9336 9.04679 22.9333C9.0465 22.9332 9.04624 22.9331 9.04602 22.933C9.04591 22.9329 9.04581 22.9329 9.04572 22.9328C9.04567 22.9328 9.04561 22.9328 9.04559 22.9328C9.04553 22.9328 9.04547 22.9327 8.96569 23.1161ZM9.51627 23.7897L9.33311 23.7093C9.22581 23.954 9.05278 24.1625 8.83435 24.311L8.94682 24.4764L9.05929 24.6418C9.34042 24.4506 9.56219 24.1829 9.69944 23.87L9.51627 23.7897ZM8.94682 24.4764L8.83435 24.311C8.61594 24.4596 8.36093 24.5423 8.0987 24.5499L8.10451 24.7498L8.11032 24.9497C8.44917 24.9399 8.77814 24.833 9.05929 24.6418L8.94682 24.4764ZM9.38917 20.4507L9.19058 20.4743C9.21128 20.6481 9.27153 20.8148 9.36677 20.9612L9.53442 20.8521L9.70207 20.7431C9.64044 20.6483 9.60124 20.5401 9.58777 20.427L9.38917 20.4507ZM9.53442 20.8521L9.36677 20.9612C9.46202 21.1076 9.58971 21.2298 9.73993 21.3179L9.84111 21.1454L9.94229 20.9729C9.846 20.9164 9.7637 20.8378 9.70207 20.7431L9.53442 20.8521ZM9.84111 21.1454L9.73993 21.3179C9.89016 21.406 10.0587 21.4575 10.2323 21.4682L10.2446 21.2686L10.2569 21.069C10.1463 21.0622 10.0386 21.0293 9.94229 20.9729L9.84111 21.1454ZM10.2446 21.2686L10.2323 21.4682C10.4058 21.4789 10.5794 21.4485 10.7391 21.3794L10.6598 21.1958L10.5804 21.0123C10.4782 21.0564 10.3675 21.0758 10.2569 21.069L10.2446 21.2686ZM15.0928 30.7972C15.0959 30.9972 15.096 30.9972 15.0961 30.9972C15.0962 30.9972 15.0964 30.9972 15.0967 30.9972C15.0972 30.9972 15.0979 30.9972 15.0989 30.9972C15.1009 30.9971 15.1039 30.9971 15.1078 30.997C15.1158 30.9969 15.1276 30.9967 15.1432 30.9965C15.1745 30.996 15.2209 30.9953 15.2816 30.9944C15.403 30.9926 15.5815 30.9899 15.8097 30.9866C16.2663 30.9801 16.922 30.971 17.7188 30.961C19.3123 30.9408 21.4697 30.9166 23.7254 30.9005C28.243 30.8682 33.1371 30.8685 34.6999 30.9966L34.7163 30.7972L34.7326 30.5979C33.1472 30.468 28.2295 30.4683 23.7225 30.5005C21.4659 30.5166 19.3077 30.5408 17.7137 30.561C16.9167 30.5711 16.2607 30.5801 15.804 30.5867C15.5756 30.59 15.3971 30.5926 15.2756 30.5944C15.2148 30.5953 15.1684 30.5961 15.1371 30.5965C15.1214 30.5968 15.1096 30.597 15.1016 30.5971C15.0977 30.5971 15.0947 30.5972 15.0927 30.5972C15.0917 30.5972 15.0909 30.5972 15.0904 30.5973C15.0902 30.5973 15.09 30.5973 15.0899 30.5973C15.0897 30.5973 15.0897 30.5973 15.0928 30.7972ZM34.7163 30.7972L34.7014 30.9967C34.8245 31.0058 34.8177 31.0392 34.8038 31.0118C34.7914 30.9873 34.8169 30.9998 34.7652 31.0883C34.6678 31.2551 34.3999 31.5014 33.9782 31.7368C33.1463 32.2012 31.8186 32.5659 30.4029 32.2083L30.3539 32.4023L30.3049 32.5962C31.8398 32.9838 33.2721 32.589 34.1732 32.0861C34.6179 31.8378 34.9597 31.5485 35.1107 31.2899C35.1832 31.1657 35.2426 30.993 35.1606 30.8311C35.0772 30.6663 34.8974 30.6101 34.7311 30.5978L34.7163 30.7972ZM30.3539 32.4023L30.4031 32.2084C30.2316 32.1649 30.0741 32.1741 29.9277 32.2269C29.7856 32.2781 29.6645 32.3664 29.557 32.4639C29.4501 32.5607 29.3457 32.677 29.2428 32.7907C29.1375 32.9071 29.0299 33.0252 28.9079 33.1393C28.6666 33.3649 28.3725 33.5711 27.9593 33.6823C27.5445 33.7939 26.9936 33.814 26.2338 33.6403L26.1892 33.8353L26.1447 34.0303C26.9519 34.2148 27.571 34.201 28.0632 34.0685C28.5571 33.9356 28.9071 33.6877 29.1811 33.4314C29.3168 33.3046 29.4346 33.1748 29.5393 33.0592C29.6464 32.9408 29.7365 32.841 29.8256 32.7602C29.9139 32.6802 29.9901 32.6296 30.0632 32.6032C30.1321 32.5784 30.208 32.5716 30.3047 32.5961L30.3539 32.4023ZM26.1892 33.8353L26.2282 33.6391C25.9867 33.5912 25.7381 33.5936 25.4976 33.6463L25.5405 33.8417L25.5833 34.037C25.7699 33.9961 25.9628 33.9942 26.1503 34.0315L26.1892 33.8353ZM25.5405 33.8417L25.4976 33.6463C25.2571 33.699 25.0299 33.8009 24.8298 33.9455L24.9469 34.1076L25.064 34.2697C25.2199 34.1571 25.3966 34.078 25.5833 34.037L25.5405 33.8417ZM24.9469 34.1076L24.8276 33.9471C24.0969 34.4901 22.314 35.264 18.6733 34.3012L18.6222 34.4945L18.5711 34.6879C22.2998 35.674 24.2156 34.9002 25.0662 34.2681L24.9469 34.1076ZM18.6222 34.4945L18.6623 34.2986C16.9631 33.9503 15.2006 34.1135 13.5916 34.7678L13.6669 34.9531L13.7423 35.1383C15.2782 34.5137 16.9603 34.3581 18.582 34.6904L18.6222 34.4945ZM13.6669 34.9531L13.6346 34.7557C13.1164 34.8406 12.5859 34.8031 12.0843 34.6459L12.0245 34.8367L11.9647 35.0276C12.5258 35.2034 13.1194 35.2455 13.6993 35.1504L13.6669 34.9531ZM12.0245 34.8367L12.0843 34.6459C11.5827 34.4887 11.1234 34.216 10.7421 33.8489L10.6034 33.9929L10.4647 34.137C10.8903 34.5469 11.4036 34.8517 11.9647 35.0276L12.0245 34.8367ZM10.6034 33.9929L10.7557 33.8633C10.5847 33.6625 10.3713 33.5029 10.1312 33.3964L10.0501 33.5792L9.96907 33.7621C10.154 33.8441 10.3188 33.9672 10.4511 34.1226L10.6034 33.9929ZM10.0501 33.5792L10.1312 33.3964C9.89105 33.2899 9.63032 33.2393 9.36819 33.2485L9.37517 33.4484L9.38215 33.6483C9.5836 33.6412 9.78414 33.6801 9.96907 33.7621L10.0501 33.5792ZM9.37517 33.4484L9.32999 33.2535C8.96475 33.3382 8.58176 33.2905 8.24727 33.1184L8.15577 33.2963L8.06427 33.4741C8.48277 33.6894 8.9626 33.7494 9.42034 33.6432L9.37517 33.4484ZM8.15577 33.2963L8.24727 33.1184C7.91271 32.9463 7.64738 32.6604 7.49801 32.3096L7.314 32.3879L7.12999 32.4663C7.31555 32.9021 7.64585 33.2589 8.06427 33.4741L8.15577 33.2963ZM7.314 32.3879L7.50321 32.3231C7.32859 31.8133 7.23685 31.2779 7.23164 30.738L7.03165 30.7399L6.83165 30.7419C6.83728 31.3245 6.93628 31.9023 7.12479 32.4527L7.314 32.3879ZM7.03165 30.7399L7.21975 30.8079C7.21542 30.8198 7.21024 30.8126 7.24262 30.7972C7.27636 30.7812 7.33177 30.7662 7.4124 30.7574C7.57283 30.7397 7.78472 30.751 8.00499 30.7773C8.22255 30.8033 8.43684 30.8424 8.59759 30.8754C8.67773 30.8918 8.74402 30.9066 8.79009 30.9172C8.81312 30.9225 8.83106 30.9267 8.84313 30.9297C8.84916 30.9311 8.85372 30.9322 8.85671 30.9329C8.8582 30.9333 8.8593 30.9336 8.86 30.9338C8.86034 30.9338 8.86059 30.9339 8.86073 30.9339C8.8608 30.934 8.86085 30.934 8.86087 30.934C8.86088 30.934 8.86087 30.934 8.86088 30.934C8.86087 30.934 8.86085 30.934 8.90929 30.7399C8.95772 30.5459 8.95769 30.5459 8.95765 30.5459C8.95763 30.5459 8.95759 30.5458 8.95755 30.5458C8.95746 30.5458 8.95735 30.5458 8.95721 30.5457C8.95694 30.5457 8.95656 30.5456 8.95608 30.5455C8.95512 30.5452 8.95374 30.5449 8.95197 30.5445C8.94844 30.5436 8.9433 30.5423 8.93668 30.5407C8.92344 30.5376 8.90423 30.533 8.87986 30.5274C8.83113 30.5162 8.76165 30.5007 8.67789 30.4835C8.51086 30.4493 8.28485 30.4079 8.05242 30.3801C7.82269 30.3527 7.57487 30.3371 7.36869 30.3597C7.266 30.371 7.16137 30.393 7.0712 30.4358C6.97967 30.4792 6.88669 30.5525 6.84354 30.672L7.03165 30.7399ZM22.3069 23.0015L22.1098 22.9675L21.9121 24.1139L22.1092 24.1479L22.3063 24.1819L22.504 23.0355L22.3069 23.0015ZM22.1092 24.1479L21.9148 24.101C21.591 25.4425 20.629 26.0547 19.7224 26.3357C19.268 26.4766 18.8325 26.532 18.5095 26.552C18.3484 26.5619 18.2163 26.5629 18.1252 26.5616C18.0797 26.5609 18.0444 26.5596 18.021 26.5585C18.0093 26.5579 18.0005 26.5574 17.9949 26.5571C17.9921 26.5569 17.9901 26.5568 17.9889 26.5567C17.9883 26.5567 17.9879 26.5566 17.9877 26.5566C17.9876 26.5566 17.9875 26.5566 17.9875 26.5566C17.9876 26.5566 17.9876 26.5566 17.9876 26.5566C17.9877 26.5566 17.9877 26.5566 17.9728 26.7561C17.9579 26.9555 17.9579 26.9555 17.9581 26.9555C17.9581 26.9555 17.9582 26.9555 17.9583 26.9555C17.9586 26.9555 17.9588 26.9556 17.9591 26.9556C17.9598 26.9556 17.9606 26.9557 17.9617 26.9558C17.9638 26.9559 17.9667 26.9561 17.9705 26.9563C17.9779 26.9568 17.9886 26.9574 18.0023 26.958C18.0297 26.9593 18.0691 26.9608 18.1191 26.9615C18.2191 26.963 18.3615 26.9619 18.5341 26.9512C18.8787 26.9299 19.3475 26.8707 19.8408 26.7178C20.8295 26.4113 21.9357 25.7194 22.3037 24.1948L22.1092 24.1479ZM17.9728 26.7561L17.8223 26.8878C17.8749 26.9479 17.944 26.9914 18.0088 27.0238C18.0758 27.0573 18.1517 27.0855 18.2294 27.1096C18.3848 27.1578 18.5643 27.1945 18.7307 27.2221C18.8981 27.2498 19.0576 27.2691 19.1748 27.2814C19.2335 27.2876 19.2819 27.2921 19.3158 27.295C19.3328 27.2965 19.3462 27.2976 19.3554 27.2983C19.36 27.2987 19.3636 27.299 19.366 27.2992C19.3673 27.2993 19.3682 27.2993 19.3689 27.2994C19.3692 27.2994 19.3695 27.2994 19.3697 27.2994C19.3698 27.2994 19.3699 27.2994 19.3699 27.2995C19.37 27.2995 19.37 27.2995 19.37 27.2995C19.3701 27.2995 19.3701 27.2995 19.3845 27.1C19.399 26.9005 19.399 26.9005 19.399 26.9005C19.399 26.9005 19.399 26.9005 19.399 26.9005C19.399 26.9005 19.399 26.9005 19.399 26.9005C19.3989 26.9005 19.3987 26.9005 19.3985 26.9005C19.398 26.9004 19.3973 26.9004 19.3962 26.9003C19.3942 26.9001 19.3911 26.8999 19.387 26.8996C19.3787 26.8989 19.3664 26.8979 19.3505 26.8965C19.3186 26.8938 19.2727 26.8895 19.2167 26.8836C19.1045 26.8718 18.9533 26.8535 18.796 26.8274C18.6377 26.8012 18.4784 26.7681 18.3479 26.7276C18.2827 26.7074 18.2289 26.6866 18.1878 26.666C18.1445 26.6444 18.1271 26.6287 18.1232 26.6243L17.9728 26.7561ZM19.3845 27.1L19.3873 27.3C20.3896 27.2861 21.3574 26.9282 22.1331 26.2851L22.0055 26.1312L21.8779 25.9772C21.172 26.5623 20.2922 26.8874 19.3818 26.9L19.3845 27.1ZM22.0055 26.1312L22.1331 26.2851C22.9088 25.6422 23.4468 24.7521 23.6601 23.76L23.4645 23.718L23.269 23.676C23.0744 24.581 22.5838 25.392 21.8779 25.9772L22.0055 26.1312ZM23.4645 23.718L23.6633 23.7405C23.7024 23.3952 23.6398 23.1289 23.4839 22.9411C23.3297 22.7554 23.1136 22.6821 22.9212 22.6579C22.7286 22.6338 22.5375 22.6556 22.3999 22.681C22.3299 22.6939 22.2711 22.7082 22.2294 22.7194C22.2085 22.725 22.1917 22.7299 22.1798 22.7335C22.1738 22.7353 22.1691 22.7368 22.1656 22.7379C22.1639 22.7385 22.1625 22.7389 22.1614 22.7393C22.1609 22.7394 22.1605 22.7396 22.1601 22.7397C22.1599 22.7398 22.1598 22.7398 22.1596 22.7399C22.1595 22.7399 22.1595 22.7399 22.1594 22.7399C22.1593 22.74 22.1593 22.74 22.2222 22.9298C22.2851 23.1197 22.285 23.1197 22.285 23.1197C22.285 23.1197 22.2849 23.1197 22.2849 23.1197C22.2848 23.1198 22.2848 23.1198 22.2848 23.1198C22.2847 23.1198 22.2848 23.1198 22.2849 23.1197C22.2852 23.1196 22.2858 23.1195 22.2867 23.1192C22.2884 23.1186 22.2914 23.1177 22.2956 23.1164C22.3039 23.1139 22.3167 23.1102 22.3333 23.1057C22.3667 23.0967 22.4149 23.0849 22.4724 23.0743C22.5898 23.0527 22.7358 23.0378 22.8714 23.0548C23.0073 23.0719 23.1106 23.1177 23.1761 23.1966C23.2399 23.2735 23.2973 23.4174 23.2658 23.6955L23.4645 23.718ZM22.2222 22.9298L22.0226 22.9425C22.0396 23.2112 22.0017 23.4806 21.9112 23.7336L22.0996 23.8009L22.2879 23.8682C22.3967 23.5639 22.4422 23.2401 22.4218 22.9172L22.2222 22.9298ZM22.0996 23.8009L21.9112 23.7336C21.8208 23.9866 21.6798 24.2177 21.4974 24.4124L21.6434 24.5492L21.7893 24.6859C22.0094 24.451 22.1791 24.1726 22.2879 23.8682L22.0996 23.8009ZM21.6434 24.5492L21.5618 24.3666C21.2508 24.5054 20.9851 24.7301 20.7946 25.0145L20.9607 25.1258L21.1269 25.2371C21.2759 25.0147 21.4832 24.8397 21.7249 24.7318L21.6434 24.5492ZM20.9607 25.1258L20.7946 25.0145C20.6041 25.2989 20.4964 25.6316 20.4835 25.9747L20.6834 25.9822L20.8832 25.9897C20.8933 25.7204 20.9779 25.4596 21.1269 25.2371L20.9607 25.1258ZM20.6834 25.9822L20.4837 25.9711C20.4041 27.3958 20.7354 28.2009 21.1227 28.6525C21.3151 28.8768 21.5155 29.0068 21.6716 29.0809C21.7494 29.1179 21.816 29.1409 21.8649 29.1549C21.8894 29.1619 21.9094 29.1667 21.9244 29.1698C21.9318 29.1714 21.938 29.1726 21.9428 29.1734C21.9452 29.1739 21.9472 29.1742 21.9489 29.1745C21.9498 29.1746 21.9505 29.1748 21.9512 29.1749C21.9515 29.1749 21.9518 29.175 21.9521 29.175C21.9523 29.175 21.9525 29.1751 21.9526 29.1751C21.9527 29.1751 21.9529 29.1751 21.9822 28.9773C22.0114 28.7794 22.0116 28.7794 22.0118 28.7795C22.0118 28.7795 22.012 28.7795 22.0121 28.7795C22.0123 28.7796 22.0125 28.7796 22.0126 28.7796C22.013 28.7797 22.0132 28.7797 22.0133 28.7797C22.0136 28.7798 22.0136 28.7798 22.0133 28.7797C22.0126 28.7796 22.0106 28.7792 22.0074 28.7785C22.0011 28.7772 21.9901 28.7746 21.9751 28.7703C21.9451 28.7617 21.8993 28.7462 21.8432 28.7196C21.7315 28.6665 21.5781 28.569 21.4264 28.3921C21.1254 28.0412 20.8073 27.3487 20.8831 25.9934L20.6834 25.9822ZM21.9822 28.9773L21.7882 28.9286L21.6047 29.6594L21.7987 29.7081L21.9926 29.7568L22.1762 29.026L21.9822 28.9773ZM21.7987 29.7081L21.8721 29.5221C21.2537 29.278 20.7184 28.856 20.332 28.3074L20.1684 28.4225L20.0049 28.5377C20.4359 29.1496 21.0336 29.6212 21.7252 29.8942L21.7987 29.7081ZM20.1684 28.4225L20.332 28.3074C19.9455 27.7586 19.7248 27.1072 19.6973 26.4326L19.4975 26.4408L19.2977 26.4489C19.3283 27.1999 19.574 27.9258 20.0049 28.5377L20.1684 28.4225ZM19.4975 26.4408L19.6956 26.4136C19.5496 25.3486 19.5964 24.2655 19.8337 23.2176L19.6387 23.1734L19.4436 23.1293C19.1957 24.224 19.1468 25.3554 19.2993 26.468L19.4975 26.4408ZM19.6387 23.1734L19.835 23.2116C20.3863 20.3782 21.4188 19.3834 22.2472 19.0607C22.6671 18.897 23.0556 18.8967 23.3404 18.9379C23.4827 18.9585 23.5981 18.9892 23.6768 19.0144C23.716 19.027 23.746 19.0381 23.7654 19.0457C23.7751 19.0495 23.7822 19.0525 23.7864 19.0543C23.7885 19.0552 23.7899 19.0558 23.7906 19.0561C23.7909 19.0563 23.7911 19.0563 23.7911 19.0563C23.7911 19.0563 23.791 19.0563 23.7909 19.0563C23.7909 19.0562 23.7907 19.0562 23.7907 19.0562C23.7906 19.0561 23.7905 19.056 23.8739 18.8743C23.9574 18.6926 23.9573 18.6925 23.9571 18.6924C23.957 18.6924 23.9568 18.6923 23.9567 18.6922C23.9564 18.6921 23.9561 18.6919 23.9557 18.6918C23.9549 18.6914 23.9539 18.691 23.9528 18.6905C23.9504 18.6894 23.9474 18.6881 23.9435 18.6864C23.9359 18.6832 23.9253 18.6788 23.9118 18.6735C23.885 18.6629 23.8468 18.6489 23.7986 18.6334C23.7024 18.6026 23.5652 18.5662 23.3976 18.542C23.0626 18.4936 22.6014 18.4933 22.1019 18.6879C21.0914 19.0817 20.0063 20.2365 19.4423 23.1352L19.6387 23.1734ZM23.8739 18.8743C23.9915 19.0361 23.9914 19.0362 23.9914 19.0362C23.9914 19.0362 23.9914 19.0362 23.9914 19.0362C23.9914 19.0362 23.9915 19.0361 23.9916 19.036C23.9919 19.0358 23.9924 19.0355 23.9931 19.035C23.9945 19.034 23.9967 19.0324 23.9997 19.0302C24.0058 19.026 24.0151 19.0194 24.0274 19.0109C24.0521 18.994 24.0888 18.9692 24.136 18.9389C24.2303 18.8781 24.3656 18.7954 24.5284 18.7083C24.8568 18.5325 25.2845 18.3457 25.7072 18.2783C26.1292 18.2109 26.5157 18.2661 26.8061 18.5321C27.1012 18.8024 27.3418 19.3305 27.3729 20.3137L27.5728 20.3073L27.7727 20.301C27.7401 19.2708 27.4866 18.613 27.0763 18.2371C26.6613 17.8569 26.131 17.8055 25.6442 17.8833C25.158 17.9609 24.6849 18.1708 24.3397 18.3556C24.1656 18.4487 24.0209 18.5372 23.9194 18.6026C23.8686 18.6353 23.8285 18.6623 23.8007 18.6814C23.7869 18.6909 23.7761 18.6984 23.7687 18.7037C23.7649 18.7064 23.762 18.7084 23.76 18.7099C23.759 18.7106 23.7581 18.7112 23.7576 18.7117C23.7573 18.7119 23.757 18.712 23.7568 18.7122C23.7567 18.7122 23.7566 18.7123 23.7566 18.7124C23.7565 18.7124 23.7564 18.7125 23.8739 18.8743ZM27.5728 20.3073C27.3728 20.3111 27.3728 20.3111 27.3728 20.3111C27.3728 20.3111 27.3728 20.311 27.3728 20.3111C27.3728 20.3111 27.3728 20.3112 27.3728 20.3114C27.3728 20.3118 27.3728 20.3124 27.3728 20.3133C27.3728 20.3151 27.3729 20.3179 27.3729 20.3217C27.373 20.3295 27.373 20.3412 27.373 20.3569C27.3728 20.3881 27.3723 20.4346 27.3704 20.4944C27.3668 20.614 27.3583 20.7863 27.3386 20.995C27.299 21.4131 27.2149 21.9733 27.0376 22.5465C26.6805 23.7003 25.9667 24.8501 24.5337 25.0826L24.5657 25.28L24.5977 25.4774C26.2565 25.2083 27.0461 23.8719 27.4197 22.6647C27.6076 22.0574 27.6956 21.4684 27.7368 21.0326C27.7574 20.8143 27.7664 20.6334 27.7703 20.5065C27.7722 20.443 27.7728 20.393 27.7729 20.3585C27.773 20.3413 27.773 20.3279 27.7729 20.3186C27.7729 20.314 27.7728 20.3104 27.7728 20.3079C27.7728 20.3066 27.7728 20.3056 27.7727 20.3049C27.7727 20.3046 27.7727 20.3043 27.7727 20.304C27.7727 20.3039 27.7727 20.3038 27.7727 20.3037C27.7727 20.3036 27.7727 20.3036 27.5728 20.3073ZM24.5657 25.28C24.6592 25.1032 24.6593 25.1033 24.6595 25.1034C24.6595 25.1034 24.6597 25.1035 24.6598 25.1035C24.66 25.1036 24.6601 25.1037 24.6603 25.1038C24.6605 25.1039 24.6607 25.104 24.6608 25.1041C24.6609 25.1042 24.6607 25.104 24.6601 25.1037C24.6589 25.103 24.6563 25.1015 24.6524 25.099C24.6445 25.0941 24.6315 25.0857 24.6146 25.0733C24.5808 25.0485 24.5317 25.0082 24.4772 24.9496C24.3688 24.8331 24.2371 24.6427 24.1609 24.3532C24.0088 23.7756 24.067 22.7579 25.0758 21.0841L24.9045 20.9809L24.7332 20.8776C23.695 22.6001 23.5837 23.732 23.7741 24.455C23.869 24.8156 24.0365 25.0632 24.1844 25.2221C24.258 25.3013 24.3264 25.358 24.378 25.3959C24.4039 25.4148 24.4255 25.4291 24.4417 25.4391C24.4498 25.4441 24.4565 25.448 24.4616 25.451C24.4642 25.4524 24.4664 25.4536 24.4682 25.4546C24.469 25.4551 24.4698 25.4555 24.4705 25.4559C24.4709 25.4561 24.4712 25.4563 24.4715 25.4564C24.4716 25.4565 24.4718 25.4566 24.4719 25.4566C24.4721 25.4567 24.4723 25.4568 24.5657 25.28ZM22.2221 21.2102C22.3127 21.0318 22.3125 21.0318 22.3124 21.0317C22.3124 21.0317 22.3123 21.0316 22.3122 21.0316C22.312 21.0315 22.3119 21.0314 22.3117 21.0313C22.3113 21.0311 22.3109 21.0309 22.3104 21.0307C22.3095 21.0302 22.3083 21.0297 22.307 21.029C22.3044 21.0278 22.3011 21.0262 22.2971 21.0244C22.289 21.0207 22.2781 21.0159 22.2647 21.0105C22.2381 20.9998 22.2008 20.9864 22.1557 20.9744C22.0669 20.9507 21.9393 20.9299 21.7983 20.9516C21.6534 20.9738 21.4993 21.0404 21.3669 21.1829C21.2368 21.3229 21.1386 21.5244 21.0806 21.7994L21.2763 21.8407L21.4719 21.882C21.5198 21.6554 21.5928 21.5274 21.6599 21.4551C21.7247 21.3853 21.7938 21.3569 21.859 21.3469C21.9279 21.3364 21.997 21.346 22.0525 21.3609C22.0795 21.3681 22.1013 21.376 22.1156 21.3817C22.1227 21.3846 22.1278 21.3868 22.1306 21.3881C22.132 21.3887 22.1328 21.3891 22.133 21.3892C22.1331 21.3892 22.133 21.3892 22.1328 21.3891C22.1327 21.389 22.1325 21.389 22.1323 21.3889C22.1322 21.3888 22.1321 21.3888 22.132 21.3887C22.1319 21.3887 22.1318 21.3886 22.1318 21.3886C22.1317 21.3886 22.1316 21.3885 22.2221 21.2102ZM27.6009 19.7628L27.4832 19.9244C28.111 20.3817 28.8241 20.7046 29.5791 20.8732L29.6227 20.678L29.6663 20.4828C28.965 20.3262 28.3023 20.0263 27.7187 19.6011L27.6009 19.7628ZM29.6227 20.678L29.5791 20.8732C30.3341 21.0418 31.1151 21.0526 31.8744 20.9049L31.8362 20.7086L31.798 20.5123C31.0928 20.6494 30.3675 20.6394 29.6663 20.4828L29.6227 20.678ZM31.8362 20.7086L31.8233 20.9082C32.1431 20.9288 32.4542 21.0231 32.7332 21.1839L32.8331 21.0107L32.933 20.8374C32.6011 20.646 32.2304 20.5336 31.8491 20.509L31.8362 20.7086ZM32.8331 21.0107L32.7332 21.1839C33.0121 21.3448 33.2516 21.5681 33.4333 21.8372L33.599 21.7253L33.7648 21.6134C33.5493 21.2943 33.2649 21.0288 32.933 20.8374L32.8331 21.0107ZM33.599 21.7253L33.4333 21.8372C33.615 22.1063 33.7341 22.4141 33.7815 22.7372L33.9794 22.7082L34.1773 22.6792C34.1212 22.297 33.9802 21.9325 33.7648 21.6134L33.599 21.7253ZM33.9794 22.7082L33.7815 22.7372C33.8289 23.0604 33.8031 23.3902 33.7064 23.7016L33.8974 23.761L34.0884 23.8203C34.2029 23.4517 34.2333 23.0615 34.1773 22.6792L33.9794 22.7082ZM33.8974 23.761C33.6981 23.7787 33.6981 23.7786 33.6981 23.7784C33.6981 23.7784 33.6981 23.7783 33.6981 23.7782C33.6981 23.7781 33.6981 23.778 33.6981 23.7779C33.6981 23.7778 33.6981 23.7778 33.6981 23.7778C33.6981 23.778 33.6981 23.7785 33.6982 23.7795C33.6983 23.7814 33.6985 23.785 33.6988 23.7902C33.6992 23.8006 33.6998 23.8175 33.6998 23.8406C33.6997 23.8868 33.6975 23.9579 33.6884 24.0516C33.6701 24.2391 33.6238 24.5175 33.511 24.8697C33.2856 25.5732 32.7929 26.5761 31.7176 27.738L31.8644 27.8738L32.0112 28.0097C33.1242 26.807 33.6479 25.7535 33.8919 24.9917C34.0138 24.6112 34.0655 24.3048 34.0865 24.0906C34.097 23.9835 34.0997 23.8995 34.0998 23.8408C34.0998 23.8115 34.0991 23.7885 34.0984 23.7722C34.098 23.764 34.0976 23.7575 34.0973 23.7527C34.0971 23.7503 34.097 23.7483 34.0969 23.7467C34.0968 23.7459 34.0967 23.7452 34.0967 23.7447C34.0967 23.7444 34.0966 23.7441 34.0966 23.7439C34.0966 23.7438 34.0966 23.7436 34.0966 23.7436C34.0966 23.7434 34.0966 23.7433 33.8974 23.761ZM31.8644 27.8738L31.6706 27.8247C31.4451 28.7137 31.3527 29.632 31.3964 30.5488L31.5962 30.5393L31.796 30.5298C31.7542 29.6524 31.8426 28.7736 32.0583 27.923L31.8644 27.8738ZM31.5962 30.5393V30.3393H29.7468V30.5393V30.7393H31.5962V30.5393ZM29.7468 30.5393L29.9464 30.5513C30.0252 29.2468 29.8943 27.9379 29.5589 26.676L29.3656 26.7274L29.1723 26.7788C29.4967 27.9993 29.6233 29.2654 29.5471 30.5272L29.7468 30.5393ZM29.3656 26.7274L29.5626 26.6927C29.5122 26.407 29.5382 26.113 29.6378 25.8411L29.45 25.7723L29.2622 25.7035C29.1383 26.0417 29.1061 26.4072 29.1687 26.7621L29.3656 26.7274ZM29.45 25.7723L29.6378 25.8411C29.7374 25.5693 29.9068 25.33 30.128 25.1478L30.0009 24.9934L29.8738 24.839C29.5972 25.0668 29.3861 25.3654 29.2622 25.7035L29.45 25.7723ZM27.0503 27.272L26.9877 27.4619C27.845 27.7447 28.7686 27.7447 29.6259 27.4619L29.5632 27.272L29.5006 27.082C28.7246 27.3379 27.8889 27.3379 27.113 27.082L27.0503 27.272ZM27.9116 25.6813L27.7389 25.5804L24.8589 30.5101L25.0316 30.6109L25.2043 30.7118L28.0843 25.7822L27.9116 25.6813ZM26.175 28.9773L26.0322 29.1172C26.2119 29.3007 26.3413 29.5292 26.4068 29.78L26.6003 29.7294L26.7938 29.6788C26.7107 29.3611 26.5467 29.0709 26.3179 28.8373L26.175 28.9773ZM26.6003 29.7294L26.4068 29.78C26.4724 30.0308 26.4719 30.2947 26.4053 30.5452L26.5985 30.5966L26.7918 30.648C26.8762 30.3307 26.8769 29.9965 26.7938 29.6788L26.6003 29.7294ZM27.9115 27.5729L27.7273 27.651C28.1291 28.5985 28.2428 29.6465 28.0537 30.6603L28.2503 30.6969L28.4469 30.7336C28.6504 29.6427 28.5281 28.5149 28.0956 27.4948L27.9115 27.5729ZM31.7092 28.8483L31.5548 28.9754C31.9546 29.461 32.1824 30.0694 32.201 30.7028L32.4009 30.6969L32.6009 30.691C32.5796 29.9695 32.3202 29.2757 31.8636 28.7212L31.7092 28.8483ZM32.4009 30.6969V30.8969H34.1233V30.6969V30.4969H32.4009V30.6969ZM34.1233 30.6969L34.3233 30.6974C34.3255 29.7369 34.1897 28.7813 33.9199 27.8606L33.728 27.9168L33.5361 27.973C33.795 28.8569 33.9254 29.7743 33.9233 30.6965L34.1233 30.6969ZM33.728 27.9168L33.9182 27.855C33.7099 27.2143 33.5896 26.5475 33.5608 25.8733L33.3609 25.8819L33.1611 25.8904C33.1915 26.6007 33.3183 27.3034 33.5378 27.9787L33.728 27.9168ZM9.38927 8.9433L9.58826 8.92319C9.51955 8.2433 9.71042 7.56291 10.1209 7.02225L9.96159 6.90132L9.8023 6.78038C9.33027 7.40212 9.11146 8.18344 9.19029 8.96341L9.38927 8.9433ZM9.96159 6.90132L10.1209 7.02225C10.5313 6.48168 11.1297 6.12217 11.7924 6.01678L11.761 5.81926L11.7296 5.62174C10.964 5.74349 10.2744 6.15854 9.8023 6.78038L9.96159 6.90132ZM11.761 5.81926L11.9106 5.95206C12.121 5.71508 12.378 5.52581 12.6647 5.39633L12.5824 5.21406L12.5001 5.03178C12.1618 5.18456 11.8591 5.40766 11.6115 5.68646L11.761 5.81926ZM12.5824 5.21406L12.6647 5.39633C12.9514 5.26685 13.2616 5.2 13.5751 5.2L13.5751 5L13.5751 4.8C13.2046 4.8 12.8384 4.879 12.5001 5.03178L12.5824 5.21406ZM13.5751 5L13.5751 5.2C13.8887 5.2 14.1989 5.26685 14.4856 5.39633L14.5679 5.21406L14.6502 5.03178C14.3119 4.879 13.9456 4.8 13.5751 4.8L13.5751 5ZM14.5679 5.21406L14.4856 5.39633C14.7723 5.52581 15.0293 5.71508 15.2397 5.95206L15.3893 5.81926L15.5388 5.68646C15.2912 5.40766 14.9885 5.18456 14.6502 5.03178L14.5679 5.21406ZM15.3893 5.81926L15.2628 5.97418C15.3923 6.07993 15.5379 6.10917 15.6831 6.07724C15.8131 6.04864 15.932 5.97336 16.0336 5.89778C16.1361 5.82156 16.2475 5.7239 16.352 5.63694C16.4608 5.54639 16.5708 5.45961 16.6874 5.38746C16.9174 5.24513 17.1605 5.16695 17.4469 5.23584C17.7424 5.30691 18.1208 5.54305 18.5949 6.11841L18.7492 5.99123L18.9036 5.86405C18.4035 5.25715 17.9561 4.94693 17.5404 4.84693C17.1157 4.74476 16.7622 4.87078 16.477 5.04731C16.3359 5.13459 16.2086 5.23589 16.0961 5.32951C15.9793 5.42672 15.8857 5.50931 15.7949 5.57684C15.7032 5.64501 15.6408 5.67698 15.5972 5.68657C15.5688 5.69281 15.5486 5.69116 15.5157 5.66434L15.3893 5.81926ZM18.7492 5.99123L18.5959 6.11963C18.6916 6.23391 18.8233 6.29534 18.949 6.33265C19.075 6.37005 19.2164 6.3892 19.3508 6.40408C19.6363 6.43566 19.8961 6.45144 20.1064 6.53527C20.2056 6.57482 20.2825 6.62603 20.339 6.69346C20.3946 6.75982 20.44 6.85324 20.4589 6.99335C20.4981 7.28391 20.4211 7.75713 20.1033 8.5227L20.2881 8.59937L20.4728 8.67604C20.7974 7.89392 20.9092 7.33893 20.8553 6.93984C20.8277 6.73512 20.756 6.56835 20.6456 6.43655C20.536 6.30582 20.3979 6.22089 20.2545 6.16371C19.9795 6.05407 19.6437 6.03403 19.3948 6.0065C19.2622 5.99183 19.1518 5.97559 19.0628 5.94918C18.9735 5.92267 18.9269 5.89185 18.9026 5.86283L18.7492 5.99123ZM20.2881 8.59937L20.0909 8.56567C20.0331 8.90411 19.883 9.21899 19.6581 9.47468L19.8083 9.60677L19.9584 9.73886C20.2326 9.42718 20.4149 9.04406 20.4852 8.63307L20.2881 8.59937ZM19.8083 9.60677L19.6581 9.47468C19.4332 9.73035 19.1426 9.91658 18.8193 10.0127L18.8763 10.2044L18.9333 10.3961C19.3292 10.2784 19.6842 10.0506 19.9584 9.73886L19.8083 9.60677ZM23.4362 12.5259H23.2362C23.2362 12.442 23.304 12.3689 23.3939 12.3689V12.5689V12.7689C23.5305 12.7689 23.6362 12.6573 23.6362 12.5259H23.4362ZM23.3939 12.5689V12.3689C23.4837 12.3689 23.5515 12.442 23.5515 12.5259H23.3515H23.1515C23.1515 12.6573 23.2572 12.7689 23.3939 12.7689V12.5689ZM23.3515 12.5259H23.5515C23.5515 12.6098 23.4837 12.6829 23.3939 12.6829V12.4829V12.2829C23.2572 12.2829 23.1515 12.3945 23.1515 12.5259H23.3515ZM23.3939 12.4829V12.6829C23.304 12.6829 23.2362 12.6098 23.2362 12.5259H23.4362H23.6362C23.6362 12.3946 23.5305 12.2829 23.3939 12.2829V12.4829ZM24.8056 25.3373L24.6142 25.2792L23.8519 27.787L24.0432 27.8452L24.2346 27.9033L24.9969 25.3955L24.8056 25.3373ZM24.0432 27.8452L23.8597 27.7656L22.6174 30.6317L22.8009 30.7113L22.9844 30.7908L24.2267 27.9247L24.0432 27.8452Z" fill="#737373"/>
</svg>
