<svg width="40" height="40" viewBox="0 0 40 40" fill="none" xmlns="http://www.w3.org/2000/svg">
<path d="M6.90275 17.6189V31.5043M20.0049 22.5173C21.1376 22.5348 22.218 22.997 23.0128 23.8042C23.8076 24.6114 24.253 25.6988 24.2529 26.8316V31.3849H15.7039V26.8316C15.7039 25.6897 16.1566 24.5944 16.9629 23.7856C17.7691 22.9769 18.863 22.5208 20.0049 22.5173ZM20.0049 22.5173L20.0846 31.3716M12.0799 29.3273H9.67715C9.41662 29.3273 9.16676 29.2238 8.98253 29.0396C8.79831 28.8553 8.69481 28.6055 8.69481 28.345V23.1943C8.6983 22.9361 8.80334 22.6897 8.98719 22.5083C9.17103 22.3269 9.4189 22.2253 9.67715 22.2253H12.3321C12.5891 22.2253 12.8356 22.3274 13.0173 22.5091C13.1991 22.6909 13.3012 22.9373 13.3012 23.1943V24.1501M28.1688 29.3273H30.5318C30.7923 29.3273 31.0421 29.2238 31.2264 29.0396C31.4106 28.8553 31.5141 28.6055 31.5141 28.345V23.1943C31.5106 22.9361 31.4056 22.6897 31.2217 22.5083C31.0379 22.3269 30.79 22.2253 30.5318 22.2253H27.8768C27.6198 22.2253 27.3733 22.3274 27.1916 22.5091C27.0098 22.6909 26.9077 22.9373 26.9077 23.1943V24.2165M14.0577 26.2343C15.8902 27.3477 17.9933 27.9366 20.1375 27.9366C22.2818 27.9366 24.3849 27.3477 26.2174 26.2343M13.8587 28.106C15.8071 29.1161 17.9696 29.6434 20.1642 29.6434C22.3589 29.6434 24.5214 29.1161 26.4697 28.106M16.7259 18.7075V20.2208M23.7218 18.7871V20.2606M6.90276 14.7251V13.3976C6.90164 12.6524 7.16962 11.9318 7.65741 11.3684C8.1452 10.805 8.82 10.4367 9.55771 10.3311C10.0343 10.2972 10.4966 10.1538 10.9088 9.91201C11.3209 9.67026 11.6717 9.33669 11.9339 8.93726C12.1361 8.60005 12.4131 8.3139 12.7437 8.10095C14.9484 6.72783 17.4938 6 20.0912 6C22.6886 6 25.234 6.72783 27.4388 8.10095C27.8282 8.34894 28.1626 8.67425 28.4211 9.05674C28.7025 9.42244 29.0542 9.72824 29.4554 9.9562C29.8566 10.1842 30.2993 10.3297 30.7575 10.3842C31.4264 10.533 32.0273 10.8988 32.4666 11.4246C32.906 11.9504 33.1592 12.6067 33.1868 13.2914V14.9906M33.1867 17.3269V31.6769M12.3055 27.9467V31.3716M13.7657 27.8405V31.3451M26.5227 27.9865V31.2123M27.9831 27.8936V31.2123M17.8146 19.4641H22.7926M7.11516 14.9773H32.6823C32.9781 14.9773 33.2617 15.0948 33.4708 15.3039C33.6799 15.513 33.7974 15.7966 33.7974 16.0924C33.8009 16.2922 33.7648 16.4908 33.6912 16.6766C33.6175 16.8624 33.5078 17.0318 33.3683 17.1749C33.2289 17.3181 33.0624 17.4322 32.8786 17.5107C32.6948 17.5892 32.4972 17.6305 32.2974 17.6322H7.5134C7.31355 17.6322 7.11567 17.5927 6.9312 17.5158C6.74672 17.4389 6.5793 17.3262 6.4386 17.1843C6.2979 17.0424 6.18671 16.874 6.11144 16.6888C6.03618 16.5037 5.99833 16.3055 6.00008 16.1056C5.99832 15.9581 6.02587 15.8117 6.08112 15.6748C6.13637 15.538 6.21823 15.4135 6.32195 15.3086C6.42567 15.2036 6.54919 15.1203 6.68535 15.0634C6.82151 15.0065 6.9676 14.9773 7.11516 14.9773ZM7.51332 31.3716H32.2973C32.6987 31.3716 33.0836 31.531 33.3674 31.8148C33.6512 32.0986 33.8106 32.4836 33.8106 32.8849C33.8106 33.1807 33.6931 33.4643 33.484 33.6734C33.2749 33.8825 32.9913 34 32.6955 34H7.11508C6.81934 34 6.53572 33.8825 6.3266 33.6734C6.11748 33.4643 6 33.1807 6 32.8849C6 32.4836 6.15944 32.0986 6.44324 31.8148C6.72704 31.531 7.11196 31.3716 7.51332 31.3716ZM28.368 25.2652C28.368 25.8811 27.8688 26.3803 27.2529 26.3803C26.6371 26.3803 26.1379 25.8811 26.1379 25.2652C26.1379 24.6494 26.6371 24.1501 27.2529 24.1501C27.8688 24.1501 28.368 24.6494 28.368 25.2652ZM14.0977 25.2652C14.0977 25.8811 13.5984 26.3803 12.9826 26.3803C12.3667 26.3803 11.8675 25.8811 11.8675 25.2652C11.8675 24.6494 12.3667 24.1501 12.9826 24.1501C13.5984 24.1501 14.0977 24.6494 14.0977 25.2652ZM12.2923 26.5661H13.6596C14.0041 26.5661 14.2835 26.8455 14.2835 27.19C14.2835 27.5346 14.0041 27.814 13.6596 27.814H12.2923C11.9477 27.814 11.6683 27.5346 11.6683 27.19C11.6683 26.8455 11.9477 26.5661 12.2923 26.5661ZM26.5759 26.5661H27.9432C28.2878 26.5661 28.5671 26.8455 28.5671 27.19C28.5671 27.5346 28.2878 27.814 27.9432 27.814H26.5759C26.2313 27.814 25.952 27.5346 25.952 27.19C25.952 26.8455 26.2313 26.5661 26.5759 26.5661Z" stroke="#737373" stroke-width="0.4" stroke-miterlimit="10" stroke-linecap="round"/>
<path d="M15.6951 10.1594H15.7097C15.9667 10.1519 16.2167 10.2406 16.4119 10.4075C16.4774 10.4817 16.5312 10.5645 16.575 10.6526L16.3982 10.6936C16.3469 10.5922 16.2777 10.5005 16.1882 10.428H16.1873C16.0448 10.31 15.8652 10.2465 15.6804 10.2502H15.6707C15.5481 10.2493 15.4267 10.2745 15.3142 10.3235C15.1985 10.3739 15.0947 10.4491 15.0105 10.5432L15.0027 10.552L14.9958 10.5618C14.8211 10.8119 14.7385 11.1143 14.7605 11.4182C14.7371 11.7303 14.819 12.0411 14.9939 12.301L14.9988 12.3098L15.0056 12.3166C15.0863 12.4141 15.188 12.4925 15.3035 12.5442C15.4166 12.5948 15.54 12.618 15.6638 12.6145L15.6648 12.6155L15.6658 12.6145C15.6677 12.6144 15.6697 12.6155 15.6716 12.6155L15.6707 12.6145C15.8112 12.6131 15.9481 12.5748 16.0671 12.5032L16.1814 12.4192L16.1833 12.4172C16.2921 12.3186 16.3748 12.1965 16.4275 12.0618L16.5964 12.1184C16.5328 12.2748 16.4311 12.4132 16.2986 12.5207C16.0834 12.6642 15.8258 12.7296 15.5681 12.7053C15.3395 12.6837 15.1236 12.5932 14.949 12.4465L14.8767 12.3801C14.7686 12.2579 14.6855 12.1153 14.6316 11.9612C14.5904 11.8433 14.5663 11.7203 14.5613 11.5959L14.5623 11.4709L14.5632 11.4582L14.5623 11.4446C14.5498 11.2721 14.5724 11.0987 14.6277 10.9348C14.6692 10.812 14.728 10.6959 14.8035 10.5911L14.8845 10.4905C14.9872 10.3806 15.1126 10.2937 15.2517 10.2366C15.3921 10.1789 15.5434 10.1529 15.6951 10.1594Z" fill="#231F20" stroke="#737373" stroke-width="0.4"/>
<path d="M17.7607 10.226V12.5756H19.1943V12.6537H17.5898V10.226H17.7607Z" fill="#231F20" stroke="#737373" stroke-width="0.4"/>
<path d="M20.1497 10.2127V11.5526H20.1506C20.1413 11.7155 20.1409 11.8789 20.1506 12.0418L20.1516 12.0574L20.1545 12.0711C20.1804 12.1939 20.2406 12.3062 20.3274 12.3944L20.4221 12.4735L20.4241 12.4744C20.5629 12.5681 20.7267 12.616 20.8938 12.6141V12.6151C20.8982 12.6154 20.903 12.6139 20.9075 12.6141C20.9099 12.614 20.9128 12.6152 20.9153 12.6151L20.9143 12.6141C21.0417 12.6193 21.1678 12.5949 21.2815 12.5399L21.3958 12.4715L21.4006 12.4686C21.4882 12.402 21.5544 12.3122 21.593 12.2108L21.6223 12.1053L21.6243 12.0916C21.6425 11.9213 21.642 11.7494 21.6252 11.5789V10.2127H21.8088V11.5106L21.8108 11.5223C21.8369 11.7481 21.8366 11.9761 21.8108 12.202C21.8011 12.2718 21.7752 12.3378 21.7356 12.3953L21.6917 12.45L21.6887 12.453C21.6361 12.5107 21.574 12.5587 21.5051 12.5946L21.4338 12.6268L21.4309 12.6278C21.2842 12.6861 21.1268 12.7132 20.969 12.7069L20.9592 12.7059L20.9485 12.7069C20.7648 12.7176 20.5811 12.6893 20.4084 12.6258C20.312 12.5847 20.2271 12.5208 20.1624 12.4383L20.0051 12.5614L20.1624 12.4373L20.1565 12.4305L20.0852 12.325L20.0393 12.2059C20.006 12.0397 19.9867 11.8712 19.9807 11.702L19.9788 11.5301V11.5242L19.968 10.2127H20.1497Z" fill="#231F20" stroke="#737373" stroke-width="0.4"/>
<path d="M23.0707 10.704V11.3407H23.9984L23.9642 11.3563L24.4896 11.5057C24.5776 11.5308 24.6583 11.5762 24.725 11.6376L24.7865 11.704C24.8476 11.7891 24.8796 11.892 24.8763 11.9969L25.0756 12.0038L24.8754 11.9969V12.0028C24.8748 12.1061 24.8544 12.2082 24.8148 12.3036C24.7715 12.3916 24.706 12.4669 24.6244 12.5214C24.5441 12.5749 24.4511 12.6063 24.3549 12.6132H22.8998V10.704H23.0707ZM23.0707 12.5751H24.2191L24.2377 12.5721C24.331 12.5541 24.418 12.5136 24.4916 12.4549L24.5599 12.3905L24.5609 12.3895C24.6078 12.3369 24.6441 12.2747 24.6664 12.2079C24.6868 12.1465 24.6941 12.0819 24.6908 12.0174H24.6918C24.6919 11.902 24.6563 11.7894 24.5912 11.6942H24.5922C24.5215 11.5873 24.4135 11.5105 24.2894 11.4784L24.2777 11.4755L24.265 11.4735L24.1263 11.4598C23.9958 11.4513 23.8648 11.4551 23.7347 11.4706L23.2933 11.4198L23.0707 11.3944V12.5751ZM24.3119 10.2108V10.2118C24.386 10.2193 24.4573 10.2462 24.517 10.2909V10.2919L24.5267 10.2987C24.5575 10.3193 24.5855 10.3432 24.6107 10.37L24.6771 10.4589L24.681 10.4637C24.7136 10.5157 24.7336 10.5742 24.7406 10.6346L24.7435 10.6962L24.7426 10.701C24.7417 10.792 24.7151 10.8807 24.6654 10.9569C24.6157 11.0331 24.5452 11.0933 24.4623 11.1307L24.432 11.1434C24.4626 11.106 24.4907 11.0663 24.5092 11.0214C24.5338 10.9615 24.5435 10.8974 24.5433 10.8329L24.5453 10.8339C24.5455 10.83 24.5442 10.826 24.5443 10.8221C24.5442 10.8195 24.5454 10.8169 24.5453 10.8143H24.5443C24.5454 10.7541 24.5372 10.6941 24.516 10.6376C24.495 10.5815 24.4622 10.5306 24.4222 10.4862H24.4232C24.4207 10.483 24.417 10.4806 24.4144 10.4774C24.4122 10.4751 24.4108 10.4719 24.4086 10.4696H24.4076C24.3665 10.4222 24.3174 10.3825 24.2611 10.3544C24.2296 10.3386 24.1965 10.3267 24.1625 10.3182L24.058 10.3036H23.4701V10.2128H23.8383L23.848 10.2118C24.0022 10.1963 24.1577 10.1953 24.3119 10.2108ZM23.306 10.2128L23.1595 10.3104L23.1195 10.3368L22.8998 10.4833V10.2128H23.306Z" fill="#231F20" stroke="#737373" stroke-width="0.4"/>
</svg>
