<svg width="40" height="40" viewBox="0 0 40 40" fill="none" xmlns="http://www.w3.org/2000/svg">
<path d="M9.1869 26.4719H8.86523C8.80009 26.4719 8.74729 26.5252 8.74729 26.5909V27.9112C8.74729 27.977 8.80009 28.0303 8.86523 28.0303H9.1869C9.25204 28.0303 9.30484 27.977 9.30484 27.9112V26.5909C9.30484 26.5252 9.25204 26.4719 9.1869 26.4719Z" fill="#231F20"/>
<path d="M10.9882 26.4719H10.7308C10.6479 26.4719 10.5807 26.5397 10.5807 26.6234V27.8788C10.5807 27.9625 10.6479 28.0303 10.7308 28.0303H10.9882C11.0711 28.0303 11.1383 27.9625 11.1383 27.8788V26.6234C11.1383 26.5397 11.0711 26.4719 10.9882 26.4719Z" fill="#231F20"/>
<path d="M12.9503 26.4719H12.693C12.61 26.4719 12.5428 26.5397 12.5428 26.6234V27.8788C12.5428 27.9625 12.61 28.0303 12.693 28.0303H12.9503C13.0332 28.0303 13.1004 27.9625 13.1004 27.8788V26.6234C13.1004 26.5397 13.0332 26.4719 12.9503 26.4719Z" fill="#231F20"/>
<path d="M12.9074 31.342H12.7358C12.6292 31.342 12.5428 31.4292 12.5428 31.5368V32.7056C12.5428 32.8132 12.6292 32.9004 12.7358 32.9004H12.9074C13.014 32.9004 13.1004 32.8132 13.1004 32.7056V31.5368C13.1004 31.4292 13.014 31.342 12.9074 31.342Z" fill="#231F20"/>
<path d="M28.2401 31.2987H28.0686C27.962 31.2987 27.8756 31.3859 27.8756 31.4935V32.6623C27.8756 32.7699 27.962 32.8571 28.0686 32.8571H28.2401C28.3467 32.8571 28.4331 32.7699 28.4331 32.6623V31.4935C28.4331 31.3859 28.3467 31.2987 28.2401 31.2987Z" fill="#231F20"/>
<path d="M30.1487 31.2987H29.9128C29.8239 31.2987 29.7519 31.3714 29.7519 31.461V32.6948C29.7519 32.7845 29.8239 32.8571 29.9128 32.8571H30.1487C30.2375 32.8571 30.3095 32.7845 30.3095 32.6948V31.461C30.3095 31.3714 30.2375 31.2987 30.1487 31.2987Z" fill="#231F20"/>
<path d="M32.0571 31.2987H31.8856C31.779 31.2987 31.6926 31.3859 31.6926 31.4935V32.6623C31.6926 32.7699 31.779 32.8571 31.8856 32.8571H32.0571C32.1637 32.8571 32.2501 32.7699 32.2501 32.6623V31.4935C32.2501 31.3859 32.1637 31.2987 32.0571 31.2987Z" fill="#231F20"/>
<path d="M32.0357 26.4827H31.907C31.7886 26.4827 31.6926 26.5796 31.6926 26.6991V27.8247C31.6926 27.9442 31.7886 28.0411 31.907 28.0411H32.0357C32.1541 28.0411 32.2501 27.9442 32.2501 27.8247V26.6991C32.2501 26.5796 32.1541 26.4827 32.0357 26.4827Z" fill="#231F20"/>
<path d="M30.1379 26.4827H29.9235C29.8287 26.4827 29.7519 26.5602 29.7519 26.6558V27.868C29.7519 27.9636 29.8287 28.0411 29.9235 28.0411H30.1379C30.2327 28.0411 30.3095 27.9636 30.3095 27.868V26.6558C30.3095 26.5602 30.2327 26.4827 30.1379 26.4827Z" fill="#231F20"/>
<path d="M28.3687 26.4827H28.1329C28.044 26.4827 27.972 26.5554 27.972 26.645V27.8788C27.972 27.9684 28.044 28.0411 28.1329 28.0411H28.3687C28.4576 28.0411 28.5296 27.9684 28.5296 27.8788V26.645C28.5296 26.5554 28.4576 26.4827 28.3687 26.4827Z" fill="#231F20"/>
<path d="M10.9989 31.2987H10.8059C10.7053 31.2987 10.6237 31.3811 10.6237 31.4827V32.6732C10.6237 32.7748 10.7053 32.8571 10.8059 32.8571H10.9989C11.0996 32.8571 11.1812 32.7748 11.1812 32.6732V31.4827C11.1812 31.3811 11.0996 31.2987 10.9989 31.2987Z" fill="#231F20"/>
<path d="M9.14401 31.2987H8.90812C8.8193 31.2987 8.74729 31.3714 8.74729 31.461V32.6948C8.74729 32.7845 8.8193 32.8571 8.90812 32.8571H9.14401C9.23283 32.8571 9.30484 32.7845 9.30484 32.6948V31.461C9.30484 31.3714 9.23283 31.2987 9.14401 31.2987Z" fill="#231F20"/>
<path d="M16.6173 35V26.342C16.6176 26.2264 16.6595 26.1148 16.7353 26.0281L20.0913 22.2511C20.1376 22.1981 20.1945 22.1557 20.2583 22.1266C20.322 22.0976 20.3912 22.0825 20.4612 22.0825C20.5312 22.0825 20.6003 22.0976 20.6641 22.1266C20.7279 22.1557 20.7848 22.1981 20.8311 22.2511L24.0478 26.0173C24.1176 26.1033 24.1588 26.2094 24.1657 26.3203L24.3158 34.9026M14.698 26.1039V34.3398M7.36406 35C7.25032 35 7.14123 34.9544 7.0608 34.8732C6.98036 34.792 6.93518 34.6819 6.93518 34.5671V29.6753M6.93518 29.6753H14.698M6.93518 29.6753V25.0216H14.3013M14.698 29.6753V35M14.698 29.6753V26.2013M26.1493 35V29.5887H33.9122V34.5455C33.9122 34.5995 33.9016 34.6529 33.8811 34.7028C33.8607 34.7527 33.8306 34.7981 33.7928 34.8363C33.755 34.8744 33.7101 34.9047 33.6606 34.9254C33.6112 34.9461 33.5582 34.9567 33.5047 34.9567M26.1493 29.632V26.1688M26.4281 25.0216H33.9122V29.6212M22.3536 20.7792H33.6548C33.7722 20.7799 33.8861 20.8194 33.9791 20.8918C34.072 20.9641 34.1389 21.0652 34.1694 21.1797L34.9843 24.3506C35.0037 24.4299 35.0051 24.5125 34.9884 24.5924C34.9717 24.6723 34.9373 24.7473 34.8878 24.8118C34.8383 24.8764 34.775 24.9288 34.7026 24.9651C34.6301 25.0014 34.5505 25.0208 34.4697 25.0216H26.4173M14.3764 25.0216H6.52781C6.44809 25.0204 6.36965 25.0012 6.29821 24.9655C6.22676 24.9298 6.1641 24.8785 6.1148 24.8152C6.06549 24.752 6.03079 24.6784 6.0132 24.5999C5.99562 24.5214 5.9956 24.44 6.01315 24.3615L6.82803 21.1797C6.85473 21.0652 6.91911 20.9633 7.01065 20.8905C7.10219 20.8178 7.21547 20.7785 7.33197 20.7792H18.6331M10.3984 15.1299C10.7152 15.1299 11.0289 15.1929 11.3216 15.3152C11.6143 15.4376 11.8803 15.617 12.1043 15.8431C12.3283 16.0692 12.506 16.3376 12.6273 16.6331C12.7485 16.9285 12.8109 17.2452 12.8109 17.5649V20.8117H7.98593V17.5649C7.98593 16.9191 8.2401 16.2997 8.69253 15.8431C9.14496 15.3864 9.75858 15.1299 10.3984 15.1299ZM10.3984 15.1299V13.3766M30.5132 15.1299C31.153 15.1299 31.7666 15.3864 32.2191 15.8431C32.6715 16.2997 32.9257 16.9191 32.9257 17.5649V20.8117H28.1007V17.5649C28.1007 16.9191 28.3549 16.2997 28.8073 15.8431C29.2597 15.3864 29.8733 15.1299 30.5132 15.1299ZM30.5132 15.1299V13.4416M7.98593 18.0844H12.8109M28.1007 18.0844H32.9257M18.5044 20.7792H14.698V17.8247C14.698 16.3005 15.2978 14.8388 16.3656 13.7611C17.4333 12.6834 18.8815 12.0779 20.3915 12.0779C21.9015 12.0779 23.3496 12.6834 24.4173 13.7611C25.4851 14.8388 26.0849 16.3005 26.0849 17.8247V20.7792H22.4287M18.4615 16.9481C18.4575 15.2181 19.053 13.5412 20.1449 12.2078C20.2333 12.1192 20.3527 12.0695 20.4773 12.0695C20.6018 12.0695 20.7213 12.1192 20.8097 12.2078C21.9177 13.527 22.5122 15.208 22.4823 16.9372M14.7624 16.9481H25.9134M18.4615 12.3701V11.526C18.4615 11.1787 18.5982 10.8456 18.8415 10.6C19.0848 10.3544 19.4148 10.2164 19.7589 10.2164H21.1849C21.529 10.2164 21.859 10.3544 22.1023 10.6C22.3456 10.8456 22.4823 11.1787 22.4823 11.526V12.3701M20.4772 8.53896L20.4665 10.2164M10.3984 9.81601V10.9199M30.5132 9.89177V10.9957M30.5132 10.9957C29.921 10.9957 29.441 11.4802 29.441 12.0779C29.441 12.6756 29.921 13.1602 30.5132 13.1602C31.1053 13.1602 31.5854 12.6756 31.5854 12.0779C31.5854 11.4802 31.1053 10.9957 30.5132 10.9957ZM20.4773 6.36364C19.8851 6.36364 19.405 6.84818 19.405 7.44589C19.405 8.0436 19.8851 8.52814 20.4773 8.52814C21.0694 8.52814 21.5495 8.0436 21.5495 7.44589C21.5495 6.84818 21.0694 6.36364 20.4773 6.36364ZM20.4773 6.36364L20.4665 5M7.35336 35H33.5047M20.0269 19.329L13.7759 25.6277C13.7385 25.667 13.7132 25.7164 13.7031 25.7699C13.693 25.8234 13.6985 25.8787 13.7189 25.9292C13.7394 25.9796 13.7739 26.0229 13.8182 26.054C13.8626 26.085 13.9149 26.1023 13.9689 26.1039H26.8355C26.8894 26.1023 26.9418 26.085 26.9861 26.054C27.0305 26.0229 27.065 25.9796 27.0854 25.9292C27.1059 25.8787 27.1114 25.8234 27.1012 25.7699C27.0911 25.7164 27.0659 25.667 27.0285 25.6277L20.8954 19.329C20.8393 19.2697 20.7719 19.2226 20.6973 19.1903C20.6227 19.1581 20.5423 19.1415 20.4612 19.1415C20.38 19.1415 20.2996 19.1581 20.225 19.1903C20.1504 19.2226 20.083 19.2697 20.0269 19.329ZM18.7938 30.6169H22.1392C22.3405 30.6169 22.5037 30.7816 22.5037 30.9848V33.842C22.5037 34.0452 22.3405 34.21 22.1392 34.21H18.7938C18.5925 34.21 18.4293 34.0452 18.4293 33.842V30.9848C18.4293 30.7816 18.5925 30.6169 18.7938 30.6169ZM19.3943 26.1039H21.5387V28.3225C21.5387 28.4316 21.4958 28.5362 21.4194 28.6133C21.343 28.6904 21.2394 28.7338 21.1313 28.7338H19.8018C19.6937 28.7338 19.5901 28.6904 19.5136 28.6133C19.4372 28.5362 19.3943 28.4316 19.3943 28.3225V26.1039ZM8.86523 26.4719H9.1869C9.25204 26.4719 9.30484 26.5252 9.30484 26.5909V27.9112C9.30484 27.977 9.25204 28.0303 9.1869 28.0303H8.86523C8.80009 28.0303 8.74729 27.977 8.74729 27.9112V26.5909C8.74729 26.5252 8.80009 26.4719 8.86523 26.4719ZM10.7308 26.4719H10.9882C11.0711 26.4719 11.1383 26.5397 11.1383 26.6234V27.8788C11.1383 27.9625 11.0711 28.0303 10.9882 28.0303H10.7308C10.6479 28.0303 10.5807 27.9625 10.5807 27.8788V26.6234C10.5807 26.5397 10.6479 26.4719 10.7308 26.4719ZM12.693 26.4719H12.9503C13.0332 26.4719 13.1004 26.5397 13.1004 26.6234V27.8788C13.1004 27.9625 13.0332 28.0303 12.9503 28.0303H12.693C12.61 28.0303 12.5428 27.9625 12.5428 27.8788V26.6234C12.5428 26.5397 12.61 26.4719 12.693 26.4719ZM12.7358 31.342H12.9074C13.014 31.342 13.1004 31.4292 13.1004 31.5368V32.7056C13.1004 32.8132 13.014 32.9004 12.9074 32.9004H12.7358C12.6292 32.9004 12.5428 32.8132 12.5428 32.7056V31.5368C12.5428 31.4292 12.6292 31.342 12.7358 31.342ZM28.0686 31.2987H28.2401C28.3467 31.2987 28.4331 31.3859 28.4331 31.4935V32.6623C28.4331 32.7699 28.3467 32.8571 28.2401 32.8571H28.0686C27.962 32.8571 27.8756 32.7699 27.8756 32.6623V31.4935C27.8756 31.3859 27.962 31.2987 28.0686 31.2987ZM29.9128 31.2987H30.1487C30.2375 31.2987 30.3095 31.3714 30.3095 31.461V32.6948C30.3095 32.7845 30.2375 32.8571 30.1487 32.8571H29.9128C29.8239 32.8571 29.7519 32.7845 29.7519 32.6948V31.461C29.7519 31.3714 29.8239 31.2987 29.9128 31.2987ZM31.8856 31.2987H32.0571C32.1637 31.2987 32.2501 31.3859 32.2501 31.4935V32.6623C32.2501 32.7699 32.1637 32.8571 32.0571 32.8571H31.8856C31.779 32.8571 31.6926 32.7699 31.6926 32.6623V31.4935C31.6926 31.3859 31.779 31.2987 31.8856 31.2987ZM31.907 26.4827H32.0357C32.1541 26.4827 32.2501 26.5796 32.2501 26.6991V27.8247C32.2501 27.9442 32.1541 28.0411 32.0357 28.0411H31.907C31.7886 28.0411 31.6926 27.9442 31.6926 27.8247V26.6991C31.6926 26.5796 31.7886 26.4827 31.907 26.4827ZM29.9235 26.4827H30.1379C30.2327 26.4827 30.3095 26.5602 30.3095 26.6558V27.868C30.3095 27.9636 30.2327 28.0411 30.1379 28.0411H29.9235C29.8287 28.0411 29.7519 27.9636 29.7519 27.868V26.6558C29.7519 26.5602 29.8287 26.4827 29.9235 26.4827ZM28.1329 26.4827H28.3687C28.4576 26.4827 28.5296 26.5554 28.5296 26.645V27.8788C28.5296 27.9684 28.4576 28.0411 28.3687 28.0411H28.1329C28.044 28.0411 27.972 27.9684 27.972 27.8788V26.645C27.972 26.5554 28.044 26.4827 28.1329 26.4827ZM10.8059 31.2987H10.9989C11.0996 31.2987 11.1812 31.3811 11.1812 31.4827V32.6732C11.1812 32.7748 11.0996 32.8571 10.9989 32.8571H10.8059C10.7053 32.8571 10.6237 32.7748 10.6237 32.6732V31.4827C10.6237 31.3811 10.7053 31.2987 10.8059 31.2987ZM8.90812 31.2987H9.14401C9.23283 31.2987 9.30484 31.3714 9.30484 31.461V32.6948C9.30484 32.7845 9.23283 32.8571 9.14401 32.8571H8.90812C8.8193 32.8571 8.74729 32.7845 8.74729 32.6948V31.461C8.74729 31.3714 8.8193 31.2987 8.90812 31.2987ZM11.4706 12.1429C11.4706 12.7406 10.9906 13.2251 10.3984 13.2251C9.80624 13.2251 9.3262 12.7406 9.3262 12.1429C9.3262 11.5451 9.80624 11.0606 10.3984 11.0606C10.9906 11.0606 11.4706 11.5451 11.4706 12.1429Z" stroke="#737373" stroke-width="0.4" stroke-miterlimit="10" stroke-linecap="round"/>
</svg>
