<svg width="40" height="40" viewBox="0 0 40 40" fill="none" xmlns="http://www.w3.org/2000/svg">
<path d="M19.1528 13.3105L20.1974 16.2564C20.2171 16.3016 20.2531 16.3374 20.2982 16.3565C20.3432 16.3757 20.3937 16.3767 20.4395 16.3593L22.707 15.4202C22.7336 15.4103 22.7576 15.3941 22.7768 15.3729C22.796 15.3518 22.8099 15.3263 22.8174 15.2986C22.8249 15.2709 22.8257 15.2418 22.8198 15.2137C22.8139 15.1857 22.8014 15.1594 22.7834 15.1372L20.9108 12.7315C20.9108 12.7315 27.2802 14.9442 28.9617 20.2959C29.8209 19.0842 30.2098 17.5963 30.0548 16.1143C29.8999 14.6323 29.2118 13.2593 28.121 12.2556C28.121 12.2556 24.8853 9.99141 19.9426 12.4228C21.3494 11.0776 23.1869 10.2861 25.122 10.1917C27.0572 10.0973 28.9617 10.7063 30.4903 11.9082C30.374 10.8019 29.9337 9.75577 29.2257 8.90336C28.5178 8.05095 27.5743 7.43099 26.5158 7.12264C25.7172 6.94486 24.8896 6.94655 24.0917 7.12759C23.2938 7.30863 22.545 7.66459 21.8984 8.17027C21.2518 8.67595 20.7232 9.31898 20.35 10.0539C19.9768 10.7887 19.7681 11.5975 19.7388 12.4228M20.6433 16.4365L21.3185 19.1381C21.3311 19.1836 21.3532 19.226 21.3832 19.2623C21.4133 19.2986 21.4506 19.328 21.4927 19.3487C21.5348 19.3694 21.5808 19.3808 21.6277 19.3822C21.6745 19.3836 21.7211 19.3749 21.7643 19.3568L23.8408 18.5463C23.8848 18.5286 23.9245 18.5017 23.9573 18.4672C23.9901 18.4327 24.0152 18.3915 24.0309 18.3464C24.0466 18.3013 24.0525 18.2533 24.0483 18.2057C24.044 18.1581 24.0298 18.1119 24.0064 18.0703L22.5796 15.4974M21.7516 19.4983L22.1847 22.7273C22.189 22.7655 22.2014 22.8025 22.221 22.8355C22.2405 22.8686 22.2669 22.8971 22.2983 22.919C22.3296 22.9409 22.3653 22.9558 22.4028 22.9627C22.4404 22.9696 22.4789 22.9682 22.5159 22.9588L25.242 22.3285C25.2788 22.317 25.3128 22.298 25.342 22.2726C25.3712 22.2473 25.3949 22.2161 25.4116 22.1811C25.4283 22.1461 25.4378 22.108 25.4393 22.0692C25.4408 22.0303 25.4344 21.9916 25.4204 21.9554L24.0573 18.6878M22.6178 23.036V26.5223C22.6174 26.568 22.6268 26.6132 22.6451 26.655C22.6634 26.6968 22.6904 26.7341 22.7241 26.7645C22.7579 26.795 22.7977 26.8178 22.8408 26.8315C22.884 26.8452 22.9295 26.8494 22.9745 26.8439L25.777 26.548C25.8228 26.5439 25.8672 26.5297 25.9071 26.5065C25.947 26.4834 25.9815 26.4517 26.0081 26.4138C26.0348 26.3759 26.0529 26.3327 26.0614 26.287C26.0699 26.2413 26.0685 26.1943 26.0573 26.1492L25.1655 22.5343M23.1401 27.0497L22.8726 30.6518C22.8689 30.6922 22.8738 30.7329 22.887 30.7712C22.9003 30.8095 22.9215 30.8444 22.9493 30.8737C22.9771 30.903 23.0108 30.9259 23.0481 30.9409C23.0854 30.9558 23.1255 30.9626 23.1656 30.9605H26.3121C26.3549 30.9617 26.3974 30.9529 26.4364 30.9348C26.4753 30.9168 26.5096 30.8899 26.5367 30.8564C26.5637 30.8229 26.5828 30.7835 26.5925 30.7413C26.6021 30.6992 26.6021 30.6553 26.5923 30.6132L25.8917 26.7539M23.0509 31.1921L22.5032 34.6912M26.3376 31.1921C26.3376 31.1921 26.8853 33.9451 26.3376 34.6912M19.9426 12.3199C19.9426 12.3199 13.3694 19.2796 16.6942 24.1552C16.6942 24.1552 8.47768 20.9134 14.2484 13.6578M19.828 12.4357C19.828 12.4357 15.2802 7.50857 10.9108 11.8696C10.9108 11.8696 9.38211 13.735 10.3375 17.4914C10.3375 17.4914 12.4904 11.9725 19.8534 12.4357M15.9171 10.0686C16.5542 9.09399 17.4971 8.36378 18.5944 7.99518C19.6917 7.62658 20.8798 7.64096 21.9681 8.03602M30.7961 7.43139C31.4936 7.55062 32.148 7.85222 32.6942 8.30617C32.7169 8.33557 32.7458 8.35935 32.779 8.37571C32.8121 8.39207 32.8485 8.40057 32.8853 8.40057C32.9222 8.40057 32.9586 8.39207 32.9917 8.37571C33.0248 8.35935 33.0538 8.33557 33.0764 8.30617C33.249 8.02431 33.4944 7.79519 33.7861 7.64335C34.0778 7.49152 34.405 7.4227 34.7324 7.44425M7.2803 5L7.66247 6.32504M10.5287 5.9391L9.68796 6.92967M9.99368 8.79502L11.344 9.21955M8.65604 10.3259L8.96177 11.5223M6.66879 9.69553L5.80255 10.6089M5 7.43139L6.23567 7.80446M18.5413 31.9897C18.2173 31.6387 18.0276 31.1826 18.0063 30.7032C17.9854 30.4531 18.0161 30.2012 18.0966 29.9637C18.177 29.7261 18.3054 29.508 18.4737 29.3232C18.6419 29.1383 18.8463 28.9907 19.0739 28.8898C19.3016 28.7888 19.5475 28.7367 19.7961 28.7367C20.0447 28.7367 20.2906 28.7888 20.5183 28.8898C20.7459 28.9907 20.9503 29.1383 21.1185 29.3232C21.2868 29.508 21.4152 29.7261 21.4956 29.9637C21.5761 30.2012 21.6068 30.4531 21.5859 30.7032C21.5679 31.1762 21.3929 31.6293 21.0891 31.9897M16.6434 34.8585C16.4703 34.5884 16.3714 34.2766 16.357 33.9552C16.3426 33.6338 16.4131 33.3143 16.5612 33.0294C16.7094 32.7446 16.9299 32.5047 17.2002 32.3343C17.4705 32.1639 17.7807 32.0692 18.0992 32.0599C18.4177 32.0505 18.7329 32.1269 19.0125 32.2812C19.2921 32.4354 19.526 32.662 19.6903 32.9377C19.8546 33.2133 19.9433 33.5282 19.9474 33.8499C19.9514 34.1716 19.8707 34.4886 19.7134 34.7684M19.7898 32.8388C19.9479 32.6142 20.1546 32.429 20.3943 32.2971C20.6339 32.1653 20.9001 32.0903 21.1727 32.0779C21.4453 32.0655 21.7171 32.116 21.9675 32.2256C22.2179 32.3351 22.4403 32.5008 22.6178 32.7101M5.03825 35H35M9.50947 8.43481C9.50947 9.18082 8.91062 9.78558 8.1719 9.78558C7.43317 9.78558 6.83432 9.18082 6.83432 8.43481C6.83432 7.6888 7.43317 7.08404 8.1719 7.08404C8.91062 7.08404 9.50947 7.6888 9.50947 8.43481ZM31.9426 33.1861C31.9426 34.1879 31.1384 35 30.1464 35C29.1544 35 28.3502 34.1879 28.3502 33.1861C28.3502 32.1843 29.1544 31.3722 30.1464 31.3722C31.1384 31.3722 31.9426 32.1843 31.9426 33.1861Z" stroke="#737373" stroke-width="0.4" stroke-miterlimit="10" stroke-linecap="round"/>
</svg>
