<svg width="40" height="40" viewBox="0 0 40 40" fill="none" xmlns="http://www.w3.org/2000/svg">
<path d="M4.81932 6.8238C4.77196 6.92358 4.81445 7.04287 4.91424 7.09024C5.01402 7.13761 5.13331 7.09511 5.18068 6.99533L4.81932 6.8238ZM8.60135 6.56767L8.78491 6.4882L8.78369 6.4855L8.60135 6.56767ZM9.07204 6.90956L9.05393 7.10919L9.06734 7.10951L9.07204 6.90956ZM11.7867 9.97558L11.5873 9.95759L11.5869 9.96809L11.7867 9.97558ZM12.0494 10.3395L11.9947 10.5319L12.0103 10.5363L12.0265 10.5382L12.0494 10.3395ZM13.3192 11.8174L13.5188 11.8349L13.5191 11.8232L13.3192 11.8174ZM13.5491 12.0159L13.5973 12.2101L13.6017 12.2089L13.5491 12.0159ZM19.6631 14.218C19.722 14.3115 19.8455 14.3395 19.9389 14.2806C20.0324 14.2217 20.0604 14.0982 20.0015 14.0047L19.6631 14.218ZM21.5803 15.1222C21.4746 15.1542 21.4149 15.2659 21.447 15.3716C21.4791 15.4773 21.5908 15.537 21.6965 15.5049L21.5803 15.1222ZM27.1841 16.97C27.2523 17.0569 27.378 17.0721 27.4649 17.0039C27.5518 16.9357 27.567 16.81 27.4988 16.7231L27.1841 16.97ZM24.2527 14.9228C24.2013 15.0206 24.239 15.1415 24.3368 15.1928C24.4346 15.2442 24.5555 15.2065 24.6068 15.1088L24.2527 14.9228ZM31.6215 14.7593C31.6992 14.8379 31.8258 14.8386 31.9044 14.761C31.983 14.6834 31.9837 14.5567 31.9061 14.4782L31.6215 14.7593ZM35.8001 12.6296C35.804 12.74 35.8967 12.8263 36.0071 12.8224C36.1175 12.8185 36.2038 12.7258 36.1999 12.6154L35.8001 12.6296ZM32.2564 9.15945L32.2429 8.95962L32.2325 8.96088L32.2564 9.15945ZM29.9467 10.4829L29.7877 10.3616L29.7814 10.3698L29.776 10.3787L29.9467 10.4829ZM29.3884 10.6814L29.3177 10.8685L29.3211 10.8698L29.3884 10.6814ZM27.2867 12.3909H27.4869L27.4866 12.3832L27.2867 12.3909ZM27.0867 12.6887C27.0867 12.7991 27.1763 12.8887 27.2867 12.8887C27.3972 12.8887 27.4867 12.7991 27.4867 12.6887H27.0867ZM20.4125 27.0262L20.3189 26.8494L20.3109 26.8537L20.3032 26.8587L20.4125 27.0262ZM20.2757 27.0669L20.2757 27.2669L20.2757 27.0669ZM20.1389 27.0262L20.2481 26.8586L20.2471 26.858L20.1389 27.0262ZM20.1389 13.6592L19.9731 13.5465L19.9667 13.5575L20.1389 13.6592ZM20.5001 13.6592L20.3347 13.7717L20.3411 13.781L20.3485 13.7896L20.5001 13.6592ZM21.7438 20.6279C21.81 20.5395 21.7919 20.4142 21.7035 20.348C21.6151 20.2818 21.4897 20.2998 21.4235 20.3883L21.7438 20.6279ZM20.3836 21.7779C20.3175 21.8664 20.3355 21.9917 20.4239 22.0579C20.5124 22.1241 20.6377 22.106 20.7039 22.0176L20.3836 21.7779ZM19.4422 19.0279C19.3739 18.9411 19.2482 18.9261 19.1614 18.9944C19.0746 19.0627 19.0596 19.1884 19.1278 19.2752L19.4422 19.0279ZM20.2991 20.7641C20.3674 20.8509 20.4931 20.8659 20.58 20.7977C20.6668 20.7294 20.6818 20.6036 20.6135 20.5168L20.2991 20.7641ZM19.4409 22.3349C19.3716 22.2488 19.2457 22.2352 19.1597 22.3044C19.0736 22.3736 19.06 22.4995 19.1292 22.5856L19.4409 22.3349ZM20.3005 24.0414C20.3697 24.1275 20.4956 24.1411 20.5817 24.0719C20.6677 24.0026 20.6814 23.8767 20.6121 23.7907L20.3005 24.0414ZM12.9909 13.7916L13.1581 13.6818L12.9908 13.4269L12.8236 13.6819L12.9909 13.7916ZM12.9909 27.6989H13.1909V27.5977L13.1093 27.5378L12.9909 27.6989ZM13.1909 18.2004C13.1894 18.09 13.0987 18.0016 12.9882 18.0031C12.8778 18.0046 12.7894 18.0953 12.7909 18.2057L13.1909 18.2004ZM12.9879 33.0836C12.9894 33.1941 13.0801 33.2824 13.1906 33.281C13.301 33.2795 13.3894 33.1888 13.3879 33.0783L12.9879 33.0836ZM14.4093 24.48C14.4832 24.3979 14.4765 24.2714 14.3944 24.1975C14.3123 24.1236 14.1859 24.1303 14.112 24.2124L14.4093 24.48ZM12.9407 25.5138C12.8668 25.5959 12.8735 25.7223 12.9556 25.7962C13.0377 25.8701 13.1641 25.8635 13.238 25.7814L12.9407 25.5138ZM14.5285 21.3491C14.6092 21.2737 14.6135 21.1471 14.5381 21.0664C14.4627 20.9857 14.3361 20.9814 14.2554 21.0568L14.5285 21.3491ZM13.0513 22.1817C12.9706 22.2571 12.9663 22.3837 13.0417 22.4644C13.1171 22.5451 13.2437 22.5494 13.3244 22.474L13.0513 22.1817ZM12.0092 19.6544C11.9337 19.5738 11.8071 19.5698 11.7265 19.6454C11.646 19.721 11.642 19.8475 11.7175 19.9281L12.0092 19.6544ZM13.042 21.3398C13.1176 21.4203 13.2442 21.4244 13.3247 21.3488C13.4053 21.2732 13.4093 21.1466 13.3337 21.0661L13.042 21.3398ZM12.0113 22.8881C11.937 22.8064 11.8105 22.8004 11.7288 22.8748C11.6471 22.9491 11.6411 23.0756 11.7154 23.1573L12.0113 22.8881ZM13.04 24.6131C13.1143 24.6948 13.2408 24.7008 13.3225 24.6264C13.4042 24.5521 13.4102 24.4256 13.3358 24.3439L13.04 24.6131ZM7.95558 15.9312L8.11839 15.815L7.95561 15.5868L7.79279 15.815L7.95558 15.9312ZM7.95558 30.037L7.83372 30.1956L7.95091 30.2857L8.0714 30.2001L7.95558 30.037ZM8.23216 20.2655C8.23216 20.155 8.14262 20.0655 8.03216 20.0655C7.9217 20.0655 7.83216 20.155 7.83216 20.2655H8.23216ZM7.83216 32.717C7.83216 32.8275 7.9217 32.917 8.03216 32.917C8.14262 32.917 8.23216 32.8275 8.23216 32.717H7.83216ZM7.01047 21.6624C6.95356 21.5677 6.83069 21.5371 6.73602 21.594C6.64134 21.6509 6.61072 21.7738 6.66762 21.8684L7.01047 21.6624ZM7.86078 23.8536C7.91768 23.9483 8.04055 23.9789 8.13523 23.922C8.2299 23.8651 8.26052 23.7422 8.20362 23.6476L7.86078 23.8536ZM9.3222 23.1531C9.39423 23.0694 9.38474 22.9431 9.301 22.8711C9.21726 22.799 9.09099 22.8085 9.01896 22.8923L9.3222 23.1531ZM7.88054 24.2157C7.80851 24.2995 7.818 24.4257 7.90174 24.4978C7.98547 24.5698 8.11175 24.5603 8.18378 24.4766L7.88054 24.2157ZM6.99556 24.8724C6.9268 24.7859 6.80098 24.7716 6.71454 24.8403C6.6281 24.9091 6.61376 25.0349 6.68253 25.1214L6.99556 24.8724ZM7.87568 26.6213C7.94444 26.7077 8.07026 26.7221 8.1567 26.6533C8.24315 26.5845 8.25748 26.4587 8.18872 26.3723L7.87568 26.6213ZM9.3132 26.5046C9.39064 26.4259 9.38956 26.2992 9.31079 26.2218C9.23202 26.1444 9.10539 26.1454 9.02796 26.2242L9.3132 26.5046ZM7.88954 27.3822C7.8121 27.461 7.81318 27.5876 7.89195 27.6651C7.97072 27.7425 8.09735 27.7414 8.17478 27.6627L7.88954 27.3822ZM4.92804 33.6333C4.82498 33.6731 4.77365 33.7888 4.8134 33.8919C4.85314 33.9949 4.9689 34.0463 5.07196 34.0065L4.92804 33.6333ZM20.4562 30.401L20.4697 30.6005L20.6562 30.588V30.401H20.4562ZM20.6562 17.7289C20.6562 17.6184 20.5667 17.5289 20.4562 17.5289C20.3458 17.5289 20.2562 17.6184 20.2562 17.7289H20.6562ZM21.3647 33.6309C21.2543 33.6309 21.1647 33.7205 21.1647 33.8309C21.1647 33.9414 21.2543 34.0309 21.3647 34.0309V33.6309ZM35.4089 34.0309C35.5194 34.0309 35.6089 33.9414 35.6089 33.8309C35.6089 33.7205 35.5194 33.6309 35.4089 33.6309V34.0309ZM16.892 35.0786C16.9719 35.1548 17.0985 35.1518 17.1747 35.0718C17.2509 34.9919 17.2479 34.8653 17.168 34.7891L16.892 35.0786ZM15.7449 33.4325C15.665 33.3563 15.5384 33.3593 15.4622 33.4393C15.386 33.5192 15.389 33.6458 15.4689 33.7221L15.7449 33.4325ZM17.1319 34.7864C17.087 34.8873 17.1324 35.0055 17.2334 35.0504C17.3343 35.0953 17.4525 35.0499 17.4974 34.9489L17.1319 34.7864ZM18.2527 33.2505C18.2976 33.1496 18.2521 33.0314 18.1512 32.9865C18.0503 32.9416 17.9321 32.987 17.8872 33.088L18.2527 33.2505ZM17.0298 33.0451C17.01 32.9364 16.9058 32.8644 16.7972 32.8842C16.6885 32.9041 16.6165 33.0082 16.6363 33.1169L17.0298 33.0451ZM16.9866 35.0359C17.0064 35.1446 17.1106 35.2166 17.2193 35.1967C17.3279 35.1769 17.3999 35.0727 17.3801 34.9641L16.9866 35.0359ZM5 6.90956C5.18068 6.99533 5.18066 6.99537 5.18064 6.9954C5.18065 6.99539 5.18064 6.99541 5.18065 6.99539C5.18067 6.99535 5.18072 6.99524 5.18079 6.99508C5.18095 6.99476 5.18122 6.99419 5.1816 6.99339C5.18237 6.9918 5.1836 6.98926 5.18528 6.98583C5.18863 6.97896 5.19378 6.96853 5.20066 6.95488C5.21441 6.92757 5.23506 6.88745 5.26207 6.83738C5.31615 6.73713 5.39541 6.59759 5.49554 6.44145C5.69785 6.12602 5.97699 5.75622 6.29719 5.50132C6.61809 5.24586 6.94426 5.13195 7.26743 5.24236C7.60356 5.3572 8.00731 5.73619 8.41901 6.64983L8.60135 6.56767L8.78369 6.4855C8.35799 5.54078 7.89287 5.03334 7.39674 4.86384C6.88764 4.68991 6.41815 4.89376 6.04807 5.18837C5.67728 5.48354 5.37011 5.8961 5.15884 6.22551C5.0522 6.39179 4.96785 6.54029 4.91003 6.64747C4.88109 6.70112 4.85871 6.74457 4.84343 6.7749C4.83579 6.79007 4.82992 6.80197 4.82588 6.81024C4.82386 6.81437 4.8223 6.8176 4.8212 6.81987C4.82065 6.82101 4.82022 6.82191 4.81991 6.82257C4.81975 6.82289 4.81962 6.82316 4.81953 6.82337C4.81948 6.82347 4.81943 6.82358 4.8194 6.82363C4.81936 6.82372 4.81932 6.8238 5 6.90956ZM8.60135 6.56767L8.41781 6.64713C8.4728 6.77414 8.56077 6.88412 8.67267 6.9654L8.79021 6.80358L8.90775 6.64177C8.85403 6.60275 8.81153 6.54975 8.78489 6.48821L8.60135 6.56767ZM8.79021 6.80358L8.67267 6.9654C8.78459 7.04669 8.91628 7.09625 9.05397 7.10874L9.07204 6.90956L9.09011 6.71038C9.02445 6.70442 8.96145 6.68078 8.90775 6.64177L8.79021 6.80358ZM9.07204 6.90956L9.06734 7.10951C9.42198 7.11785 9.7712 7.19952 10.0933 7.34949L10.1777 7.16818L10.2622 6.98687C9.89009 6.81365 9.48661 6.71926 9.07675 6.70962L9.07204 6.90956ZM10.1777 7.16818L10.0933 7.34949C10.4155 7.49947 10.7037 7.71458 10.9401 7.98156L11.0898 7.84898L11.2395 7.71639C10.9669 7.40842 10.6342 7.16009 10.2622 6.98687L10.1777 7.16818ZM11.0898 7.84898L10.9401 7.98156C11.1765 8.24854 11.356 8.56171 11.4674 8.90165L11.6574 8.83937L11.8475 8.77708C11.7191 8.3854 11.5122 8.02436 11.2395 7.71639L11.0898 7.84898ZM11.6574 8.83937L11.4674 8.90165C11.5788 9.2416 11.6197 9.60103 11.5875 9.95762L11.7867 9.97558L11.9859 9.99354C12.023 9.5828 11.9758 9.16877 11.8475 8.77708L11.6574 8.83937ZM11.7867 9.97558L11.5869 9.96809C11.5822 10.0941 11.6196 10.2182 11.6934 10.3204L11.8556 10.2034L12.0177 10.0863C11.9963 10.0566 11.9852 10.0202 11.9866 9.98306L11.7867 9.97558ZM11.8556 10.2034L11.6934 10.3204C11.7672 10.4227 11.8733 10.4973 11.9947 10.5319L12.0494 10.3395L12.1042 10.1472C12.0697 10.1374 12.0392 10.116 12.0177 10.0863L11.8556 10.2034ZM12.0494 10.3395L12.0265 10.5382C12.3332 10.5737 12.6158 10.7239 12.8183 10.9596L12.97 10.8293L13.1217 10.6989C12.854 10.3873 12.4796 10.188 12.0724 10.1409L12.0494 10.3395ZM12.97 10.8293L12.8183 10.9596C13.0209 11.1953 13.1284 11.4994 13.1193 11.8116L13.3192 11.8174L13.5191 11.8232C13.5312 11.4118 13.3895 11.0105 13.1217 10.6989L12.97 10.8293ZM13.3192 11.8174L13.12 11.8C13.1146 11.8611 13.1238 11.9227 13.1469 11.9797L13.3323 11.9046L13.5177 11.8296C13.5184 11.8313 13.5186 11.8331 13.5185 11.8348L13.3192 11.8174ZM13.3323 11.9046L13.1469 11.9797C13.1699 12.0366 13.2062 12.0874 13.2528 12.1276L13.3835 11.9762L13.5142 11.8248C13.5158 11.8263 13.517 11.8279 13.5177 11.8296L13.3323 11.9046ZM13.3835 11.9762L13.2528 12.1276C13.2994 12.1678 13.3549 12.1964 13.4149 12.2108L13.4615 12.0163L13.5081 11.8218C13.5105 11.8223 13.5126 11.8234 13.5142 11.8248L13.3835 11.9762ZM13.4615 12.0163L13.4149 12.2108C13.4749 12.2251 13.5374 12.2249 13.5973 12.21L13.5491 12.0159L13.5009 11.8218C13.5033 11.8212 13.5058 11.8212 13.5081 11.8218L13.4615 12.0163ZM13.5491 12.0159L13.6017 12.2089C14.0537 12.0857 15.1182 11.861 16.2964 12.0332C17.4681 12.2045 18.7484 12.7667 19.6631 14.218L19.8323 14.1114L20.0015 14.0047C19.0116 12.4342 17.6155 11.8218 16.3543 11.6374C15.0997 11.454 13.975 11.6925 13.4965 11.823L13.5491 12.0159ZM21.6384 15.3135C21.6965 15.5049 21.6964 15.5049 21.6964 15.505C21.6964 15.505 21.6963 15.505 21.6963 15.505C21.6963 15.505 21.6964 15.5049 21.6965 15.5049C21.6968 15.5048 21.6972 15.5047 21.6979 15.5045C21.6992 15.5041 21.7014 15.5035 21.7044 15.5026C21.7105 15.5008 21.7199 15.4981 21.7326 15.4947C21.7579 15.4877 21.796 15.4777 21.8456 15.4657C21.9449 15.4417 22.0902 15.4099 22.2715 15.3797C22.6344 15.3191 23.1388 15.2653 23.7049 15.2914C24.8378 15.3436 26.1981 15.7138 27.1841 16.97L27.3414 16.8465L27.4988 16.7231C26.4159 15.3434 24.9247 14.9471 23.7233 14.8918C23.1222 14.8641 22.5888 14.9212 22.2057 14.9851C22.0139 15.0171 21.8591 15.0509 21.7516 15.0769C21.6978 15.0899 21.6558 15.101 21.6268 15.1089C21.6124 15.1129 21.6011 15.1161 21.5933 15.1183C21.5894 15.1195 21.5864 15.1203 21.5842 15.121C21.5831 15.1213 21.5822 15.1216 21.5816 15.1218C21.5813 15.1219 21.581 15.1219 21.5808 15.122C21.5807 15.122 21.5806 15.1221 21.5805 15.1221C21.5804 15.1221 21.5803 15.1222 21.6384 15.3135ZM24.4298 15.0158C24.6068 15.1088 24.6068 15.1088 24.6068 15.1089C24.6068 15.1089 24.6067 15.1089 24.6068 15.1089C24.6068 15.1089 24.6068 15.1088 24.6069 15.1086C24.6071 15.1082 24.6075 15.1076 24.608 15.1066C24.609 15.1047 24.6107 15.1016 24.613 15.0974C24.6176 15.0889 24.6248 15.076 24.6345 15.059C24.654 15.0251 24.6836 14.975 24.7232 14.9124C24.8023 14.7871 24.921 14.6122 25.0777 14.4164C25.3922 14.0233 25.8536 13.5534 26.4485 13.2265C27.04 12.9015 27.7635 12.7174 28.6155 12.89C29.4709 13.0634 30.477 13.6007 31.6215 14.7593L31.7638 14.6187L31.9061 14.4782C30.7245 13.2821 29.6508 12.6917 28.695 12.498C27.7357 12.3036 26.9164 12.5131 26.2559 12.876C25.5989 13.237 25.0991 13.7494 24.7653 14.1665C24.5979 14.3759 24.4707 14.5631 24.385 14.6987C24.3422 14.7665 24.3096 14.8216 24.2875 14.8601C24.2765 14.8794 24.268 14.8945 24.2622 14.9051C24.2593 14.9104 24.2571 14.9146 24.2555 14.9175C24.2547 14.919 24.2541 14.9202 24.2536 14.9211C24.2534 14.9215 24.2532 14.9219 24.253 14.9222C24.253 14.9223 24.2529 14.9224 24.2528 14.9225C24.2528 14.9226 24.2527 14.9228 24.4298 15.0158ZM36 12.6225C36.1999 12.6154 36.1999 12.6153 36.1999 12.6152C36.1999 12.6151 36.1999 12.615 36.1999 12.6149C36.1998 12.6146 36.1998 12.6143 36.1998 12.614C36.1998 12.6133 36.1998 12.6123 36.1997 12.6112C36.1996 12.6089 36.1995 12.6057 36.1993 12.6016C36.1988 12.5936 36.1982 12.5821 36.1972 12.5674C36.1952 12.538 36.1918 12.4958 36.1862 12.4427C36.175 12.3367 36.1549 12.1867 36.1191 12.008C36.0478 11.6517 35.9132 11.1756 35.6587 10.7049C35.4039 10.2334 35.0263 9.76278 34.4684 9.42685C33.909 9.09 33.1818 8.89683 32.2429 8.9599L32.2564 9.15945L32.2698 9.359C33.137 9.30074 33.7809 9.47979 34.2621 9.76952C34.7448 10.0602 35.0773 10.4705 35.3068 10.8951C35.5368 11.3204 35.6607 11.7556 35.7269 12.0865C35.7599 12.2514 35.7783 12.3891 35.7884 12.4847C35.7935 12.5325 35.7964 12.5697 35.7981 12.5945C35.7989 12.6069 35.7995 12.6162 35.7998 12.6221C35.7999 12.6251 35.8 12.6272 35.8001 12.6284C35.8001 12.6291 35.8001 12.6295 35.8001 12.6297C35.8001 12.6298 35.8001 12.6298 35.8001 12.6298C35.8001 12.6298 35.8001 12.6297 35.8001 12.6297C35.8001 12.6297 35.8001 12.6296 36 12.6225ZM32.2564 9.15945L32.2325 8.96088C31.7527 9.01862 31.2894 9.17231 30.8696 9.41288L30.969 9.58641L31.0684 9.75994C31.4418 9.54597 31.8538 9.40934 32.2803 9.35801L32.2564 9.15945ZM30.969 9.58641L30.8696 9.41288C30.4497 9.65344 30.0819 9.976 29.7877 10.3616L29.9467 10.4829L30.1057 10.6042C30.3677 10.2609 30.695 9.97391 31.0684 9.75994L30.969 9.58641ZM29.9467 10.4829L29.776 10.3787C29.7433 10.4322 29.6936 10.4725 29.6354 10.4932L29.7024 10.6817L29.7694 10.8701C29.9144 10.8185 30.0372 10.7185 30.1174 10.5871L29.9467 10.4829ZM29.7024 10.6817L29.6354 10.4932C29.5772 10.5139 29.5138 10.5139 29.4557 10.4931L29.3884 10.6814L29.3211 10.8698C29.4661 10.9216 29.6244 10.9217 29.7694 10.8701L29.7024 10.6817ZM29.3884 10.6814L29.4591 10.4943C29.1043 10.3603 28.4934 10.19 27.9693 10.3945C27.6971 10.5007 27.4592 10.7038 27.2993 11.0369C27.1422 11.3644 27.0642 11.8088 27.0869 12.3986L27.2867 12.3909L27.4866 12.3832C27.4654 11.8315 27.5407 11.4584 27.6599 11.21C27.7765 10.9671 27.9381 10.836 28.1147 10.7671C28.4882 10.6214 28.9719 10.7379 29.3177 10.8685L29.3884 10.6814ZM27.2867 12.3909H27.0867V12.6887H27.2867H27.4867V12.3909H27.2867ZM21.9341 25.9233L21.7952 25.7793C21.3551 26.2038 20.8582 26.564 20.3189 26.8494L20.4125 27.0262L20.5061 27.2029C21.0785 26.8999 21.6059 26.5176 22.0729 26.0672L21.9341 25.9233ZM20.4125 27.0262L20.3032 26.8587C20.2949 26.8641 20.2853 26.8669 20.2757 26.8669L20.2757 27.0669L20.2757 27.2669C20.3631 27.2669 20.4486 27.2414 20.5218 27.1937L20.4125 27.0262ZM20.2757 27.0669L20.2757 26.8669C20.266 26.8669 20.2565 26.8641 20.2481 26.8587L20.1389 27.0262L20.0296 27.1937C20.1028 27.2414 20.1882 27.2669 20.2757 27.2669L20.2757 27.0669ZM20.1389 27.0262L20.2471 26.858C19.8162 26.5808 18.4917 25.5907 17.9388 23.5454C17.3866 21.5028 17.5921 18.3633 20.311 13.7609L20.1389 13.6592L19.9667 13.5575C17.2125 18.2194 16.9637 21.471 17.5526 23.6498C18.1409 25.8257 19.5529 26.887 20.0306 27.1944L20.1389 27.0262ZM20.1389 13.6592L20.3042 13.7717C20.3061 13.7689 20.3085 13.7668 20.3112 13.7654L20.2174 13.5887L20.1236 13.4121C20.0633 13.4441 20.0118 13.4904 19.9735 13.5468L20.1389 13.6592ZM20.2174 13.5887L20.3112 13.7654C20.3138 13.764 20.3167 13.7633 20.3195 13.7633V13.5633V13.3633C20.2511 13.3633 20.1839 13.3801 20.1236 13.4121L20.2174 13.5887ZM20.3195 13.5633V13.7633C20.3223 13.7633 20.3251 13.764 20.3277 13.7654L20.4216 13.5887L20.5154 13.4121C20.4551 13.3801 20.3878 13.3633 20.3195 13.3633V13.5633ZM20.4216 13.5887L20.3277 13.7654C20.3304 13.7668 20.3328 13.7689 20.3347 13.7717L20.5001 13.6592L20.6655 13.5468C20.6272 13.4904 20.5757 13.4441 20.5154 13.4121L20.4216 13.5887ZM20.5001 13.6592L20.3485 13.7896C20.5425 14.0152 20.8558 14.5454 21.1992 15.2922C21.5397 16.0326 21.9022 16.9694 22.1989 17.9954C22.795 20.056 23.1151 22.4397 22.4993 24.3169L22.6894 24.3792L22.8794 24.4416C23.5334 22.4477 23.1858 19.9677 22.5832 17.8842C22.2806 16.8382 21.9111 15.8827 21.5626 15.125C21.2171 14.3736 20.8846 13.7995 20.6517 13.5288L20.5001 13.6592ZM21.5837 20.5081L21.4235 20.3883L20.3836 21.7779L20.5438 21.8977L20.7039 22.0176L21.7438 20.6279L21.5837 20.5081ZM19.285 19.1516L19.1278 19.2752L20.2991 20.7641L20.4563 20.6405L20.6135 20.5168L19.4422 19.0279L19.285 19.1516ZM19.285 22.4602L19.1292 22.5856L20.3005 24.0414L20.4563 23.916L20.6121 23.7907L19.4409 22.3349L19.285 22.4602ZM12.9909 13.7916C12.8236 13.6819 12.8235 13.682 12.8234 13.6821C12.8234 13.6822 12.8233 13.6824 12.8232 13.6826C12.8229 13.6829 12.8226 13.6834 12.8222 13.6841C12.8213 13.6854 12.8201 13.6872 12.8186 13.6896C12.8154 13.6945 12.8109 13.7016 12.8049 13.7108C12.7931 13.7293 12.7758 13.7566 12.7536 13.7922C12.7092 13.8634 12.6452 13.9679 12.5662 14.1022C12.4081 14.3708 12.1898 14.7589 11.9473 15.2385C11.4627 16.1968 10.8797 17.5248 10.4905 18.9985C9.7144 21.9372 9.69548 25.5249 12.8724 27.8601L12.9909 27.6989L13.1093 27.5378C10.1344 25.3511 10.1155 21.9851 10.8773 19.1006C11.2571 17.6626 11.8276 16.3617 12.3042 15.4189C12.5424 14.948 12.7565 14.5675 12.9109 14.3051C12.9881 14.1739 13.0503 14.0724 13.093 14.0039C13.1143 13.9697 13.1308 13.9437 13.1419 13.9264C13.1474 13.9178 13.1515 13.9113 13.1543 13.9071C13.1557 13.905 13.1567 13.9034 13.1573 13.9025C13.1576 13.902 13.1579 13.9016 13.158 13.9014C13.1581 13.9013 13.1581 13.9012 13.1581 13.9012C13.1581 13.9012 13.1581 13.9012 12.9909 13.7916ZM12.9909 27.6989H12.7909C12.8036 27.7691 12.879 27.8648 12.9255 27.888C12.9501 27.8948 12.9889 27.899 13.0024 27.8987C13.0234 27.8975 13.0396 27.8932 13.0426 27.8924C13.0532 27.8896 13.0619 27.8864 13.0651 27.8852C13.0737 27.8821 13.0827 27.8783 13.0907 27.8748C13.1076 27.8675 13.1301 27.857 13.1572 27.8436C13.2117 27.8165 13.2883 27.7758 13.3819 27.7203C13.5692 27.6094 13.8262 27.4385 14.111 27.1988C14.6805 26.7195 15.3638 25.9625 15.8193 24.858C16.7347 22.6381 16.7037 19.0848 13.1581 13.6818L12.9909 13.7916L12.8237 13.9013C16.3275 19.2404 16.2964 22.6518 15.4495 24.7055C15.0238 25.7379 14.3854 26.445 13.8534 26.8928C13.5874 27.1167 13.3488 27.2751 13.1781 27.3762C13.0927 27.4268 13.0248 27.4627 12.9794 27.4852C12.9566 27.4965 12.9404 27.504 12.9311 27.5081C12.926 27.5103 12.9249 27.5106 12.9268 27.5099C12.9274 27.5097 12.9289 27.5092 12.9308 27.5085C12.9325 27.5079 12.9365 27.5067 12.9417 27.5053C12.9438 27.5048 12.9594 27.5005 12.9799 27.4993C12.9933 27.499 13.0318 27.5032 13.0564 27.51C13.1027 27.5332 13.1781 27.6288 13.1909 27.6989H12.9909ZM12.9909 18.2031L12.7909 18.2057L12.9879 33.0836L13.1879 33.081L13.3879 33.0783L13.1909 18.2004L12.9909 18.2031ZM14.2606 24.3462L14.112 24.2124L12.9407 25.5138L13.0894 25.6476L13.238 25.7814L14.4093 24.48L14.2606 24.3462ZM14.3919 21.2029L14.2554 21.0568L13.0513 22.1817L13.1878 22.3279L13.3244 22.474L14.5285 21.3491L14.3919 21.2029ZM11.8634 19.7912L11.7175 19.9281L13.042 21.3398L13.1879 21.2029L13.3337 21.0661L12.0092 19.6544L11.8634 19.7912ZM11.8634 23.0227L11.7154 23.1573L13.04 24.6131L13.1879 24.4785L13.3358 24.3439L12.0113 22.8881L11.8634 23.0227ZM10.3419 20.4089L10.5291 20.3384C9.92449 18.7313 9.11408 17.2106 8.11839 15.815L7.95558 15.9312L7.79277 16.0473C8.76827 17.4146 9.56231 18.9046 10.1547 20.4793L10.3419 20.4089ZM7.95558 15.9312C7.79279 15.815 7.79272 15.8151 7.79263 15.8152C7.79257 15.8153 7.79245 15.8154 7.79233 15.8156C7.79207 15.816 7.79172 15.8165 7.79127 15.8171C7.79038 15.8184 7.78909 15.8202 7.78743 15.8225C7.7841 15.8273 7.77926 15.8342 7.77298 15.8432C7.76041 15.8612 7.74207 15.8878 7.71857 15.9225C7.67157 15.9919 7.60387 16.0937 7.52027 16.2248C7.35308 16.4869 7.12209 16.8663 6.8656 17.3369C6.35309 18.2773 5.73641 19.5866 5.32469 21.0566C4.50202 23.9939 4.48842 27.6252 7.83372 30.1956L7.95558 30.037L8.07743 29.8784C4.9206 27.4528 4.907 24.0311 5.70987 21.1645C6.11091 19.7326 6.71338 18.4521 7.21683 17.5283C7.46832 17.0669 7.69451 16.6955 7.85751 16.4399C7.939 16.3121 8.00465 16.2134 8.04972 16.1469C8.07225 16.1136 8.08963 16.0884 8.10127 16.0717C8.10709 16.0633 8.11148 16.0571 8.11435 16.053C8.11579 16.051 8.11685 16.0495 8.11752 16.0485C8.11786 16.0481 8.11809 16.0477 8.11824 16.0475C8.11831 16.0474 8.11834 16.0474 8.11837 16.0473C8.11838 16.0473 8.11837 16.0473 7.95558 15.9312ZM7.95558 30.037L8.0714 30.2001C8.87625 29.6284 9.55814 28.8989 10.0763 28.0555L9.90586 27.9508L9.73545 27.8461C9.2454 28.6438 8.6006 29.3335 7.83976 29.874L7.95558 30.037ZM9.90586 27.9508L10.0763 28.0555C10.5944 27.212 10.9381 26.2719 11.0869 25.2916L10.8892 25.2615L10.6915 25.2315C10.5507 26.1591 10.2255 27.0484 9.73545 27.8461L9.90586 27.9508ZM8.03216 20.2655H7.83216V32.717H8.03216H8.23216V20.2655H8.03216ZM6.83905 21.7654L6.66762 21.8684L7.86078 23.8536L8.0322 23.7506L8.20362 23.6476L7.01047 21.6624L6.83905 21.7654ZM9.17058 23.0227L9.01896 22.8923L7.88054 24.2157L8.03216 24.3461L8.18378 24.4766L9.3222 23.1531L9.17058 23.0227ZM6.83905 24.9969L6.68253 25.1214L7.87568 26.6213L8.0322 26.4968L8.18872 26.3723L6.99556 24.8724L6.83905 24.9969ZM9.17058 26.3644L9.02796 26.2242L7.88954 27.3822L8.03216 27.5224L8.17478 27.6627L9.3132 26.5046L9.17058 26.3644ZM5 33.8199L5.07196 34.0065C10.0071 32.1033 15.1972 30.9553 20.4697 30.6005L20.4562 30.401L20.4428 30.2014C15.1302 30.5589 9.90064 31.7157 4.92804 33.6333L5 33.8199ZM20.4562 30.401H20.6562V17.7289H20.4562H20.2562V30.401H20.4562ZM21.3647 33.8309V34.0309H35.4089V33.8309V33.6309H21.3647V33.8309ZM22.6784 31.173H22.4784V33.5773H22.6784H22.8784V31.173H22.6784ZM22.6784 27.8974H22.4784V29.4525H22.6784H22.8784V27.8974H22.6784ZM24.4955 31.3054H24.2955V33.831H24.4955H24.6955V31.3054H24.4955ZM24.4955 27.8974H24.2955V29.3091H24.4955H24.6955V27.8974H24.4955ZM32.2783 31.3054H32.0783V33.831H32.2783H32.4783V31.3054H32.2783ZM32.2783 27.721H32.0783V29.3091H32.2783H32.4783V27.721H32.2783ZM34.0078 31.3054H33.8078V33.831H34.0078H34.2078V31.3054H34.0078ZM34.0078 27.721H33.8078V29.3091H34.0078H34.2078V27.721H34.0078ZM22.6236 24.5226V24.7226H34.2048V24.5226V24.3226H22.6236V24.5226ZM34.2048 24.5226V24.7226C34.4738 24.7226 34.6944 24.9427 34.6944 25.2174H34.8944H35.0944C35.0944 24.7246 34.6976 24.3226 34.2048 24.3226V24.5226ZM34.8944 25.2174H34.6944V27.0262H34.8944H35.0944V25.2174H34.8944ZM34.8944 27.0262H34.6944C34.6944 27.3009 34.4738 27.521 34.2048 27.521V27.721V27.921C34.6976 27.921 35.0944 27.5189 35.0944 27.0262H34.8944ZM34.2048 27.721V27.521H22.6236V27.721V27.921H34.2048V27.721ZM22.6236 27.721V27.521C22.3546 27.521 22.134 27.3009 22.134 27.0262H21.934H21.734C21.734 27.5189 22.1309 27.921 22.6236 27.921V27.721ZM21.934 27.0262H22.134V25.2174H21.934H21.734V27.0262H21.934ZM21.934 25.2174H22.134C22.134 24.9427 22.3546 24.7226 22.6236 24.7226V24.5226V24.3226C22.1309 24.3226 21.734 24.7246 21.734 25.2174H21.934ZM21.7151 29.3753V29.5753H34.9164V29.3753V29.1753H21.7151V29.3753ZM34.9164 29.3753V29.5753C35.3124 29.5753 35.6359 29.8991 35.6359 30.3017H35.8359H36.0359C36.0359 29.681 35.5361 29.1753 34.9164 29.1753V29.3753ZM35.8359 30.3017H35.6359C35.6359 30.7043 35.3124 31.0282 34.9164 31.0282V31.2282V31.4282C35.5361 31.4282 36.0359 30.9224 36.0359 30.3017H35.8359ZM34.9164 31.2282V31.0282H21.7151V31.2282V31.4282H34.9164V31.2282ZM21.7151 31.2282V31.0282C21.3192 31.0282 20.9956 30.7043 20.9956 30.3017H20.7956H20.5956C20.5956 30.9224 21.0954 31.4282 21.7151 31.4282V31.2282ZM20.7956 30.3017H20.9956C20.9956 29.8991 21.3192 29.5753 21.7151 29.5753V29.3753V29.1753C21.0954 29.1753 20.5956 29.681 20.5956 30.3017H20.7956ZM17.03 34.9338L17.168 34.7891L15.7449 33.4325L15.6069 33.5773L15.4689 33.7221L16.892 35.0786L17.03 34.9338ZM17.3146 34.8677L17.4974 34.9489L18.2527 33.2505L18.0699 33.1692L17.8872 33.088L17.1319 34.7864L17.3146 34.8677ZM16.8331 33.081L16.6363 33.1169L16.9866 35.0359L17.1833 35L17.3801 34.9641L17.0298 33.0451L16.8331 33.081Z" fill="#737373"/>
</svg>
