<svg width="40" height="40" viewBox="0 0 40 40" fill="none" xmlns="http://www.w3.org/2000/svg">
<path d="M9.35432 19.867H31.9922M13.3521 26.1507L28.0934 25.9648M12.0155 32.5088H29.4302M6.00011 14.1657V34.2564C5.99843 34.3496 6.01554 34.4422 6.0504 34.5287C6.08526 34.6152 6.13716 34.6937 6.20301 34.7596C6.26886 34.8256 6.3473 34.8776 6.43366 34.9125C6.52001 34.9474 6.6125 34.9645 6.70561 34.9628H8.41367C8.50678 34.9645 8.59927 34.9474 8.68562 34.9125C8.77197 34.8776 8.85042 34.8256 8.91627 34.7596C8.98212 34.6937 9.03402 34.6152 9.06888 34.5287C9.10374 34.4422 9.12084 34.3496 9.11917 34.2564V17.4378C9.11917 17.2537 9.19219 17.0771 9.32218 16.947C9.45216 16.8168 9.62846 16.7437 9.81229 16.7437L31.2867 16.6693C31.3798 16.6676 31.4723 16.6848 31.5587 16.7197C31.645 16.7546 31.7235 16.8066 31.7893 16.8725C31.8552 16.9384 31.9071 17.017 31.9419 17.1035C31.9768 17.1899 31.9939 17.2826 31.9922 17.3758V34.2564C31.9905 34.3496 32.0077 34.4422 32.0425 34.5287C32.0774 34.6152 32.1293 34.6937 32.1951 34.7596C32.261 34.8256 32.3394 34.8776 32.4258 34.9125C32.5121 34.9474 32.6046 34.9645 32.6977 34.9628H34.2944C34.3875 34.9645 34.48 34.9474 34.5663 34.9125C34.6527 34.8776 34.7311 34.8256 34.797 34.7596C34.8628 34.6937 34.9147 34.6152 34.9496 34.5287C34.9845 34.4422 35.0016 34.3496 34.9999 34.2564V14.141C35.0024 13.9364 34.9512 13.7348 34.8512 13.5564C34.7513 13.378 34.6062 13.2291 34.4305 13.1247L21.3973 5.20491C21.1818 5.07097 20.9332 5 20.6795 5C20.4258 5 20.1771 5.07097 19.9616 5.20491L6.59422 13.1247C6.41532 13.2337 6.26697 13.3864 6.16307 13.5685C6.05916 13.7506 6.00309 13.9561 6.00011 14.1657ZM13.2532 26.2251C13.3186 26.1777 13.37 26.1135 13.4017 26.0392L14.7632 22.4697C14.7632 22.4697 14.7632 21.8376 16.2856 21.8376H25.6304C25.6304 21.8376 26.4473 21.6889 27.0043 22.7672L28.1058 25.8409C28.1439 25.9185 28.1941 25.9896 28.2544 26.0516C28.6429 26.4179 28.953 26.8595 29.1657 27.3495C29.3785 27.8396 29.4895 28.3678 29.4921 28.9022V34.4671C29.4921 34.5985 29.4399 34.7246 29.3471 34.8176C29.2542 34.9106 29.1283 34.9628 28.997 34.9628H26.2864C26.1551 34.9628 26.0292 34.9106 25.9363 34.8176C25.8435 34.7246 25.7913 34.5985 25.7913 34.4671V33.1533C25.7913 33.0218 25.7392 32.8957 25.6463 32.8027C25.5535 32.7098 25.4275 32.6575 25.2962 32.6575H16.0752C15.9437 32.6605 15.8182 32.7134 15.724 32.8054C15.6298 32.8974 15.574 33.0217 15.5677 33.1533V34.5166C15.5615 34.645 15.507 34.7661 15.4151 34.8558C15.3233 34.9455 15.2009 34.997 15.0727 35H12.5106C12.3793 35 12.2533 34.9478 12.1605 34.8548C12.0677 34.7618 12.0155 34.6357 12.0155 34.5042V29.2988C11.9424 28.7232 12.0178 28.1385 12.2345 27.6005C12.4512 27.0624 12.8019 26.5889 13.2532 26.2251ZM16.1618 29.6458C16.1618 30.255 15.6021 30.7489 14.9117 30.7489C14.2213 30.7489 13.6616 30.255 13.6616 29.6458C13.6616 29.0366 14.2213 28.5428 14.9117 28.5428C15.6021 28.5428 16.1618 29.0366 16.1618 29.6458ZM27.6107 29.6458C27.6107 30.255 27.051 30.7489 26.3606 30.7489C25.6702 30.7489 25.1105 30.255 25.1105 29.6458C25.1105 29.0366 25.6702 28.5428 26.3606 28.5428C27.051 28.5428 27.6107 29.0366 27.6107 29.6458ZM18.4145 28.6667H22.957C23.2031 28.6667 23.4025 28.8665 23.4025 29.1129V30.0424C23.4025 30.2888 23.2031 30.4886 22.957 30.4886H18.4145C18.1684 30.4886 17.969 30.2888 17.969 30.0424V29.1129C17.969 28.8665 18.1684 28.6667 18.4145 28.6667Z" stroke="#737373" stroke-width="0.4" stroke-miterlimit="10"/>
</svg>
