<svg width="40" height="40" viewBox="0 0 40 40" fill="none" xmlns="http://www.w3.org/2000/svg">
<path d="M16.1828 5L16.1827 5.2H16.1828V5ZM23.8172 5V4.8V5ZM24.6775 14.1273V14.3273H24.8775V14.1273H24.6775ZM15.3226 14.1273H15.1226V14.3273H15.3226V14.1273ZM15.3226 5.90072H15.5228L15.5224 5.89243L15.3226 5.90072ZM6.0753 8.72298L5.8753 8.71586V8.72298H6.0753ZM6.74435 8.07446L6.74423 8.27446H6.74435V8.07446ZM33.3034 8.07446V8.2745L33.3071 8.27443L33.3034 8.07446ZM33.9844 8.72298H34.1846L34.1843 8.71591L33.9844 8.72298ZM6.0753 16.4572V16.2572H5.8753V16.4572H6.0753ZM33.9845 16.4572H34.1845V16.2572H33.9845V16.4572ZM33.9845 34.0753L33.7845 34.0753L33.9845 34.0753ZM6.9833 34.988V35.188V34.988ZM23.0167 20.024V19.824H23.0058L22.995 19.8252L23.0167 20.024ZM30.4361 35V35.2H30.6361V35H30.4361ZM22.6225 35H22.4225V35.2H22.6225V35ZM22.6225 20.4684H22.8225L22.8225 20.4672L22.6225 20.4684ZM11.1291 20.024V19.8238L11.1191 19.8243L11.1291 20.024ZM18.0825 27.518V27.718H18.2825V27.518H18.0825ZM10.675 27.518H10.475V27.718H10.675V27.518ZM10.675 20.5164H10.8751L10.875 20.5112L10.675 20.5164ZM28.856 26.0769C28.856 25.9664 28.7664 25.8769 28.656 25.8769C28.5455 25.8769 28.456 25.9664 28.456 26.0769H28.856ZM28.456 27.0857C28.456 27.1961 28.5455 27.2857 28.656 27.2857C28.7664 27.2857 28.856 27.1961 28.856 27.0857H28.456ZM14.5738 21.9006C14.6552 21.8259 14.6605 21.6993 14.5857 21.618C14.511 21.5367 14.3844 21.5314 14.3031 21.6062L14.5738 21.9006ZM12.3437 23.4076C12.2624 23.4824 12.2571 23.6089 12.3319 23.6902C12.4066 23.7715 12.5332 23.7768 12.6145 23.7021L12.3437 23.4076ZM16.5316 21.902C16.6137 21.8281 16.6203 21.7016 16.5464 21.6196C16.4725 21.5375 16.346 21.5309 16.264 21.6048L16.5316 21.902ZM12.1301 25.3278C12.0481 25.4017 12.0415 25.5281 12.1154 25.6102C12.1893 25.6923 12.3158 25.6989 12.3978 25.625L12.1301 25.3278ZM18.9188 6.92154V6.72154H18.7188V6.92154H18.9188ZM18.9188 8.43475V8.63475H19.1188V8.43475H18.9188ZM17.4134 8.43475V8.23475H17.2134V8.43475H17.4134ZM17.4134 10.5604H17.2134V10.7604H17.4134V10.5604ZM18.9188 10.5604H19.1188V10.3604H18.9188V10.5604ZM18.9188 12.2178H18.7188V12.4178H18.9188V12.2178ZM21.1052 12.2178V12.4178H21.3052V12.2178H21.1052ZM21.1052 10.5364V10.3364H20.9052V10.5364H21.1052ZM22.7181 10.5364V10.7364H22.9181V10.5364H22.7181ZM22.7181 8.43475H22.9181V8.23475H22.7181V8.43475ZM21.1052 8.43475L20.9052 8.43948L20.9098 8.63475H21.1052V8.43475ZM21.0693 6.92154L21.2693 6.9168L21.2646 6.72154H21.0693V6.92154ZM16.1828 5V5.2H23.8172V5V4.8H16.1828V5ZM23.8172 5V5.2C23.992 5.2 24.1598 5.26978 24.2837 5.39432L24.4255 5.25326L24.5673 5.11221C24.3685 4.91243 24.0988 4.8 23.8172 4.8V5ZM24.4255 5.25326L24.2837 5.39432C24.4076 5.51889 24.4775 5.68807 24.4775 5.86469H24.6775H24.8775C24.8775 5.58265 24.766 5.31196 24.5673 5.11221L24.4255 5.25326ZM24.6775 5.86469H24.4775V14.1273H24.6775H24.8775V5.86469H24.6775ZM24.6775 14.1273V13.9273H15.3226V14.1273V14.3273H24.6775V14.1273ZM15.3226 14.1273H15.5226V5.90072H15.3226H15.1226V14.1273H15.3226ZM15.3226 5.90072L15.5224 5.89243C15.5187 5.80269 15.5331 5.71314 15.5647 5.62919L15.3775 5.55874L15.1903 5.4883C15.1398 5.62255 15.1168 5.76565 15.1228 5.90901L15.3226 5.90072ZM15.3775 5.55874L15.5647 5.62919C15.5963 5.54523 15.6444 5.46864 15.7062 5.404L15.5615 5.26587L15.4169 5.12773C15.3179 5.23139 15.2409 5.35405 15.1903 5.4883L15.3775 5.55874ZM15.5615 5.26587L15.7062 5.404C15.7679 5.33936 15.842 5.288 15.9238 5.25296L15.8451 5.06909L15.7665 4.88522C15.6348 4.94156 15.5159 5.02408 15.4169 5.12773L15.5615 5.26587ZM15.8451 5.06909L15.9238 5.25296C16.0057 5.21793 16.0937 5.19992 16.1827 5.2L16.1828 5L16.183 4.8C16.0398 4.79988 15.8981 4.82887 15.7665 4.88522L15.8451 5.06909ZM6.0753 13.9952H6.2753V8.72298H6.0753H5.8753V13.9952H6.0753ZM6.0753 8.72298L6.27517 8.73008C6.27953 8.60738 6.33111 8.49139 6.41871 8.40648L6.27951 8.26287L6.14031 8.11926C5.9783 8.2763 5.88345 8.49022 5.87542 8.71587L6.0753 8.72298ZM6.27951 8.26287L6.41871 8.40648C6.50628 8.3216 6.623 8.27438 6.74423 8.27446L6.74435 8.07446L6.74448 7.87446C6.51895 7.87431 6.30236 7.96219 6.14031 8.11926L6.27951 8.26287ZM6.74435 8.07446V8.27446H15.1792V8.07446V7.87446H6.74435V8.07446ZM24.6774 8.07446V8.27446H33.3034V8.07446V7.87446H24.6774V8.07446ZM33.3034 8.07446L33.3071 8.27443C33.4298 8.27215 33.5486 8.31838 33.638 8.40349L33.7759 8.25865L33.9139 8.11382C33.7485 7.95632 33.5279 7.87025 33.2997 7.8745L33.3034 8.07446ZM33.7759 8.25865L33.638 8.40349C33.7274 8.48862 33.7802 8.60587 33.7846 8.73005L33.9844 8.72298L34.1843 8.71591C34.1762 8.48755 34.0792 8.27129 33.9139 8.11382L33.7759 8.25865ZM33.9844 8.72298H33.7844V14.1513H33.9844H34.1844V8.72298H33.9844ZM5.43011 14.1273V14.3273H34.5699V14.1273V13.9273H5.43011V14.1273ZM34.5699 14.1273V14.3273C34.696 14.3273 34.8 14.4303 34.8 14.5596H35H35.2C35.2 14.2114 34.9189 13.9273 34.5699 13.9273V14.1273ZM35 14.5596H34.8V16.0248H35H35.2V14.5596H35ZM35 16.0248H34.8C34.8 16.1541 34.696 16.2572 34.5699 16.2572V16.4572V16.6572C34.9189 16.6572 35.2 16.3731 35.2 16.0248H35ZM34.5699 16.4572V16.2572H5.43011V16.4572V16.6572H34.5699V16.4572ZM5.43011 16.4572V16.2572C5.304 16.2572 5.2 16.1541 5.2 16.0248H5H4.8C4.8 16.3731 5.08113 16.6572 5.43011 16.6572V16.4572ZM5 16.0248H5.2V14.5596H5H4.8V16.0248H5ZM5 14.5596H5.2C5.2 14.4303 5.304 14.3273 5.43011 14.3273V14.1273V13.9273C5.08113 13.9273 4.8 14.2114 4.8 14.5596H5ZM6.0753 16.4572V16.6572H33.9845V16.4572V16.2572H6.0753V16.4572ZM33.9845 16.4572H33.7845V34.0753H33.9845H34.1845V16.4572H33.9845ZM33.9845 34.0753L33.7845 34.0753C33.7845 34.169 33.7661 34.2618 33.7305 34.3483L33.9154 34.4245L34.1003 34.5007C34.1559 34.3658 34.1845 34.2212 34.1845 34.0753L33.9845 34.0753ZM33.9154 34.4245L33.7305 34.3483C33.6948 34.4349 33.6426 34.5135 33.5768 34.5796L33.7185 34.7207L33.8603 34.8617C33.9632 34.7583 34.0447 34.6357 34.1003 34.5007L33.9154 34.4245ZM33.7185 34.7207L33.5768 34.5796C33.511 34.6457 33.4329 34.6981 33.3471 34.7339L33.424 34.9185L33.5008 35.1031C33.6354 35.0471 33.7575 34.9651 33.8603 34.8617L33.7185 34.7207ZM33.424 34.9185L33.3471 34.7339C33.2613 34.7696 33.1693 34.788 33.0765 34.788V34.988V35.188C33.2221 35.188 33.3663 35.1592 33.5008 35.1031L33.424 34.9185ZM33.0765 34.988V34.788H6.9833V34.988V35.188H33.0765V34.988ZM6.9833 34.988L6.9833 34.788C6.79586 34.788 6.61589 34.7132 6.48303 34.5796L6.34125 34.7207L6.19946 34.8617C6.40717 35.0705 6.68911 35.188 6.9833 35.188L6.9833 34.988ZM6.34125 34.7207L6.48303 34.5796C6.35014 34.446 6.2753 34.2646 6.2753 34.0753H6.0753H5.8753C5.8753 34.37 5.99178 34.653 6.19946 34.8617L6.34125 34.7207ZM6.0753 34.0753H6.2753V16.4572H6.0753H5.8753V34.0753H6.0753ZM23.0167 20.024V20.224H29.994V20.024V19.824H23.0167V20.024ZM29.994 20.024V20.224C30.0257 20.224 30.057 20.2303 30.0863 20.2425L30.1632 20.0578L30.2401 19.8732C30.1621 19.8407 30.0785 19.824 29.994 19.824V20.024ZM30.1632 20.0578L30.0863 20.2425C30.1156 20.2547 30.1423 20.2726 30.1648 20.2952L30.3066 20.1542L30.4484 20.0131C30.3888 19.9532 30.318 19.9057 30.2401 19.8732L30.1632 20.0578ZM30.3066 20.1542L30.1648 20.2952C30.1874 20.3179 30.2053 20.3448 30.2175 20.3745L30.4024 20.2983L30.5874 20.2221C30.5552 20.144 30.508 20.073 30.4484 20.0131L30.3066 20.1542ZM30.4024 20.2983L30.2175 20.3745C30.2298 20.4043 30.2361 20.4361 30.2361 20.4684H30.4361H30.6361C30.6361 20.3839 30.6195 20.3002 30.5874 20.2221L30.4024 20.2983ZM30.4361 20.4684H30.2361V35H30.4361H30.6361V20.4684H30.4361ZM30.4361 35V34.8H22.6225V35V35.2H30.4361V35ZM22.6225 35H22.8225V20.4684H22.6225H22.4225V35H22.6225ZM22.6225 20.4684L22.8225 20.4672C22.8221 20.4064 22.8442 20.3478 22.8842 20.3027L22.7346 20.17L22.585 20.0373C22.4794 20.1563 22.4215 20.3104 22.4225 20.4695L22.6225 20.4684ZM22.7346 20.17L22.8842 20.3027C22.9242 20.2577 22.9792 20.2293 23.0385 20.2228L23.0167 20.024L22.995 19.8252C22.8367 19.8425 22.6907 19.9182 22.585 20.0373L22.7346 20.17ZM11.1291 20.024V20.224H17.6046V20.024V19.824H11.1291V20.024ZM17.6046 20.024V20.224C17.6779 20.224 17.7485 20.2533 17.8007 20.3058L17.9425 20.1647L18.0843 20.0237C17.9572 19.896 17.7847 19.824 17.6046 19.824V20.024ZM17.9425 20.1647L17.8007 20.3058C17.8529 20.3583 17.8825 20.4297 17.8825 20.5044H18.0825H18.2825C18.2825 20.3243 18.2113 20.1513 18.0843 20.0237L17.9425 20.1647ZM18.0825 20.5044H17.8825V27.518H18.0825H18.2825V20.5044H18.0825ZM18.0825 27.518V27.318H10.675V27.518V27.718H18.0825V27.518ZM10.675 27.518H10.875V20.5164H10.675H10.475V27.518H10.675ZM10.675 20.5164L10.875 20.5112C10.8731 20.4377 10.8998 20.3665 10.9493 20.3128L10.8023 20.1773L10.6552 20.0417C10.535 20.1721 10.4705 20.3443 10.4751 20.5216L10.675 20.5164ZM10.8023 20.1773L10.9493 20.3128C10.9987 20.2592 11.0669 20.2274 11.139 20.2238L11.1291 20.024L11.1191 19.8243C10.9419 19.8331 10.7755 19.9113 10.6552 20.0417L10.8023 20.1773ZM10.0657 27.506V27.706H18.8112V27.506V27.306H10.0657V27.506ZM18.8112 27.506V27.706C18.8845 27.706 18.9457 27.766 18.9457 27.8423H19.1457H19.3457C19.3457 27.5471 19.1074 27.306 18.8112 27.306V27.506ZM19.1457 27.8423H18.9457V30.2202H19.1457H19.3457V27.8423H19.1457ZM19.1457 30.2202H18.9457C18.9457 30.2964 18.8845 30.3564 18.8112 30.3564V30.5564V30.7564C19.1074 30.7564 19.3457 30.5154 19.3457 30.2202H19.1457ZM18.8112 30.5564V30.3564H10.0657V30.5564V30.7564H18.8112V30.5564ZM10.0657 30.5564V30.3564C9.99235 30.3564 9.93114 30.2964 9.93114 30.2202H9.73114H9.53114C9.53114 30.5154 9.76947 30.7564 10.0657 30.7564V30.5564ZM9.73114 30.2202H9.93114V27.8423H9.73114H9.53114V30.2202H9.73114ZM9.73114 27.8423H9.93114C9.93114 27.766 9.99234 27.706 10.0657 27.706V27.506V27.306C9.76947 27.306 9.53114 27.5471 9.53114 27.8423H9.73114ZM22.8137 23.5548V23.7548H30.5914V23.5548V23.3548H22.8137V23.5548ZM30.4242 29.8959V29.6959H22.8137V29.8959V30.0959H30.4242V29.8959ZM28.656 26.0769H28.456V27.0857H28.656H28.856V26.0769H28.656ZM14.4385 21.7534L14.3031 21.6062L12.3437 23.4076L12.4791 23.5548L12.6145 23.7021L14.5738 21.9006L14.4385 21.7534ZM16.3978 21.7534L16.264 21.6048L12.1301 25.3278L12.264 25.4764L12.3978 25.625L16.5316 21.902L16.3978 21.7534ZM18.9188 6.92154H18.7188V8.43475H18.9188H19.1188V6.92154H18.9188ZM18.9188 8.43475V8.23475H17.4134V8.43475V8.63475H18.9188V8.43475ZM17.4134 8.43475H17.2134V10.5604H17.4134H17.6134V8.43475H17.4134ZM17.4134 10.5604V10.7604H18.9188V10.5604V10.3604H17.4134V10.5604ZM18.9188 10.5604H18.7188V12.2178H18.9188H19.1188V10.5604H18.9188ZM18.9188 12.2178V12.4178H21.1052V12.2178V12.0178H18.9188V12.2178ZM21.1052 12.2178H21.3052V10.5364H21.1052H20.9052V12.2178H21.1052ZM21.1052 10.5364V10.7364H22.7181V10.5364V10.3364H21.1052V10.5364ZM22.7181 10.5364H22.9181V8.43475H22.7181H22.5181V10.5364H22.7181ZM22.7181 8.43475V8.23475H21.1052V8.43475V8.63475H22.7181V8.43475ZM21.1052 8.43475L21.3051 8.43001L21.2693 6.9168L21.0693 6.92154L20.8694 6.92627L20.9052 8.43948L21.1052 8.43475ZM21.0693 6.92154V6.72154H18.9188V6.92154V7.12154H21.0693V6.92154Z" fill="#737373"/>
</svg>
