<svg width="40" height="40" viewBox="0 0 40 40" fill="none" xmlns="http://www.w3.org/2000/svg">
<path d="M8.36615 26.2402C7.47401 26.31 6.58831 26.4464 5.71645 26.6481C5.5599 26.7012 5.41801 26.7904 5.3022 26.9084C5.1864 27.0264 5.09993 27.17 5.04977 27.3276C4.9996 27.4852 4.98714 27.6524 5.01339 27.8157C5.03964 27.979 5.10387 28.1339 5.2009 28.2678C5.35676 28.5677 5.48865 28.9396 6.51975 28.7117L8.23427 28.3637C8.48215 28.3092 8.7029 28.1691 8.85773 27.9678L10.0567 26.4682M15.8597 24.7885L25.4874 22.845M14.6248 27.056L26.5784 24.8245M33.3405 21.2973C33.916 21.1173 33.928 20.1695 33.928 20.1695V14.7707C33.5563 13.1151 32.5012 12.6952 31.8058 13.571C31.7972 13.6065 31.7972 13.6435 31.8058 13.679C31.7153 14.0615 31.539 14.4185 31.2903 14.7227L29.8396 16.2704C29.6909 16.439 29.5054 16.5711 29.2975 16.6565C29.0895 16.7418 28.8648 16.778 28.6406 16.7623L25.2595 16.5343C25.2595 16.5343 24.1445 16.7143 24.3483 17.5781C24.4083 17.89 24.3483 18.226 25.4034 18.286L29.336 18.6219C29.5188 18.6346 29.7022 18.608 29.8738 18.5438C30.0455 18.4797 30.2014 18.3795 30.3311 18.25C30.9546 17.6141 32.0936 16.4384 32.5492 15.8505C33.1966 15.0227 30.6908 19.5937 30.6908 19.5937L27.1898 20.3135C27.1898 20.3135 26.3626 20.2415 25.9909 21.6452L25.4993 22.845M26.5664 25.0045L26.6623 23.8047C26.6844 23.5139 26.7901 23.2358 26.9667 23.0037C27.1433 22.7717 27.3831 22.5957 27.6574 22.497L30.2711 20.7574L27.7414 23.3848C27.5655 23.9109 27.5365 24.4751 27.6575 25.0165V29.2395C27.6961 29.4846 27.8268 29.7056 28.023 29.8573C28.2192 30.009 28.4659 30.0798 28.7126 30.0554C28.7126 30.0554 29.6957 29.9114 29.7677 29.3115V24.4046C29.7677 24.4046 32.4893 21.4293 31.9258 22.3531C31.686 22.761 30.511 24.0567 30.9546 23.9487C32.2615 23.6248 34.3117 23.4088 35.3788 23.0609C35.7265 22.9409 36.2181 22.641 35.8944 21.6932C35.8509 21.5573 35.7794 21.432 35.6846 21.3254C35.5897 21.2188 35.4735 21.1334 35.3435 21.0746C35.2136 21.0158 35.0727 20.9849 34.9301 20.984C34.7875 20.9831 34.6462 21.0122 34.5155 21.0693L33.1727 21.3333M24.684 25.4124L24.3483 26.96C24.4003 27.1971 24.5413 27.4051 24.742 27.5413C24.9428 27.6774 25.1881 27.7313 25.4274 27.6919C25.4274 27.6919 26.1467 27.7999 26.4225 26.7921L26.5904 25.0165M12.0949 15.4426C12.0949 16.463 11.2682 17.2902 10.2485 17.2902C9.22874 17.2902 8.40208 16.463 8.40208 15.4426C8.40208 14.4222 9.22874 13.595 10.2485 13.595C11.2682 13.595 12.0949 14.4222 12.0949 15.4426ZM32.4892 10.8476C32.4892 11.868 31.6625 12.6952 30.6428 12.6952C29.6231 12.6952 28.7964 11.868 28.7964 10.8476C28.7964 9.8272 29.6231 9 30.6428 9C31.6625 9 32.4892 9.8272 32.4892 10.8476ZM9.39729 18.9698C9.97675 19.7149 10.6099 20.4166 11.2917 21.0693C11.3889 21.1778 11.5097 21.2623 11.6449 21.3164C11.7801 21.3705 11.9259 21.3927 12.071 21.3813L14.9485 21.1293C16.4951 21.3093 15.9556 22.449 15.9556 22.449L12.5985 23.0729C10.9559 23.4568 10.5483 22.8569 10.5483 22.8569C10.5483 22.8569 8.15037 19.7136 8.40216 20.4575C8.65394 21.2013 9.60112 23.3248 9.60112 23.3248C9.6948 23.5276 9.8432 23.7002 10.0296 23.8231C10.216 23.9461 10.433 24.0145 10.6562 24.0207H11.999C14.289 23.8407 14.397 24.2726 14.397 24.2726C14.5777 24.4463 14.694 24.6763 14.7267 24.9249C14.7594 25.1735 14.7065 25.4258 14.5768 25.6403L10.6802 30.4993C10.6093 30.6193 10.5146 30.7234 10.4018 30.8053C10.2891 30.8872 10.1608 30.9452 10.0249 30.9755C9.88894 31.0059 9.74821 31.008 9.6114 30.9818C9.47458 30.9556 9.34459 30.9016 9.22944 30.8232C8.40216 30.5233 8.78582 29.5515 8.78582 29.5515L11.5794 26.0362L10.2126 26.1082C7.01136 26.5041 6.98738 24.7285 6.98738 24.7285C6.66366 19.4497 7.15524 18.6339 7.15524 18.6339C7.52691 17.7581 9.67305 17.4341 9.97279 18.082C10.0567 18.3459 9.24143 18.7539 9.39729 18.9698Z" stroke="#737373" stroke-width="0.4" stroke-miterlimit="10" stroke-linecap="round"/>
</svg>
