<svg width="40" height="40" viewBox="0 0 40 40" fill="none" xmlns="http://www.w3.org/2000/svg">
<path d="M16.786 5.00001L16.7857 5.20001H16.786V5.00001ZM17.4827 5.00001L17.4828 4.80001H17.4827V5.00001ZM24.6509 32.1323V32.3323H24.8509V32.1323H24.6509ZM9.32262 32.1323H9.12262V32.3323H9.32262V32.1323ZM9.32262 12.421V12.221H9.12262V12.421H9.32262ZM24.6509 12.421H24.8509V12.221H24.6509V12.421ZM25.9499 33.373H25.7499H25.9499ZM25.9499 34.5435L25.7499 34.5435L25.9499 34.5435ZM8.61408 35L8.61408 34.8L8.61408 35ZM8.15352 34.5435H7.95352H8.15352ZM13.5739 16.1539C13.4634 16.1539 13.3739 16.2434 13.3739 16.3539C13.3739 16.4643 13.4634 16.5539 13.5739 16.5539V16.1539ZM20.3996 16.5539C20.51 16.5539 20.5996 16.4643 20.5996 16.3539C20.5996 16.2434 20.51 16.1539 20.3996 16.1539V16.5539ZM25.7491 25.5306L25.6246 25.6872L25.7491 25.7861L25.8735 25.6872L25.7491 25.5306ZM9.88944 9.78737L10.0773 9.85597C10.5759 8.49052 11.4875 7.31049 12.688 6.47711L12.574 6.31281L12.4599 6.14852C11.192 7.02869 10.2286 8.27541 9.70157 9.71877L9.88944 9.78737ZM12.574 6.31281L12.688 6.47711C13.8886 5.64371 15.3196 5.19765 16.7857 5.20001L16.786 5.00001L16.7863 4.80001C15.2387 4.79752 13.7279 5.26836 12.4599 6.14852L12.574 6.31281ZM16.786 5.00001V5.20001H17.4827V5.00001V4.80001H16.786V5.00001ZM17.4827 5.00001L17.4826 5.20001C18.942 5.20069 20.366 5.64416 21.5633 6.4706L21.677 6.306L21.7906 6.14141C20.5263 5.26875 19.0231 4.80072 17.4828 4.80001L17.4827 5.00001ZM21.677 6.306L21.5633 6.4706C22.7606 7.29702 23.6737 8.46671 24.1801 9.82225L24.3675 9.75225L24.5548 9.68226C24.0196 8.24965 23.0548 7.01408 21.7906 6.14141L21.677 6.306ZM9.32262 9.79907V9.99907H24.6037V9.79907V9.59907H9.32262V9.79907ZM24.6037 9.79907V9.99907C25.2253 9.99907 25.7263 10.4981 25.7263 11.11H25.9263H26.1263C26.1263 10.2739 25.4429 9.59907 24.6037 9.59907V9.79907ZM25.9263 11.11H25.7263V11.1217H25.9263H26.1263V11.11H25.9263ZM25.9263 11.1217H25.7263C25.7263 11.7336 25.2253 12.2327 24.6037 12.2327V12.4327V12.6327C25.4429 12.6327 26.1263 11.9579 26.1263 11.1217H25.9263ZM24.6037 12.4327V12.2327H9.32262V12.4327V12.6327H24.6037V12.4327ZM9.32262 12.4327V12.2327C8.70094 12.2327 8.2 11.7336 8.2 11.1217H8H7.8C7.8 11.9579 8.48338 12.6327 9.32262 12.6327V12.4327ZM8 11.1217H8.2V11.11H8H7.8V11.1217H8ZM8 11.11H8.2C8.2 10.4981 8.70094 9.99907 9.32262 9.99907V9.79907V9.59907C8.48338 9.59907 7.8 10.2739 7.8 11.11H8ZM24.6509 29.2294H24.4509V32.1323H24.6509H24.8509V29.2294H24.6509ZM24.6509 32.1323V31.9323H9.32262V32.1323V32.3323H24.6509V32.1323ZM9.32262 32.1323H9.52262V12.421H9.32262H9.12262V32.1323H9.32262ZM9.32262 12.421V12.621H24.6509V12.421V12.221H9.32262V12.421ZM24.6509 12.421H24.4509V19.9005H24.6509H24.8509V12.421H24.6509ZM9.4171 32.1206V32.3206H24.6863V32.1206V31.9206H9.4171V32.1206ZM24.6863 32.1206V32.3206C24.969 32.3206 25.2397 32.4319 25.439 32.6294L25.5798 32.4874L25.7206 32.3454C25.446 32.0732 25.0739 31.9206 24.6863 31.9206V32.1206ZM25.5798 32.4874L25.439 32.6294C25.6383 32.827 25.7499 33.0945 25.7499 33.373H25.9499H26.1499C26.1499 32.9872 25.9953 32.6176 25.7206 32.3454L25.5798 32.4874ZM25.9499 33.373H25.7499V34.5435H25.9499H26.1499V33.373H25.9499ZM25.9499 34.5435L25.7499 34.5435C25.7499 34.611 25.7229 34.676 25.6742 34.7243L25.815 34.8663L25.9558 35.0083C26.0799 34.8854 26.1499 34.7182 26.1499 34.5435L25.9499 34.5435ZM25.815 34.8663L25.6742 34.7243C25.6255 34.7726 25.559 34.8 25.4894 34.8V35V35.2C25.664 35.2 25.8318 35.1313 25.9558 35.0083L25.815 34.8663ZM25.4894 35V34.8H8.61408V35V35.2H25.4894V35ZM8.61408 35L8.61408 34.8C8.54441 34.8 8.47794 34.7726 8.42921 34.7243L8.28842 34.8663L8.14762 35.0083C8.27164 35.1313 8.43946 35.2 8.61408 35.2L8.61408 35ZM8.28842 34.8663L8.42921 34.7243C8.38054 34.676 8.35352 34.611 8.35352 34.5435H8.15352H7.95352C7.95352 34.7182 8.02355 34.8854 8.14762 35.0083L8.28842 34.8663ZM8.15352 34.5435H8.35352V33.373H8.15352H7.95352V34.5435H8.15352ZM8.15352 33.373H8.35352C8.35352 33.0945 8.46515 32.827 8.66441 32.6294L8.52362 32.4874L8.38282 32.3454C8.10816 32.6176 7.95352 32.9872 7.95352 33.373H8.15352ZM8.52362 32.4874L8.66441 32.6294C8.86374 32.4319 9.13446 32.3206 9.4171 32.3206V32.1206V31.9206C9.02951 31.9206 8.65743 32.0732 8.38282 32.3454L8.52362 32.4874ZM12.7591 14.6684V14.8684H21.2381V14.6684V14.4684H12.7591V14.6684ZM21.2381 14.6684V14.8684C21.3706 14.8684 21.475 14.9744 21.475 15.1015H21.675H21.875C21.875 14.7501 21.5882 14.4684 21.2381 14.4684V14.6684ZM21.675 15.1015H21.475V17.6063H21.675H21.875V15.1015H21.675ZM21.675 17.6063H21.475C21.475 17.7334 21.3706 17.8394 21.2381 17.8394V18.0394V18.2394C21.5882 18.2394 21.875 17.9576 21.875 17.6063H21.675ZM21.2381 18.0394V17.8394H12.7591V18.0394V18.2394H21.2381V18.0394ZM12.7591 18.0394V17.8394C12.6266 17.8394 12.5222 17.7334 12.5222 17.6063H12.3222H12.1222C12.1222 17.9576 12.409 18.2394 12.7591 18.2394V18.0394ZM12.3222 17.6063H12.5222V15.1015H12.3222H12.1222V17.6063H12.3222ZM12.3222 15.1015H12.5222C12.5222 14.9744 12.6266 14.8684 12.7591 14.8684V14.6684V14.4684C12.409 14.4684 12.1222 14.7501 12.1222 15.1015H12.3222ZM13.5739 16.3539V16.5539H20.3996V16.3539V16.1539H13.5739V16.3539ZM19.5494 20.0176V20.2176H32.256V20.0176V19.8176H19.5494V20.0176ZM32.256 20.0176V20.2176C32.5581 20.2176 32.8 20.4598 32.8 20.755H33H33.2C33.2 20.2356 32.7757 19.8176 32.256 19.8176V20.0176ZM33 20.755H32.8V28.3281H33H33.2V20.755H33ZM33 28.3281H32.8C32.8 28.6233 32.5581 28.8656 32.256 28.8656V29.0656V29.2656C32.7757 29.2656 33.2 28.8475 33.2 28.3281H33ZM32.256 29.0656V28.8656H19.5494V29.0656V29.2656H32.256V29.0656ZM19.5494 29.0656V28.8656C19.2473 28.8656 19.0054 28.6233 19.0054 28.3281H18.8054H18.6054C18.6054 28.8475 19.0297 29.2656 19.5494 29.2656V29.0656ZM18.8054 28.3281H19.0054V20.755H18.8054H18.6054V28.3281H18.8054ZM18.8054 20.755H19.0054C19.0054 20.4598 19.2473 20.2176 19.5494 20.2176V20.0176V19.8176C19.0297 19.8176 18.6054 20.2356 18.6054 20.755H18.8054ZM32.5866 20.0995L32.4622 19.9429L25.6247 25.374L25.7491 25.5306L25.8735 25.6872L32.711 20.2561L32.5866 20.0995ZM25.7491 25.5306L25.8736 25.3741L19.1778 20.0483L19.0533 20.2048L18.9288 20.3614L25.6246 25.6872L25.7491 25.5306ZM19.0533 28.89L19.1741 29.0494L24.7716 24.8122L24.6509 24.6528L24.5302 24.4933L18.9326 28.7305L19.0533 28.89ZM27.06 24.6528L26.9358 24.8095L32.2854 29.0468L32.4095 28.89L32.5337 28.7332L27.1842 24.496L27.06 24.6528ZM9.32262 27.4503V27.6503H18.5928V27.4503V27.2503H9.32262V27.4503Z" fill="#737373"/>
</svg>
