<svg width="40" height="40" viewBox="0 0 40 40" fill="none" xmlns="http://www.w3.org/2000/svg">
<path d="M11.1452 14.1319L11.3098 14.0183L11.2892 13.9884L11.2593 13.9676L11.1452 14.1319ZM10.5244 14.478L10.3261 14.4521L10.321 14.4911L10.331 14.5292L10.5244 14.478ZM11.745 22.2916L11.9449 22.284L11.9447 22.2814L11.745 22.2916ZM11.8502 25.0395L12.0502 25.0395V25.0395H11.8502ZM17.2378 13.209L17.21 13.407L17.8743 13.5004L17.3696 13.0585L17.2378 13.209ZM11.04 14.09L10.8488 14.0313L10.7193 14.4533L11.1219 14.2724L11.04 14.09ZM16.2171 17.8971L16.0764 18.0393L16.4364 18.3957L16.4169 17.8895L16.2171 17.8971ZM11.0715 13.9851L11.0112 13.7944L10.8968 13.8306L10.8749 13.9485L11.0715 13.9851ZM11.0189 14.2683L10.8223 14.2317L10.7885 14.4134L10.9669 14.4614L11.0189 14.2683ZM5 16.9113L4.80784 16.8558L4.64871 17.4074L5.11611 17.0741L5 16.9113ZM10.7559 14.1004L10.8129 14.2921L11.2217 14.1705L10.8668 13.934L10.7559 14.1004ZM5.02105 12.0028L4.92979 11.8249L4.34169 12.1264L4.99832 12.2015L5.02105 12.0028ZM10.9032 14.1004L10.7059 14.1335L10.8293 14.8693L11.0905 14.1705L10.9032 14.1004ZM14.4283 9.06616L14.5582 9.21819L15.0297 8.81523L14.4116 8.86685L14.4283 9.06616ZM8.49359 20.4353L8.32082 20.536L8.62089 21.0506L8.69216 20.4592L8.49359 20.4353ZM30.9383 7C30.9383 6.88954 30.8488 6.8 30.7383 6.8C30.6279 6.8 30.5383 6.88954 30.5383 7H30.9383ZM30.5383 7.99637C30.5383 8.10683 30.6279 8.19637 30.7383 8.19637C30.8488 8.19637 30.9383 8.10683 30.9383 7.99637H30.5383ZM33.719 8.07678C33.7982 7.99976 33.7999 7.87314 33.7229 7.79397C33.6458 7.7148 33.5192 7.71307 33.4401 7.7901L33.719 8.07678ZM32.5562 8.65012C32.477 8.72715 32.4753 8.85377 32.5523 8.93294C32.6293 9.0121 32.7559 9.01384 32.8351 8.93681L32.5562 8.65012ZM33.5268 10.5862C33.4164 10.5862 33.3268 10.6757 33.3268 10.7862C33.3268 10.8967 33.4164 10.9862 33.5268 10.9862V10.5862ZM35 10.9862C35.1105 10.9862 35.2 10.8967 35.2 10.7862C35.2 10.6757 35.1105 10.5862 35 10.5862V10.9862ZM32.84 12.63C32.7636 12.5503 32.637 12.5476 32.5572 12.6241C32.4775 12.7005 32.4748 12.8271 32.5513 12.9069L32.84 12.63ZM33.4562 13.8508C33.5326 13.9305 33.6593 13.9332 33.739 13.8568C33.8187 13.7803 33.8214 13.6537 33.7449 13.574L33.4562 13.8508ZM30.9383 13.5131C30.9383 13.4027 30.8488 13.3131 30.7383 13.3131C30.6279 13.3131 30.5383 13.4027 30.5383 13.5131H30.9383ZM30.5383 14.7612C30.5383 14.8717 30.6279 14.9612 30.7383 14.9612C30.8488 14.9612 30.9383 14.8717 30.9383 14.7612H30.5383ZM28.8908 12.9101C28.969 12.8321 28.9692 12.7055 28.8913 12.6273C28.8133 12.549 28.6867 12.5488 28.6084 12.6268L28.8908 12.9101ZM27.6509 13.5812C27.5726 13.6592 27.5724 13.7858 27.6504 13.8641C27.7284 13.9423 27.855 13.9425 27.9332 13.8645L27.6509 13.5812ZM26.7923 10.5862C26.6819 10.5862 26.5923 10.6757 26.5923 10.7862C26.5923 10.8967 26.6819 10.9862 26.7923 10.9862V10.5862ZM28.0129 10.9862C28.1234 10.9862 28.2129 10.8967 28.2129 10.7862C28.2129 10.6757 28.1234 10.5862 28.0129 10.5862V10.9862ZM28.0426 7.859C27.9668 7.77872 27.8402 7.77514 27.7599 7.851C27.6796 7.92687 27.676 8.05345 27.7519 8.13373L28.0426 7.859ZM28.6042 9.03571C28.6801 9.11599 28.8067 9.11957 28.8869 9.04371C28.9672 8.96784 28.9708 8.84126 28.8949 8.76098L28.6042 9.03571ZM11.8502 32.3707L11.6502 32.3707V32.3707H11.8502ZM10.798 30.5982V30.3982H10.7885L10.7791 30.3991L10.798 30.5982ZM10.4086 30.2836H10.2086V30.295L10.2099 30.3063L10.4086 30.2836ZM10.4086 26.8015L10.2106 26.7733L10.2086 26.7874V26.8015H10.4086ZM10.798 26.4869L10.7846 26.6869H10.798V26.4869ZM14.9019 23.4244H15.1021L15.1016 23.4143L14.9019 23.4244ZM15.5122 22.7531V22.5529L15.5026 22.5534L15.5122 22.7531ZM24.3933 22.7531L24.403 22.5531H24.3933V22.7531ZM25.0036 23.4139L24.8036 23.4071V23.4139H25.0036ZM19.9317 20.9177H19.7317H19.9317ZM30.5806 24.5676V24.3676H30.3806V24.5676H30.5806ZM32.6956 32.1924H32.8956H32.6956ZM30.5806 32.8322H30.3806V33.0322H30.5806V32.8322ZM13.3234 32.8112H13.1234V33.0112H13.3234V32.8112ZM21.1838 18.8201L21.1832 19.0201H21.1838V18.8201ZM29.2231 18.8201V18.6201V18.8201ZM29.6545 20.3723V20.5723H29.8545V20.3723H29.6545ZM20.7523 20.3723H20.5523V20.5723H20.7523V20.3723ZM20.7523 19.2186L20.5529 19.204L20.5523 19.2113V19.2186H20.7523ZM25.0035 15.6107L25.1401 15.7572L25.1473 15.7498L25.0035 15.6107ZM25.3823 15.6107L25.2384 15.7499L25.2439 15.7551L25.3823 15.6107ZM17.9113 29.2243L17.7113 29.2203V29.2243H17.9113ZM20.0158 27.242L20.0085 27.442L20.0158 27.442L20.0158 27.242ZM22.0362 29.2243H22.2362L22.2361 29.2212L22.0362 29.2243ZM16.6697 28.2174C16.6697 28.107 16.5801 28.0174 16.4697 28.0174C16.3592 28.0174 16.2697 28.107 16.2697 28.2174H16.6697ZM16.2697 30.5353C16.2697 30.6458 16.3592 30.7353 16.4697 30.7353C16.5801 30.7353 16.6697 30.6458 16.6697 30.5353H16.2697ZM23.5515 28.2174C23.5515 28.107 23.462 28.0174 23.3515 28.0174C23.2411 28.0174 23.1515 28.107 23.1515 28.2174H23.5515ZM23.1515 30.5353C23.1515 30.6458 23.2411 30.7353 23.3515 30.7353C23.462 30.7353 23.5515 30.6458 23.5515 30.5353H23.1515ZM5.53651 32.6112C5.42605 32.6113 5.33658 32.7009 5.33666 32.8114C5.33675 32.9218 5.42637 33.0113 5.53682 33.0112L5.53651 32.6112ZM32.0433 32.9902C32.1538 32.9901 32.2433 32.9005 32.2432 32.7901C32.2431 32.6796 32.1535 32.5901 32.043 32.5902L32.0433 32.9902ZM13.3971 24.7354H13.5971C13.5971 21.0437 13.0308 18.372 12.4614 16.6187C12.1767 15.7422 11.8913 15.0958 11.6758 14.6665C11.5681 14.4519 11.4778 14.2917 11.4139 14.1842C11.3819 14.1304 11.3565 14.0898 11.3388 14.0623C11.3299 14.0485 11.323 14.0379 11.3181 14.0306C11.3157 14.0269 11.3138 14.0241 11.3124 14.022C11.3117 14.021 11.3111 14.0202 11.3107 14.0196C11.3105 14.0192 11.3103 14.019 11.3101 14.0188C11.3101 14.0187 11.31 14.0185 11.3099 14.0185C11.3099 14.0184 11.3098 14.0183 11.1452 14.1319C10.9806 14.2455 10.9806 14.2455 10.9805 14.2454C10.9805 14.2454 10.9805 14.2453 10.9805 14.2453C10.9805 14.2453 10.9805 14.2454 10.9806 14.2454C10.9807 14.2456 10.9809 14.246 10.9813 14.2466C10.9821 14.2477 10.9834 14.2496 10.9852 14.2524C10.9889 14.2578 10.9946 14.2665 11.0022 14.2784C11.0175 14.3022 11.0405 14.3389 11.0701 14.3886C11.1293 14.4882 11.215 14.6401 11.3183 14.846C11.5251 15.2578 11.8027 15.8856 12.0809 16.7423C12.6374 18.4554 13.1971 21.0854 13.1971 24.7354H13.3971ZM11.1452 14.1319C11.2593 13.9676 11.2593 13.9676 11.2593 13.9676C11.2593 13.9676 11.2592 13.9676 11.2592 13.9676C11.2592 13.9676 11.2591 13.9675 11.2591 13.9675C11.259 13.9674 11.2589 13.9673 11.2588 13.9673C11.2585 13.9671 11.2581 13.9668 11.2577 13.9665C11.2568 13.9659 11.2556 13.9651 11.2541 13.964C11.251 13.962 11.2467 13.959 11.2413 13.9554C11.2306 13.9482 11.2153 13.9382 11.1968 13.9264C11.16 13.9029 11.1089 13.8717 11.0532 13.8417C10.9989 13.8125 10.9333 13.7808 10.8691 13.7601C10.837 13.7498 10.7988 13.7401 10.7585 13.7368C10.7202 13.7337 10.6621 13.7349 10.6035 13.7641L10.6927 13.9431L10.782 14.1221C10.7651 14.1305 10.7506 14.1336 10.7417 14.1348C10.7329 14.136 10.7274 14.1356 10.7263 14.1355C10.7251 14.1354 10.7313 14.136 10.7466 14.1409C10.7771 14.1507 10.818 14.1694 10.8637 14.194C10.908 14.2178 10.9502 14.2435 10.9818 14.2637C10.9975 14.2737 11.0102 14.2821 11.0188 14.2878C11.0231 14.2907 11.0264 14.2929 11.0285 14.2944C11.0296 14.2951 11.0303 14.2956 11.0308 14.2959C11.031 14.2961 11.0311 14.2962 11.0312 14.2962C11.0312 14.2962 11.0312 14.2962 11.0312 14.2962C11.0312 14.2962 11.0312 14.2962 11.0312 14.2962C11.0312 14.2962 11.0311 14.2962 11.0311 14.2962C11.0311 14.2962 11.0311 14.2962 11.1452 14.1319ZM10.6927 13.9431L10.6035 13.7641C10.5433 13.7941 10.5069 13.8424 10.4874 13.8724C10.4657 13.906 10.449 13.9425 10.436 13.9755C10.4098 14.0419 10.3894 14.1184 10.3741 14.1859C10.3584 14.2547 10.3465 14.3209 10.3385 14.3694C10.3345 14.3938 10.3315 14.4141 10.3294 14.4284C10.3283 14.4356 10.3275 14.4413 10.327 14.4453C10.3267 14.4473 10.3265 14.4489 10.3263 14.45C10.3263 14.4506 10.3262 14.4511 10.3262 14.4514C10.3261 14.4516 10.3261 14.4517 10.3261 14.4518C10.3261 14.4519 10.3261 14.4519 10.3261 14.452C10.3261 14.452 10.3261 14.452 10.3261 14.452C10.3261 14.452 10.3261 14.4521 10.5244 14.478C10.7227 14.504 10.7227 14.504 10.7227 14.504C10.7227 14.504 10.7227 14.504 10.7227 14.504C10.7227 14.504 10.7227 14.504 10.7227 14.504C10.7227 14.504 10.7227 14.504 10.7227 14.5039C10.7227 14.5038 10.7227 14.5036 10.7228 14.5032C10.7229 14.5025 10.723 14.5014 10.7232 14.4999C10.7237 14.4968 10.7243 14.4921 10.7252 14.4859C10.727 14.4737 10.7297 14.4559 10.7332 14.4342C10.7404 14.3906 10.7508 14.3329 10.7641 14.2746C10.7777 14.2149 10.7928 14.1609 10.8081 14.1221C10.8158 14.1025 10.8213 14.0928 10.8232 14.0899C10.8273 14.0835 10.8159 14.1052 10.782 14.1221L10.6927 13.9431ZM10.5244 14.478L10.331 14.5292C11.0036 17.0714 11.4105 19.6762 11.5453 22.3019L11.745 22.2916L11.9447 22.2814C11.8086 19.628 11.3974 16.9959 10.7177 14.4269L10.5244 14.478ZM11.745 22.2916L11.5452 22.2993L11.6504 25.0472L11.8502 25.0395L12.0501 25.0319L11.9449 22.284L11.745 22.2916ZM17.2378 13.209C17.3696 13.0585 17.3695 13.0584 17.3694 13.0583C17.3693 13.0583 17.3692 13.0582 17.3691 13.0581C17.3689 13.0579 17.3686 13.0576 17.3682 13.0573C17.3675 13.0567 17.3665 13.0558 17.3652 13.0547C17.3627 13.0525 17.359 13.0493 17.3542 13.0453C17.3447 13.0371 17.3308 13.0254 17.3128 13.0104C17.2768 12.9805 17.2243 12.9377 17.1572 12.8853C17.0231 12.7806 16.8304 12.637 16.5944 12.4808C16.1242 12.1694 15.4737 11.8018 14.7677 11.5934C14.0625 11.3852 13.2793 11.3295 12.565 11.675C11.8468 12.0223 11.2407 12.7544 10.8488 14.0313L11.04 14.09L11.2312 14.1486C11.6022 12.9398 12.1522 12.3189 12.7392 12.035C13.33 11.7493 14.0009 11.7841 14.6544 11.977C15.3071 12.1697 15.9201 12.514 16.3735 12.8143C16.5994 12.9638 16.7836 13.101 16.9109 13.2005C16.9746 13.2502 17.024 13.2905 17.0571 13.3181C17.0737 13.3318 17.0863 13.3424 17.0945 13.3495C17.0986 13.353 17.1017 13.3556 17.1036 13.3573C17.1046 13.3581 17.1053 13.3587 17.1057 13.3591C17.1059 13.3593 17.106 13.3594 17.1061 13.3594C17.1061 13.3595 17.1061 13.3595 17.1061 13.3595C17.1061 13.3595 17.1061 13.3594 17.2378 13.209ZM11.04 14.09L11.1219 14.2724C13.0284 13.4161 15.1393 13.116 17.21 13.407L17.2378 13.209L17.2656 13.0109C15.1204 12.7094 12.9333 13.0203 10.958 13.9075L11.04 14.09ZM16.2171 17.8971C16.4169 17.8895 16.4169 17.8893 16.4169 17.8892C16.4169 17.8891 16.4169 17.889 16.4169 17.8888C16.4169 17.8886 16.4169 17.8882 16.4169 17.8877C16.4168 17.8868 16.4168 17.8856 16.4167 17.884C16.4166 17.8809 16.4164 17.8765 16.4161 17.8708C16.4155 17.8595 16.4145 17.8432 16.413 17.8222C16.4101 17.7803 16.4053 17.7199 16.3973 17.6441C16.3814 17.4924 16.3531 17.2786 16.3033 17.0273C16.2041 16.5263 16.0179 15.868 15.6687 15.256C15.3188 14.6427 14.7998 14.0672 14.0336 13.7521C13.2662 13.4365 12.2778 13.3933 11.0112 13.7944L11.0715 13.9851L11.1319 14.1757C12.3328 13.7955 13.2214 13.8506 13.8815 14.122C14.5427 14.3939 15.0017 14.8941 15.3213 15.4542C15.6415 16.0155 15.8165 16.6282 15.9109 17.105C15.958 17.3425 15.9846 17.5441 15.9995 17.6858C16.0069 17.7566 16.0114 17.8123 16.014 17.8498C16.0153 17.8686 16.0161 17.8828 16.0166 17.8921C16.0169 17.8968 16.017 17.9002 16.0171 17.9023C16.0172 17.9034 16.0172 17.9041 16.0172 17.9045C16.0172 17.9047 16.0172 17.9049 16.0172 17.9049C16.0172 17.9049 16.0172 17.9049 16.0172 17.9049C16.0172 17.9049 16.0172 17.9048 16.2171 17.8971ZM11.0715 13.9851L10.8749 13.9485L10.8223 14.2317L11.0189 14.2683L11.2155 14.3048L11.2682 14.0216L11.0715 13.9851ZM11.0189 14.2683C10.9669 14.4614 10.9669 14.4614 10.9668 14.4613C10.9668 14.4613 10.9667 14.4613 10.9667 14.4613C10.9666 14.4613 10.9666 14.4613 10.9666 14.4613C10.9666 14.4613 10.9667 14.4613 10.967 14.4614C10.9675 14.4615 10.9685 14.4618 10.9701 14.4623C10.9732 14.4631 10.9783 14.4646 10.9853 14.4668C10.9995 14.4711 11.0216 14.478 11.0514 14.4881C11.111 14.5082 11.2013 14.5408 11.3201 14.5896C11.5577 14.6872 11.9095 14.8499 12.3583 15.1077C13.2556 15.6232 14.5414 16.5198 16.0764 18.0393L16.2171 17.8971L16.3578 17.755C14.7991 16.212 13.4858 15.2941 12.5575 14.7608C12.0934 14.4942 11.7258 14.3239 11.4721 14.2196C11.3453 14.1675 11.247 14.1319 11.1794 14.1091C11.1456 14.0977 11.1194 14.0894 11.1013 14.0839C11.0922 14.0812 11.0851 14.0791 11.08 14.0777C11.0775 14.0769 11.0754 14.0764 11.0739 14.076C11.0732 14.0757 11.0725 14.0756 11.072 14.0754C11.0718 14.0754 11.0715 14.0753 11.0714 14.0752C11.0713 14.0752 11.0711 14.0752 11.0711 14.0752C11.071 14.0751 11.0709 14.0751 11.0189 14.2683ZM9.3248 13.3138L9.35309 13.1158C7.66863 12.8752 6.52317 13.8426 5.81617 14.8267C5.46179 15.32 5.21045 15.826 5.04785 16.2073C4.96639 16.3983 4.9068 16.5591 4.8674 16.6726C4.8477 16.7294 4.83302 16.7745 4.82317 16.8057C4.81824 16.8213 4.81451 16.8335 4.81197 16.8419C4.81069 16.8461 4.80972 16.8494 4.80903 16.8517C4.80869 16.8529 4.80841 16.8538 4.80822 16.8545C4.80812 16.8549 4.80804 16.8551 4.80797 16.8553C4.80794 16.8555 4.80791 16.8556 4.80789 16.8556C4.80786 16.8557 4.80784 16.8558 5 16.9113C5.19216 16.9667 5.19215 16.9668 5.19213 16.9668C5.19214 16.9668 5.19213 16.9668 5.19213 16.9668C5.19214 16.9668 5.19217 16.9667 5.19221 16.9665C5.1923 16.9662 5.19246 16.9657 5.19269 16.9649C5.19315 16.9633 5.19389 16.9608 5.19493 16.9574C5.19699 16.9506 5.20021 16.94 5.20461 16.9261C5.21341 16.8982 5.22691 16.8568 5.2453 16.8037C5.28211 16.6977 5.33844 16.5456 5.4158 16.3642C5.57086 16.0005 5.80882 15.5226 6.14103 15.0601C6.80725 14.1328 7.82418 13.3015 9.29652 13.5118L9.3248 13.3138ZM5 16.9113L5.11611 17.0741C6.84776 15.8394 8.77279 14.8994 10.8129 14.2921L10.7559 14.1004L10.6988 13.9088C8.61644 14.5286 6.6515 15.4881 4.88389 16.7484L5 16.9113ZM10.7559 14.1004L10.8668 13.934C9.12327 12.7726 7.12704 12.0424 5.04377 11.8041L5.02105 12.0028L4.99832 12.2015C7.01859 12.4326 8.95438 13.1407 10.645 14.2669L10.7559 14.1004ZM5.02105 12.0028L5.1123 12.1808C6.36324 11.5393 7.32891 11.3583 8.07001 11.428C8.80719 11.4972 9.34084 11.8161 9.72914 12.2123C10.1204 12.6115 10.3658 13.0915 10.5136 13.477C10.5871 13.6689 10.6356 13.8351 10.6655 13.9526C10.6805 14.0113 10.6908 14.0577 10.6973 14.0888C10.7005 14.1044 10.7028 14.1162 10.7042 14.1237C10.7049 14.1275 10.7054 14.1302 10.7057 14.1319C10.7058 14.1327 10.7059 14.1333 10.706 14.1335C10.706 14.1337 10.706 14.1337 10.706 14.1337C10.706 14.1337 10.706 14.1337 10.706 14.1337C10.706 14.1336 10.7059 14.1335 10.9032 14.1004C11.1004 14.0674 11.1004 14.0673 11.1004 14.0671C11.1004 14.067 11.1004 14.0669 11.1003 14.0667C11.1003 14.0664 11.1002 14.0661 11.1001 14.0656C11.1 14.0648 11.0998 14.0636 11.0995 14.0622C11.099 14.0593 11.0983 14.0554 11.0974 14.0503C11.0955 14.0402 11.0927 14.0258 11.0889 14.0076C11.0813 13.971 11.0697 13.9188 11.0531 13.8538C11.02 13.724 10.9671 13.5427 10.8871 13.3339C10.7277 12.918 10.4574 12.3839 10.0148 11.9323C9.5692 11.4777 8.95062 11.1089 8.10743 11.0297C7.26816 10.9509 6.22533 11.1605 4.92979 11.8249L5.02105 12.0028ZM10.9032 14.1004L11.0905 14.1705C11.8071 12.2538 13.0003 10.5498 14.5582 9.21819L14.4283 9.06616L14.2983 8.91412C12.6889 10.2897 11.4563 12.0501 10.7159 14.0304L10.9032 14.1004ZM14.4283 9.06616C14.4116 8.86685 14.4115 8.86686 14.4114 8.86687C14.4114 8.86687 14.4113 8.86688 14.4112 8.86689C14.4109 8.86691 14.4107 8.86693 14.4104 8.86696C14.4097 8.86702 14.4088 8.86709 14.4077 8.86719C14.4055 8.86739 14.4024 8.86768 14.3984 8.86806C14.3904 8.86882 14.3789 8.86997 14.3642 8.87158C14.3347 8.87478 14.2921 8.87981 14.2381 8.88723C14.1301 8.90206 13.9762 8.92648 13.7902 8.96504C13.4188 9.04203 12.9161 9.17608 12.3935 9.40471C11.3516 9.86059 10.1986 10.7086 9.89665 12.2582L10.093 12.2965L10.2893 12.3347C10.5555 10.9687 11.5702 10.2015 12.5539 9.77117C13.0441 9.55668 13.5187 9.42983 13.8714 9.35671C14.0474 9.32022 14.1923 9.29728 14.2925 9.28351C14.3426 9.27663 14.3815 9.27206 14.4075 9.26923C14.4204 9.26782 14.4302 9.26684 14.4365 9.26624C14.4397 9.26594 14.442 9.26573 14.4434 9.2656C14.4441 9.26554 14.4446 9.26549 14.4448 9.26547C14.445 9.26546 14.445 9.26545 14.445 9.26545C14.4451 9.26545 14.445 9.26545 14.445 9.26545C14.445 9.26546 14.4449 9.26546 14.4283 9.06616ZM11.0085 14.3626L10.8511 14.2392C9.45026 16.0256 8.56631 18.16 8.29503 20.4113L8.49359 20.4353L8.69216 20.4592C8.95467 18.2806 9.81009 16.215 11.1659 14.4861L11.0085 14.3626ZM8.49359 20.4353C8.66637 20.3345 8.6664 20.3346 8.66642 20.3346C8.66641 20.3346 8.66642 20.3346 8.6664 20.3346C8.66637 20.3345 8.6663 20.3344 8.66619 20.3342C8.66596 20.3338 8.66556 20.3331 8.66499 20.3321C8.66387 20.3302 8.66208 20.327 8.65969 20.3228C8.6549 20.3143 8.64765 20.3013 8.63827 20.2841C8.6195 20.2497 8.59222 20.1984 8.55902 20.1323C8.49258 20.0001 8.40264 19.8091 8.30975 19.5762C8.12329 19.1087 7.92828 18.4804 7.88288 17.823C7.83752 17.1663 7.94213 16.4943 8.3385 15.9208C8.73344 15.3492 9.43691 14.8482 10.6434 14.5679L10.5981 14.3731L10.5529 14.1783C9.27599 14.4749 8.47472 15.02 8.00943 15.6933C7.54558 16.3646 7.43448 17.136 7.48383 17.8506C7.53313 18.5645 7.74324 19.2355 7.93822 19.7244C8.03605 19.9697 8.13092 20.1712 8.2016 20.3119C8.23696 20.3823 8.26632 20.4375 8.28706 20.4756C8.29743 20.4946 8.30564 20.5093 8.31138 20.5195C8.31425 20.5246 8.31649 20.5285 8.31808 20.5313C8.31888 20.5326 8.3195 20.5337 8.31996 20.5345C8.32019 20.5349 8.32038 20.5352 8.32052 20.5355C8.32059 20.5356 8.32067 20.5357 8.3207 20.5358C8.32077 20.5359 8.32082 20.536 8.49359 20.4353ZM32.5062 10.7862H32.3062C32.3062 11.6483 31.6049 12.3482 30.7384 12.3482V12.5482V12.7482C31.8245 12.7482 32.7062 11.8704 32.7062 10.7862H32.5062ZM30.7384 12.5482V12.3482C29.8719 12.3482 29.1706 11.6483 29.1706 10.7862H28.9706H28.7706C28.7706 11.8704 29.6522 12.7482 30.7384 12.7482V12.5482ZM28.9706 10.7862H29.1706C29.1706 9.92415 29.8719 9.2242 30.7384 9.2242V9.0242V8.8242C29.6522 8.8242 28.7706 9.702 28.7706 10.7862H28.9706ZM30.7384 9.0242V9.2242C31.6049 9.2242 32.3062 9.92415 32.3062 10.7862H32.5062H32.7062C32.7062 9.702 31.8245 8.8242 30.7384 8.8242V9.0242ZM30.7383 7H30.5383V7.99637H30.7383H30.9383V7H30.7383ZM33.5795 7.93344L33.4401 7.7901L32.5562 8.65012L32.6956 8.79346L32.8351 8.93681L33.719 8.07678L33.5795 7.93344ZM33.5268 10.7862V10.9862H35V10.7862V10.5862H33.5268V10.7862ZM32.6956 12.7685L32.5513 12.9069L33.4562 13.8508L33.6006 13.7124L33.7449 13.574L32.84 12.63L32.6956 12.7685ZM30.7383 13.5131H30.5383V14.7612H30.7383H30.9383V13.5131H30.7383ZM28.7496 12.7685L28.6084 12.6268L27.6509 13.5812L27.7921 13.7229L27.9332 13.8645L28.8908 12.9101L28.7496 12.7685ZM26.7923 10.7862V10.9862H28.0129V10.7862V10.5862H26.7923V10.7862ZM27.8973 7.99637L27.7519 8.13373L28.6042 9.03571L28.7496 8.89834L28.8949 8.76098L28.0426 7.859L27.8973 7.99637ZM5.54715 24.599V24.799H11.4083V24.599V24.399H5.54715V24.599ZM11.4083 24.599V24.799C11.5425 24.799 11.6502 24.9073 11.6502 25.0395H11.8502H12.0502C12.0502 24.6852 11.7622 24.399 11.4083 24.399V24.599ZM11.8502 25.0395L11.6502 25.0395L11.6502 32.3707L11.8502 32.3707L12.0502 32.3707L12.0502 25.0395L11.8502 25.0395ZM11.8502 32.3707H11.6502C11.6502 32.5029 11.5425 32.6112 11.4083 32.6112V32.8112V33.0112C11.7622 33.0112 12.0502 32.7251 12.0502 32.3707H11.8502ZM11.4083 32.8112V32.6112H5.54715V32.8112V33.0112H11.4083V32.8112ZM5.54715 32.8112V32.6112C5.41291 32.6112 5.3052 32.5029 5.3052 32.3707H5.1052H4.9052C4.9052 32.7251 5.19323 33.0112 5.54715 33.0112V32.8112ZM5.1052 32.3707H5.3052V25.0395H5.1052H4.9052V32.3707H5.1052ZM5.1052 25.0395H5.3052C5.3052 24.9073 5.41291 24.799 5.54715 24.799V24.599V24.399C5.19323 24.399 4.9052 24.6852 4.9052 25.0395H5.1052ZM7.26234 26.5603V26.7603H8.59871V26.5603V26.3603H7.26234V26.5603ZM8.59871 26.5603V26.7603C8.66322 26.7603 8.71439 26.8123 8.71439 26.875H8.91439H9.11439C9.11439 26.5901 8.8829 26.3603 8.59871 26.3603V26.5603ZM8.91439 26.875H8.71439V30.3465H8.91439H9.11439V26.875H8.91439ZM8.91439 30.3465H8.71439C8.71439 30.4092 8.66322 30.4612 8.59871 30.4612V30.6612V30.8612C8.88289 30.8612 9.11439 30.6314 9.11439 30.3465H8.91439ZM8.59871 30.6612V30.4612H7.26234V30.6612V30.8612H8.59871V30.6612ZM7.26234 30.6612V30.4612C7.19783 30.4612 7.14666 30.4092 7.14666 30.3465H6.94666H6.74666C6.74666 30.6314 6.97816 30.8612 7.26234 30.8612V30.6612ZM6.94666 30.3465H7.14666V26.875H6.94666H6.74666V30.3465H6.94666ZM6.94666 26.875H7.14666C7.14666 26.8123 7.19783 26.7603 7.26234 26.7603V26.5603V26.3603C6.97816 26.3603 6.74666 26.5901 6.74666 26.875H6.94666ZM11.8502 30.5982V30.3982H10.798V30.5982V30.7982H11.8502V30.5982ZM10.798 30.5982L10.7791 30.3991C10.7378 30.403 10.6966 30.3906 10.6645 30.3647L10.5388 30.5202L10.4131 30.6758C10.5266 30.7675 10.6716 30.8111 10.8169 30.7973L10.798 30.5982ZM10.5388 30.5202L10.6645 30.3647C10.6324 30.3387 10.612 30.3014 10.6074 30.2609L10.4086 30.2836L10.2099 30.3063C10.2265 30.4514 10.2995 30.584 10.4131 30.6758L10.5388 30.5202ZM10.4086 30.2836H10.6086V26.8015H10.4086H10.2086V30.2836H10.4086ZM10.4086 26.8015L10.6066 26.8297C10.6126 26.7882 10.6341 26.7502 10.667 26.7236L10.5413 26.568L10.4156 26.4125C10.3042 26.5025 10.2309 26.6314 10.2106 26.7733L10.4086 26.8015ZM10.5413 26.568L10.667 26.7236C10.7 26.6969 10.742 26.6836 10.7846 26.6864L10.798 26.4869L10.8114 26.2873C10.6684 26.2778 10.5271 26.3224 10.4156 26.4125L10.5413 26.568ZM10.798 26.4869V26.6869H11.8502V26.4869V26.2869H10.798V26.4869ZM14.9019 32.7902H15.1019V23.4244H14.9019H14.7019V32.7902H14.9019ZM14.9019 23.4244L15.1016 23.4143C15.0987 23.3566 15.1072 23.2989 15.1267 23.2445L14.9384 23.177L14.7502 23.1096C14.7129 23.2137 14.6965 23.3241 14.7021 23.4345L14.9019 23.4244ZM14.9384 23.177L15.1267 23.2445C15.1462 23.1901 15.1763 23.14 15.2153 23.0971L15.0673 22.9625L14.9193 22.828C14.8449 22.9098 14.7874 23.0055 14.7502 23.1096L14.9384 23.177ZM15.0673 22.9625L15.2153 23.0971C15.2543 23.0542 15.3014 23.0194 15.354 22.9946L15.2688 22.8137L15.1836 22.6327C15.0836 22.6798 14.9937 22.7462 14.9193 22.828L15.0673 22.9625ZM15.2688 22.8137L15.354 22.9946C15.4066 22.9699 15.4636 22.9557 15.5217 22.9529L15.5122 22.7531L15.5026 22.5534C15.3921 22.5586 15.2837 22.5856 15.1836 22.6327L15.2688 22.8137ZM15.5122 22.7531V22.9531H24.3933V22.7531V22.5531H15.5122V22.7531ZM24.3933 22.7531L24.3836 22.9529C24.4997 22.9585 24.6088 23.0095 24.6874 23.0945L24.8343 22.9588L24.9812 22.8231C24.8314 22.6609 24.6237 22.5641 24.403 22.5534L24.3933 22.7531ZM24.8343 22.9588L24.6874 23.0945C24.7659 23.1795 24.8076 23.2918 24.8037 23.4071L25.0036 23.4139L25.2035 23.4207C25.211 23.2 25.1311 22.9854 24.9812 22.8231L24.8343 22.9588ZM25.0036 23.4139H24.8036V32.7798H25.0036H25.2036V23.4139H25.0036ZM19.9317 22.6482H20.1317V20.9177H19.9317H19.7317V22.6482H19.9317ZM19.9317 20.9177L20.1317 20.9177C20.1317 20.8347 20.1648 20.7549 20.2239 20.696L20.0827 20.5543L19.9415 20.4127C19.8072 20.5465 19.7317 20.7282 19.7317 20.9177L19.9317 20.9177ZM20.0827 20.5543L20.2239 20.696C20.283 20.637 20.3634 20.6038 20.4473 20.6038V20.4038V20.2038C20.2577 20.2038 20.0758 20.2788 19.9415 20.4127L20.0827 20.5543ZM20.4473 20.4038V20.6038H29.9177V20.4038V20.2038H20.4473V20.4038ZM29.9177 20.4038V20.6038C30.0016 20.6038 30.0819 20.637 30.1411 20.696L30.2822 20.5543L30.4234 20.4127C30.2892 20.2788 30.1072 20.2038 29.9177 20.2038V20.4038ZM30.2822 20.5543L30.1411 20.696C30.2002 20.7549 30.2333 20.8347 30.2333 20.9177H30.4333H30.6333C30.6333 20.7282 30.5577 20.5465 30.4234 20.4127L30.2822 20.5543ZM30.4333 20.9177H30.2333V33H30.4333H30.6333V20.9177H30.4333ZM27.1291 22.6692V22.8692H28.4865V22.6692V22.4692H27.1291V22.6692ZM28.4865 22.6692V22.8692C28.5162 22.8692 28.5391 22.893 28.5391 22.9209H28.7391H28.9391C28.9391 22.6708 28.7359 22.4692 28.4865 22.4692V22.6692ZM28.7391 22.9209H28.5391V24.2739H28.7391H28.9391V22.9209H28.7391ZM28.7391 24.2739H28.5391C28.5391 24.3018 28.5162 24.3256 28.4865 24.3256V24.5256V24.7256C28.7359 24.7256 28.9391 24.524 28.9391 24.2739H28.7391ZM28.4865 24.5256V24.3256H27.1291V24.5256V24.7256H28.4865V24.5256ZM27.1291 24.5256V24.3256C27.0995 24.3256 27.0766 24.3018 27.0766 24.2739H26.8766H26.6766C26.6766 24.524 26.8798 24.7256 27.1291 24.7256V24.5256ZM26.8766 24.2739H27.0766V22.9209H26.8766H26.6766V24.2739H26.8766ZM26.8766 22.9209H27.0766C27.0766 22.893 27.0995 22.8692 27.1291 22.8692V22.6692V22.4692C26.8798 22.4692 26.6766 22.6708 26.6766 22.9209H26.8766ZM27.0764 26.1513V26.3513H28.4444V26.1513V25.9513H27.0764V26.1513ZM28.4444 26.1513V26.3513C28.4914 26.3513 28.5285 26.3891 28.5285 26.4345H28.7285H28.9285C28.9285 26.167 28.7111 25.9513 28.4444 25.9513V26.1513ZM28.7285 26.4345H28.5285V29.8116H28.7285H28.9285V26.4345H28.7285ZM28.7285 29.8116H28.5285C28.5285 29.8569 28.4914 29.8948 28.4444 29.8948V30.0948V30.2948C28.7111 30.2948 28.9285 30.0791 28.9285 29.8116H28.7285ZM28.4444 30.0948V29.8948H27.0764V30.0948V30.2948H28.4444V30.0948ZM27.0764 30.0948V29.8948C27.0294 29.8948 26.9923 29.8569 26.9923 29.8116H26.7923H26.5923C26.5923 30.0791 26.8097 30.2948 27.0764 30.2948V30.0948ZM26.7923 29.8116H26.9923V26.4345H26.7923H26.5923V29.8116H26.7923ZM26.7923 26.4345H26.9923C26.9923 26.3891 27.0294 26.3513 27.0764 26.3513V26.1513V25.9513C26.8097 25.9513 26.5923 26.167 26.5923 26.4345H26.7923ZM30.5806 24.5676V24.7676H32.0537V24.5676V24.3676H30.5806V24.5676ZM32.0537 24.5676V24.7676C32.1711 24.7676 32.2836 24.8141 32.3664 24.8966L32.5076 24.755L32.6488 24.6133C32.4909 24.4559 32.2768 24.3676 32.0537 24.3676V24.5676ZM32.5076 24.755L32.3664 24.8966C32.4492 24.9791 32.4956 25.0909 32.4956 25.2073H32.6956H32.8956C32.8956 24.9844 32.8068 24.7707 32.6488 24.6133L32.5076 24.755ZM32.6956 25.2073H32.4956V32.1924H32.6956H32.8956V25.2073H32.6956ZM32.6956 32.1924H32.4956C32.4956 32.3088 32.4492 32.4206 32.3664 32.5032L32.5076 32.6448L32.6488 32.7865C32.8068 32.629 32.8956 32.4154 32.8956 32.1924H32.6956ZM32.5076 32.6448L32.3664 32.5032C32.2836 32.5857 32.1711 32.6322 32.0537 32.6322V32.8322V33.0322C32.2768 33.0322 32.4909 32.9439 32.6488 32.7865L32.5076 32.6448ZM32.0537 32.8322V32.6322H30.5806V32.8322V33.0322H32.0537V32.8322ZM30.5806 32.8322H30.7806V24.5676H30.5806H30.3806V32.8322H30.5806ZM14.9018 32.8112V32.6112H13.3234V32.8112V33.0112H14.9018V32.8112ZM13.3234 32.8112H13.5234V24.5256H13.3234H13.1234V32.8112H13.3234ZM13.3234 24.5256V24.7256H14.9018V24.5256V24.3256H13.3234V24.5256ZM13.3234 22.4699H13.1234V24.5256H13.3234H13.5234V22.4699H13.3234ZM21.1838 18.8201V19.0201H29.2231V18.8201V18.6201H21.1838V18.8201ZM29.2231 18.8201L29.2231 19.0201C29.2847 19.0201 29.3436 19.0445 29.3869 19.0877L29.5281 18.946L29.6693 18.8044C29.5508 18.6863 29.3903 18.6201 29.2231 18.6201L29.2231 18.8201ZM29.5281 18.946L29.3869 19.0877C29.4303 19.1309 29.4545 19.1893 29.4545 19.2501H29.6545H29.8545C29.8545 19.0828 29.7878 18.9225 29.6693 18.8044L29.5281 18.946ZM29.6545 19.2501H29.4545V20.3723H29.6545H29.8545V19.2501H29.6545ZM29.6545 20.3723V20.1723H20.7523V20.3723V20.5723H29.6545V20.3723ZM20.7523 20.3723H20.9523V19.2186H20.7523H20.5523V20.3723H20.7523ZM20.7523 19.2186L20.9518 19.2333C20.9561 19.1755 20.9822 19.1212 21.0251 19.0816L20.8893 18.9347L20.7536 18.7878C20.6364 18.8961 20.5646 19.0448 20.5529 19.204L20.7523 19.2186ZM20.8893 18.9347L21.0251 19.0816C21.068 19.042 21.1245 19.0199 21.1832 19.0201L21.1838 18.8201L21.1843 18.6201C21.0247 18.6197 20.8708 18.6795 20.7536 18.7878L20.8893 18.9347ZM21.5626 18.8201L21.699 18.9663L25.1399 15.757L25.0035 15.6107L24.8671 15.4645L21.4262 18.6738L21.5626 18.8201ZM25.0035 15.6107L25.1473 15.7498C25.1531 15.7437 25.1602 15.7389 25.168 15.7355L25.09 15.5514L25.012 15.3672C24.9548 15.3915 24.903 15.427 24.8597 15.4717L25.0035 15.6107ZM25.09 15.5514L25.168 15.7355C25.1759 15.7322 25.1843 15.7305 25.1929 15.7305V15.5305V15.3305C25.1308 15.3305 25.0692 15.343 25.012 15.3672L25.09 15.5514ZM25.1929 15.5305V15.7305C25.2015 15.7305 25.21 15.7322 25.2178 15.7355L25.2958 15.5514L25.3738 15.3672C25.3166 15.343 25.2551 15.3305 25.1929 15.3305V15.5305ZM25.2958 15.5514L25.2178 15.7355C25.2256 15.7389 25.2327 15.7437 25.2386 15.7498L25.3823 15.6107L25.5261 15.4717C25.4829 15.427 25.4311 15.3915 25.3738 15.3672L25.2958 15.5514ZM25.3823 15.6107L25.2439 15.7551L28.5901 18.9644L28.7285 18.8201L28.867 18.6757L25.5208 15.4664L25.3823 15.6107ZM25.214 18.8201L25.414 18.8188L25.393 15.4207L25.193 15.4219L24.993 15.4232L25.014 18.8213L25.214 18.8201ZM16.7012 24.1376V24.3376H17.8061V24.1376V23.9376H16.7012V24.1376ZM17.8061 24.1376V24.3376C17.8648 24.3376 17.9113 24.3848 17.9113 24.4417H18.1113H18.3113C18.3113 24.1626 18.0845 23.9376 17.8061 23.9376V24.1376ZM18.1113 24.4417H17.9113V25.543H18.1113H18.3113V24.4417H18.1113ZM18.1113 25.543H17.9113C17.9113 25.5999 17.8648 25.6471 17.8061 25.6471V25.8471V26.0471C18.0845 26.0471 18.3113 25.822 18.3113 25.543H18.1113ZM17.8061 25.8471V25.6471H16.7012V25.8471V26.0471H17.8061V25.8471ZM16.7012 25.8471V25.6471C16.6425 25.6471 16.5961 25.5999 16.5961 25.543H16.3961H16.1961C16.1961 25.822 16.4229 26.0471 16.7012 26.0471V25.8471ZM16.3961 25.543H16.5961V24.4417H16.3961H16.1961V25.543H16.3961ZM16.3961 24.4417H16.5961C16.5961 24.3848 16.6425 24.3376 16.7012 24.3376V24.1376V23.9376C16.4229 23.9376 16.1961 24.1626 16.1961 24.4417H16.3961ZM19.4055 24.1376V24.3376H20.5104V24.1376V23.9376H19.4055V24.1376ZM20.5104 24.1376V24.3376C20.5691 24.3376 20.6155 24.3848 20.6155 24.4417H20.8155H21.0155C21.0155 24.1626 20.7887 23.9376 20.5104 23.9376V24.1376ZM20.8155 24.4417H20.6155V25.543H20.8155H21.0155V24.4417H20.8155ZM20.8155 25.543H20.6155C20.6155 25.5999 20.5691 25.6471 20.5104 25.6471V25.8471V26.0471C20.7887 26.0471 21.0155 25.822 21.0155 25.543H20.8155ZM20.5104 25.8471V25.6471H19.4055V25.8471V26.0471H20.5104V25.8471ZM19.4055 25.8471V25.6471C19.3468 25.6471 19.3003 25.5999 19.3003 25.543H19.1003H18.9003C18.9003 25.822 19.1271 26.0471 19.4055 26.0471V25.8471ZM19.1003 25.543H19.3003V24.4417H19.1003H18.9003V25.543H19.1003ZM19.1003 24.4417H19.3003C19.3003 24.3848 19.3468 24.3376 19.4055 24.3376V24.1376V23.9376C19.1271 23.9376 18.9003 24.1626 18.9003 24.4417H19.1003ZM22.0992 24.1376V24.3376H23.2041V24.1376V23.9376H22.0992V24.1376ZM23.2041 24.1376V24.3376C23.2628 24.3376 23.3093 24.3848 23.3093 24.4417H23.5093H23.7093C23.7093 24.1626 23.4825 23.9376 23.2041 23.9376V24.1376ZM23.5093 24.4417H23.3093V25.543H23.5093H23.7093V24.4417H23.5093ZM23.5093 25.543H23.3093C23.3093 25.5999 23.2628 25.6471 23.2041 25.6471V25.8471V26.0471C23.4825 26.0471 23.7093 25.822 23.7093 25.543H23.5093ZM23.2041 25.8471V25.6471H22.0992V25.8471V26.0471H23.2041V25.8471ZM22.0992 25.8471V25.6471C22.0405 25.6471 21.9941 25.5999 21.9941 25.543H21.7941H21.5941C21.5941 25.822 21.8209 26.0471 22.0992 26.0471V25.8471ZM21.7941 25.543H21.9941V24.4417H21.7941H21.5941V25.543H21.7941ZM21.7941 24.4417H21.9941C21.9941 24.3848 22.0405 24.3376 22.0992 24.3376V24.1376V23.9376C21.8209 23.9376 21.5941 24.1626 21.5941 24.4417H21.7941ZM27.2028 22.6482V22.8482H28.3077V22.6482V22.4482H27.2028V22.6482ZM28.3077 22.6482V22.8482C28.3664 22.8482 28.4128 22.8955 28.4128 22.9524H28.6128H28.8128C28.8128 22.6733 28.5861 22.4482 28.3077 22.4482V22.6482ZM28.6128 22.9524H28.4128V24.0536H28.6128H28.8128V22.9524H28.6128ZM28.6128 24.0536H28.4128C28.4128 24.1106 28.3664 24.1578 28.3077 24.1578V24.3578V24.5578C28.5861 24.5578 28.8128 24.3327 28.8128 24.0536H28.6128ZM28.3077 24.3578V24.1578H27.2028V24.3578V24.5578H28.3077V24.3578ZM27.2028 24.3578V24.1578C27.1441 24.1578 27.0977 24.1106 27.0977 24.0536H26.8977H26.6977C26.6977 24.3327 26.9244 24.5578 27.2028 24.5578V24.3578ZM26.8977 24.0536H27.0977V22.9524H26.8977H26.6977V24.0536H26.8977ZM26.8977 22.9524H27.0977C27.0977 22.8955 27.1441 22.8482 27.2028 22.8482V22.6482V22.4482C26.9244 22.4482 26.6977 22.6733 26.6977 22.9524H26.8977ZM17.9113 32.7902H18.1113V29.2243H17.9113H17.7113V32.7902H17.9113ZM17.9113 29.2243L18.1112 29.2283C18.1161 28.9864 18.1693 28.7478 18.2676 28.5265L18.0848 28.4453L17.902 28.3641C17.7821 28.634 17.7173 28.9251 17.7113 29.2203L17.9113 29.2243ZM18.0848 28.4453L18.2676 28.5265C18.3659 28.3052 18.5074 28.1056 18.684 27.9393L18.5469 27.7937L18.4097 27.6481C18.1945 27.8508 18.0219 28.0942 17.902 28.3641L18.0848 28.4453ZM18.5469 27.7937L18.684 27.9393C18.8606 27.773 19.0686 27.6433 19.296 27.5579L19.2257 27.3707L19.1554 27.1834C18.8784 27.2875 18.6249 27.4454 18.4097 27.6481L18.5469 27.7937ZM19.2257 27.3707L19.296 27.5579C19.5234 27.4725 19.7656 27.4331 20.0085 27.4419L20.0158 27.242L20.0231 27.0422C19.7273 27.0314 19.4324 27.0794 19.1554 27.1834L19.2257 27.3707ZM20.0158 27.242L20.0158 27.442C20.4939 27.442 20.9528 27.6293 21.2933 27.9634L21.4334 27.8207L21.5734 27.6779C21.158 27.2703 20.5985 27.042 20.0158 27.042L20.0158 27.242ZM21.4334 27.8207L21.2933 27.9634C21.6338 28.2975 21.8287 28.7515 21.8362 29.2274L22.0362 29.2243L22.2361 29.2212C22.227 28.6398 21.9889 28.0856 21.5734 27.6779L21.4334 27.8207ZM22.0362 29.2243H21.8362V32.7902H22.0362H22.2362V29.2243H22.0362ZM16.4697 28.2174H16.2697V30.5353H16.4697H16.6697V28.2174H16.4697ZM23.3515 28.2174H23.1515V30.5353H23.3515H23.5515V28.2174H23.3515ZM5.53666 32.8112L5.53682 33.0112L32.0433 32.9902L32.0432 32.7902L32.043 32.5902L5.53651 32.6112L5.53666 32.8112Z" fill="#737373"/>
</svg>
