<svg width="40" height="40" viewBox="0 0 40 40" fill="none" xmlns="http://www.w3.org/2000/svg">
<path d="M18.9493 15.342C18.9493 15.342 14.9718 17.217 15.6696 20.7193M12.7272 5.07075V12.6179C12.6751 13.1903 12.4991 13.7439 12.2116 14.2392C11.9241 14.7346 11.5322 15.1595 11.064 15.4835C10.9003 15.6086 10.7677 15.7708 10.6768 15.9571C10.5859 16.1434 10.5393 16.3487 10.5407 16.5566V33.4552C10.5724 33.8135 10.4706 34.1709 10.2553 34.4568C10.04 34.7428 9.72688 34.9366 9.37764 35C8.21461 34.8349 8.1332 33.3491 8.1332 33.3491L7.95874 16.5094C7.95922 16.3234 7.91626 16.1398 7.83339 15.9738C7.75051 15.8078 7.63007 15.664 7.4819 15.5542C6.99764 15.2001 6.6087 14.7285 6.35066 14.1826C6.09263 13.6366 5.97373 13.0338 6.00486 12.4292V5.07075M6.23738 12.4293H12.5526M8.1564 5V12.4292M10.4011 5V12.4292M15.2161 10.7665C15.2161 10.7665 23.3573 6.66274 28.4746 13.2076M14.239 28.9976C14.239 28.9976 22.7873 35.1179 29.1723 26.4859M28.1256 20.2005C28.1256 24.4924 24.6941 27.9717 20.4612 27.9717C16.2283 27.9717 12.7969 24.4924 12.7969 20.2005C12.7969 15.9085 16.2283 12.4293 20.4612 12.4293C24.6941 12.4293 28.1256 15.9085 28.1256 20.2005ZM20.7986 15.2712C20.7986 15.4601 20.6476 15.6132 20.4613 15.6132C20.275 15.6132 20.124 15.4601 20.124 15.2712C20.124 15.0824 20.275 14.9292 20.4613 14.9292C20.6476 14.9292 20.7986 15.0824 20.7986 15.2712ZM13.297 27.9127C13.297 28.1537 13.1044 28.3491 12.8667 28.3491C12.6291 28.3491 12.4364 28.1537 12.4364 27.9127C12.4364 27.6718 12.6291 27.4764 12.8667 27.4764C13.1044 27.4764 13.297 27.6718 13.297 27.9127ZM34.6153 5.37735C34.649 5.34817 34.6901 5.32933 34.734 5.32305C34.7778 5.31676 34.8225 5.32329 34.8628 5.34186C34.9031 5.36044 34.9373 5.39029 34.9615 5.42791C34.9856 5.46553 34.9987 5.50935 34.9991 5.55424V33.3962C34.9991 33.3962 35.0689 34.941 33.9524 34.9646C33.6008 34.9345 33.2741 34.7683 33.0402 34.5004C32.8063 34.2325 32.6831 33.8835 32.6963 33.5259V25.0825C32.6942 24.8111 32.5997 24.5487 32.4288 24.3396L31.0797 22.7712C30.82 22.4561 30.6725 22.0615 30.661 21.6509L30.5913 12.9835C30.6705 11.494 31.0721 10.0404 31.7676 8.72584C32.463 7.41133 33.4353 6.26813 34.6153 5.37735Z" stroke="#737373" stroke-width="0.4" stroke-miterlimit="10" stroke-linecap="round"/>
</svg>
