<svg width="40" height="40" viewBox="0 0 40 40" fill="none" xmlns="http://www.w3.org/2000/svg">
<path d="M4.85623 15.3419C4.77944 15.4213 4.78157 15.5479 4.86097 15.6247C4.94038 15.7015 5.06699 15.6994 5.14377 15.62L4.85623 15.3419ZM13.5214 6.66863L13.3803 6.52685L13.3776 6.5296L13.5214 6.66863ZM15.0576 6.66863L14.9164 6.81046L14.9212 6.81491L15.0576 6.66863ZM24.4142 15.6667C24.495 15.742 24.6215 15.7376 24.6969 15.6568C24.7722 15.576 24.7678 15.4495 24.687 15.3741L24.4142 15.6667ZM20.3655 11.342C20.2806 11.4127 20.2691 11.5388 20.3398 11.6237C20.4105 11.7086 20.5366 11.7201 20.6215 11.6494L20.3655 11.342ZM26.809 6.2346L26.6823 6.07985L26.681 6.08093L26.809 6.2346ZM27.4655 6L27.4655 6.2L27.4655 6ZM28.122 6.2346L28.2518 6.08241L28.2487 6.07986L28.122 6.2346ZM35.8702 13.1078C35.9542 13.1795 36.0805 13.1695 36.1522 13.0854C36.2238 13.0014 36.2138 12.8752 36.1298 12.8035L35.8702 13.1078ZM17.3696 8.37413C17.28 8.43877 17.2598 8.56378 17.3245 8.65335C17.3891 8.74292 17.5141 8.76313 17.6037 8.69849L17.3696 8.37413ZM19.9288 6.77384L19.8196 6.60605L19.8118 6.61167L19.9288 6.77384ZM20.6444 6.56134V6.36134V6.56134ZM21.36 6.77384L21.2508 6.9415L21.2551 6.94415L21.36 6.77384ZM23.9468 8.60139C24.0408 8.65931 24.164 8.63 24.222 8.53595C24.2799 8.44189 24.2506 8.31869 24.1565 8.26078L23.9468 8.60139ZM21.2418 20.0055L21.3077 20.1943L21.3581 20.1767L21.3931 20.1363L21.2418 20.0055ZM14.7819 24.8325L14.7301 25.0258L14.7355 25.0271L14.7819 24.8325ZM15.6353 31.2248L15.6858 31.4183L15.6883 31.4176L15.6353 31.2248ZM27.7674 18.6771L27.5975 18.7826L27.6124 18.8067L27.6334 18.8256L27.7674 18.6771ZM24.0778 22.2283L23.9923 22.0475L23.9608 22.0624L23.9363 22.087L24.0778 22.2283ZM28.8571 25.1877L28.9023 24.9926L28.8927 24.9909L28.8571 25.1877ZM35.5797 31.2905L35.7638 31.3687L35.7711 31.3515L35.7751 31.3332L35.5797 31.2905ZM17.2075 23.7325C17.1084 23.6836 16.9885 23.7243 16.9396 23.8233C16.8907 23.9224 16.9314 24.0423 17.0304 24.0912L17.2075 23.7325ZM19.6263 24.0334C19.7152 24.0989 19.8404 24.08 19.9059 23.9911C19.9715 23.9022 19.9526 23.777 19.8637 23.7114L19.6263 24.0334ZM19.268 31.4395C19.1686 31.3912 19.049 31.4325 19.0006 31.5318C18.9523 31.6312 18.9936 31.7509 19.093 31.7992L19.268 31.4395ZM21.6881 31.7279C21.7771 31.7933 21.9023 31.7742 21.9677 31.6851C22.033 31.5961 22.0139 31.471 21.9249 31.4056L21.6881 31.7279ZM21.0812 25.0956C21.0812 25.2061 21.1708 25.2956 21.2812 25.2956C21.3917 25.2956 21.4812 25.2061 21.4812 25.0956L21.0812 25.0956ZM22.1347 24.3854L22.2477 24.2198L22.2358 24.2128L22.1347 24.3854ZM23.4863 23.9508C23.5078 23.8424 23.4374 23.7372 23.329 23.7157C23.2207 23.6942 23.1154 23.7646 23.0939 23.873L23.4863 23.9508ZM22.3564 28.655C22.2738 28.7283 22.2662 28.8547 22.3395 28.9373C22.4127 29.02 22.5391 29.0276 22.6218 28.9543L22.3564 28.655ZM25.1939 28.489L25.0608 28.3397L25.0436 28.355L25.0303 28.3739L25.1939 28.489ZM25.8832 28.2264L25.8832 28.4264L25.8832 28.2264ZM26.4395 28.6383C26.522 28.7118 26.6484 28.7045 26.7219 28.622C26.7953 28.5396 26.788 28.4131 26.7056 28.3397L26.4395 28.6383ZM26.882 30.8144C26.7861 30.7596 26.6639 30.7928 26.6091 30.8886C26.5542 30.9845 26.5874 31.1067 26.6833 31.1616L26.882 30.8144ZM29.4218 30.6329L29.3069 30.7966L29.3259 30.8099L29.3474 30.8185L29.4218 30.6329ZM31.3359 30.3496C31.3829 30.2497 31.3399 30.1306 31.24 30.0836C31.14 30.0366 31.0209 30.0796 30.9739 30.1796L31.3359 30.3496ZM5 15.481L5.14377 15.62L13.6651 6.80766L13.5214 6.66863L13.3776 6.5296L4.85623 15.3419L5 15.481ZM13.5214 6.66863L13.6625 6.81039C13.8292 6.64445 14.0546 6.55138 14.2895 6.55138V6.35138V6.15138C13.9487 6.15138 13.6219 6.2864 13.3803 6.52688L13.5214 6.66863ZM14.2895 6.35138V6.55138C14.5244 6.55138 14.7498 6.64445 14.9165 6.81039L15.0576 6.66863L15.1987 6.52688C14.9571 6.2864 14.6302 6.15138 14.2895 6.15138V6.35138ZM15.0576 6.66863L14.9212 6.81491L24.4142 15.6667L24.5506 15.5204L24.687 15.3741L15.194 6.52236L15.0576 6.66863ZM20.4935 11.4957L20.6215 11.6494L26.937 6.38826L26.809 6.2346L26.681 6.08093L20.3655 11.342L20.4935 11.4957ZM26.809 6.2346L26.9357 6.38933C27.0853 6.26687 27.2724 6.2 27.4655 6.2L27.4655 6L27.4655 5.8C27.18 5.8 26.9033 5.8989 26.6823 6.07986L26.809 6.2346ZM27.4655 6L27.4655 6.2C27.6586 6.2 27.8457 6.26687 27.9953 6.38933L28.122 6.2346L28.2487 6.07986C28.0277 5.8989 27.751 5.8 27.4655 5.8L27.4655 6ZM28.122 6.2346L27.9922 6.38675L35.8702 13.1078L36 12.9556L36.1298 12.8035L28.2518 6.08244L28.122 6.2346ZM17.4866 8.53631L17.6037 8.69849L20.0459 6.93602L19.9288 6.77384L19.8118 6.61167L17.3696 8.37413L17.4866 8.53631ZM19.9288 6.77384L20.038 6.94144C20.2185 6.82389 20.4292 6.76134 20.6444 6.76134V6.56134V6.36134C20.3516 6.36134 20.0651 6.44643 19.8197 6.60624L19.9288 6.77384ZM20.6444 6.56134V6.76134C20.8597 6.76134 21.0703 6.82389 21.2509 6.94144L21.36 6.77384L21.4691 6.60624C21.2237 6.44643 20.9372 6.36134 20.6444 6.36134V6.56134ZM21.36 6.77384L21.2551 6.94415L23.9468 8.60139L24.0516 8.43109L24.1565 8.26078L21.4649 6.60354L21.36 6.77384ZM8.96526 17.3749C8.97478 17.5747 8.97482 17.5747 8.97491 17.5747C8.97502 17.5747 8.97518 17.5747 8.97539 17.5747C8.97583 17.5747 8.97649 17.5746 8.97738 17.5746C8.97916 17.5745 8.98185 17.5744 8.98544 17.5742C8.99261 17.5739 9.00335 17.5734 9.01755 17.5728C9.04595 17.5715 9.08814 17.5697 9.14312 17.5675C9.25307 17.563 9.41415 17.5569 9.61825 17.5503C10.0265 17.5371 10.6066 17.522 11.2938 17.5143C12.6688 17.4989 14.4695 17.5133 16.1778 17.632C17.8935 17.7512 19.4907 17.9742 20.4738 18.3654C20.9723 18.5637 21.2622 18.786 21.3654 19.0125C21.456 19.2111 21.4294 19.483 21.0906 19.8746L21.2418 20.0055L21.3931 20.1363C21.7797 19.6895 21.9135 19.2503 21.7294 18.8465C21.558 18.4706 21.1381 18.1992 20.6217 17.9937C19.575 17.5772 17.9217 17.3522 16.2055 17.233C14.4821 17.1132 12.6695 17.0989 11.2893 17.1143C10.5988 17.1221 10.0158 17.1373 9.60533 17.1505C9.40005 17.1572 9.23787 17.1633 9.12691 17.1678C9.07142 17.1701 9.02874 17.1719 8.99988 17.1732C8.98544 17.1738 8.97446 17.1743 8.96707 17.1746C8.96337 17.1748 8.96056 17.1749 8.95867 17.175C8.95772 17.1751 8.957 17.1751 8.95652 17.1751C8.95627 17.1751 8.95608 17.1752 8.95596 17.1752C8.95582 17.1752 8.95574 17.1752 8.96526 17.3749ZM21.2418 20.0055C21.176 19.8166 21.1759 19.8167 21.1758 19.8167C21.1757 19.8167 21.1756 19.8168 21.1754 19.8168C21.175 19.817 21.1745 19.8171 21.1739 19.8174C21.1725 19.8178 21.1705 19.8185 21.1679 19.8195C21.1627 19.8213 21.155 19.824 21.1449 19.8276C21.1247 19.8347 21.0948 19.8453 21.0562 19.8591C20.9788 19.8867 20.8661 19.9273 20.7242 19.9793C20.4404 20.0833 20.0398 20.2331 19.5723 20.4163C18.6381 20.7824 17.4329 21.2835 16.3567 21.8208C15.8187 22.0895 15.3099 22.3687 14.8821 22.6461C14.4575 22.9215 14.0994 23.2035 13.8745 23.4806C13.6535 23.7528 13.5177 24.0794 13.6833 24.3967C13.8344 24.6862 14.202 24.8843 14.7301 25.0257L14.7819 24.8325L14.8336 24.6393C14.3178 24.5013 14.1044 24.339 14.0379 24.2116C13.986 24.112 13.9961 23.9654 14.185 23.7327C14.37 23.5049 14.6859 23.2502 15.0998 22.9817C15.5105 22.7153 16.005 22.4436 16.5354 22.1787C17.5962 21.649 18.7888 21.153 19.7183 20.7887C20.1826 20.6067 20.5803 20.458 20.8618 20.3548C21.0026 20.3032 21.1142 20.263 21.1906 20.2358C21.2288 20.2221 21.2582 20.2118 21.278 20.2048C21.2878 20.2013 21.2953 20.1987 21.3003 20.1969C21.3028 20.196 21.3047 20.1954 21.3059 20.195C21.3065 20.1947 21.307 20.1946 21.3073 20.1945C21.3074 20.1944 21.3075 20.1944 21.3076 20.1944C21.3077 20.1943 21.3077 20.1943 21.2418 20.0055ZM14.7819 24.8325C14.7355 25.0271 14.7355 25.0271 14.7355 25.0271C14.7356 25.0271 14.7357 25.0271 14.7359 25.0272C14.7362 25.0273 14.7367 25.0274 14.7375 25.0276C14.7389 25.0279 14.7411 25.0284 14.7441 25.0292C14.75 25.0306 14.7589 25.0328 14.7707 25.0357C14.7942 25.0415 14.8292 25.0502 14.8744 25.0617C14.9649 25.0848 15.0965 25.1191 15.2598 25.1641C15.5867 25.254 16.0403 25.3862 16.547 25.555C17.5656 25.8943 18.7796 26.3754 19.6152 26.9505C20.0345 27.2391 20.3372 27.5371 20.4826 27.8337C20.6202 28.1145 20.6225 28.4025 20.4187 28.7196C20.2049 29.0522 19.7582 29.4244 18.9696 29.8197C18.1851 30.213 17.0822 30.6195 15.5823 31.0319L15.6353 31.2248L15.6883 31.4176C17.2018 31.0014 18.3322 30.5867 19.1489 30.1773C19.9615 29.7699 20.484 29.3578 20.7552 28.9358C21.0364 28.4982 21.0395 28.0612 20.8417 27.6576C20.6517 27.2699 20.2826 26.9242 19.842 26.621C18.9575 26.0123 17.6982 25.5168 16.6734 25.1755C16.1585 25.0039 15.6979 24.8698 15.366 24.7784C15.1999 24.7327 15.066 24.6977 14.9733 24.6741C14.9269 24.6623 14.8909 24.6533 14.8663 24.6473C14.8541 24.6443 14.8447 24.642 14.8383 24.6404C14.8351 24.6396 14.8326 24.639 14.8309 24.6386C14.8301 24.6384 14.8295 24.6383 14.829 24.6382C14.8288 24.6381 14.8286 24.6381 14.8285 24.6381C14.8283 24.638 14.8282 24.638 14.7819 24.8325ZM15.6353 31.2248L15.5848 31.0312L4.9495 33.8065L5 34L5.0505 34.1935L15.6858 31.4183L15.6353 31.2248ZM33.6233 16.9541C33.6409 16.7548 33.6408 16.7548 33.6407 16.7548C33.6407 16.7548 33.6405 16.7548 33.6404 16.7548C33.6401 16.7548 33.6398 16.7547 33.6393 16.7547C33.6383 16.7546 33.6369 16.7545 33.6351 16.7543C33.6314 16.754 33.626 16.7536 33.6189 16.753C33.6048 16.7518 33.5839 16.7501 33.5569 16.748C33.5029 16.7438 33.4241 16.738 33.3245 16.7314C33.1254 16.7183 32.8429 16.7023 32.5086 16.6905C31.841 16.6669 30.9625 16.6601 30.1276 16.7284C29.3021 16.796 28.4848 16.9391 27.9632 17.2351C27.6994 17.3849 27.4841 17.5893 27.4044 17.8685C27.3239 18.1507 27.3962 18.4586 27.5975 18.7826L27.7674 18.6771L27.9372 18.5715C27.7708 18.3036 27.7504 18.1139 27.7891 17.9782C27.8287 17.8395 27.9445 17.7057 28.1607 17.583C28.5992 17.3341 29.3379 17.1944 30.1602 17.1271C30.9731 17.0606 31.8343 17.0669 32.4945 17.0902C32.8241 17.1019 33.1025 17.1177 33.2983 17.1306C33.3961 17.137 33.4733 17.1427 33.5259 17.1468C33.5522 17.1488 33.5723 17.1505 33.5858 17.1516C33.5926 17.1522 33.5976 17.1526 33.601 17.1529C33.6027 17.153 33.6039 17.1531 33.6047 17.1532C33.6051 17.1532 33.6054 17.1533 33.6056 17.1533C33.6057 17.1533 33.6057 17.1533 33.6058 17.1533C33.6058 17.1533 33.6058 17.1533 33.6233 16.9541ZM27.7674 18.6771C27.6334 18.8256 27.6332 18.8254 27.633 18.8253C27.633 18.8252 27.6328 18.825 27.6327 18.8249C27.6324 18.8247 27.6322 18.8245 27.632 18.8243C27.6316 18.8239 27.6312 18.8236 27.631 18.8233C27.6304 18.8228 27.6302 18.8226 27.6301 18.8226C27.6301 18.8225 27.6311 18.8235 27.6328 18.8254C27.6363 18.8292 27.6427 18.8367 27.6506 18.848C27.6665 18.8704 27.6877 18.9068 27.703 18.9571C27.7319 19.0524 27.7471 19.2215 27.6198 19.4752C27.3553 20.0021 26.4893 20.8658 23.9923 22.0475L24.0778 22.2283L24.1634 22.4091C26.6689 21.2233 27.6476 20.3114 27.9773 19.6546C28.147 19.3164 28.1467 19.0416 28.0857 18.8409C28.0561 18.7433 28.0138 18.6687 27.9774 18.6172C27.9591 18.5914 27.9423 18.5712 27.929 18.5565C27.9223 18.5492 27.9165 18.5432 27.9118 18.5385C27.9094 18.5362 27.9074 18.5342 27.9056 18.5325C27.9047 18.5317 27.9039 18.531 27.9032 18.5303C27.9028 18.53 27.9025 18.5296 27.9022 18.5293C27.902 18.5292 27.9018 18.529 27.9017 18.5289C27.9015 18.5287 27.9013 18.5285 27.7674 18.6771ZM24.0778 22.2283C23.9363 22.087 23.9361 22.0872 23.936 22.0873C23.9359 22.0874 23.9357 22.0876 23.9356 22.0877C23.9353 22.088 23.9351 22.0882 23.9347 22.0886C23.9341 22.0892 23.9334 22.0899 23.9326 22.0908C23.9309 22.0925 23.9288 22.0947 23.9264 22.0973C23.9215 22.1026 23.9151 22.1097 23.9076 22.1185C23.8925 22.136 23.8727 22.1608 23.8507 22.1921C23.8071 22.2543 23.7535 22.3449 23.7142 22.459C23.6331 22.6939 23.6171 23.0175 23.8417 23.3713C24.0598 23.7147 24.4932 24.0684 25.2656 24.4089C26.0406 24.7505 27.1751 25.087 28.8216 25.3845L28.8571 25.1877L28.8927 24.9909C27.2632 24.6965 26.1624 24.3671 25.427 24.0429C24.689 23.7175 24.3371 23.4053 24.1794 23.1569C24.0282 22.9188 24.0457 22.7245 24.0923 22.5895C24.1167 22.5186 24.1505 22.4612 24.1782 22.4218C24.1919 22.4022 24.2037 22.3876 24.2114 22.3786C24.2153 22.3741 24.2181 22.3711 24.2195 22.3695C24.2202 22.3688 24.2206 22.3684 24.2206 22.3684C24.2206 22.3684 24.2205 22.3685 24.2203 22.3687C24.2202 22.3688 24.22 22.3689 24.2199 22.3691C24.2198 22.3692 24.2197 22.3693 24.2196 22.3693C24.2195 22.3695 24.2194 22.3696 24.0778 22.2283ZM28.8571 25.1877C28.812 25.3825 28.812 25.3825 28.812 25.3825C28.812 25.3825 28.8121 25.3825 28.8122 25.3825C28.8123 25.3826 28.8126 25.3827 28.813 25.3827C28.8138 25.3829 28.815 25.3832 28.8167 25.3836C28.8201 25.3844 28.8253 25.3857 28.8322 25.3873C28.8461 25.3907 28.8669 25.3958 28.8943 25.4026C28.9489 25.4164 29.0294 25.4372 29.1319 25.4653C29.3368 25.5215 29.6292 25.6068 29.9774 25.7225C30.6747 25.9543 31.5915 26.3071 32.4769 26.7918C33.3644 27.2777 34.2068 27.8889 34.7686 28.632C35.3259 29.3692 35.606 30.233 35.3843 31.2479L35.5797 31.2905L35.7751 31.3332C36.0261 30.1844 35.7022 29.2036 35.0877 28.3908C34.4776 27.5839 33.5803 26.9399 32.669 26.441C31.7555 25.9409 30.8145 25.5793 30.1036 25.3429C29.7477 25.2246 29.4484 25.1373 29.2377 25.0795C29.1323 25.0506 29.049 25.0291 28.9918 25.0147C28.9632 25.0075 28.9411 25.0021 28.926 24.9985C28.9185 24.9967 28.9127 24.9953 28.9087 24.9943C28.9067 24.9939 28.9052 24.9935 28.9041 24.9933C28.9036 24.9931 28.9031 24.993 28.9028 24.993C28.9027 24.9929 28.9025 24.9929 28.9025 24.9929C28.9023 24.9928 28.9023 24.9928 28.8571 25.1877ZM35.5797 31.2905L35.3956 31.2123C35.139 31.8164 34.7587 32.3598 34.2793 32.8075L34.4158 32.9536L34.5523 33.0998C35.0726 32.614 35.4853 32.0243 35.7638 31.3687L35.5797 31.2905ZM34.4158 32.9536L34.2793 32.8075C33.7999 33.2551 33.2321 33.5969 32.6127 33.811L32.678 34L32.7433 34.189C33.4157 33.9567 34.032 33.5856 34.5523 33.0998L34.4158 32.9536ZM17.119 23.9119C17.0304 24.0912 17.0305 24.0912 17.0306 24.0913C17.0306 24.0913 17.0307 24.0913 17.0307 24.0913C17.0309 24.0914 17.031 24.0915 17.0311 24.0915C17.0314 24.0917 17.0317 24.0918 17.0321 24.092C17.0329 24.0924 17.0339 24.0929 17.0351 24.0935C17.0376 24.0946 17.0409 24.0962 17.045 24.0981C17.0533 24.102 17.0648 24.1072 17.0793 24.1134C17.1081 24.1258 17.1489 24.1424 17.1984 24.1598C17.2963 24.1941 17.434 24.2337 17.5846 24.2489C17.7339 24.2641 17.9103 24.2569 18.0755 24.1833C18.2474 24.1068 18.3902 23.9656 18.4742 23.7468L18.2875 23.6751L18.1008 23.6034C18.0536 23.7265 17.9846 23.7859 17.9128 23.8179C17.8343 23.8529 17.735 23.8621 17.625 23.851C17.5163 23.84 17.411 23.8104 17.3308 23.7823C17.2913 23.7685 17.2593 23.7554 17.2375 23.7461C17.2267 23.7414 17.2185 23.7377 17.2134 23.7353C17.2108 23.7341 17.209 23.7332 17.208 23.7328C17.2075 23.7325 17.2072 23.7324 17.2071 23.7323C17.2071 23.7323 17.2071 23.7323 17.2071 23.7323C17.2072 23.7324 17.2072 23.7324 17.2073 23.7324C17.2073 23.7324 17.2074 23.7324 17.2074 23.7325C17.2074 23.7325 17.2075 23.7325 17.119 23.9119ZM18.2875 23.6751L18.4742 23.7468C18.4949 23.693 18.5199 23.6656 18.5419 23.6499C18.5649 23.6334 18.5971 23.6209 18.6442 23.6166C18.7451 23.6074 18.8832 23.639 19.0394 23.7025C19.1908 23.7641 19.3379 23.8467 19.4489 23.9154C19.5039 23.9495 19.5489 23.9795 19.58 24.0008C19.5955 24.0114 19.6075 24.0199 19.6154 24.0255C19.6193 24.0283 19.6222 24.0304 19.6241 24.0318C19.625 24.0324 19.6256 24.0329 19.626 24.0332C19.6262 24.0333 19.6263 24.0334 19.6263 24.0334C19.6264 24.0334 19.6264 24.0334 19.6264 24.0334C19.6263 24.0334 19.6263 24.0334 19.6263 24.0334C19.6263 24.0334 19.6263 24.0334 19.745 23.8724C19.8637 23.7114 19.8636 23.7114 19.8636 23.7114C19.8636 23.7114 19.8635 23.7113 19.8635 23.7113C19.8634 23.7112 19.8633 23.7111 19.8632 23.7111C19.8629 23.7109 19.8626 23.7106 19.8622 23.7104C19.8614 23.7098 19.8604 23.709 19.859 23.708C19.8563 23.7061 19.8525 23.7033 19.8476 23.6998C19.8379 23.6929 19.8239 23.6831 19.8062 23.6709C19.7709 23.6467 19.7206 23.6132 19.6595 23.5754C19.5382 23.5003 19.3701 23.4052 19.1901 23.332C19.0147 23.2607 18.8048 23.2003 18.6079 23.2182C18.506 23.2275 18.4018 23.2583 18.3092 23.3246C18.2156 23.3915 18.1458 23.4862 18.1008 23.6034L18.2875 23.6751ZM19.1805 31.6194C19.093 31.7992 19.093 31.7992 19.0931 31.7993C19.0931 31.7993 19.0932 31.7993 19.0933 31.7993C19.0934 31.7994 19.0935 31.7995 19.0936 31.7995C19.0939 31.7997 19.0943 31.7998 19.0947 31.8C19.0954 31.8004 19.0965 31.8009 19.0977 31.8015C19.1002 31.8026 19.1035 31.8042 19.1077 31.8061C19.116 31.8099 19.1277 31.8151 19.1423 31.8213C19.1715 31.8337 19.2127 31.8502 19.2628 31.8675C19.3618 31.9018 19.5009 31.9412 19.6529 31.9565C19.8035 31.9715 19.9813 31.9644 20.1474 31.8911C20.3204 31.8149 20.4646 31.6739 20.5489 31.4543L20.3622 31.3826L20.1755 31.3109C20.1285 31.4333 20.0593 31.4929 19.9861 31.5251C19.906 31.5604 19.8048 31.5697 19.6928 31.5585C19.5822 31.5474 19.4751 31.5177 19.3936 31.4895C19.3534 31.4756 19.3208 31.4625 19.2987 31.4531C19.2876 31.4485 19.2793 31.4447 19.274 31.4423C19.2714 31.4411 19.2696 31.4403 19.2685 31.4398C19.268 31.4395 19.2677 31.4394 19.2676 31.4393C19.2676 31.4393 19.2676 31.4393 19.2676 31.4393C19.2677 31.4394 19.2677 31.4394 19.2678 31.4394C19.2678 31.4394 19.2678 31.4394 19.2679 31.4395C19.2679 31.4395 19.268 31.4395 19.1805 31.6194ZM20.3622 31.3826L20.5489 31.4543C20.5697 31.4001 20.5949 31.3721 20.6171 31.356C20.6402 31.3392 20.6722 31.3265 20.7186 31.3218C20.818 31.3119 20.9541 31.342 21.1084 31.4038C21.258 31.4638 21.4032 31.5446 21.5129 31.6121C21.5673 31.6456 21.6118 31.675 21.6424 31.696C21.6578 31.7064 21.6696 31.7147 21.6773 31.7202C21.6812 31.723 21.6841 31.7251 21.6859 31.7264C21.6868 31.727 21.6875 31.7275 21.6878 31.7278C21.688 31.7279 21.6881 31.728 21.6882 31.728C21.6882 31.728 21.6882 31.728 21.6882 31.728C21.6882 31.728 21.6881 31.728 21.6881 31.728C21.6881 31.728 21.6881 31.7279 21.8065 31.5667C21.9249 31.4056 21.9248 31.4055 21.9248 31.4055C21.9248 31.4055 21.9247 31.4054 21.9247 31.4054C21.9246 31.4053 21.9245 31.4053 21.9244 31.4052C21.9241 31.405 21.9238 31.4048 21.9234 31.4045C21.9226 31.4039 21.9216 31.4031 21.9202 31.4022C21.9175 31.4002 21.9138 31.3975 21.9089 31.3941C21.8993 31.3872 21.8854 31.3775 21.8679 31.3656C21.8329 31.3417 21.7831 31.3087 21.7225 31.2715C21.6024 31.1976 21.4358 31.1041 21.2572 31.0325C21.0832 30.9628 20.8747 30.9042 20.6787 30.9238C20.5773 30.934 20.4739 30.9657 20.3821 31.0323C20.2895 31.0996 20.2203 31.1941 20.1755 31.3109L20.3622 31.3826ZM21.2812 25.0956C21.4812 25.0956 21.4812 25.0957 21.4812 25.0957C21.4812 25.0957 21.4812 25.0958 21.4812 25.0958C21.4812 25.0959 21.4812 25.0959 21.4812 25.0959C21.4812 25.096 21.4812 25.0959 21.4812 25.0958C21.4812 25.0957 21.4812 25.0952 21.4812 25.0944C21.4813 25.093 21.4813 25.0904 21.4814 25.0869C21.4816 25.0799 21.4819 25.069 21.4826 25.055C21.4841 25.0268 21.4871 24.9865 21.493 24.9394C21.5052 24.8427 21.5286 24.7289 21.5707 24.6343C21.6137 24.5374 21.6625 24.4904 21.709 24.4737C21.7515 24.4584 21.8475 24.4489 22.0336 24.5579L22.1347 24.3854L22.2358 24.2128C21.9952 24.0719 21.7711 24.0263 21.5736 24.0973C21.3801 24.1669 21.2688 24.3286 21.2052 24.4718C21.1405 24.6173 21.1106 24.7747 21.0961 24.8893C21.0888 24.9479 21.085 24.9982 21.0832 25.0342C21.0822 25.0523 21.0818 25.0669 21.0815 25.0774C21.0814 25.0826 21.0813 25.0868 21.0813 25.0899C21.0813 25.0914 21.0812 25.0926 21.0812 25.0936C21.0812 25.0941 21.0812 25.0945 21.0812 25.0948C21.0812 25.095 21.0812 25.0951 21.0812 25.0953C21.0812 25.0953 21.0812 25.0954 21.0812 25.0955C21.0812 25.0955 21.0812 25.0956 21.2812 25.0956ZM22.1347 24.3854L22.0219 24.5505C22.1515 24.6389 22.3008 24.6938 22.4568 24.7103L22.4777 24.5114L22.4987 24.3125C22.4086 24.303 22.3223 24.2713 22.2474 24.2202L22.1347 24.3854ZM22.4777 24.5114L22.4568 24.7103C22.6127 24.7267 22.7702 24.7042 22.9153 24.6447L22.8394 24.4597L22.7636 24.2746C22.6798 24.3089 22.5888 24.322 22.4987 24.3125L22.4777 24.5114ZM22.8394 24.4597L22.9153 24.6447C23.0603 24.5853 23.1884 24.4907 23.2881 24.3696L23.1336 24.2426L22.9792 24.1155C22.9215 24.1856 22.8474 24.2402 22.7636 24.2746L22.8394 24.4597ZM23.1336 24.2426L23.2881 24.3696C23.3877 24.2485 23.4558 24.1046 23.4863 23.9508L23.2901 23.9119L23.0939 23.873C23.0763 23.9621 23.0368 24.0454 22.9792 24.1155L23.1336 24.2426ZM22.4891 28.8047C22.6218 28.9543 22.6217 28.9543 22.6217 28.9544C22.6217 28.9544 22.6216 28.9545 22.6216 28.9545C22.6215 28.9545 22.6215 28.9546 22.6214 28.9546C22.6214 28.9547 22.6213 28.9547 22.6213 28.9547C22.6214 28.9546 22.6216 28.9545 22.622 28.9541C22.6228 28.9534 22.6243 28.9521 22.6266 28.9502C22.631 28.9465 22.6382 28.9406 22.6479 28.9331C22.6673 28.9179 22.6965 28.8962 22.7334 28.8718C22.8082 28.8226 22.9104 28.7657 23.025 28.7286C23.1397 28.6914 23.2586 28.6766 23.3729 28.7007C23.4838 28.7241 23.606 28.787 23.7271 28.9326L23.8809 28.8047L24.0346 28.6767C23.8603 28.4672 23.6609 28.3526 23.4553 28.3093C23.2534 28.2668 23.0612 28.2964 22.9018 28.348C22.7424 28.3997 22.6073 28.476 22.5135 28.5377C22.4662 28.5689 22.4281 28.5971 22.4014 28.618C22.3881 28.6284 22.3775 28.6371 22.3699 28.6435C22.3661 28.6466 22.3631 28.6492 22.3608 28.6512C22.3597 28.6521 22.3587 28.653 22.358 28.6536C22.3576 28.6539 22.3573 28.6542 22.3571 28.6544C22.3569 28.6546 22.3568 28.6547 22.3567 28.6548C22.3566 28.6548 22.3566 28.6549 22.3565 28.6549C22.3565 28.655 22.3564 28.655 22.4891 28.8047ZM23.8809 28.8047L23.7271 28.9326C23.9057 29.1472 24.1131 29.2496 24.3304 29.2549C24.538 29.26 24.7242 29.1756 24.869 29.0801C25.0155 28.9836 25.137 28.8643 25.2202 28.7723C25.2623 28.7258 25.2958 28.6848 25.3191 28.6551C25.3308 28.6402 25.3399 28.628 25.3464 28.6193C25.3496 28.615 25.3521 28.6115 25.354 28.6089C25.3549 28.6076 25.3557 28.6066 25.3562 28.6058C25.3565 28.6054 25.3568 28.605 25.357 28.6048C25.3571 28.6046 25.3572 28.6045 25.3572 28.6044C25.3573 28.6043 25.3573 28.6043 25.3573 28.6042C25.3574 28.6042 25.3574 28.6041 25.1939 28.489C25.0303 28.3739 25.0304 28.3738 25.0304 28.3738C25.0304 28.3738 25.0304 28.3737 25.0305 28.3737C25.0305 28.3736 25.0305 28.3736 25.0305 28.3736C25.0305 28.3736 25.0305 28.3736 25.0305 28.3737C25.0303 28.3739 25.03 28.3743 25.0296 28.3749C25.0287 28.3762 25.0271 28.3784 25.0249 28.3813C25.0204 28.3873 25.0135 28.3965 25.0043 28.4083C24.9858 28.4319 24.9583 28.4655 24.9235 28.504C24.8528 28.5822 24.7568 28.675 24.6489 28.7462C24.5393 28.8184 24.4341 28.8573 24.3402 28.855C24.256 28.853 24.1515 28.8173 24.0346 28.6767L23.8809 28.8047ZM25.1939 28.489L25.3269 28.6383C25.4802 28.5017 25.6782 28.4264 25.8832 28.4264L25.8832 28.2264L25.8832 28.0264C25.58 28.0264 25.2873 28.1379 25.0608 28.3397L25.1939 28.489ZM25.8832 28.2264L25.8832 28.4264C26.0882 28.4264 26.2862 28.5017 26.4395 28.6383L26.5725 28.489L26.7056 28.3397C26.4791 28.1379 26.1864 28.0264 25.8832 28.0264L25.8832 28.2264ZM26.7826 30.988C26.6833 31.1616 26.6834 31.1616 26.6834 31.1617C26.6835 31.1617 26.6836 31.1617 26.6836 31.1618C26.6838 31.1619 26.6839 31.1619 26.6841 31.162C26.6844 31.1622 26.6847 31.1624 26.6851 31.1626C26.686 31.1631 26.687 31.1637 26.6882 31.1644C26.6907 31.1657 26.694 31.1675 26.698 31.1697C26.7061 31.174 26.7172 31.1797 26.7311 31.1865C26.7588 31.2 26.7979 31.2178 26.8456 31.2359C26.9396 31.2718 27.0736 31.3118 27.2236 31.3208C27.3745 31.3299 27.5501 31.3079 27.7154 31.2101C27.8827 31.111 28.0199 30.9458 28.1119 30.704L27.9249 30.6329L27.738 30.5618C27.6724 30.7343 27.588 30.8206 27.5116 30.8658C27.4332 30.9122 27.3429 30.9273 27.2476 30.9215C27.1515 30.9158 27.059 30.8892 26.9881 30.8622C26.9532 30.8489 26.9252 30.8361 26.9064 30.827C26.8971 30.8224 26.8902 30.8188 26.886 30.8166C26.8839 30.8155 26.8825 30.8147 26.8818 30.8143C26.8814 30.8141 26.8813 30.814 26.8813 30.8141C26.8813 30.8141 26.8814 30.8141 26.8815 30.8142C26.8816 30.8142 26.8816 30.8142 26.8817 30.8143C26.8818 30.8143 26.8818 30.8143 26.8818 30.8143C26.8819 30.8144 26.882 30.8144 26.7826 30.988ZM27.9249 30.6329L28.1119 30.704C28.1685 30.5551 28.2516 30.4995 28.3403 30.4773C28.4439 30.4514 28.5798 30.466 28.7324 30.5132C28.8815 30.5593 29.0255 30.6299 29.1345 30.6909C29.1885 30.7211 29.2325 30.7481 29.2627 30.7674C29.2778 30.7771 29.2893 30.7847 29.2969 30.7898C29.3006 30.7923 29.3034 30.7942 29.3051 30.7954C29.306 30.796 29.3065 30.7964 29.3069 30.7966C29.307 30.7967 29.3071 30.7967 29.3071 30.7968C29.3071 30.7968 29.3071 30.7968 29.3071 30.7967C29.3071 30.7967 29.307 30.7967 29.307 30.7967C29.307 30.7967 29.3069 30.7966 29.4218 30.6329C29.5366 30.4691 29.5365 30.4691 29.5365 30.4691C29.5365 30.469 29.5364 30.469 29.5363 30.469C29.5362 30.4689 29.5361 30.4688 29.536 30.4687C29.5357 30.4685 29.5354 30.4683 29.535 30.468C29.5341 30.4674 29.533 30.4666 29.5316 30.4657C29.5288 30.4638 29.5249 30.4611 29.5199 30.4578C29.51 30.4511 29.4959 30.4418 29.4781 30.4304C29.4424 30.4076 29.3916 30.3764 29.3298 30.3418C29.2075 30.2733 29.0364 30.1885 28.8506 30.1311C28.6684 30.0747 28.4498 30.0376 28.2432 30.0893C28.0217 30.1448 27.8389 30.2964 27.738 30.5618L27.9249 30.6329ZM29.4218 30.6329C29.3474 30.8185 29.3474 30.8186 29.3475 30.8186C29.3475 30.8186 29.3476 30.8186 29.3477 30.8187C29.3478 30.8187 29.348 30.8188 29.3481 30.8188C29.3484 30.819 29.3489 30.8191 29.3494 30.8193C29.3503 30.8197 29.3516 30.8202 29.3532 30.8208C29.3565 30.8221 29.3609 30.8238 29.3665 30.8259C29.3778 30.8301 29.3938 30.8359 29.4139 30.8429C29.4541 30.8567 29.5113 30.8751 29.5809 30.8941C29.7192 30.9318 29.9113 30.973 30.1204 30.9839C30.5319 31.0052 31.074 30.9073 31.3359 30.3496L31.1549 30.2646L30.9739 30.1796C30.8157 30.5163 30.4912 30.6025 30.1411 30.5844C29.9695 30.5755 29.8071 30.5411 29.6861 30.5082C29.626 30.4918 29.5773 30.4761 29.5441 30.4646C29.5275 30.4589 29.5148 30.4543 29.5067 30.4512C29.5026 30.4497 29.4996 30.4486 29.4978 30.4479C29.4969 30.4475 29.4964 30.4473 29.4961 30.4472C29.4959 30.4471 29.4959 30.4471 29.4959 30.4471C29.4959 30.4471 29.4959 30.4471 29.496 30.4472C29.496 30.4472 29.496 30.4472 29.496 30.4472C29.4961 30.4472 29.4961 30.4472 29.4218 30.6329Z" fill="#737373"/>
</svg>
