<svg width="40" height="40" viewBox="0 0 40 40" fill="none" xmlns="http://www.w3.org/2000/svg">
<path d="M21.2209 19.2276C26.5109 14.7535 27.8608 15.1232 27.8608 15.1232C30.8159 14.5809 34.8412 18.1183 35.96 19.166C35.9804 19.1905 35.9936 19.2204 35.9982 19.2522C36.0028 19.284 35.9985 19.3164 35.9859 19.3459C35.9732 19.3754 35.9527 19.4007 35.9267 19.419C35.9006 19.4373 35.87 19.4478 35.8384 19.4494H4.19549C4.15408 19.4472 4.11431 19.4323 4.08134 19.4068C4.04837 19.3813 4.02372 19.3464 4.01061 19.3065C3.99749 19.2666 3.99652 19.2237 4.0078 19.1832C4.01908 19.1428 4.04211 19.1067 4.07388 19.0797C5.72291 17.7806 7.46695 16.6104 9.29094 15.5793C10.0118 15.3352 10.7762 15.2518 11.5317 15.3347C12.2873 15.4177 13.0163 15.6651 13.6689 16.06M10.1543 15.2218C10.1543 15.2218 13.5229 9.90957 16.2348 13.0895C16.2348 13.0895 18.2413 14.7165 20.6492 11.0189C20.6492 11.0189 23.653 8.04843 26.7905 12.2514M23.7868 16.8365C23.7868 16.8365 21.3546 14.6179 17.9009 17.8348C17.4303 18.0152 16.913 18.0267 16.435 17.8675C15.9571 17.7082 15.5474 17.3879 15.2741 16.9597M5.1683 26.5859H34.5735M31.7644 26.5859C31.7644 26.5859 27.3865 21.6557 23.4098 22.0008C21.3394 22.3515 19.4644 23.4506 18.132 25.0945C18.0712 25.1862 18.0486 25.2985 18.0691 25.407C18.0896 25.5154 18.1515 25.6113 18.2414 25.6738L19.5305 26.5859M16.8793 24.6631L18.6305 25.9449M7.32081 26.5859C7.32081 26.5859 12.4649 21.5448 15.42 23.6647M10.9326 29.7658H14.9092M24.0665 29.7658H26.8271M4.17116 22.7403H8.11132M30.8159 22.7403H34.5737M14.7026 14.0509C14.7026 14.1802 14.5992 14.2851 14.4715 14.2851C14.3439 14.2851 14.2405 14.1802 14.2405 14.0509C14.2405 13.9216 14.3439 13.8167 14.4715 13.8167C14.5992 13.8167 14.7026 13.9216 14.7026 14.0509ZM17.5239 15.6902C17.5239 15.8195 17.4204 15.9244 17.2928 15.9244C17.1652 15.9244 17.0618 15.8195 17.0618 15.6902C17.0618 15.5609 17.1652 15.456 17.2928 15.456C17.4204 15.456 17.5239 15.5609 17.5239 15.6902ZM13.8391 18.2046C13.8391 18.3339 13.7356 18.4388 13.608 18.4388C13.4804 18.4388 13.377 18.3339 13.377 18.2046C13.377 18.0752 13.4804 17.9704 13.608 17.9704C13.7356 17.9704 13.8391 18.0752 13.8391 18.2046ZM10.4341 17.2555C10.4341 17.3849 10.3306 17.4897 10.203 17.4897C10.0754 17.4897 9.97197 17.3849 9.97197 17.2555C9.97197 17.1262 10.0754 17.0213 10.203 17.0213C10.3306 17.0213 10.4341 17.1262 10.4341 17.2555ZM7.74641 18.2046C7.74641 18.3339 7.64296 18.4388 7.51535 18.4388C7.38774 18.4388 7.2843 18.3339 7.2843 18.2046C7.2843 18.0752 7.38774 17.9704 7.51535 17.9704C7.64296 17.9704 7.74641 18.0752 7.74641 18.2046ZM6.9439 12.0542C6.9439 12.1835 6.84045 12.2884 6.71284 12.2884C6.58523 12.2884 6.48178 12.1835 6.48178 12.0542C6.48178 11.9249 6.58523 11.82 6.71284 11.82C6.84045 11.82 6.9439 11.9249 6.9439 12.0542ZM9.30305 13.41C9.30305 13.5393 9.19961 13.6442 9.072 13.6442C8.94439 13.6442 8.84094 13.5393 8.84094 13.41C8.84094 13.2807 8.94439 13.1758 9.072 13.1758C9.19961 13.1758 9.30305 13.2807 9.30305 13.41ZM10.7138 10.5135C10.7138 10.6429 10.6103 10.7477 10.4827 10.7477C10.3551 10.7477 10.2517 10.6429 10.2517 10.5135C10.2517 10.3842 10.3551 10.2793 10.4827 10.2793C10.6103 10.2793 10.7138 10.3842 10.7138 10.5135ZM20.8073 17.8102C20.8073 17.9395 20.7038 18.0444 20.5762 18.0444C20.4486 18.0444 20.3452 17.9395 20.3452 17.8102C20.3452 17.6808 20.4486 17.576 20.5762 17.576C20.7038 17.576 20.8073 17.6808 20.8073 17.8102ZM25.4407 14.4207C25.4407 14.55 25.3373 14.6549 25.2096 14.6549C25.082 14.6549 24.9786 14.55 24.9786 14.4207C24.9786 14.2913 25.082 14.1865 25.2096 14.1865C25.3373 14.1865 25.4407 14.2913 25.4407 14.4207ZM21.464 13.8784C21.464 14.0077 21.3606 14.1125 21.233 14.1125C21.1054 14.1125 21.0019 14.0077 21.0019 13.8784C21.0019 13.749 21.1054 13.6442 21.233 13.6442C21.3606 13.6442 21.464 13.749 21.464 13.8784ZM24.1881 12.2884C24.1881 12.4177 24.0846 12.5226 23.957 12.5226C23.8294 12.5226 23.726 12.4177 23.726 12.2884C23.726 12.159 23.8294 12.0542 23.957 12.0542C24.0846 12.0542 24.1881 12.159 24.1881 12.2884ZM26.5109 18.0443C26.5109 18.1737 26.4074 18.2785 26.2798 18.2785C26.1522 18.2785 26.0488 18.1737 26.0488 18.0443C26.0488 17.915 26.1522 17.8102 26.2798 17.8102C26.4074 17.8102 26.5109 17.915 26.5109 18.0443ZM24.8326 23.5538C24.8326 23.6831 24.7292 23.788 24.6016 23.788C24.474 23.788 24.3705 23.6831 24.3705 23.5538C24.3705 23.4245 24.474 23.3196 24.6016 23.3196C24.7292 23.3196 24.8326 23.4245 24.8326 23.5538ZM23.4463 24.885C23.4463 25.0143 23.3428 25.1191 23.2152 25.1191C23.0876 25.1191 22.9842 25.0143 22.9842 24.885C22.9842 24.7556 23.0876 24.6508 23.2152 24.6508C23.3428 24.6508 23.4463 24.7556 23.4463 24.885ZM21.0384 24.6138C21.0384 24.7431 20.935 24.848 20.8074 24.848C20.6798 24.848 20.5763 24.7431 20.5763 24.6138C20.5763 24.4845 20.6798 24.3796 20.8074 24.3796C20.935 24.3796 21.0384 24.4845 21.0384 24.6138ZM26.6325 24.9836C26.6325 25.1129 26.529 25.2177 26.4014 25.2177C26.2738 25.2177 26.1703 25.1129 26.1703 24.9836C26.1703 24.8542 26.2738 24.7494 26.4014 24.7494C26.529 24.7494 26.6325 24.8542 26.6325 24.9836ZM14.9214 25.0822C14.9214 25.2115 14.818 25.3163 14.6904 25.3163C14.5628 25.3163 14.4593 25.2115 14.4593 25.0822C14.4593 24.9528 14.5628 24.848 14.6904 24.848C14.818 24.848 14.9214 24.9528 14.9214 25.0822ZM12.8054 24.6138C12.8054 24.7431 12.702 24.848 12.5744 24.848C12.4468 24.848 12.3433 24.7431 12.3433 24.6138C12.3433 24.4845 12.4468 24.3796 12.5744 24.3796C12.702 24.3796 12.8054 24.4845 12.8054 24.6138ZM17.2564 29.6919C17.2564 29.8212 17.1529 29.9261 17.0253 29.9261C16.8977 29.9261 16.7943 29.8212 16.7943 29.6919C16.7943 29.5625 16.8977 29.4577 17.0253 29.4577C17.1529 29.4577 17.2564 29.5625 17.2564 29.6919ZM20.5763 29.7658C20.5763 29.8952 20.4729 30 20.3452 30C20.2176 30 20.1142 29.8952 20.1142 29.7658C20.1142 29.6365 20.2176 29.5316 20.3452 29.5316C20.4729 29.5316 20.5763 29.6365 20.5763 29.7658ZM29.3808 29.7658C29.3808 29.8952 29.2774 30 29.1498 30C29.0222 30 28.9187 29.8952 28.9187 29.7658C28.9187 29.6365 29.0222 29.5316 29.1498 29.5316C29.2774 29.5316 29.3808 29.6365 29.3808 29.7658ZM29.3808 17.0337C29.3808 17.163 29.2774 17.2678 29.1498 17.2678C29.0222 17.2678 28.9187 17.163 28.9187 17.0337C28.9187 16.9043 29.0222 16.7995 29.1498 16.7995C29.2774 16.7995 29.3808 16.9043 29.3808 17.0337ZM32.2265 18.2046C32.2265 18.3339 32.123 18.4388 31.9954 18.4388C31.8678 18.4388 31.7644 18.3339 31.7644 18.2046C31.7644 18.0752 31.8678 17.9704 31.9954 17.9704C32.123 17.9704 32.2265 18.0752 32.2265 18.2046ZM31.5212 12.5102C31.5212 12.6396 31.4177 12.7444 31.2901 12.7444C31.1625 12.7444 31.0591 12.6396 31.0591 12.5102C31.0591 12.3809 31.1625 12.2761 31.2901 12.2761C31.4177 12.2761 31.5212 12.3809 31.5212 12.5102ZM29.3808 10.5998C29.3808 10.7291 29.2774 10.834 29.1498 10.834C29.0222 10.834 28.9187 10.7291 28.9187 10.5998C28.9187 10.4705 29.0222 10.3656 29.1498 10.3656C29.2774 10.3656 29.3808 10.4705 29.3808 10.5998Z" stroke="#737373" stroke-width="0.4" stroke-miterlimit="10" stroke-linecap="round"/>
</svg>
