<svg width="40" height="40" viewBox="0 0 40 40" fill="none" xmlns="http://www.w3.org/2000/svg">
<path d="M33.86 30.3155V16.2055C33.86 15.9668 33.7652 15.7379 33.5964 15.5691C33.4276 15.4003 33.1987 15.3055 32.96 15.3055H29.78M6.80005 30.2255V16.5755C6.80832 16.234 6.92109 15.9033 7.12314 15.628C7.32519 15.3526 7.60682 15.1458 7.93005 15.0355L28.8601 8.03547C28.9649 8.00077 29.0764 7.99135 29.1856 8.008C29.2947 8.02464 29.3984 8.06686 29.4881 8.13122C29.5778 8.19558 29.651 8.28026 29.7018 8.37832C29.7525 8.47639 29.7793 8.58506 29.7801 8.69547V15.2355L18.85 15.3455C18.6131 15.3481 18.3867 15.4441 18.2201 15.6126C18.0535 15.7811 17.96 16.0085 17.96 16.2455V30.2455M25.58 11.2955H30.56M25.58 13.2755H30.56M17.96 21.3755H33.86M21.86 30.0355V23.6855C21.86 23.5184 21.9264 23.3582 22.0445 23.24C22.1627 23.1219 22.3229 23.0555 22.49 23.0555H29.16C29.3271 23.0555 29.4873 23.1219 29.6055 23.24C29.7236 23.3582 29.79 23.5184 29.79 23.6855V30.3155M25.91 30.3155V23.0555M9.46997 23.5655H15.8M9.46997 25.8455H15.8M9.46997 28.3355H15.68M9.87005 21.3755H15.22C15.3712 21.3755 15.5162 21.4355 15.6231 21.5424C15.73 21.6493 15.79 21.7943 15.79 21.9455V30.3155H9.30005V21.9455C9.30005 21.7943 9.3601 21.6493 9.467 21.5424C9.57389 21.4355 9.71888 21.3755 9.87005 21.3755ZM6.08 30.3155H34.68C35.2765 30.3155 35.76 30.799 35.76 31.3955C35.76 31.992 35.2765 32.4755 34.68 32.4755H6.08C5.48353 32.4755 5 31.992 5 31.3955C5 30.799 5.48353 30.3155 6.08 30.3155Z" stroke="#737373" stroke-width="0.4" stroke-miterlimit="10" stroke-linecap="round"/>
<path d="M22.55 18.9558L23.0295 17.1355H23.8401V19.8054H23.3401V17.7058L22.8098 19.8054H22.2903L21.76 17.7058V19.8054H21.26V17.1355H22.0696L22.55 18.9558ZM26.7903 19.8054H26.1604L25.9299 19.1951H24.8997L24.6799 19.8054H24.1604L25.1604 17.1355H25.7297L26.7903 19.8054ZM27.6301 17.155V19.3552H28.97V19.8054H27.0901V17.155H27.6301ZM29.9104 17.155V19.3552H31.2502V19.8054H29.3704V17.155H29.9104ZM25.0598 18.7458H25.7903L25.4299 17.7458L25.0598 18.7458Z" fill="#737373"/>
</svg>
