<svg width="40" height="40" viewBox="0 0 40 40" fill="none" xmlns="http://www.w3.org/2000/svg">
<path d="M17.2568 34H14.5577C14.4273 34.0001 14.3019 33.9499 14.2083 33.8601C14.1146 33.7704 14.0601 33.6481 14.0563 33.5193L13.3336 11.9748H10.2952L9.60203 33.4756C9.59447 33.6173 9.5321 33.7507 9.4278 33.8483C9.3235 33.9459 9.18524 34.0002 9.04157 34H6.65221M33.6578 34H30.944M30.944 34C30.8135 34.0001 30.6881 33.9499 30.5945 33.8601C30.5009 33.7704 30.4463 33.6481 30.4425 33.5193L29.7345 11.9748H26.6815L26.0325 33.4756C26.0287 33.616 25.9695 33.7494 25.8676 33.8473C25.7656 33.9453 25.629 34 25.4868 34M30.944 34H25.4868M25.4868 34H23.0384M10.0445 17.8015H6.40148C6.32325 17.8015 6.24822 17.7709 6.1929 17.7162C6.13758 17.6616 6.1065 17.5875 6.1065 17.5102V15.0193C6.1065 14.942 6.13758 14.8679 6.1929 14.8133C6.24822 14.7586 6.32325 14.7279 6.40148 14.7279H10.0888M26.3126 17.8161H13.5252M29.823 14.6842H33.348C33.4277 14.6841 33.5043 14.7143 33.562 14.7686C33.6197 14.8229 33.654 14.897 33.6578 14.9756V17.4665C33.654 17.5451 33.6197 17.6192 33.562 17.6735C33.5043 17.7277 33.4277 17.7579 33.348 17.7578H29.9262M13.6285 14.6842H18.0532C18.1667 14.6842 18.2755 14.6397 18.3557 14.5605C18.4359 14.4813 18.481 14.3738 18.481 14.2618V11.9311H21.4013V14.4803C21.4013 14.5344 21.423 14.5862 21.4618 14.6245C21.5005 14.6627 21.553 14.6842 21.6078 14.6842H26.4455M8.53996 34H14.7051M6.04734 11.9748H33.3627C33.4692 11.9772 33.5739 11.9479 33.6634 11.8908C33.7528 11.8336 33.8228 11.7512 33.8642 11.6543L35.988 7.16767C35.9984 7.14671 36.0022 7.12316 35.9988 7.10007C35.9955 7.07698 35.9852 7.05541 35.9693 7.03815C35.9534 7.02089 35.9327 7.00873 35.9097 7.00326C35.8867 6.99778 35.8627 6.99923 35.8405 7.00743L28.466 9.44011H11.4603L4.15946 7.00743C4.13735 6.99923 4.11325 6.99778 4.0903 7.00326C4.06734 7.00873 4.04657 7.02089 4.03069 7.03815C4.0148 7.05541 4.00452 7.07698 4.00118 7.10007C3.99785 7.12316 4.0016 7.14671 4.01197 7.16767L5.9441 11.9019C5.9525 11.9225 5.96667 11.9403 5.98496 11.9532C6.00326 11.9661 6.0249 11.9736 6.04734 11.9748Z" stroke="#737373" stroke-width="0.4" stroke-miterlimit="10" stroke-linecap="round"/>
</svg>
