<svg width="40" height="40" viewBox="0 0 40 40" fill="none" xmlns="http://www.w3.org/2000/svg">
<path d="M14.8602 31.7471L14.9026 31.5517L14.8816 31.5471H14.8602V31.7471ZM8.56031 31.7471L8.56031 31.5471L8.56031 31.7471ZM8.34307 31.5326H8.54307H8.34307ZM8.34307 17.0805L8.14307 17.0747V17.0805H8.34307ZM8.48273 16.8965L8.54361 17.0874L8.55502 17.083L8.48273 16.8965ZM14.6895 14.4904L14.6183 14.3035L14.6172 14.3039L14.6895 14.4904ZM14.9843 14.6743L15.1848 14.6727L15.1837 14.659L14.9843 14.6743ZM15.124 31.5326L14.924 31.5342L14.924 31.5373L15.124 31.5326ZM18.367 31.7471V31.9471H18.419L18.4644 31.9218L18.367 31.7471ZM15.1705 31.7471L15.1705 31.5471L15.1705 31.7471ZM15.0774 31.6552L14.8774 31.6552L15.0774 31.6552ZM15.0774 14.613L14.8786 14.5913L14.8774 14.6021V14.613H15.0774ZM15.2015 14.5364L15.2918 14.3579L15.2805 14.3522L15.2686 14.348L15.2015 14.5364ZM18.4135 16.1609L18.5862 16.06L18.5564 16.0091L18.5038 15.9825L18.4135 16.1609ZM18.4135 16.2376L18.2408 16.1366L18.2135 16.1834V16.2376H18.4135ZM18.4135 31.6552H18.2135V31.6683L18.2152 31.6813L18.4135 31.6552ZM20.2445 10.567L20.3108 10.7562L20.3225 10.7512L20.2445 10.567ZM14.0377 12.7433H13.8377V13.0254L14.1039 12.932L14.0377 12.7433ZM14.0377 10.5057H14.2378L14.2377 10.5011L14.0377 10.5057ZM14.2084 10.2452L14.2854 10.43L14.2926 10.4267L14.2084 10.2452ZM24.0152 31.7471V31.9471H24.2167L24.2152 31.7457L24.0152 31.7471ZM20.4308 31.7471H20.2308V31.9471H20.4308V31.7471ZM20.4308 10.5517L20.5155 10.3705L20.4418 10.3361L20.3651 10.3628L20.4308 10.5517ZM23.8756 12.1609L24.0756 12.1595L24.0747 12.0332L23.9602 11.9797L23.8756 12.1609ZM28.0031 31.7471V31.9471H28.2048L28.2031 31.7454L28.0031 31.7471ZM23.9377 31.7471H23.7377V31.9471H23.9377V31.7471ZM23.9377 21.5862L23.9903 21.3933L23.7377 21.3243V21.5862H23.9377ZM27.9255 22.6743L28.1255 22.6726L28.1242 22.5212L27.9782 22.4814L27.9255 22.6743ZM13.1688 13.0805L13.103 12.8916L12.9688 12.9383V13.0805H13.1688ZM27.429 11.977L27.4394 11.7772L27.4351 11.7771L27.429 11.977ZM24.9773 10.0153L24.7818 10.0578L24.7832 10.0634L24.9773 10.0153ZM26.8859 8.1456V7.94514L26.8724 7.94605L26.8859 8.1456ZM30.5789 7.21073L30.6778 7.03687L30.6764 7.0361L30.5789 7.21073ZM32.7358 8.1456L32.5378 8.17423L32.7358 8.1456ZM34.9702 10.1839L34.7725 10.1539L34.7702 10.1688L34.7702 10.1839L34.9702 10.1839ZM32.7358 11.977L32.7424 12.1769L32.7507 12.1766L32.7589 12.1757L32.7358 11.977ZM9.84817 19.2261L9.78272 19.0371L9.64817 19.0837V19.2261H9.84817ZM9.84817 20.1916H9.64817V20.481L9.91889 20.3787L9.84817 20.1916ZM11.105 19.7165L11.1758 19.9036L11.3147 19.851L11.3046 19.7028L11.105 19.7165ZM11.043 18.8123L11.2425 18.7986L11.2246 18.5377L10.9775 18.6233L11.043 18.8123ZM12.0516 18.5364L11.9862 18.3474L11.8516 18.394V18.5364H12.0516ZM12.0516 19.5019H11.8516V19.7926L12.1231 19.6887L12.0516 19.5019ZM13.293 19.0268L13.3645 19.2136L13.5002 19.1617L13.4927 19.0165L13.293 19.0268ZM13.2464 18.1226L13.4462 18.1123L13.4325 17.8465L13.181 17.9336L13.2464 18.1226ZM12.1602 20.4368L12.0947 20.2478L11.9602 20.2944V20.4368H12.1602ZM12.1602 21.4023H11.9602V21.6917L12.2309 21.5894L12.1602 21.4023ZM13.4171 20.9272L13.4878 21.1143L13.6268 21.0617L13.6166 20.9135L13.4171 20.9272ZM13.355 20.023L13.5545 20.0093L13.5366 19.7484L13.2895 19.834L13.355 20.023ZM9.84817 21.0958L9.78272 20.9068L9.64817 20.9534V21.0958H9.84817ZM9.84817 22.0613H9.64817V22.3507L9.91889 22.2484L9.84817 22.0613ZM11.105 21.5862L11.1758 21.7733L11.3147 21.7207L11.3046 21.5725L11.105 21.5862ZM11.043 20.682L11.2425 20.6683L11.2246 20.4074L10.9775 20.493L11.043 20.682ZM9.84817 23.0268L9.78272 22.8378L9.64817 22.8844V23.0268H9.84817ZM9.84817 23.9923H9.64817V24.2851L9.92087 24.1786L9.84817 23.9923ZM11.105 23.5019L11.1777 23.6882L11.3148 23.6347L11.3046 23.488L11.105 23.5019ZM11.043 22.613L11.2425 22.5991L11.2243 22.3386L10.9775 22.424L11.043 22.613ZM12.0516 22.3372L11.9862 22.1482L11.8516 22.1948V22.3372H12.0516ZM12.0516 23.3027H11.8516V23.5967L12.1251 23.4887L12.0516 23.3027ZM13.293 22.8123L13.3665 22.9983L13.5002 22.9454L13.4927 22.8018L13.293 22.8123ZM13.2464 21.9234L13.4462 21.9129L13.4323 21.6474L13.181 21.7344L13.2464 21.9234ZM12.1602 24.2376L12.0947 24.0486L11.9602 24.0952V24.2376H12.1602ZM12.1602 25.2031H11.9602V25.4958L12.2329 25.3894L12.1602 25.2031ZM13.4171 24.7126L13.4898 24.899L13.6268 24.8455L13.6166 24.6987L13.4171 24.7126ZM13.355 23.8238L13.5545 23.8098L13.5363 23.5493L13.2895 23.6348L13.355 23.8238ZM9.9103 24.9425L9.84485 24.7535L9.7103 24.8001V24.9425H9.9103ZM9.9103 25.908H9.7103V26.1974L9.98101 26.0951L9.9103 25.908ZM11.1672 25.4329L11.2379 25.62L11.3769 25.5675L11.3667 25.4192L11.1672 25.4329ZM11.1051 24.5287L11.3046 24.515L11.2867 24.2542L11.0397 24.3397L11.1051 24.5287ZM9.84817 26.8889L9.78272 26.6999L9.64817 26.7465V26.8889H9.84817ZM9.84817 27.8544H9.64817V28.1471L9.92087 28.0407L9.84817 27.8544ZM11.105 27.364L11.1777 27.5503L11.3148 27.4968L11.3046 27.35L11.105 27.364ZM11.043 26.4751L11.2425 26.4612L11.2243 26.2006L10.9775 26.2861L11.043 26.4751ZM12.1602 26.1226L12.0947 25.9336L11.9602 25.9802V26.1226H12.1602ZM12.1602 27.0881H11.9602V27.3775L12.2309 27.2752L12.1602 27.0881ZM13.4171 26.613L13.4878 26.8001L13.6268 26.7476L13.6166 26.5993L13.4171 26.613ZM13.355 25.7088L13.5545 25.6951L13.5366 25.4343L13.2895 25.5198L13.355 25.7088ZM12.1602 28.1456L12.0947 27.9566L11.9602 28.0032V28.1456H12.1602ZM12.1602 29.1111H11.9602V29.4005L12.2309 29.2982L12.1602 29.1111ZM13.4171 28.636L13.4878 28.8231L13.6268 28.7705L13.6166 28.6223L13.4171 28.636ZM13.355 27.7318L13.5545 27.7181L13.5366 27.4572L13.2895 27.5428L13.355 27.7318ZM9.9103 28.8353L9.84485 28.6463L9.7103 28.6929V28.8353H9.9103ZM9.9103 29.8008H9.7103V30.0935L9.983 29.9871L9.9103 29.8008ZM11.1672 29.3103L11.2399 29.4967L11.3769 29.4432L11.3667 29.2964L11.1672 29.3103ZM11.1051 28.4215L11.3046 28.4075L11.2864 28.147L11.0397 28.2325L11.1051 28.4215ZM17.8066 6C17.8066 5.88954 17.7171 5.8 17.6066 5.8C17.4962 5.8 17.4066 5.88954 17.4066 6H17.8066ZM17.4066 8.52873C17.4066 8.63919 17.4962 8.72873 17.6066 8.72873C17.7171 8.72873 17.8066 8.63919 17.8066 8.52873H17.4066ZM20.3687 7.7931L20.4564 7.61336L20.1608 7.46909L20.1688 7.79795L20.3687 7.7931ZM20.4308 10.3525L20.2308 10.3573L20.2341 10.4909L20.3587 10.539L20.4308 10.3525ZM22.929 11.318L22.8569 11.5046L23.1191 11.6059L23.1289 11.3249L22.929 11.318ZM23.0066 9.08046L23.2065 9.08739L23.211 8.95765L23.0943 8.90072L23.0066 9.08046ZM14.8602 31.7471V31.5471H8.56031V31.7471V31.9471H14.8602V31.7471ZM8.56031 31.7471L8.56031 31.5471C8.55769 31.5471 8.55517 31.5466 8.55291 31.5457L8.47718 31.7308L8.40145 31.9159C8.4519 31.9365 8.50588 31.9471 8.56031 31.9471L8.56031 31.7471ZM8.47718 31.7308L8.55291 31.5457C8.55064 31.5447 8.54874 31.5435 8.54724 31.542L8.4067 31.6843L8.26616 31.8266C8.30501 31.8649 8.351 31.8953 8.40145 31.9159L8.47718 31.7308ZM8.4067 31.6843L8.54724 31.542C8.54575 31.5405 8.54471 31.5389 8.54405 31.5373L8.35961 31.6147L8.17517 31.692C8.19634 31.7425 8.2273 31.7882 8.26616 31.8266L8.4067 31.6843ZM8.35961 31.6147L8.54405 31.5373C8.54338 31.5357 8.54307 31.5341 8.54307 31.5326L8.34307 31.5326L8.14307 31.5326C8.14307 31.5873 8.154 31.6415 8.17517 31.692L8.35961 31.6147ZM8.34307 31.5326H8.54307V17.0805H8.34307H8.14307V31.5326H8.34307ZM8.34307 17.0805L8.54299 17.0862C8.54297 17.087 8.54271 17.0874 8.54262 17.0876L8.38334 16.9666L8.22405 16.8456C8.17395 16.9116 8.14556 16.9916 8.14316 17.0747L8.34307 17.0805ZM8.38334 16.9666L8.54262 17.0876L8.5435 17.0871L8.48273 16.8965L8.42196 16.706C8.34336 16.7311 8.27413 16.7797 8.22405 16.8456L8.38334 16.9666ZM8.48273 16.8965L8.55502 17.083L14.7618 14.6769L14.6895 14.4904L14.6172 14.3039L8.41043 16.7101L8.48273 16.8965ZM14.6895 14.4904L14.7607 14.6773C14.7635 14.6763 14.7666 14.6758 14.7696 14.6761L14.7889 14.477L14.8081 14.278C14.7437 14.2718 14.6787 14.2805 14.6183 14.3035L14.6895 14.4904ZM14.7889 14.477L14.7696 14.6761C14.7727 14.6764 14.7755 14.6774 14.7779 14.6789L14.8837 14.5092L14.9896 14.3395C14.9346 14.3052 14.8725 14.2842 14.8081 14.278L14.7889 14.477ZM14.8837 14.5092L14.7779 14.6789C14.7802 14.6803 14.7819 14.6821 14.783 14.684L14.9538 14.58L15.1246 14.4759C15.0909 14.4204 15.0445 14.3738 14.9896 14.3395L14.8837 14.5092ZM14.9538 14.58L14.783 14.684C14.7842 14.6859 14.7848 14.6878 14.7849 14.6897L14.9843 14.6743L15.1837 14.659C15.1787 14.5941 15.1585 14.5314 15.1246 14.4759L14.9538 14.58ZM14.9843 14.6743L14.7843 14.676L14.924 31.5342L15.124 31.5326L15.324 31.5309L15.1843 14.6727L14.9843 14.6743ZM15.124 31.5326L14.924 31.5373C14.9241 31.5391 14.9237 31.5409 14.9229 31.5428L15.1043 31.6269L15.2858 31.711C15.3123 31.6537 15.3254 31.591 15.3239 31.5278L15.124 31.5326ZM15.1043 31.6269L14.9229 31.5428C14.922 31.5446 14.9206 31.5464 14.9187 31.548L15.0449 31.7032L15.1711 31.8583C15.22 31.8186 15.2592 31.7682 15.2858 31.711L15.1043 31.6269ZM15.0449 31.7032L14.9187 31.548C14.9167 31.5496 14.9142 31.5509 14.9114 31.5516L14.9577 31.7461L15.0039 31.9407C15.0651 31.9262 15.1223 31.8981 15.1711 31.8583L15.0449 31.7032ZM14.9577 31.7461L14.9114 31.5516C14.9085 31.5523 14.9055 31.5523 14.9026 31.5517L14.8602 31.7471L14.8178 31.9426C14.8792 31.9559 14.9428 31.9553 15.0039 31.9407L14.9577 31.7461ZM18.367 31.7471V31.5471H15.1705V31.7471V31.9471H18.367V31.7471ZM15.1705 31.7471L15.1705 31.5471C15.198 31.5471 15.2249 31.5579 15.2452 31.5779L15.1046 31.7202L14.9641 31.8625C15.0193 31.917 15.0935 31.9471 15.1705 31.9471L15.1705 31.7471ZM15.1046 31.7202L15.2452 31.5779C15.2655 31.598 15.2774 31.6257 15.2774 31.6552L15.0774 31.6552L14.8774 31.6552C14.8774 31.7334 14.9089 31.8079 14.9641 31.8625L15.1046 31.7202ZM15.0774 31.6552H15.2774V14.613H15.0774H14.8774V31.6552H15.0774ZM15.0774 14.613L15.2762 14.6348C15.2744 14.6514 15.2688 14.6673 15.2599 14.6812L15.091 14.5741L14.9222 14.4669C14.8984 14.5044 14.8834 14.547 14.8786 14.5913L15.0774 14.613ZM15.091 14.5741L15.2599 14.6812C15.2511 14.6952 15.2393 14.7067 15.2256 14.7151L15.1206 14.5449L15.0155 14.3747C14.978 14.3979 14.946 14.4294 14.9222 14.4669L15.091 14.5741ZM15.1206 14.5449L15.2256 14.7151C15.212 14.7236 15.1967 14.7287 15.181 14.7304L15.1601 14.5315L15.1391 14.3326C15.0953 14.3372 15.0531 14.3516 15.0155 14.3747L15.1206 14.5449ZM15.1601 14.5315L15.181 14.7304C15.1653 14.732 15.1494 14.7302 15.1344 14.7248L15.2015 14.5364L15.2686 14.348C15.2271 14.3332 15.1828 14.328 15.1391 14.3326L15.1601 14.5315ZM15.2015 14.5364L15.1112 14.7149L18.3232 16.3394L18.4135 16.1609L18.5038 15.9825L15.2918 14.3579L15.2015 14.5364ZM18.4135 16.1609L18.2408 16.2619C18.2298 16.243 18.2239 16.2214 18.2239 16.1992H18.4239H18.6239C18.6239 16.1502 18.6108 16.1022 18.5862 16.06L18.4135 16.1609ZM18.4239 16.1992H18.2239C18.2239 16.1771 18.2298 16.1555 18.2408 16.1366L18.4135 16.2376L18.5862 16.3385C18.6108 16.2963 18.6239 16.2483 18.6239 16.1992H18.4239ZM18.4135 16.2376H18.2135V31.6552H18.4135H18.6135V16.2376H18.4135ZM18.4135 31.6552L18.2152 31.6813C18.2123 31.6594 18.2162 31.6373 18.226 31.6178L18.4045 31.7082L18.5829 31.7985C18.6093 31.7463 18.6195 31.6872 18.6118 31.629L18.4135 31.6552ZM18.4045 31.7082L18.226 31.6178C18.2359 31.5984 18.2511 31.5827 18.2696 31.5725L18.367 31.7471L18.4644 31.9218C18.5151 31.8935 18.5565 31.8507 18.5829 31.7985L18.4045 31.7082ZM6.2793 31.7471V31.9471H29.9271V31.7471V31.5471H6.2793V31.7471ZM29.9271 31.7471V31.9471C29.9733 31.9471 30.0064 31.9834 30.0064 32.023H30.2064H30.4064C30.4064 31.7578 30.1895 31.5471 29.9271 31.5471V31.7471ZM30.2064 32.023H30.0064V33.7241H30.2064H30.4064V32.023H30.2064ZM30.2064 33.7241H30.0064C30.0064 33.7637 29.9733 33.8 29.9271 33.8V34V34.2C30.1895 34.2 30.4064 33.9893 30.4064 33.7241H30.2064ZM29.9271 34V33.8H6.2793V34V34.2H29.9271V34ZM6.2793 34V33.8C6.23316 33.8 6.2 33.7637 6.2 33.7241H6H5.8C5.8 33.9893 6.01694 34.2 6.2793 34.2V34ZM6 33.7241H6.2V32.023H6H5.8V33.7241H6ZM6 32.023H6.2C6.2 31.9834 6.23316 31.9471 6.2793 31.9471V31.7471V31.5471C6.01694 31.5471 5.8 31.7578 5.8 32.023H6ZM19.9031 10.3831H19.7031C19.7031 10.4659 19.7428 10.5273 19.78 10.5649C19.8149 10.6003 19.8551 10.623 19.8853 10.6375C19.9459 10.6665 20.0165 10.6854 20.0657 10.6978C20.079 10.7011 20.0918 10.7042 20.1035 10.7071C20.1154 10.71 20.1258 10.7125 20.1354 10.7149C20.1451 10.7174 20.1527 10.7194 20.1589 10.7211C20.1619 10.722 20.1642 10.7227 20.1659 10.7232C20.1677 10.7238 20.1685 10.724 20.1685 10.724C20.1684 10.724 20.1681 10.7239 20.1675 10.7237C20.1668 10.7234 20.1658 10.723 20.1645 10.7224C20.1621 10.7213 20.1569 10.7189 20.1503 10.7149C20.1464 10.7126 20.098 10.6855 20.0739 10.6216C20.0593 10.5829 20.0569 10.5386 20.07 10.496C20.082 10.4571 20.1032 10.4313 20.1172 10.4173C20.1423 10.3922 20.1664 10.3829 20.1666 10.3829L20.2445 10.567L20.3225 10.7512C20.3362 10.7454 20.3695 10.7306 20.3999 10.7003C20.4166 10.6836 20.4396 10.6551 20.4523 10.6136C20.4662 10.5684 20.4637 10.5216 20.4481 10.4803C20.4221 10.4114 20.3685 10.3794 20.3564 10.3721C20.3364 10.3601 20.3172 10.3525 20.3055 10.3483C20.2657 10.3337 20.1994 10.3189 20.1634 10.3099C20.1137 10.2974 20.0786 10.2865 20.0582 10.2768C20.0479 10.2719 20.0538 10.2729 20.0646 10.2838C20.0775 10.2969 20.1031 10.331 20.1031 10.3831H19.9031ZM20.2445 10.567L20.1783 10.3783L13.9716 12.5546L14.0377 12.7433L14.1039 12.932L20.3107 10.7558L20.2445 10.567ZM14.0377 12.7433H14.2377V10.5057H14.0377H13.8377V12.7433H14.0377ZM14.0377 10.5057L14.2377 10.5011C14.2373 10.4864 14.2415 10.4718 14.2498 10.4591L14.0825 10.3495L13.9152 10.2399C13.8626 10.3202 13.8356 10.4144 13.8378 10.5104L14.0377 10.5057ZM14.0825 10.3495L14.2498 10.4591C14.2581 10.4464 14.2704 10.4361 14.2853 10.4298L14.2084 10.2452L14.1315 10.0606C14.0432 10.0974 13.9677 10.1597 13.9152 10.2399L14.0825 10.3495ZM14.2084 10.2452L14.2926 10.4267L20.1424 7.71401L20.0583 7.53257L19.9742 7.35112L14.1243 10.0638L14.2084 10.2452ZM24.0152 31.7471V31.5471H20.4308V31.7471V31.9471H24.0152V31.7471ZM20.4308 31.7471H20.6308V10.5517H20.4308H20.2308V31.7471H20.4308ZM20.4308 10.5517L20.3462 10.7329L23.7909 12.3421L23.8756 12.1609L23.9602 11.9797L20.5155 10.3705L20.4308 10.5517ZM23.8756 12.1609L23.6756 12.1623L23.8152 31.7485L24.0152 31.7471L24.2152 31.7457L24.0756 12.1595L23.8756 12.1609ZM28.0031 31.7471V31.5471H23.9377V31.7471V31.9471H28.0031V31.7471ZM23.9377 31.7471H24.1377V21.5862H23.9377H23.7377V31.7471H23.9377ZM23.9377 21.5862L23.885 21.7791L27.8729 22.8673L27.9255 22.6743L27.9782 22.4814L23.9903 21.3933L23.9377 21.5862ZM27.9255 22.6743L27.7255 22.676L27.8031 31.7488L28.0031 31.7471L28.2031 31.7454L28.1255 22.6726L27.9255 22.6743ZM13.1688 15.0575H13.3688V13.0805H13.1688H12.9688V15.0575H13.1688ZM13.1688 13.0805L13.2346 13.2693L20.4966 10.7406L20.4308 10.5517L20.3651 10.3628L13.103 12.8916L13.1688 13.0805ZM27.429 11.977L27.4351 11.7771C26.9086 11.761 26.4022 11.575 25.9935 11.248L25.8685 11.4041L25.7436 11.5603C26.2203 11.9418 26.8102 12.1582 27.4229 12.1769L27.429 11.977ZM25.8685 11.4041L25.9935 11.248C25.5847 10.9209 25.2962 10.471 25.1714 9.96725L24.9773 10.0153L24.7832 10.0634C24.9292 10.6531 25.2667 11.1788 25.7436 11.5603L25.8685 11.4041ZM24.9773 10.0153L25.1727 9.97293C25.0861 9.57346 25.1165 9.20767 25.3376 8.92888C25.5607 8.64762 26.0171 8.40473 26.8993 8.34514L26.8859 8.1456L26.8724 7.94605C25.9392 8.00908 25.3482 8.27193 25.0243 8.68032C24.6984 9.09119 24.6823 9.59897 24.7818 10.0577L24.9773 10.0153ZM26.8859 8.1456V8.3456C27.2402 8.3456 27.4406 8.08095 27.581 7.85193C27.6496 7.74015 27.7293 7.5916 27.7958 7.47833C27.8688 7.35423 27.9444 7.23839 28.0329 7.13798C28.2032 6.94473 28.4243 6.80337 28.7816 6.80033C29.1538 6.79717 29.6909 6.94405 30.4814 7.38537L30.5789 7.21073L30.6764 7.0361C29.8609 6.58086 29.2516 6.39633 28.7782 6.40035C28.2899 6.4045 27.9659 6.60892 27.7328 6.87353C27.6195 7.00205 27.5289 7.14314 27.451 7.27569C27.3667 7.41906 27.3112 7.52686 27.24 7.64282C27.1012 7.86925 27.0048 7.9456 26.8859 7.9456V8.1456ZM30.5789 7.21073L30.48 7.38459C30.594 7.44939 30.718 7.45679 30.8267 7.44542C30.9348 7.4341 31.0468 7.40208 31.1507 7.36794C31.3741 7.29456 31.5674 7.21227 31.765 7.18018C31.9492 7.15027 32.0885 7.17396 32.2031 7.28131C32.33 7.40005 32.4624 7.65302 32.5378 8.17423L32.7358 8.1456L32.9337 8.11697C32.8539 7.56538 32.7032 7.20149 32.4765 6.9893C32.2377 6.76571 31.9532 6.74437 31.7009 6.78535C31.4621 6.82414 31.2064 6.92864 31.0259 6.98791C30.9279 7.02011 30.8491 7.04089 30.7851 7.04759C30.7215 7.05424 30.6918 7.04488 30.6778 7.03688L30.5789 7.21073ZM32.7358 8.1456L32.5378 8.17423C32.5608 8.33301 32.649 8.44753 32.7633 8.5258C32.8703 8.59904 33.0019 8.64236 33.1291 8.67345C33.2579 8.70494 33.4031 8.72846 33.5432 8.75204C33.6867 8.77619 33.8293 8.80102 33.9671 8.83571C34.2457 8.90587 34.4728 9.0091 34.6174 9.19052C34.7572 9.36591 34.8487 9.65185 34.7725 10.1539L34.9702 10.1839L35.1679 10.2139C35.2546 9.64318 35.1618 9.2318 34.9302 8.9412C34.7034 8.65662 34.3719 8.52517 34.0647 8.44782C33.9096 8.40876 33.7525 8.38163 33.6096 8.35758C33.4633 8.33297 33.3352 8.31208 33.224 8.28489C33.1112 8.25731 33.036 8.22772 32.9893 8.19577C32.95 8.16886 32.9379 8.14593 32.9337 8.11697L32.7358 8.1456ZM34.9702 10.1839C34.7702 10.1839 34.7702 10.1838 34.7702 10.1836C34.7702 10.1836 34.7702 10.1835 34.7702 10.1834C34.7702 10.1833 34.7702 10.1831 34.7702 10.183C34.7702 10.1828 34.7702 10.1827 34.7702 10.1827C34.7702 10.1827 34.7702 10.183 34.7702 10.1836C34.7702 10.1849 34.7701 10.1876 34.7699 10.1915C34.7695 10.1994 34.7687 10.2124 34.7669 10.2298C34.7633 10.2647 34.7559 10.3169 34.7406 10.3815C34.7101 10.5106 34.6486 10.6871 34.5249 10.8712C34.2824 11.2321 33.7798 11.6539 32.7126 11.7784L32.7358 11.977L32.7589 12.1757C33.9262 12.0396 34.5408 11.5648 34.8569 11.0943C35.0125 10.8628 35.0906 10.6398 35.1299 10.4734C35.1496 10.3902 35.1596 10.3207 35.1648 10.2707C35.1674 10.2457 35.1687 10.2255 35.1694 10.2108C35.1698 10.2035 35.17 10.1975 35.1701 10.193C35.1701 10.1907 35.1702 10.1889 35.1702 10.1873C35.1702 10.1866 35.1702 10.1859 35.1702 10.1853C35.1702 10.1851 35.1702 10.1848 35.1702 10.1846C35.1702 10.1844 35.1702 10.1843 35.1702 10.1842C35.1702 10.1841 35.1702 10.1839 34.9702 10.1839ZM32.7358 11.977C32.7291 11.7771 32.7291 11.7771 32.7291 11.7771C32.7291 11.7771 32.7291 11.7771 32.729 11.7771C32.7289 11.7771 32.7288 11.7771 32.7286 11.7771C32.7282 11.7772 32.7276 11.7772 32.7269 11.7772C32.7253 11.7772 32.723 11.7773 32.72 11.7774C32.7138 11.7776 32.7046 11.7779 32.6926 11.7783C32.6684 11.779 32.6327 11.7801 32.5865 11.7815C32.4941 11.7842 32.3596 11.788 32.1918 11.7922C31.8561 11.8005 31.3871 11.8106 30.8538 11.8173C29.7858 11.8307 28.4645 11.8306 27.4393 11.7773L27.429 11.977L27.4186 12.1767C28.4572 12.2307 29.7893 12.2306 30.8588 12.2172C31.3941 12.2105 31.8649 12.2004 32.2018 12.192C32.3702 12.1878 32.5053 12.1841 32.5983 12.1813C32.6447 12.18 32.6807 12.1789 32.7051 12.1781C32.7173 12.1777 32.7266 12.1774 32.7328 12.1772C32.736 12.1771 32.7383 12.177 32.7399 12.177C32.7407 12.177 32.7413 12.1769 32.7417 12.1769C32.7419 12.1769 32.7421 12.1769 32.7422 12.1769C32.7423 12.1769 32.7423 12.1769 32.7423 12.1769C32.7424 12.1769 32.7424 12.1769 32.7358 11.977ZM9.84817 19.2261H9.64817V20.1916H9.84817H10.0482V19.2261H9.84817ZM9.84817 20.1916L9.91889 20.3787L11.1758 19.9036L11.105 19.7165L11.0343 19.5294L9.77745 20.0045L9.84817 20.1916ZM11.105 19.7165L11.3046 19.7028L11.2425 18.7986L11.043 18.8123L10.8434 18.826L10.9055 19.7302L11.105 19.7165ZM11.043 18.8123L10.9775 18.6233L9.78272 19.0371L9.84817 19.2261L9.91362 19.415L11.1084 19.0012L11.043 18.8123ZM12.0516 18.5364H11.8516V19.5019H12.0516H12.2516V18.5364H12.0516ZM12.0516 19.5019L12.1231 19.6887L13.3645 19.2136L13.293 19.0268L13.2215 18.84L11.9802 19.3151L12.0516 19.5019ZM13.293 19.0268L13.4927 19.0165L13.4462 18.1123L13.2464 18.1226L13.0467 18.1329L13.0933 19.0371L13.293 19.0268ZM13.2464 18.1226L13.181 17.9336L11.9862 18.3474L12.0516 18.5364L12.1171 18.7254L13.3119 18.3116L13.2464 18.1226ZM12.1602 20.4368H11.9602V21.4023H12.1602H12.3602V20.4368H12.1602ZM12.1602 21.4023L12.2309 21.5894L13.4878 21.1143L13.4171 20.9272L13.3463 20.7401L12.0895 21.2152L12.1602 21.4023ZM13.4171 20.9272L13.6166 20.9135L13.5545 20.0093L13.355 20.023L13.1555 20.0367L13.2175 20.9409L13.4171 20.9272ZM13.355 20.023L13.2895 19.834L12.0947 20.2478L12.1602 20.4368L12.2256 20.6258L13.4204 20.212L13.355 20.023ZM9.84817 21.0958H9.64817V22.0613H9.84817H10.0482V21.0958H9.84817ZM9.84817 22.0613L9.91889 22.2484L11.1758 21.7733L11.105 21.5862L11.0343 21.3991L9.77745 21.8742L9.84817 22.0613ZM11.105 21.5862L11.3046 21.5725L11.2425 20.6683L11.043 20.682L10.8434 20.6957L10.9055 21.5999L11.105 21.5862ZM11.043 20.682L10.9775 20.493L9.78272 20.9068L9.84817 21.0958L9.91362 21.2848L11.1084 20.871L11.043 20.682ZM9.84817 23.0268H9.64817V23.9923H9.84817H10.0482V23.0268H9.84817ZM9.84817 23.9923L9.92087 24.1786L11.1777 23.6882L11.105 23.5019L11.0323 23.3156L9.77547 23.806L9.84817 23.9923ZM11.105 23.5019L11.3046 23.488L11.2425 22.5991L11.043 22.613L10.8435 22.6269L10.9055 23.5158L11.105 23.5019ZM11.043 22.613L10.9775 22.424L9.78272 22.8378L9.84817 23.0268L9.91362 23.2158L11.1084 22.802L11.043 22.613ZM12.0516 22.3372H11.8516V23.3027H12.0516H12.2516V22.3372H12.0516ZM12.0516 23.3027L12.1251 23.4887L13.3665 22.9983L13.293 22.8123L13.2195 22.6262L11.9782 23.1167L12.0516 23.3027ZM13.293 22.8123L13.4927 22.8018L13.4462 21.9129L13.2464 21.9234L13.0467 21.9338L13.0933 22.8227L13.293 22.8123ZM13.2464 21.9234L13.181 21.7344L11.9862 22.1482L12.0516 22.3372L12.1171 22.5261L13.3119 22.1124L13.2464 21.9234ZM12.1602 24.2376H11.9602V25.2031H12.1602H12.3602V24.2376H12.1602ZM12.1602 25.2031L12.2329 25.3894L13.4898 24.899L13.4171 24.7126L13.3444 24.5263L12.0875 25.0167L12.1602 25.2031ZM13.4171 24.7126L13.6166 24.6987L13.5545 23.8098L13.355 23.8238L13.1555 23.8377L13.2175 24.7266L13.4171 24.7126ZM13.355 23.8238L13.2895 23.6348L12.0947 24.0486L12.1602 24.2376L12.2256 24.4265L13.4204 24.0127L13.355 23.8238ZM9.9103 24.9425H9.7103V25.908H9.9103H10.1103V24.9425H9.9103ZM9.9103 25.908L9.98101 26.0951L11.2379 25.62L11.1672 25.4329L11.0965 25.2459L9.83958 25.721L9.9103 25.908ZM11.1672 25.4329L11.3667 25.4192L11.3046 24.515L11.1051 24.5287L10.9056 24.5424L10.9676 25.4466L11.1672 25.4329ZM11.1051 24.5287L11.0397 24.3397L9.84485 24.7535L9.9103 24.9425L9.97575 25.1315L11.1706 24.7177L11.1051 24.5287ZM9.84817 26.8889H9.64817V27.8544H9.84817H10.0482V26.8889H9.84817ZM9.84817 27.8544L9.92087 28.0407L11.1777 27.5503L11.105 27.364L11.0323 27.1777L9.77547 27.6681L9.84817 27.8544ZM11.105 27.364L11.3046 27.35L11.2425 26.4612L11.043 26.4751L10.8435 26.489L10.9055 27.3779L11.105 27.364ZM11.043 26.4751L10.9775 26.2861L9.78272 26.6999L9.84817 26.8889L9.91362 27.0779L11.1084 26.6641L11.043 26.4751ZM12.1602 26.1226H11.9602V27.0881H12.1602H12.3602V26.1226H12.1602ZM12.1602 27.0881L12.2309 27.2752L13.4878 26.8001L13.4171 26.613L13.3463 26.4259L12.0895 26.901L12.1602 27.0881ZM13.4171 26.613L13.6166 26.5993L13.5545 25.6951L13.355 25.7088L13.1555 25.7225L13.2175 26.6267L13.4171 26.613ZM13.355 25.7088L13.2895 25.5198L12.0947 25.9336L12.1602 26.1226L12.2256 26.3116L13.4204 25.8978L13.355 25.7088ZM12.1602 28.1456H11.9602V29.1111H12.1602H12.3602V28.1456H12.1602ZM12.1602 29.1111L12.2309 29.2982L13.4878 28.8231L13.4171 28.636L13.3463 28.4489L12.0895 28.924L12.1602 29.1111ZM13.4171 28.636L13.6166 28.6223L13.5545 27.7181L13.355 27.7318L13.1555 27.7455L13.2175 28.6497L13.4171 28.636ZM13.355 27.7318L13.2895 27.5428L12.0947 27.9566L12.1602 28.1456L12.2256 28.3346L13.4204 27.9208L13.355 27.7318ZM9.9103 28.8353H9.7103V29.8008H9.9103H10.1103V28.8353H9.9103ZM9.9103 29.8008L9.983 29.9871L11.2399 29.4967L11.1672 29.3103L11.0945 29.124L9.8376 29.6144L9.9103 29.8008ZM11.1672 29.3103L11.3667 29.2964L11.3046 28.4075L11.1051 28.4215L10.9056 28.4354L10.9677 29.3243L11.1672 29.3103ZM11.1051 28.4215L11.0397 28.2325L9.84485 28.6463L9.9103 28.8353L9.97575 29.0242L11.1706 28.6104L11.1051 28.4215ZM17.6066 6H17.4066V8.52873H17.6066H17.8066V6H17.6066ZM20.3687 7.7931L20.1688 7.79795L20.2308 10.3573L20.4308 10.3525L20.6307 10.3476L20.5686 7.78825L20.3687 7.7931ZM20.4308 10.3525L20.3587 10.539L22.8569 11.5046L22.929 11.318L23.0011 11.1315L20.5029 10.1659L20.4308 10.3525ZM22.929 11.318L23.1289 11.3249L23.2065 9.08739L23.0066 9.08046L22.8067 9.07353L22.7291 11.3111L22.929 11.318ZM23.0066 9.08046L23.0943 8.90072L20.4564 7.61336L20.3687 7.7931L20.281 7.97284L22.9189 9.26019L23.0066 9.08046Z" fill="#737373"/>
</svg>
