<svg width="40" height="40" viewBox="0 0 40 40" fill="none" xmlns="http://www.w3.org/2000/svg">
<path d="M20 13.26C11.1634 13.26 4 14.8781 4 16.8741C4 18.8701 11.1634 20.4883 20 20.4883C28.8366 20.4883 36 18.8701 36 16.8741C36 14.8781 28.8366 13.26 20 13.26ZM20 13.26L19.8944 18.6589M4.06044 17.1864L6.36987 27.7314C6.39594 27.8488 6.45292 27.9573 6.53506 28.0461C6.6172 28.1348 6.72161 28.2007 6.83779 28.2371C15.294 30.6182 24.2544 30.6439 32.7246 28.3115C32.9354 28.2513 33.1262 28.1369 33.2774 27.9801C33.4286 27.8233 33.5347 27.6297 33.585 27.4191L35.7435 17.4095M16.8 29.6501V26.2441C16.8 26.1376 16.8429 26.0355 16.9193 25.9602C16.9958 25.8849 17.0994 25.8426 17.2075 25.8426H22.4C22.5455 25.8425 22.6853 25.8984 22.7896 25.9984C22.894 26.0985 22.9545 26.2346 22.9585 26.378L23.0792 29.9178M19.8944 26.0508V29.9178M5.34342 21.2022L6.79247 21.9607M9.05657 22.7638L11.5471 23.1654M13.902 23.3885L16.468 23.567M18.5963 23.7306H21.2227M23.4868 23.567L25.9774 23.3885M28.2114 23.1654L30.7925 22.63M32.8604 21.9607L34.5962 21.2022M31.3359 26.0508L28.785 26.6903M26.5509 26.8837L23.9698 27.2555M13.2377 26.8837L15.8792 27.0621M8.45276 26.0508L10.9886 26.6903M33.766 26.7647C35.0491 27.2704 35.7887 27.8653 35.7887 28.49C35.7887 30.4235 28.6792 32 19.8943 32C11.1094 32 4 30.4235 4 28.49C4 27.8504 4.73962 27.2704 6.05283 26.7498M26.551 13.5872L23.0944 18.6589M32.8604 14.9555L30.4453 16.8741M28.8603 18.1978L27.3358 19.4174M6.79242 14.9555L9.72072 16.8592M11.2905 18.1978L13.0113 19.3133M8.70947 14.316V9.274C8.70684 9.24093 8.71289 9.20776 8.72703 9.17766C8.74116 9.14756 8.76292 9.12155 8.79021 9.10213C8.8175 9.08271 8.8494 9.07054 8.88284 9.06678C8.91628 9.06301 8.95014 9.06779 8.98117 9.08065C8.98117 9.08065 13.2378 9.89866 12.4227 10.2854C11.6076 10.6721 8.84532 11.7727 8.84532 11.7727M19.9546 12.9922V8.45597C19.9555 8.38309 19.9738 8.31143 20.0082 8.24688C20.0425 8.18234 20.0919 8.12674 20.1523 8.08464C20.2127 8.04255 20.2824 8.01517 20.3556 8.00474C20.4288 7.99432 20.5035 8.00114 20.5735 8.02466C20.5735 8.02466 25.1018 8.53034 23.7282 9.14013C22.7924 9.52683 19.9999 10.7613 19.9999 10.7613M31.1246 14.2713V9.15501C31.1209 9.11822 31.1272 9.08112 31.1428 9.04752C31.1585 9.01393 31.183 8.98505 31.2137 8.96385C31.2444 8.94265 31.2803 8.92989 31.3177 8.92689C31.3551 8.92389 31.3927 8.93076 31.4265 8.94679C31.4265 8.94679 35.8642 10.0623 34.9737 10.4341C34.0831 10.8059 31.351 12.0701 31.351 12.0701M12.5 20C13.6623 18.8845 16.4829 18.3614 20.1207 18.3614C22.6695 18.2292 25.2103 18.7412 27.5018 19.8487" stroke="#737373" stroke-width="0.4" stroke-miterlimit="10" stroke-linecap="round"/>
</svg>
