<svg width="40" height="40" viewBox="0 0 40 40" fill="none" xmlns="http://www.w3.org/2000/svg">
<path d="M12.9689 6.05171C12.9689 6.05171 12.0485 4.56299 13.6674 4.237C13.6674 4.237 16.994 3.34594 15.4083 5.01939L14.7652 6.10605M12.8802 8.26849C12.7284 8.5295 12.67 8.83274 12.7142 9.13004C12.7584 9.42734 12.9027 9.70163 13.1242 9.90934C13.3268 10.0923 13.4761 10.3249 13.5566 10.5831L15.109 15.0927L14.6101 15.636C14.4713 15.7777 14.3744 15.9535 14.3295 16.1449C14.2846 16.3362 14.2934 16.5359 14.355 16.7227L15.5304 20.852C15.5304 20.852 14.6433 21.3084 15.3086 22.9601C15.3086 22.9601 15.2088 32.5227 16.5394 36M14.7652 8.26849L16.3952 12.6151C16.4707 12.8156 16.4899 13.0322 16.4509 13.2425C16.4119 13.4527 16.3161 13.6488 16.1735 13.8104L15.0092 15.2448M16.1624 11.5719H17.9144C18.0018 11.0849 18.2498 10.6395 18.6203 10.3039C18.9909 9.96824 19.4635 9.76094 19.9657 9.71375C19.9657 9.71375 22.0282 9.57248 22.3498 11.0395C22.4016 11.6279 22.326 12.2203 22.128 12.7781C22.0629 13.7308 21.6723 14.6342 21.0191 15.3426C20.8309 15.517 20.5913 15.6288 20.3345 15.6619C20.0776 15.6951 19.8167 15.648 19.5887 15.5274C19.0565 15.2448 18.6462 14.6689 18.2138 13.1259L17.9365 11.5719M18.3579 12.6043C18.9536 12.4255 19.5023 12.1214 19.9657 11.7132C20.0042 11.6713 20.0512 11.6378 20.1038 11.6149C20.1563 11.592 20.2131 11.5801 20.2707 11.5801C20.3282 11.5801 20.385 11.592 20.4376 11.6149C20.4901 11.6378 20.5371 11.6713 20.5756 11.7132C20.997 12.1479 21.629 12.7347 22.0282 12.6151M17.1826 9.17041L18.358 10.3983M20.1986 8.05116V9.71374M23.3034 9.06176L22.0282 10.3223M24.0241 11.5937H22.5161M22.128 13.7018C22.5104 14.0867 22.7397 14.593 22.7743 15.1291C22.8088 15.6653 22.6465 16.1959 22.3165 16.6249C22.295 16.6442 22.2778 16.6677 22.2661 16.6939C22.2543 16.7201 22.2483 16.7484 22.2483 16.777C22.2483 16.8056 22.2543 16.8339 22.2661 16.8601C22.2778 16.8863 22.295 16.9098 22.3165 16.9292C22.6713 17.1899 23.4254 18.1788 23.8689 21.8626M15.5304 20.8303L21.4849 16.4619M21.4849 16.4619L20.4315 15.6686M21.4849 16.4619C21.798 16.5689 22.0904 16.7269 22.3498 16.9292M22.8044 17.5051L16.7057 22.0582L15.3751 23.0362M19.5334 20.1131L17.3378 29.8604M21.4849 18.57V27.7631M23.7137 20.6781L25.1441 18.5048C25.1795 18.4552 25.2246 18.413 25.2768 18.3806C25.3289 18.3483 25.3872 18.3264 25.448 18.3163C25.5089 18.3062 25.5712 18.308 25.6314 18.3217C25.6915 18.3355 25.7483 18.3607 25.7984 18.3962L27.8054 19.8414C27.9052 19.9132 27.9726 20.0203 27.9933 20.14C28.014 20.2596 27.9864 20.3825 27.9163 20.4825L24.756 24.8292M23.9022 21.8626L25.4435 27.6545C25.4812 27.8028 25.4627 27.9596 25.3913 28.0955C25.3199 28.2314 25.2005 28.3373 25.0554 28.3934L21.9949 29.4801C21.845 29.5337 21.7155 29.6313 21.6243 29.7597C21.533 29.888 21.4843 30.0408 21.4849 30.1973V31.0992C21.4907 31.1997 21.4607 31.2991 21.4 31.3803C21.3393 31.4616 21.2517 31.5197 21.1522 31.5447L19.4889 32.0989M15.9185 33.3486L19.622 32.0554M12.6917 35.9239H27.5503M23.7026 28.8824C23.5905 31.2616 23.2187 33.6223 22.5938 35.9239M16.9053 16.2989L16.4729 20.1348M14.7653 8.18155L12.5476 8.12722C12.478 8.10697 12.416 8.06749 12.3688 8.01352C12.3215 7.95955 12.2912 7.89339 12.2814 7.82296L12.0042 6.55157C11.9962 6.50013 11.9997 6.44759 12.0144 6.39761C12.0291 6.34762 12.0548 6.30137 12.0896 6.26208C12.1245 6.22279 12.1676 6.1914 12.216 6.17008C12.2645 6.14876 12.3171 6.13803 12.3701 6.13864H15.1312C15.188 6.13821 15.2441 6.15076 15.2951 6.17527C15.3461 6.19979 15.3906 6.23561 15.425 6.2799C15.4595 6.32418 15.4829 6.37571 15.4935 6.43041C15.5041 6.48511 15.5015 6.54147 15.486 6.59503L15.1312 7.87729C15.1178 7.9627 15.0735 8.04051 15.0062 8.09641C14.939 8.15232 14.8534 8.18255 14.7653 8.18155Z" stroke="#737373" stroke-width="0.4" stroke-miterlimit="10" stroke-linecap="round"/>
</svg>
