<svg width="40" height="40" viewBox="0 0 40 40" fill="none" xmlns="http://www.w3.org/2000/svg">
<path d="M25.1697 6.22407L23.4173 10.0822C23.2222 10.521 23.1197 10.9957 23.1162 11.4763L23.1162 12.3625M25.6105 6.22407C26.3393 7.72548 26.9574 9.27868 27.4597 10.8711C27.4931 11.3028 27.4931 11.9309 27.4597 12.3625M31.9216 12.5679C31.9216 12.5679 31.9216 11.1089 31.685 10.9144C29.9756 9.53105 25.7825 6.52667 25.7825 6.52667M24.8042 6.52667L20.0628 9.93092C19.677 10.2068 19.3625 10.5715 19.1456 10.9945C18.9286 11.4175 18.8155 11.8866 18.8157 12.3625M25.288 12.5679V23.148M19.6543 23.1372C19.5877 23.0702 19.5265 22.998 19.4715 22.9211C19.3042 22.7089 19.2133 22.4461 19.2135 22.1754C19.2419 21.8727 19.3816 21.5916 19.6053 21.387C19.829 21.1823 20.1205 21.0689 20.423 21.0689C20.7254 21.0689 21.017 21.1823 21.2407 21.387C21.4644 21.5916 21.6041 21.8727 21.6325 22.1754C21.6305 22.4592 21.5318 22.7338 21.353 22.9535C21.353 22.9535 21.2455 23.0724 21.1917 23.1156M22.0088 23.1588C21.9171 23.0937 21.8371 23.0133 21.7723 22.9211C21.7037 22.8441 21.6425 22.7609 21.5895 22.6725M21.5895 21.7539C21.6878 21.4877 21.876 21.2648 22.1213 21.124C22.3666 20.9832 22.6534 20.9336 22.9314 20.9838C23.2094 21.034 23.461 21.1809 23.6422 21.3987C23.8233 21.6166 23.9226 21.8915 23.9225 22.1754C23.9226 22.4784 23.8116 22.7708 23.6107 22.9967C23.554 23.0626 23.4889 23.1207 23.4172 23.1697M27.3522 23.1696C27.1639 23.0821 27.0048 22.9416 26.8942 22.7652C26.7835 22.5888 26.726 22.3839 26.7286 22.1754C26.757 21.8727 26.8967 21.5916 27.1204 21.387C27.3441 21.1823 27.6357 21.0689 27.9381 21.0689C28.2406 21.0689 28.5322 21.1823 28.7559 21.387C28.9795 21.5916 29.1192 21.8727 29.1477 22.1754C29.1502 22.3839 29.0927 22.5888 28.9821 22.7652C28.8715 22.9416 28.7124 23.0821 28.5241 23.1696M29.1047 21.7215C29.1565 21.5284 29.2607 21.3535 29.4056 21.2164C29.5505 21.0792 29.7304 20.9852 29.9253 20.9447C30.1202 20.9043 30.3224 20.919 30.5095 20.9873C30.6965 21.0555 30.8611 21.1746 30.9848 21.3313C31.1085 21.488 31.1865 21.6761 31.2102 21.8747C31.2338 22.0734 31.2022 22.2747 31.1187 22.4563C31.0353 22.6379 30.9033 22.7926 30.7375 22.9033C30.5718 23.014 30.3787 23.0763 30.1798 23.0832C29.9885 23.0859 29.8 23.0372 29.6337 22.9422C29.4674 22.8472 29.3293 22.7094 29.2337 22.5428M30.169 19.3223C30.3034 19.0939 30.5087 18.9161 30.7534 18.8165C30.9981 18.7168 31.2686 18.7008 31.5233 18.7708C31.7779 18.8408 32.0026 18.993 32.1628 19.204C32.323 19.4149 32.4097 19.6729 32.4097 19.9383C32.4097 20.2037 32.323 20.4617 32.1628 20.6727C32.0026 20.8836 31.7779 21.0358 31.5233 21.1058C31.2686 21.1758 30.9981 21.1598 30.7534 21.0601C30.5087 20.9605 30.3034 20.7828 30.169 20.5543M21.6648 31.221H20.1166C19.9113 31.221 19.7144 31.139 19.5692 30.9931C19.424 30.8471 19.3425 30.6492 19.3425 30.4429V23.1913H34.0611C34.2835 23.1913 34.4968 23.2801 34.6541 23.4382C34.8114 23.5963 34.8997 23.8107 34.8997 24.0342V30.378C34.8997 30.6016 34.8114 30.816 34.6541 30.9741C34.4968 31.1322 34.2835 31.221 34.0611 31.221H29.008M9.77373 29.2216C9.77373 29.2216 8.12877 31.6965 8.17178 32.6475C8.17178 33.0258 9.24691 33.9119 8.92437 33.9444C8.23628 34.0092 6 33.9444 6 33.9444L7.31167 30.6482C7.5827 29.9602 7.72133 29.2267 7.72022 28.4868V25.785C7.72022 25.6661 7.72022 25.5472 7.72022 25.4391C8.23628 18.0146 11.3004 18.9549 11.3004 18.9549C12.4401 19.0197 12.8809 20.63 13.0421 21.5486C13.0725 21.7295 13.1549 21.8974 13.279 22.0319C13.4032 22.1663 13.5638 22.2613 13.741 22.3051L17.4179 23.1913M9.56939 27.0926L11.0423 29.0379C11.3099 29.3971 11.5069 29.8042 11.6229 30.2375L12.6013 33.9444C13.4849 34.0185 14.3732 34.0185 15.2569 33.9444C15.4504 33.9444 14.7085 33.4256 14.7085 33.4256C14.2788 33.0148 13.9733 32.4903 13.8269 31.9126L13.0528 28.8218C12.9911 28.6001 12.9046 28.3862 12.7948 28.1842L11.7197 26.3145C11.5494 26.0151 11.4604 25.676 11.4616 25.3311V24.2504M10.7306 21.6567L12.01 23.2669C12.1382 23.4252 12.3037 23.5486 12.4915 23.6261C12.6793 23.7035 12.8834 23.7323 13.0852 23.71L16.9557 23.1913M19.0952 23.2021H16.0955M25.7825 6.1268C25.6269 6.04355 25.4534 6 25.2772 6C25.101 6 24.9274 6.04355 24.7719 6.1268L15.4612 10.6226C15.3505 10.6882 15.2568 10.7792 15.1877 10.8881C15.1186 10.9971 15.076 11.1208 15.0634 11.2494C15.0634 11.2494 14.7086 12.5895 15.0634 12.5895H34.8997C35.1254 12.5895 34.8997 11.6709 34.8997 11.6709C34.9015 11.4472 34.841 11.2274 34.7251 11.0365C34.6092 10.8455 34.4425 10.6909 34.2438 10.5902L25.7825 6.1268ZM22.7936 19.9383C22.7936 20.6068 22.2545 21.1487 21.5895 21.1487C20.9244 21.1487 20.3853 20.6068 20.3853 19.9383C20.3853 19.2698 20.9244 18.7279 21.5895 18.7279C22.2545 18.7279 22.7936 19.2698 22.7936 19.9383ZM30.1798 19.9383C30.1798 20.6187 29.631 21.1703 28.9541 21.1703C28.2772 21.1703 27.7285 20.6187 27.7285 19.9383C27.7285 19.2579 28.2772 18.7063 28.9541 18.7063C29.631 18.7063 30.1798 19.2579 30.1798 19.9383ZM33.4912 22.0673C33.4912 22.6642 33.0098 23.148 32.416 23.148C31.8223 23.148 31.3409 22.6642 31.3409 22.0673C31.3409 21.4705 31.8223 20.9866 32.416 20.9866C33.0098 20.9866 33.4912 21.4705 33.4912 22.0673ZM13.1174 17.2906C13.1174 18.2217 12.3665 18.9765 11.4402 18.9765C10.5139 18.9765 9.76298 18.2217 9.76298 17.2906C9.76298 16.3595 10.5139 15.6047 11.4402 15.6047C12.3665 15.6047 13.1174 16.3595 13.1174 17.2906ZM29.0725 30.1511C29.0725 32.252 27.3781 33.9552 25.288 33.9552C23.1979 33.9552 21.5035 32.252 21.5035 30.1511C21.5035 28.0501 23.1979 26.347 25.288 26.347C27.3781 26.347 29.0725 28.0501 29.0725 30.1511ZM26.9437 30.1511C26.9437 31.0702 26.2024 31.8154 25.288 31.8154C24.3735 31.8154 23.6323 31.0702 23.6323 30.1511C23.6323 29.2319 24.3735 28.4868 25.288 28.4868C26.2024 28.4868 26.9437 29.2319 26.9437 30.1511Z" stroke="#737373" stroke-width="0.4" stroke-miterlimit="10" stroke-linecap="round"/>
</svg>
