<svg width="40" height="40" viewBox="0 0 40 40" fill="none" xmlns="http://www.w3.org/2000/svg">
<path d="M11.5561 15.8165H33.3055C33.4397 15.819 33.5678 15.8727 33.6636 15.9664C33.7594 16.0601 33.8158 16.1868 33.8211 16.3206L34 22.5596C33.9269 23.091 33.6817 23.584 33.3017 23.9633C32.9218 24.3426 32.4279 24.5874 31.8956 24.6603L18.3114 26.5719C17.7657 26.6418 17.2113 26.5831 16.6924 26.4008C16.1734 26.2184 15.7045 25.9173 15.3231 25.5216C14.0308 23.1403 12.9736 20.6393 12.1664 18.0537L11.7876 17.0033L10.7354 14.1044C9.92518 11.7306 7 12.4449 7 12.4449M15.8492 26.2463L14.5234 29.3343M15.6914 31.1934L30.3593 31.1514M30.3593 31.1514C30.3593 32.1491 31.1697 32.958 32.1692 32.958C33.1687 32.958 33.979 32.1491 33.979 31.1514C33.979 30.1536 33.1687 29.3448 32.1692 29.3448C31.1697 29.3448 30.3593 30.1536 30.3593 31.1514ZM15.3442 17.2659L17.7117 25.1435M19.1321 17.2659L20.5106 24.7653M22.8886 17.2659L23.3306 24.5133M26.0137 17.2659V24.0406M28.6968 17.2659V23.6625M31.38 17.1084V23.1583M17.3434 15.5329L14.5234 9.68249C14.092 8.90524 13.5554 9.32538 13.5554 9.32538C13.4684 9.35438 13.3888 9.40193 13.3222 9.46473C13.2555 9.52754 13.2033 9.60408 13.1693 9.68904C13.1352 9.774 13.1201 9.86534 13.125 9.95672C13.1299 10.0481 13.1547 10.1373 13.1976 10.2182L13.5554 11.2685L13.7974 11.9197C13.7974 11.9197 13.3134 14.4615 13.9973 15.7219M13.6921 11.153L14.9758 10.6068M18.1221 15.5539V10.3022L17.617 7.74986C17.4276 6.89908 16.8173 7.00412 16.8173 7.00412C16.7099 7.00661 16.6045 7.03433 16.5098 7.08505C16.4151 7.13576 16.3338 7.20804 16.2723 7.29602C16.2108 7.38399 16.1709 7.4852 16.1559 7.59142C16.1409 7.69764 16.1512 7.8059 16.186 7.90741L16.3438 9.7455L15.6388 12.0037M22.6676 11.4996H24.8562V15.5959M24.8878 11.5206L25.7085 10.5438V9.01028C25.7085 9.01028 25.7085 8.47461 26.5818 8.4641C26.5818 8.4641 27.5394 8.32756 27.5394 8.96826V10.5543L28.3601 11.4996V15.1548M28.2128 15.5959L28.9704 13.0646C29.0179 12.8646 29.1069 12.6768 29.2316 12.5133C29.3563 12.3497 29.514 12.2141 29.6944 12.1151C29.8748 12.0162 30.0741 11.9561 30.2792 11.9387C30.4844 11.9213 30.6909 11.947 30.8855 12.0142C30.8855 12.0142 32.7163 12.718 32.2007 13.9994L31.4852 15.7219M30.5803 9.26236V11.9302M32.3902 8.59014L31.117 12.0983M33.3266 10.1341L31.5273 12.3504M28.8547 13.4322L29.8648 13.9679M31.117 13.7053L32.1271 14.1569M18.2903 13.2326H22.3835M19.4268 11.4996H21.0367M25.7717 10.3442H27.3816M25.0562 13.2221C25.0562 13.2221 26.6029 12.865 26.6029 14.1569V15.8165M15.6493 31.1934C15.6493 32.1912 14.839 33 13.8395 33C12.8399 33 12.0296 32.1912 12.0296 31.1934C12.0296 30.1957 12.8399 29.3868 13.8395 29.3868C14.839 29.3868 15.6493 30.1957 15.6493 31.1934ZM14.0815 31.1934C14.0815 31.3268 13.9731 31.435 13.8395 31.435C13.7058 31.435 13.5974 31.3268 13.5974 31.1934C13.5974 31.06 13.7058 30.9518 13.8395 30.9518C13.9731 30.9518 14.0815 31.06 14.0815 31.1934ZM32.4112 31.1514C32.4112 31.2848 32.3029 31.393 32.1692 31.393C32.0355 31.393 31.9272 31.2848 31.9272 31.1514C31.9272 31.018 32.0355 30.9098 32.1692 30.9098C32.3029 30.9098 32.4112 31.018 32.4112 31.1514ZM18.4482 9.7035H22.1941C22.2807 9.7035 22.3636 9.7378 22.4248 9.79886C22.486 9.85993 22.5203 9.94274 22.5203 10.0291V15.5959H18.1221V10.0291C18.1221 9.94274 18.1564 9.85993 18.2176 9.79886C18.2788 9.7378 18.3617 9.7035 18.4482 9.7035Z" stroke="#737373" stroke-width="0.4" stroke-miterlimit="10" stroke-linecap="round"/>
</svg>
