<svg width="40" height="40" viewBox="0 0 40 40" fill="none" xmlns="http://www.w3.org/2000/svg">
<path d="M5 25.4919L10.5405 21.9278C10.5405 21.9278 13.465 19.433 16.3894 21.4202L24.5992 26.0751M33.9894 23.6559L28.7573 20.4158C28.1445 20.0083 27.4349 19.7762 26.7031 19.7439C25.9714 19.7116 25.2446 19.8803 24.5993 20.2322L19.2821 22.8026M9.68981 22.2842C9.68981 22.133 9.68981 21.971 9.68981 21.809C9.69041 20.0651 10.3341 18.3846 11.494 17.0987C12.6539 15.8128 14.2459 15.0146 15.9564 14.8615C17.667 14.7084 19.3719 15.2114 20.7355 16.2714C22.099 17.3315 23.0221 18.8717 23.3231 20.5886M17.7188 9L17.421 12.5209M24.5992 10.9008L22.249 13.6333M27.4173 15.6313L24.2908 17.1109M6.96734 13.6333L9.67911 15.6313M11.3594 10.0368L13.4331 13.1257M5.1489 19.0334L8.31795 19.4654M6.04215 26.8959H34M9.15809 29.002H29.8952M14.8049 31H24.2908" stroke="#737373" stroke-width="0.4" stroke-miterlimit="10" stroke-linecap="round"/>
</svg>
