<svg width="40" height="40" viewBox="0 0 40 40" fill="none" xmlns="http://www.w3.org/2000/svg">
<path d="M28.9734 18.7006V18.9007L28.9789 18.9006L28.9734 18.7006ZM11.2828 18.7006L11.2823 18.9006H11.2828V18.7006ZM10.8679 18.176L11.0627 18.2217L11.0632 18.2192L10.8679 18.176ZM11.844 13.7595L12.0393 13.8026L12.0393 13.8024L11.844 13.7595ZM13.2836 12.6004L13.2836 12.4004L13.2833 12.4004L13.2836 12.6004ZM26.7041 12.6004V12.8005L26.7095 12.8004L26.7041 12.6004ZM27.9242 13.5399L27.7293 13.5858L27.7315 13.5937L27.9242 13.5399ZM29.254 18.298L29.0611 18.3519L29.0645 18.3621L29.254 18.298ZM14.8088 6V5.8V6ZM25.6062 6V5.8V6ZM26.7042 7.09804H26.5042H26.7042ZM26.7042 11.0876V11.2876H26.9042V11.0876H26.7042ZM13.7108 11.0876H13.5108V11.2876H13.7108V11.0876ZM10.2091 20.0549L10.2084 20.2549H10.2091V20.0549ZM33.2924 27.485V27.685H33.4924V27.485H33.2924ZM7.04922 27.485H6.84922V27.685H7.04922V27.485ZM7.04922 23.2026L7.24922 23.2026L7.24922 23.2026L7.04922 23.2026ZM16.0899 22.2144V22.0144V22.2144ZM24.1422 22.2144V22.4144V22.2144ZM26.8263 26.1063V25.9063V26.1063ZM12.9788 25.3255H13.1788H12.9788ZM10.3678 13.6009L10.1722 13.5587L10.1716 13.5621L10.3678 13.6009ZM13.5155 11.0876L13.5133 11.2876H13.5155V11.0876ZM27.1922 11.0876V11.2876L27.1946 11.2876L27.1922 11.0876ZM29.7055 13.0153L29.9011 12.973L29.8992 12.9657L29.7055 13.0153ZM9.14779 19.8231L9.13137 20.0224L9.33239 20.039L9.34725 19.8378L9.14779 19.8231ZM6.92731 19.6401L6.94374 19.4408L6.93553 19.4401L6.9273 19.4401L6.92731 19.6401ZM6.00008 18.7007L6.20008 18.7033V18.7007H6.00008ZM6.92731 17.5904L6.93449 17.3904H6.92731L6.92731 17.5904ZM9.3064 17.6758L9.50586 17.6906L9.52116 17.4834L9.31357 17.4759L9.3064 17.6758ZM33.5487 19.6035L33.5457 19.403L33.5317 19.4042L33.5487 19.6035ZM31.1086 19.8109L30.9091 19.8252L30.9236 20.0273L31.1255 20.0102L31.1086 19.8109ZM30.95 17.6026V17.4026H30.7351L30.7505 17.6169L30.95 17.6026ZM33.5487 17.6026L33.5516 17.4026H33.5487V17.6026ZM34.3539 18.4078L34.5539 18.4078L34.5539 18.4049L34.3539 18.4078ZM34.3539 18.7861L34.1539 18.7861L34.1539 18.7861L34.3539 18.7861ZM11.3317 30.3399H11.5317V30.1399H11.3317V30.3399ZM8.39139 32.78H8.19139H8.39139ZM8.39139 30.3399V30.1399H8.19139V30.3399H8.39139ZM31.865 30.3399H32.065V30.1399H31.865V30.3399ZM28.9125 30.3399V30.1399H28.7125V30.3399H28.9125ZM14.71 24.5277C14.5996 24.5283 14.5105 24.6183 14.5111 24.7288C14.5117 24.8392 14.6018 24.9283 14.7122 24.9277L14.71 24.5277ZM25.6926 24.8667C25.8031 24.8661 25.8921 24.776 25.8915 24.6656C25.8909 24.5551 25.8009 24.4661 25.6904 24.4667L25.6926 24.8667ZM28.9734 18.7006V18.5006H11.2828V18.7006V18.9006H28.9734V18.7006ZM11.2828 18.7006L11.2832 18.5006C11.249 18.5006 11.2153 18.4928 11.1845 18.4779L11.0972 18.6578L11.0098 18.8377C11.0948 18.8789 11.1879 18.9004 11.2823 18.9006L11.2828 18.7006ZM11.0972 18.6578L11.1845 18.4779C11.1538 18.4629 11.1268 18.4413 11.1056 18.4144L10.9487 18.5385L10.7918 18.6625C10.8504 18.7366 10.9249 18.7965 11.0098 18.8377L11.0972 18.6578ZM10.9487 18.5385L11.1056 18.4144C11.0844 18.3876 11.0695 18.3564 11.0621 18.323L10.8669 18.3665L10.6716 18.41C10.6922 18.5021 10.7333 18.5885 10.7918 18.6625L10.9487 18.5385ZM10.8669 18.3665L11.0621 18.323C11.0546 18.2896 11.0548 18.255 11.0627 18.2217L10.8679 18.176L10.6732 18.1303C10.6517 18.2222 10.6511 18.3178 10.6716 18.41L10.8669 18.3665ZM10.8679 18.176L11.0632 18.2192L12.0393 13.8026L11.844 13.7595L11.6487 13.7163L10.6727 18.1329L10.8679 18.176ZM11.844 13.7595L12.0393 13.8024C12.1017 13.5187 12.2591 13.2648 12.4854 13.0826L12.36 12.9268L12.2346 12.771C11.9373 13.0103 11.7306 13.3438 11.6487 13.7165L11.844 13.7595ZM12.36 12.9268L12.4854 13.0826C12.7117 12.9004 12.9934 12.8008 13.2839 12.8004L13.2836 12.6004L13.2833 12.4004C12.9018 12.401 12.5318 12.5317 12.2346 12.771L12.36 12.9268ZM13.2836 12.6004V12.8004H26.7041V12.6004V12.4004H13.2836V12.6004ZM26.7041 12.6004L26.7095 12.8004C26.9439 12.7941 27.1733 12.8688 27.359 13.0118L27.4811 12.8534L27.6031 12.6949C27.3444 12.4957 27.0251 12.3918 26.6988 12.4005L26.7041 12.6004ZM27.4811 12.8534L27.359 13.0118C27.5448 13.1549 27.6757 13.3576 27.7295 13.5858L27.9242 13.5399L28.1188 13.4939C28.0439 13.1762 27.8617 12.894 27.6031 12.6949L27.4811 12.8534ZM27.9242 13.5399L27.7315 13.5937L29.0614 18.3519L29.254 18.298L29.4466 18.2442L28.1168 13.486L27.9242 13.5399ZM29.254 18.298L29.0645 18.3621C29.0698 18.3777 29.0714 18.3943 29.069 18.4105L29.267 18.4387L29.4651 18.4669C29.4762 18.3886 29.4688 18.3088 29.4435 18.234L29.254 18.298ZM29.267 18.4387L29.069 18.4105C29.0667 18.4268 29.0606 18.4423 29.0512 18.4558L29.2153 18.5702L29.3794 18.6845C29.4246 18.6197 29.4539 18.5451 29.4651 18.4669L29.267 18.4387ZM29.2153 18.5702L29.0512 18.4558C29.0418 18.4693 29.0294 18.4804 29.0149 18.4882L29.1099 18.6642L29.2048 18.8402C29.2744 18.8027 29.3342 18.7494 29.3794 18.6845L29.2153 18.5702ZM29.1099 18.6642L29.0149 18.4882C29.0005 18.496 28.9844 18.5003 28.9679 18.5007L28.9734 18.7006L28.9789 18.9006C29.0579 18.8984 29.1353 18.8777 29.2048 18.8402L29.1099 18.6642ZM14.8088 6V6.2H25.6062V6V5.8H14.8088V6ZM25.6062 6V6.2C25.8444 6.2 26.0728 6.29461 26.2412 6.46303L26.3826 6.32161L26.524 6.18019C26.2806 5.93676 25.9504 5.8 25.6062 5.8V6ZM26.3826 6.32161L26.2412 6.46303C26.4096 6.63145 26.5042 6.85987 26.5042 7.09804L26.7042 7.09804L26.9042 7.09804C26.9042 6.75378 26.7675 6.42362 26.524 6.18019L26.3826 6.32161ZM26.7042 7.09804H26.5042V11.0876H26.7042H26.9042V7.09804H26.7042ZM26.7042 11.0876V10.8876H13.7108V11.0876V11.2876H26.7042V11.0876ZM13.7108 11.0876H13.9108V7.09804H13.7108H13.5108V11.0876H13.7108ZM13.7108 7.09804H13.9108C13.9108 6.85986 14.0054 6.63144 14.1738 6.46303L14.0324 6.32161L13.8909 6.18019C13.6475 6.42362 13.5108 6.75378 13.5108 7.09804H13.7108ZM14.0324 6.32161L14.1738 6.46303C14.3422 6.29461 14.5706 6.2 14.8088 6.2V6V5.8C14.4645 5.8 14.1344 5.93676 13.8909 6.18019L14.0324 6.32161ZM10.2091 20.0549V20.2549H30.1446V20.0549V19.8549H10.2091V20.0549ZM30.1446 20.0549V20.2549C30.9264 20.2549 31.6762 20.5655 32.229 21.1183L32.3704 20.9769L32.5118 20.8354C31.884 20.2076 31.0325 19.8549 30.1446 19.8549V20.0549ZM32.3704 20.9769L32.229 21.1183C32.7818 21.6711 33.0924 22.4208 33.0924 23.2026H33.2924H33.4924C33.4924 22.3148 33.1397 21.4633 32.5118 20.8354L32.3704 20.9769ZM33.2924 23.2026H33.0924V27.485H33.2924H33.4924V23.2026H33.2924ZM33.2924 27.485V27.285H7.04922V27.485V27.685H33.2924V27.485ZM7.04922 27.485H7.24922V23.2026H7.04922H6.84922V27.485H7.04922ZM7.04922 23.2026L7.24922 23.2026C7.24922 22.8146 7.32584 22.4303 7.47469 22.0719L7.28999 21.9952L7.10528 21.9185C6.93624 22.3255 6.84922 22.7619 6.84922 23.2026L7.04922 23.2026ZM7.28999 21.9952L7.47469 22.0719C7.62354 21.7136 7.84169 21.3881 8.11662 21.1142L7.97547 20.9725L7.83433 20.8308C7.52209 21.1419 7.27433 21.5115 7.10528 21.9185L7.28999 21.9952ZM7.97547 20.9725L8.11662 21.1142C8.39155 20.8404 8.71785 20.6235 9.07681 20.476L9.00081 20.291L8.92481 20.106C8.51715 20.2735 8.14656 20.5198 7.83433 20.8308L7.97547 20.9725ZM9.00081 20.291L9.07681 20.476C9.43576 20.3285 9.8203 20.2534 10.2084 20.2549L10.2091 20.0549L10.2099 19.8549C9.76919 19.8532 9.33247 19.9385 8.92481 20.106L9.00081 20.291ZM11.1731 24.7277H10.9731C10.9731 25.3854 10.4399 25.9185 9.78224 25.9185V26.1185V26.3185C10.6608 26.3185 11.3731 25.6063 11.3731 24.7277H11.1731ZM9.78224 26.1185V25.9185C9.12455 25.9185 8.59139 25.3854 8.59139 24.7277H8.39139H8.19139C8.19139 25.6063 8.90363 26.3185 9.78224 26.3185V26.1185ZM8.39139 24.7277H8.59139C8.59139 24.07 9.12455 23.5368 9.78224 23.5368V23.3368V23.1368C8.90363 23.1368 8.19139 23.8491 8.19139 24.7277H8.39139ZM9.78224 23.3368V23.5368C10.4399 23.5368 10.9731 24.07 10.9731 24.7277H11.1731H11.3731C11.3731 23.8491 10.6608 23.1368 9.78224 23.1368V23.3368ZM31.7308 24.7277H31.5308C31.5308 25.3854 30.9976 25.9185 30.3399 25.9185V26.1185V26.3185C31.2185 26.3185 31.9308 25.6063 31.9308 24.7277H31.7308ZM30.3399 26.1185V25.9185C29.6823 25.9185 29.1491 25.3854 29.1491 24.7277H28.9491H28.7491C28.7491 25.6063 29.4613 26.3185 30.3399 26.3185V26.1185ZM28.9491 24.7277H29.1491C29.1491 24.07 29.6823 23.5368 30.3399 23.5368V23.3368V23.1368C29.4613 23.1368 28.7491 23.8491 28.7491 24.7277H28.9491ZM30.3399 23.3368V23.5368C30.9976 23.5368 31.5308 24.07 31.5308 24.7277H31.7308H31.9308C31.9308 23.8491 31.2185 23.1368 30.3399 23.1368V23.3368ZM16.0899 22.2144V22.4144H24.1422V22.2144V22.0144H16.0899V22.2144ZM24.1422 22.2144V22.4144C24.9142 22.4144 25.6547 22.7211 26.2006 23.267L26.342 23.1256L26.4835 22.9842C25.8625 22.3632 25.0203 22.0144 24.1422 22.0144V22.2144ZM26.342 23.1256L26.2006 23.267C26.7466 23.813 27.0533 24.5534 27.0533 25.3255H27.2533H27.4533C27.4533 24.4473 27.1044 23.6051 26.4835 22.9842L26.342 23.1256ZM27.2533 25.3255H27.0533V25.6793H27.2533H27.4533V25.3255H27.2533ZM27.2533 25.6793H27.0533C27.0533 25.7395 27.0294 25.7972 26.9868 25.8398L27.1282 25.9812L27.2696 26.1227C27.3872 26.0051 27.4533 25.8456 27.4533 25.6793H27.2533ZM27.1282 25.9812L26.9868 25.8398C26.9442 25.8824 26.8865 25.9063 26.8263 25.9063L26.8263 26.1063L26.8263 26.3063C26.9926 26.3063 27.152 26.2402 27.2696 26.1227L27.1282 25.9812ZM26.8263 26.1063V25.9063H13.4058V26.1063V26.3063H26.8263V26.1063ZM13.4058 26.1063V25.9063C13.3456 25.9063 13.2878 25.8824 13.2453 25.8398L13.1038 25.9812L12.9624 26.1227C13.08 26.2402 13.2395 26.3063 13.4058 26.3063V26.1063ZM13.1038 25.9812L13.2453 25.8398C13.2027 25.7972 13.1788 25.7395 13.1788 25.6793H12.9788H12.7788C12.7788 25.8456 12.8448 26.0051 12.9624 26.1227L13.1038 25.9812ZM12.9788 25.6793H13.1788V25.3255H12.9788H12.7788V25.6793H12.9788ZM12.9788 25.3255H13.1788C13.1788 24.5534 13.4855 23.813 14.0314 23.267L13.89 23.1256L13.7486 22.9842C13.1276 23.6051 12.7788 24.4473 12.7788 25.3255H12.9788ZM13.89 23.1256L14.0314 23.267C14.5773 22.7211 15.3178 22.4144 16.0899 22.4144V22.2144V22.0144C15.2117 22.0144 14.3695 22.3632 13.7486 22.9842L13.89 23.1256ZM9.07453 20.1403L9.27073 20.1791L10.564 13.6397L10.3678 13.6009L10.1716 13.5621L8.87833 20.1015L9.07453 20.1403ZM10.3678 13.6009L10.5633 13.643C10.7082 12.9706 11.081 12.3688 11.6186 11.9396L11.4938 11.7833L11.369 11.627C10.7594 12.1138 10.3366 12.7962 10.1723 13.5587L10.3678 13.6009ZM11.4938 11.7833L11.6186 11.9396C12.1561 11.5104 12.8254 11.28 13.5133 11.2876L13.5155 11.0876L13.5177 10.8876C12.7376 10.8791 11.9786 11.1403 11.369 11.627L11.4938 11.7833ZM13.5155 11.0876V11.2876H27.1922V11.0876V10.8876H13.5155V11.0876ZM27.1922 11.0876L27.1946 11.2876C27.7241 11.2812 28.2405 11.4529 28.6607 11.7752L28.7824 11.6165L28.9041 11.4578C28.4127 11.0809 27.809 10.8801 27.1898 10.8876L27.1922 11.0876ZM28.7824 11.6165L28.6607 11.7752C29.0809 12.0975 29.3806 12.5517 29.5117 13.0648L29.7055 13.0153L29.8992 12.9657C29.746 12.3658 29.3955 11.8347 28.9041 11.4578L28.7824 11.6165ZM29.7055 13.0153L29.51 13.0574L31.0106 20.0117L31.2061 19.9695L31.4016 19.9273L29.901 12.9731L29.7055 13.0153ZM9.14779 19.8231L9.16422 19.6238L6.94374 19.4408L6.92731 19.6401L6.91089 19.8394L9.13137 20.0224L9.14779 19.8231ZM6.92731 19.6401L6.9273 19.4401C6.83098 19.4401 6.73563 19.421 6.64677 19.3838L6.56964 19.5684L6.4925 19.7529C6.63024 19.8105 6.77805 19.8401 6.92733 19.8401L6.92731 19.6401ZM6.56964 19.5684L6.64677 19.3838C6.55791 19.3467 6.47731 19.2923 6.40965 19.2237L6.26731 19.3642L6.12497 19.5047C6.22984 19.611 6.35477 19.6953 6.4925 19.7529L6.56964 19.5684ZM6.26731 19.3642L6.40965 19.2237C6.34199 19.1552 6.28863 19.0739 6.25265 18.9845L6.06713 19.0592L5.88161 19.134C5.93738 19.2724 6.0201 19.3985 6.12497 19.5047L6.26731 19.3642ZM6.06713 19.0592L6.25265 18.9845C6.21667 18.8952 6.1988 18.7996 6.20006 18.7033L6.00008 18.7007L5.8001 18.698C5.79813 18.8473 5.82584 18.9955 5.88161 19.134L6.06713 19.0592ZM6.00008 18.7007H6.20008V18.5176H6.00008H5.80008V18.7007H6.00008ZM6.00008 18.5176H6.20008C6.20008 18.3248 6.2767 18.1398 6.41308 18.0034L6.27166 17.862L6.13024 17.7206C5.91884 17.932 5.80008 18.2187 5.80008 18.5176H6.00008ZM6.27166 17.862L6.41308 18.0034C6.54946 17.867 6.73444 17.7904 6.92731 17.7904L6.92731 17.5904L6.92731 17.3904C6.62835 17.3904 6.34164 17.5092 6.13024 17.7206L6.27166 17.862ZM6.92731 17.5904L6.92014 17.7903L9.29922 17.8757L9.3064 17.6758L9.31357 17.4759L6.93449 17.3905L6.92731 17.5904ZM9.3064 17.6758L9.10694 17.6611L8.94834 19.8084L9.14779 19.8231L9.34725 19.8378L9.50586 17.6906L9.3064 17.6758ZM33.5487 19.6035L33.5317 19.4042L31.0916 19.6116L31.1086 19.8109L31.1255 20.0102L33.5656 19.8028L33.5487 19.6035ZM31.1086 19.8109L31.3081 19.7966L31.1495 17.5883L30.95 17.6026L30.7505 17.6169L30.9091 19.8252L31.1086 19.8109ZM30.95 17.6026V17.8026H33.5487V17.6026V17.4026H30.95V17.6026ZM33.5487 17.6026L33.5457 17.8026C33.7063 17.805 33.8596 17.8698 33.9732 17.9834L34.1146 17.8419L34.256 17.7005C34.0689 17.5134 33.8162 17.4066 33.5516 17.4026L33.5487 17.6026ZM34.1146 17.8419L33.9732 17.9834C34.0867 18.0969 34.1515 18.2502 34.1539 18.4108L34.3539 18.4078L34.5539 18.4049C34.55 18.1403 34.4431 17.8876 34.256 17.7005L34.1146 17.8419ZM34.3539 18.4078H34.1539V18.7861H34.3539H34.5539V18.4078H34.3539ZM34.3539 18.7861L34.1539 18.7861C34.1539 18.9482 34.0901 19.1039 33.9763 19.2194L34.1188 19.3598L34.2613 19.5001C34.4488 19.3098 34.5539 19.0533 34.5539 18.786L34.3539 18.7861ZM34.1188 19.3598L33.9763 19.2194C33.8625 19.335 33.7078 19.4011 33.5457 19.4035L33.5487 19.6035L33.5517 19.8035C33.8189 19.7995 34.0738 19.6905 34.2613 19.5001L34.1188 19.3598ZM11.3317 30.3399H11.1317V32.78H11.3317H11.5317V30.3399H11.3317ZM11.3317 32.78H11.1317C11.1317 33.0505 11.0242 33.3099 10.8329 33.5012L10.9743 33.6427L11.1158 33.7841C11.3821 33.5178 11.5317 33.1566 11.5317 32.78H11.3317ZM10.9743 33.6427L10.8329 33.5012C10.6416 33.6925 10.3822 33.8 10.1116 33.8V34V34.2C10.4883 34.2 10.8495 34.0504 11.1158 33.7841L10.9743 33.6427ZM10.1116 34V33.8H9.61143V34V34.2H10.1116V34ZM9.61143 34V33.8C9.3409 33.8 9.08145 33.6925 8.89015 33.5012L8.74873 33.6427L8.60731 33.7841C8.87362 34.0504 9.23481 34.2 9.61143 34.2V34ZM8.74873 33.6427L8.89015 33.5012C8.69886 33.3099 8.59139 33.0505 8.59139 32.78H8.39139H8.19139C8.19139 33.1566 8.341 33.5178 8.60731 33.7841L8.74873 33.6427ZM8.39139 32.78H8.59139V30.3399H8.39139H8.19139V32.78H8.39139ZM31.865 30.3399H31.665V32.78H31.865H32.065V30.3399H31.865ZM31.865 32.78H31.665C31.665 33.0505 31.5575 33.3099 31.3662 33.5012L31.5076 33.6427L31.649 33.7841C31.9154 33.5178 32.065 33.1566 32.065 32.78H31.865ZM31.5076 33.6427L31.3662 33.5012C31.1749 33.6925 30.9154 33.8 30.6449 33.8V34V34.2C31.0215 34.2 31.3827 34.0504 31.649 33.7841L31.5076 33.6427ZM30.6449 34V33.8H30.1325V34V34.2H30.6449V34ZM30.1325 34V33.8C29.862 33.8 29.6025 33.6925 29.4112 33.5012L29.2698 33.6427L29.1284 33.7841C29.3947 34.0504 29.7559 34.2 30.1325 34.2V34ZM29.2698 33.6427L29.4112 33.5012C29.2199 33.3099 29.1125 33.0505 29.1125 32.78H28.9125H28.7125C28.7125 33.1566 28.8621 33.5178 29.1284 33.7841L29.2698 33.6427ZM28.9125 32.78H29.1125V30.3399H28.9125H28.7125V32.78H28.9125ZM7.17129 27.485V27.685H32.9386V27.485V27.285H7.17129V27.485ZM32.9386 27.485V27.685C33.4481 27.685 33.8611 28.098 33.8611 28.6074H34.0611H34.2611C34.2611 27.877 33.669 27.285 32.9386 27.285V27.485ZM34.0611 28.6074H33.8611V29.2174H34.0611H34.2611V28.6074H34.0611ZM34.0611 29.2174H33.8611C33.8611 29.7269 33.4481 30.1399 32.9386 30.1399V30.3399V30.5399C33.669 30.5399 34.2611 29.9478 34.2611 29.2174H34.0611ZM32.9386 30.3399V30.1399H7.17129V30.3399V30.5399H32.9386V30.3399ZM7.17129 30.3399V30.1399C6.66184 30.1399 6.24885 29.7269 6.24885 29.2174H6.04885H5.84885C5.84885 29.9478 6.44093 30.5399 7.17129 30.5399V30.3399ZM6.04885 29.2174H6.24885V28.6074H6.04885H5.84885V29.2174H6.04885ZM6.04885 28.6074H6.24885C6.24885 28.098 6.66184 27.685 7.17129 27.685V27.485V27.285C6.44093 27.285 5.84885 27.877 5.84885 28.6074H6.04885ZM14.7111 24.7277L14.7122 24.9277L25.6926 24.8667L25.6915 24.6667L25.6904 24.4667L14.71 24.5277L14.7111 24.7277ZM8.39139 30.3399V30.5399H11.3317V30.3399V30.1399H8.39139V30.3399ZM28.9125 30.3399V30.5399H31.865V30.3399V30.1399H28.9125V30.3399Z" fill="#737373"/>
<path d="M19.1008 7.81639L19.1721 8.15526L18.884 8.14745L18.9749 7.81639H19.1008Z" fill="#737373" stroke="#737373" stroke-width="1.11803"/>
</svg>
