<svg width="40" height="40" viewBox="0 0 40 40" fill="none" xmlns="http://www.w3.org/2000/svg">
<path d="M15.2376 14.8472L15.0418 14.8055L15.0404 14.8141L15.2376 14.8472ZM26.0111 14.8472L26.2084 14.8143L26.2082 14.8135L26.0111 14.8472ZM12.4613 25.9722V25.7722H12.2613V25.9722H12.4613ZM15.279 25.9722H15.479V25.7722H15.279V25.9722ZM15.279 34.2222V34.4222H15.479V34.2222H15.279ZM12.4613 34.2222H12.2613V34.4222H12.4613V34.2222ZM23.2624 34.2083V34.4083H23.4624V34.2083H23.2624ZM18.1519 34.2083H17.9519V34.4083H18.1519V34.2083ZM28.7044 34.2222V34.4222H28.9044V34.2222H28.7044ZM25.9696 34.2222H25.7696V34.4222H25.9696V34.2222ZM8.74586 34.2083L8.73401 34.4083H8.74586V34.2083ZM33 34.9167H32.8H33ZM8 34.9167H8.2L8.2 34.9163L8 34.9167ZM14.9337 16.3833C14.8233 16.3833 14.7337 16.4729 14.7337 16.5833C14.7337 16.6938 14.8233 16.7833 14.9337 16.7833V16.3833ZM16.6602 16.7833C16.7707 16.7833 16.8602 16.6938 16.8602 16.5833C16.8602 16.4729 16.7707 16.3833 16.6602 16.3833V16.7833ZM14.2155 20.7167C14.105 20.7167 14.0155 20.8062 14.0155 20.9167C14.0155 21.0271 14.105 21.1167 14.2155 21.1167V20.7167ZM16.0387 21.1167C16.1491 21.1167 16.2387 21.0271 16.2387 20.9167C16.2387 20.8062 16.1491 20.7167 16.0387 20.7167V21.1167ZM24.5469 16.3833C24.4365 16.3833 24.3469 16.4729 24.3469 16.5833C24.3469 16.6938 24.4365 16.7833 24.5469 16.7833V16.3833ZM26.2873 16.7833C26.3977 16.7833 26.4873 16.6938 26.4873 16.5833C26.4873 16.4729 26.3977 16.3833 26.2873 16.3833V16.7833ZM25.1548 20.7167C25.0443 20.7167 24.9548 20.8062 24.9548 20.9167C24.9548 21.0271 25.0443 21.1167 25.1548 21.1167V20.7167ZM27.0194 21.1167C27.1299 21.1167 27.2194 21.0271 27.2194 20.9167C27.2194 20.8062 27.1299 20.7167 27.0194 20.7167V21.1167ZM20.6244 4.26389L20.8247 4.26389L20.8241 4.25284L20.6244 4.26389ZM20.873 4L20.8727 4.2H20.873V4ZM23.8288 4L23.9497 3.84071L23.8961 3.8H23.8288V4ZM23.3868 5.26389L23.2753 5.09758L23.2679 5.10311L23.3868 5.26389ZM13.7597 23.6389L13.957 23.672L15.4349 14.8804L15.2376 14.8472L15.0404 14.8141L13.5625 23.6057L13.7597 23.6389ZM15.2376 14.8472L15.4332 14.8889C15.781 13.2568 16.3738 11.9269 17.2281 11.0077C18.0771 10.0941 19.1943 9.575 20.6244 9.575V9.375V9.175C19.0848 9.175 17.8609 9.7392 16.9351 10.7354C16.0145 11.7259 15.3986 13.1321 15.042 14.8055L15.2376 14.8472ZM20.6244 9.375V9.575C22.0556 9.575 23.2078 10.0951 24.0738 11.0091C24.9437 11.9273 25.5354 13.2547 25.814 14.881L26.0111 14.8472L26.2082 14.8135C25.9206 13.1342 25.3036 11.7255 24.3642 10.734C23.4208 9.73828 22.1627 9.175 20.6244 9.175V9.375ZM26.0111 14.8472L25.8138 14.8802L27.3056 23.8107L27.5028 23.7778L27.7001 23.7448L26.2084 14.8143L26.0111 14.8472ZM10.652 23.5972V23.7972H30.5553V23.5972V23.3972H10.652V23.5972ZM30.5553 23.5972V23.7972C31.0922 23.7972 31.5294 24.2352 31.5294 24.7778H31.7294H31.9294C31.9294 24.0164 31.3152 23.3972 30.5553 23.3972V23.5972ZM31.7294 24.7778H31.5294V24.7917H31.7294H31.9294V24.7778H31.7294ZM31.7294 24.7917H31.5294C31.5294 25.3343 31.0922 25.7722 30.5553 25.7722V25.9722V26.1722C31.3152 26.1722 31.9294 25.5531 31.9294 24.7917H31.7294ZM30.5553 25.9722V25.7722H10.652V25.9722V26.1722H30.5553V25.9722ZM10.652 25.9722V25.7722C10.1151 25.7722 9.67799 25.3343 9.67799 24.7917H9.47799H9.27799C9.27799 25.5531 9.89213 26.1722 10.652 26.1722V25.9722ZM9.47799 24.7917H9.67799V24.7778H9.47799H9.27799V24.7917H9.47799ZM9.47799 24.7778H9.67799C9.67799 24.2352 10.1151 23.7972 10.652 23.7972V23.5972V23.3972C9.89213 23.3972 9.27799 24.0164 9.27799 24.7778H9.47799ZM12.4613 25.9722V26.1722H15.279V25.9722V25.7722H12.4613V25.9722ZM15.279 25.9722H15.079V34.2222H15.279H15.479V25.9722H15.279ZM15.279 34.2222V34.0222H12.4613V34.2222V34.4222H15.279V34.2222ZM12.4613 34.2222H12.6613V25.9722H12.4613H12.2613V34.2222H12.4613ZM10.3067 34.2222H10.5067V25.75H10.3067H10.1067V34.2222H10.3067ZM19.3259 27.8889V28.0889H22.0884V27.8889V27.6889H19.3259V27.8889ZM22.0884 27.8889V28.0889C22.3463 28.0889 22.594 28.1919 22.7767 28.3757L22.9185 28.2347L23.0603 28.0936C22.8027 27.8346 22.4531 27.6889 22.0884 27.6889V27.8889ZM22.9185 28.2347L22.7767 28.3757C22.9595 28.5595 23.0624 28.809 23.0624 29.0694H23.2624H23.4624C23.4624 28.7036 23.3179 28.3526 23.0603 28.0936L22.9185 28.2347ZM23.2624 29.0694H23.0624V34.2083H23.2624H23.4624V29.0694H23.2624ZM23.2624 34.2083V34.0083H18.1519V34.2083V34.4083H23.2624V34.2083ZM18.1519 34.2083H18.3519V29.0694H18.1519H17.9519V34.2083H18.1519ZM18.1519 29.0694H18.3519C18.3519 28.809 18.4548 28.5595 18.6376 28.3757L18.4958 28.2347L18.354 28.0936C18.0964 28.3526 17.9519 28.7036 17.9519 29.0694H18.1519ZM18.4958 28.2347L18.6376 28.3757C18.8203 28.1919 19.068 28.0889 19.3259 28.0889V27.8889V27.6889C18.9612 27.6889 18.6115 27.8346 18.354 28.0936L18.4958 28.2347ZM28.7044 25.9722H28.5044V34.2222H28.7044H28.9044V25.9722H28.7044ZM28.7044 34.2222V34.0222H25.9696V34.2222V34.4222H28.7044V34.2222ZM25.9696 34.2222H26.1696V25.9722H25.9696H25.7696V34.2222H25.9696ZM30.8177 25.9722H30.6177V34.2222H30.8177H31.0177V25.9722H30.8177ZM8.74586 34.2083V34.4083H32.2956V34.2083V34.0083H8.74586V34.2083ZM32.2956 34.2083V34.4083C32.3617 34.4083 32.4271 34.4214 32.4883 34.4469L32.5652 34.2623L32.6421 34.0776C32.5322 34.0319 32.4145 34.0083 32.2956 34.0083V34.2083ZM32.5652 34.2623L32.4883 34.4469C32.5494 34.4723 32.605 34.5097 32.6519 34.5568L32.7937 34.4158L32.9355 34.2748C32.8516 34.1904 32.7519 34.1234 32.6421 34.0776L32.5652 34.2623ZM32.7937 34.4158L32.6519 34.5568C32.6988 34.604 32.736 34.66 32.7615 34.7218L32.9464 34.6456L33.1313 34.5694C33.0859 34.4593 33.0194 34.3592 32.9355 34.2748L32.7937 34.4158ZM32.9464 34.6456L32.7615 34.7218C32.7869 34.7835 32.8 34.8498 32.8 34.9167L33 34.9167L33.2 34.9167C33.2 34.7975 33.1767 34.6795 33.1313 34.5694L32.9464 34.6456ZM33 34.9167H32.8C32.8 35.1513 32.7073 35.3761 32.5426 35.5417L32.6845 35.6827L32.8263 35.8237C33.0657 35.583 33.2 35.2567 33.2 34.9167H33ZM32.6845 35.6827L32.5426 35.5417C32.378 35.7072 32.155 35.8 31.9227 35.8V36V36.2C32.2618 36.2 32.5868 36.0645 32.8263 35.8237L32.6845 35.6827ZM31.9227 36V35.8H9.07735V36V36.2H31.9227V36ZM9.07735 36V35.8C8.84502 35.8 8.62198 35.7072 8.45736 35.5417L8.31555 35.6827L8.17374 35.8237C8.4132 36.0645 8.73822 36.2 9.07735 36.2V36ZM8.31555 35.6827L8.45736 35.5417C8.2927 35.3761 8.2 35.1513 8.2 34.9167H8H7.8C7.8 35.2567 7.93431 35.583 8.17374 35.8237L8.31555 35.6827ZM8 34.9167L8.2 34.9163C8.19988 34.8468 8.21391 34.778 8.24119 34.7143L8.0573 34.6356L7.87341 34.557C7.82476 34.6707 7.79979 34.7933 7.8 34.917L8 34.9167ZM8.0573 34.6356L8.24119 34.7143C8.26846 34.6505 8.3084 34.5931 8.35847 34.5455L8.22075 34.4005L8.08302 34.2554C7.99337 34.3406 7.92205 34.4432 7.87341 34.557L8.0573 34.6356ZM8.22075 34.4005L8.35847 34.5455C8.40855 34.4979 8.4677 34.4613 8.53227 34.4376L8.46355 34.2498L8.39482 34.062C8.27878 34.1044 8.17268 34.1703 8.08302 34.2554L8.22075 34.4005ZM8.46355 34.2498L8.53227 34.4376C8.59684 34.414 8.66549 34.4039 8.73403 34.408L8.74586 34.2083L8.75769 34.0087C8.63436 34.0014 8.51087 34.0195 8.39482 34.062L8.46355 34.2498ZM12.4613 28.0139V28.2139H15.279V28.0139V27.8139H12.4613V28.0139ZM12.4613 30.0972V30.2972H15.279V30.0972V29.8972H12.4613V30.0972ZM12.4613 32.2778V32.4778H15.279V32.2778V32.0778H12.4613V32.2778ZM25.9696 27.9861V28.1861H28.7044V27.9861V27.7861H25.9696V27.9861ZM25.9696 30.1944V30.3944H28.7044V30.1944V29.9944H25.9696V30.1944ZM25.9696 32.2778V32.4778H28.7044V32.2778V32.0778H25.9696V32.2778ZM14.9337 16.5833V16.7833H16.6602V16.5833V16.3833H14.9337V16.5833ZM14.2155 20.9167V21.1167H16.0387V20.9167V20.7167H14.2155V20.9167ZM24.5469 16.5833V16.7833H26.2873V16.5833V16.3833H24.5469V16.5833ZM25.1548 20.9167V21.1167H27.0194V20.9167V20.7167H25.1548V20.9167ZM15.5416 13.6806V13.8806H25.7349V13.6806V13.4806H15.5416V13.6806ZM18.732 13.8472L18.5333 13.825L17.4421 23.575L17.6409 23.5972L17.8396 23.6195L18.9308 13.8695L18.732 13.8472ZM22.6134 13.8472L22.4144 13.8675L23.4089 23.6175L23.6078 23.5972L23.8068 23.5769L22.8123 13.8269L22.6134 13.8472ZM18.4282 16.5833V16.7833H22.8896V16.5833V16.3833H18.4282V16.5833ZM17.9449 20.9167V21.1167H23.3316V20.9167V20.7167H17.9449V20.9167ZM16.4945 11.625V11.825H24.8094V11.625V11.425H16.4945V11.625ZM20.6244 9.375L20.8244 9.375L20.8244 4.26389L20.6244 4.26389L20.4244 4.26389L20.4244 9.375L20.6244 9.375ZM20.6244 4.26389L20.8241 4.25284C20.8237 4.24588 20.8247 4.23894 20.8271 4.23245L20.6392 4.16395L20.4513 4.09544C20.4303 4.15286 20.4213 4.21394 20.4247 4.27494L20.6244 4.26389ZM20.6392 4.16395L20.8271 4.23245C20.8295 4.22596 20.8331 4.2201 20.8377 4.21521L20.6921 4.07806L20.5466 3.94092C20.5046 3.98544 20.4722 4.03803 20.4513 4.09544L20.6392 4.16395ZM20.6921 4.07806L20.8377 4.21521C20.8423 4.21032 20.8478 4.20649 20.8538 4.20389L20.7746 4.02027L20.6953 3.83664C20.6391 3.86089 20.5885 3.8964 20.5466 3.94092L20.6921 4.07806ZM20.7746 4.02027L20.8538 4.20389C20.8598 4.2013 20.8662 4.19999 20.8727 4.2L20.873 4L20.8733 3.8C20.8121 3.79991 20.7515 3.81238 20.6953 3.83664L20.7746 4.02027ZM20.873 4V4.2H23.8288V4V3.8H20.873V4ZM23.8288 4C23.7079 4.15929 23.7077 4.1592 23.7076 4.15911C23.7076 4.15909 23.7075 4.15901 23.7074 4.15895C23.7073 4.15885 23.7072 4.15875 23.707 4.15866C23.7068 4.15848 23.7066 4.15833 23.7064 4.15821C23.7061 4.15796 23.7059 4.15782 23.7059 4.15779C23.7058 4.15773 23.7063 4.1581 23.7072 4.15889C23.7091 4.16049 23.7129 4.16372 23.7179 4.1685C23.7281 4.17816 23.7428 4.19349 23.7584 4.21378C23.7902 4.25516 23.8203 4.31059 23.8291 4.37688C23.8439 4.48904 23.8071 4.74134 23.2754 5.09776L23.3868 5.26389L23.4982 5.43001C24.0853 5.03644 24.2695 4.65679 24.2256 4.32451C24.205 4.16858 24.1359 4.04866 24.0757 3.97025C24.0453 3.93064 24.016 3.89996 23.9935 3.8786C23.9822 3.86786 23.9725 3.85931 23.965 3.85301C23.9613 3.84986 23.9581 3.84726 23.9555 3.84521C23.9542 3.84418 23.9531 3.84329 23.9521 3.84255C23.9516 3.84217 23.9512 3.84183 23.9508 3.84153C23.9506 3.84137 23.9504 3.84123 23.9502 3.84109C23.9502 3.84103 23.95 3.84093 23.95 3.8409C23.9499 3.8408 23.9497 3.84071 23.8288 4ZM23.3868 5.26389L23.2679 5.10311L20.6021 7.07533L20.7211 7.23611L20.84 7.39689L23.5058 5.42467L23.3868 5.26389Z" fill="#737373"/>
</svg>
