<svg width="40" height="40" viewBox="0 0 40 40" fill="none" xmlns="http://www.w3.org/2000/svg">
<path d="M7.60326 27.507V25.5499C7.61914 25.0697 7.82448 24.6153 8.17452 24.2856C8.52456 23.956 8.9909 23.7779 9.47189 23.7901H11.8874C12.3684 23.7779 12.8348 23.956 13.1848 24.2856C13.5349 24.6153 13.7402 25.0697 13.7561 25.5499V27.4614M4.39761 32.3161V29.7522C4.3704 29.4683 4.39952 29.1818 4.48333 28.9091C4.56713 28.6364 4.70396 28.3829 4.886 28.163C5.06803 27.9432 5.29169 27.7614 5.54417 27.628C5.79665 27.4946 6.073 27.4122 6.3574 27.3856H8.89448C9.47001 27.4395 10.0008 27.7187 10.3708 28.1621C10.7409 28.6055 10.9202 29.1772 10.8695 29.7522M10.8695 29.7522V32.3161M10.8695 29.7522C10.8137 29.1882 10.9813 28.6248 11.3362 28.1825C11.6911 27.7402 12.2052 27.4542 12.7686 27.3856H15.2297C15.7958 27.4505 16.3138 27.735 16.6718 28.1777C17.0299 28.6204 17.1994 29.1859 17.1439 29.7522M17.1439 29.7522V32.3161M17.1439 29.7522C17.0881 29.1882 17.2556 28.6248 17.6105 28.1825C17.9654 27.7402 18.4796 27.4542 19.0429 27.3856H21.5041C22.0702 27.4505 22.5881 27.735 22.9462 28.1777C23.3043 28.6204 23.4738 29.1859 23.4183 29.7522M23.4183 29.7522V32.3161M23.4183 29.7522C23.3622 29.1905 23.5277 28.6292 23.8794 28.1873C24.2311 27.7454 24.7415 27.4578 25.3021 27.3856H27.7632C28.3294 27.4505 28.8473 27.735 29.2054 28.1777C29.5634 28.6204 29.733 29.1859 29.6774 29.7522V32.3161M29.6926 32.3161V29.7522C29.6369 29.1882 29.8043 28.6248 30.1592 28.1825C30.5141 27.7402 31.0283 27.4542 31.5917 27.3856H34.0528C34.6134 27.4578 35.1238 27.7454 35.4755 28.1873C35.8272 28.6292 35.9926 29.1905 35.9366 29.7522V32.3161M13.908 27.507V25.5499C13.9239 25.0697 14.1293 24.6153 14.4793 24.2856C14.8293 23.956 15.2957 23.7779 15.7767 23.7901H18.1922C18.6732 23.7779 19.1396 23.956 19.4896 24.2856C19.8396 24.6153 20.045 25.0697 20.0609 25.5499V27.4614M20.1974 27.507V25.5499C20.2133 25.0697 20.4186 24.6153 20.7687 24.2856C21.1187 23.956 21.5851 23.7779 22.0661 23.7901H24.4816C24.9626 23.7779 25.4289 23.956 25.779 24.2856C26.129 24.6153 26.3344 25.0697 26.3502 25.5499V27.4614M26.5022 27.507V25.5499C26.5295 25.0831 26.7356 24.6447 27.0779 24.3255C27.4201 24.0064 27.8722 23.831 28.3404 23.8357H30.756C31.2346 23.8149 31.7021 23.9832 32.0575 24.304C32.4129 24.6248 32.6275 25.0724 32.655 25.5499V27.4615M4.85353 6.01015C14.8453 7.63069 25.0334 7.63069 35.0251 6.01015C35.1073 5.99433 35.192 5.99703 35.273 6.01806C35.354 6.03909 35.4293 6.07792 35.4933 6.13171C35.5574 6.1855 35.6086 6.25289 35.6432 6.32898C35.6779 6.40506 35.6951 6.4879 35.6936 6.57147V20.6043C35.6947 20.6864 35.6777 20.7676 35.644 20.8424C35.6102 20.9172 35.5604 20.9837 35.4981 21.0372C35.4359 21.0908 35.3626 21.13 35.2835 21.1522C35.2044 21.1744 35.1214 21.1789 35.0403 21.1656C25.0345 19.6264 14.8449 19.7186 4.86872 21.4387C4.78613 21.4516 4.70175 21.4469 4.6211 21.4249C4.54046 21.403 4.46539 21.3642 4.40082 21.3112C4.33625 21.2582 4.28364 21.1921 4.24646 21.1173C4.20928 21.0426 4.18836 20.9608 4.18508 20.8774V6.58664C4.18402 6.50263 4.20137 6.4194 4.2359 6.34279C4.27043 6.26617 4.32132 6.19802 4.385 6.1431C4.44867 6.08819 4.5236 6.04784 4.60453 6.02487C4.68547 6.0019 4.77045 5.99688 4.85353 6.01015ZM6.15992 9.10496V18.3135C6.15924 18.4 6.17708 18.4857 6.21226 18.5647C6.24743 18.6438 6.29912 18.7144 6.36386 18.7719C6.4286 18.8293 6.50489 18.8723 6.58763 18.8979C6.67036 18.9235 6.75762 18.9312 6.84356 18.9204C15.5141 17.9085 24.2731 17.9085 32.9437 18.9204C33.0287 18.9336 33.1157 18.9282 33.1985 18.9044C33.2812 18.8807 33.3578 18.8392 33.4229 18.7829C33.488 18.7266 33.54 18.6567 33.5753 18.5783C33.6106 18.4999 33.6283 18.4147 33.6273 18.3287V9.12013C33.6283 9.03414 33.6106 8.94897 33.5753 8.87053C33.54 8.7921 33.488 8.72229 33.4229 8.66597C33.3578 8.60965 33.2812 8.56818 33.1985 8.54443C33.1157 8.52068 33.0287 8.51524 32.9437 8.52847C24.2826 9.61299 15.5198 9.61299 6.85875 8.52847C6.77416 8.51559 6.6878 8.5207 6.60532 8.54345C6.52284 8.56621 6.4461 8.60611 6.38013 8.66053C6.31415 8.71495 6.26044 8.78267 6.22249 8.85926C6.18454 8.93585 6.16322 9.01957 6.15992 9.10496ZM3.395 32.3161H36.605C36.8232 32.3161 37 32.4927 37 32.7105V33.6056C37 33.8234 36.8232 34 36.605 34H3.395C3.17685 34 3 33.8234 3 33.6056V32.7105C3 32.4927 3.17685 32.3161 3.395 32.3161Z" stroke="#737373" stroke-width="0.4" stroke-miterlimit="10"/>
</svg>
