<svg width="40" height="40" viewBox="0 0 40 40" fill="none" xmlns="http://www.w3.org/2000/svg">
<path d="M6.95108 12.5778L19.4547 6.13342C19.623 6.04577 19.8101 6 20 6C20.1898 6 20.3769 6.04577 20.5452 6.13342L32.7318 12.5778M6.59609 12.5778H33.4801C33.7672 12.5778 34 12.8102 34 13.0969V15.0214C34 15.308 33.7672 15.5404 33.4801 15.5404H6.59609C6.30894 15.5404 6.07616 15.308 6.07616 15.0214V13.0969C6.07616 12.8102 6.30894 12.5778 6.59609 12.5778ZM7.63591 15.5404H13.1522V17.0851C13.1522 17.216 13.1001 17.3416 13.0073 17.4342C12.9146 17.5268 12.7888 17.5788 12.6576 17.5788H8.13048C7.99931 17.5788 7.87352 17.5268 7.78077 17.4342C7.68802 17.3416 7.63591 17.216 7.63591 17.0851V15.5404ZM8.85325 17.5535H12.0489V28.847H8.85325V17.5535ZM8.21914 28.8597H12.6956C12.8402 28.8597 12.9789 28.917 13.0812 29.0191C13.1834 29.1212 13.2409 29.2597 13.2409 29.4041V30.8221H7.68653V29.4041C7.6865 29.2619 7.7422 29.1253 7.84174 29.0235C7.94127 28.9218 8.07673 28.863 8.21914 28.8597ZM27.5833 28.9863H31.8061C31.9306 28.9863 32.0499 29.0356 32.1379 29.1235C32.2259 29.2113 32.2753 29.3305 32.2753 29.4547V30.8221H27.1141V29.4547C27.1141 29.3305 27.1635 29.2113 27.2515 29.1235C27.3395 29.0356 27.4589 28.9863 27.5833 28.9863ZM28.0271 17.5535H31.1847V28.9863H28.0271V17.5535ZM26.9112 15.5404H32.3133V17.0851C32.3133 17.1466 32.3012 17.2075 32.2776 17.2643C32.254 17.3212 32.2195 17.3728 32.1759 17.4163C32.1323 17.4598 32.0806 17.4943 32.0237 17.5179C31.9668 17.5414 31.9057 17.5535 31.8441 17.5535H27.3804C27.2559 17.5535 27.1366 17.5042 27.0486 17.4163C26.9606 17.3285 26.9112 17.2093 26.9112 17.0851V15.5404ZM6.91304 30.8221H33.0869C33.5911 30.8221 33.9999 31.2303 33.9999 31.7337V33.0884C33.9999 33.5919 33.5911 34 33.0869 34H6.91304C6.40878 34 6 33.5919 6 33.0884V31.7337C6 31.2303 6.40878 30.8221 6.91304 30.8221ZM20 18.1612C21.1704 18.1612 22.2929 18.6254 23.1205 19.4517C23.9481 20.278 24.413 21.3987 24.413 22.5672V30.8221H15.5362V22.5672C15.5362 21.9843 15.652 21.4072 15.8769 20.8693C16.1019 20.3315 16.4315 19.8435 16.8467 19.4337C17.2618 19.0239 17.7543 18.7004 18.2956 18.482C18.8369 18.2636 19.4162 18.1545 20 18.1612ZM21.2934 9.3113C21.2934 10.0035 20.7313 10.5647 20.0379 10.5647C19.3446 10.5647 18.7825 10.0035 18.7825 9.3113C18.7825 8.61905 19.3446 8.05787 20.0379 8.05787C20.7313 8.05787 21.2934 8.61905 21.2934 9.3113Z" stroke="#737373" stroke-width="0.4" stroke-miterlimit="10"/>
</svg>
