<svg width="40" height="40" viewBox="0 0 40 40" fill="none" xmlns="http://www.w3.org/2000/svg">
<path d="M7.24632 17.399V27.2585H32.5876V17.1462M7.49549 22.8765H16.718M23.3235 22.8765H32.5876M9.32348 11.458H30.552M19.0029 8.63498C16.8789 10.2751 15.2405 12.4761 14.267 14.9973M20.7478 8.63498C22.874 10.3032 24.5466 12.4926 25.6083 14.9973M18.9476 6.21926C14.042 8.58531 9.76798 12.111 6.48468 16.5001C6.44162 16.5604 6.4157 16.6316 6.40973 16.7058C6.40376 16.78 6.41796 16.8545 6.45079 16.9211C6.48363 16.9877 6.53384 17.0439 6.59597 17.0836C6.6581 17.1232 6.72976 17.1449 6.80317 17.1462H33.2245C33.2977 17.1482 33.37 17.1291 33.4329 17.0912C33.4959 17.0533 33.547 16.9981 33.5803 16.932C33.6136 16.8659 33.6278 16.7916 33.6212 16.7176C33.6146 16.6437 33.5875 16.5731 33.543 16.5141C30.1413 12.1585 25.8089 8.64319 20.8724 6.2333C20.5739 6.08227 20.2452 6.00249 19.9116 6.00006C19.578 5.99762 19.2482 6.0726 18.9476 6.21926ZM6.72008 27.2585H33.2799C33.6776 27.2585 34 27.5854 34 27.9888V29.8989C34 30.3022 33.6776 30.6292 33.2799 30.6292H6.72008C6.32239 30.6292 6 30.3022 6 29.8989V27.9888C6 27.5854 6.32239 27.2585 6.72008 27.2585ZM7.7864 30.6292H11.4837V33.2697C11.4837 33.4634 11.4079 33.6491 11.2728 33.7861C11.1378 33.9231 10.9546 34 10.7637 34H8.50648C8.31551 34 8.13235 33.9231 7.99731 33.7861C7.86227 33.6491 7.7864 33.4634 7.7864 33.2697V30.6292ZM28.3918 30.6292H32.0891V33.2697C32.0891 33.4634 32.0132 33.6491 31.8782 33.7861C31.7431 33.9231 31.56 34 31.369 34H29.1118C28.9209 34 28.7377 33.9231 28.6027 33.7861C28.4676 33.6491 28.3918 33.4634 28.3918 33.2697V30.6292ZM19.8061 19.1686H19.9723C20.7913 19.1686 21.5768 19.4986 22.1559 20.086C22.735 20.6733 23.0603 21.47 23.0603 22.3006V27.2585H16.7319V22.3006C16.7319 21.4724 17.0554 20.6779 17.6315 20.0909C18.2076 19.504 18.9895 19.1723 19.8061 19.1686Z" stroke="#737373" stroke-width="0.4" stroke-miterlimit="10" stroke-linecap="round"/>
</svg>
