<svg width="40" height="40" viewBox="0 0 40 40" fill="none" xmlns="http://www.w3.org/2000/svg">
<path d="M19.7481 17.5065L19.8964 17.6408L19.8985 17.6384L19.7481 17.5065ZM18.9685 17.8714L18.9749 18.0713L18.9761 18.0713L18.9685 17.8714ZM17.0615 17.9322L16.9855 18.1172L17.0251 18.1335L17.0679 18.1321L17.0615 17.9322ZM16.9415 17.3606L17.0866 17.4983L17.0889 17.4957L16.9415 17.3606ZM32.4378 17.47L32.5857 17.3353L32.5815 17.331L32.4378 17.47ZM33.2534 17.8593L33.2423 18.059L33.2446 18.0591L33.2534 17.8593ZM35.1964 17.9444L35.1877 18.1442L35.2343 18.1463L35.277 18.1274L35.1964 17.9444ZM35.2804 17.3727L35.1366 17.5118L35.1429 17.5182L35.1497 17.5241L35.2804 17.3727ZM23.5982 17.3849L23.3982 17.381V17.3849H23.5982ZM24.2218 16.7767L24.2178 16.9767H24.2218V16.7767ZM27.5322 16.7767V16.9767L27.5362 16.9767L27.5322 16.7767ZM28.1559 17.3849H28.3559L28.3558 17.381L28.1559 17.3849ZM23.946 25.5708L23.9418 25.7708H23.946V25.5708ZM27.9161 25.5708V25.3708V25.5708ZM28.4918 26.1546L28.6918 26.1546L28.4918 26.1546ZM28.4918 34V34.2H28.6918V34H28.4918ZM23.3583 34H23.1583V34.2H23.3583V34ZM23.3583 26.1546L23.5583 26.1546L23.5583 26.1546L23.3583 26.1546ZM30.9626 25.6924L30.7938 25.5851L30.787 25.5959L30.7815 25.6075L30.9626 25.6924ZM31.0346 25.8141L31.0252 26.0141H31.0346V25.8141ZM34.0331 25.8141L34.0406 25.6141H34.0331V25.8141ZM34.105 25.6803L33.9303 25.7776L33.9349 25.7858L33.9402 25.7936L34.105 25.6803ZM30.3149 27.9913L30.4887 28.0903L30.4889 28.0899L30.3149 27.9913ZM30.4588 28.2467L30.457 28.4467H30.4588V28.2467ZM34.5128 28.2467V28.4467H34.5205L34.5281 28.4461L34.5128 28.2467ZM34.6447 28.0278L34.8295 27.9512L34.8267 27.9446L34.8235 27.9382L34.6447 28.0278ZM29.7991 30.5091L29.6241 30.4117L29.6198 30.4204L29.7991 30.5091ZM30.0989 31.02L30.0925 31.22H30.0989V31.02ZM34.8965 31.02V31.22L34.8993 31.22L34.8965 31.02ZM35.2084 30.5213L35.0229 30.5966L35.0259 30.6031L35.2084 30.5213ZM36 34.2C36.1105 34.2 36.2 34.1105 36.2 34C36.2 33.8895 36.1105 33.8 36 33.8V34.2ZM4 33.8C3.88954 33.8 3.8 33.8895 3.8 34C3.8 34.1105 3.88954 34.2 4 34.2V33.8ZM19.3163 23.053V23.253H19.5176L19.5163 23.0517L19.3163 23.053ZM5.23531 23.053L5.23531 22.853L5.23523 22.853L5.23531 23.053ZM4.8635 22.3232L4.71391 22.1904L4.70627 22.1991L4.69966 22.2085L4.8635 22.3232ZM6.80653 20.1338L6.65748 20.0004L6.65694 20.001L6.80653 20.1338ZM7.90997 19.6351L7.9109 19.8351L7.91275 19.8351L7.90997 19.6351ZM19.2923 19.477L19.4923 19.4756L19.4909 19.2742L19.2895 19.277L19.2923 19.477ZM11.8082 25.96H12.0083L12.0081 25.9537L11.8082 25.96ZM12.18 25.5708L12.1799 25.7708H12.18V25.5708ZM14.3869 30.7159L14.5869 30.7282V30.7159H14.3869ZM14.0031 31.0808L14.0035 30.8808H14.0031V31.0808ZM8.90551 14.9765V14.7765H8.70551V14.9765H8.90551ZM14.7826 14.9765L14.7826 15.1765L14.7826 15.1765L14.7826 14.9765ZM15.2383 15.4266L15.4384 15.4266L15.4383 15.4214L15.2383 15.4266ZM15.2383 17.616H15.4383H15.2383ZM14.7826 18.0782L14.7826 18.2782L14.7826 18.0782ZM8.90551 18.0782H8.70551V18.2782H8.90551V18.0782ZM23.4423 10.1355L23.5935 10.2664L23.8801 9.93553H23.4423V10.1355ZM20.5038 13.5291L20.5051 13.7291L20.5957 13.7285L20.655 13.66L20.5038 13.5291ZM7.4663 13.6142L7.465 13.4141L7.45662 13.4145L7.4663 13.6142ZM7.35836 13.3953L7.20568 13.2661L7.2034 13.2689L7.35836 13.3953ZM9.75716 10.5612L9.60711 10.4289L9.6045 10.432L9.75716 10.5612ZM10.4408 10.245L10.4408 10.045L10.4378 10.045L10.4408 10.245ZM5.18743 32.9904H5.38751L5.38735 32.9848L5.18743 32.9904ZM5.60722 32.5282V32.3279L5.59634 32.3285L5.60722 32.5282ZM14.4108 32.5282L14.4162 32.3282H14.4108V32.5282ZM14.8546 32.9904L14.6546 32.9904V32.9904H14.8546ZM6.96249 30.3753L7.02989 30.5636L7.03924 30.5603L7.04821 30.556L6.96249 30.3753ZM10.1049 30.9348L10.0171 31.1147L10.0252 31.1183L10.1049 30.9348ZM11.928 29.7185L11.9739 29.5238L11.9606 29.5207L11.9469 29.5194L11.928 29.7185ZM13.3073 31.4943L13.501 31.5442L13.502 31.5402L13.3073 31.4943ZM14.1469 32.2485L14.3385 32.306L14.3437 32.2886L14.3457 32.2706L14.1469 32.2485ZM25.9011 10.4883L25.7507 10.3564L19.5978 17.3747L19.7481 17.5065L19.8985 17.6384L26.0515 10.6201L25.9011 10.4883ZM19.7481 17.5065L19.6 17.3722C19.5179 17.4627 19.4192 17.5356 19.3096 17.5869L19.3943 17.7681L19.4791 17.9492C19.6371 17.8753 19.7789 17.7704 19.8963 17.6408L19.7481 17.5065ZM19.3943 17.7681L19.3096 17.5869C19.1999 17.6383 19.0814 17.667 18.961 17.6716L18.9685 17.8714L18.9761 18.0713C19.1502 18.0647 19.3212 18.0232 19.4791 17.9492L19.3943 17.7681ZM18.9685 17.8714L18.9622 17.6715L17.0551 17.7323L17.0615 17.9322L17.0679 18.1321L18.9749 18.0713L18.9685 17.8714ZM17.0615 17.9322L17.1375 17.7472C17.1153 17.7381 17.0954 17.7235 17.0796 17.7045L16.9255 17.8319L16.7714 17.9594C16.8287 18.0287 16.9022 18.083 16.9855 18.1172L17.0615 17.9322ZM16.9255 17.8319L17.0796 17.7045C17.0639 17.6854 17.0528 17.6625 17.0476 17.6376L16.8518 17.6787L16.6561 17.7198C16.6746 17.8077 16.7141 17.8901 16.7714 17.9594L16.9255 17.8319ZM16.8518 17.6787L17.0476 17.6376C17.0424 17.6128 17.0432 17.587 17.0501 17.5626L16.8576 17.5083L16.6651 17.454C16.6407 17.5405 16.6376 17.6318 16.6561 17.7198L16.8518 17.6787ZM16.8576 17.5083L17.0501 17.5626C17.057 17.5382 17.0696 17.5162 17.0865 17.4983L16.9415 17.3606L16.7965 17.2228C16.7346 17.288 16.6895 17.3675 16.6651 17.454L16.8576 17.5083ZM16.9415 17.3606L17.0889 17.4957L26.2044 7.5583L26.057 7.42311L25.9096 7.28791L16.7942 17.2254L16.9415 17.3606ZM25.6012 10.4031L25.4575 10.5422L32.294 17.6091L32.4378 17.47L32.5815 17.331L25.745 10.2641L25.6012 10.4031ZM32.4378 17.47L32.2899 17.6047C32.5366 17.8755 32.8781 18.0388 33.2423 18.059L33.2534 17.8593L33.2645 17.6596C33.0058 17.6452 32.7623 17.5293 32.5857 17.3354L32.4378 17.47ZM33.2534 17.8593L33.2446 18.0591L35.1877 18.1442L35.1964 17.9444L35.2052 17.7446L33.2621 17.6594L33.2534 17.8593ZM35.1964 17.9444L35.277 18.1274C35.3607 18.0906 35.4334 18.0329 35.4886 17.96L35.3291 17.8393L35.1696 17.7187C35.1553 17.7376 35.1367 17.7522 35.1158 17.7614L35.1964 17.9444ZM35.3291 17.8393L35.4886 17.96C35.5437 17.8872 35.5794 17.8016 35.5927 17.7112L35.3948 17.6822L35.1969 17.6531C35.1934 17.6772 35.1839 17.6997 35.1696 17.7187L35.3291 17.8393ZM35.3948 17.6822L35.5927 17.7112C35.6059 17.6209 35.5963 17.5287 35.5647 17.4431L35.3771 17.5124L35.1895 17.5818C35.1979 17.6045 35.2005 17.629 35.1969 17.6531L35.3948 17.6822ZM35.3771 17.5124L35.5647 17.4431C35.533 17.3575 35.4803 17.2811 35.4111 17.2214L35.2804 17.3727L35.1497 17.5241C35.1673 17.5393 35.1811 17.5591 35.1895 17.5818L35.3771 17.5124ZM35.2804 17.3727L35.4241 17.2337L26.0088 7.50298L25.8651 7.64206L25.7213 7.78113L35.1366 17.5118L35.2804 17.3727ZM23.5982 21.5204H23.7982V17.3849H23.5982H23.3982V21.5204H23.5982ZM23.5982 17.3849L23.7981 17.3887C23.7992 17.3331 23.811 17.2784 23.8329 17.2276L23.6493 17.1484L23.4656 17.0692C23.4231 17.1677 23.4003 17.2737 23.3982 17.381L23.5982 17.3849ZM23.6493 17.1484L23.8329 17.2276C23.8548 17.1768 23.8863 17.1311 23.9254 17.093L23.7858 16.9498L23.6461 16.8066C23.5694 16.8814 23.5081 16.9707 23.4656 17.0692L23.6493 17.1484ZM23.7858 16.9498L23.9254 17.093C23.9645 17.0548 24.0105 17.025 24.0606 17.0051L23.9868 16.8192L23.9131 16.6333C23.8136 16.6728 23.7229 16.7317 23.6461 16.8066L23.7858 16.9498ZM23.9868 16.8192L24.0606 17.0051C24.1107 16.9852 24.1642 16.9756 24.2178 16.9767L24.2218 16.7767L24.2259 16.5767C24.1189 16.5746 24.0126 16.5939 23.9131 16.6333L23.9868 16.8192ZM24.2218 16.7767V16.9767H27.5322V16.7767V16.5767H24.2218V16.7767ZM27.5322 16.7767L27.5362 16.9767C27.5899 16.9756 27.6433 16.9852 27.6934 17.0051L27.7672 16.8192L27.841 16.6333C27.7415 16.5939 27.6352 16.5746 27.5282 16.5767L27.5322 16.7767ZM27.7672 16.8192L27.6934 17.0051C27.7436 17.025 27.7895 17.0548 27.8286 17.093L27.9683 16.9498L28.1079 16.8066C28.0312 16.7317 27.9405 16.6728 27.841 16.6333L27.7672 16.8192ZM27.9683 16.9498L27.8286 17.093C27.8677 17.1311 27.8992 17.1768 27.9211 17.2276L28.1048 17.1484L28.2884 17.0692C28.2459 16.9707 28.1846 16.8814 28.1079 16.8066L27.9683 16.9498ZM28.1048 17.1484L27.9211 17.2276C27.943 17.2784 27.9549 17.3331 27.9559 17.3887L28.1559 17.3849L28.3558 17.381C28.3538 17.2737 28.3309 17.1677 28.2884 17.0692L28.1048 17.1484ZM28.1559 17.3849H27.9559V21.5204H28.1559H28.3559V17.3849H28.1559ZM23.3103 21.2163V21.4163H28.4797V21.2163V21.0163H23.3103V21.2163ZM28.4797 21.2163V21.4163C28.6978 21.4163 28.8794 21.5964 28.8794 21.8245H29.0794H29.2794C29.2794 21.3808 28.924 21.0163 28.4797 21.0163V21.2163ZM29.0794 21.8245H28.8794V22.4448H29.0794H29.2794V21.8245H29.0794ZM29.0794 22.4448H28.8794C28.8794 22.6729 28.6978 22.853 28.4797 22.853V23.053V23.253C28.924 23.253 29.2794 22.8885 29.2794 22.4448H29.0794ZM28.4797 23.053V22.853H23.3103V23.053V23.253H28.4797V23.053ZM23.3103 23.053V22.853C23.0922 22.853 22.9106 22.6729 22.9106 22.4448H22.7106H22.5106C22.5106 22.8885 22.866 23.253 23.3103 23.253V23.053ZM22.7106 22.4448H22.9106V21.8245H22.7106H22.5106V22.4448H22.7106ZM22.7106 21.8245H22.9106C22.9106 21.5964 23.0922 21.4163 23.3103 21.4163V21.2163V21.0163C22.866 21.0163 22.5106 21.3808 22.5106 21.8245H22.7106ZM23.946 25.5708V25.7708H27.9161V25.5708V25.3708H23.946V25.5708ZM27.9161 25.5708L27.9161 25.7708C28.0148 25.7708 28.1101 25.8105 28.1807 25.8822L28.3232 25.7418L28.4656 25.6014C28.3203 25.4541 28.1227 25.3708 27.9161 25.3708L27.9161 25.5708ZM28.3232 25.7418L28.1807 25.8822C28.2515 25.954 28.2918 26.0519 28.2918 26.1546L28.4918 26.1546L28.6918 26.1546C28.6918 25.9476 28.6107 25.7486 28.4656 25.6014L28.3232 25.7418ZM28.4918 26.1546H28.2918V34H28.4918H28.6918V26.1546H28.4918ZM28.4918 34V33.8H23.3583V34V34.2H28.4918V34ZM23.3583 34H23.5583V26.1546H23.3583H23.1583V34H23.3583ZM23.3583 26.1546L23.5583 26.1546C23.5583 26.1031 23.5685 26.0522 23.5881 26.0049L23.4033 25.9284L23.2185 25.8518C23.1788 25.9478 23.1583 26.0507 23.1583 26.1547L23.3583 26.1546ZM23.4033 25.9284L23.5881 26.0049C23.6077 25.9576 23.6363 25.9149 23.6721 25.8793L23.5312 25.7374L23.3902 25.5956C23.3166 25.6687 23.2583 25.7558 23.2185 25.8518L23.4033 25.9284ZM23.5312 25.7374L23.6721 25.8793C23.708 25.8437 23.7503 25.8159 23.7966 25.7973L23.722 25.6117L23.6475 25.4261C23.5513 25.4648 23.4639 25.5224 23.3902 25.5956L23.5312 25.7374ZM23.722 25.6117L23.7966 25.7973C23.8429 25.7787 23.8922 25.7697 23.9418 25.7708L23.946 25.5708L23.9503 25.3708C23.8467 25.3687 23.7437 25.3875 23.6475 25.4261L23.722 25.6117ZM24.7736 29.5482V29.7482C24.7333 29.7482 24.7055 29.7159 24.7055 29.682H24.9055H25.1055C25.1055 29.5003 24.9595 29.3482 24.7736 29.3482V29.5482ZM24.9055 29.682H24.7055V30.8862H24.9055H25.1055V29.682H24.9055ZM24.9055 30.8862H24.7055C24.7055 30.8523 24.7333 30.82 24.7736 30.82V31.02V31.22C24.9595 31.22 25.1055 31.0679 25.1055 30.8862H24.9055ZM24.7736 31.02V30.82C24.8138 30.82 24.8416 30.8523 24.8416 30.8862H24.6416H24.4416C24.4416 31.0679 24.5876 31.22 24.7736 31.22V31.02ZM24.6416 30.8862H24.8416V29.682H24.6416H24.4416V30.8862H24.6416ZM24.6416 29.682H24.8416C24.8416 29.7159 24.8138 29.7482 24.7736 29.7482V29.5482V29.3482C24.5876 29.3482 24.4416 29.5003 24.4416 29.682H24.6416ZM32.6417 17.7011H32.4417V23.053H32.6417H32.8417V17.7011H32.6417ZM32.6417 23.053L32.473 22.9456L30.7938 25.5851L30.9626 25.6924L31.1313 25.7998L32.8105 23.1603L32.6417 23.053ZM30.9626 25.6924L30.7815 25.6075C30.7617 25.6497 30.7526 25.6961 30.7548 25.7426L30.9545 25.7331L31.1543 25.7236C31.1552 25.742 31.1516 25.7605 31.1437 25.7774L30.9626 25.6924ZM30.9545 25.7331L30.7548 25.7426C30.757 25.7891 30.7705 25.8345 30.7943 25.8747L30.9664 25.7728L31.1385 25.671C31.1481 25.6871 31.1534 25.7052 31.1543 25.7236L30.9545 25.7331ZM30.9664 25.7728L30.7943 25.8747C30.8181 25.9149 30.8515 25.9488 30.8918 25.9732L30.9954 25.8021L31.0989 25.631C31.1155 25.641 31.129 25.6548 31.1385 25.671L30.9664 25.7728ZM30.9954 25.8021L30.8918 25.9732C30.9321 25.9976 30.978 26.0116 31.0253 26.0138L31.0346 25.8141L31.0439 25.6143C31.0635 25.6152 31.0824 25.621 31.0989 25.631L30.9954 25.8021ZM31.0346 25.8141V26.0141H34.0331V25.8141V25.6141H31.0346V25.8141ZM34.0331 25.8141L34.0256 26.0139C34.0789 26.0159 34.1316 26.0028 34.1776 25.9762L34.0777 25.803L33.9777 25.6297C33.9966 25.6188 34.0184 25.6134 34.0406 25.6142L34.0331 25.8141ZM34.0777 25.803L34.1776 25.9762C34.2236 25.9497 34.2611 25.9109 34.286 25.8645L34.1099 25.7698L33.9337 25.675C33.9437 25.6564 33.9588 25.6406 33.9777 25.6297L34.0777 25.803ZM34.1099 25.7698L34.286 25.8645C34.3109 25.8181 34.3225 25.7659 34.3197 25.7135L34.12 25.7243L33.9203 25.7351C33.9192 25.7144 33.9237 25.6936 33.9337 25.675L34.1099 25.7698ZM34.12 25.7243L34.3197 25.7135C34.3169 25.6611 34.2997 25.6104 34.2698 25.5669L34.105 25.6803L33.9402 25.7936C33.9282 25.7761 33.9214 25.7559 33.9203 25.7351L34.12 25.7243ZM34.105 25.6803L34.2797 25.583L32.8165 22.9557L32.6417 23.053L32.467 23.1503L33.9303 25.7776L34.105 25.6803ZM31.5143 25.8749L31.3403 25.7763L30.1409 27.8927L30.3149 27.9913L30.4889 28.0899L31.6883 25.9735L31.5143 25.8749ZM30.3149 27.9913L30.1411 27.8923C30.1092 27.9483 30.0925 28.0114 30.0924 28.0756L30.2924 28.0761L30.4924 28.0765C30.4924 28.0812 30.4912 28.0859 30.4887 28.0903L30.3149 27.9913ZM30.2924 28.0761L30.0924 28.0756C30.0922 28.1398 30.1087 28.2031 30.1403 28.2591L30.3145 28.1609L30.4887 28.0628C30.4912 28.0671 30.4924 28.0719 30.4924 28.0765L30.2924 28.0761ZM30.3145 28.1609L30.1403 28.2591C30.1718 28.3152 30.2176 28.3622 30.2732 28.3953L30.3754 28.2234L30.4776 28.0514C30.4825 28.0544 30.4863 28.0584 30.4887 28.0628L30.3145 28.1609ZM30.3754 28.2234L30.2732 28.3953C30.3288 28.4283 30.3921 28.4461 30.457 28.4467L30.4588 28.2467L30.4606 28.0467C30.4668 28.0468 30.4726 28.0485 30.4776 28.0514L30.3754 28.2234ZM30.4588 28.2467V28.4467H34.5128V28.2467V28.0467H30.4588V28.2467ZM34.5128 28.2467L34.5281 28.4461C34.5848 28.4418 34.6396 28.4238 34.6878 28.3939L34.5823 28.2239L34.4769 28.054C34.4829 28.0502 34.49 28.0479 34.4974 28.0473L34.5128 28.2467ZM34.5823 28.2239L34.6878 28.3939C34.7359 28.364 34.7762 28.3231 34.8053 28.2747L34.634 28.1715L34.4627 28.0683C34.4661 28.0627 34.4709 28.0577 34.4769 28.054L34.5823 28.2239ZM34.634 28.1715L34.8053 28.2747C34.8344 28.2264 34.8517 28.1719 34.8559 28.1158L34.6564 28.101L34.457 28.0861C34.4575 28.08 34.4593 28.0739 34.4627 28.0683L34.634 28.1715ZM34.6564 28.101L34.8559 28.1158C34.8601 28.0597 34.851 28.0033 34.8295 27.9512L34.6447 28.0278L34.4599 28.1044C34.4575 28.0985 34.4565 28.0923 34.457 28.0861L34.6564 28.101ZM34.6447 28.0278L34.8235 27.9382L33.744 25.7852L33.5652 25.8749L33.3865 25.9645L34.4659 28.1174L34.6447 28.0278ZM30.9985 28.3562L30.8237 28.2589L29.6243 30.4118L29.7991 30.5091L29.9738 30.6065L31.1732 28.4536L30.9985 28.3562ZM29.7991 30.5091L29.6198 30.4204C29.5789 30.5031 29.5592 30.5948 29.5624 30.6871L29.7623 30.68L29.9622 30.673C29.9612 30.6468 29.9668 30.621 29.9783 30.5979L29.7991 30.5091ZM29.7623 30.68L29.5624 30.6871C29.5657 30.7793 29.5918 30.8694 29.6385 30.9491L29.811 30.8478L29.9835 30.7466C29.9705 30.7245 29.9631 30.6991 29.9622 30.673L29.7623 30.68ZM29.811 30.8478L29.6385 30.9491C29.6853 31.0287 29.7513 31.0955 29.8306 31.1429L29.9332 30.9713L30.0359 30.7996C30.0146 30.7869 29.9965 30.7687 29.9835 30.7466L29.811 30.8478ZM29.9332 30.9713L29.8306 31.1429C29.91 31.1904 30 31.2169 30.0925 31.2199L30.0989 31.02L30.1053 30.8201C30.081 30.8193 30.0571 30.8123 30.0359 30.7996L29.9332 30.9713ZM30.0989 31.02V31.22H34.8965V31.02V30.82H30.0989V31.02ZM34.8965 31.02L34.8993 31.22C34.9908 31.2187 35.0805 31.1943 35.1601 31.1492L35.0614 30.9752L34.9628 30.8012C34.9415 30.8133 34.9178 30.8197 34.8937 30.82L34.8965 31.02ZM35.0614 30.9752L35.1601 31.1492C35.2396 31.1041 35.3066 31.0397 35.355 30.9622L35.1855 30.8562L35.0159 30.7502C35.0024 30.7717 34.9841 30.7891 34.9628 30.8012L35.0614 30.9752ZM35.1855 30.8562L35.355 30.9622C35.4035 30.8847 35.432 30.7965 35.4382 30.7053L35.2387 30.6917L35.0392 30.678C35.0374 30.7039 35.0293 30.7286 35.0159 30.7502L35.1855 30.8562ZM35.2387 30.6917L35.4382 30.7053C35.4445 30.6142 35.4282 30.5228 35.3909 30.4395L35.2084 30.5213L35.0259 30.6031C35.0363 30.6265 35.0409 30.6522 35.0392 30.678L35.2387 30.6917ZM35.2084 30.5213L35.3937 30.4461L34.4701 28.1715L34.2848 28.2467L34.0995 28.322L35.023 30.5965L35.2084 30.5213ZM31.9221 31.2389H31.7221V34H31.9221H32.1221V31.2389H31.9221ZM33.3253 31.2389H33.1253V34H33.3253H33.5253V31.2389H33.3253ZM36 34V33.8H4V34V34.2H36V34ZM19.3163 23.053V22.853H5.23531V23.053V23.253H19.3163V23.053ZM5.23531 23.053L5.23523 22.853C5.18886 22.853 5.14319 22.8401 5.10321 22.8154L4.99816 22.9856L4.89311 23.1558C4.99604 23.2193 5.11447 23.253 5.2354 23.253L5.23531 23.053ZM4.99816 22.9856L5.10321 22.8154C5.0632 22.7907 5.03028 22.7551 5.0084 22.7122L4.8302 22.803L4.65199 22.8937C4.70691 23.0015 4.79021 23.0923 4.89311 23.1558L4.99816 22.9856ZM4.8302 22.803L5.0084 22.7122C4.98651 22.6692 4.97662 22.6207 4.97999 22.5722L4.78047 22.5583L4.58095 22.5445C4.57258 22.6652 4.59709 22.786 4.65199 22.8937L4.8302 22.803ZM4.78047 22.5583L4.97999 22.5722C4.98336 22.5236 4.99984 22.4772 5.02733 22.4379L4.8635 22.3232L4.69966 22.2085C4.6303 22.3076 4.58933 22.4238 4.58095 22.5445L4.78047 22.5583ZM4.8635 22.3232L5.01309 22.456L6.95611 20.2666L6.80653 20.1338L6.65694 20.001L4.71391 22.1904L4.8635 22.3232ZM6.80653 20.1338L6.95557 20.2672C7.07686 20.1316 7.22446 20.0233 7.3889 19.949L7.30653 19.7668L7.22416 19.5845C7.00866 19.6819 6.81571 19.8236 6.65748 20.0004L6.80653 20.1338ZM7.30653 19.7668L7.3889 19.949C7.55333 19.8747 7.73109 19.8359 7.9109 19.8351L7.90997 19.6351L7.90905 19.4351C7.67291 19.4362 7.43967 19.4871 7.22416 19.5845L7.30653 19.7668ZM7.90997 19.6351L7.91275 19.8351L19.2951 19.677L19.2923 19.477L19.2895 19.277L7.9072 19.4351L7.90997 19.6351ZM19.2923 19.477L19.0923 19.4783L19.1163 23.0543L19.3163 23.053L19.5163 23.0517L19.4923 19.4756L19.2923 19.477ZM8.11401 30.0469H8.31401V25.96H8.11401H7.91401V30.0469H8.11401ZM8.11401 25.96H8.31401C8.31401 25.9089 8.33404 25.8605 8.36883 25.8252L8.22642 25.6848L8.08401 25.5444C7.97484 25.6551 7.91401 25.8047 7.91401 25.96H8.11401ZM8.22642 25.6848L8.36883 25.8252C8.40353 25.79 8.44998 25.7708 8.49782 25.7708V25.5708V25.3708C8.34206 25.3708 8.19327 25.4336 8.08401 25.5444L8.22642 25.6848ZM8.49782 25.5708V25.7708H10.3209V25.5708V25.3708H8.49782V25.5708ZM10.3209 25.5708V25.7708C10.3687 25.7708 10.4152 25.79 10.4499 25.8252L10.5923 25.6848L10.7347 25.5444C10.6254 25.4336 10.4767 25.3708 10.3209 25.3708V25.5708ZM10.5923 25.6848L10.4499 25.8252C10.4847 25.8605 10.5047 25.9089 10.5047 25.96H10.7047H10.9047C10.9047 25.8047 10.8439 25.6551 10.7347 25.5444L10.5923 25.6848ZM10.7047 25.96H10.5047V30.1442H10.7047H10.9047V25.96H10.7047ZM11.8082 29.4631H12.0082V25.96H11.8082H11.6082V29.4631H11.8082ZM11.8082 25.96L12.0081 25.9537C12.0073 25.9295 12.0113 25.9056 12.0198 25.8832L11.8329 25.812L11.646 25.7408C11.6186 25.8127 11.6058 25.8895 11.6083 25.9664L11.8082 25.96ZM11.8329 25.812L12.0198 25.8832C12.0284 25.8608 12.0412 25.8406 12.0573 25.8237L11.9127 25.6855L11.7681 25.5474C11.7149 25.603 11.6734 25.6689 11.646 25.7408L11.8329 25.812ZM11.9127 25.6855L12.0573 25.8237C12.0735 25.8067 12.0927 25.7934 12.1137 25.7844L12.0349 25.6006L11.956 25.4168C11.8852 25.4472 11.8213 25.4917 11.7681 25.5474L11.9127 25.6855ZM12.0349 25.6006L12.1137 25.7844C12.1348 25.7754 12.1572 25.7708 12.1799 25.7708L12.18 25.5708L12.1801 25.3708C12.103 25.3708 12.0268 25.3864 11.956 25.4168L12.0349 25.6006ZM12.18 25.5708V25.7708H14.0031V25.5708V25.3708H12.18V25.5708ZM14.0031 25.5708V25.7708C14.0509 25.7708 14.0973 25.79 14.132 25.8252L14.2745 25.6848L14.4169 25.5444C14.3076 25.4336 14.1588 25.3708 14.0031 25.3708V25.5708ZM14.2745 25.6848L14.132 25.8252C14.1668 25.8605 14.1869 25.9089 14.1869 25.96H14.3869H14.5869C14.5869 25.8047 14.526 25.6551 14.4169 25.5444L14.2745 25.6848ZM14.3869 25.96H14.1869V30.7159H14.3869H14.5869V25.96H14.3869ZM14.3869 30.7159L14.1872 30.7036C14.1842 30.7525 14.1629 30.7979 14.1285 30.8306L14.2663 30.9755L14.4041 31.1205C14.5124 31.0176 14.5773 30.8772 14.5865 30.7282L14.3869 30.7159ZM14.2663 30.9755L14.1285 30.8306C14.0942 30.8632 14.0494 30.8809 14.0035 30.8808L14.0031 31.0808L14.0027 31.2808C14.1522 31.2811 14.2958 31.2235 14.4041 31.1205L14.2663 30.9755ZM14.0031 31.0808V30.8808H13.4873V31.0808V31.2808H14.0031V31.0808ZM15.7901 25.5708V25.7708H17.6132V25.5708V25.3708H15.7901V25.5708ZM17.6132 25.5708V25.7708C17.7121 25.7708 17.797 25.8529 17.797 25.96H17.997H18.197C18.197 25.6373 17.9383 25.3708 17.6132 25.3708V25.5708ZM17.997 25.96H17.797V30.7159H17.997H18.197V25.96H17.997ZM17.997 30.7159H17.797C17.797 30.823 17.7121 30.9051 17.6132 30.9051V31.1051V31.3051C17.9383 31.3051 18.197 31.0387 18.197 30.7159H17.997ZM17.6132 31.1051V30.9051H15.7901V31.1051V31.3051H17.6132V31.1051ZM15.7901 31.1051V30.9051C15.6912 30.9051 15.6063 30.823 15.6063 30.7159H15.4063H15.2063C15.2063 31.0387 15.4651 31.3051 15.7901 31.3051V31.1051ZM15.4063 30.7159H15.6063V25.96H15.4063H15.2063V30.7159H15.4063ZM15.4063 25.96H15.6063C15.6063 25.8529 15.6912 25.7708 15.7901 25.7708V25.5708V25.3708C15.4651 25.3708 15.2063 25.6373 15.2063 25.96H15.4063ZM8.90551 14.9765V15.1765H14.7826V14.9765V14.7765H8.90551V14.9765ZM14.7826 14.9765L14.7826 15.1765C14.8484 15.1765 14.9122 15.2025 14.9602 15.2499L15.1007 15.1076L15.2412 14.9653C15.1189 14.8445 14.9544 14.7765 14.7825 14.7765L14.7826 14.9765ZM15.1007 15.1076L14.9602 15.2499C15.0082 15.2974 15.0366 15.3626 15.0384 15.4318L15.2383 15.4266L15.4383 15.4214C15.4338 15.2497 15.3634 15.086 15.2412 14.9653L15.1007 15.1076ZM15.2383 15.4266H15.0383V17.616H15.2383H15.4383V15.4266H15.2383ZM15.2383 17.616L15.0383 17.616C15.0383 17.6864 15.0107 17.7534 14.9624 17.8024L15.1048 17.9428L15.2473 18.0832C15.3699 17.9588 15.4383 17.7907 15.4383 17.616L15.2383 17.616ZM15.1048 17.9428L14.9624 17.8024C14.9142 17.8513 14.8495 17.8782 14.7826 17.8782L14.7826 18.0782L14.7826 18.2782C14.9574 18.2782 15.1245 18.2077 15.2473 18.0832L15.1048 17.9428ZM14.7826 18.0782V17.8782H8.90551V18.0782V18.2782H14.7826V18.0782ZM8.90551 18.0782H9.10551V14.9765H8.90551H8.70551V18.0782H8.90551ZM13.0914 15.0739H12.8914V17.9322H13.0914H13.2914V15.0739H13.0914ZM15.9581 10.1355V10.3355H23.4423V10.1355V9.93553H15.9581V10.1355ZM23.4423 10.1355L23.2911 10.0046L20.3526 13.3982L20.5038 13.5291L20.655 13.66L23.5935 10.2664L23.4423 10.1355ZM20.5038 13.5291L20.5025 13.3291L7.465 13.4142L7.4663 13.6142L7.46761 13.8142L20.5051 13.7291L20.5038 13.5291ZM7.4663 13.6142L7.45662 13.4145C7.47042 13.4138 7.48392 13.4172 7.49545 13.4241L7.39334 13.5961L7.29123 13.768C7.3469 13.8011 7.4111 13.8172 7.47599 13.814L7.4663 13.6142ZM7.39334 13.5961L7.49545 13.4241C7.50696 13.4309 7.51583 13.4407 7.52138 13.452L7.342 13.5404L7.16262 13.6289C7.19104 13.6865 7.23559 13.735 7.29123 13.768L7.39334 13.5961ZM7.342 13.5404L7.52138 13.452C7.52692 13.4632 7.52904 13.4756 7.52767 13.4878L7.32893 13.4654L7.13018 13.443C7.123 13.5067 7.13421 13.5713 7.16262 13.6289L7.342 13.5404ZM7.32893 13.4654L7.52767 13.4878C7.5263 13.5 7.52144 13.5118 7.51332 13.5217L7.35836 13.3953L7.2034 13.2689C7.16267 13.3188 7.13736 13.3793 7.13018 13.443L7.32893 13.4654ZM7.35836 13.3953L7.51102 13.5245L9.90982 10.6905L9.75716 10.5612L9.6045 10.432L7.2057 13.2661L7.35836 13.3953ZM9.75716 10.5612L9.90717 10.6935C9.97513 10.6164 10.0579 10.5547 10.1503 10.512L10.0663 10.3305L9.98233 10.1489C9.83933 10.2151 9.71161 10.3105 9.60714 10.429L9.75716 10.5612ZM10.0663 10.3305L10.1503 10.512C10.2426 10.4693 10.3425 10.4465 10.4438 10.445L10.4408 10.245L10.4378 10.045C10.2805 10.0474 10.1253 10.0828 9.98233 10.1489L10.0663 10.3305ZM10.4408 10.245V10.445H11.6402V10.245V10.045H10.4408V10.245ZM12.2758 8.01912V8.21912H15.3583V8.01912V7.81912H12.2758V8.01912ZM15.3583 8.01912V8.21912C15.5433 8.21912 15.698 8.37198 15.698 8.56647H15.898H16.098C16.098 8.15637 15.7694 7.81912 15.3583 7.81912V8.01912ZM15.898 8.56647H15.698V10.5977H15.898H16.098V8.56647H15.898ZM15.898 10.5977H15.698C15.698 10.7922 15.5433 10.9451 15.3583 10.9451V11.1451V11.3451C15.7694 11.3451 16.098 11.0078 16.098 10.5977H15.898ZM15.3583 11.1451V10.9451H12.2758V11.1451V11.3451H15.3583V11.1451ZM12.2758 11.1451V10.9451C12.0908 10.9451 11.9361 10.7922 11.9361 10.5977H11.7361H11.5361C11.5361 11.0078 11.8646 11.3451 12.2758 11.3451V11.1451ZM11.7361 10.5977H11.9361V8.56647H11.7361H11.5361V10.5977H11.7361ZM11.7361 8.56647H11.9361C11.9361 8.37198 12.0908 8.21912 12.2758 8.21912V8.01912V7.81912C11.8646 7.81912 11.5361 8.15637 11.5361 8.56647H11.7361ZM11.4842 6V6.2H16.0659V6V5.8H11.4842V6ZM16.0659 6V6.2C16.231 6.2 16.3697 6.33652 16.3697 6.51086H16.5697H16.7697C16.7697 6.12092 16.4572 5.8 16.0659 5.8V6ZM16.5697 6.51086H16.3697V7.50825H16.5697H16.7697V6.51086H16.5697ZM16.5697 7.50825H16.3697C16.3697 7.68259 16.231 7.81911 16.0659 7.81911V8.01911V8.21911C16.4572 8.21911 16.7697 7.8982 16.7697 7.50825H16.5697ZM16.0659 8.01911V7.81911H11.4842V8.01911V8.21911H16.0659V8.01911ZM11.4842 8.01911V7.81911C11.3191 7.81911 11.1804 7.68259 11.1804 7.50825H10.9804H10.7804C10.7804 7.8982 11.0929 8.21911 11.4842 8.21911V8.01911ZM10.9804 7.50825H11.1804V6.51086H10.9804H10.7804V7.50825H10.9804ZM10.9804 6.51086H11.1804C11.1804 6.33652 11.3191 6.2 11.4842 6.2V6V5.8C11.0929 5.8 10.7804 6.12092 10.7804 6.51086H10.9804ZM19.3164 17.9322H19.1164V34H19.3164H19.5164V17.9322H19.3164ZM5.18743 34H5.38743V32.9904H5.18743H4.98743V34H5.18743ZM5.18743 32.9904L5.38735 32.9848C5.38549 32.9187 5.40921 32.855 5.45266 32.8072L5.30461 32.6727L5.15656 32.5383C5.04315 32.6631 4.98277 32.8274 4.98751 32.996L5.18743 32.9904ZM5.30461 32.6727L5.45266 32.8072C5.49602 32.7595 5.55548 32.7313 5.6181 32.7279L5.60722 32.5282L5.59634 32.3285C5.42777 32.3377 5.27004 32.4133 5.15656 32.5383L5.30461 32.6727ZM5.60722 32.5282V32.7282H14.4108V32.5282V32.3282H5.60722V32.5282ZM14.4108 32.5282L14.4055 32.7282C14.4713 32.7299 14.5343 32.7576 14.5811 32.8063L14.7254 32.6678L14.8696 32.5293C14.7506 32.4053 14.588 32.3329 14.4162 32.3283L14.4108 32.5282ZM14.7254 32.6678L14.5811 32.8063C14.6279 32.8551 14.6546 32.9211 14.6546 32.9904L14.8546 32.9904L15.0546 32.9905C15.0547 32.8187 14.9886 32.6532 14.8696 32.5293L14.7254 32.6678ZM14.8546 32.9904H14.6546V34H14.8546H15.0546V32.9904H14.8546ZM6.12291 32.3823C6.31718 32.3348 6.3172 32.3348 6.31722 32.3349C6.31722 32.3349 6.31723 32.335 6.31724 32.335C6.31725 32.335 6.31726 32.3351 6.31726 32.3351C6.31727 32.3351 6.31725 32.335 6.31721 32.3349C6.31713 32.3345 6.31696 32.3338 6.31672 32.3328C6.31623 32.3306 6.31542 32.3271 6.31437 32.3222C6.31225 32.3125 6.30913 32.2974 6.30546 32.2776C6.29813 32.238 6.28869 32.1799 6.28087 32.1085C6.26513 31.9648 6.25642 31.7716 6.28233 31.5683C6.33401 31.1628 6.51585 30.7476 7.02989 30.5636L6.96249 30.3753L6.89509 30.187C6.18575 30.4409 5.94779 31.0293 5.88554 31.5177C5.85448 31.7614 5.86526 31.9878 5.88325 32.1521C5.89229 32.2346 5.90328 32.3025 5.91215 32.3504C5.9166 32.3744 5.92052 32.3935 5.92343 32.4069C5.92489 32.4136 5.92609 32.4189 5.92698 32.4228C5.92742 32.4247 5.92779 32.4263 5.92807 32.4274C5.92821 32.428 5.92833 32.4285 5.92842 32.4289C5.92847 32.4291 5.92851 32.4293 5.92855 32.4294C5.92857 32.4295 5.92859 32.4296 5.9286 32.4296C5.92862 32.4297 5.92864 32.4298 6.12291 32.3823ZM6.96249 30.3753C7.04821 30.556 7.04813 30.5561 7.04806 30.5561C7.04805 30.5561 7.04799 30.5561 7.04796 30.5562C7.04789 30.5562 7.04785 30.5562 7.04784 30.5562C7.0478 30.5562 7.04786 30.5562 7.04799 30.5561C7.04827 30.556 7.0489 30.5557 7.04986 30.5553C7.05179 30.5544 7.05506 30.5529 7.05961 30.5509C7.06871 30.5469 7.08289 30.5409 7.10159 30.5335C7.13904 30.5186 7.19425 30.4982 7.26278 30.4774C7.4008 30.4356 7.58775 30.3939 7.78962 30.3898C7.99122 30.3857 8.20063 30.4193 8.39144 30.521C8.57969 30.6214 8.76287 30.795 8.90478 31.0937L9.08543 31.0078L9.26608 30.922C9.09015 30.5517 8.84904 30.3117 8.57964 30.1681C8.31281 30.0258 8.03122 29.9848 7.78154 29.9899C7.53214 29.9949 7.30754 30.0459 7.14684 30.0946C7.066 30.1191 7.00006 30.1434 6.95369 30.1618C6.93048 30.171 6.91208 30.1789 6.89909 30.1845C6.89259 30.1874 6.88744 30.1897 6.88369 30.1914C6.88182 30.1923 6.88031 30.193 6.87915 30.1935C6.87857 30.1938 6.87808 30.194 6.87769 30.1942C6.87749 30.1943 6.87732 30.1944 6.87716 30.1944C6.87709 30.1945 6.87699 30.1945 6.87695 30.1945C6.87686 30.1946 6.87678 30.1946 6.96249 30.3753ZM8.16188 32.4188C8.36188 32.4188 8.36188 32.4188 8.36188 32.4189C8.36188 32.4189 8.36188 32.4189 8.36188 32.419C8.36188 32.419 8.36188 32.419 8.36188 32.4189C8.36188 32.4189 8.36188 32.4186 8.36189 32.4183C8.36189 32.4175 8.3619 32.4162 8.36193 32.4144C8.36197 32.4107 8.36207 32.4049 8.36229 32.3971C8.36271 32.3814 8.36357 32.3579 8.36534 32.3278C8.36887 32.2676 8.37598 32.1819 8.39025 32.0817C8.41912 31.8788 8.4758 31.6279 8.58393 31.4099C8.69186 31.1923 8.84092 31.0268 9.04706 30.9554C9.25268 30.8842 9.5597 30.8912 10.0172 31.1145L10.1049 30.9348L10.1927 30.7551C9.67861 30.5041 9.257 30.4594 8.91614 30.5775C8.5758 30.6953 8.36054 30.9601 8.2256 31.2321C8.09085 31.5038 8.02608 31.8016 7.99424 32.0253C7.97815 32.1383 7.97008 32.2353 7.96602 32.3044C7.96399 32.339 7.96296 32.3668 7.96243 32.3863C7.96217 32.396 7.96203 32.4037 7.96196 32.4092C7.96192 32.412 7.96191 32.4141 7.9619 32.4157C7.96189 32.4165 7.96189 32.4172 7.96189 32.4177C7.96188 32.4179 7.96188 32.4182 7.96188 32.4183C7.96188 32.4184 7.96188 32.4185 7.96188 32.4186C7.96188 32.4187 7.96188 32.4188 8.16188 32.4188ZM10.1049 30.9348L10.0252 31.1183C10.1307 31.1641 10.2445 31.1717 10.3523 31.1194C10.4472 31.0732 10.5106 30.9927 10.5543 30.9253C10.5992 30.8559 10.6401 30.7728 10.6779 30.6958C10.7175 30.615 10.7567 30.5343 10.8031 30.4537C10.8952 30.2933 11.0073 30.1482 11.1705 30.0484C11.3311 29.9504 11.5606 29.8845 11.9091 29.9176L11.928 29.7185L11.9469 29.5194C11.5277 29.4795 11.2086 29.5565 10.9621 29.7071C10.7183 29.8559 10.565 30.065 10.4562 30.2544C10.4021 30.3486 10.357 30.4416 10.3188 30.5196C10.2786 30.6014 10.2482 30.6621 10.2185 30.7079C10.1876 30.7557 10.1732 30.7616 10.1776 30.7595C10.1947 30.7512 10.2051 30.7603 10.1846 30.7514L10.1049 30.9348ZM11.928 29.7185C11.8821 29.9132 11.8821 29.9131 11.882 29.9131C11.882 29.9131 11.8819 29.9131 11.8819 29.9131C11.8818 29.9131 11.8818 29.9131 11.8818 29.9131C11.8818 29.9131 11.8819 29.9131 11.8821 29.9132C11.8825 29.9133 11.8833 29.9135 11.8845 29.9137C11.8868 29.9143 11.8907 29.9153 11.896 29.9167C11.9065 29.9195 11.9227 29.9239 11.9435 29.9301C11.9854 29.9426 12.0457 29.962 12.1176 29.9895C12.2624 30.0448 12.4489 30.1309 12.6237 30.2544C12.7988 30.3781 12.9542 30.5336 13.0491 30.7256C13.142 30.9136 13.1833 31.1487 13.1126 31.4485L13.3073 31.4943L13.502 31.5402C13.5933 31.1527 13.5431 30.8222 13.4077 30.5484C13.2743 30.2786 13.0647 30.0761 12.8545 29.9276C12.644 29.7789 12.4249 29.6787 12.2605 29.6159C12.1778 29.5843 12.1076 29.5616 12.0576 29.5467C12.0325 29.5393 12.0124 29.5337 11.9981 29.53C11.991 29.5281 11.9854 29.5267 11.9813 29.5256C11.9792 29.5251 11.9776 29.5247 11.9764 29.5244C11.9757 29.5243 11.9752 29.5241 11.9748 29.5241C11.9746 29.524 11.9744 29.524 11.9743 29.5239C11.9742 29.5239 11.9741 29.5239 11.9741 29.5239C11.974 29.5238 11.9739 29.5238 11.928 29.7185ZM13.3073 31.4943L13.1136 31.4445C13.1029 31.4861 13.0983 31.537 13.1127 31.5911C13.1277 31.6471 13.159 31.6909 13.1954 31.7225C13.2585 31.7774 13.3376 31.796 13.3829 31.805C13.4346 31.8152 13.4946 31.8214 13.5444 31.8269C13.5982 31.833 13.6487 31.8391 13.6973 31.8487C13.798 31.8686 13.8606 31.8982 13.8969 31.9389C13.9275 31.9731 13.968 32.0473 13.9481 32.2264L14.1469 32.2485L14.3457 32.2706C14.3738 32.0178 14.3243 31.8169 14.1952 31.6724C14.0719 31.5344 13.9051 31.482 13.7749 31.4563C13.7081 31.4431 13.6427 31.4355 13.5889 31.4294C13.531 31.4229 13.4915 31.4187 13.4603 31.4125C13.4229 31.4051 13.4358 31.4015 13.458 31.4208C13.4738 31.4346 13.491 31.4572 13.4991 31.4878C13.5068 31.5164 13.5027 31.5375 13.501 31.5442L13.3073 31.4943ZM14.1469 32.2485L13.9553 32.191L13.8714 32.4707L14.0629 32.5282L14.2545 32.5857L14.3385 32.306L14.1469 32.2485ZM8.90551 13.7237H8.70551V19.4405H8.90551H9.10551V13.7237H8.90551ZM6.51871 23.053H6.31871V30.6429H6.51871H6.71871V23.053H6.51871Z" fill="#737373"/>
</svg>
