<svg width="40" height="40" viewBox="0 0 40 40" fill="none" xmlns="http://www.w3.org/2000/svg">
<path d="M15.2021 23.1409C15.2021 23.1409 15.3635 26.539 18.137 23.8205C18.137 23.8205 19.0761 25.3718 20.0887 24.8695C20.0887 24.8695 21.4387 24.2638 21.3654 26.0515V28.1198C21.4258 28.4175 21.5951 28.6814 21.8397 28.8593C22.0843 29.0371 22.3864 29.116 22.686 29.0802C22.686 29.0802 23.6692 28.9768 23.7866 28.1937V24.4706C23.7976 24.354 23.8315 24.2407 23.8862 24.1373C23.941 24.0339 24.0155 23.9425 24.1056 23.8683C24.1957 23.7941 24.2994 23.7387 24.4109 23.7051C24.5224 23.6715 24.6394 23.6606 24.7551 23.6728H25.166M17.0364 16.3152C16.9999 16.0038 16.8951 15.7046 16.7295 15.439C16.5639 15.1735 16.3417 14.9484 16.079 14.7801C15.8163 14.6118 15.5196 14.5045 15.2106 14.4659C14.9016 14.4273 14.5879 14.4585 14.2923 14.5571C14.2923 14.5571 9.44974 15.1333 8.98016 12.0307C8.92062 11.5576 8.98048 11.0771 9.15422 10.6335C9.32795 10.1899 9.60995 9.79757 9.97414 9.49275C10.3383 9.18792 10.773 8.98044 11.2379 8.8895C11.7028 8.79855 12.183 8.82706 12.6341 8.97241C13.1643 9.15674 13.6352 9.48199 13.9969 9.91373C14.3585 10.3455 14.5975 10.8676 14.6885 11.4249M13.8814 9.51906C13.8814 9.51906 15.3488 5.97324 18.2837 6.03233C19.4264 5.907 20.5792 6.14802 21.5779 6.72105C22.5765 7.29407 23.37 8.16986 23.8453 9.22357M22.9062 7.39156C22.9062 7.39156 26.7508 5.44136 27.6313 9.45996C27.6313 9.45996 27.9982 11.942 24.6964 12.5921M27.91 9.75545C28.2538 9.72666 28.5997 9.7704 28.9257 9.88386C29.2518 9.99732 29.5507 10.178 29.8034 10.4144C30.0561 10.6508 30.2571 10.9376 30.3935 11.2566C30.5299 11.5756 30.5986 11.9198 30.5954 12.2671C30.5954 12.2671 30.7568 15.0003 26.4572 14.4684C25.716 14.2696 24.9277 14.3562 24.2466 14.7114C23.5654 15.0666 23.0403 15.6648 22.774 16.3891M18.1664 12.5921C18.1664 12.5921 20.3528 12.3262 19.9713 16.3152M18.9001 7.70183C18.239 7.76124 17.614 8.03093 17.1153 8.47186C16.6167 8.91279 16.2704 9.50206 16.1266 10.1544M14.6005 16.3891C14.6005 16.3891 8.89212 15.5913 6.74966 19.211M14.6004 17.8813C12.7467 18.759 11.2862 20.3031 10.5062 22.2101M8.83331 20.2747L8.46645 21.7374M6.35334 20.6441C6.07298 21.1146 5.95436 21.665 6.01582 22.2101M7.40998 24.2047C7.40998 24.2047 6.91105 25.2684 7.04312 25.6821M10.154 23.525C10.0095 23.7639 9.9143 24.0295 9.87396 24.3062C9.83362 24.5829 9.84902 24.8649 9.91925 25.1354M24.799 16.9062C24.799 16.9062 29.5682 16.5073 31.4025 18.0586C31.8134 18.4132 33.1194 19.3883 33.1194 19.3883M25.841 19.4474C27.7278 19.7544 29.4416 20.7351 30.6689 22.2101L31.2999 23.1409M32.8993 21.2794L33.9999 22.8159M31.8428 24.707C32.0333 25.149 32.0796 25.6404 31.9749 26.1105M27.7047 22.1954L28.4971 23.5251M14.6151 27.6175V28.504M11.8122 30.4985V31.4145M17.0803 29.9962V30.9565M26.1198 29.9962V31.0304M16.5228 17.8517C16.5228 17.8517 15.6717 25.6378 9.46445 30.0257C9.46445 30.0257 5.79586 32.6851 6.01597 34H34C34 34 34 32.4044 31.9162 31.252C31.9162 31.252 24.5057 26.2878 23.2584 18.1768L23.1556 17.8517C23.1556 17.8517 21.4828 19.5803 20.3528 18.1472C20.0097 18.0967 19.6595 18.1308 19.3323 18.2466C19.0051 18.3624 18.7108 18.5565 18.4745 18.8121C18.4745 18.8121 18.093 19.0337 17.4326 18.162L16.5815 17.6006L16.5228 17.8517Z" stroke="#737373" stroke-width="0.4" stroke-miterlimit="10" stroke-linecap="round"/>
</svg>
