<svg width="40" height="40" viewBox="0 0 40 40" fill="none" xmlns="http://www.w3.org/2000/svg">
<path d="M11.2427 10.1V17.574M18.8154 10.1649V17.4983M11.1342 11.6575H14.8177C14.8618 11.6575 14.9055 11.6662 14.9462 11.6831C14.987 11.6999 15.024 11.7246 15.0552 11.7557C15.0864 11.7869 15.1111 11.8238 15.128 11.8645C15.1448 11.9052 15.1535 11.9488 15.1535 11.9928V14.4806C15.1535 14.4806 28.8583 15.1836 20.5704 23.2634C17.0375 25.597 13.121 27.2921 9 28.2713C9 28.2713 10.1484 31.8623 12.6185 33.3874C12.6185 33.3874 15.5761 34.469 17.1036 30.6293C17.1036 30.6293 24.9906 27.3844 26.0631 21.5544C26.0631 21.5544 27.1465 16.8818 22.9864 15.1296C22.9864 15.1296 20.2021 14.1885 18.8479 14.4806M11.1342 14.4806H16.3994V11.9928C16.3994 11.9039 16.4348 11.8186 16.4978 11.7557C16.5608 11.6929 16.6462 11.6575 16.7353 11.6575H18.8153M12.7377 14.6212V18.5691M14.4494 14.6212V18.5691M12.911 15.6704H14.4494M12.911 17.1306H14.4494M18.8155 14.4806C18.8155 14.4806 29.3892 13.9614 27.97 23.5554C27.97 23.5554 27.3958 27.7846 19.9855 32.2084C19.9855 32.2084 15.587 35.5399 12.196 33.117M28.1107 23.285H31.7508C31.8169 23.285 31.8803 23.3112 31.927 23.3579C31.9737 23.4045 32 23.4678 32 23.5338V25.0156C32 25.0478 31.9935 25.0797 31.9809 25.1093C31.9682 25.1389 31.9497 25.1656 31.9264 25.1878C31.9031 25.2101 31.8755 25.2274 31.8454 25.2387C31.8152 25.25 31.783 25.255 31.7508 25.2536H27.5148M28.999 25.4266V27.4925C28.999 27.5585 29.0253 27.6218 29.072 27.6685C29.1188 27.7151 29.1821 27.7413 29.2482 27.7413H30.9708C31.0369 27.7413 31.1003 27.7151 31.147 27.6685C31.1937 27.6218 31.22 27.5585 31.22 27.4925V25.2536M20.4405 23.3283H16.0311C15.9363 23.3283 15.8454 23.3659 15.7783 23.4328C15.7113 23.4998 15.6736 23.5906 15.6736 23.6852C15.6736 23.6852 15.6736 25.0373 15.6736 25.3617C15.6736 25.4915 16.9303 25.3617 16.9303 25.3617M20.2779 9.45103C20.4089 9.54093 20.4993 9.67855 20.5296 9.8343C20.56 9.99004 20.528 10.1515 20.4404 10.2839L20.3104 10.4678C20.2207 10.596 20.084 10.6838 19.9299 10.7122C19.7758 10.7405 19.6167 10.7071 19.4871 10.6192L17.4828 9.24552L17.1036 8.96429L15.3161 7.55818C15.2324 7.49328 15.1295 7.45804 15.0236 7.45804C14.9176 7.45804 14.8147 7.49328 14.731 7.55818L12.716 8.98593L10.4842 10.6192C10.3529 10.7077 10.1921 10.7414 10.0362 10.7131C9.88034 10.6848 9.74173 10.5967 9.65002 10.4678L9.53085 10.2839C9.48607 10.2188 9.45474 10.1454 9.43866 10.0681C9.42259 9.99072 9.4221 9.91097 9.43723 9.83344C9.45236 9.75591 9.48279 9.68217 9.52677 9.61652C9.57074 9.55086 9.62737 9.4946 9.69335 9.45103L14.7094 6.1088C14.7948 6.03847 14.902 6 15.0127 6C15.1234 6 15.2307 6.03847 15.3161 6.1088L20.2779 9.45103Z" stroke="#737373" stroke-width="0.5" stroke-miterlimit="10"/>
</svg>
